<?xml version="1.0" encoding="UTF-8" standalone="no"?>
<!-- Created with Inkscape (http://www.inkscape.org/) -->

<svg
   width="960"
   height="360"
   viewBox="0 0 959.99999 360"
   version="1.1"
   id="svg1"
   xml:space="preserve"
   inkscape:version="1.3.2 (091e20e, 2023-11-25, custom)"
   sodipodi:docname="banner.svg"
   xmlns:inkscape="http://www.inkscape.org/namespaces/inkscape"
   xmlns:sodipodi="http://sodipodi.sourceforge.net/DTD/sodipodi-0.dtd"
   xmlns="http://www.w3.org/2000/svg"
   xmlns:svg="http://www.w3.org/2000/svg"><sodipodi:namedview
     id="namedview1"
     pagecolor="#ffffff"
     bordercolor="#000000"
     borderopacity="0.25"
     inkscape:showpageshadow="2"
     inkscape:pageopacity="0.0"
     inkscape:pagecheckerboard="0"
     inkscape:deskcolor="#d1d1d1"
     inkscape:document-units="px"
     inkscape:zoom="1"
     inkscape:cx="315"
     inkscape:cy="150.5"
     inkscape:window-width="1366"
     inkscape:window-height="705"
     inkscape:window-x="-8"
     inkscape:window-y="-8"
     inkscape:window-maximized="1"
     inkscape:current-layer="layer1" /><defs
     id="defs1"><inkscape:path-effect
       effect="bspline"
       id="path-effect48"
       is_visible="true"
       lpeversion="1.3"
       weight="33.333333"
       steps="2"
       helper_size="0"
       apply_no_weight="true"
       apply_with_weight="true"
       only_selected="false"
       uniform="false" /><inkscape:path-effect
       effect="bspline"
       id="path-effect47"
       is_visible="true"
       lpeversion="1.3"
       weight="33.333333"
       steps="2"
       helper_size="0"
       apply_no_weight="true"
       apply_with_weight="true"
       only_selected="false"
       uniform="false" /><inkscape:path-effect
       effect="bspline"
       id="path-effect46"
       is_visible="true"
       lpeversion="1.3"
       weight="33.333333"
       steps="2"
       helper_size="0"
       apply_no_weight="true"
       apply_with_weight="true"
       only_selected="false"
       uniform="false" /><inkscape:path-effect
       effect="bspline"
       id="path-effect45"
       is_visible="true"
       lpeversion="1.3"
       weight="33.333333"
       steps="2"
       helper_size="0"
       apply_no_weight="true"
       apply_with_weight="true"
       only_selected="false"
       uniform="false" /><inkscape:path-effect
       effect="bspline"
       id="path-effect44"
       is_visible="true"
       lpeversion="1.3"
       weight="33.333333"
       steps="2"
       helper_size="0"
       apply_no_weight="true"
       apply_with_weight="true"
       only_selected="false"
       uniform="false" /><inkscape:path-effect
       effect="bspline"
       id="path-effect43"
       is_visible="true"
       lpeversion="1.3"
       weight="33.333333"
       steps="2"
       helper_size="0"
       apply_no_weight="true"
       apply_with_weight="true"
       only_selected="false"
       uniform="false" /><inkscape:path-effect
       effect="bspline"
       id="path-effect42"
       is_visible="true"
       lpeversion="1.3"
       weight="33.333333"
       steps="2"
       helper_size="0"
       apply_no_weight="true"
       apply_with_weight="true"
       only_selected="false"
       uniform="false" /><inkscape:path-effect
       effect="bspline"
       id="path-effect41"
       is_visible="true"
       lpeversion="1.3"
       weight="33.333333"
       steps="2"
       helper_size="0"
       apply_no_weight="true"
       apply_with_weight="true"
       only_selected="false"
       uniform="false" /><inkscape:path-effect
       effect="bspline"
       id="path-effect40"
       is_visible="true"
       lpeversion="1.3"
       weight="33.333333"
       steps="2"
       helper_size="0"
       apply_no_weight="true"
       apply_with_weight="true"
       only_selected="false"
       uniform="false" /><inkscape:path-effect
       effect="bspline"
       id="path-effect39"
       is_visible="true"
       lpeversion="1.3"
       weight="33.333333"
       steps="2"
       helper_size="0"
       apply_no_weight="true"
       apply_with_weight="true"
       only_selected="false"
       uniform="false" /><inkscape:path-effect
       effect="bspline"
       id="path-effect38"
       is_visible="true"
       lpeversion="1.3"
       weight="33.333333"
       steps="2"
       helper_size="0"
       apply_no_weight="true"
       apply_with_weight="true"
       only_selected="false"
       uniform="false" /><inkscape:path-effect
       effect="bspline"
       id="path-effect37"
       is_visible="true"
       lpeversion="1.3"
       weight="33.333333"
       steps="2"
       helper_size="0"
       apply_no_weight="true"
       apply_with_weight="true"
       only_selected="false"
       uniform="false" /><inkscape:path-effect
       effect="bspline"
       id="path-effect36"
       is_visible="true"
       lpeversion="1.3"
       weight="33.333333"
       steps="2"
       helper_size="0"
       apply_no_weight="true"
       apply_with_weight="true"
       only_selected="false"
       uniform="false" /><inkscape:path-effect
       effect="bspline"
       id="path-effect35"
       is_visible="true"
       lpeversion="1.3"
       weight="33.333333"
       steps="2"
       helper_size="0"
       apply_no_weight="true"
       apply_with_weight="true"
       only_selected="false"
       uniform="false" /><inkscape:path-effect
       effect="bspline"
       id="path-effect34"
       is_visible="true"
       lpeversion="1.3"
       weight="33.333333"
       steps="2"
       helper_size="0"
       apply_no_weight="true"
       apply_with_weight="true"
       only_selected="false"
       uniform="false" /><inkscape:path-effect
       effect="bspline"
       id="path-effect33"
       is_visible="true"
       lpeversion="1.3"
       weight="33.333333"
       steps="2"
       helper_size="0"
       apply_no_weight="true"
       apply_with_weight="true"
       only_selected="false"
       uniform="false" /><inkscape:path-effect
       effect="bspline"
       id="path-effect32"
       is_visible="true"
       lpeversion="1.3"
       weight="33.333333"
       steps="2"
       helper_size="0"
       apply_no_weight="true"
       apply_with_weight="true"
       only_selected="false"
       uniform="false" /><inkscape:path-effect
       effect="bspline"
       id="path-effect24"
       is_visible="true"
       lpeversion="1.3"
       weight="33.333333"
       steps="2"
       helper_size="0"
       apply_no_weight="true"
       apply_with_weight="true"
       only_selected="false"
       uniform="false" /><inkscape:path-effect
       effect="bspline"
       id="path-effect23"
       is_visible="true"
       lpeversion="1.3"
       weight="33.333333"
       steps="2"
       helper_size="0"
       apply_no_weight="true"
       apply_with_weight="true"
       only_selected="false"
       uniform="false" /><inkscape:path-effect
       effect="bspline"
       id="path-effect22"
       is_visible="true"
       lpeversion="1.3"
       weight="33.333333"
       steps="2"
       helper_size="0"
       apply_no_weight="true"
       apply_with_weight="true"
       only_selected="false"
       uniform="false" /><inkscape:path-effect
       effect="bspline"
       id="path-effect21"
       is_visible="true"
       lpeversion="1.3"
       weight="33.333333"
       steps="2"
       helper_size="0"
       apply_no_weight="true"
       apply_with_weight="true"
       only_selected="false"
       uniform="false" /><inkscape:path-effect
       effect="bspline"
       id="path-effect20"
       is_visible="true"
       lpeversion="1.3"
       weight="33.333333"
       steps="2"
       helper_size="0"
       apply_no_weight="true"
       apply_with_weight="true"
       only_selected="false"
       uniform="false" /><inkscape:path-effect
       effect="bspline"
       id="path-effect19"
       is_visible="true"
       lpeversion="1.3"
       weight="33.333333"
       steps="2"
       helper_size="0"
       apply_no_weight="true"
       apply_with_weight="true"
       only_selected="false"
       uniform="false" /><inkscape:path-effect
       effect="bspline"
       id="path-effect18"
       is_visible="true"
       lpeversion="1.3"
       weight="33.333333"
       steps="2"
       helper_size="0"
       apply_no_weight="true"
       apply_with_weight="true"
       only_selected="false"
       uniform="false" /><inkscape:path-effect
       effect="bspline"
       id="path-effect17"
       is_visible="true"
       lpeversion="1.3"
       weight="33.333333"
       steps="2"
       helper_size="0"
       apply_no_weight="true"
       apply_with_weight="true"
       only_selected="false"
       uniform="false" /><inkscape:path-effect
       effect="bspline"
       id="path-effect16"
       is_visible="true"
       lpeversion="1.3"
       weight="33.333333"
       steps="2"
       helper_size="0"
       apply_no_weight="true"
       apply_with_weight="true"
       only_selected="false"
       uniform="false" /><inkscape:path-effect
       effect="bspline"
       id="path-effect15"
       is_visible="true"
       lpeversion="1.3"
       weight="33.333333"
       steps="2"
       helper_size="0"
       apply_no_weight="true"
       apply_with_weight="true"
       only_selected="false"
       uniform="false" /><inkscape:path-effect
       effect="bspline"
       id="path-effect14"
       is_visible="true"
       lpeversion="1.3"
       weight="33.333333"
       steps="2"
       helper_size="0"
       apply_no_weight="true"
       apply_with_weight="true"
       only_selected="false"
       uniform="false" /><inkscape:path-effect
       effect="bspline"
       id="path-effect13"
       is_visible="true"
       lpeversion="1.3"
       weight="33.333333"
       steps="2"
       helper_size="0"
       apply_no_weight="true"
       apply_with_weight="true"
       only_selected="false"
       uniform="false" /><inkscape:path-effect
       effect="bspline"
       id="path-effect24-4"
       is_visible="true"
       lpeversion="1.3"
       weight="33.333333"
       steps="2"
       helper_size="0"
       apply_no_weight="true"
       apply_with_weight="true"
       only_selected="false"
       uniform="false" /><inkscape:path-effect
       effect="bspline"
       id="path-effect23-2"
       is_visible="true"
       lpeversion="1.3"
       weight="33.333333"
       steps="2"
       helper_size="0"
       apply_no_weight="true"
       apply_with_weight="true"
       only_selected="false"
       uniform="false" /><inkscape:path-effect
       effect="bspline"
       id="path-effect22-8"
       is_visible="true"
       lpeversion="1.3"
       weight="33.333333"
       steps="2"
       helper_size="0"
       apply_no_weight="true"
       apply_with_weight="true"
       only_selected="false"
       uniform="false" /><inkscape:path-effect
       effect="bspline"
       id="path-effect21-3"
       is_visible="true"
       lpeversion="1.3"
       weight="33.333333"
       steps="2"
       helper_size="0"
       apply_no_weight="true"
       apply_with_weight="true"
       only_selected="false"
       uniform="false" /><inkscape:path-effect
       effect="bspline"
       id="path-effect20-5"
       is_visible="true"
       lpeversion="1.3"
       weight="33.333333"
       steps="2"
       helper_size="0"
       apply_no_weight="true"
       apply_with_weight="true"
       only_selected="false"
       uniform="false" /><inkscape:path-effect
       effect="bspline"
       id="path-effect19-6"
       is_visible="true"
       lpeversion="1.3"
       weight="33.333333"
       steps="2"
       helper_size="0"
       apply_no_weight="true"
       apply_with_weight="true"
       only_selected="false"
       uniform="false" /><inkscape:path-effect
       effect="bspline"
       id="path-effect18-7"
       is_visible="true"
       lpeversion="1.3"
       weight="33.333333"
       steps="2"
       helper_size="0"
       apply_no_weight="true"
       apply_with_weight="true"
       only_selected="false"
       uniform="false" /><inkscape:path-effect
       effect="bspline"
       id="path-effect17-8"
       is_visible="true"
       lpeversion="1.3"
       weight="33.333333"
       steps="2"
       helper_size="0"
       apply_no_weight="true"
       apply_with_weight="true"
       only_selected="false"
       uniform="false" /><inkscape:path-effect
       effect="bspline"
       id="path-effect16-2"
       is_visible="true"
       lpeversion="1.3"
       weight="33.333333"
       steps="2"
       helper_size="0"
       apply_no_weight="true"
       apply_with_weight="true"
       only_selected="false"
       uniform="false" /><inkscape:path-effect
       effect="bspline"
       id="path-effect15-4"
       is_visible="true"
       lpeversion="1.3"
       weight="33.333333"
       steps="2"
       helper_size="0"
       apply_no_weight="true"
       apply_with_weight="true"
       only_selected="false"
       uniform="false" /><inkscape:path-effect
       effect="bspline"
       id="path-effect14-5"
       is_visible="true"
       lpeversion="1.3"
       weight="33.333333"
       steps="2"
       helper_size="0"
       apply_no_weight="true"
       apply_with_weight="true"
       only_selected="false"
       uniform="false" /><inkscape:path-effect
       effect="bspline"
       id="path-effect13-8"
       is_visible="true"
       lpeversion="1.3"
       weight="33.333333"
       steps="2"
       helper_size="0"
       apply_no_weight="true"
       apply_with_weight="true"
       only_selected="false"
       uniform="false" /></defs><g
     inkscape:label="Layer 1"
     inkscape:groupmode="layer"
     id="layer1"><rect
       style="display:inline;fill:#666666;fill-opacity:1;stroke:none;stroke-width:0;stroke-linecap:round;stroke-linejoin:round;stroke-dasharray:none"
       id="rect32"
       width="960"
       height="360"
       x="0"
       y="0" /><g
       inkscape:label="logo"
       id="layer1-3"
       transform="translate(29.991093,29.238197)"><rect
         style="fill:#ffffff;fill-opacity:1;stroke:#ff0000;stroke-width:0;stroke-linecap:round;stroke-linejoin:round;stroke-dasharray:none"
         id="rect31"
         width="300"
         height="300"
         x="0.0089066504"
         y="0.76180261" /><path
         style="fill:#ffff00;fill-opacity:1;stroke:#ff0000;stroke-width:0;stroke-linecap:round;stroke-linejoin:round;stroke-dasharray:none"
         id="path31"
         sodipodi:type="arc"
         sodipodi:cx="96.993919"
         sodipodi:cy="202.23169"
         sodipodi:rx="72.997566"
         sodipodi:ry="72.998619"
         sodipodi:start="6.1086524"
         sodipodi:end="5.3232542"
         sodipodi:arc-type="slice"
         d="m 168.88249,189.55561 a 72.997566,72.998619 0 0 1 -45.43148,80.71137 72.997566,72.998619 0 0 1 -88.022614,-28.81316 72.997566,72.998619 0 0 1 11.086753,-91.9537 72.997566,72.998619 0 0 1 92.348451,-7.0654 l -41.869681,59.79697 z"
         transform="translate(0.00890665,0.76180263)" /><path
         id="path5"
         style="color:#000000;fill:#000000;stroke-linecap:round;stroke-linejoin:round;-inkscape-stroke:none"
         d="m 97.605469,128.00195 c -19.001009,-0.14613 -37.935775,6.90368 -52.466797,20.81446 -25.83293,24.73026 -30.605335,64.3128 -11.390625,94.47461 19.214709,30.1618 57.105373,42.56524 90.435543,29.60351 33.33018,-12.96172 52.88767,-47.70464 46.67774,-82.92383 a 3.000295,3.000295 0 0 0 -3.47656,-2.43359 l -63.77149,11.24414 37.14258,-53.04687 a 3.000295,3.000295 0 0 0 -0.73633,-4.17774 C 127.2033,132.5824 112.38403,128.11561 97.605469,128.00195 Z m -0.410157,5.98438 c 12.751618,0.046 25.536118,3.65989 36.847658,10.87305 l -39.500001,56.41406 a 3.000295,3.000295 0 0 0 2.978515,4.67383 l 67.822266,-11.95899 c 4.14671,31.39391 -13.58004,61.74274 -43.33594,73.31445 -30.696685,11.93759 -65.504592,0.54438 -83.201169,-27.23437 -17.696579,-27.77876 -13.311398,-64.14164 10.480468,-86.91797 11.895933,-11.38816 26.973186,-17.78079 42.449219,-18.96484 1.815909,-0.13894 3.637325,-0.20579 5.458984,-0.19922 z m -11.232421,15.01562 a 3,3 0 0 0 -2.748047,1.88477 l -10.419922,26.04883 -26.080078,12.35351 a 3,3 0 0 0 -1.425782,3.9961 3,3 0 0 0 3.996094,1.42578 l 20.234375,-9.58399 -10.304687,25.75977 a 3,3 0 0 0 1.671875,3.89844 3,3 0 0 0 3.898437,-1.67188 l 12.705078,-31.76172 28.794926,-13.64062 a 3,3 0 0 0 1.42578,-3.9961 3,3 0 0 0 -3.9961,-1.42578 l -22.947262,10.8711 8.017578,-20.04688 a 3,3 0 0 0 -1.671875,-3.89844 3,3 0 0 0 -1.15039,-0.21289 z" /><path
         id="path10"
         style="color:#000000;fill:#ff00ff;stroke-linecap:round;stroke-linejoin:round;-inkscape-stroke:none"
         d="m 188.30078,22.779297 c -0.43217,-0.03742 -0.87614,-0.01635 -1.32226,0.07813 -1.78451,0.377768 -3.05901,1.827364 -3.65235,3.123047 -0.59334,1.29568 -0.8167,2.616915 -0.95508,4.039062 -0.27675,2.844301 -0.11298,6.134828 0.0391,9.402344 0.15201,3.267515 0.30012,6.503779 0.12695,8.818359 -0.0793,1.059573 -0.24548,1.832586 -0.40039,2.322266 -0.46759,-0.213364 -1.15416,-0.608698 -1.99414,-1.259766 -1.83548,-1.422652 -4.14531,-3.699508 -6.4707,-6.001953 -2.32542,-2.302443 -4.65675,-4.627275 -6.95508,-6.328125 -1.14919,-0.850422 -2.28051,-1.571728 -3.64063,-2 -1.36014,-0.428266 -3.29108,-0.453054 -4.76758,0.617188 -1.47646,1.070242 -2.05379,2.913172 -2.06836,4.33789 -0.0145,1.42472 0.32087,2.720801 0.77344,4.076172 0.90512,2.710749 2.3961,5.649149 3.86524,8.572266 1.46912,2.923115 2.91904,5.82109 3.70312,8.005859 0.35879,0.999783 0.52215,1.772872 0.58008,2.283203 -0.5139,-0.0047 -1.30267,-0.08623 -2.33594,-0.339843 -2.25605,-0.553742 -5.28973,-1.695172 -8.35156,-2.853516 -3.06182,-1.158344 -6.14143,-2.335309 -8.93359,-2.955078 -1.3961,-0.309886 -2.72173,-0.50913 -4.13868,-0.347656 -1.41691,0.161469 -3.1923,0.924289 -4.10546,2.501953 -0.9132,1.57766 -0.68976,3.495321 -0.12305,4.802734 0.56671,1.307413 1.40194,2.353963 2.36719,3.408203 1.93046,2.10848 4.4873,4.188433 7.01953,6.261719 2.5322,2.073285 5.03486,4.133359 6.64062,5.810547 0.73527,0.767971 1.20434,1.405043 1.46485,1.847656 -0.47119,0.204602 -1.22733,0.45032 -2.2754,0.638672 -2.2865,0.41092 -5.52418,0.603016 -8.79296,0.789063 -3.26882,0.186048 -6.56201,0.359251 -9.36524,0.927734 -1.40161,0.284237 -2.69116,0.643893 -3.91992,1.367187 -1.22876,0.723297 -2.54043,2.140837 -2.73242,3.953125 -0.19199,1.81229 0.79374,3.473461 1.84375,4.4375 1.05001,0.964042 2.2378,1.579574 3.54883,2.150391 2.62203,1.141638 5.80348,2.002222 8.96093,2.867187 3.15747,0.864969 6.28575,1.727823 8.43555,2.607423 0.98376,0.40251 1.66952,0.79922 2.08789,1.09766 -0.34756,0.37839 -0.93869,0.90869 -1.81836,1.50586 -1.92164,1.30453 -4.80035,2.7947 -7.71094,4.29297 -2.91057,1.49827 -5.84622,2.99782 -8.17578,4.65625 -1.16477,0.82921 -2.20118,1.67978 -3.02929,2.83983 -0.82812,1.16006 -1.44913,2.98715 -0.88672,4.72071 0.56241,1.73353 2.14046,2.84875 3.49218,3.30273 1.35174,0.45398 2.68902,0.5367 4.11915,0.52539 2.86022,-0.0226 6.11675,-0.53053 9.35351,-1.02344 3.23676,-0.49292 6.4435,-0.97485 8.76563,-1.04492 1.06281,-0.0321 1.8518,0.0517 2.35547,0.1543 -0.16354,0.48692 -0.48453,1.21051 -1.04493,2.11329 -1.2245,1.97257 -3.25166,4.5052 -5.30078,7.05663 -2.04911,2.55143 -4.12114,5.1126 -5.57422,7.57422 -0.72655,1.23081 -1.32509,2.42799 -1.60937,3.82422 -0.28428,1.39623 -0.10823,3.31875 1.11133,4.67383 0.9409,1.04544 2.27983,1.50176 3.49609,1.59765 v 24.20508 a 3.0003,3.0003 0 0 0 4.5,2.59961 l 17.31641,-9.99805 c 0.0211,0.01 0.0354,0.0276 0.0566,0.0371 1.66584,0.74229 3.55265,0.31902 4.79492,-0.38086 1.24229,-0.69987 2.19785,-1.63766 3.14648,-2.70703 0.76687,-0.86446 1.5157,-1.84661 2.25782,-2.87109 l 2.57812,-1.48828 a 3.0003,3.0003 0 0 0 1.15039,-3.99805 c 1.63037,-2.47106 3.23729,-4.87368 4.60156,-6.48242 0.68757,-0.81077 1.278,-1.33738 1.69141,-1.64258 0.25272,0.44728 0.57467,1.16962 0.87109,2.18945 0.64783,2.22891 1.17463,5.42587 1.70118,8.6543 0.52657,3.22844 1.04565,6.48122 1.90429,9.20703 0.42931,1.36291 0.91925,2.60868 1.76758,3.75391 0.84832,1.14523 2.39664,2.29963 4.2207,2.30078 1.82409,0.001 3.37461,-1.15077 4.22461,-2.29492 0.85,-1.14415 1.34018,-2.3896 1.77149,-3.75196 0.8626,-2.7247 1.38864,-5.97734 1.91992,-9.20507 0.53128,-3.22777 1.0618,-6.42427 1.71289,-8.65235 0.29812,-1.02021 0.62157,-1.74271 0.875,-2.18945 0.41298,0.30591 1.00155,0.83535 1.6875,1.64648 1.49927,1.77287 3.28467,4.47963 5.08008,7.21485 1.7954,2.73519 3.59218,5.4956 5.48633,7.63671 0.94707,1.07056 1.90134,2.01145 3.14257,2.7129 1.24124,0.70141 3.12605,1.12494 4.79297,0.38476 1.66693,-0.74018 2.61505,-2.4219 2.92578,-3.8125 0.31075,-1.39059 0.25441,-2.72865 0.0937,-4.14844 -0.3212,-2.83956 -1.16936,-6.02303 -1.99804,-9.1875 -0.8287,-3.16445 -1.64283,-6.29967 -1.95508,-8.59961 -0.14302,-1.05321 -0.14149,-1.84636 -0.0918,-2.35742 0.50172,0.11145 1.25336,0.35779 2.21094,0.82031 2.09146,1.01027 4.82239,2.75829 7.57617,4.52735 2.7538,1.76906 5.52285,3.55791 8.125,4.74414 1.30107,0.59312 2.55505,1.0648 3.97461,1.20117 1.41955,0.13638 3.31361,-0.24216 4.53516,-1.5957 1.22154,-1.35353 1.40332,-3.27529 1.12109,-4.67188 -0.28224,-1.39659 -0.88073,-2.59639 -1.60547,-3.82812 -1.44948,-2.46345 -3.51712,-5.02804 -5.5625,-7.58203 -2.04539,-2.55402 -4.06747,-5.08841 -5.28906,-7.0625 -0.55858,-0.90266 -0.87988,-1.62409 -1.04297,-2.11133 0.50394,-0.10193 1.29127,-0.18573 2.35352,-0.15234 2.32199,0.073 5.52963,0.55962 8.76562,1.05664 3.23604,0.49701 6.49332,1.00893 9.35352,1.03515 1.43012,0.0131 2.76674,-0.0673 4.11914,-0.51953 1.35241,-0.45227 2.92921,-1.56794 3.49414,-3.30078 0.56494,-1.73285 -0.0525,-3.56155 -0.87891,-4.72266 -0.82642,-1.1611 -1.85988,-2.01502 -3.02344,-2.8457 -2.32708,-1.66137 -5.25958,-3.16016 -8.16796,-4.66211 -2.9084,-1.50195 -5.78731,-2.99773 -7.70704,-4.30469 -0.8783,-0.59796 -1.46728,-1.12703 -1.81445,-1.50586 0.41887,-0.29789 1.10568,-0.69451 2.08985,-1.0957 2.15105,-0.876875 5.27682,-1.734727 8.43554,-2.595697 3.15873,-0.860973 6.34505,-1.71715 8.96875,-2.855469 1.31187,-0.569162 2.49936,-1.185726 3.55078,-2.148438 1.05141,-0.962711 2.03896,-2.623015 1.84961,-4.435547 -0.1893,-1.812531 -1.4969,-3.234136 -2.72461,-3.958984 -1.2277,-0.724848 -2.51873,-1.079226 -3.91992,-1.365234 -2.80239,-0.572016 -6.09672,-0.753179 -9.36523,-0.94336 -3.26854,-0.190181 -6.50509,-0.385014 -8.79102,-0.798828 -1.04594,-0.189346 -1.80012,-0.433678 -2.27148,-0.638672 0.2612,-0.442293 0.72665,-1.084665 1.46289,-1.851562 1.60822,-1.675158 4.11708,-3.728748 6.65234,-5.798828 2.53526,-2.070082 5.09376,-4.147871 7.02735,-6.253907 0.96674,-1.053017 1.80246,-2.101508 2.37109,-3.408203 0.56862,-1.306693 0.7976,-3.221967 -0.11328,-4.800781 -0.91089,-1.578813 -2.68488,-2.344548 -4.10156,-2.507813 -1.41671,-0.163262 -2.74409,0.03564 -4.14063,0.34375 -2.79311,0.616238 -5.87203,1.788891 -8.93555,2.94336 -3.06348,1.15447 -6.10251,2.292862 -8.35937,2.84375 -1.03307,0.252168 -1.81998,0.335649 -2.33399,0.339844 0.0586,-0.510169 0.2216,-1.285312 0.58204,-2.285157 0.78724,-2.183774 2.24338,-5.082651 3.71679,-8.003906 1.47342,-2.921255 2.96788,-5.856808 3.87696,-8.566406 0.45454,-1.3548 0.78983,-2.649481 0.77734,-4.074219 -0.0125,-1.424738 -0.58562,-3.267734 -2.06055,-4.339844 -1.47493,-1.072108 -3.40683,-1.049596 -4.76758,-0.623046 -1.36073,0.426548 -2.49021,1.145173 -3.64062,1.99414 -2.30086,1.697937 -4.63801,4.020811 -6.9668,6.320313 -2.32877,2.299498 -4.64095,4.573811 -6.47851,5.99414 -0.84139,0.650349 -1.52824,1.04519 -1.9961,1.257813 -0.15415,-0.48993 -0.31875,-1.264775 -0.39648,-2.324219 -0.16978,-2.314804 -0.0201,-5.551043 0.13672,-8.818359 0.1568,-3.267321 0.32726,-6.557697 0.0547,-9.402344 -0.13622,-1.422329 -0.35777,-2.744585 -0.94921,-4.041016 -0.59144,-1.29643 -1.86647,-2.746927 -3.65039,-3.126953 -1.78394,-0.380023 -3.53793,0.426534 -4.60743,1.369141 -1.06952,0.942608 -1.81023,2.059709 -2.51562,3.302734 -1.41077,2.486051 -2.59965,5.556588 -3.79102,8.603516 -1.19139,3.046928 -2.37604,6.06519 -3.47656,8.109375 -0.50343,0.935097 -0.96971,1.572399 -1.31055,1.957031 -0.3403,-0.384818 -0.80806,-1.022467 -1.31054,-1.958984 -1.09753,-2.045575 -2.27792,-5.06485 -3.46485,-8.113282 -1.18691,-3.048434 -2.37219,-6.121541 -3.77929,-8.609375 -0.70358,-1.243913 -1.44359,-2.360726 -2.51172,-3.304687 -0.8011,-0.707968 -1.98863,-1.340873 -3.28516,-1.453125 z" /><path
         id="path14"
         style="color:#000000;fill:#ffffff;stroke-linecap:round;stroke-linejoin:round;-inkscape-stroke:none"
         d="m 166.85156,78.53125 a 2,2 0 0 0 -2.32031,1.617188 c -0.83333,4.666657 -1.66748,9.335426 -2.24219,12.208984 -0.57471,2.873558 -0.89941,3.968758 -1.0957,5.146484 -0.19629,1.177726 -0.17288,1.874659 -0.66016,4.554684 -0.48728,2.68004 -1.48828,7.35482 -2.48828,12.02149 a 2,2 0 0 0 1.53516,2.375 2,2 0 0 0 2.375,-1.53516 c 1,-4.66665 1.999,-9.32457 2.51172,-12.14453 0.28804,-1.58422 0.41622,-2.55679 0.50195,-3.27539 h 13.8125 c -0.19042,0.6398 -0.40415,1.29521 -0.61719,2.01953 -0.44302,1.50629 -0.77947,3.029 -1.0957,4.21485 -0.31623,1.18583 -0.64666,2.14625 -0.82422,2.56054 -0.17756,0.41431 -0.4331,0.77977 -0.80859,1.90625 -0.3755,1.12649 -0.86524,2.94011 -1.36524,4.77344 a 2,2 0 0 0 1.4043,2.45508 2,2 0 0 0 2.45508,-1.4043 c 0.5,-1.83333 1.00961,-3.68704 1.30078,-4.56055 0.29117,-0.87351 0.36897,-0.84138 0.69141,-1.59375 0.32244,-0.75237 0.65932,-1.79133 1.00976,-3.10547 0.35044,-1.31414 0.68001,-2.79014 1.07031,-4.11718 0.39031,-1.32704 0.93557,-2.767683 1.22266,-4.58594 0.28709,-1.818257 0.29149,-3.661062 0.49805,-4.900391 0.20655,-1.239328 0.64226,-2.232574 0.95703,-3.386718 0.31476,-1.154145 0.32068,-1.815051 0.48633,-2.367188 0.16564,-0.552135 0.68271,-1.585313 1.01367,-2.798828 C 186.51065,83.39586 186.5,82.333331 186.5,81.5 a 2,2 0 0 0 -2,-2 2,2 0 0 0 -2,2 c 0,0.833331 -0.0106,1.436825 -0.17969,2.056641 -0.16904,0.619814 -0.65197,1.586644 -0.98633,2.701171 -0.33435,1.114528 -0.32843,1.787612 -0.51367,2.466797 -0.18523,0.679186 -0.74952,2.018633 -1.04297,3.779297 -0.16925,1.015566 -0.24061,2.041663 -0.31054,2.996094 h -13.75196 c 0.14241,-0.647358 0.3014,-1.383949 0.4961,-2.357422 0.59195,-2.959763 1.42448,-7.624358 2.25781,-12.291016 A 2,2 0 0 0 166.85156,78.53125 Z M 249,79 a 2,2 0 0 0 -2,2 c 0,2.333329 -0.002,4.66419 -0.0801,6.144531 -0.0779,1.480343 -0.24417,2.295447 -0.33398,3.822266 -0.0898,1.526818 -0.0971,3.517067 -0.23828,4.716797 -0.14115,1.199729 -0.4117,1.803825 -0.63282,2.798828 -0.22111,0.995 -0.23168,1.670888 -0.32226,2.033198 -0.0906,0.36231 -0.49509,1.27619 -0.7793,2.88672 -0.28421,1.61054 -0.44075,3.77671 -0.60742,5.94336 a 2,2 0 0 0 1.83984,2.14844 2,2 0 0 0 2.14844,-1.83984 c 0.16667,-2.16667 0.34281,-4.33385 0.55859,-5.55664 0.21579,-1.2228 0.47795,-1.64227 0.72071,-2.61328 0.24275,-0.97103 0.23348,-1.629774 0.3457,-2.134771 0.11222,-0.504992 0.50898,-1.565621 0.70117,-3.199218 0.19219,-1.633597 0.18291,-3.642709 0.25977,-4.949219 0.0768,-1.30651 0.24523,-2.159385 0.33398,-3.845703 C 251.00284,85.66915 251,83.333329 251,81 a 2,2 0 0 0 -2,-2 z m -51.5,9 a 2,2 0 0 0 -1.41406,0.585938 l -0.5,0.5 a 2,2 0 0 0 0,2.828124 2,2 0 0 0 2.82812,0 l 0.5,-0.5 a 2,2 0 0 0 0,-2.828124 A 2,2 0 0 0 197.5,88 Z m -3.08594,11.501953 a 2,2 0 0 0 -1.86718,1.564457 c -0.66666,2.99998 -1.3335,5.99473 -1.6836,8.00781 -0.3501,2.01308 -0.37375,3.0486 -0.43164,3.51172 -0.0579,0.46312 -0.16146,0.78125 -0.32812,1.28125 a 2,2 0 0 0 1.26367,2.52929 2,2 0 0 0 2.52929,-1.26367 c 0.16667,-0.5 0.39513,-1.18057 0.50391,-2.05078 0.10878,-0.87021 0.0877,-1.50202 0.4043,-3.32226 0.31656,-1.82026 0.98178,-4.82618 1.64843,-7.82618 a 2,2 0 0 0 -1.51953,-2.386715 2,2 0 0 0 -0.51953,-0.04492 z M 212.01172,101 c -0.97394,6.4e-4 -1.892,0.0116 -2.64844,0.0957 -0.78094,0.0868 -1.44548,0.34375 -1.58984,0.41602 -0.0236,0.005 -0.0314,0.006 -0.0664,0.0117 -0.15065,0.0232 -0.37517,-0.009 -0.93555,0.27148 -0.41617,0.20809 -0.62032,0.57059 -0.8164,0.875 -0.16473,0.0324 -0.66123,0.11489 -1.36719,0.61914 -0.87657,0.62612 -1.67444,1.46147 -2.13867,1.85938 -0.23212,0.19895 -0.55574,0.40605 -0.95117,0.89453 -0.39544,0.48848 -0.67734,1.18138 -0.79883,1.84961 -0.24299,1.33644 -0.24299,2.8784 0,4.21484 0.24299,1.33646 1.18719,2.35311 1.11719,2.25977 -0.07,-0.0933 0.13081,0.57612 0.93554,1.38086 0.53899,0.53898 0.94431,0.80417 1.04883,0.81445 0.0408,0.15256 0.11216,0.34653 0.45117,0.68555 0.55475,0.55475 1.02454,0.62029 1.21875,0.67578 0.079,0.0226 0.11132,0.0332 0.13672,0.041 0.1197,0.0931 0.99478,0.63187 2.11719,0.83594 C 209.01905,119.0361 210.5,119 212,119 a 2,2 0 0 0 2,-2 2,2 0 0 0 -2,-2 c -1.5,0 -3.01973,-0.0368 -3.55859,-0.13477 -0.53885,-0.098 -0.23651,-0.0831 -1.04688,-0.48828 -0.18232,-0.0912 -0.23544,-0.089 -0.37109,-0.13476 -0.1097,-0.20248 -0.13114,-0.34403 -0.35938,-0.57227 -0.59367,-0.59368 -0.93706,-0.78596 -1.05859,-0.80859 -0.0616,-0.13747 -0.24429,-0.436 -0.58789,-0.89453 -0.26731,-0.35642 -0.34536,-0.39443 -0.36524,-0.38672 0.004,-0.0202 0.004,-0.0697 -0.0176,-0.1875 -0.0904,-0.49689 -0.0904,-2.28827 0,-2.78516 0.0118,-0.0648 0.007,-0.0509 0.01,-0.0703 0.0594,-0.0501 0.1855,-0.16234 0.40625,-0.35156 0.70243,-0.60209 1.57124,-1.43342 1.86133,-1.64063 0.29008,-0.2072 -0.11926,0.0215 0.63672,-0.23047 0.47949,-0.15983 0.73425,-0.56057 1.05078,-0.90039 0.13108,-0.0211 0.21795,-0.0225 0.44922,-0.0996 0.75593,-0.25198 0.26442,-0.18953 0.75586,-0.24414 C 210.29616,105.01573 211.66667,105 213,105 a 2,2 0 0 0 2,-2 2,2 0 0 0 -2,-2 c -0.33333,0 -0.66363,-2.1e-4 -0.98828,0 z m 12.08203,0.5293 c -0.15927,-0.005 -0.31964,-0.003 -0.48242,0.004 -0.65112,0.0294 -1.33049,0.16013 -2.04492,0.41992 -1.42886,0.51958 -2.41275,1.54393 -3.06446,2.52149 -0.65171,0.97757 -1.13007,2.2414 -1.32226,3.875 -0.19219,1.6336 -0.18671,3.63031 -0.0918,4.95898 0.0949,1.32869 0.31953,1.97187 0.35547,2.1875 0.0359,0.21564 0.0566,0.83724 0.0566,1.50391 a 2,2 0 0 0 2,2 2,2 0 0 0 2,-2 c 0,-0.66667 0.0194,-1.37775 -0.11133,-2.16211 -0.13073,-0.78437 -0.23879,-0.80981 -0.31055,-1.81445 -0.0718,-1.00464 -0.0669,-3.0073 0.0742,-4.20703 0.14115,-1.19973 0.32945,-1.60062 0.67774,-2.12305 0.34829,-0.52243 0.69904,-0.83339 1.10351,-0.98047 0.39405,-0.14328 1.38134,-0.1387 1.55664,-0.10742 -0.0121,0.10055 0.0406,0.60605 0.0957,1.81836 0.0841,1.84981 0.24935,5.01497 0.41601,8.18164 a 2,2 0 0 0 2.10352,1.89258 2,2 0 0 0 1.89258,-2.10352 c -0.16667,-3.16667 -0.33343,-6.33549 -0.41602,-8.15234 -0.0826,-1.81686 0.0687,-2.11605 -0.26758,-3.125 -0.16815,-0.50446 -0.66325,-1.05662 -0.91211,-1.23438 -0.0554,-0.0396 -0.041,-0.0295 -0.0645,-0.0469 -0.2828,-0.27197 -1.02324,-0.9018 -1.85351,-1.10938 -0.44973,-0.11243 -0.91281,-0.18215 -1.39063,-0.19726 z m 13.66797,1.98437 a 2,2 0 0 0 -0.96094,0.38672 c -1.33333,1 -2.56659,1.87128 -3.38086,2.68555 -0.20357,0.20357 -0.40735,0.39456 -0.62109,0.83789 -0.21375,0.44333 -0.29167,1.4677 0.0996,2.09375 0.28336,0.45336 0.55089,0.6361 0.72851,0.73047 0.0272,0.0698 0.34807,0.38712 0.79297,0.83203 0.65714,0.65713 1.30479,1.27439 1.41602,1.47461 0.11122,0.2002 0.13281,0.58594 0.27539,1.4414 0.0635,0.38108 0.11671,0.55613 0.125,0.57032 -0.003,0.0106 -0.005,0.011 -0.0215,0.084 -0.0869,0.39094 -0.63023,1.66541 -0.78711,1.93359 -0.0552,-1.6e-4 -0.12917,0.006 -0.25585,0.0273 -0.71327,0.11888 -1.30469,0.32552 -1.80469,0.49219 a 2,2 0 0 0 -1.26367,2.52929 2,2 0 0 0 2.52929,1.26367 c 0.5,-0.16666 0.9086,-0.29205 1.19531,-0.33984 0.28673,-0.0478 1.88749,-0.34477 2.77149,-1.52344 0.884,-1.17866 1.278,-2.42873 1.51953,-3.51562 0.12076,-0.54343 0.14258,-1.11599 0.0742,-1.54883 -0.0683,-0.43284 -0.12467,-0.55858 -0.13672,-0.63086 -0.0241,-0.14453 -0.002,-1.42677 -0.72461,-2.72656 -0.65386,-1.17696 -1.46839,-1.76055 -1.88672,-2.13672 0.58018,-0.46019 0.96161,-0.78078 1.75391,-1.375 a 2,2 0 0 0 0.40039,-2.79883 2,2 0 0 0 -1.31641,-0.78125 2,2 0 0 0 -0.52148,-0.006 z m -13.2461,2.09375 c 0.0223,0.006 0.0257,0.0412 0.0117,0.0234 -0.005,-0.012 -0.008,-0.016 -0.0117,-0.0234 z M 244,115 a 2,2 0 0 0 -2,2 v 2 a 2,2 0 0 0 2,2 2,2 0 0 0 2,-2 v -2 a 2,2 0 0 0 -2,-2 z"
         transform="translate(-3,-3.5)" /></g><path
       id="path32"
       style="color:#000000;fill:#000000;stroke-linecap:round;stroke-linejoin:round;-inkscape-stroke:none"
       d="m 920.30148,106.03125 a 8,8 0 0 0 -7.09765,6.16992 c -1,4.33333 -1.99832,8.64283 -2.77539,11.59571 -0.77707,2.95286 -1.60005,5.39611 -2.03516,8.87695 -0.4351,3.48083 -0.39412,6.90651 -0.56055,19.55469 -0.16642,12.64817 -0.50065,34.65043 -0.83398,56.65039 a 8,8 0 0 0 7.87891,8.12109 8,8 0 0 0 8.12109,-7.87891 c 0.33333,-21.99994 0.66512,-43.99653 0.83203,-56.68164 0.16691,-12.68509 0.20789,-15.92876 0.43945,-17.78125 0.23157,-1.85248 0.74127,-3.40861 1.63086,-6.78906 0.8896,-3.38045 1.89258,-7.737 2.89258,-12.07031 a 8,8 0 0 0 -5.99609,-9.59375 8,8 0 0 0 -2.4961,-0.17383 z m -375.41992,9.01758 a 8,8 0 0 0 -8.83398,7.06836 c -0.33333,2.99998 -0.68609,6.14452 -0.86914,9.43945 -0.18305,3.29493 -0.17969,6.44336 -0.17969,11.44336 0,5 -0.003,11.95851 -0.16406,17.43164 -0.16098,5.47314 -0.4867,9.68632 -0.66211,13.7207 -0.17541,4.0344 -0.17383,7.51368 -0.17383,13.01368 v 20 c 0,6.83331 -0.0197,12.68749 0.17969,16.27734 0.0997,1.79493 0.12721,2.96867 0.79101,4.86523 0.66381,1.89658 3.14921,4.45781 2.37305,3.68164 -1.55226,-1.55225 0.62016,1.67736 4.18555,3.10352 3.56541,1.42617 4.84997,0.9462 5.17187,0.99219 0.32191,0.046 0.76954,0.17057 1.76953,0.5039 a 8,8 0 0 0 10.11914,-5.06054 8,8 0 0 0 -5.06054,-10.11914 c -0.74374,-0.24792 -2.07773,-0.57686 -3.39453,-0.86524 -0.092,-2.89883 -0.13477,-7.43877 -0.13477,-13.3789 v -20 c 0,-5.5 2.8e-4,-8.68612 0.1582,-12.31836 0.15793,-3.63226 0.49952,-8.08514 0.67188,-13.94532 C 551.00119,155.04217 550.99875,148 550.99875,143 c 0,-5 0.004,-7.85157 0.1543,-10.55664 0.15028,-2.70507 0.46354,-5.56055 0.79687,-8.56055 a 8,8 0 0 0 -7.06836,-8.83398 z m -79.89062,1.01367 a 8,8 0 0 0 -8.92969,6.94531 c -0.66667,5.33333 -1.33815,10.699 -1.84961,15.47266 -0.51146,4.77364 -0.85555,8.64251 -1.4043,11.52344 -0.54874,2.88092 -1.49422,5.75228 -2.57031,10.05664 -1.07609,4.30434 -2.10364,9.44908 -2.8125,14.05664 -0.70885,4.60755 -1.07864,8.27673 -1.56836,10.48047 -0.48972,2.20372 -1.27796,4.03309 -2.11328,6.53906 -0.83532,2.50596 -0.95402,3.49784 -2.46289,7.11914 -1.50887,3.6213 -4.51172,9.987 -7.51172,16.32031 a 8,8 0 0 0 3.80664,10.6543 8,8 0 0 0 10.6543,-3.80664 c 2.99999,-6.33333 5.99586,-12.63499 7.82031,-17.01367 1.82446,-4.3787 2.37309,-6.71887 2.8711,-8.21289 0.49801,-1.49404 1.71107,-4.33265 2.55468,-8.12891 0.31796,-1.43083 0.5486,-2.84606 0.75782,-4.26758 5.46823,-0.21505 10.50997,-0.39407 13.4746,-0.42383 0.0646,0.53146 0.0925,0.41765 0.1543,1.13867 0.45497,5.30798 0.78489,16.047 0.47852,22.78711 -0.30637,6.74013 -1.10352,9.75782 -2.10352,13.75782 a 8,8 0 0 0 5.82227,9.70117 8,8 0 0 0 9.70117,-5.82227 c 1,-3.99998 2.2022,-8.98363 2.5625,-16.91015 0.3603,-7.92653 0.0255,-18.52023 -0.51953,-24.87891 -0.27252,-3.17934 -0.57094,-5.24554 -1.10157,-7.14062 -0.53061,-1.8951 -2.00037,-4.28749 -2.8789,-5.16602 -0.52152,-0.52152 -1.04619,-0.79199 -1.60547,-1.16211 -10e-4,-8e-4 -0.003,-9.5e-4 -0.004,-0.002 -0.38146,-0.25226 -0.83493,-0.66259 -1.0957,-0.79297 -0.0579,-0.0289 0.0269,-0.002 -0.0117,-0.0273 -1.18657,-0.7082 -2.24398,-1.02888 -3.01758,-1.1836 -1.64724,-0.32945 -2.86762,-0.3418 -5.08984,-0.3418 -2.85288,1e-5 -7.28774,0.15511 -12.09766,0.34375 0.28463,-1.31339 0.57232,-2.59003 0.85938,-3.73828 0.92391,-3.69562 1.97909,-6.82429 2.76367,-10.94336 0.78458,-4.11905 1.10717,-8.25089 1.5957,-12.81054 0.48854,-4.55967 1.14974,-9.86005 1.81641,-15.19336 a 8,8 0 0 0 -6.94531,-8.92969 z m 50.45312,28.95703 a 8,8 0 0 0 -7.20703,6.04102 8,8 0 0 0 5.82227,9.70117 l 4,1 a 8,8 0 0 0 9.70117,-5.82227 8,8 0 0 0 -5.82227,-9.70117 l -4,-1 a 8,8 0 0 0 -2.49414,-0.21875 z M 693.99875,146 a 8,8 0 0 0 -8,8 8,8 0 0 0 8,8 h 1 a 8,8 0 0 0 8,-8 8,8 0 0 0 -8,-8 z m 1.47852,23.01367 a 8,8 0 0 0 -8.06836,5.45703 c -1,3 -2.18166,6.52255 -2.95899,10.99219 -0.77733,4.46965 -1.10008,9.32174 -1.43555,14.52149 -0.33545,5.19975 -0.67207,10.92611 -1.00781,18.14453 -0.33574,7.2184 -0.66862,15.8978 -1.00195,24.56445 a 8,8 0 0 0 7.6875,8.30078 8,8 0 0 0 8.30078,-7.6875 c 0.33333,-8.66665 0.66712,-17.32064 0.99805,-24.43555 0.33092,-7.1149 0.661,-12.72189 0.99219,-17.85547 0.33119,-5.13356 0.67446,-9.61548 1.23046,-12.8125 0.55601,-3.197 1.375,-5.67384 2.375,-8.67382 a 8,8 0 0 0 -5.06054,-10.11914 8,8 0 0 0 -2.05078,-0.39649 z m 192.47851,0.043 a 8,8 0 0 0 -2.08789,0.0234 c -1.16666,0.16666 -3.64955,0.3979 -6.38281,2.02734 -2.73326,1.62944 -4.96392,4.5436 -6.24805,7.75391 -2.56824,6.4206 -3.40063,13.9769 -2.69531,20.79492 0.70531,6.81802 5.27088,11.80604 6.13281,12.66797 0.86193,0.86193 1.23875,1.78553 3.49414,3.58984 0.80253,0.64203 1.42507,0.99872 2.04492,1.37696 0.79828,0.98803 1.60136,1.74045 2.28711,2.28906 0.87268,0.69814 1.65634,1.34945 1.83008,1.46875 0.10205,0.15343 0.31965,0.39064 0.49609,0.60547 0.0391,0.31377 0.18735,1.06142 0.84766,2.82226 0.85914,2.29104 0.59957,0.35811 0.50391,2.08008 -0.0957,1.72197 -1.29,6.77336 -1.83594,7.86524 -0.54594,1.09188 0.0622,0.31497 -2.16016,1.90234 -0.41275,0.29482 -0.42608,0.3486 -0.72656,0.59961 -0.59262,0.0792 -1.33798,0.19161 -2.25391,0.2832 -2.19208,0.21921 -4.10481,0.61589 -5.77148,0.94922 a 8,8 0 0 0 -6.27539,9.41211 8,8 0 0 0 9.41211,6.27539 c 1.66667,-0.33333 3.08729,-0.60267 4.22852,-0.7168 1.14123,-0.11412 2.5366,0.30551 6.0664,-0.87109 1.7649,-0.5883 3.31691,-1.76067 3.95117,-2.32031 0.63427,-0.55965 0.61246,-0.55215 0.66797,-0.5918 0.11101,-0.0793 4.71978,-2.85752 7.17383,-7.76563 2.45405,-4.90809 3.26038,-9.85673 3.49805,-14.13476 0.23766,-4.27802 -1.35523,-8.21031 -1.4961,-8.58594 -0.14086,-0.37563 -0.21413,-1.45524 -1.23047,-3.99609 -0.47487,-1.18718 -1.39968,-2.59273 -2.49023,-3.61133 -0.32911,-0.43525 -0.55472,-0.84769 -0.94727,-1.24023 -1.60796,-1.60797 -2.85753,-2.41764 -3.48828,-2.92188 -5.9e-4,-4.7e-4 -0.003,-9.5e-4 -0.004,-0.002 -0.6344,-0.93565 -1.48456,-2.02487 -2.56055,-2.74219 -1.08762,-0.72508 -1.60622,-1.03572 -1.87891,-1.17383 -0.35697,-0.41029 -1.05859,-1.1504 -2.06836,-2.16015 -1.80472,-1.80474 -1.23851,-0.15138 -1.5332,-3 -0.29169,-2.81968 0.84614,-11.05468 1.61133,-13.07813 0.0384,-0.006 0.0208,-0.006 0.0625,-0.0117 a 8,8 0 0 0 6.78906,-9.05078 8,8 0 0 0 -6.96289,-6.8125 z m -156.68945,0.875 c -1.06623,0.0389 -2.36596,0.2242 -4.13086,0.8125 -2.91469,0.97156 -4.63074,2.69877 -4.55664,2.83398 -0.8371,0.56392 -2.77787,2.02915 -4.39258,3.9668 -2.3943,2.87317 -5.54708,8.26076 -6.91602,16.66992 -1.36892,8.40918 -1.33334,19.09356 -0.3789,26.91993 0.95443,7.82635 3.44418,12.74372 4.56445,14.82421 1.12027,2.08051 1.70863,4.54404 5.43945,7.03125 2.94225,1.96151 5.75015,2.30788 5.94336,2.15039 0.93342,0.24664 2.41574,0.56416 3.92383,0.67188 3.08944,0.22067 7.56966,0.1875 12.23633,0.1875 a 8,8 0 0 0 8,-8 8,8 0 0 0 -8,-8 c -4.66667,0 -9.52042,-0.0338 -11.09766,-0.14648 -0.14785,-0.0106 -0.10623,3.3e-4 -0.18164,-0.002 -0.0257,-0.0466 -0.33207,-0.16651 -1.44726,-0.44531 -0.072,-0.018 -0.028,-0.0101 -0.0957,-0.0273 -0.217,-0.32104 -0.31868,-0.41885 -0.63476,-1.00586 -1.21306,-2.25283 -2.05535,-3.3355 -2.76758,-9.17578 -0.71223,-5.8403 -0.67729,-16.48797 0.28711,-22.41211 0.9644,-5.92415 2.47699,-7.86927 3.41602,-8.9961 0.93901,-1.12683 -0.38506,0.22337 1.98828,-1.55664 0.15731,-0.11799 0.0482,-0.0399 0.17578,-0.13476 0.43076,-0.044 0.81868,-0.0977 1.35742,-0.0977 a 8,8 0 0 0 8,-8 8,8 0 0 0 -8,-8 c -0.83333,0 -1.66619,-0.10721 -2.73242,-0.0684 z M 512.99875,170 a 8,8 0 0 0 -8,8 v 48 a 8,8 0 0 0 8,8 8,8 0 0 0 8,-8 v -48 a 8,8 0 0 0 -8,-8 z m 88.12891,0.72852 c -0.89657,0.007 -1.54558,0.27148 -2.62891,0.27148 -2.16667,0 -6.50046,-0.51631 -11.7168,1.91797 -5.21634,2.43429 -7.41827,6.8193 -9.10937,9.86328 -1.6911,3.04398 -3.70134,6.64038 -5.02735,9.73437 -1.32599,3.09401 -1.63957,6.13933 -1.80078,9.04102 -0.1612,2.90169 -0.5533,7.86413 -0.33398,12.03125 0.21932,4.16712 1.66643,7.7325 1.72656,7.88281 0.0301,0.0752 -0.0125,-0.0579 0.0781,0.24414 0.0906,0.30206 0.22435,1.8064 2.19336,3.77539 0.61975,0.61975 0.9212,0.76741 1.31054,1.03907 -0.19336,-0.11109 -0.0739,0.19753 1.35547,1.62695 0.40311,0.40311 0.47233,0.40165 0.79688,0.65039 0.0583,0.23746 1.29118,2.30726 3.89453,4.25977 2.60676,1.95507 4.65158,2.64666 5.11719,2.76367 1.46111,1.27732 2.60768,1.65435 3.10742,1.79492 0.48092,0.21008 1.06376,0.44867 1.5957,0.59375 1.28952,0.35169 2.50248,0.49686 4.14648,0.59961 3.28802,0.2055 8.0792,0.2399 12.04883,-0.20117 3.67872,-0.40875 6.62775,-1.71825 6.66211,-1.75586 0.19185,-0.0225 0.68608,0.13351 2.69922,-0.87305 1.71534,-0.85765 2.69026,-2.10454 3.10938,-2.68359 -0.0212,0.0221 0.13851,-0.10265 0.14453,-0.10352 a 8,8 0 0 0 7.50195,6.79883 8,8 0 0 0 8,-8 v -27.83398 c 0,-6.5 0.2937,-8.64163 -0.57227,-12.10547 -0.86595,-3.46383 -4.04762,-6.32692 -3.77148,-6.05078 0.27614,0.27613 -1.23616,-1.67066 -3.57813,-3.49219 -2.34196,-1.82154 -4.91611,-3.28049 -5.26171,-3.52735 -0.17279,-0.12342 0.13217,0.14383 -0.0762,-0.0644 -0.20832,-0.20833 -1.94301,-1.75835 -3.71093,-2.34766 -3.53576,-1.17856 -2.08248,-0.41502 -2.72461,-0.67187 -0.64213,-0.25685 -3.17649,-1.73982 -6.44141,-2.82813 -1.93503,-0.64499 -3.55245,-0.92533 -4.59375,-1.05078 -0.0125,-0.006 -0.0127,-0.009 -0.0254,-0.0156 -2.07474,-1.03735 -3.21867,-1.28974 -4.11523,-1.2832 z M 674.99875,172 c -3.33333,0 -6.655,-0.0253 -9.44727,0.18945 -2.79225,0.21479 -5.59254,0.97155 -7.50195,2.11719 -0.83536,0.50122 -1.27587,0.76676 -1.54492,0.94336 -0.31986,0.0236 -0.39712,-0.0512 -1.53516,0.32812 -1.04081,0.34694 -2.01746,1.02407 -2.8125,1.66016 -0.37344,0.15861 -0.8752,0.29181 -2.0957,1.10547 -1.27409,0.84939 -2.37364,2.23788 -2.57422,2.51367 -0.0102,0.014 0.002,-0.003 -0.006,0.008 -0.14905,0.13023 -3.24991,2.44472 -5.0332,6.72461 -1.80435,4.33044 -1.44892,7.88045 -1.28125,15.25782 0.16767,7.37736 0.5026,19.37502 0.83594,31.375 a 8,8 0 0 0 8.21875,7.77343 8,8 0 0 0 7.77343,-8.21875 c -0.33333,-11.99996 -0.66636,-24.00368 -0.83203,-31.29296 -0.13811,-6.07711 0.0848,-8.29717 0.084,-8.68555 0.12074,-0.11475 0.51299,-0.5794 1.57617,-1.64258 0.29302,-0.29302 0.35191,-0.41456 0.5918,-0.69727 0.36722,-0.15151 0.63536,-0.21198 1.52148,-0.80273 0.0734,-0.0489 0.0517,-0.0602 0.12305,-0.11133 0.55093,-0.11384 0.92708,-0.12435 1.74414,-0.45117 2.50122,-1.0005 3.27601,-1.78835 3.32812,-1.92187 0.088,0.003 0.10267,0.0125 0.64649,-0.0293 1.54104,-0.1185 4.88737,-0.14258 8.2207,-0.14258 a 8,8 0 0 0 8,-8 8,8 0 0 0 -8,-8 z m 106.36328,0.16406 c -0.40754,0.0225 -0.79998,0.0688 -1.17187,0.13867 -5.95033,1.11569 -10.23657,4.0133 -14.72461,7.64649 -4.48806,3.63319 -7.09984,7.50367 -8.49024,10.05273 -0.65796,1.20628 -1.08901,2.25459 -1.38281,3.10547 -0.51035,0.84201 -0.97829,1.78228 -1.1875,2.61914 -0.77538,3.10154 -0.39381,4.40112 -0.0527,9.17578 0.34104,4.77468 1.00246,12.73655 1.52539,17.61719 0.52292,4.88065 1.34073,8.20183 2.76367,10.81055 1.42293,2.60871 3.1529,4.99051 3.83008,6.11914 0.33858,0.56431 0.65544,1.28402 1.54687,2.55078 0.89143,1.26676 2.5441,2.87194 4.26172,3.82617 3.43523,1.90846 6.34776,2.35001 9.49414,2.76953 3.14639,0.41952 5.89128,0.4043 7.72461,0.4043 1.83333,0 2.6719,0.36913 5.77344,-0.40625 0.73346,-0.18336 1.5792,-0.6598 2.39062,-1.19727 -0.18874,0.0543 -0.419,0.11418 -0.3125,0.0742 0.10393,-0.039 0.5322,-0.28736 0.77149,-0.39258 2.39402,-1.70528 4.27647,-3.8292 1.70117,-1.2539 -0.68511,0.6851 -1.11995,0.92244 -1.54102,1.17187 0.44416,-0.20226 0.77338,-0.3092 1.32032,-0.67382 0.91697,-0.61133 1.44927,-0.95955 1.625,-1.09571 0.98385,-0.48854 2.57598,-1.38547 3.91992,-2.58008 2.37971,-2.11528 4.49687,-4.57086 6.23828,-7.05859 1.43404,-2.04863 2.35036,-4.27846 2.2832,-4.31055 0.24731,-0.48038 0.62775,-1.28754 0.91992,-2.16406 0.53109,-1.59327 0.84856,-3.38001 1.04883,-5.7832 0.40054,-4.8064 0.36915,-11.94121 0.1875,-16.48242 -0.18165,-4.54123 -0.8087,-7.22125 -0.81445,-7.25 -0.006,-0.0288 0.0979,-1.60103 -1.18945,-4.17578 -0.9284,-1.85679 -1.51369,-2.5455 -1.72071,-2.70704 0.006,-0.16369 -0.23439,-0.83596 -1.44531,-2.65234 -0.70565,-1.05849 -1.76915,-1.89444 -2.69531,-2.52734 -0.33896,-0.484 -1.0402,-1.5949 -2.47071,-3.02539 -1.58756,-1.58758 -2.58692,-2.2549 -2.66601,-2.33399 -0.0791,-0.0791 -0.96049,-1.42541 -3.03516,-3.1543 -1.76454,-1.47044 -3.37203,-2.27101 -5.04687,-2.90625 -0.34313,-0.43227 -0.47413,-0.74427 -0.98242,-1.23046 -1.70051,-1.62657 -4.55916,-2.57936 -7.13672,-2.71875 -0.4296,-0.0232 -0.85223,-0.0245 -1.25977,-0.002 z m 53.61524,4.54883 c -3.39274,0.0583 -7.08464,1.03369 -9.7793,3.05469 -3.59288,2.69466 -5.57436,5.64347 -7.0586,8.11719 -1.48421,2.4737 -2.24961,4.77852 -1.6289,3.53711 0.31035,-0.6207 -0.78751,1.40321 -1.25195,3.18359 -0.46445,1.78037 -0.72817,3.79675 -0.91211,6.92383 -0.3679,6.25414 -0.34766,16.80405 -0.34766,24.4707 v 17 a 8,8 0 0 0 8,8 8,8 0 0 0 8,-8 v -17 c 0,-7.66665 0.0215,-18.45012 0.32031,-23.5293 0.14581,-2.47867 0.36621,-3.55371 0.41016,-3.73437 0.0469,-0.0863 -0.0178,0.0609 0.0918,-0.15821 1.28736,-2.57474 0.52134,-1.60326 1.03711,-2.46289 0.51576,-0.8596 2.53429,-3.24349 2.9414,-3.54882 0.006,-0.005 0.004,-0.007 0.01,-0.0117 0.11918,0.0454 0.30206,0.0979 0.63281,0.15625 1.5996,0.28228 1.96167,-0.0142 3.06836,2.19922 1.10669,2.21336 2.51399,9.80905 2.99805,19.49023 0.48405,9.68118 0.49023,21.59963 0.49023,33.59961 a 8,8 0 0 0 8,8 8,8 0 0 0 8,-8 c 0,-11.99998 0.006,-24.08161 -0.50977,-34.40039 -0.51594,-10.31878 -1.108,-18.72381 -4.66796,-25.84375 -3.55998,-7.11993 -10.53256,-10.08306 -14.59961,-10.80078 -1.01677,-0.17943 -2.11324,-0.26161 -3.24414,-0.24219 z M 598.49875,187 c 0.89862,0 1.34437,0.17183 1.58594,0.26172 0.40041,0.14284 0.8231,0.34509 1.17773,0.41601 2.84475,0.56895 2.80398,0.3331 3.53906,0.57813 0.73508,0.24503 2.8674,1.42938 5.5586,2.50586 1.85803,0.74321 2.12963,0.66707 2.49219,0.68555 0.27595,0.2289 0.34837,0.337 0.66406,0.5625 1.98772,1.41979 4.08026,2.62688 4.73828,3.13867 0.52329,0.407 0.87528,0.88997 1.66016,1.73047 -0.0859,-0.0268 0.084,1.52939 0.084,7.28711 v 5.89257 c -0.52318,0.74105 -1.08311,1.60913 -1.42773,2.47071 -0.63891,1.59727 -0.88336,2.33765 -0.62696,1.91406 -0.32176,0.41492 -0.63622,0.71775 -0.93359,1.3125 -0.12362,0.24724 -0.10571,0.30435 -0.19727,0.51172 -0.37768,0.39925 -0.73865,0.78617 -0.9414,1.01953 -0.25857,0.11249 -0.8981,0.46436 -2.00977,1.09961 -1.75436,1.00249 -3.05567,1.95991 -4.53125,3.38281 -0.19405,0.0665 -0.26434,0.0542 -0.4707,0.13672 -2.19937,0.87974 -0.71378,0.583 -2.74414,0.80859 -2.03036,0.2256 -7.23985,0.2626 -9.28516,0.13477 -0.84333,-0.0527 -0.88646,-0.0871 -0.77148,-0.0566 -0.51327,-0.36073 -0.97793,-0.86299 -1.48243,-1.11524 -1.57574,-0.78786 -2.59561,-1.2701 -2.97656,-1.41406 -0.12057,-0.1761 -0.35603,-0.49098 -1.03515,-1.39648 -0.53311,-0.71082 -1.27836,-1.4161 -1.85547,-1.9043 -0.1417,-0.24023 -0.7598,-0.99218 -1.88672,-2.11914 -0.01,-0.01 -0.0197,-0.012 -0.0293,-0.0215 -0.17477,-0.37965 -0.22771,-0.57658 -0.30664,-2.07618 -0.11401,-2.16619 0.1599,-7.20442 0.33203,-10.30273 0.17213,-3.09831 -0.14079,-2.05234 0.53321,-3.625 0.67398,-1.57266 2.66441,-5.30961 4.30664,-8.26563 1.37775,-2.47995 1.91874,-3.07011 1.93164,-3.13867 -0.0354,0.0648 2.80324,-0.41406 4.9082,-0.41406 z m 182.58203,2.10156 c 0.68236,0.50477 1.38682,1.00728 1.93359,1.23242 1.4047,0.57841 1.79307,0.58988 1.78711,0.5879 -0.0119,-0.004 0.81687,0.45285 0.74219,0.39062 -0.0747,-0.0622 0.37727,0.59017 1.96485,2.17773 1.58756,1.58758 2.58692,2.2549 2.66601,2.33399 0.0791,0.0791 0.50182,0.63458 1.25781,1.64258 0.51047,0.68062 1.29454,1.52016 2.33203,2.34961 0.17449,0.38642 -0.10383,0.0581 0.54102,1.13281 0.83775,1.39624 0.86774,1.29994 0.88086,1.1914 0.0461,0.18792 0.0507,0.17515 0.13477,0.59571 0.32758,1.63791 0.36589,0.95791 0.51757,4.75 0.15169,3.79208 0.11965,11.32204 -0.14648,14.51562 -0.11252,1.35026 -0.23391,1.83307 -0.25781,1.92969 -0.0337,0.0558 -0.0333,0.0413 -0.25782,0.49024 -1.28736,2.57475 -0.30651,1.14462 -0.89843,1.99023 -0.58557,0.83652 -3.07437,3.64782 -3.72852,4.24219 -0.18093,0.0675 -0.50789,0.21293 -1.1289,0.52343 -1.43428,0.71715 -2.31648,1.34788 -2.71876,1.69727 -0.0213,0.0105 -0.064,0.0513 -0.0859,0.0625 -0.39357,0.0267 -0.67133,0.0625 -1.11719,0.0625 -1.83333,0 -3.75577,-0.0165 -5.60938,-0.26367 -1.57351,-0.20981 -2.96101,-0.71072 -3.25781,-0.76172 -0.15863,-0.27447 -0.12099,-0.22704 -0.43945,-0.75781 -1.32282,-2.2047 -2.92684,-4.48893 -3.50391,-5.54688 -0.57706,-1.05794 -0.42527,-0.4028 -0.90234,-4.85547 -0.47707,-4.45266 -1.14899,-12.49213 -1.47461,-17.05078 -0.14745,-2.0643 -0.1354,-3.27087 -0.13477,-4.03125 0.3094,-0.76002 0.5147,-1.38784 0.51563,-1.39062 10e-4,-0.004 0.0253,-0.11893 0.33008,-0.67774 0.60959,-1.11759 1.99783,-3.24583 4.50976,-5.27929 1.52929,-1.238 3.79749,-2.4131 5.54883,-3.28321 z m -197.18164,23.57617 c 0.0323,0.005 0.084,0.0223 0.1543,0.0566 0.18439,0.0902 0.71046,0.56124 1.16015,0.94531 -0.38146,-0.25226 -0.83493,-0.66259 -1.0957,-0.79297 -0.24139,-0.1207 -0.31562,-0.22319 -0.21875,-0.20899 z m 3.44727,3.58594 c 0.26718,0.57177 0.31291,0.91348 0.29492,0.85352 -0.0185,-0.0616 -0.18785,-0.5312 -0.29492,-0.85352 z m 7.37109,6.04492 c 0.0262,0.007 0.46543,0.10644 1.10937,0.41993 -0.45923,-0.16275 -1.13782,-0.42805 -1.10937,-0.41993 z M 915.9382,226 a 8,8 0 0 0 -2.46875,0.41016 8,8 0 0 0 -4.62695,4.01172 8,8 0 0 0 3.57813,10.73437 l 6,3 a 8,8 0 0 0 10.73437,-3.57813 8,8 0 0 0 -3.57813,-10.73437 l -6,-3 A 8,8 0 0 0 915.9382,226 Z m -325.70312,11.66602 c 0.0215,0.006 0.0699,0.0208 0.0859,0.0254 0.1811,0.0518 0.11452,0.0424 -0.0859,-0.0254 z" /></g></svg>
