<?xml version="1.0" encoding="UTF-8" standalone="no"?>
<!-- Created with Inkscape (http://www.inkscape.org/) -->

<svg
   width="300"
   height="300"
   viewBox="0 0 300 300"
   version="1.1"
   id="svg1"
   inkscape:version="1.3.2 (091e20e, 2023-11-25, custom)"
   sodipodi:docname="back.svg"
   xmlns:inkscape="http://www.inkscape.org/namespaces/inkscape"
   xmlns:sodipodi="http://sodipodi.sourceforge.net/DTD/sodipodi-0.dtd"
   xmlns="http://www.w3.org/2000/svg"
   xmlns:svg="http://www.w3.org/2000/svg">
  <sodipodi:namedview
     id="namedview1"
     pagecolor="#ffffff"
     bordercolor="#000000"
     borderopacity="0.25"
     inkscape:showpageshadow="2"
     inkscape:pageopacity="0.0"
     inkscape:pagecheckerboard="0"
     inkscape:deskcolor="#d1d1d1"
     inkscape:document-units="px"
     inkscape:zoom="1"
     inkscape:cx="150"
     inkscape:cy="150.5"
     inkscape:window-width="1366"
     inkscape:window-height="705"
     inkscape:window-x="-8"
     inkscape:window-y="-8"
     inkscape:window-maximized="1"
     inkscape:current-layer="layer1" />
  <defs
     id="defs1" />
  <g
     inkscape:label="Layer 1"
     inkscape:groupmode="layer"
     id="layer1">
    <path
       id="path1"
       style="color:#000000;fill:#000000;stroke-linecap:round;stroke-linejoin:round;-inkscape-stroke:none"
       d="M 243.16602 58.085938 A 8 8 0 0 0 239.05273 58.5625 L 27.052734 142.5625 A 8.0008 8.0008 0 0 0 27.052734 157.4375 L 239.05273 241.4375 A 8 8 0 0 0 249.4375 236.94727 A 8 8 0 0 0 249.94922 233.43945 C 253.64326 230.52438 258.52207 225.93844 263.26172 219.25781 C 272.73896 205.89946 282 183.97888 282 150 C 282 116.02112 272.73896 94.100546 263.26172 80.742188 C 258.52207 74.06156 253.64326 69.475616 249.94922 66.560547 A 8 8 0 0 0 249.4375 63.052734 A 8 8 0 0 0 243.16602 58.085938 z M 245.50586 73.158203 C 248.54142 75.610609 252.56603 79.49022 256.73828 85.371094 C 265.261 97.384037 274 117.46441 274 150 C 274 182.53559 265.261 202.61596 256.73828 214.62891 C 252.56603 220.50978 248.54142 224.38939 245.50586 226.8418 A 8 8 0 0 0 244.94727 226.5625 L 51.71875 150 L 244.94727 73.4375 A 8 8 0 0 0 245.50586 73.158203 z M 235 100 C 226.75128 100 220 106.75128 220 115 C 220 123.24872 226.75128 130 235 130 C 243.24872 130 250 123.24872 250 115 C 250 106.75128 243.24872 100 235 100 z M 235 106 C 240.00608 106 244 109.99392 244 115 C 244 120.00608 240.00608 124 235 124 C 229.99392 124 226 120.00608 226 115 C 226 109.99392 229.99392 106 235 106 z M 165 120 C 156.75128 120 150 126.75128 150 135 C 150 143.24872 156.75128 150 165 150 C 173.24872 150 180 143.24872 180 135 C 180 126.75128 173.24872 120 165 120 z M 165 126 C 170.00608 126 174 129.99392 174 135 C 174 140.00608 170.00608 144 165 144 C 159.99392 144 156 140.00608 156 135 C 156 129.99392 159.99392 126 165 126 z M 105 135 C 96.751279 135 90 141.75128 90 150 C 90 158.24872 96.751279 165 105 165 C 113.24872 165 120 158.24872 120 150 C 120 141.75128 113.24872 135 105 135 z M 105 141 C 110.00608 141 114 144.99392 114 150 C 114 155.00608 110.00608 159 105 159 C 99.993913 159 96 155.00608 96 150 C 96 144.99392 99.993913 141 105 141 z M 215 175 C 206.75128 175 200 181.75128 200 190 C 200 198.24872 206.75128 205 215 205 C 223.24872 205 230 198.24872 230 190 C 230 181.75128 223.24872 175 215 175 z M 215 181 C 220.00608 181 224 184.99392 224 190 C 224 195.00608 220.00608 199 215 199 C 209.99392 199 206 195.00608 206 190 C 206 184.99392 209.99392 181 215 181 z " />
  </g>
</svg>
