<?xml version="1.0" encoding="UTF-8" standalone="no"?>
<!-- Created with Inkscape (http://www.inkscape.org/) -->

<svg
   width="300"
   height="300"
   viewBox="0 0 300 300"
   version="1.1"
   id="svg1"
   inkscape:version="1.3.2 (091e20e, 2023-11-25, custom)"
   sodipodi:docname="brainfuck.svg"
   xmlns:inkscape="http://www.inkscape.org/namespaces/inkscape"
   xmlns:sodipodi="http://sodipodi.sourceforge.net/DTD/sodipodi-0.dtd"
   xmlns="http://www.w3.org/2000/svg"
   xmlns:svg="http://www.w3.org/2000/svg">
  <sodipodi:namedview
     id="namedview1"
     pagecolor="#ffffff"
     bordercolor="#000000"
     borderopacity="0.25"
     inkscape:showpageshadow="2"
     inkscape:pageopacity="0.0"
     inkscape:pagecheckerboard="0"
     inkscape:deskcolor="#d1d1d1"
     inkscape:document-units="px"
     inkscape:zoom="1"
     inkscape:cx="102"
     inkscape:cy="119.5"
     inkscape:window-width="1366"
     inkscape:window-height="705"
     inkscape:window-x="-8"
     inkscape:window-y="-8"
     inkscape:window-maximized="1"
     inkscape:current-layer="layer1" />
  <defs
     id="defs1">
    <inkscape:path-effect
       effect="bspline"
       id="path-effect68"
       is_visible="true"
       lpeversion="1.3"
       weight="33.333333"
       steps="2"
       helper_size="0"
       apply_no_weight="true"
       apply_with_weight="true"
       only_selected="false"
       uniform="false" />
    <inkscape:path-effect
       effect="bspline"
       id="path-effect67"
       is_visible="true"
       lpeversion="1.3"
       weight="33.333333"
       steps="2"
       helper_size="0"
       apply_no_weight="true"
       apply_with_weight="true"
       only_selected="false"
       uniform="false" />
    <inkscape:path-effect
       effect="bspline"
       id="path-effect66"
       is_visible="true"
       lpeversion="1.3"
       weight="33.333333"
       steps="2"
       helper_size="0"
       apply_no_weight="true"
       apply_with_weight="true"
       only_selected="false"
       uniform="false" />
    <inkscape:path-effect
       effect="bspline"
       id="path-effect65"
       is_visible="true"
       lpeversion="1.3"
       weight="33.333333"
       steps="2"
       helper_size="0"
       apply_no_weight="true"
       apply_with_weight="true"
       only_selected="false"
       uniform="false" />
    <inkscape:path-effect
       effect="bspline"
       id="path-effect64"
       is_visible="true"
       lpeversion="1.3"
       weight="33.333333"
       steps="2"
       helper_size="0"
       apply_no_weight="true"
       apply_with_weight="true"
       only_selected="false"
       uniform="false" />
    <inkscape:path-effect
       effect="bspline"
       id="path-effect63"
       is_visible="true"
       lpeversion="1.3"
       weight="33.333333"
       steps="2"
       helper_size="0"
       apply_no_weight="true"
       apply_with_weight="true"
       only_selected="false"
       uniform="false" />
    <inkscape:path-effect
       effect="bspline"
       id="path-effect62"
       is_visible="true"
       lpeversion="1.3"
       weight="33.333333"
       steps="2"
       helper_size="0"
       apply_no_weight="true"
       apply_with_weight="true"
       only_selected="false"
       uniform="false" />
    <inkscape:path-effect
       effect="bspline"
       id="path-effect61"
       is_visible="true"
       lpeversion="1.3"
       weight="33.333333"
       steps="2"
       helper_size="0"
       apply_no_weight="true"
       apply_with_weight="true"
       only_selected="false"
       uniform="false" />
    <inkscape:path-effect
       effect="bspline"
       id="path-effect60"
       is_visible="true"
       lpeversion="1.3"
       weight="33.333333"
       steps="2"
       helper_size="0"
       apply_no_weight="true"
       apply_with_weight="true"
       only_selected="false"
       uniform="false" />
    <inkscape:path-effect
       effect="bspline"
       id="path-effect59"
       is_visible="true"
       lpeversion="1.3"
       weight="33.333333"
       steps="2"
       helper_size="0"
       apply_no_weight="true"
       apply_with_weight="true"
       only_selected="false"
       uniform="false" />
    <inkscape:path-effect
       effect="bspline"
       id="path-effect58"
       is_visible="true"
       lpeversion="1.3"
       weight="33.333333"
       steps="2"
       helper_size="0"
       apply_no_weight="true"
       apply_with_weight="true"
       only_selected="false"
       uniform="false" />
    <inkscape:path-effect
       effect="bspline"
       id="path-effect57"
       is_visible="true"
       lpeversion="1.3"
       weight="33.333333"
       steps="2"
       helper_size="0"
       apply_no_weight="true"
       apply_with_weight="true"
       only_selected="false"
       uniform="false" />
    <inkscape:path-effect
       effect="bspline"
       id="path-effect56"
       is_visible="true"
       lpeversion="1.3"
       weight="33.333333"
       steps="2"
       helper_size="0"
       apply_no_weight="true"
       apply_with_weight="true"
       only_selected="false"
       uniform="false" />
    <inkscape:path-effect
       effect="bspline"
       id="path-effect55"
       is_visible="true"
       lpeversion="1.3"
       weight="33.333333"
       steps="2"
       helper_size="0"
       apply_no_weight="true"
       apply_with_weight="true"
       only_selected="false"
       uniform="false" />
    <inkscape:path-effect
       effect="bspline"
       id="path-effect54"
       is_visible="true"
       lpeversion="1.3"
       weight="33.333333"
       steps="2"
       helper_size="0"
       apply_no_weight="true"
       apply_with_weight="true"
       only_selected="false"
       uniform="false" />
    <inkscape:path-effect
       effect="bspline"
       id="path-effect53"
       is_visible="true"
       lpeversion="1.3"
       weight="33.333333"
       steps="2"
       helper_size="0"
       apply_no_weight="true"
       apply_with_weight="true"
       only_selected="false"
       uniform="false" />
    <inkscape:path-effect
       effect="bspline"
       id="path-effect52"
       is_visible="true"
       lpeversion="1.3"
       weight="33.333333"
       steps="2"
       helper_size="0"
       apply_no_weight="true"
       apply_with_weight="true"
       only_selected="false"
       uniform="false" />
    <inkscape:path-effect
       effect="bspline"
       id="path-effect51"
       is_visible="true"
       lpeversion="1.3"
       weight="33.333333"
       steps="2"
       helper_size="0"
       apply_no_weight="true"
       apply_with_weight="true"
       only_selected="false"
       uniform="false" />
    <inkscape:path-effect
       effect="bspline"
       id="path-effect50"
       is_visible="true"
       lpeversion="1.3"
       weight="33.333333"
       steps="2"
       helper_size="0"
       apply_no_weight="true"
       apply_with_weight="true"
       only_selected="false"
       uniform="false" />
    <inkscape:path-effect
       effect="bspline"
       id="path-effect49"
       is_visible="true"
       lpeversion="1.3"
       weight="33.333333"
       steps="2"
       helper_size="0"
       apply_no_weight="true"
       apply_with_weight="true"
       only_selected="false"
       uniform="false" />
    <inkscape:path-effect
       effect="bspline"
       id="path-effect48"
       is_visible="true"
       lpeversion="1.3"
       weight="33.333333"
       steps="2"
       helper_size="0"
       apply_no_weight="true"
       apply_with_weight="true"
       only_selected="false"
       uniform="false" />
    <inkscape:path-effect
       effect="bspline"
       id="path-effect47"
       is_visible="true"
       lpeversion="1.3"
       weight="33.333333"
       steps="2"
       helper_size="0"
       apply_no_weight="true"
       apply_with_weight="true"
       only_selected="false"
       uniform="false" />
    <inkscape:path-effect
       effect="bspline"
       id="path-effect46"
       is_visible="true"
       lpeversion="1.3"
       weight="33.333333"
       steps="2"
       helper_size="0"
       apply_no_weight="true"
       apply_with_weight="true"
       only_selected="false"
       uniform="false" />
    <inkscape:path-effect
       effect="bspline"
       id="path-effect45"
       is_visible="true"
       lpeversion="1.3"
       weight="33.333333"
       steps="2"
       helper_size="0"
       apply_no_weight="true"
       apply_with_weight="true"
       only_selected="false"
       uniform="false" />
    <inkscape:path-effect
       effect="bspline"
       id="path-effect44"
       is_visible="true"
       lpeversion="1.3"
       weight="33.333333"
       steps="2"
       helper_size="0"
       apply_no_weight="true"
       apply_with_weight="true"
       only_selected="false"
       uniform="false" />
    <inkscape:path-effect
       effect="bspline"
       id="path-effect43"
       is_visible="true"
       lpeversion="1.3"
       weight="33.333333"
       steps="2"
       helper_size="0"
       apply_no_weight="true"
       apply_with_weight="true"
       only_selected="false"
       uniform="false" />
    <inkscape:path-effect
       effect="bspline"
       id="path-effect42"
       is_visible="true"
       lpeversion="1.3"
       weight="33.333333"
       steps="2"
       helper_size="0"
       apply_no_weight="true"
       apply_with_weight="true"
       only_selected="false"
       uniform="false" />
    <inkscape:path-effect
       effect="bspline"
       id="path-effect41"
       is_visible="true"
       lpeversion="1.3"
       weight="33.333333"
       steps="2"
       helper_size="0"
       apply_no_weight="true"
       apply_with_weight="true"
       only_selected="false"
       uniform="false" />
    <inkscape:path-effect
       effect="bspline"
       id="path-effect40"
       is_visible="true"
       lpeversion="1.3"
       weight="33.333333"
       steps="2"
       helper_size="0"
       apply_no_weight="true"
       apply_with_weight="true"
       only_selected="false"
       uniform="false" />
    <inkscape:path-effect
       effect="bspline"
       id="path-effect39"
       is_visible="true"
       lpeversion="1.3"
       weight="33.333333"
       steps="2"
       helper_size="0"
       apply_no_weight="true"
       apply_with_weight="true"
       only_selected="false"
       uniform="false" />
    <inkscape:path-effect
       effect="bspline"
       id="path-effect38"
       is_visible="true"
       lpeversion="1.3"
       weight="33.333333"
       steps="2"
       helper_size="0"
       apply_no_weight="true"
       apply_with_weight="true"
       only_selected="false"
       uniform="false" />
    <inkscape:path-effect
       effect="bspline"
       id="path-effect37"
       is_visible="true"
       lpeversion="1.3"
       weight="33.333333"
       steps="2"
       helper_size="0"
       apply_no_weight="true"
       apply_with_weight="true"
       only_selected="false"
       uniform="false" />
    <inkscape:path-effect
       effect="bspline"
       id="path-effect36"
       is_visible="true"
       lpeversion="1.3"
       weight="33.333333"
       steps="2"
       helper_size="0"
       apply_no_weight="true"
       apply_with_weight="true"
       only_selected="false"
       uniform="false" />
    <inkscape:path-effect
       effect="bspline"
       id="path-effect35"
       is_visible="true"
       lpeversion="1.3"
       weight="33.333333"
       steps="2"
       helper_size="0"
       apply_no_weight="true"
       apply_with_weight="true"
       only_selected="false"
       uniform="false" />
    <inkscape:path-effect
       effect="bspline"
       id="path-effect34"
       is_visible="true"
       lpeversion="1.3"
       weight="33.333333"
       steps="2"
       helper_size="0"
       apply_no_weight="true"
       apply_with_weight="true"
       only_selected="false"
       uniform="false" />
    <inkscape:path-effect
       effect="bspline"
       id="path-effect33"
       is_visible="true"
       lpeversion="1.3"
       weight="33.333333"
       steps="2"
       helper_size="0"
       apply_no_weight="true"
       apply_with_weight="true"
       only_selected="false"
       uniform="false" />
    <inkscape:path-effect
       effect="bspline"
       id="path-effect32"
       is_visible="true"
       lpeversion="1.3"
       weight="33.333333"
       steps="2"
       helper_size="0"
       apply_no_weight="true"
       apply_with_weight="true"
       only_selected="false"
       uniform="false" />
    <inkscape:path-effect
       effect="bspline"
       id="path-effect31"
       is_visible="true"
       lpeversion="1.3"
       weight="33.333333"
       steps="2"
       helper_size="0"
       apply_no_weight="true"
       apply_with_weight="true"
       only_selected="false"
       uniform="false" />
    <inkscape:path-effect
       effect="bspline"
       id="path-effect30"
       is_visible="true"
       lpeversion="1.3"
       weight="33.333333"
       steps="2"
       helper_size="0"
       apply_no_weight="true"
       apply_with_weight="true"
       only_selected="false"
       uniform="false" />
    <inkscape:path-effect
       effect="bspline"
       id="path-effect29"
       is_visible="true"
       lpeversion="1.3"
       weight="33.333333"
       steps="2"
       helper_size="0"
       apply_no_weight="true"
       apply_with_weight="true"
       only_selected="false"
       uniform="false" />
    <inkscape:path-effect
       effect="bspline"
       id="path-effect28"
       is_visible="true"
       lpeversion="1.3"
       weight="33.333333"
       steps="2"
       helper_size="0"
       apply_no_weight="true"
       apply_with_weight="true"
       only_selected="false"
       uniform="false" />
    <inkscape:path-effect
       effect="bspline"
       id="path-effect27"
       is_visible="true"
       lpeversion="1.3"
       weight="33.333333"
       steps="2"
       helper_size="0"
       apply_no_weight="true"
       apply_with_weight="true"
       only_selected="false"
       uniform="false" />
    <inkscape:path-effect
       effect="bspline"
       id="path-effect26"
       is_visible="true"
       lpeversion="1.3"
       weight="33.333333"
       steps="2"
       helper_size="0"
       apply_no_weight="true"
       apply_with_weight="true"
       only_selected="false"
       uniform="false" />
    <inkscape:path-effect
       effect="bspline"
       id="path-effect25"
       is_visible="true"
       lpeversion="1.3"
       weight="33.333333"
       steps="2"
       helper_size="0"
       apply_no_weight="true"
       apply_with_weight="true"
       only_selected="false"
       uniform="false" />
    <inkscape:path-effect
       effect="bspline"
       id="path-effect24"
       is_visible="true"
       lpeversion="1.3"
       weight="33.333333"
       steps="2"
       helper_size="0"
       apply_no_weight="true"
       apply_with_weight="true"
       only_selected="false"
       uniform="false" />
    <inkscape:path-effect
       effect="bspline"
       id="path-effect23"
       is_visible="true"
       lpeversion="1.3"
       weight="33.333333"
       steps="2"
       helper_size="0"
       apply_no_weight="true"
       apply_with_weight="true"
       only_selected="false"
       uniform="false" />
    <inkscape:path-effect
       effect="bspline"
       id="path-effect21"
       is_visible="true"
       lpeversion="1.3"
       weight="33.333333"
       steps="2"
       helper_size="0"
       apply_no_weight="true"
       apply_with_weight="true"
       only_selected="false"
       uniform="false" />
    <inkscape:path-effect
       effect="bspline"
       id="path-effect20"
       is_visible="true"
       lpeversion="1.3"
       weight="33.333333"
       steps="2"
       helper_size="0"
       apply_no_weight="true"
       apply_with_weight="true"
       only_selected="false"
       uniform="false" />
    <inkscape:path-effect
       effect="bspline"
       id="path-effect19"
       is_visible="true"
       lpeversion="1.3"
       weight="33.333333"
       steps="2"
       helper_size="0"
       apply_no_weight="true"
       apply_with_weight="true"
       only_selected="false"
       uniform="false" />
    <inkscape:path-effect
       effect="bspline"
       id="path-effect18"
       is_visible="true"
       lpeversion="1.3"
       weight="33.333333"
       steps="2"
       helper_size="0"
       apply_no_weight="true"
       apply_with_weight="true"
       only_selected="false"
       uniform="false" />
    <inkscape:path-effect
       effect="bspline"
       id="path-effect17"
       is_visible="true"
       lpeversion="1.3"
       weight="33.333333"
       steps="2"
       helper_size="0"
       apply_no_weight="true"
       apply_with_weight="true"
       only_selected="false"
       uniform="false" />
  </defs>
  <g
     inkscape:label="Layer 1"
     inkscape:groupmode="layer"
     id="layer1">
    <path
       id="rect1"
       style="color:#000000;fill:#000000;stroke-width:0.999999;stroke-linecap:round;-inkscape-stroke:none"
       d="M 22,22.000001 V 278.00001 H 278 V 22.000001 Z m 8.00183,8.001892 H 83.999054 V 83.999532 H 64.065765 c 0.01738,-0.01814 0.02419,-0.02646 0.03904,-0.04297 0.256551,-0.158587 1.246481,-0.994617 2.134731,-2.06053 1.22512,-1.470157 2.347849,-3.38244 3.187455,-5.691363 0.839602,-2.308926 1.172109,-4.447446 1.824191,-7.544867 0.652084,-3.097421 1.687371,-7.301146 1.904268,-10.554607 0.108432,-1.626728 -0.119091,-3.508128 -0.951156,-5.005823 -0.832055,-1.497717 -1.78969,-2.342428 -2.873006,-3.425754 -2.166627,-2.166643 -5.751821,-5.833911 -8.798694,-8.068297 -3.046873,-2.234398 -5.947775,-2.787457 -7.831909,-2.316391 -0.696273,0.174084 -1.477973,0.688115 -2.103487,1.181634 -0.02116,0.02154 -0.0514,0.04467 -0.113271,0.0918 -0.03326,0.02683 -0.05956,0.05148 -0.0918,0.07812 0.01361,-0.01247 0.0404,-0.03976 0.05272,-0.0508 -0.05749,0.04214 -0.107678,0.08296 -0.1875,0.130846 -0.491838,0.295103 -1.154915,0.742298 -2.089809,1.490224 -1.869791,1.495838 -5.458485,4.569418 -7.388562,9.50188 -1.930077,4.932458 -1.779269,10.289642 -1.779269,14.622936 0,4.333295 -0.0517,7.940277 0.384762,10.777261 0.436457,2.836979 2.076845,5.120155 1.955048,4.937461 -0.06092,-0.09139 -0.100912,-0.09082 0.289054,0.533201 0.244191,0.390728 0.807725,0.960928 1.443338,1.416004 H 30.00183 Z m 20.443049,10.587809 c 0.01209,-0.0087 0.02835,-0.0189 0.03908,-0.02721 0.03916,-0.03175 0.07272,-0.05979 0.113271,-0.0918 0.0415,-0.04244 0.01361,-0.02948 -0.15235,0.11913 z M 92.000884,30.001893 H 146.00006 V 83.999532 H 92.000884 Z m 62.001006,0 h 53.99722 v 28.12674 a 3.9999453,3.9999761 0 0 0 -0.99803,-0.126954 c -0.25107,0 -0.49664,-0.0045 -0.74803,-0.006 l 0.69725,-4.3652 a 3.9999453,3.9999761 0 0 0 -3.32222,-4.576135 3.9999453,3.9999761 0 0 0 -4.5761,3.314428 l -0.24415,1.523426 c -0.23009,-1.521185 -0.54155,-4.442938 -0.82616,-7.289007 a 3.9999453,3.9999761 0 0 0 -4.37688,-3.580052 3.9999453,3.9999761 0 0 0 -3.58784,4.376918 c 0.33331,3.333295 0.6286,6.549204 1.06248,8.718685 0.28789,1.439407 0.75941,2.563321 0.94921,2.873024 0.0355,0.36631 0.02,0.806121 0.34374,1.777332 0.3363,1.008994 1.32452,2.109316 1.82224,2.464823 0.0265,0.0189 0.009,0.0053 0.0314,0.02154 0.18224,0.205943 0.5472,0.578371 1.03905,0.947255 0.48837,0.366308 1.0819,0.684553 1.74215,0.939446 l -1.957,12.228423 a 3.9999453,3.9999761 0 0 0 3.31441,4.578093 3.9999453,3.9999761 0 0 0 4.58586,-3.314428 l 2.0195,-12.622954 c 0.6701,-0.002 1.34642,-0.0079 2.03122,-0.0079 a 3.9999453,3.9999761 0 0 0 0.99804,-0.128919 v 18.124861 h -53.99733 z m 61.99905,0 h 53.99723 v 53.997639 h -53.99723 z m 13.73026,7.205025 c -1.99996,0.666658 -4.02483,1.339133 -4.99797,1.617173 -0.48655,0.13901 -1.42107,0.173176 -2.71675,1.269523 -1.29568,1.096338 -1.69198,2.517305 -1.91989,3.542944 -0.45583,2.051235 -0.73823,4.925159 -0.91405,7.035099 -0.17582,2.109948 -0.34159,4.178718 0.88475,6.22261 1.09418,1.823654 2.40966,2.697217 2.5898,2.773419 0.0246,0.03515 0.0336,0.04796 0.14257,0.193359 0.31698,0.422655 1.42654,1.435148 2.43551,1.771475 2.01786,0.672618 3.2633,0.356445 5.13078,-0.05858 0.10431,-0.02305 0.19815,-0.07922 0.30273,-0.103521 -0.39554,0.888217 -0.59432,1.551996 -0.61913,1.734364 -0.1708,0.168603 -0.81427,1.042617 -1.46287,2.339823 -0.81801,1.636029 -1.11043,2.502828 -1.16014,2.562482 -0.0497,0.05964 -0.96917,0.670215 -2.31051,1.564441 -1.34133,0.894225 -2.27861,1.835276 -2.94527,2.501933 a 3.9999453,3.9999761 0 0 0 0,5.656211 3.9999453,3.9999761 0 0 0 5.65617,0 c 0.66665,-0.666662 1.0679,-1.06089 1.72653,-1.49999 0.65864,-0.43909 2.39864,-1.159262 4.01557,-3.099585 1.61692,-1.940328 1.99573,-3.739535 2.1777,-4.103485 0.18198,-0.363966 0.68768,-0.713268 1.49802,-2.333967 0.65452,-1.309032 0.77669,-1.984436 0.7246,-2.048813 0.23599,-0.304362 1.09699,-1.646656 1.78513,-3.539037 0.63603,-1.749091 1.00234,-4.450817 0.83397,-7.447208 0.0864,-0.292306 0.26339,-0.697287 0.30274,-0.878899 0.39621,-0.653956 0.75831,-1.452258 0.8867,-2.222641 0.30886,-1.853074 0.39943,-3.592153 -0.26562,-5.919875 -0.4875,-1.706259 -1.84443,-3.145065 -2.29879,-3.556615 -0.0473,-0.05983 -0.0409,-0.05061 -0.12306,-0.156245 -0.39771,-0.511332 -1.11426,-1.165428 -1.86716,-1.617176 -0.75293,-0.451759 -1.4493,-0.981491 -3.23433,-1.136711 -0.2734,-0.02381 -0.8086,0.420277 -1.20311,0.464841 a 3.9999453,3.9999761 0 0 0 -3.05462,-1.527346 z m -121.74423,0.884759 a 3.9999453,3.9999761 0 0 0 -1.25193,0.119129 c -2.99995,0.999991 -6.855759,1.987605 -9.574079,5.521445 -2.718316,3.533837 -2.914285,7.284369 -2.642538,10.001878 0.135873,1.35875 0.589496,2.81996 1.675758,3.906219 0.530085,0.530085 1.128656,0.895498 1.513648,1.089837 0.530274,0.400601 1.274761,0.81294 2.029264,1.064443 1.758917,0.586307 3.652417,0.831841 5.529217,1.019525 1.87681,0.187689 3.15105,0.375304 5.03508,-0.0957 0.94207,-0.235501 2.15999,-1.010567 2.69331,-1.6328 0.53333,-0.622238 0.47469,-0.562572 0.16993,-0.2578 -0.0756,0.07559 0.21048,-0.229151 0.23633,-0.244118 -0.13806,3.522773 -0.23735,7.38953 -0.53124,9.544849 -0.2129,1.561308 -0.45116,2.164169 -0.46484,2.201154 -0.34298,0.380536 -0.55404,0.722392 -0.71678,1.023429 0.0348,-0.05189 0.0993,-0.126652 0.31834,-0.345712 0.85955,-0.859597 1.15198,-0.782039 0.70897,-0.560541 -0.22537,0.112667 -0.67322,0.694676 -1.08592,1.062489 0.0178,-0.04698 0.0162,-0.06191 0.0196,-0.08398 -0.0276,0.05284 -0.07,0.117391 -0.0938,0.166034 -0.1344,0.124912 -0.24873,0.212293 -0.36132,0.316419 -0.0532,0.01739 -0.0215,0.0098 -0.1621,0.04494 -1.18835,0.297106 -5.36125,0.729163 -9.36118,1.062492 a 3.9999453,3.9999761 0 0 0 -3.65229,4.318328 3.9999453,3.9999761 0 0 0 4.31829,3.654265 c 3.99994,-0.333313 7.82499,-0.566618 10.63656,-1.269519 1.40579,-0.351455 2.62889,-0.871109 3.62493,-1.867174 0.48622,-0.486218 0.34654,-0.435598 0.56055,-0.841789 0.23342,-0.147363 0.12532,0.0291 0.50194,-0.347638 0.85731,-0.857354 0.84922,-1.1934 0.87108,-1.341787 0.24533,-0.259046 0.70588,-0.669096 1.11522,-1.55077 0.54419,-1.172132 0.87041,-2.509418 1.15037,-4.562469 0.55993,-4.106111 0.87108,-10.989067 0.87108,-15.369024 0,-4.379956 -0.28142,-6.336266 -1.09178,-7.956968 -0.40519,-0.810389 -1.49286,-1.931268 -2.16403,-2.33397 -0.67117,-0.402694 -0.99862,-0.521374 -1.63865,-0.876946 -0.64002,-0.355575 -1.69715,-0.988883 -2.7226,-1.558582 -0.51272,-0.284861 -1.01882,-0.559464 -1.55076,-0.804682 -0.29363,-0.135382 -0.97671,-0.218304 -1.38084,-0.353497 A 3.9999453,3.9999761 0 0 0 107.987,38.091774 Z m 3.66205,33.333733 c 0.0121,-0.02268 0.0265,-0.04879 0.039,-0.07226 -0.0151,0.02268 -0.0374,0.05968 -0.039,0.07226 z m 25.08751,-31.556405 c -0.77711,-0.03863 -1.40167,0.134777 -2.06833,0.134777 -1.33331,0 -2.78201,-0.123627 -4.62102,0.244155 -0.91955,0.183911 -2.26168,0.818606 -2.998,1.660143 -0.73633,0.841535 -0.76795,1.13239 -0.70703,1.041009 0.12182,-0.182701 -1.50519,2.013687 -1.95699,4.724572 -0.45181,2.710891 -0.38281,5.994096 -0.38281,7.994078 0,1.999983 -0.53084,2.549579 0.58983,4.790981 0.27772,0.55548 0.64699,0.684633 1.04881,1.04101 0.11974,0.333126 0.0804,0.52958 0.68554,1.14452 -0.19763,0.191923 -0.35433,0.360526 -0.45703,0.474607 -0.11531,0.0847 -0.50785,0.438667 -0.92381,0.914057 -0.60245,0.688526 -1.1902,1.643503 -1.66013,2.818337 -0.46993,1.174832 -0.90032,2.622215 -1.02537,4.341766 -0.12507,1.719551 -0.0182,3.977721 1.74802,5.964799 1.76627,1.987078 4.04874,2.500924 6.17178,2.427715 2.12303,-0.07321 4.38509,-0.825813 6.11123,-2.724588 1.72614,-1.898771 2.24026,-4.134008 2.38473,-6.185502 0.14445,-2.05149 -0.12102,-4.03759 -0.69335,-5.869093 -0.12824,-0.410429 -0.37745,-0.413271 -0.53124,-0.789059 0.0121,-0.479776 0.48777,-1.247242 0.45702,-1.513662 -0.0302,-0.262222 -0.037,-0.01625 -0.0449,-0.162103 0.25213,-0.252999 0.5475,-0.523018 1.041,-1.115225 1.28109,-1.537322 2.29905,-3.736027 2.71676,-6.451125 0.4177,-2.715106 0.37696,-5.770143 0.37696,-7.603457 0,-0.916661 0.0344,-1.581391 -0.10352,-2.546858 -0.13791,-0.965465 -0.90366,-2.767795 -2.1777,-3.617158 -1.27404,-0.849363 -2.20331,-1.100023 -2.98042,-1.138664 z m 30.18899,1.234365 c -0.003,1.21e-4 -1.12626,0.213921 -1.12889,0.214828 -0.003,8.99e-4 -0.64545,0.267097 -0.89256,0.427733 -0.49423,0.321257 -0.78475,0.651328 -0.99022,0.916007 -0.8219,1.058721 -0.70708,1.351771 -0.77343,1.617177 -0.0957,0.382741 -0.0321,0.197629 -0.0664,0.390622 -0.26695,0.235651 -0.42099,0.352626 -0.90233,0.833976 -1.56899,1.569011 -3.85216,4.19854 -6.18546,6.865185 a 3.9999453,3.9999761 0 0 0 0.37697,5.640582 3.9999453,3.9999761 0 0 0 5.6464,-0.376967 c 0.98574,-1.126574 1.55527,-1.715621 2.45894,-2.732401 0.0726,0.797217 0.15281,0.815945 0.20704,1.683582 0.32039,5.126169 0.32421,11.751228 0.32421,18.417829 a 3.9999453,3.9999761 0 0 0 4.00189,4.001923 3.9999453,3.9999761 0 0 0 3.99994,-4.001923 c 0,-6.666601 0.006,-13.379383 -0.33985,-18.919778 -0.34628,-5.540401 -0.96174,-9.440693 -1.44725,-11.382729 -0.0607,-0.242757 -0.12188,-0.462516 -0.2285,-0.759758 -0.10662,-0.297258 -0.0383,-0.619124 -0.95116,-1.580065 -0.2282,-0.240225 -0.54952,-0.535242 -1.06444,-0.804682 -0.25746,-0.13474 -0.91124,-0.339173 -0.91404,-0.339853 -0.003,-6.84e-4 -1.12814,-0.111458 -1.13085,-0.111344 z m 17.50755,0.738277 c -0.32341,0.01247 -0.62393,0.05832 -0.87499,0.140635 -1.00422,0.329307 -1.39967,0.769737 -1.67576,1.048822 -0.55216,0.558169 -0.65347,0.803525 -0.79686,1.041007 -0.28675,0.474962 -0.46604,0.831584 -0.70897,1.248036 -0.97171,1.665814 -3.32092,5.051406 -5.65421,8.384703 a 3.9999453,3.9999761 0 0 0 0.98045,5.574179 3.9999453,3.9999761 0 0 0 5.57413,-0.982418 c 0.0807,-0.115236 0.12643,-0.195474 0.20704,-0.310561 0.1663,4.578029 0.31034,8.409443 0.51562,14.158097 a 3.9999453,3.9999761 0 0 0 4.14252,3.853486 3.9999453,3.9999761 0 0 0 3.8515,-4.140592 c -0.33331,-9.333248 -0.6667,-18.660561 -0.83397,-23.009593 -0.0418,-1.08726 -0.0705,-1.864457 -0.12499,-2.539045 -0.0272,-0.337281 -0.0473,-0.63861 -0.14063,-1.085929 -0.0933,-0.447324 0.23977,-1.235692 -1.61521,-2.626933 -0.69561,-0.521714 -1.87546,-0.790926 -2.84566,-0.753901 z m 74.34261,2.218733 c -0.78544,0.0091 -1.57332,0.07612 -2.40426,0.136704 -2.21583,0.161574 -4.60606,0.508457 -6.93935,0.841788 a 3.9999453,3.9999761 0 0 0 -3.39447,4.525358 3.9999453,3.9999761 0 0 0 4.52532,3.394504 c 2.33329,-0.333314 4.60838,-0.651151 6.39248,-0.781242 0.86656,-0.06319 0.84686,-0.03061 1.37888,0.0079 -0.48593,1.619781 -0.61557,2.093538 -1.68943,4.087858 -0.37235,0.691508 -0.87345,1.560351 -1.40427,2.460919 -2.25541,-0.25538 -5.05325,-0.48051 -7.91199,-0.718744 a 3.9999453,3.9999761 0 0 0 -4.31829,3.65427 3.9999453,3.9999761 0 0 0 3.65424,4.318329 c 1.18125,0.09842 2.34885,0.200387 3.48041,0.300772 -0.45498,0.584672 -0.89881,1.177169 -1.36912,1.929673 -1.11915,1.790663 -1.78104,3.479727 -2.44332,4.671839 -0.66227,1.19211 -1.53318,2.379541 -2.53316,3.712862 a 3.9999453,3.9999761 0 0 0 0.79881,5.595658 3.9999453,3.9999761 0 0 0 5.60148,-0.796865 c 0.99998,-1.333316 2.12645,-2.813194 3.13081,-4.621062 1.00436,-1.807859 1.68101,-3.450162 2.22849,-4.326139 0.54748,-0.875974 1.58082,-1.962679 3.22651,-4.33981 0.0708,-0.10216 0.14876,-0.226506 0.22068,-0.33203 1.69241,0.375607 2.73749,0.220723 3.99408,0.220723 a 3.9999453,3.9999761 0 0 0 4.00189,-3.999972 3.9999453,3.9999761 0 0 0 -3.31245,-3.939422 c 1.25789,-2.336694 1.79481,-3.863601 2.30856,-5.57613 0.25705,-0.856758 0.72816,-2.140123 0.68554,-3.972627 -0.0426,-1.8325 -1.44725,-4.717901 -3.81635,-5.705033 -1.48068,-0.616958 -2.78267,-0.765048 -4.09173,-0.749997 z m -29.02299,1.546865 c 0.38771,0.940551 0.75144,1.915352 1.2031,2.8574 0.60969,1.271639 1.11485,2.550942 1.44725,3.638645 -0.18369,0.24631 -0.10923,0.08183 -0.39844,0.515618 -0.0215,0.0325 -0.0264,0.04373 -0.0449,0.07226 -0.63821,0.261692 -2.32411,0.849156 -3.32807,1.072256 -0.56044,0.124533 -0.22382,0.137649 -0.42968,0.132811 -0.53369,-0.531508 -0.91971,-0.909502 -1.1328,-1.091788 0.008,-0.207305 0.0151,-0.620458 0.086,-1.46874 0.1347,-1.616227 0.41883,-3.812128 0.63475,-5.101522 0.5676,-0.172951 1.28401,-0.40499 1.96286,-0.626947 z m -122.97273,1.402331 c 0.28217,0.586317 0.57791,1.172189 0.73045,1.667956 0.39197,1.273907 0.36499,3.70323 0.25194,4.251922 -0.25129,-0.0102 -0.62543,0.03326 -1.69919,-0.07423 -1.3121,-0.131224 -2.89642,-0.454111 -3.42378,-0.582028 0.0782,-1.030254 0.34254,-2.992966 0.86327,-3.669893 0.3496,-0.454478 2.06249,-1.043331 3.27729,-1.59374 z m -52.020695,0.292986 c 0.117164,0.08825 0.340494,0.242115 1.040998,0.755856 1.953042,1.43224 5.702393,5.104781 7.869024,7.271428 1.083313,1.083324 1.541669,1.650042 1.542942,1.652332 0.0013,0.0023 0.02116,-0.289245 -0.03704,0.583979 -0.116445,1.74649 -1.074606,6.213296 -1.755832,9.449148 -0.681228,3.235849 -1.019943,5.093421 -1.513649,6.451121 -0.493707,1.35771 -1.367052,2.776791 -1.808567,3.306617 -0.341475,0.409754 -0.659476,0.584907 -1.232402,1.085929 -1.022895,0.09411 -3.89669,0.124686 -5.720617,-0.0155 -1.885112,-0.145019 -2.924709,-0.422839 -4.408137,-0.634759 -0.705626,-0.1008 -0.496693,-0.0189 -0.937485,-0.08009 -0.213503,-0.243664 -0.342723,-0.16146 -0.507803,-1.234365 -0.230207,-1.496309 -0.289054,-5.225226 -0.289054,-9.558521 0,-4.333294 0.15666,-8.972808 1.226545,-11.706943 1.069869,-2.734131 3.473937,-5.001033 4.937424,-6.171827 0.731739,-0.5854 1.069953,-0.799009 1.203107,-0.8789 0.04059,-0.02419 0.252998,-0.188711 0.39062,-0.275375 z m 79.207775,0.718743 c -0.0113,1.807554 -0.0363,4.132048 -0.25194,5.535115 -0.24895,1.618193 -0.56561,2.084198 -0.95116,2.546858 -0.12692,0.152277 -0.46757,0.501524 -0.75975,0.804682 -0.0197,-0.03061 -0.0242,-0.04445 -0.0352,-0.0664 0.0325,-0.04343 0.0352,-0.339626 0.0352,-1.173822 0,-1.999982 0.0566,-5.382752 0.27147,-6.671822 0.12533,-0.752056 0.32504,-0.817811 0.42187,-0.937493 0.39875,-0.01739 0.66561,-0.01928 1.26952,-0.03704 z M 97.147291,58.29662 c 0.0036,-0.0014 0.06561,0.04645 0.128917,0.0957 -0.0692,-0.04959 -0.132924,-0.09407 -0.128917,-0.0957 z m 28.595269,3.306616 c 0.32329,0.271745 0.65172,0.730014 0.8574,0.841792 -0.005,0.0035 -0.0113,0.0042 -0.0155,0.0079 0.15148,0.117845 0.12294,0.248011 -0.58203,-0.457028 -0.2756,-0.275639 -0.13647,-0.200238 -0.25976,-0.392577 z m 4.93156,8.357357 c -0.002,0.04966 0.0268,0.106053 0.0234,0.154279 -0.0639,0.906815 -0.38566,1.43068 -0.32616,1.365223 0.008,-0.0094 -0.0635,0.01663 -0.0664,0.0155 0.0721,-0.50897 0.21067,-1.105805 0.36914,-1.535146 z M 30.00183,92.001424 H 83.999054 V 145.99907 H 30.00183 v -32.70679 a 3.9999453,3.9999761 0 0 0 4.001893,-0.26759 v 3.6406 19.33188 a 3.9999453,3.9999761 0 0 0 3.999937,4.00192 3.9999453,3.9999761 0 0 0 4.001892,-4.00192 v -19.33188 -8.164 c 0,-0.74999 0.178542,-1.42777 -0.310521,-2.97654 -0.244532,-0.77438 -0.91346,-2.07684 -2.326136,-2.78319 -1.412682,-0.70633 -2.81161,-0.47229 -3.630805,-0.19921 -1.638387,0.54614 -2.300566,1.19126 -3.285106,1.9414 -0.801907,0.61097 -1.630374,1.29554 -2.451135,1.97849 z m 61.999054,0 h 53.999176 v 26.370886 c -0.20303,-1.44617 -0.4642,-2.84334 -0.80468,-4.09176 -0.64032,-2.34785 -1.51706,-4.54519 -4.06829,-5.74995 -1.27562,-0.60239 -2.85362,-0.6378 -4.03705,-0.28123 -1.18343,0.35655 -2.05168,0.96333 -2.76949,1.60936 -2.87123,2.58412 -4.23732,5.98942 -5.21867,8.54094 -0.84181,2.18873 -1.12959,3.95436 -1.15623,4.25974 -0.0121,0.008 -0.0426,0.0647 -0.0742,0.12306 0.13186,-3.40244 0.13084,-6.79388 0.13084,-9.4472 0,-1.8333 0.0318,-3.40231 -0.21482,-5.0351 -0.12321,-0.81641 -0.3055,-1.67998 -0.83397,-2.65623 -0.5285,-0.97628 -1.58784,-2.07054 -2.87887,-2.55467 -2.58203,-0.96828 -4.16703,-0.15633 -5.64639,0.39843 -1.47936,0.55476 -2.88147,1.26692 -4.21478,1.93357 a 3.9999453,3.9999761 0 0 0 -1.79489,5.36715 3.9999453,3.9999761 0 0 0 5.3671,1.79491 c 0.83188,-0.41594 1.46174,-0.68684 2.15621,-1.0039 0.0163,0.62725 0.0586,0.91673 0.0586,1.75584 0,3.66663 -0.009,8.59067 -0.32421,12.68936 -0.31528,4.0987 -0.94269,7.59109 -1.60935,11.25773 a 3.9999453,3.9999761 0 0 0 3.21871,4.65816 3.9999453,3.9999761 0 0 0 4.65031,-3.22653 c 0.35973,-1.97845 0.72918,-4.01063 1.04882,-6.17574 0.0382,0.91848 0.16973,1.91154 0.55272,3.06053 0.54607,1.63826 1.81415,2.90428 2.24997,3.25583 0.13005,0.16709 0.47479,0.51183 1.10154,0.92969 1.09775,0.73185 2.313,0.8867 3.2773,0.8867 1.92853,0 4.17421,-0.26059 6.6288,-1.35155 2.45459,-1.09093 3.99564,-3.11872 3.86713,-2.99021 -0.053,0.053 0.81529,-0.84859 1.33787,-1.90037 V 145.9991 H 92.000884 Z m 62.001006,0 h 53.99722 v 53.997646 h -42.00326 -11.99396 z m 11.99396,53.997646 a 3.9999453,3.9999761 0 0 0 4.00189,-3.99998 c 0,-2.46449 -7.1e-4,-4.91894 -0.006,-7.33393 0.2431,0.43222 0.59991,0.87659 0.88085,1.1914 -0.51962,-0.53173 -0.38058,-0.43063 0.01,0.0898 0.44499,0.59333 1.13765,1.20056 1.8906,1.65233 1.50584,0.90351 3.26987,1.56022 5.43937,1.99413 2.16949,0.4339 4.43072,0.62926 6.86513,-0.41407 2.43441,-1.04332 3.55468,-2.82424 3.74994,-3.0195 0.11807,-0.11807 0.43462,-0.18754 0.93944,-0.63085 -0.0478,0.094 -0.0958,0.18497 -0.14256,0.28516 -0.33105,0.70936 -0.67999,1.64506 -0.56054,2.95896 0.11943,1.3139 1.01325,2.86213 2.11129,3.64646 2.1961,1.56865 3.62767,1.35156 5.36711,1.47069 1.73944,0.11913 3.62169,0.10938 5.45499,0.10938 a 3.9999453,3.9999761 0 0 0 3.99994,-3.99997 3.9999453,3.9999761 0 0 0 -3.99994,-4.00192 c -0.70026,0 -1.21417,-0.031 -1.87497,-0.037 0.67904,-0.82095 1.3748,-1.64153 1.96287,-2.46483 0.8752,-1.2253 1.69031,-2.32152 2.29683,-3.83786 0.17972,-0.4493 0.31298,-0.78997 0.41797,-1.0664 0.26883,-0.27106 0.67591,-0.76778 1.19138,-1.541 0.62179,-0.93269 0.88664,-2.14945 0.95116,-2.98826 0.0645,-0.83882 0.0586,-1.64452 0.0586,-2.89451 0,-2.49997 0.0144,-6.73524 -0.1836,-9.30852 -0.099,-1.28666 -0.23002,-2.17662 -0.60546,-3.11521 -0.0852,-0.21305 -0.17496,-0.40717 -0.25977,-0.58203 0.13383,0.044 -0.0877,-0.74007 -1.23045,-1.8828 -0.74591,-0.74591 -2.16209,-1.31133 -3.21089,-1.29295 h -0.002 c -1.04784,0.0193 -1.73506,0.32163 -2.3027,0.60546 -2.27204,1.13602 -3.76362,2.66731 -5.76358,4.33395 a 3.9999453,3.9999761 0 0 0 -0.51757,5.64058 3.9999453,3.9999761 0 0 0 5.63272,0.50782 c 0.16407,-0.13672 0.17673,-0.13611 0.34571,-0.27346 0.0374,1.93271 0.0977,3.82429 0.0977,5.36714 0,0.99431 -0.011,1.4415 -0.0234,1.80859 -0.0348,-0.13999 -0.0676,-0.3858 -0.9746,0.9746 -1.24357,1.86538 -0.98672,2.58013 -1.04685,2.73045 -0.0601,0.15031 -0.58942,1.05604 -1.38085,2.16404 -0.79142,1.10801 -1.87891,2.46877 -2.07418,2.66404 -0.0976,0.0976 0.003,0.011 -0.30274,0.22266 -0.30591,0.21177 -0.92404,0.6721 -1.52927,1.27734 -0.0694,0.0694 -0.14717,0.15178 -0.22072,0.22654 0.17941,-0.39538 0.28856,-0.73882 0.35546,-1.00781 0.32224,-0.42057 0.65131,-0.93832 0.82616,-1.46287 0.67262,-2.01788 0.36914,-2.7604 0.36914,-5.09372 0,-2.33331 0.0801,-6.4635 -1.38865,-10.66007 -0.73439,-2.09828 -1.78876,-4.03593 -3.15229,-5.68355 -1.36353,-1.64761 -3.03101,-3.20127 -5.68351,-3.60934 -2.6525,-0.40809 -4.87475,0.84044 -6.31826,2.09568 -1.44351,1.25523 -2.46291,2.68669 -3.32222,4.0234 -1.50505,2.34121 -2.6809,4.94996 -3.33979,8.03314 -0.0731,-2.21174 -0.17068,-4.24388 -0.30663,-6.01166 -0.52565,-6.83359 -1.75503,-9.99832 -2.41403,-11.31633 -0.16474,-0.32949 -0.1957,-0.59195 -0.87108,-1.35741 -0.33769,-0.38272 -0.95908,-1.11632 -2.41402,-1.373032 -1.45494,-0.256704 -3.03595,0.571122 -3.61713,1.152332 -1.16237,1.16242 -0.98652,1.47865 -1.10741,1.79295 -0.12086,0.31431 -0.20284,0.55978 -0.30859,0.8418 -0.42304,1.12809 -1.42967,3.49087 -2.42965,5.82417 a 3.9999453,3.9999761 0 0 0 2.09567,5.25582 3.9999453,3.9999761 0 0 0 3.0937,0.0155 c 0.46319,6.18864 0.48828,16.72374 0.48828,27.30447 a 3.9999453,3.9999761 0 0 0 3.99212,3.99998 z m 50.00509,-53.997646 h 53.99723 v 13.870996 c -0.75599,-0.86426 -1.68139,-1.40257 -2.45895,-1.72656 -3.74777,-1.56159 -7.54481,-1.14452 -11.54475,-1.14452 a 3.9999453,3.9999761 0 0 0 -3.99212,3.99998 3.9999453,3.9999761 0 0 0 3.99212,4.00192 c 3.26066,0 5.62032,0.26751 6.90224,0.42773 -0.21293,0.73443 -0.26951,1.17332 -1.05467,2.9531 -0.25122,0.56945 -0.54696,1.21092 -0.8535,1.87108 -0.95643,-0.55692 -1.97063,-1.13194 -3.00777,-1.7246 a 3.9999453,3.9999761 0 0 0 -5.20304,1.14061 c -0.20549,-2.97816 -0.62899,-4.27085 -0.87304,-5.36909 -0.13262,-0.59686 -0.28754,-1.7019 -0.78905,-3.02732 -0.25076,-0.66271 -0.57965,-1.43088 -1.35154,-2.26561 -0.77189,-0.83473 -2.26363,-1.67577 -3.76361,-1.67576 -2.99996,0 -3.94101,1.34321 -5.19719,2.39841 -1.25618,1.05519 -2.46611,2.27277 -3.63276,3.43943 a 3.9999453,3.9999761 0 0 0 0,5.65621 3.9999453,3.9999761 0 0 0 5.65617,0 c 0.55433,-0.55435 0.97423,-0.91927 1.48239,-1.41016 0.20988,0.81893 0.41487,1.2426 0.52539,3.4531 0.15469,3.09421 0.1621,9.13406 0.1621,12.80069 0,3.66663 -0.0395,4.90659 -0.11131,5.33785 -0.0719,0.43125 -0.13148,0.53646 -0.46483,1.20311 a 3.9999453,3.9999761 0 0 0 1.78708,5.36715 3.9999453,3.9999761 0 0 0 2.91011,0.24415 3.9999453,3.9999761 0 0 0 2.04294,2.73045 3.9999453,3.9999761 0 0 0 5.38859,-1.71288 c 2.56689,-4.96269 5.12485,-9.90662 7.36707,-14.3534 1.6416,1.07067 2.63573,1.09619 2.95894,1.2578 0.36397,0.18198 0.62629,0.41927 1.29295,1.08593 a 3.9999453,3.9999761 0 0 0 1.83005,1.02343 v 14.14443 h -38.35099 a 3.9999453,3.9999761 0 0 0 1.14647,-1.73437 c 0.33331,-0.99999 0.78634,-2.36308 1.00389,-4.10348 0.21754,-1.7404 0.21565,-3.1997 0.47265,-4.61324 0.257,-1.41355 1.03729,-3.89274 1.22654,-7.67768 0.18924,-3.78494 -0.17627,-8.50041 -0.51757,-12.08389 -0.17064,-1.79175 -0.31071,-3.38157 -0.78319,-5.0195 -0.47248,-1.63792 -1.65912,-3.9124 -4.09564,-4.72457 -2.43651,-0.81217 -4.11976,-0.12188 -5.63273,0.43554 -1.51297,0.55742 -2.92639,1.28255 -4.2597,1.94921 a 3.9999453,3.9999761 0 0 0 -1.78708,5.36519 3.9999453,3.9999761 0 0 0 5.3671,1.78709 c 1.12229,-0.56113 2.07916,-1.00327 2.9023,-1.34373 0.1115,0.67304 0.21857,1.20132 0.32421,2.31053 0.32537,3.41645 0.6304,8.04402 0.48632,10.92569 -0.14408,2.88168 -0.69776,4.38944 -1.10741,6.64252 -0.40965,2.25311 -0.41546,4.13037 -0.53124,5.05661 -0.11576,0.92624 -0.32288,1.5625 -0.65624,2.56248 a 3.9999453,3.9999761 0 0 0 1.19725,4.2656 H 216.00093 Z M 105.37177,102.55017 c -0.1164,7e-5 -0.3208,0.0155 -0.7324,0.0742 -0.60122,0.0859 -2.01993,0.7673 -2.00974,0.76172 -0.0675,0.0469 -0.0302,0.0416 -0.006,0.0272 0.0461,-0.0268 -0.144,0.0727 -0.0508,0.0314 -0.0409,0.0155 -0.0174,-0.006 -0.11134,0.0352 -0.11789,0.0513 -0.50774,0.27216 -0.50976,0.27344 -0.002,10e-4 -0.65139,0.51363 -0.70312,0.55468 5.5e-4,-6.9e-4 -0.0117,0.01 -0.0117,0.01 -6.5e-4,5.3e-4 -0.0155,0.0117 -0.0155,0.0117 -4e-5,4e-5 -0.0117,0.0129 -0.0155,0.0178 -0.0162,0.0147 5e-4,-0.002 -0.13281,0.13085 -0.0598,0.0598 -0.0144,0.0144 -0.0567,0.0567 -0.11338,0.0952 -0.26362,0.2225 -0.42968,0.37107 -0.37583,0.33629 -0.690052,0.65173 -0.759753,0.71678 -0.155336,0.10311 -0.217017,0.12768 -0.384761,0.27149 -0.322238,0.27628 -0.164331,0.15008 -0.162101,0.14842 0.0022,-0.002 -0.305495,0.19389 -0.656241,0.42773 -0.279492,0.18632 -0.386598,0.26528 -0.406244,0.28319 -0.01209,0.004 -0.05095,0.0242 -0.214825,0.11524 -0.153598,0.0853 -0.241508,0.13811 -0.312487,0.18165 -0.02305,-6.4e-4 -0.179298,0.0739 -0.572257,0.33592 -0.126423,0.0843 -0.117201,0.0789 -0.185534,0.12499 -0.100723,0.058 -0.204054,0.11742 -0.353494,0.20703 -0.409203,0.24556 -0.76645,0.48842 -0.908192,0.57618 -0.112628,0.0697 -0.168035,0.0915 -0.365248,0.20897 a 3.9999453,3.9999761 0 0 0 -2.499961,4.49214 3.9999453,3.9999761 0 0 0 4.710868,3.13866 c 0.120565,-0.0242 0.353116,-0.006 1.113262,-0.33204 0.760985,-0.32617 0.984076,-0.56011 0.775381,-0.42968 -0.208286,0.13016 0.115765,-0.0536 0.480462,-0.2793 0.364685,-0.22575 0.731605,-0.46592 0.804675,-0.50977 0.073,-0.0438 -0.0306,0.0513 0.52343,-0.29491 0.13553,-0.0847 0.17442,-0.11649 0.26562,-0.17775 0.028,-0.0159 0.0196,-0.011 0.0527,-0.0295 0.37213,-0.20678 0.51691,-0.30126 0.36132,-0.21483 -0.15542,0.0863 0.11829,-0.0421 0.51561,-0.29491 0.27953,-0.17787 0.35176,-0.23305 0.45898,-0.31057 0.0246,0.4049 0.0415,0.73701 0.0723,1.14453 0.0548,0.72569 0.1064,1.1328 0.11913,1.33007 0.0129,0.19729 0.0155,0.58645 0.0508,1.1367 0.0355,0.55028 0.0735,0.83011 0.0898,1.17383 0.0162,0.34374 0.0231,0.91039 0,1.83006 -0.023,0.91967 -0.0705,2.19178 -0.0957,3.08591 -0.0253,0.89415 -0.0351,1.43261 -0.037,1.46874 -0.002,0.0359 -0.0355,0.2245 -0.0527,0.7461 -0.0174,0.52172 -0.0147,1.17126 -0.0215,1.37303 -0.007,0.20209 -0.014,0.0155 -0.0449,0.47851 -0.0257,0.38457 -0.0166,0.51815 -0.0136,0.53906 -0.0383,0.17889 -0.081,0.3476 -0.11913,0.57617 -0.0541,0.32484 -0.1587,0.96624 -0.20704,1.75584 -0.0483,0.78961 -0.0436,1.5867 -0.0508,1.8164 -0.007,0.22964 0.006,-0.1425 -0.037,0.36914 -0.0321,0.38368 -0.0321,0.47394 -0.0272,0.4707 -0.002,-0.006 -0.11145,0.55406 -0.16406,1.30858 -0.0548,0.78477 -0.0527,1.54927 -0.0527,2.29686 a 3.9999453,3.9999761 0 0 0 4.00189,3.99997 3.9999453,3.9999761 0 0 0 3.99994,-3.99997 c 0,-0.74759 0.0121,-1.48411 0.0295,-1.73631 0.0178,-0.25225 0.0391,-0.22379 0.11913,-0.81054 0.08,-0.5868 0.0849,-1.08741 0.0664,-0.86524 -0.0185,0.22221 0.0416,-0.23924 0.0586,-0.78124 0.017,-0.54198 0.0212,-1.18801 0.0449,-1.58006 0.0242,-0.39206 0.067,-0.67574 0.10937,-0.92968 0.0423,-0.25395 0.0434,-0.24949 0.0295,-0.19336 -0.014,0.0558 0.13901,-0.58375 0.16993,-1.04687 0.031,-0.46386 0.0363,-0.76013 0.0295,-0.6582 -0.007,0.10155 0.0355,-0.22269 0.0527,-0.74413 0.0174,-0.52179 0.0147,-1.17125 0.0215,-1.37304 0.007,-0.20194 0.0302,-0.16444 0.0527,-0.63476 0.0223,-0.47028 0.014,-0.79911 0.037,-1.61718 0.023,-0.81807 0.0704,-2.10564 0.0957,-3.1152 0.0253,-1.00958 0.0318,-1.74494 0,-2.41405 -0.0318,-0.66913 -0.0908,-1.10932 -0.10352,-1.30663 -0.0129,-0.19732 -0.0174,-0.57859 -0.0527,-1.1289 -0.0355,-0.55031 -0.0755,-0.87334 -0.1172,-1.42577 -0.0417,-0.55244 -0.0882,-1.43445 -0.13281,-2.02928 -0.0212,-0.28025 -0.0511,-0.53387 -0.0723,-0.70116 -0.004,-0.0907 -0.0162,-0.30392 -0.0314,-0.57618 -0.0272,-0.49141 -0.0764,-1.18404 -0.11131,-1.74217 -0.0348,-0.55813 -0.0363,-0.92611 -0.13281,-1.60155 -0.0966,-0.67628 -0.74014,-2.25202 -0.35349,-1.28514 0.38545,0.96391 -0.006,-0.23389 -0.44335,-0.92188 -0.4383,-0.68894 -0.52376,-0.81822 -1.25389,-1.40232 -0.7297,-0.58377 -2.69185,-0.97461 -2.81246,-0.97461 -0.0603,0 -0.0887,-0.0159 -0.20507,-0.0155 z m -2.74214,0.83594 c 0.037,-0.0181 0.22155,-0.10696 0.67382,-0.33399 0.14116,-0.0709 0.22272,-0.10467 0.3242,-0.1504 -0.14687,0.0525 -0.30727,0.11652 -0.46484,0.19533 -0.33278,0.16641 -0.47333,0.24741 -0.53319,0.28906 z m 0.99803,-0.48438 c 0.1838,-0.0657 0.34571,-0.11229 0.44335,-0.1367 0.14948,-0.0374 0.13512,-0.12386 -0.44335,0.1367 z m -45.468054,0.56836 c -1.741931,-0.0434 -2.878134,0.46923 -4.107362,0.94726 -1.404826,0.54633 -2.682037,1.19233 -3.773377,1.9199 -2.182663,1.45513 -3.26013,4.1973 -3.320261,4.34762 -0.06013,0.15031 -1.180669,2.2311 -1.587869,5.28512 -0.4072,3.05403 -0.453888,7.00788 0.207039,10.31242 0.660905,3.30455 2.543878,5.52605 2.966752,6.05464 0.422874,0.52859 0.906143,1.85931 3.003863,2.90818 1.76008,0.88006 2.94576,0.89091 3.140577,0.83594 0.0717,0.0828 0.49412,0.29294 1.790985,0.29294 0.841828,2e-5 1.996033,-0.35825 2.724571,-0.90039 0.728531,-0.54214 1.108092,-1.10269 1.394507,-1.58006 1.145622,-1.90937 1.532534,-3.62498 2.199187,-5.62495 0.666657,-1.99999 1.443274,-4.32662 1.832004,-7.24214 0.388734,-2.9155 0.397525,-5.95026 0.183607,-8.08978 -0.213956,-2.13956 -0.652991,-2.9746 -0.701164,-3.26364 -0.02419,-0.14454 -0.01776,-1.09214 -0.52343,-2.45701 -0.505508,-1.36487 -2.438083,-3.44644 -4.642505,-3.69138 -0.275561,-0.0306 -0.538249,-0.0485 -0.787097,-0.0547 z m 19.681339,1.53124 c -1.198572,0.006 -2.505218,0.0522 -3.902284,0.31834 -1.86275,0.35483 -4.12256,1.2592 -5.640539,3.28319 -1.517975,2.02397 -1.855413,4.10001 -2.082,5.98822 -0.226579,1.88823 -0.212898,3.65818 -0.212898,4.90817 0,1.24999 -0.07461,2.25128 0.242189,3.65427 0.316795,1.403 1.608074,3.22552 2.939407,3.9863 1.331341,0.76077 2.396729,0.97476 3.38862,1.21093 0.822662,0.19589 1.507676,0.34181 1.888643,0.43163 0.01928,0.0197 0.02381,0.0257 0.04494,0.0469 0.130845,0.13084 0.223253,0.22152 0.310521,0.30471 -0.006,0.2804 -0.02646,1.14651 -0.05272,1.52732 -0.09131,0.0329 -0.01323,0.0181 -0.310559,0.0723 -1.161662,0.21119 -3.784448,0.26562 -6.451072,0.26562 a 3.9999453,3.9999761 0 0 0 -4.001893,4.00192 3.9999453,3.9999761 0 0 0 4.001893,4.00192 c 2.666624,0 5.379698,0.0551 7.884644,-0.40038 1.252474,-0.22771 2.527108,-0.60909 3.726504,-1.43944 1.199404,-0.83037 2.147998,-2.14149 2.628868,-3.42381 0.961735,-2.56465 0.938472,-4.67807 0.273444,-7.0058 -0.665063,-2.32775 -2.964922,-4.16806 -2.355434,-3.55857 0.609545,0.60954 -1.382531,-1.49462 -3.226511,-2.02147 -0.921956,-0.26339 -1.751649,-0.40349 -2.509727,-0.58398 -0.237994,-0.0567 -0.199291,-0.0546 -0.398431,-0.1172 -0.01512,-0.33002 -0.02154,-0.32326 -0.02154,-0.95312 0,-1.24998 0.0057,-2.72025 0.154315,-3.957 0.14842,-1.23674 0.557056,-2.16461 0.539056,-2.14061 -0.01814,0.0242 -0.02419,-0.0755 0.738265,-0.22068 0.762207,-0.14517 2.06443,-0.17775 3.564401,-0.17775 a 3.9999453,3.9999761 0 0 0 4.001891,-3.99997 3.9999453,3.9999761 0 0 0 -3.999938,-4.00192 h -0.002 c -0.374395,-10e-6 -0.761284,-0.002 -1.160139,0 z m 18.136442,3.2617 c 0.05741,-0.0121 0.02721,0.0113 -0.03326,0.0234 a 3.9999453,3.9999761 0 0 0 -0.402336,0.1367 c 0.242566,-0.10136 0.383564,-0.14933 0.435539,-0.16014 z m 11.732243,0.5039 c 0.0384,-0.0892 0.0386,-0.0698 -0.0586,0.13281 -0.0486,0.10132 -0.13058,0.24789 -0.25194,0.43554 -0.10609,0.16402 -0.37865,0.47782 -0.45702,0.56836 0.39288,-0.44913 0.69933,-0.97791 0.76756,-1.13671 z m -51.229689,3.34371 c 0.136325,0.42702 0.306176,0.91517 0.376964,1.62304 0.119357,1.19378 0.123627,4.15379 -0.154277,6.23824 -0.277905,2.08443 -0.833325,3.76559 -1.499977,5.76557 -0.232741,0.6982 -0.265055,0.76248 -0.507806,1.41015 -0.742605,-0.88923 -0.957008,-0.85736 -1.271468,-2.42967 -0.339094,-1.6954 -0.384466,-5.74542 -0.124987,-7.69135 0.259461,-1.94593 0.479392,-1.85667 1.085921,-3.37301 0.118638,-0.29659 0.159645,-0.4588 0.175785,-0.56836 0.04566,-0.0208 0.08946,-0.0401 0.164065,-0.0898 0.322162,-0.21475 1.070244,-0.57732 1.755834,-0.88476 z m 125.218789,1.74609 c 0.16815,0.1282 0.3685,0.29574 0.5957,0.57031 0.63643,0.76903 1.33139,1.99152 1.76364,3.22653 0.86451,2.47004 0.93749,5.6842 0.93749,8.01752 0,1.47842 -0.0765,2.26304 -0.0567,2.43944 -0.13058,0.12691 -0.1971,0.13832 -0.34763,0.43944 -0.28399,0.56806 -0.34394,0.79927 -0.36132,0.95898 -0.14763,0.10114 -0.49006,0.42941 -1.05663,0.99609 -0.98832,0.98833 -1.27684,1.28856 -1.26951,1.32225 0.003,-0.0234 -1.00454,0.14087 -2.11911,-0.082 -1.06274,-0.21257 -2.28495,-0.74856 -2.64253,-0.92187 -0.0234,-0.11675 0.0314,0.12635 0.008,-0.15624 -0.13001,-1.56015 -0.11633,-5.55291 0.30274,-8.20698 0.41905,-2.65407 1.13269,-4.30363 2.41402,-6.29681 0.63869,-0.99352 1.3588,-1.89346 1.832,-2.30663 z m 88.29944,1.81443 v 6.69917 c -0.93006,-0.45386 -1.62126,-0.75922 -1.76365,-0.75389 -0.0612,-0.2174 -0.0893,-0.41276 -0.51366,-0.87891 0.52621,-1.11437 1.01972,-2.17857 1.43552,-3.12106 0.30912,-0.70069 0.58791,-1.3378 0.84179,-1.94531 z m -132.26752,3.54685 c 0.47215,3.30969 0.93749,7.73857 0.93749,10.28313 0,1.24119 -0.0551,1.41488 -0.0586,1.53514 -0.40547,0.44111 -0.67277,0.79793 -1.0703,0.97461 -0.39373,0.17499 -1.54981,0.33947 -2.43551,0.47265 -0.007,-0.32421 -0.10352,-1.13103 -0.10352,-2.48045 0,-1.66665 0.0632,-3.38666 0.11135,-3.67576 0.0482,-0.28905 0.21051,-0.10964 0.60546,-1.68944 0.3949,-1.57969 0.16236,-1.58539 0.84764,-3.36715 0.25738,-0.6692 0.69558,-1.19458 1.166,-2.05273 z m 115.21504,1.33203 a 3.9999453,3.9999761 0 0 0 1.0703,0.92773 c 1.2199,0.69708 2.44439,1.4056 3.45698,2.00779 -1.36685,2.73058 -2.88049,5.69904 -4.47454,8.79876 10e-4,-0.73578 0,-1.56653 0,-2.61326 0,-2.4813 0,-5.9878 -0.0527,-9.12102 z m -60.95219,11.02139 c 0.002,0.002 -0.0136,0.0472 -0.0547,0.14064 0.0287,-0.0839 0.0523,-0.14268 0.0547,-0.14064 z m -0.83397,1.37891 c -0.18051,0.19041 -0.27496,0.24441 -0.10352,0.10155 0.0249,-0.0208 0.0721,-0.0723 0.10352,-0.10155 z m -56.03431,0.10155 h 0.002 c -0.002,0.002 -0.005,0.007 -0.002,0.0155 4.3e-4,0.001 -4.1e-4,-0.0166 0,-0.0155 z m 0.0295,0.0117 c 0.0231,0.007 0.0325,0.005 0.082,0.0333 0.0573,0.0831 -0.0318,-0.001 -0.082,-0.0333 z M 30.00183,154.00096 h 53.997224 v 53.99763 H 62.597037 a 3.9999453,3.9999761 0 0 0 0.0703,-0.0508 c 0.301413,-0.0321 0.752353,-0.0189 1.792938,-0.53905 0.390606,-0.19529 0.373299,-0.34231 0.64843,-0.58985 0.48689,-0.12377 1.21844,-0.3397 2.015594,-0.73826 1.636008,-0.81802 2.880901,-1.81031 3.691348,-2.27343 0.810451,-0.46311 1.735832,-0.63146 3.25581,-1.77146 0.759976,-0.57 1.700508,-1.80151 2.154264,-2.87108 0.453752,-1.06957 0.787275,-2.23046 1.300761,-4.11325 1.026973,-3.76559 2.690851,-10.3958 3.5644,-14.76356 0.873549,-4.36777 1.03164,-6.75243 0.421868,-8.88665 -0.609768,-2.13422 -1.975287,-3.63776 -1.853485,-3.45506 0.06092,0.0914 -0.198233,-0.57623 -1.107408,-1.39452 -0.909174,-0.81827 -1.944942,-1.19083 -2.915971,-1.43358 -0.970995,-0.24276 -2.032713,-0.41153 -3.099563,-0.51562 -0.533419,-0.052 -1.030876,-0.0879 -1.638646,-0.0664 -0.303869,0.0106 -0.627982,0.0159 -1.167951,0.14649 -0.0057,0.001 -0.02381,0.0219 -0.02948,0.0234 a 3.9999453,3.9999761 0 0 0 -1.697239,-0.70117 3.9999453,3.9999761 0 0 0 -2.828083,1.16601 c -1.666641,1.66666 -3.345364,3.25075 -4.597586,5.00387 -0.626111,0.87656 -1.032929,1.74438 -1.2617,2.39256 -0.04222,0.11966 -0.0596,0.15628 -0.09766,0.25587 -0.329078,0.64389 -0.878953,1.90478 -1.017561,3.01366 -0.248085,1.98465 -0.322615,4.38519 0.228506,6.86517 0.275562,1.24001 0.81803,2.36581 1.447242,3.15232 0.471917,0.5899 0.951543,1.01564 1.033191,1.06249 0.268153,0.28509 1.0487,0.9977 2.103482,1.32226 1.483189,0.45639 2.38756,0.23799 3.535102,0.0295 1.176568,-0.21392 2.901593,-0.56321 4.718681,-1.34374 -0.542344,2.18723 -1.043226,4.51334 -1.45506,6.0234 -0.449295,1.64743 -0.730874,2.47608 -0.878892,2.8574 -0.126914,0.0264 -0.769012,0.3044 -2.081997,1.05468 -1.522846,0.8702 -2.942636,1.87855 -3.30659,2.06052 -0.181983,0.091 -0.246573,0.10897 -0.42773,0.15428 -0.18115,0.0453 -0.451549,-0.0428 -1.572241,0.51758 -0.367402,0.18369 -0.347749,0.31986 -0.613272,0.55273 -0.269023,0.0393 -0.497136,0.0524 -1.025374,0.2285 -1.512,0.504 -2.399054,1.46941 -2.73238,1.80273 a 3.9999453,3.9999761 0 0 0 0,5.65425 3.9999453,3.9999761 0 0 0 0.232438,0.16796 H 30.00183 Z m 61.999054,0 h 53.999176 v 30.12867 a 3.9999453,3.9999761 0 0 0 -0.73241,-0.12109 l -1.7988,-0.11913 c 0.34952,-3.13145 0.87754,-7.43243 1.17967,-10.30266 0.34249,-3.25382 0.35349,-4.5833 0.35349,-5.24996 0,-0.33331 0.0449,-0.51943 -0.0664,-1.29881 -0.0557,-0.3897 0.41762,-1.20096 -1.54881,-2.73045 -0.98321,-0.76476 -2.85047,-0.96199 -3.81049,-0.62891 -0.96001,0.33308 -1.31571,0.7415 -1.57224,0.99804 -1.026,1.02606 -0.44143,0.52151 -0.53905,0.61913 -0.0976,0.0976 -0.39512,0.36915 -1.11327,0.82617 -1.43629,0.91401 -4.80918,2.63801 -8.14245,4.30466 a 3.9999453,3.9999761 0 0 0 -1.78708,5.36715 3.9999453,3.9999761 0 0 0 5.3671,1.78514 c 1.74183,-0.87092 3.0544,-1.63431 4.62884,-2.45701 -0.30629,2.68225 -0.67248,5.748 -0.9453,8.23626 l -5.205,-0.34571 a 3.9999453,3.9999761 0 0 0 -1.28709,0.14063 c -0.034,-0.15242 -0.0614,-0.30428 -0.0996,-0.45702 -1.32969,-5.31884 -4.65377,-9.07432 -7.95105,-11.10344 -1.64864,-1.01455 -3.47658,-1.49199 -5.10734,-1.34374 -1.63075,0.14827 -2.88389,0.88269 -3.55854,1.38867 -0.67468,0.50601 -1.3704,1.32835 -1.69724,1.88866 -0.32685,0.5603 -0.36521,0.70111 -0.49413,0.916 -0.25787,0.4298 -1.41316,1.96111 -2.31832,3.77146 -0.90347,1.80694 -1.33161,3.59886 -1.84373,6.15816 0.0935,-2.80863 0.0859,-6.28248 0.0859,-8.70502 0,-1.49999 0.0782,-2.54818 -0.19139,-3.9863 -0.13481,-0.71905 -0.27704,-1.78615 -1.57224,-2.93747 -1.29523,-1.15132 -3.4871,-1.20741 -4.496029,-0.87109 -2.017856,0.67263 -2.549582,1.47039 -3.542913,2.36912 -0.993336,0.89874 -2.019504,1.93164 -3.019482,2.93162 a 3.9999453,3.9999761 0 0 0 0,5.65426 3.9999453,3.9999761 0 0 0 4.777269,0 c -0.01323,2.5224 -0.0094,5.29177 -0.111344,6.92377 -0.148533,2.37668 -0.359655,2.35899 -0.621083,3.9277 -0.261465,1.56872 -0.239392,2.84359 -0.345709,3.58787 -0.106317,0.74427 -0.330741,1.47265 -0.664052,2.47264 a 3.9999453,3.9999761 0 0 0 2.5234,5.0566 3.9999453,3.9999761 0 0 0 5.064373,-2.53123 c 0.072,-0.216 0.15005,-0.45154 0.22851,-0.69336 0.0306,0.56869 0.10646,1.12704 0.25779,1.73242 0.17643,0.70579 0.70353,1.50317 1.20311,2.13279 -0.0729,-0.0787 -0.0635,-0.0534 0.11717,0.14452 -0.0129,-0.0166 -0.0291,-0.0399 -0.041,-0.0547 -0.0257,-0.0318 -0.0483,-0.0552 -0.0742,-0.0879 0.0223,0.0242 0.0393,0.0446 0.0742,0.0879 0.0299,0.0367 0.0566,0.0662 0.0859,0.10155 -0.0113,-0.0125 -0.0348,-0.0355 -0.0449,-0.0469 0.048,0.0619 0.0928,0.11671 0.15038,0.20312 0.35255,0.52885 0.90749,1.13927 1.5781,1.67577 1.34119,1.07296 3.14592,2.16212 5.51554,2.87302 2.36962,0.7109 4.79205,0.8871 7.22646,-0.15624 2.43441,-1.04333 3.49664,-2.81867 4.16204,-3.61716 0.66541,-0.79849 2.35684,-2.71654 3.53706,-6.06051 0.54268,-1.53763 1.09789,-3.45742 1.41404,-5.59761 a 3.9999453,3.9999761 0 0 0 0.54882,0.0918 l 4.22845,0.28123 c -0.41353,0.74613 -0.67853,1.58015 -0.88475,2.6113 -0.4339,2.16951 -0.72916,5.3854 -1.06249,8.71869 a 3.9999453,3.9999761 0 0 0 3.58784,4.37693 3.9999453,3.9999761 0 0 0 4.37689,-3.58006 c 0.33331,-3.3333 0.70473,-6.78537 0.93748,-7.94916 0.028,-0.14003 0.0355,-0.14543 0.0547,-0.21876 0.0849,-0.12348 0.21232,-0.33675 0.43359,-0.77929 0.55926,-1.11861 0.49903,-1.5659 0.54491,-1.86718 0.0567,-0.0405 0.20839,-0.3262 0.3789,-0.7578 l 2.40425,0.16014 A 3.9999453,3.9999761 0 0 0 146,191.85215 V 207.9985 H 92.000884 Z m 62.001006,0 h 53.99722 v 7.1933 c -0.0336,-0.116 -0.0634,-0.2301 -0.10352,-0.34961 -0.14343,-0.42737 -0.31936,-0.8947 -0.74608,-1.49022 -0.42672,-0.59552 -1.25484,-1.42063 -2.51754,-1.73631 -1.2627,-0.31571 -2.47538,0.0536 -3.15815,0.42968 -0.68278,0.37614 -1.04388,0.74658 -1.33006,1.0625 -0.57235,0.63181 -0.85328,1.13677 -1.14256,1.64647 -0.57858,1.0194 -1.04118,2.05112 -1.41014,2.78904 -0.73791,1.47584 -1.26603,2.18639 -1.83786,3.33005 -0.17752,0.35508 -0.19479,0.42745 -0.25976,0.58984 -0.0696,0.0325 -0.80686,0.59911 -1.71286,1.20312 a 3.9999453,3.9999761 0 0 0 -1.10741,5.55269 3.9999453,3.9999761 0 0 0 5.54484,1.10741 c 0.84535,-0.56357 1.70809,-1.1585 2.62691,-1.97264 0.13103,6.79533 0.15624,16.44232 0.15624,26.64238 a 3.9999453,3.9999761 0 0 0 3.99995,3.99997 3.9999453,3.9999761 0 0 0 2.998,-1.35156 v 5.35152 h -53.99722 z m 61.99905,0 h 53.99723 v 24.13457 6.5898 c -0.57088,-0.21766 -1.12243,-0.43454 -1.66404,-0.65039 l 1.49412,-4.90816 a 3.9999453,3.9999761 0 0 0 0.16992,-1.03125 3.9999453,3.9999761 0 0 0 -2.83394,-3.95895 3.9999453,3.9999761 0 0 0 -4.99016,2.65818 l -1.03123,3.3867 c -0.5732,-0.40362 -1.15057,-0.81067 -1.75974,-1.21679 -0.55982,-0.37322 -0.97093,-0.60808 -1.41795,-0.8789 -0.004,-0.0464 0.10023,-0.51817 0.082,-0.47265 -0.0765,0.19117 0.85519,-1.04414 1.58005,-3.21873 0.72486,-2.1746 0.99478,-4.53187 1.3281,-6.86518 a 3.9999453,3.9999761 0 0 0 -3.38862,-4.52535 3.9999453,3.9999761 0 0 0 -4.52532,3.38864 c -0.33331,2.3333 -0.72877,4.6453 -1.00389,5.47067 -0.22385,0.67162 -0.53244,0.87281 -1.03904,1.9199 v -2.99021 -4.33396 c 0,-0.20832 0.0197,-0.41466 -0.0314,-0.91405 -0.0253,-0.24972 -0.0321,-0.56683 -0.29492,-1.22655 -0.26271,-0.65973 -1.21002,-2.15248 -2.99604,-2.50975 -1.78603,-0.35727 -2.82938,0.41716 -3.30073,0.77538 -0.47136,0.35823 -0.65722,0.5982 -0.82616,0.80469 -0.33789,0.41296 -0.52735,0.72423 -0.77538,1.12108 -0.91455,1.4633 -2.37461,4.09099 -3.90033,6.83784 0.22967,-0.97032 0.46093,-1.74254 0.46093,-3.05075 0,-0.69445 -0.0465,-1.66157 -0.81249,-2.78318 -0.76598,-1.12163 -2.34591,-1.81886 -3.27729,-1.89648 -1.86276,-0.15522 -2.18584,0.28766 -2.21481,0.29491 -0.0291,0.007 -0.20829,0.0406 -0.55273,0.0898 -0.34446,0.0492 -0.81483,-0.0155 -1.93552,0.54493 -0.46552,0.23277 -0.54296,0.5497 -0.87108,0.88671 -0.29933,0.12631 -0.62174,0.24261 -1.05467,0.53124 -1.18264,0.78846 -0.88749,0.75808 -1.71286,1.0332 -0.82536,0.27511 -3.13538,0.67057 -5.46867,1.0039 a 3.9999453,3.9999761 0 0 0 -3.39643,4.52535 3.9999453,3.9999761 0 0 0 4.52532,3.39646 c 2.33329,-0.33332 4.69054,-0.61106 6.86513,-1.33592 0.32756,-0.10919 0.24646,-0.16597 0.54491,-0.29689 -0.39927,1.98499 -0.69624,3.8005 -1.41599,5.83981 -0.86344,2.44644 -2.59807,5.9146 -3.73627,9.89836 -1.13821,3.98375 -1.47524,7.90164 -1.80857,11.56826 a 3.9999453,3.9999761 0 0 0 3.62494,4.34763 3.9999453,3.9999761 0 0 0 4.34759,-3.62497 c 0.33332,-3.66664 0.66752,-7.07358 1.52928,-10.08977 0.86176,-3.01618 2.44936,-6.21531 3.58588,-9.43547 1.13653,-3.22018 1.51665,-5.83886 1.97849,-7.99408 0.006,-0.0295 0.0132,-0.0604 0.0196,-0.0898 a 3.9999453,3.9999761 0 0 0 1.95896,2.74802 3.9999453,3.9999761 0 0 0 2.9394,0.33203 v 3.99997 23.1717 a 3.9999453,3.9999761 0 0 0 1.3867,2.99607 h -28.38238 z m -46.46413,6.73627 c -0.46911,-0.0102 -0.89341,0.0506 -1.23045,0.1367 -1.34817,0.34454 -1.86551,0.85024 -2.47262,1.33593 -2.42845,1.94278 -5.4576,5.43681 -8.79088,9.10345 a 3.9999453,3.9999761 0 0 0 0.26562,5.64643 3.9999453,3.9999761 0 0 0 5.65421,-0.26562 c 1.28472,-1.4132 1.83255,-1.89682 3.03316,-3.1738 v 3.48435 c 0,4.33329 -0.003,9.65552 -0.16211,13.14639 -0.15866,3.49086 -0.44986,5.18942 -0.78319,7.18939 a 3.9999453,3.9999761 0 0 0 3.29292,4.60739 3.9999453,3.9999761 0 0 0 4.59954,-3.29294 c 0.33331,-1.99998 0.7101,-4.30012 0.88475,-8.14251 0.17465,-3.8424 0.16993,-9.17443 0.16993,-13.50772 v -9.83391 c 0,-0.54167 0.005,-1.06367 -0.037,-1.66795 -0.0417,-0.60428 0.0419,-1.29205 -0.72265,-2.59178 -0.38227,-0.64987 -1.16361,-1.47905 -2.19918,-1.88085 -0.51779,-0.20092 -1.03282,-0.28289 -1.50193,-0.29295 z m -130.123015,0.26173 c -0.23633,0.007 -0.522345,0.0306 -0.886705,0.0898 -0.728716,0.11863 -1.911169,0.55378 -2.730426,1.37303 -1.638513,1.63852 -1.564723,2.95125 -1.757786,4.30271 -0.386123,2.70289 -0.7441,7.09801 -0.523429,10.18742 0.110334,1.54471 0.369269,2.99158 1.447243,4.31833 0.954617,1.17493 2.038348,1.58669 2.187467,1.62108 -0.04267,0.0429 0.646319,0.64444 2.064421,1.3535 0.810344,0.40518 2.820029,0.88704 4.451104,0.1621 0.460427,-0.20462 0.538526,-0.58788 0.878894,-0.84765 0.05185,2.33511 0.252544,5.0182 0.01361,6.45113 -0.39731,2.38385 -1.089217,3.33661 -1.349589,3.66208 -0.130165,0.16271 -0.0072,0.0391 -0.09766,0.10938 -0.09033,0.0703 -0.959135,0.64485 -1.51951,1.76562 -0.232929,0.46589 -0.153786,0.48084 -0.222648,0.74412 -0.156017,0.11074 -0.201068,0.11747 -0.369141,0.25194 -1.239617,0.99171 -2.488899,2.29752 -3.822208,3.63084 a 3.9999453,3.9999761 0 0 0 0,5.65621 3.9999453,3.9999761 0 0 0 5.654212,0 c 1.33331,-1.33332 2.738948,-2.70133 3.165967,-3.04295 0.213503,-0.1708 0.204885,-0.15111 0.480462,-0.31642 0.275599,-0.16535 1.373202,-0.89482 1.933562,-2.0156 0.328247,-0.65655 0.265054,-0.77036 0.310559,-1.05468 0.261917,-0.24922 0.463113,-0.38847 0.73827,-0.73243 1.07292,-1.34118 2.38751,-3.7276 2.990188,-7.34369 0.602679,-3.61609 0.560458,-8.15342 0.02948,-12.93349 -0.531117,-4.78008 -1.526101,-9.39155 -1.935516,-11.02922 -0.05117,-0.20469 -0.07139,-0.33686 -0.199215,-0.70117 -0.05873,-0.16736 -0.08587,-0.40238 -0.582024,-1.08397 a 3.9999453,3.9999761 0 0 0 0.236331,-0.57617 3.9999453,3.9999761 0 0 0 -4.001893,-3.99997 h -5.994051 c -0.166674,0 -0.353493,-0.009 -0.589835,-0.002 z m 144.195065,3.13279 c -0.75587,0.003 -1.48691,0.14793 -2.02927,0.39648 -1.0847,0.49716 -1.65473,1.12033 -2.11911,1.66209 -0.92874,1.08355 -1.44627,2.1011 -1.97067,3.06248 -1.04878,1.92279 -2.40377,4.79863 -2.96089,9.44134 -0.55712,4.6427 -0.53124,10.97518 -0.53124,14.80848 0,3.83329 -0.18191,4.91474 0.28905,6.79877 0.2355,0.94209 1.33198,2.52146 2.16989,3.05467 0.83791,0.53321 1.08284,0.55411 1.42381,0.7246 0.34098,0.17049 1.20476,0.68183 2.42965,1.07812 1.22489,0.39629 3.16599,0.74509 5.14445,-0.24415 1.97847,-0.98924 2.7152,-2.32142 3.36714,-3.38084 0.65194,-1.05941 1.12944,-2.05074 1.32029,-2.38475 0.38167,-0.66793 1.47547,-2.45563 1.83786,-5.89839 0.36238,-3.44273 0.7072,-9.62133 0.51757,-13.60341 -0.0948,-1.99103 -0.33497,-3.39705 -0.73827,-4.57028 -0.28879,-0.84011 -0.75116,-1.59733 -0.97264,-1.93553 -0.0686,-0.2233 -0.22167,-0.76456 -0.49023,-1.5703 -0.27809,-0.83431 -0.68391,-1.99007 -1.24607,-3.16794 -0.56216,-1.17788 -0.69655,-2.53284 -3.26362,-3.81638 -0.64177,-0.32088 -1.42183,-0.45838 -2.1777,-0.45507 z m 45.82742,1.57811 c -0.32666,0.38128 -0.89327,0.79438 -0.99803,1.00391 -0.22151,0.44301 -0.2912,0.15053 0.56835,-0.70899 0.34983,-0.34983 0.23913,-0.18606 0.42968,-0.29492 z M 41.90204,169.0028 h 0.52343 c -0.02797,0.5775 -0.05034,1.17357 -0.191392,1.92577 -0.08394,0.44774 -0.361696,0.88078 -0.525384,1.42382 0.0723,-1.32084 0.08319,-2.31057 0.193357,-3.34959 z m 27.120681,3.75583 c 0.02948,0.0238 0.072,0.0577 0.101555,0.082 0.513089,0.42255 0.922319,0.86615 1.130844,1.28319 0.417045,0.83411 0.347106,3.34357 -0.228507,4.07614 -0.44727,0.56927 -2.354621,1.23117 -3.816347,1.70508 -0.05877,-0.99576 -0.121774,-2.30955 -0.08201,-2.91015 0.07646,-0.13961 0.16195,-0.2985 0.28123,-0.5371 0.560303,-1.12068 0.427991,-1.17227 0.449213,-1.23241 0.02116,-0.0601 0.02116,-0.10832 0.228507,-0.39843 0.214334,-0.30005 1.226483,-1.31592 1.935519,-2.06835 z m 114.482629,3.55857 c 0.1559,0.37164 0.26943,0.72153 0.50194,1.07031 0.16429,0.24642 0.17737,0.25436 0.18361,0.25587 -0.006,-0.003 -0.008,0.001 0.002,0.0314 0.055,0.1601 0.23871,0.83871 0.31056,2.34764 0.14369,3.01786 -0.1762,9.50389 -0.48046,12.39443 -0.30425,2.89053 0.12548,1.10219 -0.82616,2.76756 -0.44836,0.78463 -0.79346,1.47747 -1.12303,2.03124 -0.0136,-0.006 -0.0231,-0.0166 -0.037,-0.0234 0.009,-0.36781 -0.037,-0.78098 -0.037,-3.68942 0,-3.8333 0.0299,-10.16482 0.47265,-13.85537 0.22465,-1.87223 0.69064,-2.36215 1.03319,-3.33005 z m -66.61227,2.30272 c 1.10565,0.76479 3.58144,3.42945 4.22845,6.01753 0.67027,2.68109 -0.0728,6.87455 -0.89256,9.1972 -0.81976,2.32264 -1.13155,2.40004 -2.13278,3.60153 -0.86694,1.04034 -1.18641,1.3519 -1.19139,1.38866 0.0132,-0.0242 -0.83271,0.12011 -1.75388,-0.15624 -0.96366,-0.28909 -2.49482,-1.20057 -2.82026,-1.46093 -0.16271,-0.13016 -0.0208,-0.0208 0.082,0.13281 0.0439,0.0659 -0.29639,-0.34075 -0.32617,-0.42772 0.048,0.0253 -0.0475,-0.57938 0.21482,-2.54686 0.30871,-2.31529 0.96848,-5.98302 1.45506,-8.41596 0.48658,-2.43293 0.73004,-3.30578 1.15819,-4.16207 0.4203,-0.84062 1.24631,-1.95736 1.97848,-3.16794 z m 134.10538,4.37106 c 0.002,0.002 0.004,0.004 0.006,0.006 0.87853,0.87853 1.42333,1.10698 2.04489,1.48436 0.62156,0.37738 1.2622,0.75749 1.89841,1.18163 0.92883,0.61923 2.16875,1.57493 3.75384,2.57615 l -3.53314,11.59757 a 3.9999453,3.9999761 0 0 0 2.66402,4.9902 3.9999453,3.9999761 0 0 0 4.99016,-2.65818 l 3.16987,-10.41008 c 0.87265,0.33879 1.74441,0.66807 2.60348,0.99023 a 3.9999453,3.9999761 0 0 0 1.40232,0.22068 v 15.02918 h -20.35107 a 3.9999453,3.9999761 0 0 0 1.35155,-2.99625 z m -220.99663,33.0095 h 53.997224 v 53.99764 h -2.412073 a 3.9999453,3.9999761 0 0 0 1.415993,-2.99411 v -28.50174 -9.83391 -2.1699 c 0,-0.0208 -0.02872,-0.49642 -0.02948,-0.50196 -8.4e-5,-6.9e-4 -0.07412,-0.41164 -0.07423,-0.4121 -1.06e-4,-4.6e-4 -0.413932,-1.0857 -0.414056,-1.08593 l -0.242189,-0.37696 -0.384761,-0.46485 -2.857378,2.79881 -2.611289,-3.02732 -0.230471,0.21482 c -1.86e-4,2.4e-4 -0.788837,1.12844 -0.789051,1.1289 -2.17e-4,4.6e-4 -0.132547,0.33135 -0.132812,0.33203 -4.98e-4,10e-4 -0.0734,0.21499 -0.08787,0.26563 -0.115803,0.40526 -0.0438,0.15662 -0.03704,0.13281 0.01361,-0.0477 0.02419,-0.0498 -0.02343,0.0449 -0.09483,0.18965 -0.964453,1.42854 -1.550756,3.18747 -0.264562,0.7937 -0.445346,1.43053 -0.544916,1.85546 -0.201483,0.22824 -0.525584,0.66045 -0.990218,1.35741 -1.243578,1.86538 -1.005573,3.00057 -1.091779,3.43161 -0.08621,0.43104 -0.375678,1.35546 -0.708975,2.35545 a 3.9999453,3.9999761 0 0 0 2.533164,5.06247 3.9999453,3.9999761 0 0 0 2.265592,-0.16211 v 24.36896 a 3.9999453,3.9999761 0 0 0 1.41404,2.99412 H 30.00183 v -22.13456 a 3.9999453,3.9999761 0 0 0 2.126921,-1.36718 c 1.333312,-1.66665 2.746873,-3.3758 3.203077,-3.832 0.08913,-0.0891 0.116794,-0.11263 0.142576,-0.1367 0.02672,0.034 0.309036,0.009 1.185529,-0.86719 0.931721,-0.93171 1.049595,-1.55021 1.09178,-1.73436 0.07485,-0.10964 0.16643,-0.24604 0.17773,-0.25779 0.02494,1.22027 0.07423,1.5404 0.07423,4.16402 v 20.16586 a 3.9999453,3.9999761 0 0 0 4.001893,4.00193 3.9999453,3.9999761 0 0 0 3.992129,-4.00193 v -20.16586 c 0,-0.52215 -4.61e-4,-0.89601 0,-1.35545 -0.0033,3.09183 0.0189,7.6616 0.738267,11.43741 0.80641,4.23366 2.761995,6.89147 3.372996,7.86908 0.610996,0.9776 1.543327,3.01781 3.839787,4.54879 1.148225,0.76549 2.634846,1.5329 4.634696,1.76367 1.999846,0.23073 4.739293,-0.43568 6.533102,-2.39257 1.793804,-1.95689 2.495259,-4.20862 3.093704,-6.74604 0.598442,-2.53742 0.938832,-5.38813 1.115216,-8.38666 0.352776,-5.99708 0.05435,-12.3518 -0.732411,-16.4823 -0.393372,-2.06524 -0.935688,-3.59837 -1.667941,-4.8066 -0.732254,-1.20822 -1.666014,-2.01368 -1.763645,-2.11131 -0.09762,-0.0976 -0.326698,-0.43213 -0.982409,-1.04101 -0.655708,-0.60887 -1.907416,-1.35859 -3.189404,-1.57225 -2.563974,-0.42733 -4.390614,0.21074 -6.443261,1.12304 -2.052652,0.9123 -4.068092,2.33402 -5.441322,4.53121 -1.345904,2.15346 -1.766997,4.30963 -1.777318,4.37888 -0.202806,0.17684 -0.365323,0.20519 -0.73827,0.95116 -0.363963,0.72795 -0.544327,1.27361 -0.634755,1.7871 -0.02797,-0.80048 -0.06833,-1.51577 -0.148419,-2.15624 -0.227714,-1.82182 -0.588437,-2.60152 -0.679678,-3.24021 -0.09124,-0.63869 -0.124987,-2.26691 -0.124987,-3.43357 0,-0.29166 0.0049,-0.59166 -0.02154,-1.00976 -0.02646,-0.41808 0.375945,-0.81817 -0.828112,-2.50389 -0.601771,-0.84247 -2.488581,-1.87114 -3.890564,-1.68162 -1.400664,0.19098 -1.941113,0.76234 -2.302699,1.09179 -0.723528,0.65921 -0.891942,1.024 -1.17967,1.48436 -1.150921,1.84148 -2.708862,5.0082 -3.736271,6.76948 -1.027411,1.76129 -1.24863,1.78412 -2.037079,2.96678 -0.147543,0.22129 -0.167702,0.33267 -0.273433,0.53906 -0.244985,0.18186 -0.480358,0.34249 -0.730457,0.55272 z m 61.999054,0 h 53.999176 v 31.87672 22.12092 H 92.000884 v -34.56029 a 3.9999453,3.9999761 0 0 0 3.787052,0.14065 c 2.699305,-1.34966 4.992604,-2.54155 6.968644,-3.63083 0.0684,1.35836 0.17907,1.85924 0.082,4.57613 -0.16448,4.60551 -0.5028,10.95272 -0.8203,14.4452 -0.18119,1.99309 -0.36699,2.89499 -0.4414,3.2617 -0.32337,0.30836 -0.70723,0.75041 -0.99022,1.31639 -0.53196,1.06394 -0.48563,1.47428 -0.51562,1.7285 0.023,-0.0622 0.0507,-0.13451 0.18361,-0.40038 0.14286,-0.28573 0.28123,-0.4828 0.39648,-0.63086 -0.17779,0.20402 -0.34892,0.67455 -0.5664,1.02148 -0.006,0.0189 -0.008,0.011 -0.0155,0.0272 -3.6e-4,0.003 4e-4,0.007 0,0.01 -0.007,0.0117 -0.0144,0.0215 -0.0215,0.0333 0.007,-0.0106 0.0102,-0.0178 0.0215,-0.043 6.7e-4,-0.005 10e-4,-0.0125 0.002,-0.0174 -0.004,0.0117 -0.0314,0.0696 -0.0333,0.0762 -0.292264,0.46037 -0.622416,0.83736 -0.749984,1.34764 -0.471009,1.88409 -0.326546,2.87537 -0.398432,3.30662 -0.07188,0.43125 -0.133453,0.53645 -0.466791,1.20312 a 3.9999453,3.9999761 0 0 0 1.787077,5.36715 3.9999453,3.9999761 0 0 0 5.36711,-1.7871 c 0.33331,-0.66666 0.94166,-1.89415 1.20311,-3.46287 0.22839,-1.37028 0.28871,-2.37052 0.2285,-2.34763 0.19593,-0.23856 0.19812,-0.10715 0.40625,-0.52343 0.3561,-0.71225 0.30175,-0.85998 0.33985,-1.14453 0.22828,-0.2316 0.37845,-0.29325 0.57616,-0.58984 1.01598,-1.52403 1.30316,-3.18652 1.65232,-7.02729 0.34915,-3.84077 0.68075,-10.15498 0.84959,-14.8827 0.16883,-4.72772 0.4669,-7.56018 -0.53905,-10.57805 -0.50294,-1.50893 -1.6605,-3.00665 -3.16597,-3.67574 -1.50546,-0.66911 -2.88164,-0.52186 -3.89056,-0.18555 -1.00897,0.33635 -1.77823,1.02376 -1.96482,1.18164 -0.18659,0.15786 -0.33093,0.28838 -0.99608,0.6875 -1.330378,0.79822 -4.727143,2.51886 -8.06042,4.18551 a 3.9999453,3.9999761 0 0 0 -0.214825,0.15235 z m 53.999176,31.87672 a 3.9999453,3.9999761 0 0 0 -3.08589,-3.77341 c -0.77592,-0.18255 -1.52308,-0.36639 -2.28317,-0.55077 0.10344,-0.62936 0.20666,-1.25758 0.31249,-1.89258 a 3.9999453,3.9999761 0 0 0 -3.28511,-4.60542 3.9999453,3.9999761 0 0 0 -4.60735,3.28513 c -0.0655,0.39326 -0.12986,0.78901 -0.19532,1.18358 -1.10195,-0.32296 -2.02528,-0.61857 -2.63863,-0.85937 0.25908,-1.03743 0.43451,-1.96542 1.1367,-3.2695 0.91148,-1.69276 2.84957,-4.32354 4.84953,-6.99018 a 3.9999453,3.9999761 0 0 0 -0.80467,-5.60348 3.9999453,3.9999761 0 0 0 -2.96675,-0.75976 3.9999453,3.9999761 0 0 0 -2.62887,1.55663 c -1.39454,1.8594 -2.81782,3.73293 -4.03705,5.59175 -0.0935,-0.69752 -0.24147,-1.42433 -0.75389,-2.35154 -0.62387,-1.12893 -2.55269,-2.50194 -4.17767,-2.50194 -1.62498,0 -2.43924,0.54362 -3.16011,0.98242 -0.72088,0.4388 -1.32007,0.92028 -1.92575,1.43944 -1.21137,1.03833 -2.40556,2.25129 -3.57221,3.41795 a 3.9999453,3.9999761 0 0 0 0,5.65424 3.9999453,3.9999761 0 0 0 5.65421,0 c 0.0632,-0.0632 0.107,-0.0992 0.16992,-0.1621 0,4.99996 -4.5e-4,12.67351 -0.1621,17.36121 -0.16165,4.68768 -0.44986,6.31244 -0.78319,8.31243 a 3.9999453,3.9999761 0 0 0 3.28511,4.60543 3.9999453,3.9999761 0 0 0 4.60539,-3.29099 c 0.33332,-1.99998 0.71502,-4.37456 0.88671,-9.35344 0.0754,-2.18518 0.11342,-4.90608 0.1367,-7.67182 0.14355,0.0683 0.28709,0.13792 0.43164,0.20118 1.45966,0.6386 3.25613,1.21164 5.24601,1.75975 -0.11172,0.91239 -0.21161,1.81803 -0.29294,2.71288 -0.35312,3.8843 -0.35354,7.36388 -0.35354,10.69718 a 3.9999453,3.9999761 0 0 0 3.99994,4.00193 3.9999453,3.9999761 0 0 0 4.00189,-4.00193 c 0,-3.3333 0.003,-6.52363 0.31642,-9.97258 0.0449,-0.49386 0.0987,-0.9997 0.15624,-1.5117 0.53881,0.12555 1.06342,0.24699 1.6074,0.375 a 3.9999453,3.9999761 0 0 0 4.81438,-2.97459 3.9999453,3.9999761 0 0 0 0.10352,-1.04101 z m 8.00183,-31.87672 h 53.99722 v 53.99764 h -53.99722 v -33.35326 a 3.9999453,3.9999761 0 0 0 0.78124,0.68359 3.9999453,3.9999761 0 0 0 3.94134,-0.0295 c 0.57208,6.11325 0.98632,15.74403 1.27733,26.80254 a 3.9999453,3.9999761 0 0 0 4.1054,3.8984 3.9999453,3.9999761 0 0 0 3.88862,-4.10544 c -0.0639,-2.42745 -0.1268,-4.81129 -0.1914,-7.18354 0.21698,0.61516 0.46813,1.09592 0.41406,0.98437 0.0702,0.28872 0.15277,1.00232 1.12108,1.97069 0.28633,0.28633 0.17952,0.11024 0.38476,0.25779 0.0498,0.33752 -0.0159,0.77312 1.11522,1.90429 1.60945,1.60947 2.93429,2.11776 3.15815,2.29686 0.22386,0.17911 0.44912,1.06829 2.54684,2.11716 1.04886,0.52445 2.5947,0.78101 4.00775,0.42773 1.41305,-0.35326 2.59107,-1.1575 3.61127,-2.17771 2.04041,-2.04042 3.56577,-4.70398 4.67962,-6.74604 1.11384,-2.04207 1.80451,-4.25532 1.98629,-7.34565 0.1818,-3.09033 0.21392,-7.94064 -0.74608,-12.54874 -0.96001,-4.60808 -2.28701,-8.62862 -6.10537,-11.0585 -1.90918,-1.21494 -4.24051,-1.31631 -5.90421,-0.90039 -1.6637,0.41593 -2.8742,1.16551 -3.79486,1.77928 -1.84133,1.22756 -3.26537,2.59929 -4.27338,4.11131 -0.882,1.32301 -1.51244,2.64347 -1.42185,2.60154 -0.19136,0.26755 -0.61016,0.9184 -0.85936,1.666 -0.36268,1.08802 -0.46316,2.08104 -0.55468,3.72849 -0.004,0.0747 -0.008,0.16682 -0.0117,0.24415 -0.18451,-3.03821 -0.40618,-5.71435 -0.69725,-7.7519 -0.23172,-1.62198 -0.50088,-2.87207 -0.89257,-3.97848 -0.39168,-1.10641 -0.82692,-2.2114 -2.20699,-3.20506 -1.38007,-0.99364 -3.79607,-0.93636 -4.92375,-0.35349 -1.1277,0.58286 -1.56728,1.19006 -1.89646,1.60155 -1.31673,1.64592 -1.52774,3.1934 -1.58787,3.34372 -0.0486,0.12147 -0.45773,0.80686 -0.95116,1.57812 z m 61.99905,0 h 53.99723 v 30.00174 c -1.96158,0 -3.89954,-0.0151 -5.6757,-0.0449 0.0984,-0.27112 0.19529,-0.53309 0.30274,-0.85547 0.61242,-1.8373 0.96548,-3.64972 1.29881,-5.31636 a 3.9999453,3.9999761 0 0 0 -3.13863,-4.70896 3.9999453,3.9999761 0 0 0 -4.23821,1.94921 c 0.12158,-2.99609 0.28259,-6.41495 0.4453,-9.83196 a 3.9999453,3.9999761 0 0 0 -3.80267,-4.18552 3.9999453,3.9999761 0 0 0 -4.18549,3.80076 c -0.33331,6.99993 -0.67185,13.94126 -0.67186,17.69517 -1e-5,1.87698 0.0242,2.90143 0.33985,4.11131 0.31562,1.20987 1.80278,2.85161 1.49802,2.54685 -0.30473,-0.30475 0.56227,0.70968 1.61716,1.31249 0.30629,0.17503 0.62831,0.32621 0.96679,0.46093 -0.2951,2.9548 -0.51534,6.36891 -0.74413,9.8007 a 3.9999453,3.9999761 0 0 0 3.71869,4.25193 3.9999453,3.9999761 0 0 0 4.2597,-3.72067 c 0.22125,-3.31884 0.45369,-6.62692 0.71288,-9.30462 2.26275,0.0539 4.75825,0.041 7.29677,0.041 v 15.99402 h -42.9603 a 3.9999453,3.9999761 0 0 0 3.96283,-3.99802 c 0,-8.99991 0.003,-17.96828 -0.16993,-22.97249 -0.0219,-0.63655 -0.05,-1.21693 -0.082,-1.74998 a 3.9999453,3.9999761 0 0 0 0.27344,0.39843 3.9999453,3.9999761 0 0 0 5.65421,0.29491 c 1.42592,-1.28333 2.69855,-2.36356 3.79487,-3.2031 0.21354,1.43076 0.39722,3.21494 0.53905,5.48434 0.33138,5.30221 0.66275,11.62753 0.99608,17.9608 a 3.9999453,3.9999761 0 0 0 4.20111,3.77927 3.9999453,3.9999761 0 0 0 3.78509,-4.20114 c -0.33331,-6.33327 -0.66862,-12.67653 -1.00388,-18.04088 -0.16762,-2.68217 -0.31797,-5.17912 -0.75195,-7.42573 -0.21702,-1.1233 -0.4839,-2.1946 -1.04881,-3.31442 -0.56491,-1.11983 -1.59255,-2.47257 -3.32221,-3.10154 -1.72966,-0.62897 -3.27322,-0.27821 -4.40619,0.14842 -1.13296,0.42664 -2.05275,0.99681 -2.95308,1.63085 -1.80064,1.26807 -3.51492,2.84177 -5.18156,4.34176 a 3.9999453,3.9999761 0 0 0 -0.98241,1.42968 c -0.17094,-1.00031 -0.34631,-1.6216 -0.46483,-2.0957 -0.12862,-0.51447 -0.29238,-1.33522 -0.47265,-2.14646 -0.18028,-0.81124 -0.18247,-1.38642 -0.82616,-2.6738 -0.32186,-0.6437 -0.95722,-1.77851 -2.63473,-2.30272 -1.67751,-0.52423 -3.25032,0.24098 -3.84564,0.68749 -1.03765,0.77825 -0.98877,0.91449 -0.81249,0.78906 -0.31075,0.17091 -0.65157,0.32738 -1.11521,0.79101 -0.63804,0.63806 -0.83724,1.02538 -1.0039,1.27538 -0.004,0.005 -0.004,0.005 -0.008,0.01 -0.0574,0.0453 -0.0449,0.0363 -0.13867,0.10938 -0.51134,0.3977 -1.1654,1.12203 -1.61716,1.87498 -0.57019,0.95033 -0.996,1.92886 -1.40233,2.93747 z m -15.60327,6.67574 c -1.29771,0.0295 -1.87774,0.71152 -2.24606,0.98045 -0.4911,0.35861 -0.78551,0.66052 -1.14452,1.01953 -1.436,1.43602 -3.68223,4.02081 -6.01553,6.68745 a 3.9999453,3.9999761 0 0 0 0.375,5.64645 3.9999453,3.9999761 0 0 0 5.63273,-0.37501 v 4.86325 20.49984 a 3.9999453,3.9999761 0 0 0 4.00189,4.00193 3.9999453,3.9999761 0 0 0 3.99994,-4.00193 v -20.49984 -9.83195 -4.16404 c 0,-0.20833 0.0287,-0.44694 -0.0586,-1.0703 -0.0436,-0.3117 -0.0927,-0.74522 -0.45117,-1.43945 -0.35848,-0.69422 -1.31732,-1.73877 -2.53902,-2.08787 -0.61086,-0.17453 -1.12209,-0.23837 -1.55467,-0.2285 z m -141.126753,9.89055 c 0.117617,0.12585 0.06062,0.0821 0.23633,0.25779 0.569022,0.56904 0.475102,0.43871 0.576162,0.60547 0.101063,0.16675 0.382962,0.7137 0.65624,2.14842 0.546557,2.86944 0.919349,9.18328 0.60546,14.51943 -0.156961,2.66807 -0.480605,5.15003 -0.923812,7.02923 -0.411169,1.74337 -0.990176,2.74609 -1.113266,2.94529 -0.243813,-0.0699 -0.632467,-0.20617 -0.923812,-0.40038 -0.703495,-0.469 -0.434575,-0.43595 -1.490215,-2.12499 -1.055632,-1.68903 -1.769933,-2.36455 -2.296837,-5.13081 -0.526903,-2.76627 -0.597647,-8.08003 -0.597647,-11.08 0,-1.44469 0.116861,-2.33891 0.15235,-2.72459 0.21354,-0.28864 0.417802,-0.59236 0.564445,-0.95898 0.674798,-1.68705 0.888217,-2.72583 1.181625,-3.19528 0.2934,-0.46945 0.949157,-1.04967 1.896455,-1.47069 0.74273,-0.33011 1.315173,-0.3518 1.476541,-0.41993 z m 120.513783,1.20311 c 0.0102,0.10874 1.78754,2.45255 2.46676,5.71285 0.70663,3.39184 0.74138,7.86896 0.58983,10.44524 -0.15155,2.57628 -0.13145,2.36173 -1.01756,3.98629 -0.73064,1.33952 -1.93615,3.03136 -2.74019,4.06052 -0.10129,-0.0821 0.0261,-0.005 -0.0879,-0.0957 -0.94158,-0.75327 -1.79049,-1.33094 -2.22262,-1.58984 -0.0934,-0.19728 -0.16906,-0.35761 -0.36132,-0.74217 -0.21222,-0.42445 -0.49931,-0.48572 -0.80468,-0.79688 -0.0672,-0.19982 -0.0515,-0.24362 -0.19921,-0.53905 -0.0185,-0.037 -0.017,-0.0306 -0.0314,-0.0586 -0.0359,-0.16539 -0.14593,-0.81037 -0.21876,-2.19335 -0.15273,-2.90181 -0.15027,-9.03315 0,-11.73819 0.0414,-0.74538 0.10107,-1.21019 0.13867,-1.46288 0.0147,-0.0219 0.0128,-0.0181 0.0295,-0.043 1.01599,-1.52403 1.01257,-2.00617 1.33787,-2.49413 0.3253,-0.48796 0.89213,-1.11818 2.05075,-1.8906 0.47755,-0.3184 0.83067,-0.46773 1.0703,-0.56055 z m 42.83724,7.7519 c 0.0526,0.69056 0.16697,0.39724 0.21482,1.78515 0.16078,4.66236 0.1621,13.69327 0.1621,22.69318 a 3.9999453,3.9999761 0 0 0 3.98432,3.99801 h -10.98225 v -27.38455 a 3.9999453,3.9999761 0 0 0 1.51364,1.0996 3.9999453,3.9999761 0 0 0 5.10735,-2.19139 z m -48.53246,11.7753 c 0.053,-0.001 0.36706,0.16977 0.90428,0.70703 0.22495,0.22495 0.0997,0.18247 0.22264,0.36131 -0.34967,-0.28856 -0.73561,-0.82485 -0.92967,-0.92187 -0.16615,-0.0831 -0.22904,-0.14581 -0.19725,-0.14649 z m -73.23912,2.72068 c -0.011,0.0185 -0.0678,0.0844 -0.16407,0.18164 0.1028,-0.12692 0.18066,-0.20931 0.16407,-0.18164 z" />
  </g>
</svg>
