<?xml version="1.0" encoding="UTF-8" standalone="no"?>
<!-- Created with Inkscape (http://www.inkscape.org/) -->

<svg
   width="300"
   height="300"
   viewBox="0 0 300 300"
   version="1.1"
   id="svg1"
   inkscape:version="1.3.2 (091e20e, 2023-11-25, custom)"
   sodipodi:docname="bsod.svg"
   xmlns:inkscape="http://www.inkscape.org/namespaces/inkscape"
   xmlns:sodipodi="http://sodipodi.sourceforge.net/DTD/sodipodi-0.dtd"
   xmlns="http://www.w3.org/2000/svg"
   xmlns:svg="http://www.w3.org/2000/svg">
  <sodipodi:namedview
     id="namedview1"
     pagecolor="#ffffff"
     bordercolor="#000000"
     borderopacity="0.25"
     inkscape:showpageshadow="2"
     inkscape:pageopacity="0.0"
     inkscape:pagecheckerboard="0"
     inkscape:deskcolor="#d1d1d1"
     inkscape:document-units="px"
     inkscape:zoom="1"
     inkscape:cx="150"
     inkscape:cy="150.5"
     inkscape:window-width="1366"
     inkscape:window-height="705"
     inkscape:window-x="-8"
     inkscape:window-y="-8"
     inkscape:window-maximized="1"
     inkscape:current-layer="layer1" />
  <defs
     id="defs1">
    <inkscape:path-effect
       effect="bspline"
       id="path-effect11"
       is_visible="true"
       lpeversion="1.3"
       weight="33.333333"
       steps="2"
       helper_size="0"
       apply_no_weight="true"
       apply_with_weight="true"
       only_selected="false"
       uniform="false" />
    <inkscape:path-effect
       effect="bspline"
       id="path-effect10"
       is_visible="true"
       lpeversion="1.3"
       weight="33.333333"
       steps="2"
       helper_size="0"
       apply_no_weight="true"
       apply_with_weight="true"
       only_selected="false"
       uniform="false" />
    <inkscape:path-effect
       effect="bspline"
       id="path-effect9"
       is_visible="true"
       lpeversion="1.3"
       weight="33.333333"
       steps="2"
       helper_size="0"
       apply_no_weight="true"
       apply_with_weight="true"
       only_selected="false"
       uniform="false" />
    <inkscape:path-effect
       effect="bspline"
       id="path-effect8"
       is_visible="true"
       lpeversion="1.3"
       weight="33.333333"
       steps="2"
       helper_size="0"
       apply_no_weight="true"
       apply_with_weight="true"
       only_selected="false"
       uniform="false" />
    <inkscape:path-effect
       effect="bspline"
       id="path-effect7"
       is_visible="true"
       lpeversion="1.3"
       weight="33.333333"
       steps="2"
       helper_size="0"
       apply_no_weight="true"
       apply_with_weight="true"
       only_selected="false"
       uniform="false" />
    <inkscape:path-effect
       effect="bspline"
       id="path-effect6"
       is_visible="true"
       lpeversion="1.3"
       weight="33.333333"
       steps="2"
       helper_size="0"
       apply_no_weight="true"
       apply_with_weight="true"
       only_selected="false"
       uniform="false" />
    <inkscape:path-effect
       effect="bspline"
       id="path-effect5"
       is_visible="true"
       lpeversion="1.3"
       weight="33.333333"
       steps="2"
       helper_size="0"
       apply_no_weight="true"
       apply_with_weight="true"
       only_selected="false"
       uniform="false" />
    <inkscape:path-effect
       effect="bspline"
       id="path-effect4"
       is_visible="true"
       lpeversion="1.3"
       weight="33.333333"
       steps="2"
       helper_size="0"
       apply_no_weight="true"
       apply_with_weight="true"
       only_selected="false"
       uniform="false" />
    <inkscape:path-effect
       effect="bspline"
       id="path-effect3"
       is_visible="true"
       lpeversion="1.3"
       weight="33.333333"
       steps="2"
       helper_size="0"
       apply_no_weight="true"
       apply_with_weight="true"
       only_selected="false"
       uniform="false" />
    <inkscape:path-effect
       effect="bspline"
       id="path-effect2"
       is_visible="true"
       lpeversion="1.3"
       weight="33.333333"
       steps="2"
       helper_size="0"
       apply_no_weight="true"
       apply_with_weight="true"
       only_selected="false"
       uniform="false" />
    <inkscape:path-effect
       effect="bspline"
       id="path-effect1"
       is_visible="true"
       lpeversion="1.3"
       weight="33.333333"
       steps="2"
       helper_size="0"
       apply_no_weight="true"
       apply_with_weight="true"
       only_selected="false"
       uniform="false" />
  </defs>
  <g
     inkscape:label="Layer 1"
     inkscape:groupmode="layer"
     id="layer1">
    <path
       id="path6"
       style="color:#000000;fill:#000000;stroke-linecap:round;stroke-linejoin:round;-inkscape-stroke:none"
       d="M 130.63908 90.042554 C 124.14479 90.042693 117.30216 90.083813 111.60783 90.167554 C 100.21917 90.335033 93.463731 90.67212 89.660565 90.837475 C 85.857399 91.00283 84.02699 91.08114 81.848065 91.95271 C 79.66914 92.82428 77.307439 94.1893 76.209393 94.677319 C 75.660369 94.92133 75.280466 95.026796 74.568768 95.317944 C 73.85707 95.609094 72.800056 96.211656 72.006268 97.005444 C 70.418693 98.59302 69.469756 100.34209 69.209393 100.66755 C 69.079213 100.83027 68.322097 101.57572 67.838299 102.81208 C 67.3545 104.04845 67.263809 105.12947 67.172283 106.77693 C 66.989233 110.07186 66.984176 116.01146 66.682049 119.48591 C 66.379921 122.96037 65.721666 124.57093 65.351971 128.45271 C 64.982277 132.33451 64.994276 137.60289 64.678143 141.87068 C 64.36201 146.13847 63.698514 149.81067 63.184002 155.47029 C 62.669491 161.12991 62.336652 168.48814 62.168377 173.70466 C 62.000102 178.92119 61.973301 182.07534 61.853924 183.26912 C 61.734547 184.46288 61.680501 183.78312 61.285565 185.36287 C 60.890632 186.9426 60.988185 187.48182 60.820721 188.06794 C 60.653259 188.65406 59.795395 190.5832 59.226971 193.80427 C 58.658547 197.02534 58.322852 201.29951 57.752361 204.00935 C 57.181871 206.71918 56.302951 208.35381 55.641033 210.78083 C 54.979117 213.20786 55.000911 214.87046 54.601971 216.59919 C 54.203031 218.32793 53.254596 220.92849 52.574627 222.79841 C 51.894657 224.66833 51.493221 225.45383 51.633221 225.26716 C 51.773225 225.08049 51.249878 225.08142 50.006268 226.94685 C 48.762677 228.81224 49.086497 229.08267 49.070721 229.10896 C 49.054951 229.13526 47.908452 230.44205 46.557049 232.37263 C 45.205645 234.3032 43.784641 236.75127 43.244549 237.5074 C 42.974502 237.88547 42.963633 237.87195 42.908611 237.92146 C 42.853592 237.97096 42.15061 238.42379 41.590252 239.54451 C 41.029903 240.66522 41.106139 241.03148 41.057049 241.27693 C 41.007959 241.52238 40.983599 241.60607 40.953533 241.68123 C 40.893403 241.83155 40.040155 243.228 39.371502 245.23396 C 38.702849 247.23993 38.389881 249.22542 38.002361 250.51716 C 37.614842 251.80889 36.985939 252.98676 36.486736 254.73396 C 36.028122 256.33912 35.856152 257.56638 36.07658 257.03083 C 36.03636 257.11213 36.044031 257.09394 35.943768 257.29451 C 35.553385 258.07528 35.334393 259.20131 35.334393 260.1656 C 35.334393 262.09417 35.498173 265.31249 38.510174 267.98982 C 41.522168 270.66715 45.091042 270.66125 50.713299 270.83162 C 56.335555 271.00199 64.66645 270.99958 77.666424 270.99958 L 136.83439 270.99958 L 227.83439 270.99958 C 251.00102 270.99958 257.49068 271.48861 262.44963 269.56013 C 264.9291 268.59589 266.92956 265.95613 267.03752 263.68904 C 267.14548 261.42196 266.28286 260.01389 265.80705 259.18123 C 265.46644 258.58516 265.17451 258.25486 264.89689 257.91169 C 265.06319 258.21494 264.97209 257.26617 264.46135 255.73396 C 263.87503 253.97502 263.32784 253.35973 262.60002 251.32185 C 261.8722 249.28396 260.87462 245.57964 259.71525 242.68123 C 258.55588 239.7828 257.26051 237.90847 257.07853 237.54451 C 256.89655 237.18054 256.95799 236.95366 256.51408 235.39998 C 256.07017 233.84629 255.45034 232.12955 254.32853 230.44685 C 253.75601 229.58806 253.30481 229.0065 253.04533 228.73591 C 252.95737 228.32295 252.75226 227.6067 252.46135 226.73396 C 251.87503 224.97502 251.10741 223.83155 251.04728 223.68123 C 250.98718 223.5309 251.05528 222.83123 250.24455 221.21052 C 249.4342 219.58981 249.24058 219.78752 248.76017 218.46638 C 248.27975 217.14524 247.63 214.23992 246.96135 212.23396 C 246.62702 211.23098 246.20348 210.42679 246.00822 210.07966 C 245.81296 209.73253 245.91602 209.97864 245.84611 209.73396 C 245.70629 209.2446 245.37296 206.9119 244.84611 205.06794 C 244.54416 204.01111 244.00601 203.01052 243.71721 202.57576 C 243.66991 202.29183 243.7321 202.18761 243.41056 201.54451 C 242.28984 199.30302 242.7566 200.83242 242.51017 200.2574 C 242.26372 199.68237 241.51757 197.23659 240.96135 195.56794 C 240.40513 193.8993 240.30018 194.05769 240.15666 192.04841 C 240.01314 190.03913 240.03087 186.00782 240.30314 183.82966 C 240.57541 181.65151 241.05199 180.85758 241.66447 178.81599 C 242.27695 176.77439 242.65257 174.38607 242.82853 170.86677 C 243.0045 167.34748 243.00057 162.71859 243.16642 155.25544 C 243.33226 147.7923 243.66642 137.43481 243.66642 128.6656 C 243.66642 119.89639 243.35721 112.89869 242.79728 108.79255 C 242.23736 104.68642 240.54462 102.48022 240.0883 101.84138 C 239.63199 101.20254 238.6373 98.980229 236.66252 97.005444 C 234.68773 95.030654 232.64577 94.517577 231.78947 94.089429 C 230.93317 93.661279 228.27138 92.080039 223.2758 91.524975 C 218.28021 90.969911 210.66639 90.999585 199.66642 90.999585 L 166.83439 90.999585 C 159.33441 90.999585 159.04865 90.995981 158.6176 90.909741 C 158.40208 90.866641 157.46697 90.654092 155.89299 90.51521 C 154.31899 90.376328 151.87771 90.251851 147.57853 90.167554 C 143.27936 90.083256 137.13337 90.042414 130.63908 90.042554 z M 130.65275 98.042554 C 137.11711 98.042693 143.22148 98.083232 147.42228 98.1656 C 151.6231 98.24797 153.93053 98.372842 155.18986 98.48396 C 156.4492 98.595078 156.43143 98.631882 157.04924 98.755444 C 158.28486 99.002567 159.33441 98.999585 166.83439 98.999585 L 199.66642 98.999585 C 210.66639 98.999585 218.38859 99.029266 222.39299 99.474194 C 226.39738 99.919127 226.40099 100.33855 228.21135 101.24373 C 230.0217 102.1489 230.64773 102.30315 231.00627 102.66169 C 231.36481 103.02023 232.36818 104.79727 233.57853 106.49177 C 234.78889 108.18626 234.42948 106.64544 234.86955 109.87263 C 235.30962 113.09981 235.66642 120.10151 235.66642 128.6656 C 235.66642 137.22968 235.33586 147.54089 235.16838 155.07771 C 235.00089 162.61454 234.99567 167.31901 234.8383 170.46638 C 234.68093 173.61374 234.38988 175.22542 234.00236 176.51716 C 233.61484 177.80889 232.75809 179.68231 232.36369 182.83748 C 231.9693 185.99264 231.98833 189.96135 232.17814 192.61873 C 232.21918 193.19324 232.28321 193.69199 232.35392 194.16755 A 4 4 0 0 0 231.73478 194.20466 C 230.73479 194.53799 230.09658 194.74709 229.17033 194.86287 C 228.24408 194.97865 226.3707 194.98836 224.1176 195.39802 C 221.86448 195.80767 220.13524 196.4064 217.69963 196.69294 C 215.26401 196.97948 211.66706 196.99958 205.50041 196.99958 L 166.50041 196.99958 L 66.865643 196.99958 C 66.943344 196.41894 67.024596 195.65549 67.105877 195.1949 C 67.53745 192.74932 68.014878 192.01242 68.51408 190.26521 C 69.013281 188.51801 69.108885 187.05592 69.047283 187.30232 C 68.985673 187.54875 69.600907 186.2036 69.814862 184.06404 C 70.028815 181.92449 69.999414 179.07926 70.164471 173.96248 C 70.329529 168.84569 70.665311 161.53525 71.150799 156.1949 C 71.636286 150.85454 72.306126 147.19466 72.656658 142.46248 C 73.007191 137.73029 73.01789 132.33067 73.314862 129.21248 C 73.611834 126.09428 74.288212 124.37147 74.652752 120.17927 C 75.017292 115.98708 75.010284 109.9273 75.160565 107.22224 C 75.227945 106.00942 75.32489 105.76447 75.273846 105.8824 C 75.320066 105.8285 75.306806 105.85389 75.45744 105.6656 C 76.512752 104.34645 77.516351 102.83654 77.625408 102.71052 C 77.841899 102.62372 78.520612 102.40424 79.45744 101.98787 C 81.359388 101.14256 83.664367 99.842205 84.818768 99.380444 C 85.97317 98.918684 86.144736 98.997641 90.008221 98.829663 C 93.871707 98.661685 100.44705 98.331452 111.72502 98.1656 C 117.364 98.082674 124.18839 98.042414 130.65275 98.042554 z M 167.5883 110.04255 A 4 4 0 0 0 166.02971 110.11873 C 164.69638 110.45206 162.71418 110.81037 160.77385 112.42732 C 158.85341 114.02769 157.98708 115.8868 157.98088 115.90974 C 157.77269 116.07385 157.14969 116.56473 156.67228 117.28083 C 155.65625 118.80489 155.66361 119.29287 155.3383 119.78083 C 155.01299 120.2688 154.05495 121.13459 153.07072 122.77498 C 152.0865 124.41535 152.04348 125.62033 151.82072 126.39998 C 151.59797 127.17961 150.82377 129.11369 150.39885 131.45076 C 149.97392 133.78783 150.00234 135.88673 149.8383 139.65974 C 149.67426 143.43275 149.33967 149.11566 149.17033 153.85701 C 149.001 158.59835 148.9685 162.35304 149.36955 165.36091 C 149.7706 168.36879 150.75681 170.49409 150.95353 170.98591 C 151.05193 171.23181 151.07229 171.31079 151.14885 171.56599 C 151.22545 171.82118 151.31213 172.63553 152.3383 173.66169 C 153.09173 174.41513 153.30733 174.49046 153.32658 174.44685 C 153.36006 174.48388 153.36681 174.48653 153.42814 174.56013 C 153.92564 175.15713 155.25898 177.15713 156.42814 178.56013 C 157.01273 179.26163 157.67926 179.85753 158.17619 180.21248 C 158.67312 180.56743 158.78886 180.61979 159.00236 180.7906 C 159.42939 181.13221 160.76273 182.46491 162.00236 183.45662 C 162.3353 183.72297 162.57993 183.84004 162.87541 184.02498 C 163.02583 184.23934 163.08447 184.40786 163.3383 184.66169 C 163.64844 184.97183 163.86614 185.06764 164.11564 185.2281 C 164.3119 185.50233 164.41246 185.7339 164.67228 185.99373 C 165.80082 187.12225 166.78166 187.66105 167.78166 188.32771 A 4 4 0 0 0 173.32853 187.21833 A 4 4 0 0 0 172.21916 181.67146 C 171.23015 181.01213 170.24771 180.244 170.35002 180.35115 C 170.31392 180.18496 170.39862 180.07357 169.66252 179.33748 C 169.43174 179.10671 169.28293 179.05983 169.08439 178.9156 C 168.94016 178.71706 168.89329 178.56826 168.66252 178.33748 C 167.63635 177.31131 167.22301 177.36772 167.20549 177.35896 C 167.18799 177.34996 167.21149 177.37936 166.99846 177.20857 C 166.57143 176.86696 165.23808 175.53426 163.99846 174.54255 C 163.37863 174.04669 162.91103 173.76443 162.82463 173.70271 C 162.73823 173.64101 162.82162 173.73751 162.57267 173.43904 C 162.07517 172.84204 160.74183 170.84204 159.57267 169.43904 C 159.21321 169.00769 158.87541 168.7561 158.52971 168.4488 C 158.46981 168.27583 158.46281 168.21719 158.38127 168.01326 C 157.91133 166.83842 157.56485 166.29639 157.29924 164.30427 C 157.03362 162.31214 157.00047 158.73414 157.16447 154.14216 C 157.32847 149.55019 157.6612 143.90104 157.83049 140.0074 C 157.99978 136.11375 158.0282 134.212 158.26994 132.8824 C 158.51169 131.55281 159.07017 130.15288 159.51408 128.59919 C 159.95799 127.04551 159.91432 126.91651 159.9301 126.89021 C 159.9459 126.86391 160.98653 125.73036 161.99455 124.21833 C 162.94756 122.78883 163.48285 121.56396 163.25627 121.85505 C 163.55516 121.60304 163.96308 121.27137 164.3676 120.73201 C 165.37958 119.38268 165.83528 118.62156 165.89494 118.57185 C 165.95464 118.52215 166.63779 118.21377 167.97111 117.88044 A 4 4 0 0 0 170.88127 113.02888 A 4 4 0 0 0 167.5883 110.04255 z M 136.96916 119.99958 A 4 4 0 0 0 135.73478 120.20466 L 132.73478 121.20466 A 4 4 0 0 0 130.20549 126.26521 A 4 4 0 0 0 135.26603 128.79451 L 138.26603 127.79451 A 4 4 0 0 0 140.79533 122.73396 A 4 4 0 0 0 136.96916 119.99958 z M 136.00041 162.99958 A 4 4 0 0 0 133.17228 164.17146 A 4 4 0 0 0 133.17228 169.82771 L 134.17228 170.82771 A 4 4 0 0 0 139.82853 170.82771 A 4 4 0 0 0 139.82853 165.17146 L 138.82853 164.17146 A 4 4 0 0 0 136.00041 162.99958 z M 234.53556 201.67341 C 234.73688 202.26333 234.92452 202.86614 235.15666 203.40779 C 235.6095 204.46444 236.03326 205.12201 236.17033 205.21638 C 236.19206 205.45777 236.24773 205.76955 236.59025 206.45466 C 237.10843 207.49102 237.18809 207.53067 237.19181 207.43708 C 237.34021 208.03625 237.64728 210.15521 238.15471 211.93123 C 238.41812 212.85321 238.85581 213.68201 239.03556 214.00154 C 239.2153 214.32108 239.20583 214.2682 239.3715 214.76521 C 239.70285 215.75925 240.38772 218.85523 241.24064 221.20076 C 242.09356 223.54628 243.23394 225.07602 243.09025 224.78865 C 242.94657 224.50128 243.01305 225.13559 243.61955 226.65193 C 244.22609 228.16828 244.79115 229.02416 244.8715 229.26521 C 244.9519 229.50627 244.70739 230.35692 245.75627 232.45466 C 246.80514 234.5524 247.46075 234.56705 247.67228 234.88435 C 247.88382 235.20164 248.59797 236.81956 248.82072 237.59919 C 249.04348 238.37884 249.10427 239.4866 249.92228 241.12263 C 250.7403 242.75867 251.44494 243.55036 252.28556 245.65193 C 253.12618 247.75351 254.12797 251.38253 255.06681 254.0113 C 256.00566 256.64008 256.79115 258.02416 256.8715 258.26521 C 256.9519 258.50627 256.69888 258.74733 257.3715 260.76521 C 257.61484 261.49522 257.96726 261.85482 258.25236 262.20857 C 256.22326 262.58812 249.01156 262.99958 227.83439 262.99958 L 136.83439 262.99958 L 77.666424 262.99958 C 64.66645 262.99958 56.333207 262.99858 50.955486 262.83552 C 45.577766 262.67256 43.812625 261.99868 43.824627 262.00935 C 43.835727 262.01935 43.436145 260.81086 43.371502 260.30427 C 43.484898 260.10436 43.465703 260.25608 43.629315 259.76521 C 44.301944 257.74732 44.012633 257.51734 44.180096 256.93123 C 44.347559 256.34511 45.051994 254.85758 45.664471 252.81599 C 46.276948 250.77439 46.630002 248.75925 46.961346 247.76521 C 47.292691 246.77118 47.774729 246.16829 48.381268 244.65193 C 48.612682 244.0734 48.693879 243.66028 48.779705 243.27498 C 49.093571 242.94581 49.388517 242.67265 49.756268 242.15779 C 50.882837 240.5806 52.127859 238.36327 53.109783 236.96052 C 54.091707 235.55777 54.945867 234.86458 55.930096 233.22419 C 56.390718 232.45649 56.673727 231.86068 56.820721 231.48396 C 57.102662 231.21073 57.513777 230.7591 58.033611 230.06599 C 59.173608 228.54599 59.438843 227.32954 60.092205 225.53279 C 60.745568 223.73605 61.797786 221.00457 62.398846 218.39998 C 62.999905 215.79539 63.021702 214.12594 63.359783 212.8863 C 63.697864 211.64667 64.817647 209.28127 65.580487 205.65779 C 65.624755 205.44751 65.642538 205.21452 65.684002 204.99958 L 166.50041 204.99958 L 205.50041 204.99958 C 211.66706 204.99958 215.40413 205.01839 218.63517 204.63826 C 221.86621 204.25814 224.13569 203.52613 225.54924 203.26912 C 226.96279 203.01211 228.4221 203.01988 230.16252 202.80232 C 231.90294 202.58477 233.26604 202.12784 234.26603 201.79451 A 4 4 0 0 0 234.53556 201.67341 z "
       transform="translate(-1.1898615,-30.548413)" />
  </g>
</svg>
