<?xml version="1.0" encoding="UTF-8" standalone="no"?>
<!-- Created with Inkscape (http://www.inkscape.org/) -->

<svg
   width="300"
   height="300"
   viewBox="0 0 300 300.00001"
   version="1.1"
   id="svg1"
   inkscape:version="1.3.2 (091e20e, 2023-11-25, custom)"
   sodipodi:docname="cheese.svg"
   xmlns:inkscape="http://www.inkscape.org/namespaces/inkscape"
   xmlns:sodipodi="http://sodipodi.sourceforge.net/DTD/sodipodi-0.dtd"
   xmlns="http://www.w3.org/2000/svg"
   xmlns:svg="http://www.w3.org/2000/svg">
  <sodipodi:namedview
     id="namedview1"
     pagecolor="#ffffff"
     bordercolor="#000000"
     borderopacity="0.25"
     inkscape:showpageshadow="2"
     inkscape:pageopacity="0.0"
     inkscape:pagecheckerboard="0"
     inkscape:deskcolor="#d1d1d1"
     inkscape:document-units="px"
     inkscape:zoom="1"
     inkscape:cx="156"
     inkscape:cy="142.5"
     inkscape:window-width="1366"
     inkscape:window-height="705"
     inkscape:window-x="-8"
     inkscape:window-y="-8"
     inkscape:window-maximized="1"
     inkscape:current-layer="layer1" />
  <defs
     id="defs1">
    <inkscape:path-effect
       effect="bspline"
       id="path-effect22"
       is_visible="true"
       lpeversion="1.3"
       weight="33.333333"
       steps="2"
       helper_size="0"
       apply_no_weight="true"
       apply_with_weight="true"
       only_selected="false"
       uniform="false" />
    <inkscape:path-effect
       effect="bspline"
       id="path-effect21"
       is_visible="true"
       lpeversion="1.3"
       weight="33.333333"
       steps="2"
       helper_size="0"
       apply_no_weight="true"
       apply_with_weight="true"
       only_selected="false"
       uniform="false" />
    <inkscape:path-effect
       effect="bspline"
       id="path-effect20"
       is_visible="true"
       lpeversion="1.3"
       weight="33.333333"
       steps="2"
       helper_size="0"
       apply_no_weight="true"
       apply_with_weight="true"
       only_selected="false"
       uniform="false" />
    <inkscape:path-effect
       effect="bspline"
       id="path-effect19"
       is_visible="true"
       lpeversion="1.3"
       weight="33.333333"
       steps="2"
       helper_size="0"
       apply_no_weight="true"
       apply_with_weight="true"
       only_selected="false"
       uniform="false" />
    <inkscape:path-effect
       effect="bspline"
       id="path-effect18"
       is_visible="true"
       lpeversion="1.3"
       weight="33.333333"
       steps="2"
       helper_size="0"
       apply_no_weight="true"
       apply_with_weight="true"
       only_selected="false"
       uniform="false" />
    <inkscape:path-effect
       effect="bspline"
       id="path-effect17"
       is_visible="true"
       lpeversion="1.3"
       weight="33.333333"
       steps="2"
       helper_size="0"
       apply_no_weight="true"
       apply_with_weight="true"
       only_selected="false"
       uniform="false" />
    <inkscape:path-effect
       effect="bspline"
       id="path-effect16"
       is_visible="true"
       lpeversion="1.3"
       weight="33.333333"
       steps="2"
       helper_size="0"
       apply_no_weight="true"
       apply_with_weight="true"
       only_selected="false"
       uniform="false" />
    <inkscape:path-effect
       effect="bspline"
       id="path-effect15"
       is_visible="true"
       lpeversion="1.3"
       weight="33.333333"
       steps="2"
       helper_size="0"
       apply_no_weight="true"
       apply_with_weight="true"
       only_selected="false"
       uniform="false" />
    <inkscape:path-effect
       effect="bspline"
       id="path-effect14"
       is_visible="true"
       lpeversion="1.3"
       weight="33.333333"
       steps="2"
       helper_size="0"
       apply_no_weight="true"
       apply_with_weight="true"
       only_selected="false"
       uniform="false" />
    <inkscape:path-effect
       effect="bspline"
       id="path-effect13"
       is_visible="true"
       lpeversion="1.3"
       weight="33.333333"
       steps="2"
       helper_size="0"
       apply_no_weight="true"
       apply_with_weight="true"
       only_selected="false"
       uniform="false" />
    <inkscape:path-effect
       effect="bspline"
       id="path-effect12"
       is_visible="true"
       lpeversion="1.3"
       weight="33.333333"
       steps="2"
       helper_size="0"
       apply_no_weight="true"
       apply_with_weight="true"
       only_selected="false"
       uniform="false" />
    <inkscape:path-effect
       effect="bspline"
       id="path-effect11"
       is_visible="true"
       lpeversion="1.3"
       weight="33.333333"
       steps="2"
       helper_size="0"
       apply_no_weight="true"
       apply_with_weight="true"
       only_selected="false"
       uniform="false" />
    <inkscape:path-effect
       effect="bspline"
       id="path-effect10"
       is_visible="true"
       lpeversion="1.3"
       weight="33.333333"
       steps="2"
       helper_size="0"
       apply_no_weight="true"
       apply_with_weight="true"
       only_selected="false"
       uniform="false" />
    <inkscape:path-effect
       effect="bspline"
       id="path-effect9"
       is_visible="true"
       lpeversion="1.3"
       weight="33.333333"
       steps="2"
       helper_size="0"
       apply_no_weight="true"
       apply_with_weight="true"
       only_selected="false"
       uniform="false" />
    <inkscape:path-effect
       effect="bspline"
       id="path-effect8"
       is_visible="true"
       lpeversion="1.3"
       weight="33.333333"
       steps="2"
       helper_size="0"
       apply_no_weight="true"
       apply_with_weight="true"
       only_selected="false"
       uniform="false" />
    <inkscape:path-effect
       effect="bspline"
       id="path-effect7"
       is_visible="true"
       lpeversion="1.3"
       weight="33.333333"
       steps="2"
       helper_size="0"
       apply_no_weight="true"
       apply_with_weight="true"
       only_selected="false"
       uniform="false" />
    <inkscape:path-effect
       effect="bspline"
       id="path-effect6"
       is_visible="true"
       lpeversion="1.3"
       weight="33.333333"
       steps="2"
       helper_size="0"
       apply_no_weight="true"
       apply_with_weight="true"
       only_selected="false"
       uniform="false" />
    <inkscape:path-effect
       effect="bspline"
       id="path-effect5"
       is_visible="true"
       lpeversion="1.3"
       weight="33.333333"
       steps="2"
       helper_size="0"
       apply_no_weight="true"
       apply_with_weight="true"
       only_selected="false"
       uniform="false" />
    <inkscape:path-effect
       effect="bspline"
       id="path-effect4"
       is_visible="true"
       lpeversion="1.3"
       weight="33.333333"
       steps="2"
       helper_size="0"
       apply_no_weight="true"
       apply_with_weight="true"
       only_selected="false"
       uniform="false" />
    <inkscape:path-effect
       effect="bspline"
       id="path-effect3"
       is_visible="true"
       lpeversion="1.3"
       weight="33.333333"
       steps="2"
       helper_size="0"
       apply_no_weight="true"
       apply_with_weight="true"
       only_selected="false"
       uniform="false" />
    <inkscape:path-effect
       effect="bspline"
       id="path-effect2"
       is_visible="true"
       lpeversion="1.3"
       weight="33.333333"
       steps="2"
       helper_size="0"
       apply_no_weight="true"
       apply_with_weight="true"
       only_selected="false"
       uniform="false" />
    <inkscape:path-effect
       effect="bspline"
       id="path-effect1"
       is_visible="true"
       lpeversion="1.3"
       weight="33.333333"
       steps="2"
       helper_size="0"
       apply_no_weight="true"
       apply_with_weight="true"
       only_selected="false"
       uniform="false" />
  </defs>
  <g
     inkscape:label="Layer 1"
     inkscape:groupmode="layer"
     id="layer1">
    <path
       id="path20"
       style="color:#000000;fill:#000000;stroke-linecap:round;stroke-linejoin:round;-inkscape-stroke:none"
       d="m 159.14759,26.491648 c -1.94851,7.14e-4 -4.38645,0.04888 -7.57617,0.132812 -6.37943,0.16788 -15.737,0.493232 -22.69922,1.189454 -6.9622,0.69622 -11.45357,1.808721 -16.21093,3.167968 -4.75737,1.359247 -10.14291,3.033775 -13.171875,3.791016 -3.028967,0.757242 -3.859907,0.599203 -5.994141,1.208984 -2.134234,0.609781 -3.52212,1.618864 -6.341797,3.44336 -2.819676,1.824496 -7.446977,4.78221 -10.242187,6.832031 -2.79521,2.049821 -3.927088,3.576394 -4.671875,4.445312 -0.744786,0.868918 -2.410806,2.535589 -3.666016,4 -1.255209,1.464412 -1.554498,2.099378 -2.908203,3.753907 -1.353706,1.654528 -4.237577,4.905329 -7.263672,9.355468 -3.026096,4.450137 -6.060136,9.864494 -8.570312,14.382814 -2.510176,4.51831 -4.564098,8.28086 -6.472657,12.27148 -1.908558,3.99062 -3.748604,8.425166 -5.492187,15.050776 -1.743582,6.62562 -3.439275,15.45061 -4.304687,23.93166 -0.865413,8.48104 -0.863893,16.31548 -0.689454,21.02539 0.151847,4.09986 0.455656,5.92044 0.615235,6.98632 a 5,5 0 0 0 -1.222657,3.3086 c 0.333333,5.99999 0.666392,11.99767 0.830079,16.08984 0.163686,4.09217 0.08246,6.4006 0.591797,8.94727 0.509334,2.54666 1.040259,3.03826 1.28125,4.8457 0.240991,1.80743 0.287776,5.91383 0.458984,10.36523 0.171208,4.45141 0.503294,9.09295 0.666016,13.97461 0.162722,4.88167 0.107187,10.52498 1.470703,16.17383 1.363515,5.64885 3.907274,10.29586 5.435547,12.7793 1.528273,2.48345 3.577086,3.99085 4.15039,4.37305 0.573305,0.38221 2.297138,1.76979 2.904297,2.37695 0.607165,0.60717 0.156144,0.48818 1.667969,2 0.729735,0.72974 1.62249,1.17756 1.966797,1.33398 -0.207217,-0.10216 0.575578,0.72334 2.332031,1.60157 0.589518,0.29476 0.815797,0.38203 1.140625,0.52539 0.314562,0.29001 0.644251,0.59942 1.488281,1.16211 2.206762,1.47117 2.172693,0.92206 2.626953,1.18164 0.454259,0.25958 2.3212,1.69506 4.408203,2.94726 2.087002,1.2522 3.959433,2.02537 4.591797,2.38672 0.632369,0.36135 1.299036,1.02802 3,2 1.700968,0.97198 3.616012,1.73564 5.728516,2.20508 2.097773,0.46618 4.157768,0.67317 3.349609,0.4668 0.58388,0.27714 1.286672,0.61972 2.080078,0.75195 2.066358,0.34439 3.822929,0.23437 10.65625,0.23437 6.833313,0 18.519373,-3.6e-4 29.078123,-0.16796 10.55875,-0.1676 19.93549,-0.50216 26.35156,-0.83985 6.41608,-0.33769 9.68147,-0.66533 15.37891,-0.82812 5.69742,-0.16278 14.01175,-0.16174 19.35156,-0.33399 5.33982,-0.17225 7.77548,-0.51537 9.54688,-1.02148 1.6568,-0.47337 2.54747,-0.97334 2.06445,-0.83985 0.0438,-0.009 0.0533,-0.0148 0.13476,-0.0273 0.30892,-0.0475 0.80291,0.0429 2.16211,-0.63672 0.57329,-0.28664 0.98079,-0.66039 1.33594,-1.00195 0.28029,-0.0996 0.74825,-0.26839 1.4082,-0.40039 1.41524,-0.28304 3.54727,-0.51852 5.56055,-1.09375 0.98699,-0.28199 2.04932,-0.81288 2.65235,-1.16211 0.37571,-0.0943 0.6682,-0.13954 1.16406,-0.33789 1.6871,-0.67484 2.50727,-1.21531 2.55859,-1.23242 0.0513,-0.0171 0.10265,0.29911 2.5,-0.5 0.78737,-0.26245 1.3242,-0.61537 1.66992,-0.86914 0.28512,-0.0574 2.27751,-0.41876 4.33789,-1.19141 2.18842,-0.82065 2.66749,-1.38656 3.32422,-1.60547 0.65672,-0.21891 2.99071,-0.55288 5.33399,-1.33398 2.34325,-0.78109 3.39921,-1.67668 3.7207,-1.81446 0.32148,-0.13778 1.65415,-0.35893 3.55469,-1.11914 0.486,-0.1944 0.73282,-0.43077 1.13867,-0.69531 0.36479,-0.0317 0.78589,0.007 1.91992,-0.37109 1.17378,-0.39125 2.3638,-1.46244 2.66016,-1.78907 -0.0948,0.0859 1.43111,-0.76551 2.99804,-1.88476 1.57369,-1.12406 2.72717,-2.12871 2.61133,-2.07227 0.0954,-0.002 0.29311,0.10344 1.55078,-0.52539 0.8306,-0.4153 1.35597,-0.93099 1.71875,-1.34961 -0.14806,0.17956 0.83666,-0.18533 2.33594,-1.38476 1.72212,-1.3777 2.2074,-2.32848 3.24609,-3.36719 1.03871,-1.0387 2.98126,-2.56796 4.59376,-4.44922 0.80625,-0.94063 1.8623,-3.21755 2.0664,-4.99609 0.2041,-1.77855 0.21947,-3.81825 0.30274,-7.64844 0.14128,-6.49929 0.42577,-19.08106 0.70507,-31.38867 0.0467,-0.0658 0.12546,-0.15913 0.16993,-0.22266 0.35582,-0.5083 0.75805,-0.97383 1.18164,-2.12695 0.4236,-1.15312 0.3785,-3.70667 -0.57618,-5.13867 -1.90935,-2.86403 -2.84704,-2.38848 -4.01562,-3.01172 -2.33717,-1.24649 -6.91321,-3.85783 -12.96484,-7.78321 -6.05164,-3.92538 -13.73299,-9.26865 -21.63477,-14.48046 -0.0301,-0.0199 -0.0577,-0.0368 -0.0879,-0.0567 0.56732,-0.10921 1.13506,-0.2125 1.70117,-0.3457 3.3227,-0.78181 5.98558,-1.90231 7.125,-2.24414 1.13942,-0.34182 2.18005,-0.3341 4.3125,-1.04492 2.13245,-0.71082 3.58099,-1.46916 5.50586,-1.83008 1.92487,-0.36091 4.91874,-0.37312 7.24219,-0.60547 1.16173,-0.11617 2.14128,-0.24591 3.37695,-0.91992 0.38155,-0.20812 0.74743,-0.49446 1.07617,-0.77344 0.48484,-0.30219 1.06042,-0.72057 1.58594,-1.24609 1.25592,-1.25592 2.11533,-2.45915 2.91797,-3.79688 0.31526,-0.52543 0.48741,-0.93473 0.63867,-1.2832 0.33112,-0.36567 0.20031,-0.10064 0.46289,-0.58203 0.67401,-1.23567 0.80375,-2.21522 0.91992,-3.37695 0.23235,-2.32345 0.19193,-5.58976 0.0215,-10.02149 -0.17045,-4.43171 -0.50669,-9.79901 -0.84766,-13.89063 -0.34097,-4.09163 -0.66088,-6.63142 -0.82031,-10.61719 -0.15943,-3.98577 -0.13595,-9.600366 -0.51758,-13.607416 -0.0711,-0.74684 -0.17415,-1.42875 -0.28906,-2.07813 0.11522,-0.1685 0.2487,-0.27268 0.35351,-0.46484 1.345,-2.46585 0.59173,-4.36353 0.0449,-5.73047 -1.09355,-2.73388 -2.95567,-5.64453 -4.37891,-7.67773 -0.71163,-1.01661 -1.37091,-1.771318 -1.85156,-2.251957 -0.48064,-0.48065 -0.52957,-0.499927 -0.73633,-0.748047 -0.41354,-0.49625 -2.07982,-2.941151 -4.47266,-5.333985 -2.39282,-2.392831 -5.16987,-4.445922 -7.00195,-5.972656 -1.83208,-1.526731 -3.24876,-2.944872 -5.5332,-4.658203 -2.28444,-1.713328 -4.98951,-3.402347 -6.56055,-4.544922 -1.57104,-1.142573 -2.69612,-2.273531 -4.86719,-3.576172 -2.17107,-1.302642 -4.58436,-2.328986 -5.64453,-2.917968 -1.06018,-0.588986 -2.31642,-1.580845 -8.46094,-4.482422 -6.14451,-2.901577 -17.43963,-7.884351 -24.17773,-10.748047 -6.73811,-2.863696 -9.35631,-3.747595 -12.36914,-4.3125 -3.01284,-0.564906 -6.45312,-0.909503 -8.09766,-1.183594 -1.64454,-0.274091 -2.61604,-0.679917 -5.07422,-0.884766 -1.22909,-0.102424 -2.6882,-0.149151 -4.63672,-0.148437 z m 0.0254,10.009766 c 1.80164,7.14e-4 3.01034,0.03928 3.78125,0.103515 1.54181,0.128486 1.90431,0.390628 4.25976,0.783203 2.35546,0.392576 5.5799,0.713346 7.90039,1.148438 2.32049,0.435092 3.70364,0.884542 10.29883,3.6875 6.59519,2.802958 17.96485,7.822811 23.82031,10.58789 5.85547,2.76508 5.93322,3.103963 7.87305,4.181641 1.93982,1.077682 4.19516,2.052648 5.35742,2.75 1.16226,0.697353 2.03523,1.565754 4.13086,3.089844 2.09562,1.524088 4.72586,3.170366 6.44141,4.457031 1.71556,1.286664 2.96295,2.533248 5.13086,4.339844 2.16791,1.806588 4.72487,3.754165 6.33203,5.361324 1.60717,1.60716 2.60821,3.16228 3.86133,4.66602 0.62656,0.75188 1.16163,1.23195 1.34765,1.41797 0.18602,0.18602 0.27543,0.264 0.73047,0.91406 0.32458,0.46369 0.67686,1.18362 1.17188,2.01758 -0.38917,0.1004 -0.87186,0.24314 -1.52735,0.30273 -1.34355,0.12214 -4.80052,0.13742 -8.8164,0.90235 -4.01588,0.76493 -8.12322,2.1538 -10.90235,2.92578 -2.77913,0.77198 -4.80813,1.11026 -7.90625,2.02148 -3.09812,0.91121 -6.71338,2.21991 -9.52929,2.96094 -2.81591,0.74103 -5.39328,1.05006 -8.34766,1.83789 -2.95439,0.78784 -4.72831,1.62364 -9.50781,2.39453 -3.98191,0.64224 -9.49187,1.076506 -13.16407,1.341796 -0.004,-0.001 -0.0155,-0.007 -0.0195,-0.008 -1.19769,-0.3304 -1.21875,-0.18946 -1.4375,-0.18946 -0.875,0 -1.24171,0.0736 -1.95703,0.17578 -0.35766,0.0511 -0.73548,0.11102 -1.12305,0.18555 -0.38757,0.0745 -0.14211,-0.27758 -1.86523,0.58399 -0.218,0.109 -0.64569,0.10384 -1.13477,0.47265 -0.61239,0.17098 -0.71307,0.10399 -1.35156,0.33203 -2.92991,1.04639 -5.51806,2.5293 -6.51562,2.97266 -0.99756,0.44336 -1.53298,0.42654 -4.15039,1.36133 -2.61742,0.93479 -6.56915,2.58449 -9.26758,3.84375 -2.69844,1.25927 -4.09466,2.06286 -4.07422,2.05469 0.0102,-0.004 1.7e-4,0.007 -0.22852,0.0527 -0.22868,0.0457 -0.62516,-0.0605 -1.98437,0.61914 -1.35927,0.67962 -2.36642,2.20549 -2.58985,2.65234 -0.22341,0.44684 -0.19625,0.41563 -0.29492,0.58008 -0.19735,0.32893 -2.87058,3.57967 -1.45703,7.82031 1.41355,4.24063 4.08275,5.51998 6.33789,6.87306 2.25514,1.35309 3.74563,1.70929 5.95899,2.74219 2.21337,1.03291 6.0156,3.10368 10.12109,4.88867 4.10548,1.785 8.21358,3.15326 11.01367,4.24219 h 0.002 c 1.45567,0.56615 2.5533,1.04881 3.73437,1.56445 1.13299,0.49488 2.22562,0.97155 3.44727,1.44141 1.02207,0.39311 2.01908,0.74949 2.90429,1.0625 0.87293,0.30764 2.28577,0.8089 2.48828,0.91015 0.21848,0.10923 0.1798,0.0856 0.49414,0.34766 0.002,0.002 0.008,0.006 0.01,0.008 0.32381,0.27078 1.0747,0.93286 2.16211,1.47657 0.73946,0.36971 1.26659,0.5447 1.73047,0.6875 1.15192,0.41186 2.09226,0.66557 2.64258,0.91015 0.80915,0.35962 2.09877,1.2637 6.82617,4.30274 4.72738,3.03903 12.68632,8.01327 20.45117,13.13476 7.76485,5.12151 15.41754,10.44688 21.69922,14.52149 5.23108,3.39313 8.62266,5.29529 11.41016,6.84179 -1.10707,1.43579 -2.09621,2.72658 -3.02344,3.96289 -1.60667,2.14222 -1.21699,1.97441 -3.65235,3.95313 -2.43534,1.97873 -7.46998,5.6753 -10.7871,7.88672 -3.31713,2.21141 -5.1307,3.10615 -7.79883,4.70703 -2.66813,1.60088 -5.64763,3.57105 -7.78125,4.70898 -2.13362,1.13794 -4.11781,1.80695 -7.38282,3.43946 -3.265,1.63249 -7.21446,3.93341 -10.41406,5.45703 -3.19959,1.52362 -5.72491,2.37214 -10.22851,3.49804 -4.50361,1.1259 -10.8095,2.45565 -15.76758,3.44727 -4.95809,0.99162 -8.57604,1.64562 -11.06836,2.17969 -2.49233,0.53407 -2.33502,0.72141 -9.33594,0.55859 -7.00093,-0.16281 -20.38561,-0.84268 -28.35351,-1.79883 -7.96791,-0.95614 -10.51893,-2.07567 -13.92383,-3.02148 -3.40492,-0.94581 -6.30024,-1.32603 -7.79297,-1.69922 -1.49274,-0.37318 -2.30925,-0.78841 -6.64258,-2.95508 -4.33332,-2.16666 -11.665488,-5.8332 -16.562496,-8.19726 -4.897008,-2.36408 -7.35194,-3.44617 -8.41211,-4.03516 -1.060174,-0.58898 -1.3496,-1.0125 -2.855469,-1.91602 -1.505876,-0.90353 -2.370386,-1.14049 -3.091796,-1.55273 -0.721412,-0.41223 -1.90445,-1.31064 -3.242188,-2.11328 -0.66887,-0.40132 -1.214637,-0.64443 -1.335937,-0.70508 -0.1213,-0.0607 0.04944,0.0521 -0.113282,-0.0781 -0.325447,-0.26036 -1.919508,-1.79397 -4.226562,-3.7461 -2.307053,-1.95212 -4.512907,-3.59443 -7.109375,-7.92187 -2.596469,-4.32746 -5.636668,-11.95689 -7.042969,-16.17578 -1.4063,-4.21891 -1.258004,-4.97531 -1.919922,-7.40235 -0.661917,-2.42703 -1.66192,-4.76037 -2,-6 -0.338079,-1.23962 -0.311745,-2.06427 -0.529297,-3.80469 -0.217552,-1.74041 -0.471967,-2.44038 -0.630859,-6.73046 -0.158892,-4.2901 -0.158674,-11.78836 0.642578,-19.64063 0.801251,-7.85226 2.439553,-16.36133 4.029297,-22.40235 1.589745,-6.04104 3.083695,-9.60523 4.841797,-13.281246 1.758103,-3.67604 3.703545,-7.24685 6.193359,-11.72852 2.489814,-4.48166 5.457098,-9.73403 8.097656,-13.617187 2.640559,-3.883179 5.088086,-6.634352 6.734376,-8.646484 1.646289,-2.012131 2.014978,-2.709207 2.759765,-3.578125 0.744786,-0.868917 2.410806,-2.535588 3.666016,-4 1.255209,-1.464412 0.78936,-1.271832 2.99414,-2.888672 2.20478,-1.616838 6.912787,-4.657837 9.759766,-6.5 2.84698,-1.842163 3.459107,-2.167725 3.658203,-2.224609 0.199094,-0.05688 2.034196,-0.213626 5.671869,-1.123047 3.63769,-0.909421 8.9182,-2.569541 13.49414,-3.876953 4.57595,-1.307413 8.08594,-2.194922 14.45704,-2.832032 6.3711,-0.63711 15.6796,-0.979078 21.96679,-1.144531 3.1436,-0.08273 5.5382,-0.119854 7.33985,-0.11914 z m 19.63476,14.253906 c -5.49322,0 -10,4.506776 -10,10 0,5.493224 4.50678,10.000001 10,10 5.49323,0 10,-4.506776 10,-10 0,-5.493224 -4.50677,-10 -10,-10 z m 0,5 c 2.79104,0 5,2.208965 5,5 0,2.791036 -2.20896,5 -5,5 -2.79103,0 -5,-2.208964 -5,-5 0,-2.791035 2.20897,-5 5,-5 z m 74.18945,40.203124 c 0.22944,3.12498 0.26879,8.231296 0.42969,12.253906 0.1739,4.34755 0.52196,7.14047 0.84766,11.04883 0.32569,3.90835 0.65743,9.20844 0.82031,13.44336 0.15957,4.14881 0.11604,7.38486 0.0195,8.46875 -0.35827,0.57587 -0.51448,1.00007 -0.54101,1.06641 -0.0406,0.10161 -0.005,0.0367 -0.10352,0.20117 -0.19735,0.32893 -1.33861,1.79173 -1.41601,1.86914 -0.0387,0.0387 0.19551,-0.15138 0.33789,-0.23047 0.0405,-0.0225 -0.37503,0.29893 -0.42774,0.30274 -1.07655,0.096 -4.6068,0.0879 -7.96094,0.7168 -3.40844,0.63908 -5.96058,1.88074 -6.82812,2.16992 -0.86754,0.28918 -1.82758,0.29691 -4.02149,0.95508 -2.19389,0.65817 -4.19705,1.53637 -6.54101,2.08789 -2.34396,0.55152 -5.51594,0.88541 -7.94922,1.25976 -1.70109,0.26171 -2.85749,0.56412 -3.81055,0.84571 -3.12866,-1.99108 -6.0457,-3.83687 -8.11328,-5.16602 -3.01621,-1.93899 -4.61977,-3.04596 -6.00195,-3.875 0.33858,-1.25496 0.51667,-2.55555 0.51953,-3.87305 a 5.0004752,5.0004752 0 0 0 0,-0.002 5.0004752,5.0004752 0 0 0 0,-0.002 5.0004752,5.0004752 0 0 0 0,-0.002 5.0004752,5.0004752 0 0 0 0,-0.002 5.0004752,5.0004752 0 0 0 0,-0.002 c -2e-5,-8.225 -6.775,-14.99999 -15,-15.00001 a 5.0004752,5.0004752 0 0 0 -0.004,0 c -5.36045,0.004 -10.16443,2.88358 -12.81836,7.2461 -1.85485,-0.68664 -3.75354,-1.41042 -5.57226,-2.20117 -3.56118,-1.54834 -7.09229,-3.47888 -9.87891,-4.77931 -2.78662,-1.30042 -3.96478,-1.6109 -5.04297,-2.25781 -0.32669,-0.19601 -0.6258,-0.54749 -0.94336,-0.87109 1.47577,-0.621 2.15486,-1.13203 4.32032,-2.14258 2.30156,-1.07406 6.35115,-2.75641 8.40039,-3.48828 2.04926,-0.73188 2.84523,-0.75066 4.84765,-1.64063 2.00244,-0.88997 4.08161,-2.07309 5.81836,-2.69336 1.07865,-0.38523 2.00094,-0.51413 2.98047,-0.70703 0.15822,-0.007 0.24856,2.2e-4 0.4336,-0.01 3.42413,-0.18022 11.31338,-0.82688 16.86718,-1.72266 5.55382,-0.89577 8.44658,-2.05997 10.49219,-2.60547 2.04561,-0.54549 4.80094,-0.9025 8.31836,-1.82812 3.51741,-0.92564 7.23616,-2.28361 9.80469,-3.03907 2.56853,-0.75545 4.53891,-1.08383 7.75976,-1.978506 3.22086,-0.89468 7.11355,-2.17184 10.09766,-2.74024 2.9841,-0.56841 5.52649,-0.55443 7.84961,-0.76562 0.86543,-0.0787 1.43484,-0.1981 2.00976,-0.31055 z M 230.25697,106.4936 c -8.22503,0 -15,6.77497 -15,15 0,8.22504 6.77497,15.00001 15,15.00001 8.22503,0 15,-6.77497 15,-15.00001 0,-8.22503 -6.77497,-15 -15,-15 z m 0,10 c 2.82067,0 5,2.17933 5,5 0,2.82066 -2.17933,5.00001 -5,5.00001 -2.82067,0 -5,-2.17935 -5,-5.00001 0,-2.82067 2.17933,-5 5,-5 z m -142.499997,9 c -12.36716,0 -22.5,10.13285 -22.5,22.50001 0,12.36715 10.13284,22.5 22.5,22.5 12.367157,0 22.499997,-10.13285 22.499997,-22.5 0,-12.36716 -10.13284,-22.50001 -22.499997,-22.50001 z m 99.499997,9.00001 h 0.004 c 2.5129,0.002 4.42384,1.7708 4.82812,4.14453 -1.92166,-0.84753 -3.79185,-1.3872 -5.42578,-2.01563 -0.65217,-0.25083 -1.74458,-0.71863 -2.48242,-1.03906 0.84909,-0.66695 1.90137,-1.08821 3.07617,-1.08984 z m -99.499997,1 c 6.962789,0 12.499997,5.5372 12.499997,12.5 0,6.96279 -5.537208,12.5 -12.499997,12.5 -6.962789,0 -12.5,-5.53721 -12.5,-12.5 0,-6.9628 5.537211,-12.5 12.5,-12.5 z m 170.685547,17.19922 c -0.57859,0.49957 -0.60917,0.35882 -0.19532,0.1289 0.0563,-0.0313 0.13435,-0.0922 0.19532,-0.1289 z M 45.176895,197.06392 c 0.413149,0.76984 0.809178,1.58366 1.238281,2.29883 3.403519,5.67253 7.198342,8.69562 9.224609,10.41015 2.026267,1.71453 3.09824,2.84891 4.439454,3.92188 0.670606,0.53649 1.424686,0.98188 1.886718,1.21289 0.462033,0.23102 0.499601,0.23726 0.664063,0.33594 0.328926,0.19735 1.813865,1.29961 3.425781,2.2207 1.611917,0.9211 2.747415,1.3508 2.908203,1.44727 0.160795,0.0965 1.202757,1.00435 3.142578,2.08203 1.939825,1.07768 4.152235,1.99624 8.921875,4.29883 4.769641,2.30257 12.104176,5.97006 16.4375,8.13671 4.333323,2.16666 6.182183,3.08412 8.689453,3.71094 2.50725,0.62682 4.94594,0.9139 7.54101,1.63477 2.59508,0.72084 6.71143,2.26864 15.41016,3.3125 8.69872,1.04385 21.98013,1.69666 29.3125,1.86718 7.33237,0.17053 9.48972,-0.30946 11.66406,-0.77539 2.17434,-0.46593 5.8917,-1.14396 10.9336,-2.15234 5.04189,-1.00838 11.40272,-2.34531 16.23242,-3.55273 4.8297,-1.20743 8.30313,-2.36022 12.10351,-4.16993 3.80039,-1.80969 7.85096,-4.17547 10.58594,-5.54296 2.73498,-1.36749 4.75081,-2.03182 7.61719,-3.56055 2.86637,-1.52873 5.88688,-3.55791 8.21875,-4.95703 2.33186,-1.39912 4.5183,-2.50569 8.20117,-4.96094 3.68286,-2.45524 8.64891,-6.09071 11.54687,-8.44531 0.12704,-0.10322 0.20604,-0.18512 0.32618,-0.28516 -0.14932,6.60433 -0.33895,14.92557 -0.42383,18.83008 -0.082,3.77299 -0.15082,5.82027 -0.23633,6.61523 -0.56094,0.58412 -2.28151,2.10573 -3.80078,3.625 -1.62796,1.62796 -2.47733,2.67522 -2.42188,2.63086 0.0555,-0.0444 -0.20234,-0.10858 -1.98242,1.07813 -0.30495,0.2033 -0.35702,0.35498 -0.60742,0.59375 -0.54149,0.17178 -1.14068,0.34926 -1.85742,0.77929 -1.84215,1.10529 -2.60718,2.0336 -3.33399,2.55274 -0.72679,0.51915 -1.74173,0.92837 -3.26171,2.06836 -0.18039,0.13529 -0.17545,0.17462 -0.33399,0.3164 -0.3377,0.0254 -0.57881,-0.005 -1.41406,0.27344 -0.79086,0.26362 -1.37998,0.66758 -1.7832,0.97461 -0.11497,-0.004 -1.76043,0.38199 -3.60352,1.17188 -2.01185,0.86222 -2.28858,1.30062 -2.94531,1.51953 -0.65672,0.21891 -2.99071,0.55288 -5.33399,1.33398 -2.34325,0.78109 -3.19557,1.54918 -3.67383,1.72852 -0.47822,0.17934 -2.21148,0.45395 -4.16015,1.10351 -0.54285,0.18095 -0.95775,0.44243 -1.37109,0.70118 -0.16119,-0.0405 -1.29256,0.18736 -2.62891,0.63281 -1.94868,0.64956 -3.12786,1.44176 -3.10742,1.43359 0.0102,-0.004 1.7e-4,0.007 -0.22852,0.0527 -0.22868,0.0457 -0.62517,-0.0605 -1.98437,0.61914 -1.03665,0.51832 -0.94715,0.51876 -0.92969,0.55078 -0.54424,0.12324 -2.68122,0.49132 -4.48242,0.85156 -1.9181,0.38362 -3.17891,0.55548 -4.95899,1.74219 -0.21917,0.14612 -0.24411,0.25533 -0.4375,0.42578 -0.25123,0.0513 -0.32302,0.0315 -0.70312,0.1582 -1.76495,0.58831 -1.23105,0.60703 -1.79297,0.76758 -0.56194,0.16055 -2.1276,0.48345 -7.12109,0.64453 -4.99349,0.16108 -13.34525,0.16148 -19.31446,0.33203 -5.9692,0.17055 -9.37054,0.51088 -15.62109,0.83985 -6.25057,0.32898 -15.54121,0.66044 -25.98242,0.82617 -10.44122,0.16571 -22.08661,0.16601 -28.919923,0.16601 -6.778531,0 -8.968379,-0.10868 -8.939453,-0.0996 -0.375356,-0.20643 -0.63415,-0.40561 -1.347656,-0.58398 -2.188443,-0.54711 -2.741417,-0.33403 -3.628906,-0.53125 -0.887491,-0.19722 -2.305136,-0.7656 -2.9375,-1.12695 -0.632369,-0.36135 -1.299036,-1.02802 -3,-2 -1.700968,-0.97198 -3.161879,-1.53151 -4.408203,-2.2793 -1.246324,-0.7478 -2.712728,-1.97898 -4.591797,-3.05273 -0.722098,-0.41263 -1.219659,-0.64449 -1.673828,-0.85547 -0.302116,-0.28762 -0.80906,-0.70344 -1.699219,-1.29688 -1.501249,-1.00083 -2.251237,-1.18909 -2.44336,-1.14062 -0.240094,-0.18371 -0.612237,-0.45113 -1.224609,-0.85938 -0.323706,-0.21581 -0.414015,-0.23083 -0.664062,-0.35547 0.230454,0.15634 -0.230862,-0.51211 -1.40625,-1.6875 -1.392837,-1.39284 -3.002998,-2.67387 -4.429688,-3.625 -1.426689,-0.95113 -0.04325,0.55691 -1.181641,-1.29297 -1.138385,-1.84987 -3.260657,-5.86892 -4.230468,-9.88671 -0.969812,-4.01779 -1.026655,-9.04186 -1.197266,-14.16016 -0.170611,-5.11832 -0.505844,-9.81015 -0.667969,-14.02539 -0.103704,-2.69632 -0.131683,-5.23473 -0.242187,-7.56836 z" />
  </g>
</svg>
