<?xml version="1.0" encoding="UTF-8" standalone="no"?>
<svg
   version="1.1"
   width="300"
   height="300"
   viewBox="0 0 300 300"
   id="svg8"
   sodipodi:docname="f7676.svg"
   inkscape:version="1.3.2 (091e20e, 2023-11-25, custom)"
   xmlns:inkscape="http://www.inkscape.org/namespaces/inkscape"
   xmlns:sodipodi="http://sodipodi.sourceforge.net/DTD/sodipodi-0.dtd"
   xmlns="http://www.w3.org/2000/svg"
   xmlns:svg="http://www.w3.org/2000/svg">
  <defs
     id="defs8">
    <inkscape:path-effect
       effect="bspline"
       id="path-effect16"
       is_visible="true"
       lpeversion="1.3"
       weight="33.333333"
       steps="2"
       helper_size="0"
       apply_no_weight="true"
       apply_with_weight="true"
       only_selected="false"
       uniform="false" />
    <inkscape:path-effect
       effect="bspline"
       id="path-effect15"
       is_visible="true"
       lpeversion="1.3"
       weight="33.333333"
       steps="2"
       helper_size="0"
       apply_no_weight="true"
       apply_with_weight="true"
       only_selected="false"
       uniform="false" />
    <inkscape:path-effect
       effect="bspline"
       id="path-effect14"
       is_visible="true"
       lpeversion="1.3"
       weight="33.333333"
       steps="2"
       helper_size="0"
       apply_no_weight="true"
       apply_with_weight="true"
       only_selected="false"
       uniform="false" />
    <inkscape:path-effect
       effect="bspline"
       id="path-effect13"
       is_visible="true"
       lpeversion="1.3"
       weight="33.333333"
       steps="2"
       helper_size="0"
       apply_no_weight="true"
       apply_with_weight="true"
       only_selected="false"
       uniform="false" />
    <inkscape:path-effect
       effect="bspline"
       id="path-effect12"
       is_visible="true"
       lpeversion="1.3"
       weight="33.333333"
       steps="2"
       helper_size="0"
       apply_no_weight="true"
       apply_with_weight="true"
       only_selected="false"
       uniform="false" />
    <inkscape:path-effect
       effect="bspline"
       id="path-effect11"
       is_visible="true"
       lpeversion="1.3"
       weight="33.333333"
       steps="2"
       helper_size="0"
       apply_no_weight="true"
       apply_with_weight="true"
       only_selected="false"
       uniform="false" />
    <inkscape:path-effect
       effect="bspline"
       id="path-effect10"
       is_visible="true"
       lpeversion="1.3"
       weight="33.333333"
       steps="2"
       helper_size="0"
       apply_no_weight="true"
       apply_with_weight="true"
       only_selected="false"
       uniform="false" />
    <inkscape:path-effect
       effect="bspline"
       id="path-effect9"
       is_visible="true"
       lpeversion="1.3"
       weight="33.333333"
       steps="2"
       helper_size="0"
       apply_no_weight="true"
       apply_with_weight="true"
       only_selected="false"
       uniform="false" />
    <inkscape:path-effect
       effect="bspline"
       id="path-effect8"
       is_visible="true"
       lpeversion="1.3"
       weight="33.333333"
       steps="2"
       helper_size="0"
       apply_no_weight="true"
       apply_with_weight="true"
       only_selected="false"
       uniform="false" />
  </defs>
  <sodipodi:namedview
     id="namedview8"
     pagecolor="#ffffff"
     bordercolor="#000000"
     borderopacity="0.25"
     inkscape:showpageshadow="2"
     inkscape:pageopacity="0.0"
     inkscape:pagecheckerboard="0"
     inkscape:deskcolor="#d1d1d1"
     inkscape:zoom="1"
     inkscape:cx="150"
     inkscape:cy="149.5"
     inkscape:window-width="1366"
     inkscape:window-height="705"
     inkscape:window-x="-8"
     inkscape:window-y="-8"
     inkscape:window-maximized="1"
     inkscape:current-layer="svg8" />
  <path
     id="path8"
     style="color:#000000;fill:#000000;stroke-width:1;stroke-linecap:round;stroke-linejoin:round;-inkscape-stroke:none"
     d="m 141.42584,16.692929 c -0.49667,-0.0064 -0.99043,0.06219 -1.47993,0.17719 -1.958,0.459429 -3.40288,2.372913 -4.45625,5.042418 -0.52668,1.334752 -1.14232,3.753016 -1.39455,5.055084 -0.0914,0.471739 -0.0981,0.513979 -0.11384,0.60102 -0.043,0.07741 -1.07908,3.765551 -1.99071,9.059922 -0.97892,5.685192 -1.78127,12.847924 -2.44607,22.074023 -0.66481,9.226099 -1.16239,19.860126 -1.43649,27.964231 -0.2741,8.104103 -0.26741,11.691755 -0.52726,16.905073 -0.0755,1.51593 -0.18655,3.37525 -0.31007,5.35246 -2.52431,0.0586 -5.17033,0.0823 -7.86997,0.0823 a 3.8346268,16.196482 0 0 0 -3.83463,16.19648 3.8346268,16.196482 0 0 0 3.83463,16.19648 c 2.01513,0 4.00669,-0.006 5.95266,-0.0259 -0.0381,2.02598 -0.0183,3.11419 -0.0239,3.28358 -0.009,0.27858 -0.0932,0.46819 -0.2906,4.63749 -0.11532,2.43541 -0.17687,4.17474 -0.18723,4.86527 -0.10734,1.40164 -0.28209,4.19586 -0.358,7.4023 -0.12706,5.36668 -0.10186,11.27975 -0.10186,29.2296 v 77.31922 a 3.8346268,16.196482 0 0 0 3.83462,16.19649 3.8346268,16.196482 0 0 0 3.83463,-16.19649 v -77.31922 c 0,-17.94985 0.0266,-24.46585 0.0629,-26.00296 0.0364,-1.53715 -0.0684,1.87017 0.23218,-3.20765 0.22542,-3.80843 0.24561,-5.6468 0.22767,-6.02309 0.0626,-0.66304 0.22425,-2.93551 0.33853,-6.31409 0.13298,-3.93164 0.16111,-6.31455 0.10934,-5.79529 0.11175,-0.87063 0.13723,-0.6444 0.22319,-1.73351 0.0214,-0.27146 0.0287,-0.41991 0.0465,-0.658 1.78334,-0.15743 3.39996,-0.37955 4.72139,-0.72126 2.14203,-0.55392 3.56882,-1.36968 4.76631,-2.71418 1.19749,-1.3445 2.20371,-3.70948 2.61235,-4.74505 a 3.8346268,16.196482 0 0 0 1.31515,-22.21956 3.8346268,16.196482 0 0 0 -2.35769,-7.37698 3.8346268,16.196482 0 0 0 -2.90294,1.8221 c -0.40863,1.03557 -0.22001,0.74702 -0.63661,1.21474 -0.41659,0.46775 -1.40139,1.20126 -3.26392,1.68291 -0.67724,0.17525 -1.50408,0.31065 -2.39215,0.43021 0.30493,-6.77862 0.33967,-11.32675 0.53774,-17.18343 0.21626,-6.393852 0.70099,-16.465343 1.18036,-23.117952 0.47934,-6.652607 0.98345,-10.535745 1.31215,-12.444728 0.3287,-1.908982 0.46594,-2.037582 1.24476,-5.32712 0.1016,-0.429142 0.0726,-0.365004 0.15428,-0.752878 -0.0689,0.14221 -0.0398,-0.200188 0.77892,-0.392278 0.91876,-0.215413 2.76712,0.672445 3.24295,1.050245 0.45467,2.091905 0.6159,2.771315 0.60066,2.480101 0.13809,0.865994 0.2153,1.567399 0.50628,2.79642 0.0893,0.37699 0.006,0.02592 0.0809,0.341649 0.0764,0.737652 0.0907,1.144185 0.33853,2.714174 0.20736,1.313729 0.22667,1.201001 0.37297,1.841087 -0.004,0.06802 0.34377,3.856156 0.65159,7.756592 a 3.8346268,16.196482 0 0 0 4.8502,10.243012 3.8346268,16.196482 0 0 0 2.42511,-20.486023 c -0.32691,-4.142283 -0.55689,-7.829802 -1.10696,-12.476345 -0.20661,-1.745398 -0.50629,-3.466079 -0.7744,-4.827328 -0.0743,-0.768588 -0.15905,-1.830139 -0.52727,-4.162982 -0.2894,-1.833507 -0.65369,-3.269066 -0.98861,-4.675471 -0.0703,-0.351788 -0.0645,-0.563897 -0.1438,-0.898419 -1.06727,-4.507935 -0.74882,-3.105675 -0.38047,-1.031262 0.36837,2.07451 -1.54115,-8.241711 -3.5665,-10.685856 -1.51902,-1.83315 -3.03665,-2.483504 -4.52665,-2.499084 z m 46.42894,23.877145 c -1.1281,-0.0528 -2.5415,0.08875 -4.62552,0.08875 h -17.24534 a 3.8346268,16.196482 0 0 0 -3.83462,16.196482 3.8346268,16.196482 0 0 0 3.83462,16.196481 h 17.24534 c 1.66576,0 1.42131,0.05344 2.41012,0.151927 -0.30451,5.58688 -0.60362,12.684535 -0.73696,14.937465 -0.0303,0.512198 -0.0356,0.602736 -0.0389,0.664283 -0.0156,0.07094 -0.27794,1.931009 -0.45087,4.852628 -0.37351,6.310344 -0.18011,5.788946 -0.32803,8.28803 -0.14793,2.49912 -0.60653,7.83139 -0.91373,10.68589 -0.30719,2.85453 -0.54378,3.79017 -0.96913,8.28172 -0.16929,1.78751 -0.23842,2.6489 -0.2936,3.37849 -0.14971,0.94095 -0.36426,2.37929 -0.62013,4.27055 -0.54897,4.05774 -0.95319,7.89786 -0.83882,7.1366 -0.19494,0.90587 -0.4371,1.95498 -0.67256,3.61256 -0.58495,4.11789 -0.82233,6.71768 -0.75494,6.39002 -0.16843,0.68216 -0.27617,0.99644 -0.49581,2.23334 -0.64831,3.65105 -0.81723,5.24825 -0.71899,4.86527 -0.28269,1.04969 -0.64404,2.61886 -0.94966,5.20058 -0.20019,1.69107 -0.0957,1.05118 -0.1438,1.71457 0.0937,-0.80255 -0.15204,-0.0558 -0.84332,3.44806 -0.74767,3.78959 -1.06248,6.3772 -0.98413,6.12431 -0.16936,0.55247 -0.27162,0.80561 -0.49879,1.76516 -0.77883,3.28954 -1.22947,5.77362 -1.77952,10.42017 -0.26213,2.21438 -0.39697,3.54503 -0.44937,4.21992 -0.17443,0.84732 -0.48514,2.61175 -0.88076,5.39675 -0.20366,1.43367 -0.2592,2.46267 -0.36848,3.70112 -0.10875,0.529 -0.17742,0.58628 -0.26963,1.17044 -0.27921,1.76899 -0.4343,2.84149 -0.54074,3.62523 -0.20649,0.87951 -0.55091,2.60156 -0.93019,5.00446 -0.76321,4.83549 -1.09055,8.28534 -0.98113,7.5921 0.10943,-0.69327 -0.81707,3.74431 -1.62073,11.38185 -0.80366,7.63748 -1.74697,19.13809 -2.72768,30.87454 a 3.8346268,16.196482 0 0 0 2.33973,20.66315 3.8346268,16.196482 0 0 0 4.89214,-9.88239 c 0.98071,-11.73641 2.00054,-23.71267 2.50449,-28.50201 0.50395,-4.78927 0.22988,-1.73159 0.99311,-6.56716 0.53718,-3.40343 0.84616,-6.02952 0.95116,-7.09862 l 0.002,0.006 c 0.0565,-0.0411 0.26768,-0.88748 0.80438,-3.90993 0.73404,-4.13382 0.81641,-5.57438 0.59467,-4.46034 0.25294,-1.10182 0.53405,-2.41104 0.74895,-4.22629 0.27298,-2.30593 0.26707,-2.61285 0.25613,-2.87235 0.0739,-0.13671 0.40124,-1.78272 0.90923,-5.35873 0.70938,-4.99379 0.6918,-6.77408 0.63211,-6.26982 -0.0572,0.48314 0.39896,-2.15527 0.32955,-1.92334 0.22099,-0.70056 0.75298,-2.5808 1.10695,-4.57424 0.73598,-4.14487 0.87893,-5.66582 0.8583,-5.56122 -0.0206,0.10467 0.28429,0.0418 1.26572,-5.4853 0.27557,-1.55191 0.33478,-2.69201 0.47483,-4.07441 0.1351,-0.59367 0.2254,-0.78647 0.34302,-1.44882 0.73603,-4.145 1.06202,-6.90675 0.81636,-5.52326 0.24911,-1.05737 0.61146,-2.63843 0.87477,-4.49198 0.54187,-3.81457 0.84111,-6.74789 0.82685,-6.88352 0.19088,-0.88296 0.41907,-1.88938 0.64409,-3.47339 0.63203,-4.44917 0.84794,-7.20388 0.94068,-7.88944 0.0927,-0.68557 0.29596,-0.72868 0.91672,-5.97245 0.46556,-3.9329 0.5457,-5.76621 0.51528,-5.99779 0.12464,-0.91717 0.42055,-3.34988 0.77291,-6.6241 0.51007,-4.73964 1.03114,-10.449 1.37358,-16.23445 0.26658,-4.50382 0.39572,-8.25486 0.34751,-8.14884 0.16259,-1.55317 0.33381,-3.381013 0.46884,-5.66245 0.34244,-5.785383 0.66995,-14.070694 0.81786,-16.569746 0.14793,-2.499149 -0.15934,3.201948 0.40743,-3.979541 0.15811,-2.003472 0.12128,-2.20609 0.1423,-3.017857 0.0678,-0.457453 0.0792,-0.21347 0.1408,-0.733896 0.49818,-4.208299 0.4202,-5.597471 0.44787,-6.415329 0.007,-0.208611 0.009,-0.234201 0.0135,-0.347964 0.0381,0.05053 0.58409,-3.675922 -0.0658,-11.36287 -0.34457,-4.074969 -1.1579,-7.613351 -1.82145,-9.287645 -0.66356,-1.674327 -1.19172,-2.216392 -1.66117,-2.612946 -0.93891,-0.793142 -1.78083,-1.041596 -2.90892,-1.094526 z M 57.177887,44.903896 a 3.8346268,16.196482 0 0 0 -3.248948,11.64757 c -0.653806,9.665284 -1.307667,19.244401 -1.680644,25.939671 -0.270216,4.85062 -0.393609,7.644221 -0.41342,8.471504 -0.08205,0.450749 -0.3357,2.545536 -0.635111,6.339433 -0.201003,2.546961 -0.314745,4.775566 -0.36399,6.105296 -0.06554,0.67627 -0.162236,1.89324 -0.290592,4.06179 -0.262988,4.44314 -0.24788,6.19745 -0.217196,6.08631 9e-5,-0.28247 -0.204833,1.98802 -0.349011,6.25084 -0.154032,4.55416 -0.131406,6.96258 -0.221689,9.05992 -0.09028,2.09732 -0.426889,6.57318 -0.723487,12.83698 -0.296599,6.26376 -0.471887,13.21448 -0.560214,21.04907 -0.08833,7.83463 -0.110394,15.10928 -0.41492,21.28322 -0.304524,6.1739 -1.018868,13.66403 -1.577289,20.34683 -0.558422,6.68276 -0.248532,5.72717 -1.737565,13.51392 -1.489034,7.78676 -4.727549,21.5469 -7.07309,27.13543 -2.34554,5.58856 -4.614703,6.0728 -6.147387,5.55491 -1.532682,-0.5179 -1.589022,-1.15662 -2.636305,-2.8154 -0.210511,-0.33347 -0.326038,-0.40459 -0.510784,-0.63902 -0.272877,-0.8785 -0.500311,-1.72356 -0.629119,-1.91699 0.03524,0.0703 -0.244329,-0.89878 -1.150388,-5.31449 -1.011442,-4.92933 -2.66502,-13.49973 -3.220487,-17.01897 -0.555467,-3.5192 -0.21591,-1.08095 -0.554223,-6.32041 -0.338312,-5.23946 -0.677102,-8.71578 -0.873276,-15.62073 -0.196176,-6.90496 -0.216453,-18.26442 -0.136309,-31.12763 0.08014,-12.86322 0.243689,-27.48187 0.326541,-45.67914 0.08285,-18.19729 0.08239,-39.664047 0.08239,-61.065786 A 3.8346268,16.196482 0 0 0 18.386742,46.871542 3.8346268,16.196482 0 0 0 14.552116,63.068024 c 0,21.401739 -2.87e-4,42.743356 -0.08089,60.445756 -0.0806,17.7024 -0.243234,32.08022 -0.326543,45.45138 -0.08331,13.37117 -0.103947,25.4802 0.190233,35.83471 0.294181,10.35455 0.936931,17.92885 1.088974,20.28357 0.152044,2.35472 0.492247,8.9298 1.571299,15.76627 1.079051,6.83643 2.692737,14.83821 3.806166,20.26458 1.113431,5.42635 1.659796,8.04483 2.477529,10.63526 0.180894,0.57304 0.315177,0.78719 0.495806,1.23373 0.272455,1.1123 0.541741,2.28605 0.906231,3.05582 0.996335,2.10415 1.175911,1.66891 1.271717,1.75884 0.09581,0.0901 0.110997,0.0975 0.241163,0.30352 0.26033,0.41233 2.164776,3.91381 4.718388,4.77669 2.553612,0.86286 6.496671,-0.036 10.525751,-9.63563 4.029081,-9.59979 7.328553,-24.83019 9.272008,-34.99328 1.943454,-10.16307 2.581003,-18.02633 3.003291,-23.07999 0.422291,-5.05362 1.341668,-14.13363 1.854402,-24.52879 0.512735,-10.39517 0.491083,-19.68758 0.566206,-26.35094 0.07512,-6.66333 0.225657,-12.14252 0.419413,-16.23444 0.193757,-4.09188 0.51233,-7.89689 0.748951,-13.39371 0.236619,-5.49683 0.258705,-9.99615 0.268124,-10.27466 0.0094,-0.27858 0.09317,-0.46818 0.290593,-4.63751 0.07788,-1.64462 0.11609,-2.71809 0.148292,-3.66319 0.06465,-0.63011 0.166667,-1.91744 0.302576,-4.21361 0.162514,-2.74566 0.21704,-4.00996 0.223188,-4.49832 0.104628,-0.71478 0.32482,-2.64174 0.593168,-6.04203 0.405974,-5.144196 0.304849,-6.384976 0.585679,-11.426131 0.280831,-5.041156 0.935465,-14.793899 1.589274,-24.459214 a 3.8346268,16.196482 0 0 0 -2.63331,-20.024165 3.8346268,16.196482 0 0 0 -1.49191,-0.518805 z m 130.624473,7.838872 c -0.17042,0.599787 -0.55848,3.289925 -0.90174,5.56754 0.0449,-0.556674 -0.0416,0.0097 0.0899,-1.100875 0.41642,-3.517713 1.06632,-5.362332 0.81186,-4.466665 z m 31.34208,2.435788 a 3.8346268,16.196482 0 0 0 -2.76662,4.137683 c -1.63452,6.213424 -3.25066,12.319011 -4.31395,16.810199 -0.49454,2.088731 -0.81122,3.4447 -0.99762,4.295857 -0.21592,0.483918 -0.59167,1.482076 -1.12642,3.176034 -0.86724,2.747312 -0.89295,3.545571 -0.80587,3.49235 -0.14968,0.42451 -0.28873,0.808884 -0.48532,1.562701 -0.28399,0.548251 -0.52714,0.839043 -0.82234,1.670278 -1.14484,3.223651 -1.47205,5.068754 -2.12552,6.908804 -0.65348,1.840082 -1.80398,4.236318 -2.84751,6.991048 -0.651,1.71855 -1.20318,3.96597 -1.46945,5.15631 -0.042,-0.0227 -0.46557,1.39076 -1.08897,4.02383 -0.0707,0.29866 -0.0644,0.38456 -0.12882,0.69593 -0.38999,1.01613 -0.75787,1.67633 -1.09646,3.10645 -0.88987,3.75855 -1.21667,6.17607 -1.28221,6.97838 -0.0972,0.17007 -0.38167,1.19838 -0.95416,4.42242 -0.56096,3.15912 -0.42644,2.86289 -0.45387,3.4101 -0.12587,0.53504 0.0175,-0.0738 -0.17075,0.72127 -0.64299,2.71576 -0.81179,4.35682 -0.88527,5.39038 -0.009,-0.10754 -0.20911,0.83541 -0.66806,3.5493 -0.56927,3.36624 -1.0953,6.84887 -1.54883,11.31859 -0.12353,1.21745 -0.16123,2.01131 -0.23517,3.03049 -0.11916,0.62048 -0.22422,0.94607 -0.32953,1.61333 -0.65414,4.14435 -1.39137,11.79634 -1.76004,24.64269 -0.36866,12.84634 -0.53765,31.18503 -0.34751,44.03417 0.0951,6.4246 0.2803,11.44166 0.67405,16.11425 0.39376,4.67259 1.1229,8.94376 1.66716,11.24263 0.80292,3.3913 1.57149,5.54629 1.85291,6.21921 -0.11472,-0.034 -0.058,0.93962 1.18334,4.43505 1.55413,4.37606 1.59481,2.99159 1.47543,2.73948 -0.11937,-0.25203 0.53412,1.81446 1.63421,4.13768 0.94157,1.98847 1.55852,2.53912 1.56381,2.39786 0.0999,0.27631 1.29799,2.66506 2.75614,3.61256 1.64664,1.07 3.27896,0.87944 4.58657,0.87944 1.30762,0 3.7612,-0.87937 5.88676,-6.86453 2.12555,-5.98518 4.55192,-16.21481 5.88974,-31.75398 1.33783,-15.53913 1.23536,-31.03972 1.03205,-40.48489 -0.10164,-4.72256 -0.25277,-8.39982 -0.6366,-12.14101 -0.38383,-3.74119 -1.03349,-6.81357 -0.84931,-5.77635 0.36836,2.07448 0.44072,-0.0998 -1.00959,-6.22549 -0.7153,-3.02126 -1.50528,-4.28771 -1.77801,-4.71977 0.15966,0.29964 -0.45597,-1.82592 -1.423,-4.54894 -1.06278,-2.9926 -2.11936,-5.3745 -2.18543,-5.57386 -0.0331,-0.0998 -0.006,-1.2e-4 -0.23967,-0.92372 -0.23325,-0.92359 -0.85001,-3.28095 -1.70911,-4.73242 -1.7182,-2.90288 -2.12367,-1.83447 -2.70071,-2.27761 -0.57704,-0.44314 -2.04528,-2.12906 -4.08178,-2.94828 -0.35752,-0.14375 -0.79448,-0.0378 -1.16837,-0.13287 -3.9e-4,0.001 0.002,-0.0123 0.002,-0.0123 h 0.002 c 0.0969,-0.23484 0.43976,-1.71271 0.93618,-4.33383 0.55316,-2.92045 0.48919,-2.89317 0.48682,-3.15705 0.0339,-0.0719 -0.004,0.006 0.0314,-0.0696 0.73575,-1.55379 1.17886,-3.76254 1.44249,-5.23852 -0.28195,1.23977 0.1284,0.12212 0.94367,-3.32158 0.18161,-0.767 0.25365,-1.1102 0.30408,-1.36656 0.33849,-0.84267 1.69312,-3.76157 2.95237,-7.3074 1.25166,-3.52451 2.09836,-6.71344 2.03414,-6.60512 0.0407,0.068 -0.0413,0.4604 0.65907,-1.01863 0.52476,-1.10822 0.94807,-2.77918 1.27322,-4.3781 0.14851,-0.47252 0.23728,-0.47705 0.37747,-1.06923 0.39606,-1.67284 0.4504,-1.93561 0.52427,-2.28393 -0.0206,0.30709 -1.3e-4,0.65201 0.86279,-2.08151 1.14497,-3.627 1.06583,-4.61567 1.80048,-7.718623 0.73465,-3.102986 2.38735,-9.420003 4.02187,-15.633427 a 3.8346268,16.196482 0 0 0 0.2846,-22.877531 3.8346268,16.196482 0 0 0 -2.64829,-5.339753 z m 60.86721,0.01943 a 3.8346268,16.196482 0 0 0 -1.19533,0.442877 c -1.30761,1.38075 -2.56705,2.408448 -3.97692,5.055051 -1.22296,2.295785 -2.29063,7.020625 -2.13751,6.472276 -0.22228,0.615174 -0.32445,0.674486 -0.5692,1.708243 -0.22677,0.957827 -0.20772,0.843675 -0.33703,1.353897 -0.39894,1.080466 -0.86411,2.333847 -1.29868,4.16933 -1.0929,4.616159 -1.65949,8.394831 -1.7151,8.629713 -0.0556,0.234847 0.14261,-1.981607 -1.30766,4.143999 -0.43653,1.843775 -0.7003,3.699082 -0.87029,5.124663 -0.22769,0.906421 -0.66116,2.84352 -1.16387,5.232242 -0.91149,4.331133 -1.67026,8.917783 -2.43258,12.723083 -0.76234,3.8053 -1.76031,7.86576 -2.70671,13.3621 -0.88677,5.14999 -1.36837,9.70697 -1.32265,9.53441 -0.16732,0.66999 -0.29209,1.05245 -0.52426,2.3599 -0.36801,2.07247 -0.83413,6.10821 -1.06052,9.93298 -0.22639,3.82477 -0.37694,8.29892 -0.50929,15.00707 -0.2647,13.41626 -0.42092,35.35096 -0.50329,49.2664 -0.0824,13.91544 -0.13132,19.10459 0.0285,24.50349 0.0799,2.69948 0.17494,6.70411 1.12342,11.21101 0.60452,2.87248 1.15808,4.0215 1.53985,4.62488 0.0271,0.1082 -0.006,-0.009 0.0225,0.101 0.46889,1.8281 0.96457,3.16376 1.5713,4.56159 1.21347,2.79563 3.35855,6.88304 6.25224,8.9903 2.89367,2.10726 5.86447,2.20509 8.16656,0.74656 1.15104,-0.72926 2.16409,-2.05011 3.02426,-4.20729 0.86017,-2.15718 1.46904,-5.11029 1.40653,-4.84628 -0.12501,0.528 0.2611,0.99029 1.29718,-5.5739 0.75613,-4.79049 0.90252,-8.07559 0.83433,-8.33231 0.11494,-1.3647 0.24842,-3.18271 0.32954,-5.23855 0.19532,-4.94974 0.15421,-6.32551 0.24415,-7.71863 0.09,-1.39312 0.73168,-7.51987 1.13542,-16.89877 0.40373,-9.37889 0.55272,-20.1868 0.55272,-27.05948 10e-6,-3.43641 0.0138,-5.6772 -0.24865,-9.44586 -0.26243,-3.76866 -1.9834,-11.52173 -1.12043,-7.87681 0.19281,0.81433 0.33438,1.51531 0.44638,2.12579 -0.16739,-1.19319 -0.39509,-2.59878 -0.69204,-3.85297 -0.5997,-2.533 -0.81668,-3.22903 -0.87477,-3.28361 -0.19481,-1.23716 -0.81994,-4.33192 -2.08208,-6.99737 -0.85492,-1.80548 -1.50303,-2.1968 -1.9293,-2.47376 -0.14345,-0.0933 -0.22827,-0.15873 -0.32354,-0.22771 -0.17306,-0.21964 -0.48689,-0.55911 -0.82985,-0.8225 -0.67246,-0.51644 -1.39624,-0.75093 -2.66925,-0.93634 -1.72963,-0.25202 -5.08572,-0.22546 -8.1396,-0.24684 0.005,-0.0372 0.0126,-0.0515 0.0179,-0.0884 0.63201,-4.44911 0.67833,-5.68412 1.03955,-7.78193 0.36121,-2.09777 1.32354,-6.31974 2.35919,-11.48937 1.03565,-5.16962 1.91214,-10.24612 2.30827,-12.12837 0.39612,-1.8823 0.60935,-1.38814 1.59077,-6.91516 0.18276,-1.02928 0.23233,-1.55467 0.29658,-2.18905 0.0602,0.11435 0.46954,-1.15442 1.1459,-4.01115 0.96884,-4.09221 1.46634,-7.180329 1.52785,-7.68067 0.0436,-0.0324 0.0671,-0.0014 0.66657,-1.689262 1.11972,-3.152968 1.51563,-5.400878 1.39155,-5.333436 0.0735,-0.179782 0.14588,-0.375758 0.25464,-0.835155 0.086,-0.363191 -0.004,-0.01943 0.0539,-0.272101 0.1849,-0.266919 1.34,-1.754987 2.57789,-3.06214 a 3.8346268,16.196482 0 0 0 2.79059,-19.638235 3.8346268,16.196482 0 0 0 -3.45566,-12.229607 z m 2.97483,114.185204 c 0.13343,0.95115 0.23121,1.77682 0.27561,2.21435 0.0777,0.76607 0.11365,-0.0923 -0.27561,-2.21435 z M 186.88564,56.576766 c 2.4e-4,0.05928 -0.006,0.218328 -0.0225,0.493474 -0.0434,0.734802 -0.037,0.846979 -0.0599,1.385576 0.0222,-1.322377 0.0816,-2.057309 0.0824,-1.87905 z m 59.73031,0.588385 c -0.70919,-0.02592 -1.60197,0.06317 -2.99132,0.06317 h -11.93227 a 3.8346268,16.196482 0 0 0 -3.83463,16.196482 3.8346268,16.196482 0 0 0 3.83463,16.196482 h 11.93227 c 0.62912,0 0.35402,0.0064 0.81936,0.0324 -0.0203,2.129546 -0.01,4.637701 -0.0479,5.928172 -0.10491,3.545021 -0.17772,3.494877 -0.52126,7.364353 -0.34355,3.86943 -0.44391,5.88943 -0.86879,10.37585 -0.42487,4.48646 -1.24217,11.95744 -1.76752,18.17045 -0.43111,5.09849 -0.50173,6.46923 -0.32055,5.32712 -0.16762,0.76188 -0.72351,4.69905 -1.04853,9.27501 -0.4288,6.03724 -0.52409,10.87837 -0.58119,12.57757 -0.53864,3.12621 -0.79868,5.92305 -0.98562,8.68663 -0.24296,3.59167 -0.38537,6.55981 -0.52276,8.3007 -0.1374,1.7409 -0.4993,4.81748 -0.85231,9.7875 -0.353,4.97002 -0.49538,8.6622 -0.70101,11.26792 -0.20163,2.55491 -0.66786,6.25784 -0.68605,6.40267 -0.21235,1.00652 -0.78296,3.94229 -1.02905,7.06065 -0.15795,2.00124 -0.12123,2.19979 -0.14231,3.01154 -0.0677,0.4575 -0.0792,0.21348 -0.14079,0.7339 -0.29272,2.47269 -0.30954,3.12525 -0.30558,3.57462 -0.10886,0.46044 -0.4935,3.10372 -0.83583,6.95945 -0.49109,5.53138 -0.60047,9.92841 -0.76393,14.07069 a 3.8346268,16.196482 0 0 0 3.15159,18.63858 3.8346268,16.196482 0 0 0 4.41281,-13.31781 c 0.16345,-4.14225 0.38122,-8.0307 0.38047,-8.02232 -7.4e-4,0.009 -0.0456,1.27693 0.5752,-3.96687 0.24702,-2.08679 0.32623,-3.56562 0.38645,-4.69444 -0.007,0.0907 -0.0325,0.33167 -0.1408,1.24638 -0.41645,3.51801 -1.06632,5.36232 -0.81187,4.46666 0.17743,-0.62443 0.58885,-3.39453 0.93919,-5.7953 6.1e-4,0.0687 0.0139,0.006 0.0195,0 0.003,-0.0524 0.008,-0.13272 0.0105,-0.18334 0.13841,-0.97497 0.29793,-1.32674 0.37746,-2.33455 0.13238,-1.67731 0.09,-1.72782 0.11834,-2.52439 0.0695,-0.38732 0.1049,-0.45899 0.16927,-0.86678 0.65412,-4.14435 1.1441,-8.53739 1.59227,-14.21619 0.44816,-5.67882 0.63257,-10.27055 0.76992,-12.20431 0.13735,-1.93377 0.42894,-4.37859 0.7819,-8.85113 0.33818,-4.2851 0.50756,-7.84181 0.59617,-9.24335 0.12168,-0.56921 0.0267,0.0524 0.17525,-0.80983 0.53687,-3.11798 0.74631,-6.14381 0.88675,-8.81318 0.25768,-4.89741 0.41723,-9.62117 0.45986,-10.67323 0.0233,0.10759 0.12847,-0.45884 0.53475,-3.89094 0.84941,-7.17537 0.46153,-6.63256 0.75345,-10.08484 0.29191,-3.45232 1.10984,-11.16871 1.66566,-17.03796 0.55583,-5.86925 0.78189,-9.37394 0.9287,-11.0275 0.14681,-1.6536 0.72768,-7.22133 0.94967,-14.722381 0.22199,-7.501013 0.19324,-15.815087 0.19324,-20.302517 0,-2.24373 0.20784,-3.541102 -0.25765,-9.439537 -0.23275,-2.949184 -0.94482,-7.298004 -1.74056,-9.414204 -0.79573,-2.116168 -1.36858,-2.414346 -1.69562,-2.644562 -0.6541,-0.460466 -1.17967,-0.605457 -1.88886,-0.632699 z M 241.23548,227.0827 c -0.002,0.0227 -0.004,0.0579 -0.006,0.0823 0.003,-0.0259 0.008,-0.0849 0.006,-0.0823 z M 89.439679,67.58532 a 3.8346268,16.196482 0 0 0 -3.785193,16.398939 l 0.19922,66.443541 H 70.365409 a 3.8346268,16.196482 0 0 0 -3.834627,16.19648 3.8346268,16.196482 0 0 0 3.834627,16.19649 H 85.95107 l 0.193229,64.78592 a 3.8346268,16.196482 0 0 0 3.884057,15.98768 3.8346268,16.196482 0 0 0 3.785196,-16.39893 L 93.62032,182.44747 c 0.02007,-0.006 0.04439,-0.006 0.06438,-0.0123 1.403034,-0.42327 2.629675,-1.41583 3.729773,-3.73908 0.47051,-0.9937 0.826048,-1.87854 1.066499,-2.53071 0.19581,-0.26756 0.525474,-0.82822 1.059022,-1.95497 0.535296,-1.13049 0.799156,-1.75849 0.901736,-2.06884 0.13471,-0.0454 0.33353,-0.18691 0.80287,-0.8478 0.27515,-0.38738 0.18554,-0.39062 0.38496,-0.83512 0.10574,-0.0363 0.11489,-0.0378 0.33104,-0.0884 0.36777,-0.0861 0.74345,-0.0774 1.39754,-0.53779 0.39753,-0.27988 0.65515,-0.80761 0.96015,-1.32228 0.0754,0.0616 1.01341,-0.18334 1.84242,-0.18334 a 3.8346268,16.196482 0 0 0 3.83463,-16.19648 3.8346268,16.196482 0 0 0 -3.83463,-16.19649 c -0.9807,0 -1.77449,-0.35781 -3.08268,0.56309 -0.41698,0.29348 -0.68186,0.85589 -1.00359,1.39186 0.11507,-0.0871 -0.18714,0.0567 -0.53924,0.1393 -0.36777,0.0862 -0.74495,0.0836 -1.39904,0.5441 -0.418856,0.29478 -0.921936,1.0428 -1.346611,1.84741 -0.300772,0.19176 -0.726563,0.49111 -1.327147,1.50578 -0.663534,1.12103 -1.120658,2.18795 -1.369079,2.88497 -0.208642,0.31972 -0.501401,0.83115 -0.964652,1.80948 -0.98008,2.06981 -1.196165,2.95168 -1.186335,3.11273 -0.07269,0.0619 -0.22183,0.14835 -0.419414,0.24036 L 93.323702,83.580059 A 3.8346268,16.196482 0 0 0 89.439645,67.586033 Z M 198.65915,180.88477 c 1.74532,0.0356 3.54555,0.048 4.6375,0.48715 1.39597,0.56156 2.21525,1.63106 3.43618,2.56867 0.4981,0.38252 0.85747,0.70779 1.14889,0.94902 0.16024,0.5793 0.19725,0.81742 0.41492,1.47413 1.07808,3.25251 1.98085,5.01891 2.38915,6.16856 0.40829,1.14969 0.60769,2.59027 1.78999,5.58652 0.0903,0.2287 0.0941,0.16165 0.17975,0.35432 0.11739,0.65544 0.1576,0.90056 0.31606,1.79046 -0.0227,-0.24134 -0.0199,-0.51674 0.027,1.6576 0.12361,5.74319 0.0215,19.24046 -0.60217,26.48378 -0.6236,7.24336 -2.11929,13.57447 -2.93589,15.87383 -0.81657,2.29937 -0.32509,1.42354 -1.6327,1.42354 -1.30762,0 -2.94299,-0.18919 -3.42121,-0.49983 -0.47823,-0.31066 -0.057,0.006 -1.12043,-1.79049 -1.06342,-1.79665 -1.05409,-1.42892 -0.9347,-1.17678 0.11938,0.25202 -0.53411,-1.82077 -1.6342,-4.14399 -0.2986,-0.63064 -0.414,-0.85421 -0.61713,-1.27801 -0.19039,-0.67523 -0.30598,-1.12122 -0.58269,-2.05619 -0.90277,-3.05049 -1.10857,-3.36453 -1.19832,-3.62523 -0.0447,-0.60277 -0.16645,-2.49274 -0.23067,-6.83291 -0.13678,-9.24294 0.0219,-28.1825 0.30706,-38.11865 0.14282,-4.97663 0.16719,-3.89677 0.26363,-5.2955 z m 65.66798,2.01189 c 3.54501,0.0163 7.31071,0.0123 8.99489,0.25947 0.96166,0.13993 1.366,0.34845 1.46944,0.40491 -4e-4,0.0259 0.0727,0.12889 0.4299,0.50614 0.3823,0.40367 0.37429,0.30125 0.52277,0.3733 0.10674,0.40951 0.12078,0.43423 0.31006,1.23371 0.14588,0.61615 0.0169,-0.0163 0.15278,0.51877 -0.0245,4.78684 -0.16434,14.2823 -0.39543,19.6509 -0.25009,5.80943 -0.58972,7.96457 -0.99012,14.16562 -0.4004,6.201 -0.44078,11.7274 -0.40893,10.91995 0.009,-0.22481 -0.0682,0.71375 -0.051,0.3733 -0.091,0.41022 -0.12277,0.56322 -0.23068,1.02491 -0.0191,5.2e-4 -0.0469,0.009 -0.18274,0.0949 -0.96695,0.61261 -3.88006,0.70561 -5.72648,-0.63899 -1.84641,-1.34462 -3.29805,-4.15766 -3.88256,-5.50427 -0.0508,-0.11694 -0.0569,-0.13732 -0.0718,-0.1772 -0.0101,-0.0527 -0.009,-0.0567 -0.11534,-0.50614 -0.0533,-0.22512 -0.074,-0.20731 -0.12432,-0.41126 -0.0114,-2.37206 -0.0395,-4.45257 0.0209,-14.65908 0.0472,-7.98751 0.17702,-17.66614 0.2786,-27.62889 z" />
</svg>
