<?xml version="1.0" encoding="UTF-8" standalone="no"?>
<svg
   version="1.1"
   width="300"
   height="300"
   id="svg5"
   sodipodi:docname="facedev.svg"
   inkscape:version="1.3.2 (091e20e, 2023-11-25, custom)"
   xmlns:inkscape="http://www.inkscape.org/namespaces/inkscape"
   xmlns:sodipodi="http://sodipodi.sourceforge.net/DTD/sodipodi-0.dtd"
   xmlns="http://www.w3.org/2000/svg"
   xmlns:svg="http://www.w3.org/2000/svg">
  <defs
     id="defs5" />
  <sodipodi:namedview
     id="namedview5"
     pagecolor="#ffffff"
     bordercolor="#000000"
     borderopacity="0.25"
     inkscape:showpageshadow="2"
     inkscape:pageopacity="0.0"
     inkscape:pagecheckerboard="0"
     inkscape:deskcolor="#d1d1d1"
     inkscape:zoom="1.1065217"
     inkscape:cx="229.54813"
     inkscape:cy="230"
     inkscape:window-width="1366"
     inkscape:window-height="705"
     inkscape:window-x="-8"
     inkscape:window-y="-8"
     inkscape:window-maximized="1"
     inkscape:current-layer="svg5" />
  <path
     id="path1"
     d="M 0,0 V 300 H 300 V 0 Z m 184.8913,44.44718 c 9.71821,0.25118 19.94772,3.53263 28.36957,6.42238 l 1.57694,0.45856 c 7.50298,2.196 14.69092,6.46406 21.24915,10.6284 l 1.21773,0.7286 c 2.07278,1.27938 3.11119,2.22976 3.99966,4.48879 0.51615,3.54789 0.58324,6.81658 -1.46739,9.86413 -2.25628,2.35883 -3.36894,2.42782 -6.52174,2.73098 -3.76079,-0.31339 -6.40672,-1.94491 -9.47436,-4.06335 -2.26209,-1.46145 -4.54308,-2.57997 -6.99303,-3.68121 -0.83584,-0.38077 -1.67144,-0.76205 -2.5068,-1.14386 l -1.2241,-0.55409 c -1.06909,-0.50059 -2.11607,-1.0479 -3.16024,-1.59859 -2.0363,-0.95986 -3.91151,-1.45865 -6.11158,-1.92086 -2.23521,-0.48438 -4.41063,-0.97649 -6.60326,-1.63043 -6.89735,-1.88109 -15.50037,-3.93815 -22.05163,-0.28533 -3.05505,2.1105 -5.30086,4.59689 -7.58153,7.5 l -1.49286,1.79093 c -3.09423,3.67142 -3.09424,3.67143 -5.80333,7.62483 -1.48458,2.09889 -2.7851,3.14753 -5.09511,4.2799 -3.76142,-0.13198 -6.71609,-0.78653 -9.33424,-3.5462 -1.5567,-3.28636 -1.78893,-5.92625 -1.10054,-9.49728 4.9342,-11.21557 16.36149,-21.95898 27.3913,-26.73913 3.98855,-1.45923 8.30002,-1.97134 12.71739,-1.85717 z m 11.62067,64.08501 c 2.46612,-0.0501 5.02053,0.42242 7.49618,1.39987 3.06081,1.59476 5.51199,3.73356 7.94837,6.1549 l 1.15659,1.0878 c 7.61063,7.80004 10.17637,17.91253 10.12653,28.46638 -0.17887,7.56242 -2.23488,13.46795 -7.57388,18.95125 -3.76435,2.27612 -7.77419,3.55829 -12.1875,3.0163 -7.67712,-2.15318 -13.26238,-7.13032 -17.6087,-13.69565 -5.30032,-9.54537 -7.83468,-20.62099 -5.39572,-31.4521 0.59949,-1.57425 1.28782,-2.9638 2.13485,-4.41746 l 0.67001,-1.40625 c 2.80772,-5.35565 7.80782,-7.99492 13.23327,-8.10504 z m -86.73021,7.77258 c 8.33541,-0.0157 16.29881,1.44833 22.60954,4.99958 2.0434,2.13844 2.52629,3.32587 2.93479,6.23641 -0.37883,2.60445 -1.09254,3.66048 -2.93479,5.50272 -3.63844,1.81922 -8.082,0.45803 -11.73913,-0.65218 -17.19142,-2.73557 -36.46125,0.48619 -50.86956,10.43479 -2.94347,1.7227 -5.79642,1.82764 -9.13044,1.30434 -2.24639,-1.55871 -3.03726,-2.60402 -3.91304,-5.17663 0,-2.63461 0.42349,-3.74604 1.95652,-5.91032 2.98759,-2.43613 6.35081,-4.26986 9.82337,-5.91797 0.81213,-0.38805 1.61519,-0.79605 2.40489,-1.22792 10.03862,-5.43037 24.96549,-9.56658 38.85785,-9.59282 z m -4.04042,31.99601 c 4.06772,-0.0399 8.17594,1.01258 11.86906,3.29144 4.79724,3.43457 7.99515,7.69496 9.56351,13.40778 0.72134,7.07919 -0.15751,12.84044 -4.6875,18.42391 -5.06607,5.34753 -10.14503,7.61091 -17.40489,7.90761 C 99.18333,191.21995 94.49493,188.93059 90,185.21739 v -1.30435 h -1.30435 c -0.79484,-0.9808 -0.79484,-0.98081 -1.63043,-2.32337 l -0.8356,-1.30689 c -2.68507,-5.36152 -3.13671,-12.38449 -1.69667,-18.21756 0.61405,-1.34766 1.30295,-2.41327 2.20618,-3.58696 l 1.10564,-1.49797 c 4.44944,-5.51225 11.11703,-8.61296 17.89657,-8.67951 z"
     style="stroke-width:0.999998" />
</svg>
