<?xml version="1.0" encoding="UTF-8" standalone="no"?>
<!-- Created with Inkscape (http://www.inkscape.org/) -->

<svg
   width="300"
   height="300"
   viewBox="0 0 300 300"
   version="1.1"
   id="svg1"
   inkscape:version="1.3.2 (091e20e, 2023-11-25, custom)"
   sodipodi:docname="frwd.svg"
   xmlns:inkscape="http://www.inkscape.org/namespaces/inkscape"
   xmlns:sodipodi="http://sodipodi.sourceforge.net/DTD/sodipodi-0.dtd"
   xmlns="http://www.w3.org/2000/svg"
   xmlns:svg="http://www.w3.org/2000/svg">
  <sodipodi:namedview
     id="namedview1"
     pagecolor="#ffffff"
     bordercolor="#000000"
     borderopacity="0.25"
     inkscape:showpageshadow="2"
     inkscape:pageopacity="0.0"
     inkscape:pagecheckerboard="0"
     inkscape:deskcolor="#d1d1d1"
     inkscape:document-units="px"
     inkscape:zoom="1"
     inkscape:cx="150"
     inkscape:cy="150.5"
     inkscape:window-width="1366"
     inkscape:window-height="705"
     inkscape:window-x="-8"
     inkscape:window-y="-8"
     inkscape:window-maximized="1"
     inkscape:current-layer="layer1" />
  <defs
     id="defs1" />
  <g
     inkscape:label="Layer 1"
     inkscape:groupmode="layer"
     id="layer1">
    <path
       id="path1"
       style="color:#000000;fill:#000000;stroke-linecap:round;stroke-linejoin:round;-inkscape-stroke:none"
       d="m 60.834879,58.085938 a 8,8 0 0 1 4.11329,0.476562 l 211.999991,84 a 8.0008,8.0008 0 0 1 0,14.875 l -211.999991,84 a 8,8 0 0 1 -10.38477,-4.49023 8,8 0 0 1 -0.51172,-3.50782 c -3.69404,-2.91507 -8.57285,-7.50101 -13.3125,-14.18164 C 31.261939,205.89946 22.000899,183.97888 22.000899,150 c 0,-33.97888 9.26104,-55.899454 18.73828,-69.257812 4.73965,-6.680628 9.61846,-11.266572 13.3125,-14.181641 a 8,8 0 0 1 0.51172,-3.507813 8,8 0 0 1 6.27148,-4.966796 z m -2.33984,15.072265 c -3.03556,2.452406 -7.06017,6.332017 -11.23242,12.212891 C 38.739899,97.384037 30.000899,117.46441 30.000899,150 c 0,32.53559 8.739,52.61596 17.26172,64.62891 4.17225,5.88087 8.19686,9.76048 11.23242,12.21289 a 8,8 0 0 1 0.55859,-0.2793 L 252.28215,150 59.053629,73.4375 a 8,8 0 0 1 -0.55859,-0.279297 z M 69.000899,100 c 8.24872,0 15,6.75128 15,15 0,8.24872 -6.75128,15 -15,15 -8.24872,0 -15,-6.75128 -15,-15 0,-8.24872 6.75128,-15 15,-15 z m 0,6 c -5.00608,0 -9,3.99392 -9,9 0,5.00608 3.99392,9 9,9 5.00608,0 9,-3.99392 9,-9 0,-5.00608 -3.99392,-9 -9,-9 z m 70.000001,14 c 8.24872,0 15,6.75128 15,15 0,8.24872 -6.75128,15 -15,15 -8.24872,0 -15,-6.75128 -15,-15 0,-8.24872 6.75128,-15 15,-15 z m 0,6 c -5.00608,0 -9,3.99392 -9,9 0,5.00608 3.99392,9 9,9 5.00608,0 9,-3.99392 9,-9 0,-5.00608 -3.99392,-9 -9,-9 z m 60,9 c 8.24872,0 15,6.75128 15,15 0,8.24872 -6.75128,15 -15,15 -8.24872,0 -15,-6.75128 -15,-15 0,-8.24872 6.75128,-15 15,-15 z m 0,6 c -5.00608,0 -9,3.99392 -9,9 0,5.00608 3.99392,9 9,9 5.00609,0 9,-3.99392 9,-9 0,-5.00608 -3.99391,-9 -9,-9 z M 89.000899,175 c 8.24872,0 15.000001,6.75128 15.000001,15 0,8.24872 -6.751281,15 -15.000001,15 -8.24872,0 -15,-6.75128 -15,-15 0,-8.24872 6.75128,-15 15,-15 z m 0,6 c -5.00608,0 -9,3.99392 -9,9 0,5.00608 3.99392,9 9,9 5.00608,0 9,-3.99392 9,-9 0,-5.00608 -3.99392,-9 -9,-9 z" />
  </g>
</svg>
