<svg xmlns="http://www.w3.org/2000/svg" width="300" height="300"><path d="M2 0h2v2H2zm4 0h2v2H6zm4 0h2v2h-2zm4 0h2v2h-2zm4 0h2v2h-2zm4 0h2v2h-2zm4 0h2v2h-2zm4 0h2v2h-2zm4 0h2v2h-2zm4 0h2v2h-2zm4 0h2v2h-2zm4 0h2v2h-2zm4 0h2v2h-2zm4 0h2v2h-2zm4 0h6v2h-6zm8 0h6v2h-6zm8 0h6v2h-6zm8 0h6v2h-6zm8 0h6v2h-6zm8 0h6v2h-6zm8 0h6v2h-6zm8 0h6v2h-6zm8 0h6v2h-6zm8 0h6v2h-6zm8 0h2v2h-2zm4 0h2v2h-2zm4 0h6v2h-6zm8 0h2v2h-2zm4 0h2v2h-2zm4 0h2v2h-2zm4 0h2v2h-2zm4 0h6v2h-6zm8 0h6v2h-6zm8 0h2v2h-2zm4 0h2v2h-2zm4 0h2v2h-2zm4 0h2v2h-2zm32 0h2v2h-2zm8 0h2v2h-2zm4 0h2v2h-2zm4 0h2v2h-2zm4 0h2v2h-2zm4 0h2v2h-2zm4 0h2v2h-2zm4 0h2v2h-2zm4 0h2v2h-2zm4 0h2v2h-2zm4 0h2v2h-2zm4 0h2v2h-2zm4 0h2v2h-2zm4 0h2v2h-2zm4 0h2v2h-2zm4 0h2v2h-2zm4 0h2v2h-2zM0 2h10v2H0zm12 0h2v2h-2zm4 0h2v2h-2zm4 0h2v2h-2zm4 0h2v2h-2zm4 0h2v2h-2zm4 0h2v2h-2zm4 0h6v2h-6zm8 0h6v2h-6zm8 0h150v2H52zm152 0h2v2h-2zm4 0h2v2h-2zm4 0h2v2h-2zm4 0h2v2h-2zm4 0h2v2h-2zm4 0h2v2h-2zm4 0h2v2h-2zm4 0h2v2h-2zm4 0h2v2h-2zm4 0h2v2h-2zm4 0h2v2h-2zm4 0h2v2h-2zm4 0h2v2h-2zm4 0h2v2h-2zm4 0h6v2h-6zm8 0h6v2h-6zm8 0h2v2h-2zm4 0h2v2h-2zm4 0h16v2h-16zM2 4h2v2H2zm4 0h2v2H6zm4 0h2v2h-2zm4 0h2v2h-2zm4 0h2v2h-2zm4 0h2v2h-2zm4 0h2v2h-2zm4 0h2v2h-2zm4 0h2v2h-2zm4 0h2v2h-2zm4 0h2v2h-2zm4 0h2v2h-2zm4 0h2v2h-2zm4 0h2v2h-2zm4 0h2v2h-2zm4 0h2v2h-2zm4 0h2v2h-2zm4 0h6v2h-6zm8 0h6v2h-6zm8 0h6v2h-6zm8 0h6v2h-6zm8 0h6v2h-6zm8 0h6v2h-6zm8 0h6v2h-6zm8 0h6v2h-6zm8 0h6v2h-6zm8 0h6v2h-6zm8 0h6v2h-6zm8 0h6v2h-6zm8 0h6v2h-6zm8 0h6v2h-6zm8 0h6v2h-6zm8 0h6v2h-6zm8 0h6v2h-6zm8 0h2v2h-2zm4 0h2v2h-2zm8 0h2v2h-2zm8 0h2v2h-2zm8 0h2v2h-2zm8 0h2v2h-2zm8 0h2v2h-2zm4 0h2v2h-2zm4 0h2v2h-2zm4 0h2v2h-2zm4 0h2v2h-2zm4 0h2v2h-2zm4 0h2v2h-2zm4 0h2v2h-2zm4 0h2v2h-2zm4 0h2v2h-2zm4 0h2v2h-2zm4 0h6v2h-6zM0 6h30v2H0zm32 0h6v2h-6zm8 0h6v2h-6zm8 0h6v2h-6zm8 0h6v2h-6zm8 0h150v2H64zm152 0h2v2h-2zm4 0h2v2h-2zm4 0h2v2h-2zm4 0h2v2h-2zm4 0h2v2h-2zm4 0h2v2h-2zm4 0h2v2h-2zm4 0h2v2h-2zm4 0h2v2h-2zm4 0h2v2h-2zm4 0h2v2h-2zm4 0h2v2h-2zm4 0h6v2h-6zm8 0h14v2h-14zm16 0h12v2h-12zM2 8h2v2H2zm4 0h2v2H6zm4 0h2v2h-2zm4 0h2v2h-2zm4 0h2v2h-2zm4 0h2v2h-2zm4 0h2v2h-2zm4 0h2v2h-2zm4 0h2v2h-2zm4 0h2v2h-2zm4 0h2v2h-2zm4 0h2v2h-2zm4 0h2v2h-2zm4 0h2v2h-2zm4 0h2v2h-2zm4 0h2v2h-2zm4 0h2v2h-2zm4 0h2v2h-2zm4 0h2v2h-2zm4 0h2v2h-2zm4 0h2v2h-2zm4 0h2v2h-2zm4 0h2v2h-2zm4 0h2v2h-2zm4 0h6v2h-6zm8 0h6v2h-6zm8 0h6v2h-6zm8 0h6v2h-6zm8 0h6v2h-6zm8 0h6v2h-6zm8 0h6v2h-6zm8 0h6v2h-6zm8 0h6v2h-6zm8 0h6v2h-6zm8 0h2v2h-2zm4 0h2v2h-2zm4 0h2v2h-2zm4 0h2v2h-2zm4 0h6v2h-6zm8 0h2v2h-2zm4 0h2v2h-2zm4 0h2v2h-2zm4 0h2v2h-2zm4 0h2v2h-2zm4 0h2v2h-2zm32 0h2v2h-2zm8 0h2v2h-2zm4 0h2v2h-2zm4 0h2v2h-2zm4 0h2v2h-2zm4 0h2v2h-2zm4 0h2v2h-2zm4 0h2v2h-2zm4 0h2v2h-2zm4 0h2v2h-2zm4 0h2v2h-2zM0 10h34v2H0zm36 0h6v2h-6zm8 0h6v2h-6zm8 0h2v2h-2zm4 0h2v2h-2zm4 0h2v2h-2zm4 0h2v2h-2zm4 0h2v2h-2zm4 0h2v2h-2zm4 0h6v2h-6zm8 0h6v2h-6zm8 0h134v2H92zm136 0h2v2h-2zm4 0h2v2h-2zm4 0h2v2h-2zm4 0h2v2h-2zm4 0h2v2h-2zm4 0h2v2h-2zm4 0h2v2h-2zm4 0h2v2h-2zm4 0h2v2h-2zm4 0h2v2h-2zm4 0h2v2h-2zm4 0h2v2h-2zm4 0h6v2h-6zm8 0h6v2h-6zm8 0h6v2h-6zM0 12h4v2H0zm6 0h6v2H6zm8 0h6v2h-6zm8 0h6v2h-6zm8 0h2v2h-2zm4 0h2v2h-2zm4 0h2v2h-2zm4 0h2v2h-2zm4 0h2v2h-2zm4 0h2v2h-2zm4 0h2v2h-2zm4 0h2v2h-2zm4 0h2v2h-2zm4 0h2v2h-2zm4 0h2v2h-2zm4 0h2v2h-2zm4 0h2v2h-2zm4 0h2v2h-2zm4 0h2v2h-2zm4 0h2v2h-2zm4 0h2v2h-2zm4 0h2v2h-2zm4 0h2v2h-2zm4 0h2v2h-2zm4 0h6v2h-6zm8 0h6v2h-6zm8 0h6v2h-6zm8 0h6v2h-6zm8 0h6v2h-6zm8 0h6v2h-6zm8 0h6v2h-6zm8 0h6v2h-6zm8 0h6v2h-6zm8 0h6v2h-6zm8 0h6v2h-6zm8 0h6v2h-6zm8 0h6v2h-6zm8 0h6v2h-6zm8 0h6v2h-6zm8 0h2v2h-2zm4 0h2v2h-2zm8 0h2v2h-2zm8 0h2v2h-2zm8 0h2v2h-2zm8 0h2v2h-2zm4 0h2v2h-2zm4 0h2v2h-2zm4 0h2v2h-2zm4 0h2v2h-2zm4 0h2v2h-2zm4 0h2v2h-2zm4 0h2v2h-2zm4 0h2v2h-2zM0 14h70v2H0zm72 0h6v2h-6zm8 0h6v2h-6zm8 0h6v2h-6zm8 0h142v2H96zm144 0h2v2h-2zm4 0h2v2h-2zm4 0h2v2h-2zm4 0h2v2h-2zm4 0h2v2h-2zm4 0h2v2h-2zm4 0h2v2h-2zm4 0h2v2h-2zm4 0h2v2h-2zm4 0h2v2h-2zm4 0h6v2h-6zm8 0h12v2h-12zM2 16h6v2H2zm8 0h6v2h-6zm8 0h6v2h-6zm8 0h6v2h-6zm8 0h6v2h-6zm8 0h6v2h-6zm8 0h2v2h-2zm4 0h2v2h-2zm4 0h2v2h-2zm4 0h2v2h-2zm4 0h2v2h-2zm4 0h2v2h-2zm4 0h2v2h-2zm4 0h2v2h-2zm4 0h2v2h-2zm4 0h2v2h-2zm4 0h2v2h-2zm4 0h2v2h-2zm4 0h2v2h-2zm4 0h2v2h-2zm4 0h2v2h-2zm4 0h2v2h-2zm4 0h2v2h-2zm4 0h2v2h-2zm4 0h2v2h-2zm4 0h2v2h-2zm4 0h6v2h-6zm8 0h6v2h-6zm8 0h6v2h-6zm8 0h6v2h-6zm8 0h6v2h-6zm8 0h6v2h-6zm8 0h6v2h-6zm8 0h6v2h-6zm8 0h6v2h-6zm8 0h6v2h-6zm8 0h6v2h-6zm8 0h6v2h-6zm8 0h2v2h-2zm4 0h2v2h-2zm4 0h2v2h-2zm4 0h2v2h-2zm4 0h2v2h-2zm4 0h2v2h-2zm24 0h2v2h-2zm8 0h2v2h-2zm4 0h2v2h-2zm4 0h2v2h-2zm4 0h2v2h-2zm4 0h2v2h-2zm4 0h2v2h-2zM0 18h74v2H0zm76 0h6v2h-6zm8 0h6v2h-6zm8 0h2v2h-2zm4 0h2v2h-2zm4 0h2v2h-2zm4 0h2v2h-2zm4 0h6v2h-6zm8 0h6v2h-6zm8 0h126v2H124zm128 0h2v2h-2zm4 0h2v2h-2zm4 0h2v2h-2zm4 0h2v2h-2zm4 0h2v2h-2zm4 0h2v2h-2zm4 0h2v2h-2zm4 0h2v2h-2zm4 0h2v2h-2zm4 0h2v2h-2zm4 0h2v2h-2zm4 0h2v2h-2zM0 20h4v2H0zm6 0h6v2H6zm8 0h6v2h-6zm8 0h6v2h-6zm8 0h6v2h-6zm8 0h6v2h-6zm8 0h6v2h-6zm8 0h6v2h-6zm8 0h6v2h-6zm8 0h6v2h-6zm8 0h2v2h-2zm4 0h2v2h-2zm4 0h2v2h-2zm4 0h2v2h-2zm4 0h2v2h-2zm4 0h2v2h-2zm4 0h2v2h-2zm4 0h2v2h-2zm4 0h2v2h-2zm4 0h2v2h-2zm4 0h2v2h-2zm4 0h2v2h-2zm4 0h2v2h-2zm4 0h2v2h-2zm4 0h2v2h-2zm4 0h2v2h-2zm4 0h6v2h-6zm8 0h6v2h-6zm8 0h6v2h-6zm8 0h6v2h-6zm8 0h6v2h-6zm8 0h6v2h-6zm8 0h6v2h-6zm8 0h6v2h-6zm8 0h6v2h-6zm8 0h6v2h-6zm8 0h6v2h-6zm8 0h6v2h-6zm8 0h6v2h-6zm8 0h6v2h-6zm8 0h2v2h-2zm4 0h2v2h-2zm8 0h2v2h-2zm8 0h2v2h-2zm8 0h2v2h-2zm8 0h2v2h-2zm4 0h2v2h-2zm4 0h2v2h-2zM0 22h110v2H0zm112 0h6v2h-6zm8 0h6v2h-6zm8 0h134v2H128zm136 0h2v2h-2zm4 0h2v2h-2zm4 0h2v2h-2zm4 0h2v2h-2zm4 0h2v2h-2zm4 0h2v2h-2zm4 0h2v2h-2zm4 0h2v2h-2zm4 0h2v2h-2zM2 24h6v2H2zm8 0h6v2h-6zm8 0h6v2h-6zm8 0h6v2h-6zm8 0h6v2h-6zm8 0h6v2h-6zm8 0h6v2h-6zm8 0h6v2h-6zm8 0h6v2h-6zm8 0h6v2h-6zm8 0h2v2h-2zm4 0h2v2h-2zm4 0h2v2h-2zm4 0h2v2h-2zm4 0h2v2h-2zm4 0h2v2h-2zm4 0h2v2h-2zm4 0h2v2h-2zm4 0h2v2h-2zm4 0h2v2h-2zm4 0h2v2h-2zm4 0h2v2h-2zm4 0h2v2h-2zm4 0h2v2h-2zm4 0h2v2h-2zm4 0h2v2h-2zm4 0h2v2h-2zm4 0h2v2h-2zm4 0h2v2h-2zm4 0h2v2h-2zm4 0h2v2h-2zm4 0h2v2h-2zm4 0h6v2h-6zm8 0h6v2h-6zm8 0h6v2h-6zm8 0h6v2h-6zm8 0h6v2h-6zm8 0h6v2h-6zm8 0h6v2h-6zm8 0h6v2h-6zm8 0h6v2h-6zm8 0h6v2h-6zm8 0h2v2h-2zm4 0h2v2h-2zm4 0h2v2h-2zm4 0h2v2h-2zm4 0h2v2h-2zm4 0h2v2h-2zm24 0h2v2h-2zM0 26h122v2H0zm124 0h6v2h-6zm8 0h6v2h-6zm8 0h6v2h-6zm8 0h126v2H148zm128 0h2v2h-2zm4 0h2v2h-2zm4 0h2v2h-2zm4 0h2v2h-2zm4 0h2v2h-2zm4 0h2v2h-2zM0 28h4v2H0zm6 0h6v2H6zm8 0h6v2h-6zm8 0h6v2h-6zm8 0h6v2h-6zm8 0h6v2h-6zm8 0h6v2h-6zm8 0h6v2h-6zm8 0h6v2h-6zm8 0h6v2h-6zm8 0h6v2h-6zm8 0h6v2h-6zm8 0h6v2h-6zm8 0h6v2h-6zm8 0h2v2h-2zm4 0h2v2h-2zm4 0h2v2h-2zm4 0h2v2h-2zm4 0h2v2h-2zm4 0h2v2h-2zm4 0h2v2h-2zm4 0h2v2h-2zm4 0h2v2h-2zm4 0h2v2h-2zm4 0h2v2h-2zm4 0h2v2h-2zm4 0h6v2h-6zm8 0h6v2h-6zm8 0h6v2h-6zm8 0h6v2h-6zm8 0h6v2h-6zm8 0h6v2h-6zm8 0h6v2h-6zm8 0h6v2h-6zm8 0h6v2h-6zm8 0h6v2h-6zm8 0h6v2h-6zm8 0h6v2h-6zm8 0h6v2h-6zm8 0h6v2h-6zm8 0h6v2h-6zm8 0h2v2h-2zm4 0h2v2h-2zm8 0h2v2h-2zm8 0h2v2h-2zM0 30h286v2H0zm288 0h2v2h-2zm4 0h2v2h-2zm4 0h2v2h-2zM2 32h2v2H2zm4 0h2v2H6zm4 0h6v2h-6zm8 0h6v2h-6zm8 0h6v2h-6zm8 0h6v2h-6zm8 0h6v2h-6zm8 0h6v2h-6zm8 0h6v2h-6zm8 0h6v2h-6zm8 0h6v2h-6zm8 0h6v2h-6zm8 0h6v2h-6zm8 0h6v2h-6zm8 0h6v2h-6zm8 0h6v2h-6zm8 0h6v2h-6zm8 0h2v2h-2zm4 0h2v2h-2zm4 0h2v2h-2zm4 0h2v2h-2zm4 0h2v2h-2zm4 0h2v2h-2zm4 0h2v2h-2zm4 0h2v2h-2zm4 0h2v2h-2zm4 0h2v2h-2zm4 0h2v2h-2zm4 0h2v2h-2zm4 0h2v2h-2zm4 0h2v2h-2zm4 0h2v2h-2zm4 0h2v2h-2zm4 0h2v2h-2zm4 0h2v2h-2zm4 0h6v2h-6zm8 0h6v2h-6zm8 0h6v2h-6zm8 0h2v2h-2zm4 0h2v2h-2zm4 0h6v2h-6zm8 0h2v2h-2zm4 0h2v2h-2zm4 0h6v2h-6zm8 0h6v2h-6zm8 0h6v2h-6zm8 0h2v2h-2zm4 0h2v2h-2zm4 0h2v2h-2zm4 0h2v2h-2zm4 0h2v2h-2zm4 0h2v2h-2zM0 34h286v2H0zm288 0h2v2h-2zm4 0h6v2h-6zM0 36h4v2H0zm6 0h6v2H6zm8 0h6v2h-6zm8 0h6v2h-6zm8 0h6v2h-6zm8 0h6v2h-6zm8 0h6v2h-6zm8 0h6v2h-6zm8 0h6v2h-6zm8 0h6v2h-6zm8 0h6v2h-6zm8 0h6v2h-6zm8 0h6v2h-6zm8 0h6v2h-6zm8 0h6v2h-6zm8 0h6v2h-6zm8 0h6v2h-6zm8 0h6v2h-6zm8 0h6v2h-6zm8 0h6v2h-6zm8 0h6v2h-6zm8 0h6v2h-6zm8 0h6v2h-6zm8 0h6v2h-6zm8 0h6v2h-6zm8 0h6v2h-6zm8 0h6v2h-6zm8 0h6v2h-6zm8 0h2v2h-2zm4 0h2v2h-2zm4 0h6v2h-6zm8 0h6v2h-6zm8 0h6v2h-6zm8 0h6v2h-6zm8 0h6v2h-6zm8 0h6v2h-6zm8 0h6v2h-6zm8 0h2v2h-2zm4 0h2v2h-2zm4 0h2v2h-2zm4 0h2v2h-2zM0 38h226v2H0zm228 0h58v2h-58zm60 0h6v2h-6zm8 0h4v2h-4zM2 40h6v2H2zm8 0h6v2h-6zm8 0h6v2h-6zm8 0h6v2h-6zm8 0h6v2h-6zm8 0h6v2h-6zm8 0h6v2h-6zm8 0h6v2h-6zm8 0h6v2h-6zm8 0h6v2h-6zm8 0h6v2h-6zm8 0h6v2h-6zm8 0h6v2h-6zm8 0h6v2h-6zm8 0h6v2h-6zm8 0h6v2h-6zm8 0h6v2h-6zm8 0h6v2h-6zm8 0h6v2h-6zm8 0h6v2h-6zm8 0h6v2h-6zm8 0h6v2h-6zm8 0h6v2h-6zm8 0h2v2h-2zm4 0h2v2h-2zm4 0h2v2h-2zm4 0h2v2h-2zm4 0h2v2h-2zm4 0h2v2h-2zm4 0h2v2h-2zm4 0h2v2h-2zm4 0h2v2h-2zm4 0h2v2h-2zm8 0h2v2h-2zm4 0h6v2h-6zm8 0h2v2h-2zm4 0h2v2h-2zm4 0h2v2h-2zm4 0h2v2h-2zm4 0h6v2h-6zm8 0h6v2h-6zm8 0h6v2h-6zm8 0h2v2h-2zm4 0h2v2h-2zm4 0h2v2h-2zm4 0h2v2h-2zm4 0h2v2h-2zM0 42h210v2H0zm212 0h6v2h-6zm8 0h2v2h-2zm4 0h2v2h-2zm4 0h54v2h-54zm56 0h2v2h-2zm4 0h2v2h-2zm4 0h2v2h-2zm4 0h2v2h-2zM0 44h4v2H0zm6 0h6v2H6zm8 0h6v2h-6zm8 0h6v2h-6zm8 0h6v2h-6zm8 0h6v2h-6zm8 0h6v2h-6zm8 0h6v2h-6zm8 0h6v2h-6zm8 0h6v2h-6zm8 0h6v2h-6zm8 0h6v2h-6zm8 0h6v2h-6zm8 0h6v2h-6zm8 0h6v2h-6zm8 0h6v2h-6zm8 0h6v2h-6zm8 0h6v2h-6zm8 0h6v2h-6zm8 0h6v2h-6zm8 0h6v2h-6zm8 0h6v2h-6zm8 0h6v2h-6zm8 0h6v2h-6zm8 0h6v2h-6zm8 0h6v2h-6zm8 0h2v2h-2zm4 0h2v2h-2zm4 0h2v2h-2zm4 0h2v2h-2zm4 0h2v2h-2zm4 0h2v2h-2zm4 0h6v2h-6zm8 0h6v2h-6zm8 0h2v2h-2zm4 0h2v2h-2zm4 0h6v2h-6zm8 0h6v2h-6zm8 0h6v2h-6zm8 0h2v2h-2zm4 0h2v2h-2zm8 0h2v2h-2zm4 0h2v2h-2zm4 0h2v2h-2zM0 46h206v2H0zm208 0h2v2h-2zm4 0h2v2h-2zm4 0h2v2h-2zm4 0h2v2h-2zm4 0h58v2h-58zm60 0h2v2h-2zm4 0h2v2h-2zm4 0h2v2h-2zm4 0h4v2h-4zM2 48h6v2H2zm8 0h6v2h-6zm8 0h6v2h-6zm8 0h6v2h-6zm8 0h6v2h-6zm8 0h6v2h-6zm8 0h6v2h-6zm8 0h6v2h-6zm8 0h6v2h-6zm8 0h6v2h-6zm8 0h6v2h-6zm8 0h6v2h-6zm8 0h6v2h-6zm8 0h6v2h-6zm8 0h6v2h-6zm8 0h6v2h-6zm8 0h6v2h-6zm8 0h6v2h-6zm8 0h6v2h-6zm8 0h6v2h-6zm8 0h6v2h-6zm8 0h6v2h-6zm8 0h6v2h-6zm8 0h6v2h-6zm8 0h2v2h-2zm4 0h2v2h-2zm4 0h2v2h-2zm4 0h2v2h-2zm8 0h2v2h-2zm4 0h2v2h-2zm4 0h2v2h-2zm4 0h2v2h-2zm4 0h2v2h-2zm4 0h6v2h-6zm8 0h2v2h-2zm4 0h2v2h-2zm4 0h6v2h-6zm8 0h2v2h-2zm4 0h2v2h-2zm4 0h2v2h-2zm4 0h2v2h-2zm4 0h2v2h-2zm4 0h2v2h-2zm8 0h2v2h-2zm4 0h2v2h-2zm4 0h2v2h-2zm4 0h2v2h-2zM0 50h202v2H0zm204 0h2v2h-2zm4 0h2v2h-2zm4 0h2v2h-2zm4 0h2v2h-2zm4 0h2v2h-2zm4 0h54v2h-54zm56 0h2v2h-2zm4 0h2v2h-2zm4 0h2v2h-2zm4 0h8v2h-8zM0 52h4v2H0zm6 0h6v2H6zm8 0h6v2h-6zm8 0h6v2h-6zm8 0h6v2h-6zm8 0h6v2h-6zm8 0h6v2h-6zm8 0h6v2h-6zm8 0h6v2h-6zm8 0h6v2h-6zm8 0h6v2h-6zm8 0h6v2h-6zm8 0h6v2h-6zm8 0h6v2h-6zm8 0h6v2h-6zm8 0h6v2h-6zm8 0h6v2h-6zm8 0h6v2h-6zm8 0h6v2h-6zm8 0h6v2h-6zm8 0h6v2h-6zm8 0h6v2h-6zm8 0h6v2h-6zm8 0h6v2h-6zm8 0h6v2h-6zm8 0h2v2h-2zm4 0h2v2h-2zm4 0h2v2h-2zm4 0h2v2h-2zm4 0h2v2h-2zm4 0h2v2h-2zm4 0h6v2h-6zm8 0h6v2h-6zm8 0h6v2h-6zm8 0h6v2h-6zm8 0h6v2h-6zm8 0h6v2h-6zm8 0h6v2h-6zm8 0h2v2h-2zm4 0h2v2h-2zm4 0h2v2h-2zm4 0h2v2h-2zm4 0h2v2h-2zm4 0h2v2h-2zM0 54h198v2H0zm200 0h2v2h-2zm4 0h2v2h-2zm4 0h6v2h-6zm8 0h2v2h-2zm4 0h58v2h-58zm60 0h2v2h-2zm4 0h2v2h-2zm4 0h12v2h-12zM2 56h6v2H2zm8 0h6v2h-6zm8 0h6v2h-6zm8 0h6v2h-6zm8 0h6v2h-6zm8 0h6v2h-6zm8 0h6v2h-6zm8 0h6v2h-6zm8 0h6v2h-6zm8 0h6v2h-6zm8 0h6v2h-6zm8 0h6v2h-6zm8 0h6v2h-6zm8 0h6v2h-6zm8 0h6v2h-6zm8 0h6v2h-6zm8 0h6v2h-6zm8 0h6v2h-6zm8 0h6v2h-6zm8 0h6v2h-6zm8 0h6v2h-6zm8 0h6v2h-6zm8 0h6v2h-6zm8 0h2v2h-2zm4 0h2v2h-2zm8 0h2v2h-2zm4 0h2v2h-2zm4 0h2v2h-2zm4 0h2v2h-2zm4 0h2v2h-2zm4 0h2v2h-2zm4 0h2v2h-2zm4 0h6v2h-6zm8 0h6v2h-6zm8 0h2v2h-2zm4 0h2v2h-2zm4 0h2v2h-2zm4 0h2v2h-2zm4 0h2v2h-2zm4 0h2v2h-2zm4 0h2v2h-2zm4 0h2v2h-2zm4 0h2v2h-2zm4 0h2v2h-2zm4 0h2v2h-2zm4 0h2v2h-2zm4 0h2v2h-2zm4 0h2v2h-2zm4 0h2v2h-2zM0 58h190v2H0zm192 0h2v2h-2zm4 0h2v2h-2zm4 0h2v2h-2zm4 0h6v2h-6zm8 0h2v2h-2zm4 0h2v2h-2zm4 0h58v2h-58zm60 0h2v2h-2zm4 0h16v2h-16zM0 60h4v2H0zm6 0h6v2H6zm8 0h6v2h-6zm8 0h6v2h-6zm8 0h6v2h-6zm8 0h6v2h-6zm8 0h6v2h-6zm8 0h6v2h-6zm8 0h6v2h-6zm8 0h6v2h-6zm8 0h6v2h-6zm8 0h6v2h-6zm8 0h6v2h-6zm8 0h6v2h-6zm8 0h6v2h-6zm8 0h6v2h-6zm8 0h6v2h-6zm8 0h6v2h-6zm8 0h6v2h-6zm8 0h6v2h-6zm8 0h6v2h-6zm8 0h6v2h-6zm8 0h6v2h-6zm8 0h2v2h-2zm4 0h2v2h-2zm4 0h2v2h-2zm4 0h2v2h-2zm4 0h2v2h-2zm4 0h2v2h-2zm4 0h2v2h-2zm4 0h2v2h-2zm4 0h2v2h-2zm4 0h2v2h-2zm4 0h6v2h-6zm8 0h6v2h-6zm8 0h6v2h-6zm8 0h6v2h-6zm8 0h6v2h-6zm8 0h6v2h-6zm8 0h6v2h-6zm8 0h2v2h-2zm4 0h2v2h-2zm4 0h6v2h-6zm8 0h2v2h-2zm4 0h2v2h-2zM0 62h182v2H0zm184 0h2v2h-2zm4 0h2v2h-2zm4 0h2v2h-2zm4 0h10v2h-10zm12 0h2v2h-2zm4 0h2v2h-2zm4 0h62v2h-62zm64 0h20v2h-20zM2 64h6v2H2zm8 0h6v2h-6zm8 0h6v2h-6zm8 0h6v2h-6zm8 0h2v2h-2zm4 0h2v2h-2zm4 0h2v2h-2zm4 0h2v2h-2zm4 0h2v2h-2zm4 0h2v2h-2zm4 0h2v2h-2zm4 0h2v2h-2zm4 0h6v2h-6zm8 0h6v2h-6zm8 0h6v2h-6zm8 0h6v2h-6zm8 0h6v2h-6zm8 0h6v2h-6zm8 0h6v2h-6zm8 0h6v2h-6zm8 0h6v2h-6zm8 0h6v2h-6zm8 0h6v2h-6zm8 0h6v2h-6zm8 0h2v2h-2zm4 0h2v2h-2zm4 0h2v2h-2zm4 0h2v2h-2zm8 0h2v2h-2zm4 0h2v2h-2zm4 0h2v2h-2zm4 0h2v2h-2zm4 0h2v2h-2zm4 0h2v2h-2zm4 0h2v2h-2zm8 0h2v2h-2zm4 0h2v2h-2zm4 0h2v2h-2zm4 0h6v2h-6zm8 0h6v2h-6zm8 0h2v2h-2zm4 0h2v2h-2zm4 0h6v2h-6zm8 0h6v2h-6zm8 0h6v2h-6zm8 0h2v2h-2zm4 0h2v2h-2zm4 0h2v2h-2zm4 0h2v2h-2zm4 0h2v2h-2zm4 0h2v2h-2zm4 0h2v2h-2zM0 66h42v2H0zm44 0h6v2h-6zm8 0h6v2h-6zm8 0h6v2h-6zm8 0h6v2h-6zm8 0h94v2H76zm96 0h2v2h-2zm4 0h2v2h-2zm4 0h2v2h-2zm4 0h2v2h-2zm4 0h6v2h-6zm8 0h6v2h-6zm8 0h2v2h-2zm4 0h2v2h-2zm4 0h70v2h-70zm72 0h16v2h-16zM0 68h4v2H0zm6 0h6v2H6zm8 0h6v2h-6zm8 0h6v2h-6zm8 0h6v2h-6zm8 0h2v2h-2zm4 0h2v2h-2zm4 0h2v2h-2zm4 0h2v2h-2zm4 0h2v2h-2zm4 0h2v2h-2zm4 0h2v2h-2zm4 0h2v2h-2zm4 0h2v2h-2zm4 0h2v2h-2zm4 0h2v2h-2zm4 0h2v2h-2zm4 0h2v2h-2zm4 0h2v2h-2zm4 0h2v2h-2zm4 0h2v2h-2zm4 0h6v2h-6zm8 0h6v2h-6zm8 0h6v2h-6zm8 0h6v2h-6zm8 0h6v2h-6zm8 0h6v2h-6zm8 0h2v2h-2zm4 0h2v2h-2zm4 0h2v2h-2zm4 0h2v2h-2zm12 0h2v2h-2zm4 0h2v2h-2zm4 0h2v2h-2zm4 0h2v2h-2zm4 0h2v2h-2zm4 0h2v2h-2zm4 0h2v2h-2zm4 0h2v2h-2zm4 0h2v2h-2zm4 0h2v2h-2zm4 0h2v2h-2zm4 0h2v2h-2zm4 0h6v2h-6zm8 0h14v2h-14zm16 0h6v2h-6zm8 0h6v2h-6zm8 0h6v2h-6zm8 0h6v2h-6zm8 0h2v2h-2zm4 0h2v2h-2zm4 0h2v2h-2zm4 0h2v2h-2zm4 0h2v2h-2zm4 0h2v2h-2zM0 70h38v2H0zm40 0h6v2h-6zm8 0h14v2H48zm16 0h6v2h-6zm8 0h6v2h-6zm8 0h6v2h-6zm8 0h6v2h-6zm8 0h6v2h-6zm8 0h38v2h-38zm40 0h2v2h-2zm4 0h2v2h-2zm4 0h2v2h-2zm4 0h2v2h-2zm4 0h2v2h-2zm4 0h2v2h-2zm4 0h2v2h-2zm4 0h2v2h-2zm4 0h6v2h-6zm8 0h14v2h-14zm16 0h6v2h-6zm8 0h92v2h-92zM2 72h6v2H2zm8 0h6v2h-6zm8 0h6v2h-6zm8 0h6v2h-6zm8 0h2v2h-2zm4 0h2v2h-2zm4 0h2v2h-2zm4 0h2v2h-2zm4 0h2v2h-2zm4 0h2v2h-2zm4 0h2v2h-2zm4 0h2v2h-2zm4 0h2v2h-2zm4 0h2v2h-2zm4 0h2v2h-2zm4 0h2v2h-2zm4 0h2v2h-2zm4 0h2v2h-2zm4 0h2v2h-2zm4 0h2v2h-2zm4 0h2v2h-2zm4 0h2v2h-2zm4 0h2v2h-2zm4 0h2v2h-2zm4 0h2v2h-2zm4 0h2v2h-2zm4 0h2v2h-2zm4 0h2v2h-2zm4 0h2v2h-2zm4 0h2v2h-2zm40 0h2v2h-2zm4 0h2v2h-2zm4 0h2v2h-2zm4 0h2v2h-2zm4 0h2v2h-2zm4 0h2v2h-2zm4 0h2v2h-2zm4 0h2v2h-2zm4 0h2v2h-2zm4 0h2v2h-2zm4 0h2v2h-2zm4 0h6v2h-6zm8 0h6v2h-6zm8 0h6v2h-6zm8 0h2v2h-2zm4 0h2v2h-2zm4 0h6v2h-6zm8 0h6v2h-6zm8 0h6v2h-6zm8 0h2v2h-2zm4 0h2v2h-2zm4 0h2v2h-2zm4 0h2v2h-2zm4 0h2v2h-2zm4 0h2v2h-2zm4 0h2v2h-2zM0 74h74v2H0zm76 0h6v2h-6zm8 0h6v2h-6zm8 0h6v2h-6zm8 0h6v2h-6zm8 0h6v2h-6zm8 0h6v2h-6zm8 0h6v2h-6zm8 0h2v2h-2zm4 0h2v2h-2zm4 0h2v2h-2zm4 0h2v2h-2zm4 0h2v2h-2zm4 0h2v2h-2zm4 0h2v2h-2zm4 0h2v2h-2zm4 0h2v2h-2zm4 0h2v2h-2zm4 0h6v2h-6zm8 0h6v2h-6zm8 0h6v2h-6zm8 0h2v2h-2zm4 0h2v2h-2zm4 0h2v2h-2zm4 0h2v2h-2zm4 0h70v2h-70zm72 0h16v2h-16zM0 76h4v2H0zm6 0h6v2H6zm8 0h6v2h-6zm8 0h6v2h-6zm8 0h2v2h-2zm4 0h2v2h-2zm4 0h6v2h-6zm8 0h6v2h-6zm8 0h6v2h-6zm8 0h14v2H62zm16 0h2v2h-2zm4 0h2v2h-2zm4 0h2v2h-2zm4 0h2v2h-2zm4 0h2v2h-2zm4 0h2v2h-2zm4 0h2v2h-2zm4 0h2v2h-2zm4 0h2v2h-2zm4 0h2v2h-2zm4 0h2v2h-2zm4 0h2v2h-2zm4 0h2v2h-2zm20 0h2v2h-2zm8 0h2v2h-2zm8 0h2v2h-2zm8 0h2v2h-2zm4 0h2v2h-2zm4 0h2v2h-2zm4 0h2v2h-2zm4 0h2v2h-2zm4 0h2v2h-2zm4 0h2v2h-2zm4 0h2v2h-2zm4 0h2v2h-2zm4 0h2v2h-2zm4 0h2v2h-2zm4 0h2v2h-2zm4 0h2v2h-2zm4 0h6v2h-6zm8 0h6v2h-6zm8 0h6v2h-6zm8 0h6v2h-6zm8 0h6v2h-6zm8 0h6v2h-6zm8 0h6v2h-6zm8 0h2v2h-2zm4 0h2v2h-2zm4 0h2v2h-2zm4 0h2v2h-2zm4 0h6v2h-6zM0 78h86v2H0zm88 0h6v2h-6zm8 0h14v2H96zm16 0h6v2h-6zm8 0h2v2h-2zm4 0h2v2h-2zm4 0h2v2h-2zm4 0h2v2h-2zm4 0h2v2h-2zm4 0h2v2h-2zm4 0h2v2h-2zm4 0h2v2h-2zm4 0h2v2h-2zm4 0h2v2h-2zm4 0h2v2h-2zm4 0h2v2h-2zm4 0h6v2h-6zm8 0h22v2h-22zm24 0h2v2h-2zm4 0h2v2h-2zm4 0h6v2h-6zm8 0h62v2h-62zm64 0h20v2h-20zM2 80h6v2H2zm8 0h6v2h-6zm8 0h6v2h-6zm8 0h2v2h-2zm4 0h2v2h-2zm4 0h6v2h-6zm8 0h2v2h-2zm4 0h2v2h-2zm4 0h2v2h-2zm4 0h2v2h-2zm4 0h6v2h-6zm8 0h6v2h-6zm8 0h6v2h-6zm8 0h2v2h-2zm4 0h2v2h-2zm4 0h2v2h-2zm4 0h2v2h-2zm4 0h2v2h-2zm4 0h2v2h-2zm4 0h2v2h-2zm4 0h2v2h-2zm48 0h2v2h-2zm8 0h2v2h-2zm4 0h2v2h-2zm4 0h2v2h-2zm4 0h2v2h-2zm4 0h2v2h-2zm4 0h2v2h-2zm4 0h2v2h-2zm4 0h2v2h-2zm4 0h2v2h-2zm8 0h2v2h-2zm4 0h2v2h-2zm4 0h2v2h-2zm4 0h6v2h-6zm8 0h6v2h-6zm8 0h6v2h-6zm8 0h2v2h-2zm4 0h2v2h-2zm4 0h2v2h-2zm4 0h2v2h-2zm4 0h2v2h-2zm4 0h2v2h-2zm4 0h2v2h-2zm4 0h2v2h-2zm4 0h2v2h-2zm4 0h2v2h-2zm4 0h2v2h-2zm4 0h2v2h-2zm4 0h6v2h-6zm8 0h2v2h-2zM0 82h90v2H0zm92 0h10v2H92zm12 0h2v2h-2zm4 0h2v2h-2zm4 0h2v2h-2zm4 0h2v2h-2zm4 0h2v2h-2zm4 0h2v2h-2zm4 0h2v2h-2zm4 0h2v2h-2zm4 0h2v2h-2zm4 0h2v2h-2zm4 0h2v2h-2zm4 0h2v2h-2zm4 0h2v2h-2zm4 0h2v2h-2zm4 0h2v2h-2zm4 0h2v2h-2zm4 0h2v2h-2zm4 0h6v2h-6zm8 0h14v2h-14zm16 0h2v2h-2zm4 0h2v2h-2zm4 0h2v2h-2zm4 0h2v2h-2zm4 0h70v2h-70zm72 0h16v2h-16zM2 84h2v2H2zm4 0h6v2H6zm8 0h6v2h-6zm8 0h6v2h-6zm8 0h6v2h-6zm8 0h6v2h-6zm8 0h6v2h-6zm8 0h6v2h-6zm8 0h6v2h-6zm8 0h6v2h-6zm8 0h6v2h-6zm8 0h6v2h-6zm8 0h2v2h-2zm4 0h2v2h-2zm24 0h2v2h-2zm8 0h2v2h-2zm8 0h2v2h-2zm8 0h2v2h-2zm8 0h2v2h-2zm8 0h2v2h-2zm4 0h2v2h-2zm4 0h2v2h-2zm4 0h2v2h-2zm4 0h2v2h-2zm4 0h6v2h-6zm8 0h2v2h-2zm4 0h2v2h-2zm4 0h2v2h-2zm4 0h2v2h-2zm4 0h2v2h-2zm4 0h2v2h-2zm4 0h14v2h-14zm16 0h6v2h-6zm8 0h6v2h-6zm8 0h6v2h-6zm8 0h6v2h-6zm8 0h6v2h-6zm8 0h6v2h-6zm8 0h2v2h-2zm4 0h2v2h-2zm4 0h6v2h-6zm8 0h6v2h-6zM0 86h6v2H0zm8 0h86v2H8zm88 0h2v2h-2zm4 0h2v2h-2zm4 0h2v2h-2zm4 0h2v2h-2zm4 0h2v2h-2zm4 0h2v2h-2zm4 0h2v2h-2zm4 0h2v2h-2zm4 0h2v2h-2zm4 0h2v2h-2zm4 0h2v2h-2zm4 0h2v2h-2zm4 0h2v2h-2zm4 0h2v2h-2zm4 0h2v2h-2zm4 0h2v2h-2zm4 0h38v2h-38zm40 0h2v2h-2zm4 0h2v2h-2zm4 0h2v2h-2zm4 0h2v2h-2zm4 0h84v2h-84zM2 88h2v2H2zm4 0h2v2H6zm4 0h2v2h-2zm4 0h2v2h-2zm4 0h6v2h-6zm8 0h2v2h-2zm4 0h2v2h-2zm4 0h6v2h-6zm8 0h2v2h-2zm4 0h2v2h-2zm4 0h2v2h-2zm4 0h2v2h-2zm4 0h2v2h-2zm4 0h2v2h-2zm4 0h2v2h-2zm4 0h2v2h-2zm4 0h6v2h-6zm8 0h6v2h-6zm8 0h6v2h-6zm8 0h2v2h-2zm4 0h2v2h-2zm16 0h2v2h-2zm8 0h2v2h-2zm4 0h2v2h-2zm4 0h2v2h-2zm8 0h2v2h-2zm4 0h2v2h-2zm4 0h2v2h-2zm4 0h2v2h-2zm4 0h2v2h-2zm4 0h2v2h-2zm4 0h2v2h-2zm4 0h2v2h-2zm4 0h2v2h-2zm4 0h6v2h-6zm8 0h2v2h-2zm4 0h2v2h-2zm4 0h2v2h-2zm4 0h2v2h-2zm4 0h2v2h-2zm4 0h2v2h-2zm8 0h2v2h-2zm4 0h2v2h-2zm4 0h2v2h-2zm4 0h6v2h-6zm8 0h6v2h-6zm8 0h6v2h-6zm8 0h2v2h-2zm4 0h2v2h-2zm4 0h2v2h-2zm4 0h2v2h-2zm4 0h6v2h-6zm8 0h2v2h-2zm4 0h2v2h-2zm4 0h2v2h-2zm4 0h2v2h-2zm4 0h6v2h-6zm8 0h2v2h-2zM0 90h2v2H0zm4 0h6v2H4zm8 0h94v2H12zm96 0h2v2h-2zm4 0h2v2h-2zm4 0h2v2h-2zm4 0h2v2h-2zm4 0h2v2h-2zm4 0h2v2h-2zm4 0h2v2h-2zm4 0h2v2h-2zm4 0h2v2h-2zm4 0h2v2h-2zm4 0h6v2h-6zm8 0h38v2h-38zm40 0h2v2h-2zm4 0h2v2h-2zm4 0h6v2h-6zm8 0h2v2h-2zm4 0h66v2h-66zm68 0h16v2h-16zM2 92h2v2H2zm4 0h2v2H6zm4 0h2v2h-2zm4 0h6v2h-6zm8 0h6v2h-6zm8 0h6v2h-6zm8 0h6v2h-6zm8 0h6v2h-6zm8 0h6v2h-6zm8 0h6v2h-6zm8 0h6v2h-6zm8 0h6v2h-6zm8 0h6v2h-6zm8 0h6v2h-6zm8 0h2v2h-2zm4 0h2v2h-2zm4 0h2v2h-2zm4 0h2v2h-2zm4 0h2v2h-2zm4 0h2v2h-2zm4 0h2v2h-2zm4 0h2v2h-2zm4 0h2v2h-2zm4 0h2v2h-2zm4 0h2v2h-2zm4 0h2v2h-2zm4 0h2v2h-2zm4 0h2v2h-2zm4 0h2v2h-2zm4 0h2v2h-2zm4 0h6v2h-6zm8 0h6v2h-6zm8 0h6v2h-6zm8 0h6v2h-6zm8 0h2v2h-2zm4 0h2v2h-2zm4 0h2v2h-2zm4 0h2v2h-2zm4 0h2v2h-2zm4 0h2v2h-2zm4 0h6v2h-6zm8 0h6v2h-6zm8 0h6v2h-6zm8 0h6v2h-6zm8 0h6v2h-6zm8 0h6v2h-6zm8 0h6v2h-6zm8 0h2v2h-2zm4 0h2v2h-2zm4 0h6v2h-6zm8 0h6v2h-6zM0 94h300v2H0zm2 2h2v2H2zm4 0h2v2H6zm4 0h6v2h-6zm8 0h6v2h-6zm8 0h6v2h-6zm8 0h6v2h-6zm8 0h2v2h-2zm4 0h2v2h-2zm4 0h2v2h-2zm4 0h2v2h-2zm4 0h2v2h-2zm4 0h2v2h-2zm4 0h2v2h-2zm4 0h2v2h-2zm4 0h2v2h-2zm4 0h2v2h-2zm4 0h6v2h-6zm8 0h6v2h-6zm8 0h6v2h-6zm8 0h6v2h-6zm8 0h2v2h-2zm4 0h2v2h-2zm4 0h2v2h-2zm4 0h2v2h-2zm4 0h2v2h-2zm4 0h2v2h-2zm4 0h2v2h-2zm4 0h2v2h-2zm4 0h2v2h-2zm4 0h2v2h-2zm4 0h2v2h-2zm4 0h2v2h-2zm4 0h2v2h-2zm4 0h2v2h-2zm4 0h6v2h-6zm8 0h6v2h-6zm8 0h6v2h-6zm8 0h2v2h-2zm4 0h2v2h-2zm4 0h2v2h-2zm4 0h2v2h-2zm4 0h2v2h-2zm4 0h2v2h-2zm4 0h2v2h-2zm4 0h2v2h-2zm4 0h6v2h-6zm8 0h6v2h-6zm8 0h2v2h-2zm4 0h2v2h-2zm4 0h6v2h-6zm8 0h6v2h-6zm8 0h6v2h-6zm8 0h2v2h-2zm4 0h2v2h-2zm4 0h2v2h-2zm4 0h2v2h-2zm4 0h6v2h-6zm8 0h2v2h-2zM0 98h154v2H0zm156 0h126v2H156zm128 0h16v2h-16zM0 100h4v2H0zm6 0h6v2H6zm8 0h6v2h-6zm8 0h6v2h-6zm8 0h6v2h-6zm8 0h6v2h-6zm8 0h6v2h-6zm8 0h6v2h-6zm8 0h6v2h-6zm8 0h6v2h-6zm8 0h6v2h-6zm8 0h6v2h-6zm8 0h6v2h-6zm8 0h6v2h-6zm8 0h6v2h-6zm8 0h6v2h-6zm8 0h6v2h-6zm8 0h2v2h-2zm4 0h2v2h-2zm4 0h2v2h-2zm4 0h2v2h-2zm4 0h2v2h-2zm4 0h2v2h-2zm4 0h2v2h-2zm4 0h2v2h-2zm4 0h6v2h-6zm8 0h6v2h-6zm8 0h6v2h-6zm8 0h6v2h-6zm8 0h2v2h-2zm4 0h2v2h-2zm4 0h6v2h-6zm8 0h6v2h-6zm8 0h6v2h-6zm8 0h6v2h-6zm8 0h2v2h-2zm4 0h2v2h-2zm4 0h6v2h-6zm8 0h6v2h-6zm8 0h6v2h-6zm8 0h6v2h-6zm8 0h2v2h-2zm4 0h2v2h-2zm4 0h6v2h-6zm8 0h6v2h-6zM0 102h206v2H0zm208 0h92v2h-92zM2 104h6v2H2zm8 0h6v2h-6zm8 0h6v2h-6zm8 0h6v2h-6zm8 0h6v2h-6zm8 0h2v2h-2zm4 0h2v2h-2zm4 0h2v2h-2zm4 0h2v2h-2zm4 0h2v2h-2zm4 0h2v2h-2zm4 0h2v2h-2zm4 0h2v2h-2zm4 0h2v2h-2zm4 0h2v2h-2zm4 0h2v2h-2zm4 0h2v2h-2zm4 0h6v2h-6zm8 0h6v2h-6zm8 0h6v2h-6zm8 0h6v2h-6zm8 0h6v2h-6zm8 0h2v2h-2zm4 0h2v2h-2zm4 0h2v2h-2zm4 0h2v2h-2zm4 0h2v2h-2zm4 0h2v2h-2zm4 0h2v2h-2zm4 0h2v2h-2zm4 0h2v2h-2zm4 0h2v2h-2zm4 0h2v2h-2zm4 0h2v2h-2zm4 0h6v2h-6zm8 0h6v2h-6zm8 0h6v2h-6zm8 0h2v2h-2zm12 0h2v2h-2zm4 0h6v2h-6zm8 0h6v2h-6zm8 0h6v2h-6zm8 0h2v2h-2zm4 0h2v2h-2zm4 0h6v2h-6zm8 0h6v2h-6zm8 0h6v2h-6zm8 0h2v2h-2zm4 0h2v2h-2zm4 0h2v2h-2zm4 0h2v2h-2zm4 0h2v2h-2zm4 0h2v2h-2zm4 0h2v2h-2zM0 106h202v2H0zm204 0h2v2h-2zm4 0h2v2h-2zm4 0h70v2h-70zm72 0h16v2h-16zM0 108h12v2H0zm14 0h30v2H14zm32 0h6v2h-6zm8 0h6v2h-6zm8 0h2v2h-2zm4 0h2v2h-2zm4 0h2v2h-2zm4 0h2v2h-2zm4 0h6v2h-6zm8 0h14v2H86zm16 0h6v2h-6zm8 0h14v2h-14zm16 0h6v2h-6zm8 0h6v2h-6zm8 0h2v2h-2zm4 0h2v2h-2zm4 0h2v2h-2zm4 0h2v2h-2zm4 0h2v2h-2zm4 0h2v2h-2zm4 0h6v2h-6zm8 0h6v2h-6zm8 0h6v2h-6zm8 0h6v2h-6zm8 0h2v2h-2zm4 0h2v2h-2zm4 0h2v2h-2zm8 0h2v2h-2zm4 0h2v2h-2zm4 0h6v2h-6zm8 0h6v2h-6zm8 0h2v2h-2zm4 0h2v2h-2zm4 0h6v2h-6zm8 0h6v2h-6zm8 0h6v2h-6zm8 0h6v2h-6zm8 0h2v2h-2zm4 0h2v2h-2zm4 0h2v2h-2zm4 0h2v2h-2zm4 0h6v2h-6zM0 110h206v2H0zm208 0h2v2h-2zm4 0h2v2h-2zm4 0h2v2h-2zm4 0h2v2h-2zm4 0h54v2h-54zm56 0h2v2h-2zm4 0h2v2h-2zm4 0h12v2h-12zM2 112h6v2H2zm8 0h6v2h-6zm8 0h6v2h-6zm8 0h6v2h-6zm8 0h6v2h-6zm8 0h6v2h-6zm8 0h2v2h-2zm4 0h2v2h-2zm4 0h2v2h-2zm4 0h2v2h-2zm4 0h2v2h-2zm4 0h2v2h-2zm4 0h2v2h-2zm4 0h2v2h-2zm4 0h6v2h-6zm8 0h6v2h-6zm8 0h6v2h-6zm8 0h6v2h-6zm8 0h6v2h-6zm8 0h6v2h-6zm8 0h2v2h-2zm4 0h2v2h-2zm4 0h2v2h-2zm4 0h2v2h-2zm4 0h2v2h-2zm4 0h2v2h-2zm4 0h2v2h-2zm4 0h2v2h-2zm4 0h2v2h-2zm4 0h2v2h-2zm4 0h2v2h-2zm4 0h2v2h-2zm4 0h6v2h-6zm8 0h2v2h-2zm4 0h2v2h-2zm4 0h6v2h-6zm8 0h2v2h-2zm4 0h2v2h-2zm20 0h2v2h-2zm4 0h2v2h-2zm4 0h6v2h-6zm8 0h2v2h-2zm4 0h2v2h-2zm4 0h6v2h-6zm8 0h6v2h-6zm8 0h6v2h-6zm8 0h2v2h-2zm4 0h2v2h-2zm8 0h2v2h-2zm4 0h2v2h-2zm4 0h2v2h-2zM0 114h66v2H0zm68 0h142v2H68zm144 0h2v2h-2zm8 0h2v2h-2zm8 0h2v2h-2zm4 0h34v2h-34zm36 0h6v2h-6zm8 0h2v2h-2zm4 0h2v2h-2zm4 0h2v2h-2zm4 0h2v2h-2zm4 0h2v2h-2zM0 116h28v2H0zm30 0h6v2h-6zm8 0h6v2h-6zm8 0h6v2h-6zm8 0h2v2h-2zm4 0h2v2h-2zm4 0h2v2h-2zm4 0h2v2h-2zm4 0h6v2h-6zm8 0h6v2h-6zm8 0h6v2h-6zm8 0h6v2h-6zm8 0h6v2h-6zm8 0h6v2h-6zm8 0h6v2h-6zm8 0h6v2h-6zm8 0h6v2h-6zm8 0h6v2h-6zm8 0h2v2h-2zm4 0h2v2h-2zm4 0h2v2h-2zm4 0h2v2h-2zm4 0h2v2h-2zm4 0h2v2h-2zm4 0h2v2h-2zm4 0h2v2h-2zm4 0h6v2h-6zm8 0h6v2h-6zm8 0h6v2h-6zm8 0h2v2h-2zm4 0h2v2h-2zm24 0h2v2h-2zm4 0h2v2h-2zm4 0h2v2h-2zm4 0h6v2h-6zm8 0h6v2h-6zm8 0h2v2h-2zm4 0h2v2h-2zm4 0h2v2h-2zm4 0h2v2h-2zm4 0h2v2h-2zm4 0h2v2h-2zm4 0h2v2h-2zm4 0h2v2h-2zM0 118h214v2H0zm216 0h2v2h-2zm8 0h2v2h-2zm8 0h2v2h-2zm4 0h2v2h-2zm4 0h22v2h-22zm24 0h2v2h-2zm4 0h2v2h-2zm4 0h2v2h-2zm4 0h2v2h-2zm4 0h2v2h-2zm4 0h2v2h-2zm4 0h2v2h-2zm4 0h2v2h-2zm4 0h2v2h-2zM2 120h6v2H2zm8 0h6v2h-6zm8 0h6v2h-6zm8 0h6v2h-6zm8 0h6v2h-6zm8 0h6v2h-6zm8 0h2v2h-2zm4 0h2v2h-2zm4 0h2v2h-2zm4 0h2v2h-2zm4 0h2v2h-2zm4 0h2v2h-2zm4 0h6v2h-6zm8 0h6v2h-6zm8 0h6v2h-6zm8 0h6v2h-6zm8 0h6v2h-6zm8 0h2v2h-2zm4 0h2v2h-2zm4 0h2v2h-2zm4 0h2v2h-2zm4 0h6v2h-6zm8 0h2v2h-2zm4 0h2v2h-2zm4 0h2v2h-2zm4 0h2v2h-2zm4 0h2v2h-2zm4 0h2v2h-2zm4 0h2v2h-2zm4 0h2v2h-2zm4 0h2v2h-2zm4 0h2v2h-2zm4 0h2v2h-2zm4 0h2v2h-2zm4 0h2v2h-2zm4 0h2v2h-2zm4 0h2v2h-2zm4 0h2v2h-2zm4 0h2v2h-2zm4 0h2v2h-2zm4 0h2v2h-2zm4 0h2v2h-2zm24 0h2v2h-2zm4 0h2v2h-2zm4 0h2v2h-2zm4 0h2v2h-2zm4 0h2v2h-2zm4 0h2v2h-2zm4 0h2v2h-2zm8 0h2v2h-2zm8 0h2v2h-2zm8 0h2v2h-2zm8 0h2v2h-2zM0 122h162v2H0zm164 0h6v2h-6zm8 0h6v2h-6zm8 0h38v2h-38zm40 0h2v2h-2zm8 0h2v2h-2zm8 0h2v2h-2zm4 0h2v2h-2zm4 0h6v2h-6zm8 0h2v2h-2zm4 0h2v2h-2zm4 0h2v2h-2zm4 0h2v2h-2zm4 0h2v2h-2zm4 0h2v2h-2zm4 0h2v2h-2zm4 0h2v2h-2zm4 0h2v2h-2zm4 0h2v2h-2zm4 0h2v2h-2zm4 0h2v2h-2zM0 124h28v2H0zm30 0h6v2h-6zm8 0h6v2h-6zm8 0h6v2h-6zm8 0h6v2h-6zm8 0h6v2h-6zm8 0h22v2H70zm24 0h6v2h-6zm8 0h6v2h-6zm8 0h6v2h-6zm8 0h2v2h-2zm4 0h2v2h-2zm4 0h6v2h-6zm8 0h6v2h-6zm8 0h6v2h-6zm8 0h2v2h-2zm4 0h2v2h-2zm4 0h2v2h-2zm4 0h2v2h-2zm4 0h2v2h-2zm4 0h2v2h-2zm4 0h2v2h-2zm4 0h2v2h-2zm4 0h2v2h-2zm4 0h2v2h-2zm4 0h6v2h-6zm8 0h6v2h-6zm8 0h6v2h-6zm8 0h2v2h-2zm4 0h2v2h-2zm4 0h2v2h-2zm20 0h2v2h-2zm8 0h2v2h-2zm4 0h2v2h-2zm4 0h2v2h-2zm8 0h2v2h-2zm4 0h2v2h-2zm4 0h2v2h-2zm4 0h2v2h-2zm4 0h2v2h-2zm4 0h2v2h-2zm4 0h2v2h-2zm4 0h2v2h-2zm4 0h2v2h-2zM0 126h158v2H0zm160 0h2v2h-2zm4 0h2v2h-2zm4 0h2v2h-2zm4 0h2v2h-2zm4 0h46v2h-46zm48 0h2v2h-2zm4 0h2v2h-2zm4 0h2v2h-2zm8 0h2v2h-2zm4 0h2v2h-2zm4 0h2v2h-2zm4 0h2v2h-2zm4 0h2v2h-2zm4 0h2v2h-2zm4 0h2v2h-2zm4 0h2v2h-2zm4 0h2v2h-2zm4 0h2v2h-2zm4 0h2v2h-2zm4 0h2v2h-2zm4 0h2v2h-2zm4 0h2v2h-2zm4 0h2v2h-2zM2 128h6v2H2zm8 0h6v2h-6zm8 0h6v2h-6zm8 0h6v2h-6zm8 0h6v2h-6zm8 0h6v2h-6zm8 0h2v2h-2zm4 0h2v2h-2zm4 0h6v2h-6zm8 0h6v2h-6zm8 0h6v2h-6zm8 0h6v2h-6zm8 0h6v2h-6zm8 0h6v2h-6zm8 0h6v2h-6zm8 0h6v2h-6zm8 0h2v2h-2zm4 0h2v2h-2zm4 0h6v2h-6zm8 0h2v2h-2zm4 0h2v2h-2zm4 0h2v2h-2zm4 0h2v2h-2zm4 0h2v2h-2zm4 0h2v2h-2zm16 0h2v2h-2zm4 0h2v2h-2zm4 0h2v2h-2zm4 0h2v2h-2zm4 0h2v2h-2zm4 0h2v2h-2zm4 0h2v2h-2zm4 0h2v2h-2zm4 0h2v2h-2zm4 0h2v2h-2zm4 0h2v2h-2zm4 0h2v2h-2zm4 0h2v2h-2zm4 0h2v2h-2zm52 0h2v2h-2zm8 0h2v2h-2zm4 0h2v2h-2zm4 0h2v2h-2zm4 0h2v2h-2zM0 130h154v2H0zm156 0h6v2h-6zm8 0h2v2h-2zm4 0h2v2h-2zm4 0h2v2h-2zm4 0h2v2h-2zm4 0h6v2h-6zm8 0h30v2h-30zm32 0h6v2h-6zm8 0h2v2h-2zm4 0h2v2h-2zm4 0h2v2h-2zm8 0h2v2h-2zm8 0h2v2h-2zm8 0h2v2h-2zm8 0h2v2h-2zm4 0h2v2h-2zm4 0h2v2h-2zm4 0h2v2h-2zm4 0h2v2h-2zm4 0h2v2h-2zm4 0h2v2h-2zm4 0h2v2h-2zM0 132h4v2H0zm6 0h30v2H6zm32 0h6v2h-6zm8 0h6v2h-6zm8 0h6v2h-6zm8 0h38v2H62zm40 0h6v2h-6zm8 0h6v2h-6zm8 0h6v2h-6zm8 0h2v2h-2zm4 0h2v2h-2zm4 0h6v2h-6zm8 0h2v2h-2zm4 0h2v2h-2zm4 0h2v2h-2zm4 0h2v2h-2zm4 0h2v2h-2zm4 0h2v2h-2zm16 0h2v2h-2zm4 0h2v2h-2zm4 0h2v2h-2zm4 0h6v2h-6zm8 0h6v2h-6zm8 0h6v2h-6zm8 0h6v2h-6zm8 0h2v2h-2zm4 0h2v2h-2zm4 0h2v2h-2zm4 0h2v2h-2zm48 0h2v2h-2zm4 0h2v2h-2zm4 0h2v2h-2zm4 0h2v2h-2zm4 0h2v2h-2zM0 134h158v2H0zm160 0h2v2h-2zm4 0h2v2h-2zm4 0h2v2h-2zm4 0h2v2h-2zm4 0h2v2h-2zm4 0h2v2h-2zm4 0h50v2h-50zm52 0h2v2h-2zm4 0h2v2h-2zm8 0h2v2h-2zm16 0h2v2h-2zm8 0h2v2h-2zm4 0h2v2h-2zm4 0h2v2h-2zm4 0h2v2h-2zm4 0h6v2h-6zm8 0h2v2h-2zM2 136h6v2H2zm8 0h6v2h-6zm8 0h6v2h-6zm8 0h6v2h-6zm8 0h6v2h-6zm8 0h6v2h-6zm8 0h2v2h-2zm4 0h2v2h-2zm4 0h6v2h-6zm8 0h6v2h-6zm8 0h6v2h-6zm8 0h6v2h-6zm8 0h6v2h-6zm8 0h6v2h-6zm8 0h2v2h-2zm4 0h2v2h-2zm4 0h2v2h-2zm4 0h2v2h-2zm4 0h2v2h-2zm4 0h2v2h-2zm4 0h2v2h-2zm4 0h2v2h-2zm4 0h6v2h-6zm8 0h2v2h-2zm4 0h2v2h-2zm4 0h2v2h-2zm4 0h2v2h-2zm32 0h2v2h-2zm4 0h2v2h-2zm4 0h2v2h-2zm4 0h2v2h-2zm4 0h2v2h-2zm4 0h2v2h-2zm4 0h2v2h-2zm4 0h2v2h-2zm4 0h2v2h-2zm4 0h2v2h-2zm4 0h2v2h-2zm4 0h2v2h-2zm52 0h2v2h-2zm4 0h2v2h-2zm4 0h2v2h-2zm4 0h2v2h-2zM0 138h158v2H0zm160 0h2v2h-2zm4 0h2v2h-2zm4 0h2v2h-2zm4 0h2v2h-2zm4 0h2v2h-2zm4 0h2v2h-2zm4 0h2v2h-2zm4 0h38v2h-38zm40 0h6v2h-6zm8 0h2v2h-2zm4 0h2v2h-2zm4 0h2v2h-2zm32 0h2v2h-2zm8 0h2v2h-2zm4 0h2v2h-2zm4 0h6v2h-6zM0 140h4v2H0zm6 0h6v2H6zm8 0h22v2H14zm24 0h6v2h-6zm8 0h6v2h-6zm8 0h6v2h-6zm8 0h22v2H62zm24 0h6v2h-6zm8 0h6v2h-6zm8 0h6v2h-6zm8 0h2v2h-2zm4 0h2v2h-2zm4 0h2v2h-2zm4 0h2v2h-2zm4 0h6v2h-6zm8 0h6v2h-6zm8 0h2v2h-2zm4 0h2v2h-2zm4 0h2v2h-2zm4 0h2v2h-2zm4 0h2v2h-2zm4 0h2v2h-2zm24 0h2v2h-2zm4 0h2v2h-2zm4 0h2v2h-2zm4 0h6v2h-6zm8 0h6v2h-6zm8 0h6v2h-6zm8 0h2v2h-2zm4 0h2v2h-2zm4 0h2v2h-2zm4 0h2v2h-2zm4 0h2v2h-2zm48 0h2v2h-2zm4 0h2v2h-2zm4 0h2v2h-2zm4 0h2v2h-2zM0 142h150v2H0zm152 0h6v2h-6zm8 0h2v2h-2zm4 0h2v2h-2zm4 0h2v2h-2zm4 0h2v2h-2zm4 0h2v2h-2zm4 0h2v2h-2zm4 0h2v2h-2zm4 0h2v2h-2zm4 0h46v2h-46zm48 0h2v2h-2zm4 0h2v2h-2zm4 0h2v2h-2zm8 0h2v2h-2zm8 0h2v2h-2zm8 0h2v2h-2zm4 0h2v2h-2zm4 0h2v2h-2zm4 0h2v2h-2zm4 0h12v2h-12zM2 144h6v2H2zm8 0h6v2h-6zm8 0h6v2h-6zm8 0h6v2h-6zm8 0h6v2h-6zm8 0h6v2h-6zm8 0h6v2h-6zm8 0h6v2h-6zm8 0h6v2h-6zm8 0h6v2h-6zm8 0h6v2h-6zm8 0h6v2h-6zm8 0h2v2h-2zm4 0h2v2h-2zm4 0h2v2h-2zm4 0h2v2h-2zm4 0h2v2h-2zm4 0h2v2h-2zm4 0h2v2h-2zm4 0h2v2h-2zm4 0h2v2h-2zm4 0h2v2h-2zm4 0h6v2h-6zm8 0h2v2h-2zm4 0h2v2h-2zm40 0h2v2h-2zm4 0h6v2h-6zm8 0h6v2h-6zm8 0h2v2h-2zm4 0h2v2h-2zm4 0h2v2h-2zm4 0h2v2h-2zm4 0h2v2h-2zm4 0h2v2h-2zm4 0h2v2h-2zm4 0h2v2h-2zm56 0h2v2h-2zm4 0h2v2h-2zM0 146h154v2H0zm156 0h2v2h-2zm4 0h2v2h-2zm4 0h2v2h-2zm4 0h2v2h-2zm4 0h2v2h-2zm4 0h2v2h-2zm4 0h2v2h-2zm4 0h2v2h-2zm4 0h38v2h-38zm40 0h14v2h-14zm16 0h2v2h-2zm4 0h2v2h-2zm4 0h2v2h-2zm8 0h2v2h-2zm8 0h2v2h-2zm8 0h2v2h-2zm8 0h2v2h-2zm4 0h2v2h-2zm4 0h2v2h-2zm4 0h2v2h-2zM0 148h4v2H0zm6 0h6v2H6zm8 0h22v2H14zm24 0h6v2h-6zm8 0h6v2h-6zm8 0h6v2h-6zm8 0h22v2H62zm24 0h6v2h-6zm8 0h6v2h-6zm8 0h6v2h-6zm8 0h2v2h-2zm4 0h2v2h-2zm4 0h2v2h-2zm4 0h2v2h-2zm4 0h6v2h-6zm8 0h6v2h-6zm8 0h6v2h-6zm8 0h2v2h-2zm4 0h2v2h-2zm8 0h2v2h-2zm8 0h2v2h-2zm8 0h2v2h-2zm8 0h2v2h-2zm4 0h6v2h-6zm8 0h6v2h-6zm8 0h6v2h-6zm8 0h6v2h-6zm8 0h2v2h-2zm4 0h2v2h-2zm4 0h2v2h-2zm4 0h2v2h-2zm4 0h2v2h-2zm4 0h2v2h-2zm48 0h2v2h-2zm4 0h2v2h-2zm4 0h2v2h-2zM0 150h150v2H0zm152 0h2v2h-2zm4 0h2v2h-2zm4 0h2v2h-2zm4 0h2v2h-2zm4 0h2v2h-2zm4 0h2v2h-2zm4 0h2v2h-2zm4 0h2v2h-2zm4 0h58v2h-58zm60 0h2v2h-2zm4 0h2v2h-2zm4 0h2v2h-2zm4 0h2v2h-2zm4 0h2v2h-2zm4 0h2v2h-2zm4 0h2v2h-2zm4 0h2v2h-2zm4 0h2v2h-2zm4 0h2v2h-2zm4 0h2v2h-2zm4 0h12v2h-12zM2 152h6v2H2zm8 0h6v2h-6zm8 0h6v2h-6zm8 0h6v2h-6zm8 0h6v2h-6zm8 0h6v2h-6zm8 0h2v2h-2zm4 0h2v2h-2zm4 0h6v2h-6zm8 0h6v2h-6zm8 0h6v2h-6zm8 0h6v2h-6zm8 0h6v2h-6zm8 0h2v2h-2zm4 0h2v2h-2zm4 0h2v2h-2zm4 0h2v2h-2zm4 0h2v2h-2zm4 0h2v2h-2zm4 0h2v2h-2zm4 0h2v2h-2zm4 0h6v2h-6zm8 0h6v2h-6zm8 0h2v2h-2zm4 0h2v2h-2zm8 0h2v2h-2zm24 0h2v2h-2zm4 0h6v2h-6zm8 0h6v2h-6zm8 0h6v2h-6zm8 0h2v2h-2zm4 0h2v2h-2zm4 0h2v2h-2zm4 0h2v2h-2zm4 0h2v2h-2zm4 0h2v2h-2zm4 0h2v2h-2zm4 0h2v2h-2zm4 0h2v2h-2zm52 0h2v2h-2zm4 0h2v2h-2zM0 154h150v2H0zm152 0h2v2h-2zm4 0h2v2h-2zm4 0h2v2h-2zm4 0h2v2h-2zm4 0h2v2h-2zm4 0h2v2h-2zm4 0h2v2h-2zm4 0h2v2h-2zm4 0h58v2h-58zm60 0h2v2h-2zm4 0h2v2h-2zm4 0h2v2h-2zm4 0h2v2h-2zm4 0h2v2h-2zm4 0h2v2h-2zm4 0h2v2h-2zm4 0h2v2h-2zm4 0h2v2h-2zm4 0h2v2h-2zm4 0h2v2h-2zm8 0h2v2h-2zm4 0h2v2h-2zM0 156h4v2H0zm6 0h6v2H6zm8 0h6v2h-6zm8 0h6v2h-6zm8 0h6v2h-6zm8 0h6v2h-6zm8 0h6v2h-6zm8 0h6v2h-6zm8 0h6v2h-6zm8 0h6v2h-6zm8 0h6v2h-6zm8 0h6v2h-6zm8 0h6v2h-6zm8 0h6v2h-6zm8 0h6v2h-6zm8 0h6v2h-6zm8 0h6v2h-6zm8 0h6v2h-6zm8 0h6v2h-6zm8 0h2v2h-2zm4 0h2v2h-2zm8 0h2v2h-2zm8 0h2v2h-2zm8 0h2v2h-2zm8 0h10v2h-10zm12 0h6v2h-6zm8 0h6v2h-6zm8 0h6v2h-6zm8 0h2v2h-2zm4 0h2v2h-2zm4 0h6v2h-6zm8 0h2v2h-2zm4 0h2v2h-2zm24 0h2v2h-2zm4 0h2v2h-2zm4 0h2v2h-2zm4 0h2v2h-2zm4 0h2v2h-2zm16 0h2v2h-2zM0 158h150v2H0zm152 0h2v2h-2zm4 0h2v2h-2zm4 0h2v2h-2zm4 0h2v2h-2zm4 0h2v2h-2zm4 0h2v2h-2zm4 0h2v2h-2zm4 0h2v2h-2zm4 0h62v2h-62zm64 0h2v2h-2zm4 0h2v2h-2zm4 0h2v2h-2zm4 0h2v2h-2zm4 0h2v2h-2zm4 0h2v2h-2zm4 0h6v2h-6zm8 0h2v2h-2zm4 0h2v2h-2zm4 0h2v2h-2zm4 0h2v2h-2zm4 0h2v2h-2zM2 160h6v2H2zm8 0h6v2h-6zm8 0h6v2h-6zm8 0h6v2h-6zm8 0h6v2h-6zm8 0h2v2h-2zm4 0h2v2h-2zm4 0h2v2h-2zm4 0h2v2h-2zm4 0h2v2h-2zm4 0h2v2h-2zm4 0h6v2h-6zm8 0h6v2h-6zm8 0h6v2h-6zm8 0h6v2h-6zm8 0h6v2h-6zm8 0h2v2h-2zm4 0h2v2h-2zm4 0h2v2h-2zm4 0h2v2h-2zm4 0h6v2h-6zm8 0h6v2h-6zm8 0h6v2h-6zm8 0h2v2h-2zm4 0h2v2h-2zm4 0h2v2h-2zm4 0h2v2h-2zm24 0h2v2h-2zm4 0h2v2h-2zm4 0h2v2h-2zm4 0h6v2h-6zm8 0h6v2h-6zm8 0h2v2h-2zm4 0h2v2h-2zm4 0h2v2h-2zm4 0h2v2h-2zm4 0h2v2h-2zm4 0h2v2h-2zm4 0h2v2h-2zm4 0h2v2h-2zm4 0h2v2h-2zm4 0h2v2h-2zm16 0h2v2h-2zm4 0h2v2h-2zm4 0h2v2h-2zm4 0h2v2h-2zm4 0h2v2h-2zm4 0h2v2h-2zm4 0h2v2h-2zm4 0h2v2h-2zm4 0h2v2h-2zM0 162h150v2H0zm152 0h2v2h-2zm4 0h2v2h-2zm4 0h2v2h-2zm4 0h2v2h-2zm4 0h2v2h-2zm4 0h2v2h-2zm4 0h2v2h-2zm4 0h2v2h-2zm4 0h58v2h-58zm60 0h2v2h-2zm4 0h2v2h-2zm4 0h2v2h-2zm4 0h2v2h-2zm4 0h2v2h-2zm4 0h2v2h-2zm4 0h6v2h-6zm8 0h6v2h-6zm8 0h6v2h-6zm8 0h2v2h-2zm4 0h2v2h-2zM0 164h4v2H0zm6 0h6v2H6zm8 0h6v2h-6zm8 0h6v2h-6zm8 0h6v2h-6zm8 0h6v2h-6zm8 0h6v2h-6zm8 0h6v2h-6zm8 0h6v2h-6zm8 0h6v2h-6zm8 0h6v2h-6zm8 0h6v2h-6zm8 0h6v2h-6zm8 0h6v2h-6zm8 0h6v2h-6zm8 0h6v2h-6zm8 0h6v2h-6zm8 0h14v2h-14zm16 0h2v2h-2zm4 0h2v2h-2zm4 0h2v2h-2zm4 0h2v2h-2zm8 0h2v2h-2zm8 0h2v2h-2zm8 0h2v2h-2zm4 0h6v2h-6zm8 0h6v2h-6zm8 0h6v2h-6zm8 0h6v2h-6zm8 0h6v2h-6zm8 0h6v2h-6zm8 0h2v2h-2zm4 0h2v2h-2zm4 0h2v2h-2zm4 0h2v2h-2zm8 0h2v2h-2zm4 0h2v2h-2zm4 0h2v2h-2zm4 0h2v2h-2zm4 0h2v2h-2zm4 0h2v2h-2zm4 0h2v2h-2zm4 0h2v2h-2zm4 0h2v2h-2zm4 0h2v2h-2zm4 0h2v2h-2zM0 166h150v2H0zm152 0h2v2h-2zm4 0h2v2h-2zm4 0h2v2h-2zm4 0h2v2h-2zm4 0h2v2h-2zm4 0h2v2h-2zm4 0h2v2h-2zm4 0h2v2h-2zm4 0h62v2h-62zm64 0h2v2h-2zm4 0h2v2h-2zm4 0h2v2h-2zm4 0h2v2h-2zm4 0h36v2h-36zM2 168h2v2H2zm4 0h2v2H6zm4 0h6v2h-6zm8 0h6v2h-6zm8 0h6v2h-6zm8 0h6v2h-6zm8 0h2v2h-2zm4 0h2v2h-2zm4 0h2v2h-2zm4 0h2v2h-2zm4 0h2v2h-2zm4 0h2v2h-2zm4 0h2v2h-2zm4 0h2v2h-2zm4 0h2v2h-2zm4 0h2v2h-2zm4 0h6v2h-6zm8 0h6v2h-6zm8 0h6v2h-6zm8 0h6v2h-6zm8 0h6v2h-6zm8 0h6v2h-6zm8 0h6v2h-6zm8 0h6v2h-6zm8 0h2v2h-2zm4 0h2v2h-2zm8 0h2v2h-2zm8 0h2v2h-2zm16 0h2v2h-2zm4 0h2v2h-2zm4 0h2v2h-2zm4 0h2v2h-2zm4 0h2v2h-2zm4 0h2v2h-2zm4 0h2v2h-2zm4 0h2v2h-2zm4 0h2v2h-2zm4 0h2v2h-2zm4 0h2v2h-2zm4 0h2v2h-2zm4 0h2v2h-2zm4 0h2v2h-2zm4 0h2v2h-2zm4 0h2v2h-2zm4 0h2v2h-2zm8 0h2v2h-2zm4 0h2v2h-2zm4 0h2v2h-2zm4 0h2v2h-2zm4 0h2v2h-2zm4 0h2v2h-2zm4 0h2v2h-2zm4 0h2v2h-2zm4 0h2v2h-2zm4 0h2v2h-2zm4 0h2v2h-2zm4 0h2v2h-2zM0 170h154v2H0zm156 0h2v2h-2zm4 0h2v2h-2zm4 0h2v2h-2zm4 0h2v2h-2zm4 0h2v2h-2zm4 0h2v2h-2zm4 0h2v2h-2zm4 0h2v2h-2zm4 0h2v2h-2zm4 0h2v2h-2zm4 0h6v2h-6zm8 0h38v2h-38zm40 0h2v2h-2zm4 0h2v2h-2zm4 0h2v2h-2zm4 0h2v2h-2zm4 0h40v2h-40zM0 172h4v2H0zm6 0h6v2H6zm8 0h6v2h-6zm8 0h6v2h-6zm8 0h6v2h-6zm8 0h6v2h-6zm8 0h6v2h-6zm8 0h6v2h-6zm8 0h6v2h-6zm8 0h6v2h-6zm8 0h6v2h-6zm8 0h6v2h-6zm8 0h6v2h-6zm8 0h6v2h-6zm8 0h6v2h-6zm8 0h6v2h-6zm8 0h6v2h-6zm8 0h6v2h-6zm8 0h6v2h-6zm8 0h2v2h-2zm4 0h2v2h-2zm4 0h2v2h-2zm4 0h2v2h-2zm8 0h2v2h-2zm8 0h2v2h-2zm8 0h2v2h-2zm4 0h2v2h-2zm4 0h2v2h-2zm4 0h2v2h-2zm4 0h2v2h-2zm4 0h2v2h-2zm4 0h2v2h-2zm4 0h2v2h-2zm4 0h2v2h-2zm4 0h2v2h-2zm4 0h2v2h-2zm4 0h6v2h-6zm8 0h2v2h-2zm4 0h2v2h-2zm4 0h2v2h-2zm4 0h2v2h-2zm8 0h2v2h-2zm4 0h2v2h-2zm4 0h2v2h-2zm4 0h2v2h-2zm4 0h2v2h-2zm4 0h6v2h-6zm8 0h6v2h-6zm8 0h6v2h-6zM0 174h154v2H0zm156 0h2v2h-2zm4 0h2v2h-2zm4 0h2v2h-2zm4 0h2v2h-2zm4 0h2v2h-2zm4 0h2v2h-2zm4 0h2v2h-2zm4 0h2v2h-2zm4 0h2v2h-2zm4 0h2v2h-2zm4 0h2v2h-2zm4 0h2v2h-2zm4 0h2v2h-2zm4 0h30v2h-30zm32 0h2v2h-2zm4 0h2v2h-2zm4 0h2v2h-2zm4 0h2v2h-2zm4 0h44v2h-44zM2 176h6v2H2zm8 0h6v2h-6zm8 0h6v2h-6zm8 0h6v2h-6zm8 0h6v2h-6zm8 0h2v2h-2zm4 0h2v2h-2zm4 0h2v2h-2zm4 0h2v2h-2zm4 0h2v2h-2zm4 0h2v2h-2zm4 0h2v2h-2zm4 0h2v2h-2zm4 0h2v2h-2zm4 0h2v2h-2zm4 0h2v2h-2zm4 0h2v2h-2zm4 0h6v2h-6zm8 0h6v2h-6zm8 0h2v2h-2zm4 0h2v2h-2zm4 0h2v2h-2zm4 0h2v2h-2zm4 0h6v2h-6zm8 0h6v2h-6zm8 0h6v2h-6zm8 0h2v2h-2zm4 0h2v2h-2zm8 0h2v2h-2zm8 0h2v2h-2zm48 0h2v2h-2zm4 0h2v2h-2zm4 0h2v2h-2zm4 0h2v2h-2zm4 0h2v2h-2zm4 0h2v2h-2zm4 0h2v2h-2zm8 0h2v2h-2zm8 0h2v2h-2zm4 0h2v2h-2zm4 0h2v2h-2zm4 0h2v2h-2zm4 0h2v2h-2zm4 0h6v2h-6zm8 0h2v2h-2zm4 0h2v2h-2zm4 0h2v2h-2zm4 0h2v2h-2zm4 0h2v2h-2zM0 178h154v2H0zm156 0h2v2h-2zm4 0h2v2h-2zm4 0h2v2h-2zm4 0h2v2h-2zm4 0h2v2h-2zm4 0h2v2h-2zm4 0h2v2h-2zm4 0h2v2h-2zm4 0h2v2h-2zm4 0h2v2h-2zm4 0h2v2h-2zm4 0h2v2h-2zm4 0h2v2h-2zm4 0h2v2h-2zm4 0h2v2h-2zm4 0h2v2h-2zm4 0h6v2h-6zm8 0h2v2h-2zm4 0h2v2h-2zm4 0h2v2h-2zm4 0h2v2h-2zm4 0h2v2h-2zm4 0h2v2h-2zm4 0h2v2h-2zm4 0h2v2h-2zm4 0h40v2h-40zM0 180h4v2H0zm6 0h6v2H6zm8 0h6v2h-6zm8 0h6v2h-6zm8 0h6v2h-6zm8 0h6v2h-6zm8 0h6v2h-6zm8 0h6v2h-6zm8 0h6v2h-6zm8 0h6v2h-6zm8 0h6v2h-6zm8 0h6v2h-6zm8 0h6v2h-6zm8 0h6v2h-6zm8 0h6v2h-6zm8 0h6v2h-6zm8 0h6v2h-6zm8 0h6v2h-6zm8 0h6v2h-6zm8 0h2v2h-2zm4 0h2v2h-2zm8 0h2v2h-2zm8 0h2v2h-2zm8 0h2v2h-2zm8 0h2v2h-2zm24 0h2v2h-2zm4 0h2v2h-2zm4 0h2v2h-2zm4 0h2v2h-2zm4 0h2v2h-2zm4 0h2v2h-2zm4 0h2v2h-2zm8 0h2v2h-2zm8 0h2v2h-2zm4 0h2v2h-2zm4 0h2v2h-2zm4 0h6v2h-6zm8 0h6v2h-6zm8 0h6v2h-6zm8 0h6v2h-6zm8 0h6v2h-6zM0 182h154v2H0zm156 0h2v2h-2zm4 0h2v2h-2zm4 0h2v2h-2zm4 0h2v2h-2zm4 0h2v2h-2zm4 0h2v2h-2zm4 0h2v2h-2zm4 0h2v2h-2zm4 0h2v2h-2zm4 0h2v2h-2zm4 0h2v2h-2zm4 0h2v2h-2zm4 0h2v2h-2zm4 0h2v2h-2zm4 0h2v2h-2zm4 0h6v2h-6zm8 0h2v2h-2zm4 0h2v2h-2zm4 0h2v2h-2zm4 0h2v2h-2zm4 0h2v2h-2zm4 0h2v2h-2zm4 0h2v2h-2zm4 0h2v2h-2zm4 0h44v2h-44zM2 184h2v2H2zm4 0h2v2H6zm4 0h2v2h-2zm4 0h2v2h-2zm4 0h6v2h-6zm8 0h6v2h-6zm8 0h6v2h-6zm8 0h2v2h-2zm4 0h2v2h-2zm4 0h2v2h-2zm4 0h2v2h-2zm4 0h2v2h-2zm4 0h2v2h-2zm4 0h2v2h-2zm4 0h2v2h-2zm4 0h2v2h-2zm4 0h2v2h-2zm4 0h6v2h-6zm8 0h6v2h-6zm8 0h6v2h-6zm8 0h6v2h-6zm8 0h6v2h-6zm8 0h2v2h-2zm4 0h2v2h-2zm4 0h2v2h-2zm4 0h2v2h-2zm4 0h2v2h-2zm4 0h2v2h-2zm4 0h2v2h-2zm4 0h2v2h-2zm8 0h2v2h-2zm56 0h2v2h-2zm8 0h2v2h-2zm8 0h2v2h-2zm8 0h2v2h-2zm8 0h2v2h-2zm8 0h2v2h-2zm4 0h2v2h-2zm4 0h2v2h-2zm4 0h2v2h-2zm4 0h2v2h-2zm4 0h6v2h-6zm8 0h6v2h-6zm8 0h6v2h-6zm8 0h2v2h-2zM0 186h130v2H0zm132 0h2v2h-2zm4 0h2v2h-2zm4 0h2v2h-2zm4 0h2v2h-2zm4 0h2v2h-2zm4 0h2v2h-2zm4 0h2v2h-2zm4 0h2v2h-2zm4 0h2v2h-2zm4 0h2v2h-2zm4 0h2v2h-2zm4 0h2v2h-2zm4 0h2v2h-2zm4 0h2v2h-2zm4 0h2v2h-2zm4 0h2v2h-2zm4 0h2v2h-2zm4 0h2v2h-2zm4 0h2v2h-2zm4 0h2v2h-2zm4 0h2v2h-2zm4 0h2v2h-2zm4 0h2v2h-2zm4 0h2v2h-2zm4 0h2v2h-2zm4 0h2v2h-2zm4 0h2v2h-2zm4 0h2v2h-2zm4 0h2v2h-2zm4 0h2v2h-2zm4 0h2v2h-2zm4 0h44v2h-44zM0 188h4v2H0zm6 0h6v2H6zm8 0h6v2h-6zm8 0h6v2h-6zm8 0h6v2h-6zm8 0h6v2h-6zm8 0h6v2h-6zm8 0h6v2h-6zm8 0h6v2h-6zm8 0h6v2h-6zm8 0h6v2h-6zm8 0h6v2h-6zm8 0h6v2h-6zm8 0h6v2h-6zm8 0h6v2h-6zm8 0h6v2h-6zm8 0h2v2h-2zm4 0h2v2h-2zm4 0h2v2h-2zm4 0h2v2h-2zm8 0h2v2h-2zm8 0h2v2h-2zm8 0h2v2h-2zm8 0h2v2h-2zm8 0h2v2h-2zm8 0h2v2h-2zm8 0h2v2h-2zm8 0h2v2h-2zm8 0h2v2h-2zm4 0h2v2h-2zm4 0h2v2h-2zm4 0h2v2h-2zm4 0h2v2h-2zm4 0h2v2h-2zm4 0h2v2h-2zm8 0h2v2h-2zm8 0h2v2h-2zm4 0h6v2h-6zm8 0h6v2h-6zm8 0h6v2h-6zm8 0h6v2h-6zm8 0h6v2h-6zm8 0h6v2h-6zM0 190h126v2H0zm128 0h2v2h-2zm4 0h2v2h-2zm4 0h2v2h-2zm4 0h2v2h-2zm4 0h2v2h-2zm4 0h2v2h-2zm4 0h2v2h-2zm4 0h2v2h-2zm4 0h2v2h-2zm4 0h2v2h-2zm4 0h2v2h-2zm4 0h2v2h-2zm4 0h2v2h-2zm4 0h2v2h-2zm4 0h2v2h-2zm4 0h2v2h-2zm4 0h2v2h-2zm4 0h2v2h-2zm4 0h2v2h-2zm4 0h2v2h-2zm4 0h2v2h-2zm4 0h2v2h-2zm4 0h2v2h-2zm4 0h2v2h-2zm4 0h2v2h-2zm4 0h2v2h-2zm4 0h2v2h-2zm4 0h2v2h-2zm4 0h2v2h-2zm4 0h2v2h-2zm4 0h2v2h-2zm4 0h48v2h-48zM2 192h6v2H2zm8 0h2v2h-2zm4 0h2v2h-2zm4 0h2v2h-2zm4 0h2v2h-2zm4 0h2v2h-2zm4 0h2v2h-2zm4 0h6v2h-6zm8 0h2v2h-2zm4 0h2v2h-2zm4 0h2v2h-2zm4 0h2v2h-2zm4 0h2v2h-2zm4 0h2v2h-2zm4 0h2v2h-2zm4 0h2v2h-2zm4 0h6v2h-6zm8 0h6v2h-6zm8 0h6v2h-6zm8 0h6v2h-6zm8 0h2v2h-2zm4 0h2v2h-2zm4 0h2v2h-2zm4 0h2v2h-2zm4 0h2v2h-2zm4 0h2v2h-2zm32 0h2v2h-2zm8 0h2v2h-2zm24 0h2v2h-2zm16 0h2v2h-2zm8 0h2v2h-2zm8 0h2v2h-2zm8 0h2v2h-2zm4 0h2v2h-2zm4 0h2v2h-2zm8 0h2v2h-2zm8 0h2v2h-2zm4 0h2v2h-2zm4 0h2v2h-2zm4 0h2v2h-2zm4 0h2v2h-2zm4 0h6v2h-6zm8 0h6v2h-6zm8 0h6v2h-6zm8 0h2v2h-2zM0 194h122v2H0zm124 0h2v2h-2zm4 0h2v2h-2zm4 0h2v2h-2zm4 0h2v2h-2zm4 0h2v2h-2zm4 0h2v2h-2zm4 0h2v2h-2zm4 0h2v2h-2zm4 0h2v2h-2zm4 0h2v2h-2zm4 0h2v2h-2zm4 0h2v2h-2zm4 0h2v2h-2zm4 0h2v2h-2zm4 0h2v2h-2zm4 0h2v2h-2zm4 0h2v2h-2zm4 0h2v2h-2zm4 0h2v2h-2zm4 0h2v2h-2zm4 0h2v2h-2zm4 0h2v2h-2zm4 0h2v2h-2zm4 0h2v2h-2zm4 0h2v2h-2zm4 0h2v2h-2zm4 0h2v2h-2zm4 0h2v2h-2zm4 0h2v2h-2zm4 0h2v2h-2zm4 0h2v2h-2zm4 0h2v2h-2zm4 0h48v2h-48zM0 196h4v2H0zm6 0h6v2H6zm8 0h6v2h-6zm8 0h6v2h-6zm8 0h6v2h-6zm8 0h6v2h-6zm8 0h6v2h-6zm8 0h6v2h-6zm8 0h6v2h-6zm8 0h6v2h-6zm8 0h6v2h-6zm8 0h6v2h-6zm8 0h6v2h-6zm8 0h6v2h-6zm8 0h6v2h-6zm8 0h2v2h-2zm4 0h2v2h-2zm8 0h2v2h-2zm8 0h2v2h-2zm8 0h2v2h-2zm8 0h2v2h-2zm8 0h2v2h-2zm8 0h2v2h-2zm8 0h2v2h-2zm8 0h2v2h-2zm8 0h2v2h-2zm8 0h2v2h-2zm8 0h2v2h-2zm8 0h2v2h-2zm8 0h2v2h-2zm4 0h2v2h-2zm4 0h2v2h-2zm4 0h2v2h-2zm4 0h2v2h-2zm8 0h2v2h-2zm4 0h6v2h-6zm8 0h6v2h-6zm8 0h6v2h-6zm8 0h6v2h-6zm8 0h6v2h-6zm8 0h6v2h-6zM0 198h126v2H0zm128 0h2v2h-2zm4 0h2v2h-2zm4 0h2v2h-2zm4 0h2v2h-2zm4 0h2v2h-2zm4 0h2v2h-2zm4 0h2v2h-2zm4 0h2v2h-2zm4 0h2v2h-2zm4 0h2v2h-2zm4 0h2v2h-2zm4 0h2v2h-2zm4 0h2v2h-2zm4 0h2v2h-2zm4 0h2v2h-2zm4 0h2v2h-2zm4 0h2v2h-2zm4 0h2v2h-2zm4 0h2v2h-2zm4 0h2v2h-2zm4 0h2v2h-2zm4 0h2v2h-2zm4 0h2v2h-2zm4 0h2v2h-2zm4 0h2v2h-2zm4 0h2v2h-2zm4 0h2v2h-2zm4 0h2v2h-2zm4 0h2v2h-2zm4 0h2v2h-2zm4 0h2v2h-2zm4 0h48v2h-48zM2 200h6v2H2zm8 0h6v2h-6zm8 0h6v2h-6zm8 0h6v2h-6zm8 0h6v2h-6zm8 0h2v2h-2zm4 0h2v2h-2zm4 0h2v2h-2zm4 0h2v2h-2zm4 0h6v2h-6zm8 0h6v2h-6zm8 0h6v2h-6zm8 0h2v2h-2zm4 0h2v2h-2zm4 0h2v2h-2zm4 0h2v2h-2zm4 0h2v2h-2zm4 0h2v2h-2zm4 0h2v2h-2zm4 0h2v2h-2zm4 0h2v2h-2zm4 0h2v2h-2zm4 0h2v2h-2zm4 0h2v2h-2zm32 0h2v2h-2zm8 0h2v2h-2zm8 0h2v2h-2zm8 0h2v2h-2zm24 0h2v2h-2zm8 0h2v2h-2zm8 0h2v2h-2zm8 0h2v2h-2zm4 0h2v2h-2zm4 0h2v2h-2zm8 0h2v2h-2zm4 0h2v2h-2zm4 0h2v2h-2zm4 0h2v2h-2zm4 0h2v2h-2zm4 0h2v2h-2zm4 0h2v2h-2zm4 0h6v2h-6zm8 0h6v2h-6zm8 0h6v2h-6zm8 0h2v2h-2zM0 202h118v2H0zm120 0h2v2h-2zm4 0h2v2h-2zm4 0h2v2h-2zm4 0h2v2h-2zm4 0h2v2h-2zm4 0h2v2h-2zm4 0h2v2h-2zm4 0h2v2h-2zm4 0h2v2h-2zm4 0h2v2h-2zm4 0h2v2h-2zm4 0h2v2h-2zm4 0h2v2h-2zm4 0h2v2h-2zm4 0h2v2h-2zm4 0h2v2h-2zm4 0h2v2h-2zm4 0h2v2h-2zm4 0h2v2h-2zm4 0h2v2h-2zm4 0h2v2h-2zm4 0h2v2h-2zm4 0h2v2h-2zm4 0h2v2h-2zm4 0h2v2h-2zm4 0h2v2h-2zm4 0h2v2h-2zm4 0h2v2h-2zm4 0h2v2h-2zm4 0h2v2h-2zm4 0h2v2h-2zm4 0h2v2h-2zm4 0h2v2h-2zm4 0h48v2h-48zM0 204h4v2H0zm6 0h6v2H6zm8 0h6v2h-6zm8 0h6v2h-6zm8 0h6v2h-6zm8 0h6v2h-6zm8 0h2v2h-2zm4 0h2v2h-2zm4 0h6v2h-6zm8 0h6v2h-6zm8 0h6v2h-6zm8 0h6v2h-6zm8 0h6v2h-6zm8 0h2v2h-2zm4 0h2v2h-2zm4 0h2v2h-2zm4 0h2v2h-2zm4 0h2v2h-2zm4 0h2v2h-2zm4 0h2v2h-2zm4 0h2v2h-2zm8 0h2v2h-2zm8 0h2v2h-2zm8 0h2v2h-2zm8 0h2v2h-2zm4 0h2v2h-2zm4 0h2v2h-2zm4 0h2v2h-2zm4 0h2v2h-2zm8 0h2v2h-2zm8 0h2v2h-2zm8 0h2v2h-2zm8 0h2v2h-2zm8 0h2v2h-2zm8 0h2v2h-2zm8 0h2v2h-2zm8 0h2v2h-2zm4 0h2v2h-2zm4 0h2v2h-2zm4 0h2v2h-2zm4 0h2v2h-2zm4 0h6v2h-6zm8 0h6v2h-6zm8 0h6v2h-6zm8 0h6v2h-6zm8 0h6v2h-6zm8 0h6v2h-6zM0 206h110v2H0zm112 0h6v2h-6zm8 0h2v2h-2zm4 0h2v2h-2zm4 0h2v2h-2zm4 0h2v2h-2zm4 0h2v2h-2zm4 0h2v2h-2zm4 0h2v2h-2zm4 0h2v2h-2zm4 0h2v2h-2zm4 0h2v2h-2zm4 0h2v2h-2zm4 0h2v2h-2zm4 0h2v2h-2zm4 0h2v2h-2zm4 0h2v2h-2zm4 0h2v2h-2zm4 0h2v2h-2zm4 0h2v2h-2zm4 0h2v2h-2zm4 0h2v2h-2zm4 0h2v2h-2zm4 0h2v2h-2zm4 0h2v2h-2zm4 0h2v2h-2zm4 0h2v2h-2zm4 0h2v2h-2zm4 0h2v2h-2zm4 0h2v2h-2zm4 0h2v2h-2zm4 0h2v2h-2zm4 0h2v2h-2zm4 0h2v2h-2zm4 0h52v2h-52zM2 208h6v2H2zm8 0h6v2h-6zm8 0h6v2h-6zm8 0h6v2h-6zm8 0h6v2h-6zm8 0h2v2h-2zm4 0h2v2h-2zm4 0h2v2h-2zm4 0h2v2h-2zm4 0h2v2h-2zm4 0h2v2h-2zm4 0h6v2h-6zm8 0h2v2h-2zm4 0h2v2h-2zm4 0h2v2h-2zm4 0h2v2h-2zm4 0h2v2h-2zm4 0h2v2h-2zm4 0h2v2h-2zm4 0h2v2h-2zm4 0h2v2h-2zm4 0h2v2h-2zm4 0h2v2h-2zm4 0h2v2h-2zm8 0h2v2h-2zm8 0h2v2h-2zm8 0h2v2h-2zm8 0h2v2h-2zm8 0h2v2h-2zm4 0h2v2h-2zm4 0h2v2h-2zm8 0h2v2h-2zm8 0h2v2h-2zm8 0h2v2h-2zm4 0h2v2h-2zm4 0h2v2h-2zm8 0h2v2h-2zm8 0h2v2h-2zm8 0h2v2h-2zm8 0h2v2h-2zm8 0h2v2h-2zm8 0h2v2h-2zm4 0h2v2h-2zm4 0h2v2h-2zm4 0h2v2h-2zm4 0h2v2h-2zm4 0h2v2h-2zm4 0h2v2h-2zm4 0h6v2h-6zm8 0h6v2h-6zm8 0h6v2h-6zm8 0h2v2h-2zM0 210h98v2H0zm100 0h2v2h-2zm4 0h2v2h-2zm4 0h2v2h-2zm4 0h2v2h-2zm4 0h2v2h-2zm4 0h2v2h-2zm4 0h2v2h-2zm4 0h2v2h-2zm4 0h2v2h-2zm4 0h2v2h-2zm4 0h2v2h-2zm4 0h2v2h-2zm4 0h2v2h-2zm4 0h2v2h-2zm4 0h2v2h-2zm4 0h2v2h-2zm4 0h2v2h-2zm4 0h2v2h-2zm4 0h2v2h-2zm4 0h2v2h-2zm4 0h2v2h-2zm4 0h2v2h-2zm4 0h2v2h-2zm4 0h2v2h-2zm4 0h2v2h-2zm4 0h2v2h-2zm4 0h2v2h-2zm4 0h2v2h-2zm4 0h2v2h-2zm4 0h2v2h-2zm4 0h2v2h-2zm4 0h2v2h-2zm4 0h2v2h-2zm4 0h2v2h-2zm4 0h2v2h-2zm4 0h2v2h-2zm4 0h2v2h-2zm4 0h2v2h-2zm4 0h48v2h-48zM0 212h4v2H0zm6 0h6v2H6zm8 0h6v2h-6zm8 0h6v2h-6zm8 0h6v2h-6zm8 0h6v2h-6zm8 0h2v2h-2zm4 0h2v2h-2zm4 0h6v2h-6zm8 0h6v2h-6zm8 0h6v2h-6zm8 0h6v2h-6zm8 0h2v2h-2zm4 0h2v2h-2zm4 0h2v2h-2zm4 0h2v2h-2zm4 0h2v2h-2zm4 0h2v2h-2zm4 0h2v2h-2zm4 0h2v2h-2zm4 0h2v2h-2zm4 0h2v2h-2zm4 0h2v2h-2zm4 0h2v2h-2zm8 0h2v2h-2zm8 0h2v2h-2zm8 0h2v2h-2zm8 0h2v2h-2zm4 0h2v2h-2zm4 0h2v2h-2zm4 0h2v2h-2zm4 0h2v2h-2zm4 0h2v2h-2zm4 0h2v2h-2zm4 0h6v2h-6zm12 0h2v2h-2zm8 0h2v2h-2zm8 0h2v2h-2zm8 0h2v2h-2zm8 0h2v2h-2zm4 0h2v2h-2zm4 0h2v2h-2zm4 0h2v2h-2zm4 0h2v2h-2zm4 0h6v2h-6zm8 0h6v2h-6zm8 0h6v2h-6zm8 0h6v2h-6zm8 0h6v2h-6zm8 0h6v2h-6zM0 214h94v2H0zm96 0h2v2h-2zm4 0h2v2h-2zm4 0h2v2h-2zm4 0h2v2h-2zm4 0h2v2h-2zm4 0h2v2h-2zm4 0h2v2h-2zm4 0h2v2h-2zm4 0h2v2h-2zm4 0h2v2h-2zm4 0h2v2h-2zm4 0h2v2h-2zm4 0h2v2h-2zm4 0h2v2h-2zm4 0h2v2h-2zm4 0h2v2h-2zm4 0h2v2h-2zm4 0h2v2h-2zm4 0h2v2h-2zm4 0h2v2h-2zm4 0h2v2h-2zm4 0h2v2h-2zm4 0h14v2h-14zm16 0h2v2h-2zm4 0h2v2h-2zm4 0h2v2h-2zm4 0h2v2h-2zm4 0h2v2h-2zm4 0h2v2h-2zm4 0h2v2h-2zm4 0h2v2h-2zm4 0h2v2h-2zm4 0h2v2h-2zm4 0h2v2h-2zm4 0h2v2h-2zm4 0h52v2h-52zM2 216h6v2H2zm8 0h6v2h-6zm8 0h6v2h-6zm8 0h6v2h-6zm8 0h6v2h-6zm8 0h6v2h-6zm8 0h2v2h-2zm4 0h2v2h-2zm4 0h2v2h-2zm4 0h2v2h-2zm4 0h2v2h-2zm4 0h2v2h-2zm4 0h2v2h-2zm4 0h2v2h-2zm4 0h2v2h-2zm4 0h2v2h-2zm4 0h2v2h-2zm4 0h2v2h-2zm4 0h2v2h-2zm4 0h2v2h-2zm4 0h2v2h-2zm4 0h2v2h-2zm4 0h2v2h-2zm4 0h2v2h-2zm8 0h2v2h-2zm8 0h2v2h-2zm8 0h2v2h-2zm8 0h2v2h-2zm8 0h2v2h-2zm4 0h2v2h-2zm4 0h2v2h-2zm4 0h2v2h-2zm4 0h2v2h-2zm4 0h2v2h-2zm4 0h2v2h-2zm4 0h6v2h-6zm8 0h2v2h-2zm4 0h2v2h-2zm8 0h2v2h-2zm8 0h2v2h-2zm8 0h2v2h-2zm8 0h2v2h-2zm8 0h2v2h-2zm4 0h2v2h-2zm4 0h2v2h-2zm4 0h2v2h-2zm4 0h2v2h-2zm4 0h6v2h-6zm8 0h6v2h-6zm8 0h6v2h-6zm8 0h6v2h-6zm8 0h6v2h-6zm8 0h2v2h-2zM0 218h82v2H0zm84 0h6v2h-6zm8 0h2v2h-2zm4 0h2v2h-2zm4 0h2v2h-2zm4 0h2v2h-2zm4 0h2v2h-2zm4 0h2v2h-2zm4 0h2v2h-2zm4 0h2v2h-2zm4 0h2v2h-2zm4 0h2v2h-2zm4 0h2v2h-2zm4 0h2v2h-2zm4 0h2v2h-2zm4 0h2v2h-2zm4 0h2v2h-2zm4 0h2v2h-2zm4 0h2v2h-2zm4 0h2v2h-2zm4 0h6v2h-6zm8 0h2v2h-2zm4 0h2v2h-2zm4 0h14v2h-14zm16 0h2v2h-2zm4 0h2v2h-2zm4 0h2v2h-2zm4 0h2v2h-2zm4 0h2v2h-2zm4 0h2v2h-2zm4 0h2v2h-2zm4 0h2v2h-2zm4 0h2v2h-2zm4 0h2v2h-2zm4 0h2v2h-2zm4 0h2v2h-2zm4 0h56v2h-56zM0 220h4v2H0zm6 0h6v2H6zm8 0h6v2h-6zm8 0h6v2h-6zm8 0h6v2h-6zm8 0h6v2h-6zm8 0h6v2h-6zm8 0h2v2h-2zm4 0h2v2h-2zm4 0h2v2h-2zm4 0h2v2h-2zm4 0h2v2h-2zm4 0h2v2h-2zm4 0h2v2h-2zm4 0h2v2h-2zm4 0h2v2h-2zm4 0h2v2h-2zm4 0h2v2h-2zm4 0h2v2h-2zm4 0h2v2h-2zm4 0h2v2h-2zm4 0h2v2h-2zm4 0h2v2h-2zm4 0h2v2h-2zm4 0h2v2h-2zm4 0h2v2h-2zm4 0h2v2h-2zm8 0h2v2h-2zm8 0h2v2h-2zm8 0h2v2h-2zm8 0h2v2h-2zm4 0h6v2h-6zm8 0h2v2h-2zm4 0h2v2h-2zm4 0h6v2h-6zm8 0h2v2h-2zm4 0h2v2h-2zm4 0h2v2h-2zm4 0h2v2h-2zm4 0h2v2h-2zm4 0h2v2h-2zm4 0h2v2h-2zm4 0h2v2h-2zm4 0h2v2h-2zm4 0h2v2h-2zm8 0h2v2h-2zm4 0h2v2h-2zm4 0h2v2h-2zm4 0h2v2h-2zm4 0h2v2h-2zm4 0h6v2h-6zm8 0h6v2h-6zm8 0h6v2h-6zm8 0h6v2h-6zm8 0h6v2h-6zm8 0h6v2h-6zM0 222h82v2H0zm84 0h2v2h-2zm4 0h2v2h-2zm4 0h2v2h-2zm4 0h2v2h-2zm4 0h2v2h-2zm4 0h2v2h-2zm4 0h2v2h-2zm4 0h2v2h-2zm4 0h2v2h-2zm4 0h2v2h-2zm4 0h2v2h-2zm4 0h2v2h-2zm4 0h2v2h-2zm4 0h2v2h-2zm4 0h2v2h-2zm4 0h2v2h-2zm4 0h2v2h-2zm4 0h2v2h-2zm4 0h2v2h-2zm4 0h2v2h-2zm4 0h2v2h-2zm4 0h22v2h-22zm24 0h2v2h-2zm4 0h2v2h-2zm4 0h2v2h-2zm4 0h2v2h-2zm4 0h2v2h-2zm4 0h2v2h-2zm4 0h2v2h-2zm4 0h2v2h-2zm4 0h2v2h-2zm4 0h2v2h-2zm4 0h2v2h-2zm4 0h2v2h-2zm4 0h60v2h-60zM2 224h6v2H2zm8 0h6v2h-6zm8 0h2v2h-2zm4 0h2v2h-2zm4 0h2v2h-2zm4 0h2v2h-2zm4 0h2v2h-2zm4 0h2v2h-2zm4 0h2v2h-2zm4 0h2v2h-2zm4 0h2v2h-2zm4 0h2v2h-2zm4 0h2v2h-2zm4 0h2v2h-2zm4 0h2v2h-2zm4 0h2v2h-2zm4 0h2v2h-2zm4 0h2v2h-2zm4 0h2v2h-2zm4 0h2v2h-2zm8 0h2v2h-2zm8 0h2v2h-2zm8 0h2v2h-2zm8 0h2v2h-2zm8 0h2v2h-2zm8 0h2v2h-2zm24 0h2v2h-2zm16 0h2v2h-2zm4 0h6v2h-6zm8 0h2v2h-2zm4 0h2v2h-2zm8 0h2v2h-2zm4 0h2v2h-2zm4 0h2v2h-2zm8 0h2v2h-2zm8 0h2v2h-2zm8 0h2v2h-2zm8 0h2v2h-2zm4 0h2v2h-2zm4 0h2v2h-2zm4 0h2v2h-2zm4 0h2v2h-2zm4 0h2v2h-2zm4 0h2v2h-2zm4 0h6v2h-6zm8 0h6v2h-6zm8 0h6v2h-6zm8 0h6v2h-6zm8 0h2v2h-2zM0 226h58v2H0zm60 0h6v2h-6zm8 0h6v2h-6zm8 0h2v2h-2zm4 0h2v2h-2zm4 0h2v2h-2zm4 0h2v2h-2zm4 0h2v2h-2zm4 0h2v2h-2zm4 0h2v2h-2zm4 0h2v2h-2zm4 0h2v2h-2zm4 0h2v2h-2zm4 0h2v2h-2zm4 0h2v2h-2zm4 0h2v2h-2zm4 0h2v2h-2zm4 0h2v2h-2zm4 0h2v2h-2zm4 0h2v2h-2zm4 0h2v2h-2zm4 0h2v2h-2zm4 0h2v2h-2zm4 0h2v2h-2zm4 0h2v2h-2zm4 0h2v2h-2zm4 0h2v2h-2zm4 0h2v2h-2zm4 0h2v2h-2zm4 0h6v2h-6zm8 0h2v2h-2zm4 0h2v2h-2zm4 0h2v2h-2zm4 0h2v2h-2zm4 0h2v2h-2zm4 0h2v2h-2zm4 0h2v2h-2zm4 0h2v2h-2zm4 0h2v2h-2zm4 0h2v2h-2zm4 0h2v2h-2zm4 0h2v2h-2zm4 0h2v2h-2zm4 0h2v2h-2zm4 0h56v2h-56zM0 228h4v2H0zm6 0h6v2H6zm8 0h6v2h-6zm8 0h6v2h-6zm8 0h6v2h-6zm8 0h6v2h-6zm8 0h6v2h-6zm8 0h2v2h-2zm4 0h2v2h-2zm4 0h2v2h-2zm4 0h2v2h-2zm4 0h2v2h-2zm4 0h2v2h-2zm4 0h2v2h-2zm4 0h2v2h-2zm4 0h2v2h-2zm4 0h2v2h-2zm4 0h2v2h-2zm4 0h2v2h-2zm4 0h2v2h-2zm4 0h2v2h-2zm4 0h2v2h-2zm4 0h2v2h-2zm4 0h2v2h-2zm4 0h2v2h-2zm4 0h2v2h-2zm4 0h2v2h-2zm8 0h2v2h-2zm8 0h2v2h-2zm8 0h2v2h-2zm8 0h2v2h-2zm8 0h2v2h-2zm8 0h2v2h-2zm4 0h2v2h-2zm4 0h2v2h-2zm4 0h2v2h-2zm4 0h2v2h-2zm4 0h2v2h-2zm4 0h2v2h-2zm4 0h2v2h-2zm4 0h2v2h-2zm4 0h2v2h-2zm4 0h2v2h-2zm4 0h2v2h-2zm4 0h2v2h-2zm4 0h2v2h-2zm4 0h2v2h-2zm4 0h2v2h-2zm4 0h2v2h-2zm4 0h2v2h-2zm4 0h2v2h-2zm4 0h6v2h-6zm8 0h6v2h-6zm8 0h6v2h-6zm8 0h6v2h-6zm8 0h6v2h-6zm8 0h6v2h-6zM0 230h62v2H0zm64 0h6v2h-6zm8 0h2v2h-2zm4 0h2v2h-2zm4 0h2v2h-2zm4 0h2v2h-2zm4 0h2v2h-2zm4 0h2v2h-2zm4 0h2v2h-2zm4 0h2v2h-2zm4 0h2v2h-2zm4 0h2v2h-2zm4 0h2v2h-2zm4 0h2v2h-2zm4 0h2v2h-2zm4 0h2v2h-2zm4 0h2v2h-2zm4 0h2v2h-2zm4 0h2v2h-2zm4 0h2v2h-2zm4 0h2v2h-2zm4 0h2v2h-2zm4 0h2v2h-2zm4 0h2v2h-2zm4 0h2v2h-2zm4 0h2v2h-2zm4 0h2v2h-2zm4 0h2v2h-2zm4 0h2v2h-2zm4 0h2v2h-2zm4 0h2v2h-2zm4 0h2v2h-2zm4 0h2v2h-2zm4 0h2v2h-2zm4 0h2v2h-2zm4 0h2v2h-2zm4 0h2v2h-2zm4 0h2v2h-2zm4 0h2v2h-2zm4 0h2v2h-2zm4 0h2v2h-2zm4 0h2v2h-2zm4 0h2v2h-2zm4 0h2v2h-2zm4 0h60v2h-60zM2 232h6v2H2zm8 0h2v2h-2zm4 0h2v2h-2zm4 0h2v2h-2zm4 0h2v2h-2zm4 0h6v2h-6zm8 0h2v2h-2zm4 0h2v2h-2zm4 0h2v2h-2zm4 0h2v2h-2zm4 0h2v2h-2zm4 0h2v2h-2zm4 0h2v2h-2zm4 0h2v2h-2zm4 0h2v2h-2zm4 0h2v2h-2zm8 0h2v2h-2zm8 0h2v2h-2zm8 0h2v2h-2zm8 0h2v2h-2zm8 0h2v2h-2zm8 0h2v2h-2zm8 0h2v2h-2zm8 0h2v2h-2zm8 0h2v2h-2zm16 0h2v2h-2zm8 0h2v2h-2zm8 0h2v2h-2zm4 0h2v2h-2zm4 0h2v2h-2zm8 0h2v2h-2zm4 0h2v2h-2zm4 0h2v2h-2zm4 0h2v2h-2zm4 0h2v2h-2zm8 0h2v2h-2zm8 0h2v2h-2zm8 0h2v2h-2zm8 0h2v2h-2zm4 0h2v2h-2zm4 0h2v2h-2zm4 0h2v2h-2zm4 0h2v2h-2zm4 0h6v2h-6zm8 0h6v2h-6zm8 0h6v2h-6zm8 0h6v2h-6zm8 0h6v2h-6zm8 0h2v2h-2zM0 234h58v2H0zm60 0h6v2h-6zm8 0h2v2h-2zm4 0h2v2h-2zm4 0h2v2h-2zm4 0h2v2h-2zm4 0h2v2h-2zm4 0h2v2h-2zm4 0h2v2h-2zm4 0h2v2h-2zm4 0h2v2h-2zm4 0h2v2h-2zm4 0h2v2h-2zm4 0h2v2h-2zm4 0h2v2h-2zm4 0h2v2h-2zm4 0h2v2h-2zm4 0h2v2h-2zm4 0h2v2h-2zm4 0h2v2h-2zm4 0h2v2h-2zm4 0h2v2h-2zm4 0h2v2h-2zm4 0h2v2h-2zm4 0h2v2h-2zm4 0h2v2h-2zm4 0h2v2h-2zm4 0h2v2h-2zm4 0h2v2h-2zm4 0h2v2h-2zm4 0h2v2h-2zm4 0h2v2h-2zm4 0h2v2h-2zm4 0h2v2h-2zm4 0h2v2h-2zm4 0h2v2h-2zm4 0h2v2h-2zm4 0h2v2h-2zm4 0h2v2h-2zm4 0h2v2h-2zm4 0h2v2h-2zm4 0h2v2h-2zm4 0h2v2h-2zm4 0h2v2h-2zm4 0h2v2h-2zm4 0h2v2h-2zm4 0h56v2h-56zM0 236h4v2H0zm6 0h6v2H6zm8 0h6v2h-6zm8 0h6v2h-6zm8 0h2v2h-2zm4 0h2v2h-2zm4 0h6v2h-6zm8 0h2v2h-2zm4 0h2v2h-2zm4 0h2v2h-2zm4 0h2v2h-2zm4 0h2v2h-2zm4 0h2v2h-2zm4 0h2v2h-2zm4 0h2v2h-2zm8 0h2v2h-2zm8 0h2v2h-2zm8 0h2v2h-2zm4 0h2v2h-2zm4 0h2v2h-2zm8 0h2v2h-2zm8 0h2v2h-2zm4 0h2v2h-2zm4 0h2v2h-2zm4 0h2v2h-2zm4 0h2v2h-2zm8 0h2v2h-2zm8 0h2v2h-2zm4 0h2v2h-2zm4 0h2v2h-2zm4 0h2v2h-2zm4 0h2v2h-2zm4 0h2v2h-2zm4 0h2v2h-2zm4 0h2v2h-2zm4 0h2v2h-2zm4 0h2v2h-2zm4 0h2v2h-2zm4 0h2v2h-2zm4 0h2v2h-2zm4 0h2v2h-2zm4 0h2v2h-2zm4 0h2v2h-2zm4 0h2v2h-2zm4 0h2v2h-2zm4 0h2v2h-2zm4 0h2v2h-2zm4 0h2v2h-2zm4 0h2v2h-2zm4 0h2v2h-2zm4 0h6v2h-6zm8 0h6v2h-6zm8 0h6v2h-6zm8 0h6v2h-6zm8 0h14v2h-14zm16 0h6v2h-6zM0 238h70v2H0zm72 0h2v2h-2zm4 0h2v2h-2zm4 0h2v2h-2zm4 0h2v2h-2zm4 0h2v2h-2zm4 0h2v2h-2zm4 0h2v2h-2zm4 0h2v2h-2zm4 0h2v2h-2zm4 0h2v2h-2zm4 0h2v2h-2zm4 0h2v2h-2zm4 0h2v2h-2zm4 0h2v2h-2zm4 0h2v2h-2zm4 0h2v2h-2zm4 0h2v2h-2zm4 0h2v2h-2zm4 0h2v2h-2zm4 0h2v2h-2zm4 0h2v2h-2zm4 0h2v2h-2zm4 0h2v2h-2zm4 0h2v2h-2zm4 0h2v2h-2zm4 0h2v2h-2zm4 0h2v2h-2zm4 0h2v2h-2zm4 0h2v2h-2zm4 0h2v2h-2zm4 0h2v2h-2zm4 0h2v2h-2zm4 0h2v2h-2zm4 0h2v2h-2zm4 0h2v2h-2zm4 0h2v2h-2zm4 0h2v2h-2zm4 0h2v2h-2zm4 0h2v2h-2zm4 0h2v2h-2zm4 0h2v2h-2zm4 0h2v2h-2zm4 0h60v2h-60zM2 240h2v2H2zm4 0h2v2H6zm4 0h2v2h-2zm4 0h2v2h-2zm4 0h2v2h-2zm4 0h2v2h-2zm4 0h2v2h-2zm4 0h2v2h-2zm4 0h6v2h-6zm8 0h2v2h-2zm4 0h2v2h-2zm4 0h6v2h-6zm8 0h2v2h-2zm4 0h2v2h-2zm4 0h2v2h-2zm4 0h2v2h-2zm8 0h2v2h-2zm8 0h2v2h-2zm8 0h2v2h-2zm8 0h2v2h-2zm8 0h2v2h-2zm8 0h2v2h-2zm8 0h2v2h-2zm8 0h2v2h-2zm8 0h2v2h-2zm8 0h2v2h-2zm8 0h2v2h-2zm8 0h2v2h-2zm8 0h2v2h-2zm8 0h2v2h-2zm4 0h2v2h-2zm4 0h2v2h-2zm8 0h2v2h-2zm8 0h2v2h-2zm8 0h2v2h-2zm8 0h2v2h-2zm8 0h2v2h-2zm4 0h2v2h-2zm4 0h2v2h-2zm4 0h6v2h-6zm8 0h6v2h-6zm8 0h2v2h-2zm4 0h2v2h-2zm4 0h2v2h-2zm4 0h2v2h-2zm4 0h6v2h-6zm8 0h6v2h-6zm8 0h6v2h-6zm8 0h2v2h-2zM0 242h10v2H0zm12 0h54v2H12zm56 0h2v2h-2zm4 0h2v2h-2zm4 0h2v2h-2zm4 0h2v2h-2zm4 0h2v2h-2zm4 0h2v2h-2zm4 0h2v2h-2zm4 0h2v2h-2zm4 0h2v2h-2zm4 0h2v2h-2zm4 0h2v2h-2zm4 0h2v2h-2zm4 0h2v2h-2zm4 0h2v2h-2zm4 0h2v2h-2zm4 0h2v2h-2zm4 0h2v2h-2zm4 0h2v2h-2zm4 0h2v2h-2zm4 0h2v2h-2zm4 0h2v2h-2zm4 0h2v2h-2zm4 0h2v2h-2zm4 0h2v2h-2zm4 0h2v2h-2zm4 0h2v2h-2zm4 0h2v2h-2zm4 0h2v2h-2zm4 0h2v2h-2zm4 0h2v2h-2zm4 0h2v2h-2zm4 0h2v2h-2zm4 0h2v2h-2zm4 0h2v2h-2zm4 0h2v2h-2zm4 0h2v2h-2zm4 0h2v2h-2zm4 0h2v2h-2zm4 0h2v2h-2zm4 0h2v2h-2zm4 0h2v2h-2zm4 0h2v2h-2zm4 0h2v2h-2zm4 0h2v2h-2zm4 0h56v2h-56zM2 244h2v2H2zm4 0h2v2H6zm4 0h2v2h-2zm4 0h2v2h-2zm4 0h2v2h-2zm4 0h2v2h-2zm4 0h2v2h-2zm4 0h6v2h-6zm8 0h2v2h-2zm4 0h2v2h-2zm4 0h2v2h-2zm4 0h2v2h-2zm4 0h2v2h-2zm4 0h2v2h-2zm4 0h2v2h-2zm4 0h2v2h-2zm4 0h2v2h-2zm4 0h2v2h-2zm4 0h2v2h-2zm4 0h2v2h-2zm4 0h2v2h-2zm4 0h2v2h-2zm8 0h2v2h-2zm8 0h2v2h-2zm8 0h2v2h-2zm4 0h2v2h-2zm4 0h2v2h-2zm4 0h2v2h-2zm4 0h2v2h-2zm8 0h2v2h-2zm4 0h2v2h-2zm4 0h2v2h-2zm4 0h2v2h-2zm4 0h2v2h-2zm4 0h2v2h-2zm4 0h2v2h-2zm4 0h2v2h-2zm4 0h2v2h-2zm4 0h2v2h-2zm4 0h2v2h-2zm4 0h2v2h-2zm4 0h2v2h-2zm4 0h2v2h-2zm4 0h2v2h-2zm4 0h2v2h-2zm4 0h2v2h-2zm4 0h2v2h-2zm4 0h2v2h-2zm4 0h2v2h-2zm4 0h2v2h-2zm8 0h2v2h-2zm4 0h2v2h-2zm4 0h2v2h-2zm4 0h2v2h-2zm4 0h2v2h-2zm4 0h6v2h-6zm8 0h6v2h-6zm8 0h6v2h-6zm8 0h6v2h-6zm8 0h6v2h-6zm8 0h6v2h-6zm8 0h6v2h-6zM0 246h70v2H0zm72 0h2v2h-2zm4 0h2v2h-2zm4 0h2v2h-2zm4 0h2v2h-2zm4 0h2v2h-2zm4 0h2v2h-2zm4 0h2v2h-2zm4 0h2v2h-2zm4 0h2v2h-2zm4 0h2v2h-2zm4 0h2v2h-2zm4 0h2v2h-2zm4 0h2v2h-2zm4 0h2v2h-2zm4 0h2v2h-2zm4 0h2v2h-2zm4 0h2v2h-2zm4 0h2v2h-2zm4 0h2v2h-2zm4 0h2v2h-2zm4 0h2v2h-2zm4 0h2v2h-2zm4 0h2v2h-2zm4 0h2v2h-2zm4 0h2v2h-2zm4 0h2v2h-2zm4 0h2v2h-2zm4 0h2v2h-2zm4 0h2v2h-2zm4 0h2v2h-2zm4 0h2v2h-2zm4 0h2v2h-2zm4 0h2v2h-2zm4 0h2v2h-2zm4 0h2v2h-2zm4 0h2v2h-2zm4 0h2v2h-2zm4 0h2v2h-2zm4 0h2v2h-2zm4 0h2v2h-2zm4 0h2v2h-2zm4 0h2v2h-2zm4 0h60v2h-60zM2 248h2v2H2zm4 0h2v2H6zm4 0h2v2h-2zm4 0h2v2h-2zm4 0h2v2h-2zm4 0h2v2h-2zm4 0h2v2h-2zm4 0h2v2h-2zm4 0h2v2h-2zm4 0h2v2h-2zm4 0h2v2h-2zm4 0h2v2h-2zm4 0h2v2h-2zm4 0h2v2h-2zm4 0h2v2h-2zm4 0h2v2h-2zm4 0h2v2h-2zm4 0h2v2h-2zm4 0h2v2h-2zm4 0h2v2h-2zm4 0h2v2h-2zm4 0h2v2h-2zm8 0h2v2h-2zm8 0h2v2h-2zm8 0h2v2h-2zm8 0h2v2h-2zm8 0h2v2h-2zm8 0h2v2h-2zm8 0h2v2h-2zm8 0h2v2h-2zm8 0h2v2h-2zm8 0h2v2h-2zm8 0h2v2h-2zm8 0h2v2h-2zm8 0h2v2h-2zm8 0h2v2h-2zm8 0h2v2h-2zm8 0h2v2h-2zm8 0h2v2h-2zm8 0h2v2h-2zm4 0h2v2h-2zm4 0h2v2h-2zm4 0h2v2h-2zm4 0h2v2h-2zm4 0h6v2h-6zm8 0h6v2h-6zm8 0h6v2h-6zm8 0h6v2h-6zm8 0h6v2h-6zm8 0h6v2h-6zm8 0h2v2h-2zM0 250h2v2H0zm4 0h2v2H4zm4 0h2v2H8zm4 0h6v2h-6zm8 0h6v2h-6zm8 0h14v2H28zm16 0h14v2H44zm16 0h6v2h-6zm8 0h6v2h-6zm8 0h6v2h-6zm8 0h2v2h-2zm4 0h2v2h-2zm4 0h2v2h-2zm4 0h2v2h-2zm4 0h2v2h-2zm4 0h2v2h-2zm4 0h2v2h-2zm4 0h2v2h-2zm4 0h2v2h-2zm4 0h2v2h-2zm4 0h2v2h-2zm4 0h2v2h-2zm4 0h2v2h-2zm4 0h2v2h-2zm4 0h2v2h-2zm4 0h2v2h-2zm4 0h2v2h-2zm4 0h2v2h-2zm4 0h2v2h-2zm4 0h2v2h-2zm4 0h2v2h-2zm4 0h2v2h-2zm4 0h2v2h-2zm4 0h2v2h-2zm4 0h2v2h-2zm4 0h2v2h-2zm4 0h2v2h-2zm4 0h2v2h-2zm4 0h2v2h-2zm4 0h2v2h-2zm4 0h2v2h-2zm4 0h2v2h-2zm4 0h2v2h-2zm4 0h2v2h-2zm4 0h2v2h-2zm4 0h2v2h-2zm4 0h2v2h-2zm4 0h2v2h-2zm4 0h64v2h-64zM2 252h2v2H2zm4 0h2v2H6zm4 0h2v2h-2zm4 0h2v2h-2zm4 0h2v2h-2zm4 0h2v2h-2zm4 0h2v2h-2zm4 0h2v2h-2zm4 0h2v2h-2zm4 0h2v2h-2zm4 0h2v2h-2zm4 0h2v2h-2zm4 0h2v2h-2zm4 0h2v2h-2zm4 0h2v2h-2zm4 0h2v2h-2zm4 0h2v2h-2zm4 0h2v2h-2zm4 0h2v2h-2zm4 0h2v2h-2zm4 0h2v2h-2zm4 0h2v2h-2zm4 0h2v2h-2zm4 0h2v2h-2zm4 0h2v2h-2zm4 0h2v2h-2zm4 0h2v2h-2zm4 0h2v2h-2zm4 0h2v2h-2zm4 0h2v2h-2zm4 0h2v2h-2zm8 0h2v2h-2zm4 0h2v2h-2zm4 0h2v2h-2zm4 0h2v2h-2zm4 0h2v2h-2zm8 0h2v2h-2zm8 0h2v2h-2zm8 0h2v2h-2zm8 0h2v2h-2zm8 0h2v2h-2zm8 0h2v2h-2zm8 0h2v2h-2zm8 0h2v2h-2zm8 0h2v2h-2zm4 0h2v2h-2zm4 0h2v2h-2zm4 0h2v2h-2zm4 0h2v2h-2zm4 0h6v2h-6zm8 0h2v2h-2zm4 0h2v2h-2zm4 0h6v2h-6zm8 0h6v2h-6zm8 0h6v2h-6zm8 0h6v2h-6zm8 0h6v2h-6zm8 0h6v2h-6zM0 254h2v2H0zm4 0h2v2H4zm4 0h2v2H8zm4 0h2v2h-2zm4 0h2v2h-2zm4 0h2v2h-2zm4 0h6v2h-6zm8 0h62v2H32zm64 0h2v2h-2zm4 0h2v2h-2zm4 0h2v2h-2zm4 0h2v2h-2zm4 0h2v2h-2zm4 0h2v2h-2zm4 0h2v2h-2zm4 0h2v2h-2zm4 0h2v2h-2zm4 0h2v2h-2zm4 0h2v2h-2zm4 0h2v2h-2zm4 0h2v2h-2zm4 0h2v2h-2zm4 0h2v2h-2zm4 0h2v2h-2zm4 0h2v2h-2zm4 0h2v2h-2zm4 0h2v2h-2zm4 0h2v2h-2zm4 0h2v2h-2zm4 0h2v2h-2zm4 0h2v2h-2zm4 0h2v2h-2zm4 0h2v2h-2zm4 0h2v2h-2zm4 0h2v2h-2zm4 0h2v2h-2zm4 0h2v2h-2zm4 0h2v2h-2zm4 0h2v2h-2zm4 0h2v2h-2zm4 0h2v2h-2zm4 0h2v2h-2zm4 0h68v2h-68zM6 256h2v2H6zm8 0h2v2h-2zm4 0h2v2h-2zm4 0h2v2h-2zm4 0h2v2h-2zm4 0h2v2h-2zm4 0h2v2h-2zm4 0h2v2h-2zm4 0h2v2h-2zm4 0h2v2h-2zm4 0h2v2h-2zm4 0h2v2h-2zm4 0h2v2h-2zm4 0h2v2h-2zm4 0h2v2h-2zm4 0h2v2h-2zm4 0h2v2h-2zm4 0h2v2h-2zm4 0h2v2h-2zm4 0h2v2h-2zm4 0h2v2h-2zm4 0h2v2h-2zm4 0h2v2h-2zm4 0h2v2h-2zm4 0h2v2h-2zm4 0h2v2h-2zm4 0h2v2h-2zm4 0h2v2h-2zm8 0h2v2h-2zm8 0h2v2h-2zm8 0h2v2h-2zm8 0h2v2h-2zm72 0h2v2h-2zm8 0h2v2h-2zm4 0h2v2h-2zm4 0h2v2h-2zm4 0h2v2h-2zm4 0h2v2h-2zm4 0h2v2h-2zm4 0h2v2h-2zm4 0h2v2h-2zm4 0h2v2h-2zm4 0h2v2h-2zm4 0h2v2h-2zm4 0h6v2h-6zm8 0h6v2h-6zm8 0h6v2h-6zm8 0h2v2h-2zM0 258h2v2H0zm4 0h2v2H4zm4 0h2v2H8zm4 0h2v2h-2zm4 0h2v2h-2zm4 0h2v2h-2zm4 0h2v2h-2zm4 0h6v2h-6zm8 0h6v2h-6zm8 0h46v2H44zm48 0h6v2h-6zm8 0h6v2h-6zm8 0h2v2h-2zm4 0h2v2h-2zm4 0h2v2h-2zm4 0h2v2h-2zm4 0h2v2h-2zm4 0h2v2h-2zm4 0h2v2h-2zm4 0h2v2h-2zm4 0h2v2h-2zm4 0h2v2h-2zm4 0h2v2h-2zm4 0h2v2h-2zm4 0h2v2h-2zm4 0h2v2h-2zm4 0h2v2h-2zm4 0h2v2h-2zm4 0h2v2h-2zm4 0h2v2h-2zm4 0h2v2h-2zm4 0h2v2h-2zm4 0h2v2h-2zm4 0h2v2h-2zm4 0h2v2h-2zm4 0h2v2h-2zm4 0h2v2h-2zm4 0h2v2h-2zm4 0h2v2h-2zm4 0h2v2h-2zm4 0h2v2h-2zm4 0h2v2h-2zm4 0h2v2h-2zm4 0h2v2h-2zm4 0h6v2h-6zm8 0h56v2h-56zM2 260h2v2H2zm4 0h2v2H6zm4 0h2v2h-2zm4 0h2v2h-2zm4 0h2v2h-2zm4 0h2v2h-2zm4 0h2v2h-2zm4 0h2v2h-2zm4 0h2v2h-2zm4 0h2v2h-2zm4 0h2v2h-2zm4 0h2v2h-2zm4 0h2v2h-2zm4 0h6v2h-6zm8 0h6v2h-6zm8 0h6v2h-6zm8 0h6v2h-6zm8 0h2v2h-2zm4 0h2v2h-2zm4 0h2v2h-2zm4 0h2v2h-2zm4 0h2v2h-2zm4 0h2v2h-2zm4 0h2v2h-2zm4 0h2v2h-2zm4 0h2v2h-2zm4 0h2v2h-2zm4 0h2v2h-2zm4 0h2v2h-2zm8 0h2v2h-2zm8 0h2v2h-2zm8 0h2v2h-2zm8 0h2v2h-2zm8 0h2v2h-2zm8 0h2v2h-2zm8 0h2v2h-2zm8 0h2v2h-2zm8 0h2v2h-2zm8 0h2v2h-2zm8 0h2v2h-2zm8 0h2v2h-2zm4 0h2v2h-2zm4 0h2v2h-2zm4 0h6v2h-6zm8 0h6v2h-6zm8 0h6v2h-6zm8 0h2v2h-2zm4 0h2v2h-2zm4 0h6v2h-6zm8 0h6v2h-6zm8 0h6v2h-6zm8 0h6v2h-6zM0 262h2v2H0zm4 0h2v2H4zm4 0h2v2H8zm4 0h2v2h-2zm4 0h2v2h-2zm4 0h2v2h-2zm4 0h6v2h-6zm8 0h78v2H32zm80 0h2v2h-2zm4 0h2v2h-2zm4 0h2v2h-2zm4 0h2v2h-2zm4 0h2v2h-2zm4 0h2v2h-2zm4 0h2v2h-2zm4 0h2v2h-2zm4 0h2v2h-2zm4 0h2v2h-2zm4 0h2v2h-2zm4 0h2v2h-2zm4 0h2v2h-2zm4 0h2v2h-2zm4 0h2v2h-2zm4 0h2v2h-2zm4 0h2v2h-2zm4 0h2v2h-2zm4 0h2v2h-2zm4 0h2v2h-2zm4 0h2v2h-2zm4 0h2v2h-2zm4 0h2v2h-2zm4 0h2v2h-2zm4 0h2v2h-2zm4 0h2v2h-2zm4 0h2v2h-2zm4 0h2v2h-2zm4 0h2v2h-2zm4 0h2v2h-2zm4 0h68v2h-68zM6 264h2v2H6zm4 0h2v2h-2zm4 0h2v2h-2zm4 0h2v2h-2zm4 0h2v2h-2zm4 0h2v2h-2zm4 0h2v2h-2zm4 0h2v2h-2zm4 0h2v2h-2zm4 0h2v2h-2zm4 0h2v2h-2zm4 0h2v2h-2zm4 0h2v2h-2zm4 0h2v2h-2zm4 0h2v2h-2zm4 0h2v2h-2zm4 0h2v2h-2zm4 0h2v2h-2zm4 0h2v2h-2zm4 0h2v2h-2zm4 0h2v2h-2zm4 0h2v2h-2zm4 0h2v2h-2zm4 0h2v2h-2zm4 0h2v2h-2zm4 0h2v2h-2zm4 0h2v2h-2zm4 0h2v2h-2zm4 0h2v2h-2zm8 0h2v2h-2zm8 0h2v2h-2zm96 0h2v2h-2zm4 0h2v2h-2zm4 0h2v2h-2zm4 0h2v2h-2zm4 0h2v2h-2zm4 0h6v2h-6zm8 0h2v2h-2zm4 0h2v2h-2zm4 0h2v2h-2zm4 0h2v2h-2zm4 0h2v2h-2zm4 0h2v2h-2zm4 0h2v2h-2zm4 0h2v2h-2zm4 0h2v2h-2zm4 0h2v2h-2zm4 0h2v2h-2zM0 266h2v2H0zm4 0h2v2H4zm4 0h2v2H8zm4 0h2v2h-2zm4 0h2v2h-2zm4 0h2v2h-2zm4 0h2v2h-2zm4 0h2v2h-2zm4 0h2v2h-2zm4 0h70v2H36zm72 0h6v2h-6zm8 0h2v2h-2zm4 0h2v2h-2zm4 0h2v2h-2zm4 0h2v2h-2zm4 0h2v2h-2zm4 0h2v2h-2zm4 0h2v2h-2zm4 0h2v2h-2zm4 0h2v2h-2zm4 0h2v2h-2zm4 0h2v2h-2zm4 0h2v2h-2zm4 0h2v2h-2zm4 0h2v2h-2zm4 0h2v2h-2zm4 0h2v2h-2zm4 0h2v2h-2zm4 0h2v2h-2zm4 0h2v2h-2zm4 0h2v2h-2zm4 0h2v2h-2zm4 0h2v2h-2zm4 0h2v2h-2zm4 0h2v2h-2zm4 0h2v2h-2zm4 0h2v2h-2zm4 0h2v2h-2zm4 0h2v2h-2zm4 0h2v2h-2zm4 0h2v2h-2zm4 0h38v2h-38zm40 0h24v2h-24zM2 268h2v2H2zm4 0h2v2H6zm4 0h2v2h-2zm4 0h2v2h-2zm4 0h2v2h-2zm4 0h2v2h-2zm4 0h2v2h-2zm4 0h2v2h-2zm4 0h2v2h-2zm4 0h2v2h-2zm4 0h2v2h-2zm4 0h2v2h-2zm4 0h2v2h-2zm4 0h2v2h-2zm4 0h2v2h-2zm4 0h6v2h-6zm8 0h6v2h-6zm8 0h6v2h-6zm8 0h2v2h-2zm4 0h2v2h-2zm4 0h6v2h-6zm8 0h2v2h-2zm4 0h2v2h-2zm4 0h2v2h-2zm4 0h2v2h-2zm4 0h2v2h-2zm4 0h2v2h-2zm4 0h2v2h-2zm4 0h2v2h-2zm8 0h2v2h-2zm24 0h2v2h-2zm64 0h2v2h-2zm8 0h2v2h-2zm4 0h2v2h-2zm4 0h2v2h-2zm4 0h2v2h-2zm4 0h2v2h-2zm4 0h2v2h-2zm4 0h2v2h-2zm4 0h2v2h-2zm4 0h2v2h-2zm4 0h2v2h-2zm4 0h2v2h-2zm4 0h2v2h-2zm4 0h2v2h-2zm4 0h6v2h-6zm8 0h6v2h-6zM0 270h2v2H0zm4 0h2v2H4zm4 0h2v2H8zm4 0h2v2h-2zm4 0h2v2h-2zm4 0h2v2h-2zm4 0h6v2h-6zm8 0h78v2H32zm80 0h2v2h-2zm4 0h2v2h-2zm4 0h2v2h-2zm4 0h2v2h-2zm4 0h2v2h-2zm4 0h2v2h-2zm4 0h2v2h-2zm4 0h2v2h-2zm4 0h2v2h-2zm4 0h2v2h-2zm4 0h2v2h-2zm4 0h2v2h-2zm4 0h2v2h-2zm4 0h2v2h-2zm4 0h2v2h-2zm4 0h2v2h-2zm4 0h2v2h-2zm4 0h2v2h-2zm4 0h2v2h-2zm4 0h2v2h-2zm4 0h2v2h-2zm4 0h2v2h-2zm4 0h2v2h-2zm4 0h2v2h-2zm4 0h2v2h-2zm4 0h2v2h-2zm4 0h2v2h-2zm4 0h2v2h-2zm4 0h2v2h-2zm4 0h2v2h-2zm4 0h2v2h-2zm4 0h2v2h-2zm4 0h6v2h-6zm8 0h52v2h-52zM6 272h2v2H6zm8 0h2v2h-2zm4 0h2v2h-2zm4 0h2v2h-2zm4 0h2v2h-2zm4 0h2v2h-2zm4 0h2v2h-2zm4 0h2v2h-2zm4 0h2v2h-2zm4 0h2v2h-2zm4 0h2v2h-2zm4 0h2v2h-2zm4 0h2v2h-2zm4 0h2v2h-2zm4 0h2v2h-2zm4 0h2v2h-2zm4 0h2v2h-2zm4 0h2v2h-2zm4 0h2v2h-2zm4 0h2v2h-2zm4 0h6v2h-6zm8 0h6v2h-6zm8 0h2v2h-2zm4 0h2v2h-2zm4 0h2v2h-2zm4 0h2v2h-2zm8 0h2v2h-2zm8 0h2v2h-2zm104 0h2v2h-2zm4 0h2v2h-2zm4 0h2v2h-2zm4 0h2v2h-2zm4 0h2v2h-2zm4 0h2v2h-2zm4 0h2v2h-2zm4 0h2v2h-2zm4 0h2v2h-2zm4 0h2v2h-2zm4 0h2v2h-2zm4 0h2v2h-2zm4 0h2v2h-2zm4 0h2v2h-2zm4 0h2v2h-2zm4 0h2v2h-2zM0 274h2v2H0zm4 0h2v2H4zm4 0h2v2H8zm4 0h2v2h-2zm4 0h2v2h-2zm4 0h2v2h-2zm4 0h2v2h-2zm4 0h2v2h-2zm4 0h2v2h-2zm4 0h6v2h-6zm8 0h6v2h-6zm8 0h6v2h-6zm8 0h6v2h-6zm8 0h6v2h-6zm8 0h6v2h-6zm8 0h22v2H84zm24 0h2v2h-2zm4 0h2v2h-2zm4 0h2v2h-2zm4 0h2v2h-2zm4 0h2v2h-2zm4 0h2v2h-2zm4 0h2v2h-2zm4 0h2v2h-2zm4 0h2v2h-2zm4 0h2v2h-2zm4 0h2v2h-2zm4 0h2v2h-2zm4 0h2v2h-2zm4 0h2v2h-2zm4 0h2v2h-2zm4 0h2v2h-2zm4 0h2v2h-2zm4 0h2v2h-2zm4 0h2v2h-2zm4 0h2v2h-2zm4 0h2v2h-2zm8 0h2v2h-2zm4 0h2v2h-2zm4 0h2v2h-2zm4 0h2v2h-2zm4 0h2v2h-2zm8 0h2v2h-2zm8 0h2v2h-2zm4 0h2v2h-2zm4 0h2v2h-2zm4 0h2v2h-2zm4 0h6v2h-6zm8 0h6v2h-6zm8 0h6v2h-6zm8 0h6v2h-6zm8 0h6v2h-6zm8 0h16v2h-16zM2 276h2v2H2zm4 0h2v2H6zm4 0h2v2h-2zm4 0h2v2h-2zm4 0h2v2h-2zm4 0h2v2h-2zm4 0h2v2h-2zm4 0h2v2h-2zm4 0h2v2h-2zm4 0h2v2h-2zm4 0h2v2h-2zm4 0h2v2h-2zm4 0h2v2h-2zm4 0h2v2h-2zm4 0h2v2h-2zm4 0h2v2h-2zm4 0h2v2h-2zm4 0h2v2h-2zm4 0h2v2h-2zm4 0h2v2h-2zm4 0h2v2h-2zm4 0h2v2h-2zm4 0h2v2h-2zm4 0h6v2h-6zm8 0h2v2h-2zm4 0h2v2h-2zm4 0h2v2h-2zm4 0h2v2h-2zm4 0h2v2h-2zm4 0h2v2h-2zm4 0h2v2h-2zm4 0h2v2h-2zm8 0h2v2h-2zm8 0h2v2h-2zm8 0h2v2h-2zm84 0h2v2h-2zm4 0h2v2h-2zm4 0h2v2h-2zm4 0h2v2h-2zm4 0h2v2h-2zm4 0h2v2h-2zm4 0h2v2h-2zm4 0h2v2h-2zm4 0h2v2h-2zm4 0h2v2h-2zm4 0h2v2h-2zm4 0h2v2h-2zm4 0h2v2h-2zm4 0h2v2h-2zm4 0h2v2h-2zm4 0h2v2h-2zM0 278h2v2H0zm4 0h2v2H4zm4 0h2v2H8zm4 0h2v2h-2zm4 0h2v2h-2zm4 0h2v2h-2zm4 0h6v2h-6zm8 0h6v2h-6zm8 0h6v2h-6zm8 0h6v2h-6zm8 0h6v2h-6zm8 0h6v2h-6zm8 0h6v2h-6zm8 0h30v2H80zm32 0h6v2h-6zm8 0h2v2h-2zm4 0h2v2h-2zm4 0h2v2h-2zm4 0h2v2h-2zm4 0h2v2h-2zm4 0h2v2h-2zm4 0h2v2h-2zm4 0h2v2h-2zm4 0h2v2h-2zm4 0h2v2h-2zm4 0h2v2h-2zm4 0h2v2h-2zm4 0h2v2h-2zm4 0h2v2h-2zm4 0h2v2h-2zm4 0h2v2h-2zm4 0h2v2h-2zm4 0h2v2h-2zm4 0h2v2h-2zm4 0h2v2h-2zm4 0h2v2h-2zm4 0h2v2h-2zm4 0h2v2h-2zm4 0h2v2h-2zm4 0h2v2h-2zm4 0h2v2h-2zm4 0h2v2h-2zm4 0h2v2h-2zm4 0h2v2h-2zm4 0h2v2h-2zm4 0h6v2h-6zm8 0h38v2h-38zm40 0h12v2h-12zM6 280h2v2H6zm4 0h2v2h-2zm4 0h2v2h-2zm4 0h2v2h-2zm4 0h2v2h-2zm4 0h2v2h-2zm4 0h2v2h-2zm4 0h2v2h-2zm4 0h2v2h-2zm4 0h2v2h-2zm4 0h2v2h-2zm4 0h2v2h-2zm4 0h2v2h-2zm4 0h2v2h-2zm4 0h2v2h-2zm4 0h2v2h-2zm4 0h2v2h-2zm4 0h2v2h-2zm4 0h2v2h-2zm4 0h2v2h-2zm4 0h2v2h-2zm4 0h2v2h-2zm4 0h2v2h-2zm4 0h2v2h-2zm4 0h2v2h-2zm4 0h2v2h-2zm4 0h2v2h-2zm4 0h2v2h-2zm4 0h2v2h-2zm4 0h2v2h-2zm4 0h2v2h-2zm8 0h2v2h-2zm8 0h2v2h-2zm96 0h2v2h-2zm4 0h2v2h-2zm4 0h2v2h-2zm4 0h2v2h-2zm4 0h2v2h-2zm4 0h2v2h-2zm4 0h2v2h-2zm4 0h2v2h-2zm4 0h2v2h-2zm4 0h2v2h-2zm4 0h2v2h-2zm4 0h2v2h-2zm4 0h2v2h-2zm4 0h2v2h-2zm4 0h2v2h-2zm4 0h2v2h-2zM0 282h2v2H0zm4 0h2v2H4zm4 0h2v2H8zm4 0h2v2h-2zm4 0h2v2h-2zm4 0h2v2h-2zm4 0h2v2h-2zm4 0h2v2h-2zm4 0h2v2h-2zm4 0h2v2h-2zm4 0h2v2h-2zm4 0h2v2h-2zm4 0h2v2h-2zm4 0h2v2h-2zm4 0h2v2h-2zm4 0h6v2h-6zm8 0h6v2h-6zm8 0h6v2h-6zm8 0h6v2h-6zm8 0h14v2H92zm16 0h6v2h-6zm8 0h6v2h-6zm8 0h2v2h-2zm4 0h2v2h-2zm4 0h2v2h-2zm4 0h2v2h-2zm4 0h2v2h-2zm4 0h2v2h-2zm4 0h2v2h-2zm4 0h2v2h-2zm4 0h2v2h-2zm4 0h2v2h-2zm4 0h2v2h-2zm4 0h2v2h-2zm4 0h2v2h-2zm8 0h2v2h-2zm8 0h2v2h-2zm4 0h2v2h-2zm4 0h2v2h-2zm4 0h2v2h-2zm4 0h2v2h-2zm8 0h2v2h-2zm8 0h2v2h-2zm8 0h2v2h-2zm8 0h2v2h-2zm4 0h2v2h-2zm4 0h6v2h-6zm8 0h2v2h-2zm4 0h2v2h-2zm4 0h6v2h-6zm8 0h14v2h-14zm16 0h6v2h-6zm8 0h8v2h-8zM2 284h2v2H2zm4 0h2v2H6zm4 0h2v2h-2zm4 0h2v2h-2zm4 0h2v2h-2zm4 0h2v2h-2zm4 0h2v2h-2zm4 0h2v2h-2zm4 0h2v2h-2zm4 0h2v2h-2zm4 0h2v2h-2zm4 0h2v2h-2zm4 0h2v2h-2zm4 0h2v2h-2zm4 0h2v2h-2zm4 0h2v2h-2zm4 0h2v2h-2zm4 0h2v2h-2zm4 0h2v2h-2zm4 0h2v2h-2zm4 0h2v2h-2zm4 0h2v2h-2zm4 0h2v2h-2zm4 0h6v2h-6zm8 0h2v2h-2zm4 0h2v2h-2zm4 0h2v2h-2zm4 0h2v2h-2zm4 0h2v2h-2zm4 0h2v2h-2zm4 0h2v2h-2zm4 0h2v2h-2zm8 0h2v2h-2zm8 0h2v2h-2zm96 0h2v2h-2zm4 0h2v2h-2zm4 0h2v2h-2zm4 0h2v2h-2zm4 0h2v2h-2zm4 0h2v2h-2zm4 0h2v2h-2zm4 0h2v2h-2zm4 0h2v2h-2zm4 0h2v2h-2zm4 0h2v2h-2zm4 0h2v2h-2zm4 0h2v2h-2zm4 0h2v2h-2zm4 0h2v2h-2zM0 286h2v2H0zm4 0h2v2H4zm4 0h2v2H8zm4 0h2v2h-2zm4 0h2v2h-2zm4 0h2v2h-2zm4 0h2v2h-2zm4 0h2v2h-2zm4 0h6v2h-6zm8 0h6v2h-6zm8 0h6v2h-6zm8 0h14v2H56zm16 0h6v2h-6zm8 0h6v2h-6zm8 0h22v2H88zm24 0h10v2h-10zm12 0h2v2h-2zm4 0h2v2h-2zm4 0h2v2h-2zm4 0h2v2h-2zm4 0h2v2h-2zm4 0h2v2h-2zm4 0h2v2h-2zm4 0h2v2h-2zm4 0h2v2h-2zm4 0h2v2h-2zm4 0h2v2h-2zm4 0h2v2h-2zm4 0h2v2h-2zm4 0h2v2h-2zm4 0h2v2h-2zm4 0h2v2h-2zm4 0h2v2h-2zm4 0h2v2h-2zm4 0h2v2h-2zm4 0h2v2h-2zm4 0h2v2h-2zm4 0h2v2h-2zm4 0h2v2h-2zm4 0h2v2h-2zm8 0h2v2h-2zm8 0h2v2h-2zm4 0h2v2h-2zm4 0h2v2h-2zm4 0h2v2h-2zm4 0h6v2h-6zm8 0h6v2h-6zm8 0h6v2h-6zm8 0h14v2h-14zm16 0h12v2h-12zM6 288h2v2H6zm8 0h2v2h-2zm8 0h2v2h-2zm4 0h2v2h-2zm4 0h2v2h-2zm4 0h2v2h-2zm4 0h2v2h-2zm4 0h2v2h-2zm4 0h2v2h-2zm4 0h2v2h-2zm4 0h2v2h-2zm4 0h2v2h-2zm4 0h2v2h-2zm4 0h2v2h-2zm4 0h2v2h-2zm4 0h2v2h-2zm4 0h2v2h-2zm4 0h2v2h-2zm4 0h2v2h-2zm4 0h2v2h-2zm4 0h2v2h-2zm4 0h2v2h-2zm4 0h2v2h-2zm4 0h2v2h-2zm4 0h2v2h-2zm4 0h2v2h-2zm4 0h2v2h-2zm4 0h2v2h-2zm4 0h2v2h-2zm8 0h2v2h-2zm108 0h2v2h-2zm4 0h2v2h-2zm4 0h2v2h-2zm4 0h2v2h-2zm4 0h2v2h-2zm4 0h2v2h-2zm4 0h2v2h-2zm4 0h2v2h-2zm4 0h2v2h-2zm4 0h2v2h-2zm4 0h2v2h-2zm4 0h2v2h-2zm4 0h2v2h-2zm4 0h2v2h-2zm4 0h2v2h-2zM0 290h2v2H0zm4 0h2v2H4zm4 0h2v2H8zm4 0h2v2h-2zm4 0h2v2h-2zm4 0h2v2h-2zm4 0h2v2h-2zm4 0h6v2h-6zm8 0h6v2h-6zm8 0h6v2h-6zm8 0h6v2h-6zm8 0h6v2h-6zm8 0h2v2h-2zm4 0h2v2h-2zm4 0h2v2h-2zm4 0h2v2h-2zm4 0h6v2h-6zm8 0h30v2H92zm32 0h2v2h-2zm4 0h2v2h-2zm4 0h2v2h-2zm4 0h2v2h-2zm4 0h2v2h-2zm4 0h2v2h-2zm4 0h2v2h-2zm4 0h2v2h-2zm4 0h2v2h-2zm4 0h2v2h-2zm4 0h2v2h-2zm4 0h2v2h-2zm4 0h2v2h-2zm4 0h2v2h-2zm4 0h2v2h-2zm4 0h2v2h-2zm4 0h2v2h-2zm4 0h2v2h-2zm4 0h2v2h-2zm4 0h2v2h-2zm4 0h2v2h-2zm8 0h2v2h-2zm8 0h2v2h-2zm8 0h2v2h-2zm8 0h2v2h-2zm4 0h2v2h-2zm4 0h2v2h-2zm4 0h2v2h-2zm4 0h2v2h-2zm4 0h2v2h-2zm4 0h2v2h-2zm4 0h2v2h-2zm4 0h2v2h-2zm4 0h6v2h-6zm8 0h2v2h-2zm4 0h6v2h-6zm8 0h8v2h-8zM2 292h2v2H2zm4 0h2v2H6zm4 0h2v2h-2zm4 0h2v2h-2zm4 0h2v2h-2zm4 0h2v2h-2zm4 0h2v2h-2zm4 0h2v2h-2zm4 0h2v2h-2zm4 0h2v2h-2zm4 0h2v2h-2zm4 0h2v2h-2zm4 0h2v2h-2zm4 0h2v2h-2zm4 0h2v2h-2zm4 0h2v2h-2zm4 0h2v2h-2zm4 0h2v2h-2zm4 0h2v2h-2zm4 0h2v2h-2zm4 0h2v2h-2zm4 0h2v2h-2zm4 0h2v2h-2zm4 0h2v2h-2zm4 0h2v2h-2zm4 0h2v2h-2zm4 0h2v2h-2zm4 0h6v2h-6zm8 0h2v2h-2zm4 0h2v2h-2zm4 0h2v2h-2zm4 0h2v2h-2zm8 0h2v2h-2zm8 0h2v2h-2zm24 0h2v2h-2zm8 0h2v2h-2zm8 0h2v2h-2zm4 0h2v2h-2zm4 0h2v2h-2zm48 0h2v2h-2zm4 0h2v2h-2zm4 0h2v2h-2zm4 0h2v2h-2zm4 0h2v2h-2zm4 0h2v2h-2zm4 0h2v2h-2zm4 0h2v2h-2zm4 0h2v2h-2zm4 0h2v2h-2zm4 0h2v2h-2zm4 0h2v2h-2zm4 0h2v2h-2zm4 0h2v2h-2zm4 0h2v2h-2zM0 294h2v2H0zm4 0h2v2H4zm4 0h2v2H8zm4 0h2v2h-2zm4 0h2v2h-2zm4 0h2v2h-2zm4 0h6v2h-6zm8 0h6v2h-6zm8 0h6v2h-6zm8 0h6v2h-6zm8 0h6v2h-6zm8 0h6v2h-6zm8 0h6v2h-6zm8 0h6v2h-6zm8 0h6v2h-6zm8 0h30v2H96zm32 0h2v2h-2zm4 0h2v2h-2zm4 0h2v2h-2zm4 0h2v2h-2zm4 0h2v2h-2zm4 0h2v2h-2zm4 0h2v2h-2zm4 0h2v2h-2zm4 0h2v2h-2zm4 0h2v2h-2zm4 0h2v2h-2zm4 0h2v2h-2zm4 0h2v2h-2zm4 0h2v2h-2zm4 0h2v2h-2zm4 0h2v2h-2zm4 0h2v2h-2zm4 0h2v2h-2zm4 0h2v2h-2zm4 0h2v2h-2zm4 0h2v2h-2zm4 0h2v2h-2zm4 0h2v2h-2zm4 0h2v2h-2zm4 0h2v2h-2zm4 0h2v2h-2zm4 0h2v2h-2zm4 0h2v2h-2zm4 0h2v2h-2zm4 0h2v2h-2zm4 0h2v2h-2zm4 0h2v2h-2zm4 0h2v2h-2zm4 0h2v2h-2zm4 0h2v2h-2zm4 0h2v2h-2zm4 0h6v2h-6zm8 0h6v2h-6zm8 0h6v2h-6zm8 0h4v2h-4zM6 296h2v2H6zm4 0h2v2h-2zm4 0h2v2h-2zm4 0h2v2h-2zm4 0h2v2h-2zm4 0h2v2h-2zm4 0h2v2h-2zm4 0h2v2h-2zm4 0h2v2h-2zm4 0h2v2h-2zm4 0h2v2h-2zm4 0h2v2h-2zm4 0h2v2h-2zm4 0h2v2h-2zm4 0h2v2h-2zm4 0h2v2h-2zm4 0h2v2h-2zm4 0h2v2h-2zm4 0h2v2h-2zm4 0h2v2h-2zm4 0h2v2h-2zm4 0h2v2h-2zm4 0h2v2h-2zm4 0h2v2h-2zm4 0h2v2h-2zm4 0h2v2h-2zm4 0h2v2h-2zm4 0h6v2h-6zm8 0h2v2h-2zm4 0h2v2h-2zm32 0h2v2h-2zm8 0h2v2h-2zm8 0h2v2h-2zm8 0h2v2h-2zm8 0h2v2h-2zm56 0h2v2h-2zm8 0h2v2h-2zm4 0h2v2h-2zm4 0h2v2h-2zm4 0h2v2h-2zm4 0h2v2h-2zm4 0h2v2h-2zm4 0h2v2h-2zm4 0h2v2h-2zm4 0h2v2h-2zm4 0h2v2h-2zm4 0h2v2h-2zm4 0h2v2h-2zM0 298h2v2H0zm4 0h2v2H4zm4 0h2v2H8zm4 0h2v2h-2zm4 0h2v2h-2zm4 0h6v2h-6zm8 0h6v2h-6zm8 0h6v2h-6zm8 0h6v2h-6zm8 0h6v2h-6zm8 0h6v2h-6zm8 0h2v2h-2zm4 0h2v2h-2zm4 0h2v2h-2zm4 0h2v2h-2zm4 0h2v2h-2zm4 0h2v2h-2zm4 0h14v2H92zm16 0h14v2h-14zm16 0h2v2h-2zm4 0h2v2h-2zm4 0h2v2h-2zm4 0h2v2h-2zm4 0h2v2h-2zm4 0h2v2h-2zm4 0h2v2h-2zm4 0h2v2h-2zm4 0h2v2h-2zm4 0h2v2h-2zm4 0h2v2h-2zm4 0h2v2h-2zm4 0h2v2h-2zm4 0h2v2h-2zm4 0h2v2h-2zm4 0h2v2h-2zm4 0h2v2h-2zm4 0h2v2h-2zm4 0h2v2h-2zm4 0h2v2h-2zm4 0h2v2h-2zm8 0h2v2h-2zm4 0h2v2h-2zm4 0h2v2h-2zm4 0h2v2h-2zm4 0h2v2h-2zm4 0h2v2h-2zm4 0h2v2h-2zm4 0h2v2h-2zm4 0h2v2h-2zm4 0h2v2h-2zm4 0h2v2h-2zm4 0h2v2h-2zm4 0h2v2h-2zm4 0h2v2h-2zm4 0h2v2h-2zm4 0h2v2h-2zm4 0h6v2h-6zm8 0h6v2h-6zm8 0h6v2h-6z"/></svg>