<?xml version="1.0" encoding="UTF-8" standalone="no"?>
<!-- Created with Inkscape (http://www.inkscape.org/) -->

<svg
   width="300"
   height="300"
   viewBox="0 0 300 300"
   version="1.1"
   id="svg1"
   inkscape:version="1.3.2 (091e20e, 2023-11-25, custom)"
   sodipodi:docname="h1.svg"
   xmlns:inkscape="http://www.inkscape.org/namespaces/inkscape"
   xmlns:sodipodi="http://sodipodi.sourceforge.net/DTD/sodipodi-0.dtd"
   xmlns="http://www.w3.org/2000/svg"
   xmlns:svg="http://www.w3.org/2000/svg">
  <sodipodi:namedview
     id="namedview1"
     pagecolor="#ffffff"
     bordercolor="#000000"
     borderopacity="0.25"
     inkscape:showpageshadow="2"
     inkscape:pageopacity="0.0"
     inkscape:pagecheckerboard="0"
     inkscape:deskcolor="#d1d1d1"
     inkscape:document-units="px"
     inkscape:zoom="1"
     inkscape:cx="150"
     inkscape:cy="150.5"
     inkscape:window-width="1366"
     inkscape:window-height="705"
     inkscape:window-x="-8"
     inkscape:window-y="-8"
     inkscape:window-maximized="1"
     inkscape:current-layer="layer1" />
  <defs
     id="defs1">
    <inkscape:path-effect
       effect="bspline"
       id="path-effect35"
       is_visible="true"
       lpeversion="1.3"
       weight="33.333333"
       steps="2"
       helper_size="0"
       apply_no_weight="true"
       apply_with_weight="true"
       only_selected="false"
       uniform="false" />
    <inkscape:path-effect
       effect="bspline"
       id="path-effect34"
       is_visible="true"
       lpeversion="1.3"
       weight="33.333333"
       steps="2"
       helper_size="0"
       apply_no_weight="true"
       apply_with_weight="true"
       only_selected="false"
       uniform="false" />
    <inkscape:path-effect
       effect="bspline"
       id="path-effect33"
       is_visible="true"
       lpeversion="1.3"
       weight="33.333333"
       steps="2"
       helper_size="0"
       apply_no_weight="true"
       apply_with_weight="true"
       only_selected="false"
       uniform="false" />
    <inkscape:path-effect
       effect="bspline"
       id="path-effect32"
       is_visible="true"
       lpeversion="1.3"
       weight="33.333333"
       steps="2"
       helper_size="0"
       apply_no_weight="true"
       apply_with_weight="true"
       only_selected="false"
       uniform="false" />
    <inkscape:path-effect
       effect="bspline"
       id="path-effect31"
       is_visible="true"
       lpeversion="1.3"
       weight="33.333333"
       steps="2"
       helper_size="0"
       apply_no_weight="true"
       apply_with_weight="true"
       only_selected="false"
       uniform="false" />
    <inkscape:path-effect
       effect="bspline"
       id="path-effect30"
       is_visible="true"
       lpeversion="1.3"
       weight="33.333333"
       steps="2"
       helper_size="0"
       apply_no_weight="true"
       apply_with_weight="true"
       only_selected="false"
       uniform="false" />
    <inkscape:path-effect
       effect="bspline"
       id="path-effect29"
       is_visible="true"
       lpeversion="1.3"
       weight="33.333333"
       steps="2"
       helper_size="0"
       apply_no_weight="true"
       apply_with_weight="true"
       only_selected="false"
       uniform="false" />
    <inkscape:path-effect
       effect="bspline"
       id="path-effect28"
       is_visible="true"
       lpeversion="1.3"
       weight="33.333333"
       steps="2"
       helper_size="0"
       apply_no_weight="true"
       apply_with_weight="true"
       only_selected="false"
       uniform="false" />
    <inkscape:path-effect
       effect="bspline"
       id="path-effect27"
       is_visible="true"
       lpeversion="1.3"
       weight="33.333333"
       steps="2"
       helper_size="0"
       apply_no_weight="true"
       apply_with_weight="true"
       only_selected="false"
       uniform="false" />
    <inkscape:path-effect
       effect="bspline"
       id="path-effect26"
       is_visible="true"
       lpeversion="1.3"
       weight="33.333333"
       steps="2"
       helper_size="0"
       apply_no_weight="true"
       apply_with_weight="true"
       only_selected="false"
       uniform="false" />
    <inkscape:path-effect
       effect="bspline"
       id="path-effect25"
       is_visible="true"
       lpeversion="1.3"
       weight="33.333333"
       steps="2"
       helper_size="0"
       apply_no_weight="true"
       apply_with_weight="true"
       only_selected="false"
       uniform="false" />
    <inkscape:path-effect
       effect="bspline"
       id="path-effect24"
       is_visible="true"
       lpeversion="1.3"
       weight="33.333333"
       steps="2"
       helper_size="0"
       apply_no_weight="true"
       apply_with_weight="true"
       only_selected="false"
       uniform="false" />
    <inkscape:path-effect
       effect="bspline"
       id="path-effect23"
       is_visible="true"
       lpeversion="1.3"
       weight="33.333333"
       steps="2"
       helper_size="0"
       apply_no_weight="true"
       apply_with_weight="true"
       only_selected="false"
       uniform="false" />
    <inkscape:path-effect
       effect="bspline"
       id="path-effect22"
       is_visible="true"
       lpeversion="1.3"
       weight="33.333333"
       steps="2"
       helper_size="0"
       apply_no_weight="true"
       apply_with_weight="true"
       only_selected="false"
       uniform="false" />
    <inkscape:path-effect
       effect="bspline"
       id="path-effect21"
       is_visible="true"
       lpeversion="1.3"
       weight="33.333333"
       steps="2"
       helper_size="0"
       apply_no_weight="true"
       apply_with_weight="true"
       only_selected="false"
       uniform="false" />
    <inkscape:path-effect
       effect="bspline"
       id="path-effect20"
       is_visible="true"
       lpeversion="1.3"
       weight="33.333333"
       steps="2"
       helper_size="0"
       apply_no_weight="true"
       apply_with_weight="true"
       only_selected="false"
       uniform="false" />
    <inkscape:path-effect
       effect="bspline"
       id="path-effect19"
       is_visible="true"
       lpeversion="1.3"
       weight="33.333333"
       steps="2"
       helper_size="0"
       apply_no_weight="true"
       apply_with_weight="true"
       only_selected="false"
       uniform="false" />
    <inkscape:path-effect
       effect="bspline"
       id="path-effect18"
       is_visible="true"
       lpeversion="1.3"
       weight="33.333333"
       steps="2"
       helper_size="0"
       apply_no_weight="true"
       apply_with_weight="true"
       only_selected="false"
       uniform="false" />
    <inkscape:path-effect
       effect="bspline"
       id="path-effect17"
       is_visible="true"
       lpeversion="1.3"
       weight="33.333333"
       steps="2"
       helper_size="0"
       apply_no_weight="true"
       apply_with_weight="true"
       only_selected="false"
       uniform="false" />
    <inkscape:path-effect
       effect="bspline"
       id="path-effect16"
       is_visible="true"
       lpeversion="1.3"
       weight="33.333333"
       steps="2"
       helper_size="0"
       apply_no_weight="true"
       apply_with_weight="true"
       only_selected="false"
       uniform="false" />
    <inkscape:path-effect
       effect="bspline"
       id="path-effect15"
       is_visible="true"
       lpeversion="1.3"
       weight="33.333333"
       steps="2"
       helper_size="0"
       apply_no_weight="true"
       apply_with_weight="true"
       only_selected="false"
       uniform="false" />
    <inkscape:path-effect
       effect="bspline"
       id="path-effect14"
       is_visible="true"
       lpeversion="1.3"
       weight="33.333333"
       steps="2"
       helper_size="0"
       apply_no_weight="true"
       apply_with_weight="true"
       only_selected="false"
       uniform="false" />
    <inkscape:path-effect
       effect="bspline"
       id="path-effect13"
       is_visible="true"
       lpeversion="1.3"
       weight="33.333333"
       steps="2"
       helper_size="0"
       apply_no_weight="true"
       apply_with_weight="true"
       only_selected="false"
       uniform="false" />
    <inkscape:path-effect
       effect="bspline"
       id="path-effect12"
       is_visible="true"
       lpeversion="1.3"
       weight="33.333333"
       steps="2"
       helper_size="0"
       apply_no_weight="true"
       apply_with_weight="true"
       only_selected="false"
       uniform="false" />
    <inkscape:path-effect
       effect="bspline"
       id="path-effect11"
       is_visible="true"
       lpeversion="1.3"
       weight="33.333333"
       steps="2"
       helper_size="0"
       apply_no_weight="true"
       apply_with_weight="true"
       only_selected="false"
       uniform="false" />
    <inkscape:path-effect
       effect="bspline"
       id="path-effect10"
       is_visible="true"
       lpeversion="1.3"
       weight="33.333333"
       steps="2"
       helper_size="0"
       apply_no_weight="true"
       apply_with_weight="true"
       only_selected="false"
       uniform="false" />
    <inkscape:path-effect
       effect="bspline"
       id="path-effect9"
       is_visible="true"
       lpeversion="1.3"
       weight="33.333333"
       steps="2"
       helper_size="0"
       apply_no_weight="true"
       apply_with_weight="true"
       only_selected="false"
       uniform="false" />
    <inkscape:path-effect
       effect="bspline"
       id="path-effect8"
       is_visible="true"
       lpeversion="1.3"
       weight="33.333333"
       steps="2"
       helper_size="0"
       apply_no_weight="true"
       apply_with_weight="true"
       only_selected="false"
       uniform="false" />
    <inkscape:path-effect
       effect="bspline"
       id="path-effect7"
       is_visible="true"
       lpeversion="1.3"
       weight="33.333333"
       steps="2"
       helper_size="0"
       apply_no_weight="true"
       apply_with_weight="true"
       only_selected="false"
       uniform="false" />
    <inkscape:path-effect
       effect="bspline"
       id="path-effect6"
       is_visible="true"
       lpeversion="1.3"
       weight="33.333333"
       steps="2"
       helper_size="0"
       apply_no_weight="true"
       apply_with_weight="true"
       only_selected="false"
       uniform="false" />
    <inkscape:path-effect
       effect="bspline"
       id="path-effect5"
       is_visible="true"
       lpeversion="1.3"
       weight="33.333333"
       steps="2"
       helper_size="0"
       apply_no_weight="true"
       apply_with_weight="true"
       only_selected="false"
       uniform="false" />
    <inkscape:path-effect
       effect="bspline"
       id="path-effect4"
       is_visible="true"
       lpeversion="1.3"
       weight="33.333333"
       steps="2"
       helper_size="0"
       apply_no_weight="true"
       apply_with_weight="true"
       only_selected="false"
       uniform="false" />
    <inkscape:path-effect
       effect="bspline"
       id="path-effect3"
       is_visible="true"
       lpeversion="1.3"
       weight="33.333333"
       steps="2"
       helper_size="0"
       apply_no_weight="true"
       apply_with_weight="true"
       only_selected="false"
       uniform="false" />
    <inkscape:path-effect
       effect="bspline"
       id="path-effect2"
       is_visible="true"
       lpeversion="1.3"
       weight="33.333333"
       steps="2"
       helper_size="0"
       apply_no_weight="true"
       apply_with_weight="true"
       only_selected="false"
       uniform="false" />
    <inkscape:path-effect
       effect="bspline"
       id="path-effect1"
       is_visible="true"
       lpeversion="1.3"
       weight="33.333333"
       steps="2"
       helper_size="0"
       apply_no_weight="true"
       apply_with_weight="true"
       only_selected="false"
       uniform="false" />
  </defs>
  <g
     inkscape:label="Layer 1"
     inkscape:groupmode="layer"
     id="layer1">
    <path
       id="path11"
       style="color:#000000;fill:#000000;stroke-linecap:round;stroke-linejoin:round;-inkscape-stroke:none"
       d="m 64.629813,56.527027 a 4,4 0 0 0 -3.505859,4.439453 c 0.666665,5.666655 1.323127,11.248783 1.984375,19.679687 0.661247,8.430906 1.329429,19.754583 1.996093,31.087893 a 4,4 0 0 0 4.226563,3.75781 4,4 0 0 0 3.757813,-4.22656 c -0.342357,-5.82007 -0.684641,-11.626354 -1.027344,-17.074221 4.358806,-0.448082 8.335405,-0.620956 9.177734,-0.46289 0.021,0.126849 -0.0058,0.01185 0.06445,0.503906 0.257176,1.800232 0.487517,1.493627 0.634766,3.849609 0.147255,2.355986 0.158206,7.417976 0.158206,12.417966 a 4,4 0 0 0 4,4 4,4 0 0 0 4,-4 c 0,-4.99999 0.01226,-9.93868 -0.173828,-12.916013 -0.186084,-2.977339 -0.623062,-3.949325 -0.699219,-4.482422 -0.03808,-0.266548 -0.04438,-1.645367 -0.841797,-3.287109 -0.797417,-1.641742 -2.736017,-3.299727 -4.982422,-3.861328 -1.123202,-0.280801 -2.275635,-0.427981 -3.457031,-0.478516 -2.667481,-0.114101 -5.479282,0.259395 -8.412109,0.664063 C 71.381883,83.997793 71.2338,81.919756 71.084891,80.021167 70.412808,71.452107 69.735932,65.699541 69.069266,60.032886 a 4,4 0 0 0 -4.439453,-3.505859 z m 47.431637,1.585937 c -0.70356,0.01521 -1.4066,0.156619 -1.88476,0.423828 -0.4988,0.278743 -0.52387,0.449029 -0.73438,0.681641 -0.3735,0.20169 -0.74154,0.354818 -1.17383,0.787109 -0.58136,0.581368 -0.78389,0.936664 -0.94335,1.1875 -0.23652,0.138151 -1.00204,0.757892 -2.05665,1.8125 -1.56903,1.569033 -3.83502,4.119033 -5.398432,5.421875 -1.563413,1.302844 -2.593103,1.690757 -4.259766,2.357422 a 4,4 0 0 0 -2.228516,5.201172 4,4 0 0 0 5.201172,2.228516 c 1.666662,-0.666666 3.971622,-1.612095 6.408202,-3.642578 1.64019,-1.366827 2.77316,-2.673333 3.99414,-3.978516 0.0556,2.577437 0.11133,4.771086 0.11133,10.072266 v 28.833981 a 4,4 0 0 0 4,4 4,4 0 0 0 4,-4 V 80.665699 c 0,-7.499986 0.01,-11.812133 -0.17383,-14.748047 -0.18349,-2.935915 -0.43833,-4.253627 -1.08203,-5.541016 -0.16092,-0.321847 0.0474,-0.958707 -1.88672,-1.925781 -0.48354,-0.241769 -1.18901,-0.353099 -1.89258,-0.337891 z m -2.8125,1.285157 c -0.0675,0.08767 -0.20162,0.196385 -0.31836,0.294921 0.0619,-0.0663 0.10078,-0.116402 0.17188,-0.1875 0.13989,-0.139893 0.0341,-0.01278 0.14648,-0.107421 z m -0.57422,0.576171 c -0.44657,0.64833 -0.42103,0.497466 0,0 z m 17.78321,10.541016 a 4,4 0 0 0 -2.92188,0.912109 4,4 0 0 0 -0.51172,5.632813 c 1.66667,1.999998 3.31038,4.046486 5.10547,5.617187 1.79509,1.570704 3.17849,2.181458 3.30078,2.279297 0.0982,0.07852 0.90146,0.977065 1.87305,1.873047 -0.89864,0.277676 -1.82992,0.489607 -2.61523,0.826172 -0.87915,0.376778 -1.69342,0.923222 -2.11133,1.271484 -0.41792,0.348264 -0.29071,0.260357 -0.37109,0.308594 -0.1608,0.09648 -1.92904,0.882162 -3.59571,1.548828 a 4,4 0 0 0 -2.22851,5.201172 4,4 0 0 0 5.20117,2.228516 c 1.66667,-0.666667 3.23241,-1.21562 4.73828,-2.119141 0.75294,-0.451762 1.29487,-0.955034 1.37695,-1.023437 0.0151,-0.01257 0.0125,-0.0136 0.0117,-0.01563 -0.003,0.0052 0.002,0.0074 0.12891,-0.04687 0.57503,-0.246441 3.01681,-0.995172 4.81054,-1.484375 0.89688,-0.244602 1.73937,-0.444415 2.70118,-0.822266 0.4809,-0.188926 1.00759,-0.41146 1.64648,-0.890625 0.63889,-0.479165 1.48745,-1.367765 1.81445,-2.675781 0.654,-2.616018 -0.6074,-3.897044 -1.3125,-4.726563 -0.70509,-0.829519 -1.42758,-1.400287 -2.18359,-1.904297 -1.51203,-1.008018 -2.43044,-1.365051 -2.55273,-1.46289 -0.12231,-0.09784 -0.78963,-1.098494 -2.33399,-2.333985 -1.54437,-1.235492 -2.15967,-1.290107 -3.03125,-2.052734 -0.87158,-0.762629 -2.56186,-2.716799 -4.22851,-4.716797 a 4,4 0 0 0 -2.71094,-1.423828 z m -77.835939,0.01172 a 4,4 0 0 0 -1.011719,0.257812 c -1.666664,0.666666 -3.232409,1.215618 -4.738281,2.119141 -0.452336,0.271401 -0.768114,0.64648 -1.136719,0.994141 -0.332518,0.147566 -0.776327,0.414998 -1.300781,0.939453 -0.125805,0.125803 -0.01838,0.05724 -0.115235,0.167968 -0.501929,0.185067 -1.01576,0.339459 -1.623047,0.794922 -1.690663,1.267998 -2.232472,2.341847 -2.427734,2.53711 -0.195262,0.195261 -0.705448,0.371463 -1.833984,1.5 -1.128537,1.128536 -1.004712,1.131342 -0.896485,1.066406 0.05411,-0.03247 -0.472149,0.187933 -1.273437,0.625 -0.801289,0.437066 -2.458321,1.358008 -2.923828,3.685547 -0.465508,2.327537 0.457129,3.576521 1.132812,4.572265 0.675683,0.995745 1.460242,1.80237 2.322266,2.556641 1.724048,1.508541 3.544388,2.620974 4.074219,3.0625 0.529831,0.441526 0.785727,1.062566 2.228515,2.216797 1.44279,1.154232 2.985216,1.891423 4.732422,2.390629 1.457491,0.41642 2.422627,0.56018 2.595703,0.55273 0.07938,0.0722 0.375649,0.29557 0.841797,0.76172 a 4,4 0 0 0 5.65625,0 4,4 0 0 0 0,-5.656251 c -0.666665,-0.666665 -1.651911,-1.809593 -3.509766,-2.552734 -1.857855,-0.743144 -2.800596,-0.631365 -3.386718,-0.798829 -0.586123,-0.167462 -1.70972,-0.764259 -1.933594,-0.943359 -0.223875,-0.1791 -0.63335,-0.892051 -2.103516,-2.117187 -1.205428,-1.004524 -2.295475,-1.706112 -3.220703,-2.408204 0.862617,-0.764958 1.411766,-1.448875 1.320313,-1.357421 -0.128539,0.128537 0.695915,-0.361932 1.833984,-1.5 0.920099,-0.920099 1.507762,-1.59466 1.521484,-1.689453 0.109034,0.0071 0.279785,0.01831 1.105469,-0.394532 0.616073,-0.308035 1.090688,-0.764559 1.458984,-1.205078 0.242392,-0.158875 0.450003,-0.244923 0.748047,-0.542969 0.573421,-0.573419 0.327814,-0.3727 0.347657,-0.449218 0.256403,-0.136553 1.865032,-0.853435 3.476562,-1.498047 a 4,4 0 0 0 2.228516,-5.201172 4,4 0 0 0 -4.189453,-2.486328 z m 59.474609,51.972652 a 4,4 0 0 0 -4,4 v 25.33398 c 0,6 -0.23404,8.07639 0.48633,10.59766 0.36018,1.26063 1.27687,2.59279 2.29492,3.27148 0.59162,0.39441 0.44245,0.25005 0.63672,0.31446 0.26674,0.29398 0.44758,0.54808 0.84961,0.84961 1.34933,1.01199 2.61003,1.54427 3.94336,2.21093 a 4,4 0 0 0 5.36718,-1.78906 4,4 0 0 0 -1.78906,-5.36718 c -1.33333,-0.66667 -2.73865,-1.46708 -2.72265,-1.45508 0.008,0.006 0.23678,0.25711 0.17578,0.17578 -0.0367,-0.0489 -0.65065,-0.54144 -1.07422,-0.9336 0.0186,-0.15178 -0.16797,-2.25027 -0.16797,-7.875 v -25.33398 a 4,4 0 0 0 -4,-4 z m -41,2 a 4,4 0 0 0 -4,4 c 0,4.33333 5.94e-4,8.78218 0.339844,14.88867 0.07676,1.38159 0.174514,2.86602 0.28125,4.39063 a 4,4 0 0 0 -2.533203,4.55859 4,4 0 0 0 3.121093,3.05078 c 0.254843,3.08647 0.528727,6.26102 0.806641,9.45703 a 4,4 0 0 0 4.330078,3.63868 4,4 0 0 0 3.638672,-4.33008 c -0.2975,-3.42126 -0.589109,-6.81643 -0.855469,-10.07618 2.267959,-0.47357 4.302668,-0.88636 5.732422,-1.13867 0.181765,-0.0321 0.172461,-0.02 0.335938,-0.0469 0.173572,2.56995 0.489833,6.694 0.814453,10.91406 a 4,4 0 0 0 4.294922,3.68164 4,4 0 0 0 3.68164,-4.29492 c -0.333331,-4.33333 -0.666551,-8.67406 -0.830078,-11.12695 -0.08176,-1.22646 -0.09963,-1.9879 -0.25,-2.92774 -0.150375,-0.93984 -0.915408,-2.78344 -2.189453,-3.63281 -1.27406,-0.84938 -2.588448,-0.93309 -3.634766,-0.90039 -1.046318,0.0327 -2.117305,0.19108 -3.613281,0.45508 -1.351195,0.23844 -3.068982,0.58139 -4.945312,0.96875 -0.06986,-1.04814 -0.143814,-2.12186 -0.197266,-3.08399 -0.327416,-5.89345 -0.328125,-10.11195 -0.328125,-14.44528 a 4,4 0 0 0 -4,-4 z m 104,6 a 4,4 0 0 0 -4,4 4,4 0 0 0 4,4 h 2 a 4,4 0 0 0 4,-4 4,4 0 0 0 -4,-4 z m -76,2 a 4,4 0 0 0 -2.828125,1.17188 4,4 0 0 0 0,5.65625 l 1,1 a 4,4 0 0 0 5.65625,0 4,4 0 0 0 0,-5.65625 l -1,-1 a 4,4 0 0 0 -2.828125,-1.17188 z m 99.66602,9.33399 c -1.00002,0 -2.85608,0.7838 -3.49414,1.42187 -0.63806,0.63807 -0.5684,0.65237 -0.66602,0.75 -0.19526,0.19526 -1.62353,1.28954 -2.83398,2.5 -0.85229,0.85228 -1.53843,1.70078 -1.66407,1.92383 -0.21333,0.20195 -0.54016,0.56367 -0.86133,1.06836 -0.65112,1.0232 -0.83942,2.01965 -0.95507,3.06054 -0.23131,2.08178 -0.23131,4.80104 0,6.88282 0.11565,1.04089 0.38243,2.06375 0.80664,2.85156 0.2121,0.3939 0.33848,0.59662 0.40039,0.68164 0.0187,0.25938 0.47924,1.85931 1.81054,3.52344 1.40031,1.75037 2.89623,2.37707 3.05469,2.38672 0.12399,0.19052 1.39853,1.53685 3.47071,2.1289 2.32775,0.66507 4.26562,0.48633 6.26562,0.48633 a 4,4 0 0 0 4,-4 4,4 0 0 0 -4,-4 c -1.89527,0 -3.72966,-0.15181 -3.93359,-0.16992 -0.004,-0.0572 -0.19298,-0.25802 -1,-0.86328 -0.92064,-0.69048 -1.39583,-0.99652 -1.58008,-1.07227 -0.0813,-0.27094 -0.36931,-0.93971 -0.90821,-2.01758 -0.3222,-0.64444 -0.41098,-0.71267 -0.42578,-0.69726 -0.003,-0.0341 0.003,-0.003 -0.01,-0.1211 -0.0987,-0.88808 -0.0922,-3.9161 0,-4.94921 0.58449,-0.67184 0.82509,-1.0868 1.18554,-1.44727 0.38137,-0.38137 1.40995,-1.20709 2.36915,-2.08984 0.49408,0.0951 0.58047,0.1207 1.33203,0.30859 a 4,4 0 0 0 4.85156,-2.91016 4,4 0 0 0 -2.91016,-4.85156 c -1.33332,-0.33333 -2.3047,-0.78515 -4.30468,-0.78515 z m -62.81836,0.62304 c -0.31775,0.003 -0.64207,0.0112 -0.97461,0.0312 -1.33016,0.0802 -2.77618,0.33282 -4.33008,1.02344 -2.62522,1.16676 -3.847,3.77939 -4.08008,4.39648 -0.31461,0.37274 -0.84169,1.07586 -1.0918,1.82618 -0.33631,1.00893 -0.30403,1.44921 -0.3457,1.82421 -0.013,0.11661 0.02,-0.0268 0.004,0.0547 -0.0252,0.047 -0.008,0.0151 -0.041,0.0762 -0.369,0.67651 -0.66697,1.6561 -0.79101,2.64844 -0.24808,1.98467 -0.45722,4.61574 0.75585,7.64844 1.21307,3.0327 3.82496,4.45762 4.04883,4.63672 0.11194,0.0895 0.34085,0.36652 1.01758,0.92383 0.67673,0.55729 1.81048,1.20017 3.00977,1.5 2.39858,0.59963 4.56355,0.49376 6.46679,0.25585 0.77952,-0.0974 1.22488,-0.2253 1.52149,-0.30078 0.11136,0.0484 0.40269,0.16383 1.22656,0.32227 9.5e-4,1.8e-4 0.003,-1.8e-4 0.004,0 a 4,4 0 0 0 2.95117,1.16992 4,4 0 0 0 3.79492,-4.19336 c -0.0148,-0.29643 -0.0327,-0.56006 -0.0469,-0.85547 0.1132,-0.35454 0.25858,-0.72689 0.34765,-1.05078 0.2502,-0.90978 0.40097,-1.7718 0.53906,-2.5957 0.001,0.0258 0.003,0.0524 0.004,0.0781 0.20771,3.94644 1.96289,6.69011 2.96289,8.02344 a 4,4 0 0 0 5.59961,0.79883 4,4 0 0 0 0.79883,-5.59961 c -1,-1.33333 -1.24547,-1.25569 -1.3711,-3.64258 -0.12561,-2.3869 0.56636,-7.542 1.15626,-9.42969 0.23369,-0.74783 0.36693,-0.94391 0.39843,-0.98632 0.0416,-0.0231 0.0576,-0.0274 0.33594,-0.2129 0.32809,-0.21872 0.10372,-0.12196 0.16016,-0.1914 0.67962,-0.0773 3.14496,-0.0693 4.02343,0 1.00915,0.88483 1.72561,1.14991 2.3086,1.4414 a 4,4 0 0 0 5.36718,-1.78906 4,4 0 0 0 -1.78906,-5.36718 c -0.31833,-0.15917 -0.60736,-0.35653 -0.76367,-0.45899 -0.18167,-0.18662 -0.44924,-0.43302 -0.85742,-0.71875 -0.97075,-0.67953 -2.01352,-0.92283 -3.00586,-1.04687 -1.98467,-0.24808 -4.33955,-0.24808 -6.32422,0 -1.57557,0.19694 -3.19948,1.21595 -3.54883,1.45898 -0.13803,0.0669 -1.04618,0.626 -1.79101,1.44531 -0.89556,0.98511 -1.61006,2.31624 -2.14844,4.03906 -0.86284,2.76111 -1.43815,6.41538 -1.5293,9.79102 a 4,4 0 0 0 -1.3164,-1.96289 c -0.24593,-3.29999 -0.60881,-6.34836 -1.33985,-8.78516 -0.67575,-2.25248 -2.03548,-4.32673 -3.98437,-5.32617 -1.94933,-0.99949 -3.59662,-0.85744 -4.67995,-0.85744 -0.8125,0 -1.69912,-0.051 -2.65234,-0.043 z m 136.74218,0.0273 c -0.79957,0.0151 -1.62149,0.0759 -2.54101,0.25977 -0.91954,0.1839 -2.25975,0.82252 -2.9961,1.66406 -0.73633,0.84155 -0.77575,1.13043 -0.71484,1.03907 0.1218,-0.1827 -1.57644,2.15337 -1.82227,4.85742 -0.24581,2.70405 0.0593,5.64851 1.0586,8.39648 0.99926,2.74797 3.06841,4.43169 3.26367,4.62695 0.19527,0.19526 0.57572,1.06509 2.0957,2.20508 0.52321,0.39241 0.75534,0.55975 1.03125,0.75977 0.0133,0.12126 0.0258,0.13511 0.0293,0.30664 -0.43665,0.0812 -2.71688,0.62371 -5.43555,0.92578 a 4,4 0 0 0 -3.5332,4.41602 4,4 0 0 0 4.41602,3.5332 c 2.99998,-0.33333 5.91857,-0.26553 9.00195,-1.97852 1.54169,-0.85649 2.73552,-2.43868 3.17773,-3.81445 0.44222,-1.37577 0.37891,-2.43229 0.37891,-3.01562 0,-1.16667 0.35122,-3.02976 -1.30078,-5.23243 -1.40697,-1.87596 -2.69489,-2.32211 -2.9336,-2.32812 -0.0689,-0.1378 -0.43832,-0.60044 -1.27148,-1.43359 -1.13807,-1.13807 -1.06827,-0.78639 -1.40234,-1.70508 -0.33407,-0.91869 -0.69493,-3.9749 -0.60742,-4.9375 0.0358,-0.39431 0.21455,-0.44854 0.20898,-0.46875 0.61887,-0.0256 1.1702,-0.0606 2.30664,-0.0606 a 4,4 0 0 0 4,-4 4,4 0 0 0 -4,-4 c -0.83333,0 -1.61058,-0.0307 -2.41016,-0.0156 z m -94.58984,0.0156 a 4,4 0 0 0 -4,4 c 0,5.66665 -0.006,11.30804 0.17188,14.86719 0.17795,3.55914 0.69987,5.39844 1.0332,6.39843 a 4,4 0 0 0 5.06054,2.5293 4,4 0 0 0 2.5293,-5.06054 c -0.33333,-1 -0.47744,-1.16008 -0.63281,-4.26758 -0.15538,-3.10752 -0.16211,-8.80015 -0.16211,-14.4668 a 4,4 0 0 0 -4,-4 z m 47.08008,1.45508 c -0.64397,-0.0154 -1.31965,0.004 -2.03125,0.0547 -2.84641,0.20331 -6.22254,0.51508 -9.20703,3.16796 -1.49226,1.32645 -2.31075,3.22776 -2.57813,4.83204 -0.26738,1.60426 -0.1771,3.01078 -0.0898,4.40625 0.17443,2.79092 0.34791,6.05685 1.40039,8.95117 0.52624,1.44716 1.53519,2.87187 2.6914,3.71679 1.15623,0.84494 2.12538,1.14664 2.91602,1.4629 1.58129,0.6325 4.00836,1.70716 6.51563,2.33398 2.50724,0.62681 4.8357,0.9923 7.42578,-0.30274 2.59008,-1.29503 3.29547,-3.55821 3.47265,-3.85351 0.17719,-0.29531 1.58893,-2.28019 2.02539,-5.11719 0.43647,-2.83701 0.52935,-6.4754 -0.4414,-9.87304 -0.97076,-3.39767 -3.39536,-5.44028 -3.85157,-5.89649 -0.4562,-0.45621 -1.25103,-1.77102 -3.20507,-2.74805 -1.46554,-0.73276 -3.11105,-1.08857 -5.04297,-1.13476 z m 22.78711,0.49219 c -0.24849,0.004 -0.50581,0.0177 -0.77344,0.0449 -1.07052,0.10905 -2.29311,0.44345 -3.64648,1.3457 -2.53762,1.69174 -3.10262,4.16124 -3.04493,4.22656 -0.16184,0.26388 -1.03894,1.92848 -1.21875,3.90625 -0.2102,2.31223 -0.2155,5.88275 0.18555,8.89063 0.40105,3.00788 1.38608,5.0944 2.05274,6.42773 a 4,4 0 0 0 5.36718,1.78906 4,4 0 0 0 1.78906,-5.36718 c -0.66665,-1.33333 -1.01368,-1.91413 -1.27929,-3.90625 -0.26562,-1.99213 -0.27157,-5.75494 -0.14844,-7.10938 0.0183,-0.20189 0.0188,-0.31688 0.0156,-0.39648 0.0631,-0.0497 0.18475,-0.22106 0.4121,-0.67578 0.28678,-0.57355 0.39029,-0.74012 0.51172,-0.95508 0.39237,-0.0593 1.01854,-0.16797 1.74414,-0.16797 0.0693,0.13512 0.11533,0.19388 0.2461,0.54883 0.82489,2.239 1.96875,8.74089 2.96875,15.07422 a 4,4 0 0 0 4.57422,3.32812 4,4 0 0 0 3.32812,-4.57422 c -1,-6.33331 -1.8568,-12.49942 -3.36523,-16.59375 -0.75422,-2.04715 -1.84978,-3.79533 -3.58594,-4.82617 -1.73613,-1.03082 -3.41599,-0.95701 -4.16599,-0.95701 -0.56249,0 -1.22134,-0.0658 -1.96679,-0.0527 z m -150.86719,0.0527 a 4,4 0 0 0 -4,4 v 17 a 4,4 0 0 0 4,4 4,4 0 0 0 4,-4 v -17 a 4,4 0 0 0 -4,-4 z m 41.5,6 c 0.61929,0 0.81233,0.0162 0.85156,0.008 0.0273,0.0793 0.0438,0.11903 0.15039,0.47461 0.45898,1.52994 0.82286,5.6257 1.13282,10.13672 -0.37735,0.0335 -0.89519,-0.022 -1.11329,0.0293 -0.5414,0.12739 -0.63588,0.16713 -1.01757,0.21484 -0.75497,0.0944 -3.18068,-0.011 -3.49414,-0.0781 -0.08,-0.0802 -0.35268,-0.38097 -1.01172,-0.90821 -1.4428,-1.15423 -1.49694,-1.06265 -1.61719,-1.36328 -0.1182,-0.29549 -0.32008,-2.8997 -0.24609,-3.63672 0.12727,-0.20832 0.31639,-0.57809 0.49414,-1.11133 0.33415,-1.00248 0.30325,-1.43907 0.34375,-1.8125 0.23577,-0.29987 0.40572,-0.43058 0.60546,-0.83007 0.3196,-0.63921 0.33701,-0.7246 0.35547,-0.81055 0.0545,0.0226 2.46534,-0.3125 4.56641,-0.3125 z m 85.76562,1.46289 c 1.42287,-0.0177 2.2391,0.26115 2.2793,0.28125 0.046,0.023 -0.0835,0.0396 1.12696,1.25 1.21045,1.21046 1.45188,1.1685 1.81445,2.4375 0.36257,1.26901 0.45677,4.96461 0.22656,6.46094 -0.23021,1.49633 -0.15374,0.84544 -0.97656,2.2168 -0.27359,0.45597 -0.32179,0.532 -0.41602,0.68554 -0.36811,0.007 -0.9591,0.005 -1.68359,-0.17578 -1.49273,-0.37318 -3.73234,-1.29918 -5.48438,-2 -0.78957,-0.31583 -1.04005,-0.44954 -1.05273,-0.44531 -0.009,-0.0277 0.0104,0.009 -0.008,-0.041 -0.28086,-0.77234 -0.7747,-4.17245 -0.9336,-6.71484 -0.0794,-1.2712 -0.0698,-2.19803 -0.004,-2.59375 0.0248,-0.14923 0.0199,-0.15713 0.0176,-0.17383 0.0554,-0.0291 2.64114,-1.03115 4.44726,-1.16016 0.22753,-0.0162 0.44322,-0.0248 0.64648,-0.0273 z M 70.961844,179.50163 a 4,4 0 0 0 -1.029296,0.17188 4,4 0 0 0 -2.365235,1.94336 c -5.333323,9.99998 -10.667742,19.96064 -13.490234,26.66406 -2.822492,6.70342 -3.038786,10.50824 -3.25,11.66992 -0.211215,1.16168 -0.732235,1.90374 -1.525391,4.28321 -0.793156,2.37947 -1.433876,5.30359 -2.166016,7.5 -0.732138,2.19641 -1.617189,3.97656 -2.617187,5.97656 a 4,4 0 0 0 1.789063,5.36718 4,4 0 0 0 5.367187,-1.78906 c 0.999998,-2 2.116257,-4.21986 3.050781,-7.02344 0.934525,-2.80356 1.625841,-5.87947 2.166016,-7.5 0.540174,-1.62051 1.35119,-2.87782 1.80664,-5.38281 0.455452,-2.50497 0.241123,-4.03482 2.751954,-9.99804 2.510829,-5.96323 7.842458,-16.00198 13.175781,-26.00196 a 4,4 0 0 0 -1.646485,-5.41211 4,4 0 0 0 -2.017578,-0.46875 z m 18.027344,7 a 4,4 0 0 0 -3.890625,4.10547 c 0.333333,12.33331 0.659841,24.72328 0.5,30.95703 -0.07992,3.11689 -0.281977,4.68918 -0.445312,5.50586 -0.163337,0.81669 -0.322715,1.00376 -0.603516,2.12696 -0.561602,2.24639 -0.453125,4.30273 -0.453125,6.30273 a 4,4 0 0 0 4,4 4,4 0 0 0 4,-4 c 0,-2 0.109779,-3.94302 0.214844,-4.36328 0.05253,-0.21013 0.392505,-1.02307 0.6875,-2.49805 0.294993,-1.47497 0.508956,-3.48603 0.595703,-6.86914 6.08e-4,-0.0237 0.0014,-0.0543 0.002,-0.0781 0.624902,-0.14677 1.147316,-0.24312 1.5,-0.25782 0.736555,-0.0307 0.382668,-0.13596 0.542969,0.0645 0.160301,0.20037 0.913622,1.89057 1.365234,4.20507 0.451613,2.31452 0.783855,5.23829 1.117188,8.23829 a 4,4 0 0 0 4.416022,3.5332 4,4 0 0 0 3.5332,-4.41602 c -0.33333,-2.99998 -0.66646,-6.07624 -1.21484,-8.88671 -0.54839,-2.81047 -1.12906,-5.37031 -2.96875,-7.66993 -1.8397,-2.29961 -4.861569,-3.15485 -7.125007,-3.06054 -0.395301,0.0165 -0.775403,0.0539 -1.148438,0.0996 -0.07152,-6.59137 -0.294877,-14.83625 -0.519531,-23.14844 a 4,4 0 0 0 -4.105469,-3.89063 z m 41.832032,0.23243 c -0.31376,0.0113 -0.59487,0.0498 -0.81836,0.10937 -1.78792,0.47677 -1.98321,0.97195 -2.13086,1.06055 -0.2953,0.17718 -0.97008,0.25155 -2.49414,1.26758 -0.76204,0.50802 -1.40853,1.32957 -1.60937,1.63085 -0.0424,0.0635 -0.0268,0.0397 -0.043,0.0645 0.033,-0.0513 -0.89285,0.66378 -1.69532,1.26562 -0.82711,0.62034 -1.67529,1.2843 -2.3164,2.54102 -0.2625,0.13549 -1.32836,0.67362 -2.61524,1.70312 -1.44278,1.15423 -1.76677,1.89764 -2.66406,2.79493 -0.89729,0.89729 -2.89844,2.5892 -4.89844,4.25585 a 4,4 0 0 0 -0.51172,5.63282 4,4 0 0 0 5.63282,0.51172 c 1.99999,-1.66667 3.99755,-3.3081 5.43359,-4.74415 1.43604,-1.43602 1.78003,-2.02597 2.00391,-2.20507 0.22387,-0.1791 1.38504,-0.74387 2.73437,-1.75586 0.90258,-0.67694 1.46375,-1.59459 1.75781,-2.13086 0.0114,-0.0122 0.0402,-0.0517 0.24219,-0.20313 0.2389,-0.17917 0.82629,-0.67886 1.25,-0.98242 0.004,0.84108 0.0176,1.44154 0.0176,2.44922 0,4.5 -0.004,10.51546 -0.16211,13.98438 -0.15768,3.46892 -0.4671,4.55638 -0.6582,6.8496 -0.1911,2.29324 -0.1847,4.92958 -0.33594,7.04688 -0.15124,2.1173 -0.45573,3.96094 -0.78906,5.96094 a 4,4 0 0 0 3.28711,4.60351 4,4 0 0 0 4.60351,-3.28711 c 0.33334,-1.99998 0.69486,-4.15766 0.87696,-6.70703 0.18209,-2.54936 0.18784,-5.24636 0.33007,-6.95312 0.14223,-1.70676 0.50208,-3.28601 0.67774,-7.15039 0.17563,-3.86441 0.16992,-9.84766 0.16992,-14.34766 0,-2.25 0.001,-4.14109 -0.043,-5.69727 -0.0445,-1.55616 -0.0279,-2.6142 -0.44336,-4.06835 -0.20773,-0.72706 -0.5416,-1.73254 -1.72461,-2.63868 -0.5915,-0.45307 -1.33789,-0.70017 -2.04883,-0.80468 -0.35546,-0.0523 -0.70186,-0.068 -1.01562,-0.0566 z m -87.484376,5.77148 a 4,4 0 0 0 -2.029296,0.41602 c -1.333332,0.66666 -2.900169,1.39076 -4.4375,2.67187 -1.537332,1.28111 -2.205305,2.28046 -2.667969,2.66602 -0.462667,0.38555 -1.488566,0.86105 -2.837891,1.87304 -0.332716,0.24954 -0.456598,0.44436 -0.703125,0.70313 -0.44053,0.11503 -0.909889,0.19839 -1.617187,0.66992 -1.865397,1.2436 -1.866345,1.76695 -1.679688,1.62695 0.09333,-0.07 -0.25171,0.12347 -0.878906,0.5293 -0.627196,0.40583 -1.933723,1.19386 -2.435547,3.20117 -0.501823,2.0073 0.170656,3.19932 0.646484,4.06445 0.47583,0.86515 1.003232,1.49738 1.572266,2.06641 1.138071,1.13807 1.741117,1.36942 2.861328,2.34961 1.120212,0.98019 3.145355,3.06347 5.339844,4.59961 2.19449,1.53614 4.139945,2.1188 4.503906,2.30078 0.363968,0.18198 0.628255,0.41733 1.294922,1.08398 a 4,4 0 0 0 5.65625,0 4,4 0 0 0 0,-5.65624 c -0.666667,-0.66666 -1.737018,-1.76402 -3.373047,-2.58204 -1.636036,-0.81802 -2.355305,-0.90203 -3.49414,-1.69922 -1.138836,-0.79717 -3.113708,-2.71522 -4.660157,-4.06835 -0.716984,-0.62737 -0.7523,-0.61936 -1.146484,-0.91993 -0.02699,0.01 0.145589,-0.12973 0.101562,-0.10546 0.195485,-0.0144 0.346458,0.0397 1.199219,-0.38672 0.929646,-0.46482 1.483615,-1.14427 1.6875,-1.41797 0.192876,-0.10022 1.654438,-0.89465 3.083984,-2.08594 1.537333,-1.28111 2.205305,-2.28046 2.667969,-2.66602 0.462667,-0.38555 1.5612,-0.99544 2.894531,-1.66211 a 4,4 0 0 0 1.789063,-5.36718 4,4 0 0 0 -2.3125,-2.00586 4,4 0 0 0 -1.025391,-0.19922 z m 101.144536,6.01367 a 4,4 0 0 0 -1.04297,0.0352 4,4 0 0 0 -2.59766,1.62109 4,4 0 0 0 0.93164,5.58008 c 2.33333,1.66666 4.67581,3.36696 5.68945,4.25391 1.01366,0.88693 0.53053,0.70824 1.80665,1.98437 0.2941,0.29411 0.50409,0.34768 0.79882,0.53516 0.18748,0.29473 0.24105,0.50473 0.53516,0.79882 0.88417,0.88418 1.31831,1.15704 1.46289,1.20313 0.0461,0.14458 0.31896,0.57872 1.20313,1.46289 0.22815,0.22816 0.38261,0.252 0.61914,0.41602 0.0493,0.0754 0.1087,0.15107 0.16992,0.23242 -0.94339,0.49105 -1.85945,1.03277 -2.69336,1.6582 -1.84533,1.384 -2.17924,1.96855 -2.72461,2.21094 -0.54536,0.24238 -2.77605,0.69596 -5.10938,1.0293 a 4,4 0 0 0 -3.39257,4.52539 4,4 0 0 0 4.52539,3.39257 c 2.33331,-0.33333 4.76997,-0.54577 7.22461,-1.63671 2.45461,-1.09095 3.45405,-2.50705 4.27539,-3.12305 0.82133,-0.616 2.64573,-1.53591 3.75,-1.86719 0.55213,-0.16564 1.10892,-0.25622 1.88867,-0.44336 0.38987,-0.0936 0.81653,-0.11057 1.74609,-0.67969 0.46478,-0.28455 1.15293,-0.79085 1.64063,-1.79296 0.48769,-1.00213 0.47694,-2.3602 0.20312,-3.18164 -0.54763,-1.64287 -1.09811,-1.81007 -1.48047,-2.15626 -0.38235,-0.34617 -0.71437,-0.59227 -1.03711,-0.82812 -0.58359,-0.42647 -1.08115,-0.77244 -1.30664,-0.94141 -0.0546,-0.1289 -0.25459,-0.4167 -0.80859,-0.9707 -0.23078,-0.23077 -0.37959,-0.27764 -0.57813,-0.42187 -0.14423,-0.19854 -0.1911,-0.34735 -0.42187,-0.57813 -0.45097,-0.45097 -0.5777,-0.47727 -0.74609,-0.52539 -0.0924,-0.18664 -0.54192,-0.76258 -1.25391,-1.47461 -0.71203,-0.71203 -1.28797,-1.16148 -1.47461,-1.25391 -0.0482,-0.16839 -0.0748,-0.29512 -0.52539,-0.74609 -0.51669,-0.51669 -0.63259,-0.50369 -0.83594,-0.56641 -0.14226,-0.23401 -0.98735,-1.22769 -2.1914,-2.28125 -1.65302,-1.44637 -3.97722,-3.07942 -6.31055,-4.74609 a 4,4 0 0 0 -1.93945,-0.72461 z" />
  </g>
</svg>
