<?xml version="1.0" encoding="UTF-8" standalone="no"?>
<!-- Created with Inkscape (http://www.inkscape.org/) -->

<svg
   width="300"
   height="300"
   viewBox="0 0 300.00001 300.00001"
   version="1.1"
   id="svg1"
   inkscape:version="1.3.2 (091e20e, 2023-11-25, custom)"
   sodipodi:docname="hiccup.svg"
   xmlns:inkscape="http://www.inkscape.org/namespaces/inkscape"
   xmlns:sodipodi="http://sodipodi.sourceforge.net/DTD/sodipodi-0.dtd"
   xmlns="http://www.w3.org/2000/svg"
   xmlns:svg="http://www.w3.org/2000/svg">
  <sodipodi:namedview
     id="namedview1"
     pagecolor="#ffffff"
     bordercolor="#000000"
     borderopacity="0.25"
     inkscape:showpageshadow="2"
     inkscape:pageopacity="0.0"
     inkscape:pagecheckerboard="0"
     inkscape:deskcolor="#d1d1d1"
     inkscape:document-units="px"
     inkscape:zoom="1"
     inkscape:cx="150"
     inkscape:cy="150.5"
     inkscape:window-width="1366"
     inkscape:window-height="705"
     inkscape:window-x="-8"
     inkscape:window-y="-8"
     inkscape:window-maximized="1"
     inkscape:current-layer="layer1" />
  <defs
     id="defs1">
    <inkscape:path-effect
       effect="bspline"
       id="path-effect12"
       is_visible="true"
       lpeversion="1.3"
       weight="33.333333"
       steps="2"
       helper_size="0"
       apply_no_weight="true"
       apply_with_weight="true"
       only_selected="false"
       uniform="false" />
    <inkscape:path-effect
       effect="bspline"
       id="path-effect11"
       is_visible="true"
       lpeversion="1.3"
       weight="33.333333"
       steps="2"
       helper_size="0"
       apply_no_weight="true"
       apply_with_weight="true"
       only_selected="false"
       uniform="false" />
    <inkscape:path-effect
       effect="bspline"
       id="path-effect10"
       is_visible="true"
       lpeversion="1.3"
       weight="33.333333"
       steps="2"
       helper_size="0"
       apply_no_weight="true"
       apply_with_weight="true"
       only_selected="false"
       uniform="false" />
    <inkscape:path-effect
       effect="bspline"
       id="path-effect9"
       is_visible="true"
       lpeversion="1.3"
       weight="33.333333"
       steps="2"
       helper_size="0"
       apply_no_weight="true"
       apply_with_weight="true"
       only_selected="false"
       uniform="false" />
    <inkscape:path-effect
       effect="bspline"
       id="path-effect8"
       is_visible="true"
       lpeversion="1.3"
       weight="33.333333"
       steps="2"
       helper_size="0"
       apply_no_weight="true"
       apply_with_weight="true"
       only_selected="false"
       uniform="false" />
    <inkscape:path-effect
       effect="bspline"
       id="path-effect7"
       is_visible="true"
       lpeversion="1.3"
       weight="33.333333"
       steps="2"
       helper_size="0"
       apply_no_weight="true"
       apply_with_weight="true"
       only_selected="false"
       uniform="false" />
    <inkscape:path-effect
       effect="bspline"
       id="path-effect6"
       is_visible="true"
       lpeversion="1.3"
       weight="33.333333"
       steps="2"
       helper_size="0"
       apply_no_weight="true"
       apply_with_weight="true"
       only_selected="false"
       uniform="false" />
    <inkscape:path-effect
       effect="bspline"
       id="path-effect2"
       is_visible="true"
       lpeversion="1.3"
       weight="33.333333"
       steps="2"
       helper_size="0"
       apply_no_weight="true"
       apply_with_weight="true"
       only_selected="false"
       uniform="false" />
    <inkscape:path-effect
       effect="bspline"
       id="path-effect1"
       is_visible="true"
       lpeversion="1.3"
       weight="33.333333"
       steps="2"
       helper_size="0"
       apply_no_weight="true"
       apply_with_weight="true"
       only_selected="false"
       uniform="false" />
  </defs>
  <g
     inkscape:label="Layer 1"
     inkscape:groupmode="layer"
     id="layer1">
    <path
       id="path6"
       style="color:#000000;fill:#000000;stroke-linecap:round;-inkscape-stroke:none"
       d="M 171.41016 22.021484 A 8 8 0 0 0 164.14062 28.503906 A 8 8 0 0 0 170.50391 37.859375 C 177.50389 39.192706 184.40789 40.53513 188.93555 41.849609 C 193.46319 43.164089 196.16578 44.588632 197.20508 45.25 C 197.4649 45.415342 197.56585 45.466561 197.59961 45.476562 C 197.58683 45.497405 197.6723 45.652771 198.50977 46.490234 C 200.26682 48.247295 200.74827 48.260928 201.21094 48.646484 C 201.6736 49.032035 203.26908 50.576905 205.79297 52.740234 C 208.31686 54.903565 211.60878 57.554556 213.55664 59.363281 C 215.5045 61.172006 216.38122 62.361696 218.00977 63.990234 C 219.166 65.14647 219.77501 65.610722 219.70508 65.449219 C 219.92633 65.77347 220.05656 66.037036 220.50977 66.490234 C 220.56667 66.547174 220.49132 66.466591 220.54492 66.519531 C 220.62522 66.758108 221.03139 67.618505 221.57227 68.970703 A 8 8 0 0 0 231.9707 73.427734 A 8 8 0 0 0 236.42773 63.029297 C 235.76108 61.362632 235.33438 59.895199 234.02734 57.716797 C 233.58763 56.983947 232.87805 56.336722 232.2207 55.675781 C 231.8978 55.173995 231.81947 54.839004 231.32422 54.34375 C 229.10529 52.124831 229.69569 53.047247 229.32422 52.675781 C 228.95276 52.304325 227.16216 50.161315 224.44336 47.636719 C 221.72456 45.112122 218.3498 42.428455 216.20703 40.591797 C 214.06426 38.755139 212.99242 37.634627 211.45508 36.353516 C 210.34609 35.429359 209.61887 34.85211 209.57031 34.875 C 208.93521 34.210965 207.50996 32.841387 205.79492 31.75 C 203.16756 30.078043 199.20215 28.169888 193.39648 26.484375 C 187.59083 24.798863 180.49609 23.473956 173.49609 22.140625 A 8 8 0 0 0 171.41016 22.021484 z M 137.43555 23.845703 C 136.74507 23.842703 135.73859 23.98883 133.9707 24.578125 C 133.44647 24.752869 133.55901 24.802048 133.13672 25.029297 C 133.42025 24.9123 132.42947 24.929075 130.35156 25.275391 C 129.21568 25.464703 128.2059 25.835682 127.72266 26.023438 C 128.18068 25.907135 126.07469 26.067758 123.39258 26.738281 C 120.58096 27.441186 117.8494 28.475551 116.72852 28.78125 C 115.60762 29.086948 114.60827 29.086949 112.0625 29.78125 C 109.51673 30.47555 106.8494 31.475551 105.72852 31.78125 C 104.60762 32.086948 102.97666 32.241504 99.470703 33.410156 C 95.964746 34.578809 91.029287 36.57227 86.029297 38.572266 A 8 8 0 0 0 81.572266 48.970703 A 8 8 0 0 0 91.970703 53.427734 C 96.970693 51.427738 102.03526 49.421187 104.5293 48.589844 C 107.02332 47.7585 107.39173 47.913051 109.9375 47.21875 C 112.48327 46.52445 115.1506 45.524449 116.27148 45.21875 C 117.39238 44.913052 118.39173 44.913051 120.9375 44.21875 C 123.48327 43.52445 126.08506 42.558813 127.27344 42.261719 C 128.46181 41.964626 128.62586 42.166229 131.06836 41.677734 C 132.09781 41.471846 132.74306 41.192778 133.11133 41.044922 C 132.82002 41.115192 133.9893 41.227139 136.73633 40.677734 C 137.14737 40.595524 137.44605 40.33482 137.89844 40.164062 C 138.15986 40.103647 138.57974 40 139 40 A 8 8 0 0 0 147 32 A 8 8 0 0 0 139 24 C 138.5 24 138.12603 23.848727 137.43555 23.845703 z M 140.29297 39.166016 C 139.94066 39.368832 139.51241 39.594822 139.0293 39.755859 C 138.26956 40.009104 138.383 39.97092 138.22656 40.019531 C 138.94911 39.720943 139.75024 39.428198 140.29297 39.166016 z M 230.52539 53.966797 C 230.54045 53.962427 230.78625 54.181653 231.1582 54.533203 C 230.77457 54.227612 230.50602 53.97242 230.52539 53.966797 z M 231.70312 55.058594 C 231.75494 55.109963 231.76841 55.119973 231.82422 55.175781 C 232.02983 55.381395 232.00889 55.437324 232.16797 55.617188 C 231.99545 55.446285 231.85214 55.245498 231.70312 55.058594 z M 232.25977 55.734375 C 233.36654 57.030566 233.50947 57.742147 233.33203 57.328125 C 233.22128 57.069695 232.6367 56.329239 232.25977 55.734375 z M 60.283203 65.03125 A 8 8 0 0 0 58.742188 65.324219 A 8 8 0 0 0 53.976562 69.169922 C 51.976566 72.836581 49.887959 76.579195 49.009766 77.896484 C 48.131572 79.213775 48.300507 78.719025 45.84375 81.175781 C 43.386993 83.632539 39.770175 87.593758 36.103516 91.59375 A 8 8 0 0 0 36.59375 102.89648 A 8 8 0 0 0 47.896484 102.40625 C 51.563145 98.406258 55.279682 94.366802 57.15625 92.490234 C 59.032818 90.613666 60.533797 89.454187 62.322266 86.771484 C 64.110734 84.088782 66.023441 80.496737 68.023438 76.830078 A 8 8 0 0 0 64.830078 65.976562 A 8 8 0 0 0 60.283203 65.03125 z M 248.7207 79.005859 A 8 8 0 0 0 244.75977 80.216797 A 8 8 0 0 0 242.2168 91.240234 C 243.88346 93.906898 245.42161 96.450807 246.93359 98.466797 C 247.6145 99.374678 248.3178 100.11545 249.0918 100.78906 C 249.34208 101.12996 249.3533 101.33377 249.67578 101.65625 C 250.22214 102.20261 250.05167 102.00973 250.20508 102.15039 C 250.21208 102.26198 250.79675 103.81616 251.84375 105.91016 C 252.41343 107.04951 252.74816 107.68258 252.91602 107.94141 C 252.96343 108.54944 253.14878 109.87084 253.48828 111.56836 C 254.02276 114.24074 254.80118 116.18715 254.90625 116.60742 C 255.01132 117.02768 254.39956 116.49354 255.57812 120.0293 C 256.75673 123.56514 256.1867 120.97494 256.44922 121.9375 C 256.71174 122.90008 257.42009 126.66473 258.07227 129.27344 C 258.39836 130.5778 258.73451 131.54585 258.83984 131.875 C 258.94517 132.20415 258.85691 131.8179 258.88281 132.05078 C 258.93451 132.51651 259.00037 135.51533 259.17188 139.97461 C 259.19097 140.47116 259.22903 141.14685 259.25195 141.67969 L 237.39258 127.31445 A 8 8 0 0 0 226.31445 129.60742 A 8 8 0 0 0 228.60742 140.68555 L 263.60742 163.68555 A 8.0008 8.0008 0 0 0 274.82031 161.17969 L 293.82031 130.17969 A 8 8 0 0 0 291.17969 119.17969 A 8 8 0 0 0 285.13281 118.2207 A 8 8 0 0 0 280.17969 121.82031 L 274.80859 130.58203 C 274.79855 130.48272 274.79625 130.38301 274.78516 130.2832 C 274.64436 129.01605 274.30613 127.71252 274.07812 127 C 273.85013 126.28748 273.76766 126.08821 273.59375 125.39258 C 273.24593 124.00129 272.62223 120.43259 271.88477 117.72852 C 271.61122 116.72551 271.30454 115.96389 271.02539 115.24805 C 270.88559 114.60244 270.67054 113.69778 270.42773 112.72656 C 269.86613 110.48016 269.30993 109.09259 269.17773 108.43164 C 269.04554 107.77069 269.24563 106.40453 268.35938 103.30273 C 267.47316 100.20096 266.3459 99.135152 266.15625 98.755859 C 265.96661 98.376581 265.42616 96.454754 263.94531 93.863281 C 263.01682 92.23842 261.87848 91.067391 261.24414 90.496094 C 260.98158 90.1526 260.92381 89.943342 260.49023 89.509766 C 260.05906 89.078582 259.79029 88.824448 259.57031 88.623047 C 258.98074 87.797944 257.36144 85.284935 255.7832 82.759766 A 8 8 0 0 0 250.79883 79.205078 A 8 8 0 0 0 248.7207 79.005859 z M 247.60547 98.564453 C 247.59973 98.535711 247.62361 98.56837 247.66797 98.671875 C 247.77872 98.930305 248.3633 99.670756 248.74023 100.26562 C 247.91015 99.293478 247.62269 98.650679 247.60547 98.564453 z M 36.716797 106.03125 A 8 8 0 0 0 28.324219 111.74219 L 23.324219 128.74219 A 8 8 0 0 0 28.742188 138.67578 A 8 8 0 0 0 38.675781 133.25781 L 43.675781 116.25781 A 8 8 0 0 0 38.257812 106.32422 A 8 8 0 0 0 36.716797 106.03125 z M 30 141 A 8 8 0 0 0 22 149 L 22 157 A 8 8 0 0 0 30 165 A 8 8 0 0 0 38 157 L 38 149 A 8 8 0 0 0 30 141 z " />
  </g>
</svg>
