<?xml version="1.0" encoding="UTF-8" standalone="no"?>
<!-- Created with Inkscape (http://www.inkscape.org/) -->

<svg
   width="300"
   height="300"
   viewBox="0 0 300 300"
   version="1.1"
   id="svg1"
   inkscape:version="1.3.2 (091e20e, 2023-11-25, custom)"
   sodipodi:docname="hicn.svg"
   xmlns:inkscape="http://www.inkscape.org/namespaces/inkscape"
   xmlns:sodipodi="http://sodipodi.sourceforge.net/DTD/sodipodi-0.dtd"
   xmlns="http://www.w3.org/2000/svg"
   xmlns:svg="http://www.w3.org/2000/svg">
  <sodipodi:namedview
     id="namedview1"
     pagecolor="#ffffff"
     bordercolor="#000000"
     borderopacity="0.25"
     inkscape:showpageshadow="2"
     inkscape:pageopacity="0.0"
     inkscape:pagecheckerboard="0"
     inkscape:deskcolor="#d1d1d1"
     inkscape:document-units="px"
     inkscape:zoom="1"
     inkscape:cx="178"
     inkscape:cy="150.5"
     inkscape:window-width="1366"
     inkscape:window-height="705"
     inkscape:window-x="-8"
     inkscape:window-y="-8"
     inkscape:window-maximized="1"
     inkscape:current-layer="layer1" />
  <defs
     id="defs1">
    <inkscape:path-effect
       effect="bspline"
       id="path-effect24"
       is_visible="true"
       lpeversion="1.3"
       weight="33.333333"
       steps="2"
       helper_size="0"
       apply_no_weight="true"
       apply_with_weight="true"
       only_selected="false"
       uniform="false" />
    <inkscape:path-effect
       effect="bspline"
       id="path-effect23"
       is_visible="true"
       lpeversion="1.3"
       weight="33.333333"
       steps="2"
       helper_size="0"
       apply_no_weight="true"
       apply_with_weight="true"
       only_selected="false"
       uniform="false" />
    <inkscape:path-effect
       effect="bspline"
       id="path-effect22"
       is_visible="true"
       lpeversion="1.3"
       weight="33.333333"
       steps="2"
       helper_size="0"
       apply_no_weight="true"
       apply_with_weight="true"
       only_selected="false"
       uniform="false" />
    <inkscape:path-effect
       effect="bspline"
       id="path-effect21"
       is_visible="true"
       lpeversion="1.3"
       weight="33.333333"
       steps="2"
       helper_size="0"
       apply_no_weight="true"
       apply_with_weight="true"
       only_selected="false"
       uniform="false" />
    <inkscape:path-effect
       effect="bspline"
       id="path-effect20"
       is_visible="true"
       lpeversion="1.3"
       weight="33.333333"
       steps="2"
       helper_size="0"
       apply_no_weight="true"
       apply_with_weight="true"
       only_selected="false"
       uniform="false" />
    <inkscape:path-effect
       effect="bspline"
       id="path-effect19"
       is_visible="true"
       lpeversion="1.3"
       weight="33.333333"
       steps="2"
       helper_size="0"
       apply_no_weight="true"
       apply_with_weight="true"
       only_selected="false"
       uniform="false" />
    <inkscape:path-effect
       effect="bspline"
       id="path-effect18"
       is_visible="true"
       lpeversion="1.3"
       weight="33.333333"
       steps="2"
       helper_size="0"
       apply_no_weight="true"
       apply_with_weight="true"
       only_selected="false"
       uniform="false" />
    <inkscape:path-effect
       effect="bspline"
       id="path-effect17"
       is_visible="true"
       lpeversion="1.3"
       weight="33.333333"
       steps="2"
       helper_size="0"
       apply_no_weight="true"
       apply_with_weight="true"
       only_selected="false"
       uniform="false" />
    <inkscape:path-effect
       effect="bspline"
       id="path-effect16"
       is_visible="true"
       lpeversion="1.3"
       weight="33.333333"
       steps="2"
       helper_size="0"
       apply_no_weight="true"
       apply_with_weight="true"
       only_selected="false"
       uniform="false" />
    <inkscape:path-effect
       effect="bspline"
       id="path-effect15"
       is_visible="true"
       lpeversion="1.3"
       weight="33.333333"
       steps="2"
       helper_size="0"
       apply_no_weight="true"
       apply_with_weight="true"
       only_selected="false"
       uniform="false" />
    <inkscape:path-effect
       effect="bspline"
       id="path-effect14"
       is_visible="true"
       lpeversion="1.3"
       weight="33.333333"
       steps="2"
       helper_size="0"
       apply_no_weight="true"
       apply_with_weight="true"
       only_selected="false"
       uniform="false" />
    <inkscape:path-effect
       effect="bspline"
       id="path-effect13"
       is_visible="true"
       lpeversion="1.3"
       weight="33.333333"
       steps="2"
       helper_size="0"
       apply_no_weight="true"
       apply_with_weight="true"
       only_selected="false"
       uniform="false" />
  </defs>
  <g
     inkscape:label="Layer 1"
     inkscape:groupmode="layer"
     id="layer1">
    <path
       id="path5"
       style="color:#000000;fill:#000000;stroke-linecap:round;stroke-linejoin:round;-inkscape-stroke:none"
       d="M 188.30078 22.779297 C 187.86861 22.741877 187.42464 22.762952 186.97852 22.857422 C 185.19401 23.235188 183.91951 24.684788 183.32617 25.980469 C 182.73283 27.276145 182.50947 28.597388 182.37109 30.019531 C 182.09434 32.863826 182.25811 36.154365 182.41016 39.421875 C 182.56217 42.689384 182.71028 45.92566 182.53711 48.240234 C 182.45781 49.299805 182.29163 50.07282 182.13672 50.5625 C 181.66913 50.349136 180.98256 49.953802 180.14258 49.302734 C 178.3071 47.880086 175.99725 45.603222 173.67188 43.300781 C 171.34646 40.998344 169.01511 38.673504 166.7168 36.972656 C 165.56761 36.122236 164.43629 35.400928 163.07617 34.972656 C 161.71603 34.544392 159.78509 34.519604 158.30859 35.589844 C 156.83215 36.660084 156.2548 38.50302 156.24023 39.927734 C 156.22573 41.352452 156.5611 42.648539 157.01367 44.003906 C 157.91879 46.714651 159.40977 49.653061 160.87891 52.576172 C 162.34801 55.499281 163.79795 58.397266 164.58203 60.582031 C 164.94082 61.581812 165.10418 62.354905 165.16211 62.865234 C 164.64821 62.860534 163.85944 62.779001 162.82617 62.525391 C 160.57012 61.971649 157.53644 60.830217 154.47461 59.671875 C 151.41279 58.513533 148.33316 57.336564 145.54102 56.716797 C 144.14492 56.406911 142.81929 56.207667 141.40234 56.369141 C 139.98545 56.530608 138.21002 57.293432 137.29688 58.871094 C 136.38368 60.44875 136.60712 62.366417 137.17383 63.673828 C 137.74054 64.981239 138.57577 66.027793 139.54102 67.082031 C 141.47146 69.190507 144.02832 71.270468 146.56055 73.34375 C 149.09273 75.417031 151.59541 77.477113 153.20117 79.154297 C 153.93644 79.922266 154.40551 80.559342 154.66602 81.001953 C 154.19483 81.206555 153.43869 81.452273 152.39062 81.640625 C 150.10414 82.051545 146.86642 82.243641 143.59766 82.429688 C 140.32884 82.615734 137.03565 82.788939 134.23242 83.357422 C 132.83081 83.641659 131.54126 84.001317 130.3125 84.724609 C 129.08374 85.447906 127.77207 86.86545 127.58008 88.677734 C 127.38809 90.490022 128.37382 92.151197 129.42383 93.115234 C 130.47384 94.079274 131.66163 94.69481 132.97266 95.265625 C 135.59467 96.407261 138.77616 97.267849 141.93359 98.132812 C 145.09106 98.997781 148.21934 99.860645 150.36914 100.74023 C 151.3529 101.14274 152.03866 101.53946 152.45703 101.83789 C 152.10947 102.21628 151.51834 102.74658 150.63867 103.34375 C 148.71703 104.64828 145.83832 106.13845 142.92773 107.63672 C 140.01718 109.13499 137.08151 110.63455 134.75195 112.29297 C 133.58718 113.12218 132.55077 113.97276 131.72266 115.13281 C 130.89454 116.29287 130.27353 118.11996 130.83594 119.85352 C 131.39835 121.58703 132.97642 122.70227 134.32812 123.15625 C 135.67986 123.61023 137.01714 123.69295 138.44727 123.68164 C 141.30747 123.65904 144.56402 123.15111 147.80078 122.6582 C 151.03754 122.16528 154.24428 121.68335 156.56641 121.61328 C 157.62922 121.58118 158.41821 121.66498 158.92188 121.76758 C 158.75834 122.2545 158.43735 122.97809 157.87695 123.88086 C 156.65245 125.85344 154.62529 128.38607 152.57617 130.9375 C 150.52706 133.48893 148.45503 136.0501 147.00195 138.51172 C 146.2754 139.74253 145.67686 140.93971 145.39258 142.33594 C 145.1083 143.73217 145.28435 145.65469 146.50391 147.00977 C 147.44481 148.05519 148.78374 148.51153 150 148.60742 L 150 172.8125 A 3.0003 3.0003 0 0 0 154.5 175.41211 L 171.81641 165.41406 C 171.83746 165.42385 171.85176 165.44169 171.87305 165.45117 C 173.53889 166.19346 175.4257 165.77019 176.66797 165.07031 C 177.91026 164.37044 178.86582 163.43265 179.81445 162.36328 C 180.58132 161.49882 181.33015 160.51667 182.07227 159.49219 L 184.65039 158.00391 A 3.0003 3.0003 0 0 0 185.80078 154.00586 C 187.43115 151.5348 189.03809 149.13218 190.40234 147.52344 C 191.08991 146.71267 191.68034 146.18606 192.09375 145.88086 C 192.34647 146.32814 192.66842 147.05048 192.96484 148.07031 C 193.61267 150.29922 194.13947 153.49618 194.66602 156.72461 C 195.19259 159.95305 195.71167 163.20583 196.57031 165.93164 C 196.99962 167.29455 197.48956 168.54032 198.33789 169.68555 C 199.18621 170.83078 200.73455 171.98518 202.55859 171.98633 C 204.38268 171.98733 205.9332 170.83556 206.7832 169.69141 C 207.6332 168.54726 208.12338 167.30181 208.55469 165.93945 C 209.41729 163.21477 209.94333 159.96209 210.47461 156.73438 C 211.00589 153.50661 211.53641 150.31011 212.1875 148.08203 C 212.48562 147.06182 212.80907 146.33932 213.0625 145.89258 C 213.47548 146.19849 214.06405 146.72793 214.75 147.53906 C 216.24927 149.31193 218.03467 152.01869 219.83008 154.75391 C 221.62548 157.48908 223.42226 160.24953 225.31641 162.39062 C 226.26348 163.46118 227.21777 164.40207 228.45898 165.10352 C 229.70022 165.80491 231.58503 166.22846 233.25195 165.48828 C 234.91888 164.7481 235.867 163.06638 236.17773 161.67578 C 236.48848 160.28519 236.43214 158.94713 236.27148 157.52734 C 235.95028 154.6878 235.10212 151.50431 234.27344 148.33984 C 233.44474 145.17541 232.63061 142.04017 232.31836 139.74023 C 232.17534 138.68704 232.17687 137.89387 232.22656 137.38281 C 232.72828 137.49426 233.47992 137.74062 234.4375 138.20312 C 236.52896 139.21339 239.25989 140.96141 242.01367 142.73047 C 244.76747 144.49953 247.53652 146.28838 250.13867 147.47461 C 251.43974 148.06773 252.69372 148.53941 254.11328 148.67578 C 255.53283 148.81216 257.42689 148.43362 258.64844 147.08008 C 259.86998 145.72655 260.05176 143.80479 259.76953 142.4082 C 259.48729 141.01161 258.8888 139.81181 258.16406 138.58008 C 256.71458 136.11663 254.64694 133.55202 252.60156 130.99805 C 250.55617 128.44403 248.53409 125.90962 247.3125 123.93555 C 246.75392 123.03289 246.43262 122.31146 246.26953 121.82422 C 246.77347 121.72229 247.5608 121.63849 248.62305 121.67188 C 250.94502 121.74483 254.1527 122.2315 257.38867 122.72852 C 260.62471 123.22553 263.88199 123.73745 266.74219 123.76367 C 268.17231 123.77677 269.50893 123.69637 270.86133 123.24414 C 272.21374 122.79187 273.79054 121.6762 274.35547 119.94336 C 274.92041 118.21051 274.30296 116.38181 273.47656 115.2207 C 272.65014 114.0596 271.61668 113.20568 270.45312 112.375 C 268.12606 110.71363 265.19352 109.21484 262.28516 107.71289 C 259.37676 106.21094 256.49785 104.71516 254.57812 103.4082 C 253.69984 102.81024 253.11084 102.28117 252.76367 101.90234 C 253.18254 101.60445 253.86935 101.20783 254.85352 100.80664 C 257.00455 99.929764 260.13036 99.071906 263.28906 98.210938 C 266.44779 97.349965 269.63413 96.493786 272.25781 95.355469 C 273.56968 94.786307 274.75717 94.169741 275.80859 93.207031 C 276.86 92.244322 277.84755 90.584014 277.6582 88.771484 C 277.4689 86.958957 276.1613 85.537346 274.93359 84.8125 C 273.70589 84.087654 272.41486 83.733272 271.01367 83.447266 C 268.21128 82.87525 264.91693 82.694087 261.64844 82.503906 C 258.3799 82.313725 255.14335 82.118892 252.85742 81.705078 C 251.81148 81.515732 251.0573 81.2714 250.58594 81.066406 C 250.84714 80.624115 251.31259 79.981739 252.04883 79.214844 C 253.65705 77.539688 256.16591 75.486092 258.70117 73.416016 C 261.23643 71.345938 263.79493 69.268141 265.72852 67.162109 C 266.69524 66.109094 267.53098 65.060599 268.09961 63.753906 C 268.66823 62.447217 268.89721 60.531935 267.98633 58.953125 C 267.07544 57.374316 265.30143 56.608577 263.88477 56.445312 C 262.46806 56.282052 261.14068 56.480957 259.74414 56.789062 C 256.95103 57.4053 253.87211 58.577955 250.80859 59.732422 C 247.74513 60.88689 244.70608 62.025284 242.44922 62.576172 C 241.41615 62.82834 240.62924 62.911821 240.11523 62.916016 C 240.17383 62.405847 240.33683 61.630702 240.69727 60.630859 C 241.48449 58.447091 242.94065 55.548202 244.41406 52.626953 C 245.88748 49.705704 247.38194 46.770139 248.29102 44.060547 C 248.74556 42.705749 249.08085 41.411064 249.06836 39.986328 C 249.05586 38.561594 248.48274 36.718592 247.00781 35.646484 C 245.53288 34.574378 243.60098 34.596888 242.24023 35.023438 C 240.87952 35.449984 239.75002 36.168613 238.59961 37.017578 C 236.29875 38.715511 233.9616 41.038393 231.63281 43.337891 C 229.30404 45.637383 226.99186 47.911706 225.1543 49.332031 C 224.31291 49.98238 223.62606 50.377221 223.1582 50.589844 C 223.00405 50.099914 222.83945 49.325067 222.76172 48.265625 C 222.59194 45.950825 222.74162 42.714574 222.89844 39.447266 C 223.05524 36.179951 223.2257 32.889563 222.95312 30.044922 C 222.81692 28.622595 222.59535 27.300335 222.00391 26.003906 C 221.41247 24.70748 220.13742 23.256979 218.35352 22.876953 C 216.56958 22.496932 214.81559 23.303489 213.74609 24.246094 C 212.67657 25.1887 211.93586 26.305805 211.23047 27.548828 C 209.8197 30.034875 208.63082 33.105422 207.43945 36.152344 C 206.24806 39.199266 205.06341 42.217538 203.96289 44.261719 C 203.45946 45.196814 202.99318 45.834118 202.65234 46.21875 C 202.31204 45.833932 201.84428 45.196281 201.3418 44.259766 C 200.24427 42.214195 199.06388 39.19491 197.87695 36.146484 C 196.69004 33.098056 195.50474 30.024939 194.09766 27.537109 C 193.39408 26.2932 192.65407 25.176381 191.58594 24.232422 C 190.78484 23.524456 189.59731 22.891549 188.30078 22.779297 z M 163.85156 75.03125 A 2 2 0 0 1 165.46875 77.351562 C 164.63542 82.018212 163.80289 86.682821 163.21094 89.642578 C 163.01624 90.616049 162.85725 91.352644 162.71484 92 L 176.4668 92 C 176.53673 91.045571 176.60809 90.01947 176.77734 89.003906 C 177.07079 87.243246 177.63508 85.903795 177.82031 85.224609 C 178.00555 84.545426 177.99963 83.872338 178.33398 82.757812 C 178.66834 81.643289 179.15127 80.676453 179.32031 80.056641 C 179.4894 79.436825 179.5 78.833329 179.5 78 A 2 2 0 0 1 181.5 76 A 2 2 0 0 1 183.5 78 C 183.5 78.833329 183.51065 79.895862 183.17969 81.109375 C 182.84873 82.322888 182.33166 83.35607 182.16602 83.908203 C 182.00037 84.46034 181.99445 85.121248 181.67969 86.275391 C 181.36492 87.429531 180.92921 88.422785 180.72266 89.662109 C 180.5161 90.901436 180.5117 92.744247 180.22461 94.5625 C 179.93752 96.380753 179.39226 97.8214 179.00195 99.148438 C 178.61165 100.47548 178.28208 101.9515 177.93164 103.26562 C 177.5812 104.57976 177.2443 105.61872 176.92188 106.37109 C 176.59944 107.12346 176.52164 107.09133 176.23047 107.96484 C 175.9393 108.83835 175.42969 110.69206 174.92969 112.52539 A 2 2 0 0 1 172.47461 113.92969 A 2 2 0 0 1 171.07031 111.47461 C 171.57031 109.64128 172.06005 107.82766 172.43555 106.70117 C 172.81104 105.57469 173.06658 105.20923 173.24414 104.79492 C 173.4217 104.38063 173.75213 103.42019 174.06836 102.23438 C 174.38459 101.04853 174.72104 99.525819 175.16406 98.019531 C 175.3771 97.295213 175.59083 96.639798 175.78125 96 L 161.96875 96 C 161.88302 96.718598 161.75484 97.691173 161.4668 99.275391 C 160.95408 102.09535 159.95508 106.75329 158.95508 111.41992 A 2 2 0 0 1 156.58008 112.95508 A 2 2 0 0 1 155.04492 110.58008 C 156.04492 105.91341 157.04592 101.23863 157.5332 98.558594 C 158.02048 95.878573 157.99707 95.18163 158.19336 94.003906 C 158.38965 92.826182 158.71435 91.730974 159.28906 88.857422 C 159.86377 85.98387 160.69792 81.315085 161.53125 76.648438 A 2 2 0 0 1 163.85156 75.03125 z M 246 75.5 A 2 2 0 0 1 248 77.5 C 248 79.833325 248.00284 82.169152 247.91406 83.855469 C 247.82531 85.541783 247.65688 86.394664 247.58008 87.701172 C 247.50322 89.00768 247.5125 91.016796 247.32031 92.650391 C 247.12812 94.283984 246.73136 95.344619 246.61914 95.849609 C 246.50692 96.354606 246.51619 97.013347 246.27344 97.984375 C 246.03068 98.955383 245.76852 99.374854 245.55273 100.59766 C 245.33695 101.82045 245.16081 103.98763 244.99414 106.1543 A 2 2 0 0 1 242.8457 107.99414 A 2 2 0 0 1 241.00586 105.8457 C 241.17253 103.67907 241.32907 101.51288 241.61328 99.902344 C 241.89749 98.291816 242.30198 97.377935 242.39258 97.015625 C 242.48316 96.653315 242.49373 95.97742 242.71484 94.982422 C 242.93596 93.987421 243.20651 93.383321 243.34766 92.183594 C 243.48884 90.983866 243.49614 88.993611 243.58594 87.466797 C 243.67575 85.93998 243.84202 85.124872 243.91992 83.644531 C 243.99802 82.164194 244 79.833325 244 77.5 A 2 2 0 0 1 246 75.5 z M 194.5 84.5 A 2 2 0 0 1 195.91406 85.085938 A 2 2 0 0 1 195.91406 87.914062 L 195.41406 88.414062 A 2 2 0 0 1 192.58594 88.414062 A 2 2 0 0 1 192.58594 85.585938 L 193.08594 85.085938 A 2 2 0 0 1 194.5 84.5 z M 191.41406 96.001953 A 2 2 0 0 1 191.93359 96.046875 A 2 2 0 0 1 193.45312 98.433594 C 192.78649 101.43359 192.12125 104.43951 191.80469 106.25977 C 191.48809 108.07999 191.50917 108.71182 191.40039 109.58203 C 191.29161 110.45224 191.06315 111.13281 190.89648 111.63281 A 2 2 0 0 1 188.36719 112.89648 A 2 2 0 0 1 187.10352 110.36719 C 187.27018 109.86719 187.37374 109.54906 187.43164 109.08594 C 187.48953 108.62282 187.51318 107.5873 187.86328 105.57422 C 188.21338 103.56114 188.88022 100.56638 189.54688 97.566406 A 2 2 0 0 1 191.41406 96.001953 z M 209.01172 97.5 C 209.33637 97.49979 209.66667 97.5 210 97.5 A 2 2 0 0 1 212 99.5 A 2 2 0 0 1 210 101.5 C 208.66667 101.5 207.29616 101.51573 206.80469 101.57031 C 206.31325 101.62492 206.80476 101.56247 206.04883 101.81445 C 205.81756 101.89155 205.73069 101.89296 205.59961 101.91406 C 205.28308 102.25388 205.02832 102.65462 204.54883 102.81445 C 203.79285 103.06642 204.20219 102.83772 203.91211 103.04492 C 203.62202 103.25213 202.75321 104.08346 202.05078 104.68555 C 201.83003 104.87477 201.7039 104.987 201.64453 105.03711 C 201.64197 105.05648 201.64655 105.04267 201.63477 105.10742 C 201.54437 105.60431 201.54437 107.39569 201.63477 107.89258 C 201.65618 108.01039 201.65608 108.05993 201.65234 108.08008 C 201.67222 108.07237 201.75027 108.11038 202.01758 108.4668 C 202.36118 108.92533 202.54388 109.22386 202.60547 109.36133 C 202.727 109.38396 203.07039 109.57624 203.66406 110.16992 C 203.8923 110.39816 203.91374 110.53971 204.02344 110.74219 C 204.15909 110.78795 204.21221 110.78575 204.39453 110.87695 C 205.2049 111.28213 204.90256 111.26723 205.44141 111.36523 C 205.98027 111.4632 207.5 111.5 209 111.5 A 2 2 0 0 1 211 113.5 A 2 2 0 0 1 209 115.5 C 207.5 115.5 206.01905 115.5361 204.72461 115.30078 C 203.6022 115.09671 202.72712 114.55794 202.60742 114.46484 C 202.58202 114.45702 202.54969 114.4464 202.4707 114.42383 C 202.27649 114.36834 201.8067 114.3028 201.25195 113.74805 C 200.91294 113.40903 200.84162 113.21506 200.80078 113.0625 C 200.69626 113.05222 200.29094 112.78703 199.75195 112.24805 C 198.94722 111.44331 198.74641 110.77389 198.81641 110.86719 C 198.88641 110.96053 197.94221 109.94388 197.69922 108.60742 C 197.45623 107.27098 197.45623 105.72902 197.69922 104.39258 C 197.82071 103.72435 198.10261 103.03145 198.49805 102.54297 C 198.89348 102.05449 199.2171 101.84739 199.44922 101.64844 C 199.91345 101.25053 200.71132 100.41518 201.58789 99.789062 C 202.29385 99.284814 202.79035 99.202322 202.95508 99.169922 C 203.15116 98.865512 203.35531 98.503012 203.77148 98.294922 C 204.33186 98.014442 204.55638 98.046636 204.70703 98.023438 C 204.742 98.018028 204.74983 98.016309 204.77344 98.011719 C 204.9178 97.939449 205.58234 97.682483 206.36328 97.595703 C 207.11972 97.511633 208.03778 97.50064 209.01172 97.5 z M 221.09375 98.029297 C 221.57157 98.044407 222.03465 98.114134 222.48438 98.226562 C 223.31463 98.434142 224.05509 99.063968 224.33789 99.335938 C 224.36135 99.353346 224.34692 99.343224 224.40234 99.382812 C 224.6512 99.560572 225.1463 100.11273 225.31445 100.61719 C 225.65073 101.62614 225.49943 101.92533 225.58203 103.74219 C 225.66462 105.55904 225.83138 108.72786 225.99805 111.89453 A 2 2 0 0 1 224.10547 113.99805 A 2 2 0 0 1 222.00195 112.10547 C 221.83529 108.9388 221.67004 105.77364 221.58594 103.92383 C 221.53081 102.71152 221.47813 102.20602 221.49023 102.10547 C 221.31493 102.07419 220.32764 102.06961 219.93359 102.21289 C 219.52912 102.35997 219.17837 102.67093 218.83008 103.19336 C 218.48179 103.71579 218.29349 104.11668 218.15234 105.31641 C 218.01124 106.51614 218.00635 108.5188 218.07812 109.52344 C 218.14988 110.52808 218.25794 110.55352 218.38867 111.33789 C 218.5194 112.12225 218.5 112.83333 218.5 113.5 A 2 2 0 0 1 216.5 115.5 A 2 2 0 0 1 214.5 113.5 C 214.5 112.83333 214.47926 112.21173 214.44336 111.99609 C 214.40742 111.78046 214.18279 111.13728 214.08789 109.80859 C 213.99298 108.47994 213.9875 106.48321 214.17969 104.84961 C 214.37188 103.21601 214.85024 101.95218 215.50195 100.97461 C 216.15366 99.99705 217.13755 98.972703 218.56641 98.453125 C 219.28084 98.193335 219.96021 98.062603 220.61133 98.033203 C 220.77411 98.025863 220.93448 98.024257 221.09375 98.029297 z M 234.76172 100.01367 A 2 2 0 0 1 235.2832 100.01953 A 2 2 0 0 1 236.59961 100.80078 A 2 2 0 0 1 236.19922 103.59961 C 235.40692 104.19383 235.02549 104.51442 234.44531 104.97461 C 234.86364 105.35078 235.67817 105.93437 236.33203 107.11133 C 237.05464 108.41112 237.03254 109.69336 237.05664 109.83789 C 237.06869 109.91017 237.12506 110.03591 237.19336 110.46875 C 237.26172 110.90159 237.2399 111.47415 237.11914 112.01758 C 236.87761 113.10447 236.48361 114.35454 235.59961 115.5332 C 234.71561 116.71187 233.11485 117.00884 232.82812 117.05664 C 232.54143 117.10443 232.13281 117.22982 231.63281 117.39648 A 2 2 0 0 1 229.10352 116.13281 A 2 2 0 0 1 230.36719 113.60352 C 230.86719 113.43685 231.45861 113.23021 232.17188 113.11133 C 232.29854 113.09022 232.37257 113.08382 232.42773 113.08398 C 232.58461 112.8158 233.12797 111.54133 233.21484 111.15039 C 233.23106 111.07743 233.23293 111.07706 233.23633 111.06641 C 233.22804 111.05222 233.17485 110.87717 233.11133 110.49609 C 232.96875 109.64063 232.94716 109.25489 232.83594 109.05469 C 232.72471 108.85447 232.07706 108.23721 231.41992 107.58008 C 230.97502 107.13517 230.65418 106.81781 230.62695 106.74805 C 230.44933 106.65368 230.1818 106.47094 229.89844 106.01758 C 229.50716 105.39153 229.58508 104.36716 229.79883 103.92383 C 230.01257 103.4805 230.21635 103.28951 230.41992 103.08594 C 231.23419 102.27167 232.46745 101.40039 233.80078 100.40039 A 2 2 0 0 1 234.76172 100.01367 z M 241 111.5 A 2 2 0 0 1 243 113.5 L 243 115.5 A 2 2 0 0 1 241 117.5 A 2 2 0 0 1 239 115.5 L 239 113.5 A 2 2 0 0 1 241 111.5 z M 97.605469 128.00195 C 78.604479 127.85582 59.669679 134.90564 45.138672 148.81641 C 19.305768 173.54664 14.533356 213.12924 33.748047 243.29102 C 52.962737 273.45279 90.853457 285.85625 124.18359 272.89453 C 157.51374 259.93282 177.07125 225.18986 170.86133 189.9707 A 3.000295 3.000295 0 0 0 167.38477 187.53711 L 103.61328 198.78125 L 140.75586 145.73438 A 3.000295 3.000295 0 0 0 140.01953 141.55664 C 127.20331 132.58241 112.38401 128.11561 97.605469 128.00195 z M 97.195312 133.98633 C 109.94692 134.03234 122.73144 137.64622 134.04297 144.85938 L 94.542969 201.27344 A 3.000295 3.000295 0 0 0 97.521484 205.94727 L 165.34375 193.98828 C 169.49046 225.38216 151.76368 255.73104 122.00781 267.30273 C 91.311158 279.24031 56.5032 267.84708 38.806641 240.06836 C 21.110079 212.28963 25.495267 175.9267 49.287109 153.15039 C 61.18303 141.76224 76.260311 135.3696 91.736328 134.18555 C 93.552235 134.04661 95.373655 133.97976 97.195312 133.98633 z M 85.962891 149.00195 A 3 3 0 0 0 83.214844 150.88672 L 72.794922 176.93555 L 46.714844 189.28906 A 3 3 0 0 0 45.289062 193.28516 A 3 3 0 0 0 49.285156 194.71094 L 69.519531 185.12695 L 59.214844 210.88672 A 3 3 0 0 0 60.886719 214.78516 A 3 3 0 0 0 64.785156 213.11328 L 77.490234 181.35156 L 106.28516 167.71094 A 3 3 0 0 0 107.71094 163.71484 A 3 3 0 0 0 103.71484 162.28906 L 80.767578 173.16016 L 88.785156 153.11328 A 3 3 0 0 0 87.113281 149.21484 A 3 3 0 0 0 85.962891 149.00195 z " />
  </g>
</svg>
