<?xml version="1.0" encoding="UTF-8" standalone="no"?>
<!-- Created with Inkscape (http://www.inkscape.org/) -->

<svg
   width="300"
   height="300"
   viewBox="0 0 300 300.00001"
   version="1.1"
   id="svg1"
   inkscape:version="1.3.2 (091e20e, 2023-11-25, custom)"
   sodipodi:docname="javascript.svg"
   xmlns:inkscape="http://www.inkscape.org/namespaces/inkscape"
   xmlns:sodipodi="http://sodipodi.sourceforge.net/DTD/sodipodi-0.dtd"
   xmlns="http://www.w3.org/2000/svg"
   xmlns:svg="http://www.w3.org/2000/svg">
  <sodipodi:namedview
     id="namedview1"
     pagecolor="#ffffff"
     bordercolor="#000000"
     borderopacity="0.25"
     inkscape:showpageshadow="2"
     inkscape:pageopacity="0.0"
     inkscape:pagecheckerboard="0"
     inkscape:deskcolor="#d1d1d1"
     inkscape:document-units="px"
     inkscape:zoom="1"
     inkscape:cx="156"
     inkscape:cy="142.5"
     inkscape:window-width="1366"
     inkscape:window-height="705"
     inkscape:window-x="-8"
     inkscape:window-y="-8"
     inkscape:window-maximized="1"
     inkscape:current-layer="layer1" />
  <defs
     id="defs1">
    <inkscape:path-effect
       effect="bspline"
       id="path-effect19"
       is_visible="true"
       lpeversion="1.3"
       weight="33.333333"
       steps="2"
       helper_size="0"
       apply_no_weight="true"
       apply_with_weight="true"
       only_selected="false"
       uniform="false" />
    <inkscape:path-effect
       effect="bspline"
       id="path-effect18"
       is_visible="true"
       lpeversion="1.3"
       weight="33.333333"
       steps="2"
       helper_size="0"
       apply_no_weight="true"
       apply_with_weight="true"
       only_selected="false"
       uniform="false" />
    <inkscape:path-effect
       effect="bspline"
       id="path-effect17"
       is_visible="true"
       lpeversion="1.3"
       weight="33.333333"
       steps="2"
       helper_size="0"
       apply_no_weight="true"
       apply_with_weight="true"
       only_selected="false"
       uniform="false" />
    <inkscape:path-effect
       effect="bspline"
       id="path-effect16"
       is_visible="true"
       lpeversion="1.3"
       weight="33.333333"
       steps="2"
       helper_size="0"
       apply_no_weight="true"
       apply_with_weight="true"
       only_selected="false"
       uniform="false" />
    <inkscape:path-effect
       effect="bspline"
       id="path-effect15"
       is_visible="true"
       lpeversion="1.3"
       weight="33.333333"
       steps="2"
       helper_size="0"
       apply_no_weight="true"
       apply_with_weight="true"
       only_selected="false"
       uniform="false" />
    <inkscape:path-effect
       effect="bspline"
       id="path-effect14"
       is_visible="true"
       lpeversion="1.3"
       weight="33.333333"
       steps="2"
       helper_size="0"
       apply_no_weight="true"
       apply_with_weight="true"
       only_selected="false"
       uniform="false" />
    <inkscape:path-effect
       effect="bspline"
       id="path-effect13"
       is_visible="true"
       lpeversion="1.3"
       weight="33.333333"
       steps="2"
       helper_size="0"
       apply_no_weight="true"
       apply_with_weight="true"
       only_selected="false"
       uniform="false" />
    <inkscape:path-effect
       effect="bspline"
       id="path-effect12"
       is_visible="true"
       lpeversion="1.3"
       weight="33.333333"
       steps="2"
       helper_size="0"
       apply_no_weight="true"
       apply_with_weight="true"
       only_selected="false"
       uniform="false" />
    <inkscape:path-effect
       effect="bspline"
       id="path-effect11"
       is_visible="true"
       lpeversion="1.3"
       weight="33.333333"
       steps="2"
       helper_size="0"
       apply_no_weight="true"
       apply_with_weight="true"
       only_selected="false"
       uniform="false" />
    <inkscape:path-effect
       effect="bspline"
       id="path-effect10"
       is_visible="true"
       lpeversion="1.3"
       weight="33.333333"
       steps="2"
       helper_size="0"
       apply_no_weight="true"
       apply_with_weight="true"
       only_selected="false"
       uniform="false" />
    <inkscape:path-effect
       effect="bspline"
       id="path-effect9"
       is_visible="true"
       lpeversion="1.3"
       weight="33.333333"
       steps="2"
       helper_size="0"
       apply_no_weight="true"
       apply_with_weight="true"
       only_selected="false"
       uniform="false" />
    <inkscape:path-effect
       effect="bspline"
       id="path-effect8"
       is_visible="true"
       lpeversion="1.3"
       weight="33.333333"
       steps="2"
       helper_size="0"
       apply_no_weight="true"
       apply_with_weight="true"
       only_selected="false"
       uniform="false" />
    <inkscape:path-effect
       effect="bspline"
       id="path-effect7"
       is_visible="true"
       lpeversion="1.3"
       weight="33.333333"
       steps="2"
       helper_size="0"
       apply_no_weight="true"
       apply_with_weight="true"
       only_selected="false"
       uniform="false" />
    <inkscape:path-effect
       effect="bspline"
       id="path-effect6"
       is_visible="true"
       lpeversion="1.3"
       weight="33.333333"
       steps="2"
       helper_size="0"
       apply_no_weight="true"
       apply_with_weight="true"
       only_selected="false"
       uniform="false" />
    <inkscape:path-effect
       effect="bspline"
       id="path-effect5"
       is_visible="true"
       lpeversion="1.3"
       weight="33.333333"
       steps="2"
       helper_size="0"
       apply_no_weight="true"
       apply_with_weight="true"
       only_selected="false"
       uniform="false" />
    <inkscape:path-effect
       effect="bspline"
       id="path-effect4"
       is_visible="true"
       lpeversion="1.3"
       weight="33.333333"
       steps="2"
       helper_size="0"
       apply_no_weight="true"
       apply_with_weight="true"
       only_selected="false"
       uniform="false" />
    <inkscape:path-effect
       effect="bspline"
       id="path-effect3"
       is_visible="true"
       lpeversion="1.3"
       weight="33.333333"
       steps="2"
       helper_size="0"
       apply_no_weight="true"
       apply_with_weight="true"
       only_selected="false"
       uniform="false" />
    <inkscape:path-effect
       effect="bspline"
       id="path-effect2"
       is_visible="true"
       lpeversion="1.3"
       weight="33.333333"
       steps="2"
       helper_size="0"
       apply_no_weight="true"
       apply_with_weight="true"
       only_selected="false"
       uniform="false" />
    <inkscape:path-effect
       effect="bspline"
       id="path-effect1"
       is_visible="true"
       lpeversion="1.3"
       weight="33.333333"
       steps="2"
       helper_size="0"
       apply_no_weight="true"
       apply_with_weight="true"
       only_selected="false"
       uniform="false" />
  </defs>
  <g
     inkscape:label="Layer 1"
     inkscape:groupmode="layer"
     id="layer1">
    <path
       id="path12"
       style="color:#000000;fill:#000000;stroke-linecap:round;stroke-linejoin:round;-inkscape-stroke:none"
       d="M 182.80273 20.046875 C 176.13609 20.380209 169.43535 20.711272 164.07031 21.230469 C 158.70527 21.749667 154.80582 22.442534 151.93164 23.208984 C 149.05744 23.975435 147.17223 24.842331 146.80469 24.964844 C 146.43714 25.087361 145.28886 25.227036 143.19531 26.064453 C 141.10175 26.901872 138.43868 28.200149 136.18555 29.777344 C 133.93241 31.354538 132.60771 32.561661 131.80859 34.958984 C 131.6088 35.558331 131.37933 36.487246 131.58594 37.685547 C 131.79255 38.883849 132.5566 40.03316 133.08008 40.556641 C 133.34352 40.820076 133.3437 40.808683 133.4668 40.923828 C 133.83362 41.358721 135.02209 42.586346 136.44531 43.535156 C 138.51423 44.914432 141.24473 46.235776 144.0293 47.349609 C 146.81388 48.463443 149.0244 49.101097 151.10547 50.072266 C 153.0061 50.959225 155.1475 52.324351 156.23242 53.087891 C 156.22842 53.093891 156.23056 53.095863 156.22656 53.101562 C 155.8903 53.605942 154.52097 54.834502 153.01758 56.337891 C 151.86688 57.488589 151.16023 58.25744 151.13867 58.375 C 151.02386 58.368 150.93998 58.341499 150.15039 58.736328 C 149.80939 58.906828 149.61327 59.13622 149.34375 59.349609 C 148.86358 59.468629 148.3455 59.591385 147.63086 59.859375 C 145.78448 60.551774 143.91933 61.453526 142.2793 62.546875 C 141.45928 63.093554 140.7126 63.807718 140.36719 64.179688 C 140.02179 64.551657 140.00771 64.59077 139.63281 64.912109 C 138.88299 65.554819 134.81845 68.36076 133.95312 73.552734 C 133.0878 78.744699 134.87408 83.199322 136.58008 86.611328 C 136.88237 87.215908 137.21917 87.532255 137.55273 88.052734 C 134.93751 87.974234 131.8476 87.913212 130.75977 87.757812 C 129.08641 87.518763 128.48608 87.107076 126.59375 86.566406 C 124.7014 86.025737 123.70076 86.02638 123.25977 85.900391 C 122.81879 85.774401 121.23634 84.99762 118.9707 84.494141 C 116.70508 83.990681 114.65239 83.959966 114.54102 83.941406 C 114.42968 83.922806 112.87932 83.39157 108.76953 83.212891 C 105.65576 83.077481 100.57005 83.056831 95.173828 83.050781 C 94.311179 80.558994 94.552734 79.555203 94.552734 77.041016 C 94.552734 70.137463 88.956286 64.541016 82.052734 64.541016 C 75.149182 64.541016 69.552734 70.137463 69.552734 77.041016 C 69.552734 81.374341 70.375756 90.333822 77.101562 103.42188 C 83.827368 116.50993 95.996467 135.87686 103.91406 146.85352 C 107.87285 152.34184 110.691 155.67348 113.60938 158.24023 C 116.52775 160.80699 120.70757 162.58045 121.28125 162.78906 C 122.42858 163.20627 124.09372 164.15147 127.50781 164.91016 C 130.92188 165.66884 134.88603 165.46431 139.44141 164.70508 C 143.9968 163.94585 150.30341 162.63083 155.25586 161.24414 C 160.20832 159.85747 163.3642 158.36142 165.73047 157.32617 C 168.09676 156.29092 172.12438 154.82722 176.4668 151.8418 C 180.80923 148.85638 183.49014 145.57093 185.92578 142.81055 C 187.64874 140.85785 189.75863 138.51505 191.86523 135.93359 C 192.03425 135.91939 192.20244 135.89663 192.36914 135.86523 C 203.36911 132.86524 214.30767 129.91256 220.98828 127.38477 C 224.32858 126.12087 226.98535 125.25984 229.09375 122.23242 C 230.14793 120.7187 230.64282 118.4897 230.375 116.71289 C 230.10717 114.93608 229.39475 113.60079 228.60352 112.35742 C 225.43856 107.38392 219.54997 101.98109 213.98047 98.599609 C 212.72151 97.835238 211.49279 97.241401 210.30273 96.769531 C 210.39843 96.497882 210.46537 96.33243 210.57812 95.994141 C 211.70202 92.622454 211.49336 91.489598 211.68359 90.443359 C 211.87382 89.39712 212.51303 86.738933 213.17969 84.072266 C 214.85384 77.374742 210.78153 70.588151 204.08398 68.914062 C 197.38646 67.239914 190.59987 71.312222 188.92578 78.009766 C 188.25911 80.676433 187.56433 83.350276 187.08789 85.970703 C 187.07389 86.047803 187.07405 86.047004 187.06055 86.121094 C 186.29716 86.133594 185.55838 86.165692 184.88867 86.232422 C 182.63088 86.458192 182.66213 86.75391 179.26758 87.0625 C 175.87303 87.3711 168.75036 87.707021 165.38672 87.707031 C 162.02311 87.707031 162.88441 87.537612 160.92578 87.257812 C 158.96716 86.978013 157.06254 87.002449 156.33984 86.912109 C 155.61714 86.821809 155.07701 86.547431 153.0332 86.138672 C 151.13847 85.759722 148.81562 85.423492 147.99609 85.257812 C 147.91219 85.173513 148.03327 85.283275 147.92188 85.171875 C 146.66596 83.915956 146.48604 84.05996 145.52539 82.138672 C 144.56473 80.217364 143.68371 76.005265 143.81836 75.197266 C 143.95303 74.389256 144.55712 73.861195 146.14062 72.503906 C 146.93238 71.825257 147.49904 71.195735 147.69531 70.984375 C 147.89157 70.773015 147.64621 70.987377 147.82617 70.867188 C 148.18613 70.627218 150.32231 69.530256 151.14258 69.222656 C 151.55273 69.068856 151.75157 69.020691 152.01172 68.962891 C 152.27188 68.905091 152.59588 69.025292 153.95508 68.345703 C 154.40348 68.121503 154.69242 67.823232 155.01562 67.539062 C 155.6087 67.333783 156.28537 67.116545 157.05273 66.541016 C 158.99939 65.081017 159.25794 64.240105 160.08789 63.410156 C 160.91784 62.580207 162.88314 61.144055 164.54688 58.648438 C 166.21061 56.15283 166.71874 54.041648 166.71875 51.875 C 166.71875 50.791671 166.38678 49.140286 165.37305 47.923828 C 165.11304 47.611821 165.40854 47.972767 165.21484 47.773438 C 165.0982 47.644194 164.96896 47.50569 164.77734 47.271484 C 164.25545 46.633621 163.59874 46.035001 162.71875 45.375 C 160.95875 44.05501 158.25289 42.371923 155.33398 41.009766 C 152.41507 39.647607 149.9576 38.950614 147.74219 38.064453 C 146.55262 37.588625 145.7487 37.092221 144.6543 36.535156 C 145.52034 36.091483 146.34964 35.573816 146.91016 35.349609 C 148.14995 34.853695 148.33436 34.995319 149.9668 34.451172 C 151.59926 33.907021 152.38201 33.439925 154.50781 32.873047 C 156.63361 32.306168 160.06689 31.664394 165.03516 31.183594 C 170.00343 30.702794 176.63609 30.368488 183.30273 30.035156 C 186.06102 29.897297 188.18516 27.54928 188.04688 24.791016 C 187.90902 22.032729 185.561 19.908582 182.80273 20.046875 z M 207.26758 106.30664 C 207.74076 106.54433 208.23841 106.81293 208.79102 107.14844 C 212.30945 109.28464 217.59914 114.41856 219.53711 117.03125 C 218.96447 117.34222 218.44574 117.65419 217.44922 118.03125 C 213.59973 119.48782 207.17146 121.37591 200.0332 123.37305 C 200.45932 122.49126 200.86822 121.60815 201.24023 120.72461 C 202.92357 116.72668 204.05236 113.10962 204.54297 111.96484 C 205.00829 110.87911 205.99633 109.64585 207.26758 106.30664 z M 209.81055 206.93164 C 209.19937 206.90844 208.61796 206.96413 207.94922 207.01562 C 205.27426 207.22139 200.7902 207.76504 196.59766 209.86133 C 192.40509 211.95761 190.10166 215.18849 188.96289 217.23828 C 188.39351 218.26317 187.9314 219.43848 187.68164 220.46875 C 187.43188 221.49902 187.32203 222.31899 187.08594 223.57812 C 186.61375 226.09643 185.57336 230.91236 185.0332 235.59375 C 184.71337 238.36567 184.65489 240.14395 184.53906 242.31641 A 5 5 0 0 0 181.51367 246.85547 A 5 5 0 0 0 183.50391 250.37305 C 183.1816 251.88401 182.96077 253.03015 182.42969 255.68555 C 181.55613 260.05333 180.56055 266.3874 179.56055 272.7207 A 5 5 0 0 0 183.7207 278.43945 A 5 5 0 0 0 189.43945 274.2793 C 190.43945 267.94597 191.44322 261.612 192.23633 257.64648 C 192.7887 254.88464 193.16696 253.02816 193.56055 250.96484 C 195.86754 250.74685 198.06935 250.47121 200.0293 250.05859 C 203.83619 249.25714 206.46783 247.7739 207.07031 247.47266 C 207.37155 247.32204 207.42204 247.30694 207.60547 247.24023 C 207.7889 247.17353 208.60726 247.13102 209.86914 245.86914 C 210.33528 245.403 210.10596 245.61492 210.30859 245.4082 C 210.96244 245.05012 212.03567 244.3706 213.20312 243.20312 C 215.04323 241.36304 216.46765 239.07641 217.80469 236.40234 C 219.14172 233.7283 220.30279 230.68196 220.91406 227.42188 C 221.52533 224.16179 221.56336 221.36039 221.29492 219.21289 C 221.15927 218.12765 220.60686 216.78831 220.22266 215.98242 C 220.18786 215.66786 220.25716 215.50263 219.80469 214.59766 C 219.19998 213.38823 218.20669 212.6637 217.8125 212.39844 C 218.02163 212.58832 217.25247 211.51418 216.03516 210.29688 C 214.8233 209.08503 213.65429 208.22232 214.33008 208.91992 C 214.01595 208.61026 213.00062 207.70138 211.85156 207.31836 C 211.06286 207.05545 210.42172 206.95487 209.81055 206.93164 z M 133.36133 211.16406 C 131.14856 211.22516 129.04862 211.65761 127.16211 212.18164 C 123.38909 213.2297 120.72387 215.00583 119.51758 215.75977 C 118.31129 216.51368 117.145 216.68582 115.67383 218.89258 C 115.16977 219.64867 115.10869 220.0918 114.9707 220.58008 C 114.71736 220.8415 114.55604 220.90227 114.33984 221.22656 C 113.15313 223.00664 113.07818 223.90603 112.81641 224.95312 C 112.6882 225.46596 112.59894 225.74403 112.58594 225.80664 C 112.47359 226.05434 112.35476 226.33024 112.25586 226.62695 C 111.95517 227.529 111.78793 228.49995 111.68359 229.75195 C 111.47493 232.25594 111.49927 235.74896 111.33594 240.32227 C 111.17261 244.89555 110.83398 250.62435 110.83398 256.16602 C 110.83398 261.70766 111.17839 266.83206 111.51172 271.83203 A 5 5 0 0 0 116.83203 276.48828 A 5 5 0 0 0 121.48828 271.16797 C 121.24057 267.45231 121.10972 263.75124 121.00195 260.01953 C 123.75112 261.62936 126.77183 263.26447 128.71484 264.35742 C 131.1746 265.74104 132.13464 266.57513 133.92969 267.47266 C 135.72472 268.37017 136.58987 268.37403 137.41016 268.68164 C 138.23043 268.98924 140.15949 269.92409 141.98047 270.98633 C 143.80144 272.04856 145.72657 273.32683 147.72656 274.66016 A 5 5 0 0 0 154.66016 273.27344 A 5 5 0 0 0 153.27344 266.33984 C 151.27344 265.00653 149.19855 263.61873 147.01953 262.34766 C 144.84051 261.07656 142.76826 260.01076 140.92188 259.31836 C 139.0755 258.62597 138.60731 258.62983 138.40234 258.52734 C 138.1974 258.42487 136.49073 257.25896 133.61719 255.64258 C 131.87287 254.6614 129.96361 253.58018 128.01172 252.50195 C 128.69679 252.24364 129.32011 252.05616 130.05859 251.72266 C 136.03396 249.0241 142.60172 244.398 146.33398 241.05859 C 148.20013 239.38891 149.62382 237.83656 150.32812 235.61523 C 151.03245 233.39393 150.57609 231.54444 150.43164 230.67773 C 150.14274 228.94435 149.80143 225.55099 148.54883 222.00195 C 147.29623 218.45294 144.91169 214.30211 140.23633 212.37695 C 137.89863 211.41437 135.5741 211.10298 133.36133 211.16406 z M 54.001953 211.52539 C 50.66863 211.85872 47.456948 212.08738 44.683594 212.84375 C 41.910251 213.60012 39.511211 216.08253 39.796875 215.79688 C 40.082552 215.51121 38.114294 217.20143 36.378906 220.09375 C 34.643523 222.98606 32.209516 227.26718 31.410156 231.79688 C 31.010477 234.06172 31.358797 236.41016 32.248047 238.08984 C 33.137299 239.76955 34.28388 240.68818 34.464844 240.86914 C 34.826776 241.23107 36.201445 242.88573 39.09375 244.62109 C 41.98606 246.35648 46.294738 248.85693 47.404297 250.125 C 48.513857 251.39307 48.40965 252.55064 48.248047 253.43945 C 48.086442 254.32828 48.224916 253.74622 46.904297 255.63281 C 45.583682 257.51941 44.802262 258.98713 41.556641 260.80469 C 38.31102 262.62224 31.729146 264.71094 25.0625 266.71094 A 5 5 0 0 0 21.710938 272.9375 A 5 5 0 0 0 27.9375 276.28906 C 34.604146 274.28906 41.355669 272.37839 46.443359 269.5293 C 51.531047 266.68019 54.082987 262.81393 55.095703 261.36719 C 56.10842 259.92045 57.580876 258.00634 58.085938 255.22852 C 58.591001 252.45067 58.486779 247.60625 54.929688 243.54102 C 51.372595 239.47576 46.345957 237.30953 44.238281 236.04492 C 42.130601 234.78031 42.839887 235.1016 41.535156 233.79688 C 41.341944 233.60366 41.28184 233.5498 41.257812 233.5332 C 41.459923 232.3937 43.690953 227.34516 44.955078 225.23828 C 46.219684 223.1306 45.583467 224.15482 46.869141 222.86914 C 47.118752 222.61953 47.170499 222.54088 47.167969 222.50977 C 47.193739 222.51577 47.235959 222.51173 47.316406 222.49023 C 48.209708 222.24661 51.664724 221.80794 54.998047 221.47461 A 5 5 0 0 0 59.474609 216.00195 A 5 5 0 0 0 54.001953 211.52539 z M 233.5 213.5 A 5 5 0 0 0 228.5 218.5 A 5 5 0 0 0 233.5 223.5 L 248.5 223.5 L 248.5 245.33398 C 248.5 251.50064 248.505 253.22146 248.18359 257.08398 C 247.86172 260.94653 247.19792 266.94727 246.53125 272.94727 A 5 5 0 0 0 250.94727 278.46875 A 5 5 0 0 0 256.46875 274.05273 C 257.13542 268.05276 257.80365 262.05345 258.14844 257.91602 C 258.49323 253.77856 258.5 251.50064 258.5 245.33398 L 258.5 223.5 L 273.5 223.5 A 5 5 0 0 0 278.5 218.5 A 5 5 0 0 0 273.5 213.5 L 253.5 213.5 L 233.5 213.5 z M 167.5 214.5 A 5 5 0 0 0 162.5 219.5 L 162.5 273.5 A 5 5 0 0 0 167.5 278.5 A 5 5 0 0 0 172.5 273.5 L 172.5 219.5 A 5 5 0 0 0 167.5 214.5 z M 93.261719 216.37891 C 92.897614 216.37391 92.506782 216.3809 92.095703 216.4043 C 90.451391 216.4998 88.467825 216.86418 86.447266 217.77344 C 82.406148 219.59194 77.050496 222.91483 73.056641 226.70898 C 69.062786 230.50315 67.187347 234.56707 66.628906 235.57227 C 66.349688 236.07486 66.344536 236.05718 66.121094 236.34766 C 65.897651 236.63813 65.089964 237.85891 64.816406 238.95312 C 64.542849 240.04736 64.558137 240.59165 64.515625 241.12305 C 64.473115 241.65445 64.412454 242.10573 64.429688 242.01953 C 64.464167 241.84712 63.833983 243.75067 63.833984 246.83398 C 63.833985 249.91731 64.166514 254.85507 64.716797 258.70703 C 65.267077 262.55901 65.963809 264.94128 66.861328 266.73633 C 67.31009 267.63385 68.089899 268.68026 68.855469 269.30664 C 69.621039 269.93302 69.820652 269.99 69.833984 270 C 69.847314 270.01 70.938498 270.90421 72.308594 271.55664 C 73.678688 272.20907 75.42783 272.7709 77.888672 273.24414 C 82.810354 274.19062 90.399763 274.8138 98.066406 275.48047 A 5 5 0 0 0 103.48047 270.93359 A 5 5 0 0 0 98.933594 265.51953 C 91.266948 264.85287 83.522302 264.14401 79.777344 263.42383 C 77.904864 263.06374 76.98732 262.70825 76.607422 262.52734 C 76.227521 262.34644 76.487317 262.49004 75.833984 262 C 75.722894 261.9167 75.814034 261.99098 75.724609 261.92578 C 75.564517 261.55526 75.036346 260.22709 74.617188 257.29297 C 74.167472 254.14495 73.833985 249.08398 73.833984 246.83398 C 73.833984 244.58401 73.868514 245.81954 74.236328 243.98047 C 74.420234 243.06094 74.443554 242.43019 74.484375 241.91992 C 74.496165 241.77254 74.478941 241.88222 74.494141 241.76367 C 74.763055 241.38796 75.004173 241.08819 75.371094 240.42773 C 76.479316 238.43295 77.27057 236.49814 79.943359 233.95898 C 82.616151 231.41985 87.927209 228.07407 90.552734 226.89258 C 93.17826 225.71109 91.953782 226.01823 93.287109 226.35156 A 5 5 0 0 0 99.351562 222.71289 A 5 5 0 0 0 95.712891 216.64844 C 95.212892 216.52344 94.354033 216.39508 93.261719 216.37891 z M 208.52344 217.01562 C 208.57054 217.02842 208.94435 217.34864 208.96484 217.36914 C 209.04224 217.44654 209.51122 218.24949 210.79688 219.53516 C 210.87327 219.61156 210.89804 219.60446 210.97656 219.67578 C 211.06376 219.96231 210.95796 219.92762 211.19531 220.40234 C 211.39026 220.79224 211.26011 220.47114 211.35938 220.64648 C 211.41927 221.28891 211.46 223.58315 211.08594 225.57812 C 210.69721 227.65136 209.85763 229.93709 208.86133 231.92969 C 207.86503 233.92228 206.62409 235.63763 206.13086 236.13086 C 205.63763 236.62409 206.00664 236.15316 204.22656 237.33984 C 203.81383 237.615 203.57319 237.92728 203.20508 238.26562 C 202.97666 238.36472 202.8646 238.39387 202.59766 238.52734 C 201.20014 239.2261 200.49712 239.74156 197.9707 240.27344 C 197.26805 240.42137 195.66561 240.49316 194.68164 240.61914 C 194.76284 239.2949 194.80912 238.10675 194.9668 236.74023 C 195.42664 232.75498 196.38625 228.23689 196.91406 225.42188 C 197.17797 224.01437 197.31682 223.16894 197.40039 222.82422 C 197.48399 222.4795 197.44109 222.57081 197.70508 222.0957 C 198.23297 221.14549 199.26289 219.7084 201.07031 218.80469 C 202.83138 217.92416 206.78463 217.17263 208.52344 217.01562 z M 133.59766 221.33594 C 134.84321 221.31374 135.93405 221.41894 136.42969 221.62305 C 137.42097 222.03122 138.37174 223.21245 139.11914 225.33008 C 139.86654 227.44771 140.19059 230.05568 140.56836 232.32227 C 140.61396 232.59592 140.61495 232.60732 140.62695 232.68555 C 140.55105 232.76605 140.32403 233.01866 139.66602 233.60742 C 137.06497 235.93468 130.29935 240.64127 125.94141 242.60938 C 124.09143 243.44484 122.61599 243.81867 121.21875 244.16797 C 121.26745 243.02481 121.29175 241.75039 121.33008 240.67773 C 121.50008 235.91773 121.52377 232.07804 121.64844 230.58203 C 121.67864 230.21894 121.71373 229.99567 121.73633 229.86914 C 121.76783 229.80734 121.73614 229.87314 121.80469 229.73633 C 122.56765 228.21039 122.44603 227.66511 122.51758 227.37891 C 122.56308 227.1971 122.56062 227.14214 122.60742 226.99414 C 122.99646 226.62331 123.4604 226.09093 123.80469 225.40234 C 124.02316 224.96539 123.90868 225.07765 123.99414 224.82422 C 124.20645 224.66008 124.33977 224.53813 124.81641 224.24023 C 126.27676 223.32752 127.61092 222.43696 129.83789 221.81836 C 130.95138 221.50906 132.3521 221.35818 133.59766 221.33594 z " />
  </g>
</svg>
