<svg xmlns="http://www.w3.org/2000/svg" width="300" height="300" xmlns:v="https://vecta.io/nano"><path d="M118 96.061v.439h1v-.172a4 4 0 0 0-1-.268zm1 .439v1h1v-.582a4 4 0 0 0-.639-.418H119zm1 1v1h1v-.338a4 4 0 0 0-.418-.662H120zm1 1v1h.404a4 4 0 0 0-.258-1H121zm0 1h-1v1h1v-1zm-1 1h-1v1h1v-1zm0 1v1h1v-1h-1zm1 1v1h.432l.01-1H121zm0 1h-1v1h1v-1zm-1 1h-1v1h1v-1zm0 1v1h1v-1h-1zm1 1v1h.314l.047-1H121zm0 1h-1v1h1v-1zm-1 1h-1v1h1v-1zm0 1v1h1v-1h-1zm1 1v1h.131l.045-1H121zm0 1h-1v1h1v-1zm-1 1h-1v1h1v-1zm0 1v1h.893l.084-1H120zm0 1h-1v1h1v-1zm0 1v1h.729l.082-1H120zm0 1h-1v1h1v-1zm0 1v1h.564l.082-1H120zm0 1h-1v1h1v-1zm0 1v1h.404l.078-1H120zm0 1h-1v1h1v-1zm0 1v1h.252l.076-1H120zm0 1h-1v1h1v-1zm0 1v1h.098l.076-1H120zm0 1h-1v1h1v-1zm0 1v.283l.021-.283H120zm-1 0h-1v1h1v-1zm0 1v1h.869l.076-1H119zm0 1h-1v1h1v-1zm0 1v1h.748l.039-.932.006-.068H119zm0 1h-1v1h1v-1zm0 1v1h.666l.041-1H119zm0 1h-1v1h1v-1zm0 1v1h.582l.043-1H119zm0 1h-1v1h1v-1zm0 1v1h.5l.041-1H119zm0 1h-1v1h1v-1zm0 1v1h.398l.057-1H119zm0 1h-1v1h1v-1zm0 1v1h.283l.057-1H119zm0 1h-1v1h1v-1zm0 1v1h.168l.057-1H119zm0 1h-1v1h1v-1zm0 1v.83l.105-.744.006-.086H119zm-1 0h-1v1h1v-1zm0 1v1h.834l.143-1H118zm-1 0h-1v1h1v-1zm-1 1h-1v1h1v-1zm0 1v1h1v-1h-1zm1 1v1h1v-1h-1zm1 0h.445l.209-1H118v1zm0 1v1h.035l.205-1H118zm-1 0h-1v1h1v-1zm-1 1h-1v1h1v-1zm0 1v1h1v-1h-1zm1 1v1h.67l.057-1H117zm0 1h-1v1h1v-1zm-1 1h-1v1h1v-1zm0 1v1h1v-1h-1zm1 1v1h.5l.008-1H117zm0 1h-1v1h1v-1zm-1 1h-1v1h1v-1zm0 1v1h1v-1h-1zm1 1v1h.471l.008-1H117zm0 1h-1v1h1v-1zm-1 1h-1v1h1v-1zm0 1v1h1v-1h-1zm1 1v1h.48l-.006-1H117zm0 1h-1v1h1v-1zm-1 1h-1v1h1v-1zm0 1v1h1v-1h-1zm1 1v1h.51l-.008-1H117zm0 1h-1v1h1v-1zm-1 1h-1v1h1v-1zm0 1v1h1v-1h-1zm1 1v1h.688l-.047-1H117zm0 1h-1v1h1v-1zm-1 1h-1v1h1v-1zm0 1v1h1v-1h-1zm1 1v1h1v-.867l-.025-.133H117zm1 1v1h1v-.252l-.354-.258c-.083-.15-.089-.221-.191-.375l-.076-.115H118zm1 1v1h1v-.187c-.103-.06-.204-.135-.33-.223-.125-.191-.256-.381-.43-.59H119zm1 1v1h1v-.559c-.04.001-.35-.047-.354-.041-.075-.089.005-.032-.357-.395L120 177.5zm1 1v1h1v-1h-1zm1 0h1v-.33l-1-.115v.445zm1 0v1h1v-1h-1zm1 0h.391c-.129-.046-.26-.08-.391-.117v.117zm0 1v1h1v-1h-1zm1 0h1v-.242c-.312-.19-.626-.351-1-.521v.764zm1 0v1h1v-.533c-.145-.121-.39-.285-.658-.467H126zm1 1v1h1v-.311a4 4 0 0 0-.449-.689H127zm1 1v1h.424a4 4 0 0 0-.273-1H128zm0 1h-1v1h1v-1zm0 1v1h.15a4 4 0 0 0 .273-1H128zm0 1h-1v1h.551a4 4 0 0 0 .449-.689v-.311zm-1 1h-1v.891a4 4 0 0 0 1-.436v-.455zm0-1v-1h-1v1h1zm-1-1v-1h-1v1h1zm-1 0h-1v1h1v-1zm-1 1h-1v1h1v-1zm0 1v1h1v-1h-1zm1 1v.326a4 4 0 0 0 .748-.326H125zm-1 0h-.701a4 4 0 0 0 .701.221v-.221zm-1-1h-1v.605l.051.002a4 4 0 0 0 .949.299v-.906zm0-1v-1h-1v1h1zm-1-1v-1h-1v1h1zm-1 0h-1v1h1v-1zm-1 1h-1v1h1v-1zm0 1v.453l1 .107v-.561h-1zm-1 0h-.988l.988.262v-.262zm0-1v-1h-1v1h1zm-1-1v-1h-1v1h1zm-1 0h-1v.959l.055.041H117v-1zm-1 0v-1h-1v1h1zm-1 0h-.117l.117.119v-.119zm0-1v-1h-1v1h1zm-1 0h-.32c.042.055.054.097.119.162.102.102.128.1.201.164v-.326zm1-1h1v-1h-1v1zm0-1v-1h-1v1h1zm-1-1v-1h-1v1h1zm-1 0h-1v1h1v-1zm-1 1h-.076c.019.038.054.086.076.127v-.127zm0-1v-1h-1v.176l.443.824H112zm-1-1v-1h-.461l.227.717c.048.117.095.177.145.283h.09zm0-1h1v-1h-1v1zm0-1v-1h-.951l.176 1H111zm0-1h1v-1h-1v1zm0-1v-1h-1v1h1zm-1 0h-.117l.117.707v-.707zm1-1h1v-1h-1v1zm0-1v-1h-1v1h1zm-1-1v-1h-.424l.045 1H110zm0-1h1v-1h-1v1zm1-1h1v-1h-1v1zm0-1v-1h-1v1h1zm-1-1v-1h-.514l.004 1h.51zm0-1h1v-1h-1v1zm1-1h1v-1h-1v1zm0-1v-1h-1v1h1zm-1-1v-1h-.531l.004 1H110zm0-1h1v-1h-1v1zm1-1h1v-1h-1v1zm0-1v-1h-1v1h1zm-1-1v-1h-.527l-.006 1H110zm0-1h1v-1h-1v1zm1-1h1v-1h-1v1zm0-1v-1h-1v1h1zm-1-1v-1h-.508l-.004 1H110zm0-1h1v-1h-1v1zm1-1h1v-1h-1v1zm0-1v-1h-1v1h1zm-1-1v-1h-.322l-.082 1H110zm0-1h1v-1h-1v1zm1-1h1v-1h-1v1zm0-1v-1h-.959l-.041.256v.744h1zm0-1h1v-1h-1v1zm0-1v-1h-.555l-.225 1H111zm0-1h1v-1h-1v1zm0-1v-1h-.113l-.219 1H111zm0-1h1v-1h-.963l-.037.246v.754zm1-1h1v-1h-1v1zm0-1v-1h-.783l-.053 1H112zm0-1h1v-1h-1v1zm0-1v-1h-.676l-.053 1H112zm0-1h1v-1h-1v1zm0-1v-1h-.568l-.053 1H112zm0-1h1v-1h-1v1zm0-1v-1h-.477l-.043 1h.52zm0-1h1v-1h-1v1zm0-1v-1h-.391l-.043 1H112zm0-1h1v-1h-1v1zm0-1v-1h-.303l-.043 1H112zm0-1h1v-1h-1v1zm0-1v-1h-.217l-.043 1h.26zm0-1h1v-1h-1v1zm0-1v-1h-.078l-.076 1H112zm0-1h1v-1h-1v1zm0-1v-.018.018zm1 1v1h1v-1h-1zm1 0h1v-1h-1v1zm1-1h1v-1h-1v1zm0-1v-1h-1v1h1zm-1-1v-1h-1v1h1zm-1 0h-.85l-.076 1H113v-1zm0-1v-1h-.697l-.076 1H113zm1 0h1v-1h-1v1zm1-1h1v-1h-1v1zm0-1v-1h-1v1h1zm-1-1v-1h-1v1h1zm-1 0h-.545l-.076 1H113v-1zm0-1v-1h-.381l-.082 1H113zm1 0h1v-1h-1v1zm1-1h1v-1h-1v1zm0-1v-1h-1v1h1zm-1-1v-1h-1v1h1zm-1 0h-.217l-.082 1H113v-1zm0-1v-1h-.051l-.082 1H113zm1 0h1v-1h-1v1zm1-1h1v-1h-1v1zm0-1v-1h-1v1h1zm-1-1v-1h-.83l-.033.725-.023.275H114zm0-1h1v-1h-1v1zm1-1h1v-1h-1v1zm0-1v-1h-1v1h1zm-1-1v-1h-.645l-.047 1H114zm0-1h1v-1h-1v1zm1-1h1v-1h-1v1zm0-1v-1h-1v1h1zm-1-1v-1h-.559l-.008 1H114zm0-1h1v-1h-1v1zm1-1h1v-1h-1v1zm0-1v-1h-1v1h1zm-1-1v-1h-.137a4 4 0 0 0-.27 1H114zm0-1h1v-1h-.504a4 4 0 0 0-.496.496v.504zm1-1h1v-1h-.408a4 4 0 0 0-.592.496v.504zm1-1h1v-.377a4 4 0 0 0-1 .268v.109zm0 1v1h1v-1h-1zm1 1v1h1v-1h-1zm1 0h1v-1h-1v1zm1 0v1h1v-1h-1zm0 1h-1v1h1v-1zm-2 0h-1v1h1v-1zm-1 0v-1h-1v1h1zm0 2v1h1v-1h-1zm1 1v1h1v-1h-1zm1 0h1v-1h-1v1zm1 0v1h1v-1h-1zm0 1h-1v1h1v-1zm-2 0h-1v1h1v-1zm-1 0v-1h-1v1h1zm0 2v1h1v-1h-1zm1 1v1h1v-1h-1zm1 0h1v-1h-1v1zm1 0v1h1v-1h-1zm0 1h-1v1h1v-1zm-2 0h-1v1h1v-1zm-1 0v-1h-1v1h1zm0 2v1h1v-1h-1zm1 1v1h1v-1h-1zm1 0h1v-1h-1v1zm1 0v1h1v-1h-1zm0 1h-1v1h1v-1zm-2 0h-1v1h1v-1zm-1 0v-1h-1v1h1zm0 2v1h1v-1h-1zm1 1v1h1v-1h-1zm1 0h1v-1h-1v1zm0 1v1h1v-1h-1zm-1 0h-1v1h1v-1zm-1 0v-1h-1v1h1zm0 2v1h1v-1h-1zm1 1v1h1v-1h-1zm1 0h1v-1h-1v1zm0 1v1h1v-1h-1zm-1 0h-1v1h1v-1zm-1 0v-1h-1v1h1zm0 2v1h1v-1h-1zm1 1v1h1v-1h-1zm1 0h1v-1h-1v1zm0 1v1h1v-1h-1zm-1 0h-1v1h1v-1zm-1 0v-1h-1v1h1zm0 2v1h1v-1h-1zm1 1v1h1v-1h-1zm0 1h-1v1h1v-1zm-1 1h-1v1h1v-1zm0 1v1h1v-1h-1zm1 1v1h1v-1h-1zm0 1h-1v1h1v-1zm-1 1h-1v1h1v-1zm0 1v1h1v-1h-1zm1 1v1h1v-1h-1zm0 1h-1v1h1v-1zm-1 1h-1v1h1v-1zm0 1v1h1v-1h-1zm1 1v1h1v-1h-1zm0 1h-1v1h1v-1zm-1 1h-1v1h1v-1zm0 1v1h1v-1h-1zm0 1h-1v1h1v-1zm-1 1h-1v1h1v-1zm-1 0v-1h-1v1h1zm-1 0h-1v1h1v-1zm1-1h1v-1h-1v1zm1-2v-1h-1v1h1zm-1-1v-1h-1v1h1zm0-1h1v-1h-1v1zm1 0v1h1v-1h-1zm0-2v-1h-1v1h1zm-1-1v-1h-1v1h1zm0-1h1v-1h-1v1zm1 0v1h1v-1h-1zm0-2v-1h-1v1h1zm-1-1v-1h-1v1h1zm0-1h1v-1h-1v1zm1 0v1h1v-1h-1zm0-2v-1h-1v1h1zm0-1h1v-1h-1v1zm-3 18v1h1v-1h-1zm1 1v1h1v-1h-1zm1 0h1v-1h-1v1zm1 0v1h1v-1h-1zm0 1h-1v1h1v-1zm-2 0h-1v1h1v-1zm-1 2v1h1v-1h-1zm1 1v1h1v-1h-1zm1 0h1v-1h-1v1zm1 0v1h1v-1h-1zm0 1h-1v1h1v-1zm-2 0h-1v1h1v-1zm-1 0v-1h-1v1h1zm0 2v1h1v-1h-1zm1 1v1h1v-1h-1zm1 0h1v-1h-1v1zm1 0v1h1v-1h-1zm0 1h-1v1h1v-1zm-2 0h-1v1h1v-1zm-1 0v-1h-1v1h1zm0 2v1h1v-1h-1zm1 1v1h1v-1h-1zm1 0h1v-1h-1v1zm1 0v1h1v-1h-1zm0 1h-1v1h1v-1zm-2 0h-1v1h1v-1zm-1 0v-1h-1v1h1zm0 2v1h1v-1h-1zm1 1v1h1v-1h-1zm1 0h1v-1h-1v1zm1 0v1h1v-1h-1zm0 1h-1v1h1v-1zm-2 0h-1v1h1v-1zm-1 0v-1h-1v1h1zm0 2v1h1v-1h-1zm1 1v1h1v-1h-1zm1 0h1v-1h-1v1zm1 0v1h1v-1h-1zm0 1h-1v1h1v-1zm-2 0h-1v1h1v-1zm-1 0v-1h-1v1h1zm0 2v1h1v-1h-1zm1 1v1h1v-1h-1zm1 0h1v-1h-1v1zm1 0v1h1v-1h-1zm0 1h-1v1h1v-1zm-2 0h-1v1h1v-1zm-1 0v-1h-1v1h1zm0 2v1h1v-1h-1zm1 1v1h1v-1h-1zm1 0h1v-1h-1v1zm1 0v1h1v-1h-1zm1 1v1h1v-1h-1zm0 1h-1v1h1v-1zm0 1v1h1v-1h-1zm1 1v1h1v-1h-1zm1 0h1v-1h-1v1zm1 0v1h1v-1h-1zm1 1v1h1v-1h-1zm0 1h-1v1h1v-1zm0 1v1h1v-1h-1zm0 1h-1v1h1v-1zm-1 0v-1h-1v1h1zm0-2v-1h-1v1h1zm-2-1h-1v1h1v-1zm-1 0v-1h-1v1h1zm-1-1v-1h-1v1h1zm0-2v-1h-1v1h1zm-2-1h-1v1h1v-1zm-1 2v1h1v-1h-1zm4 4v1h1v-1h-1zm6 1h1v-1h-1v1zm1-1h1v-1h-1v1zm0-1v-1h-1v1h1zm1 1v1h1v-1h-1zm0 1h-1v1h1v-1zm2 0h1v-1h-1v1zM76.461 98a4 4 0 0 0-.461.123v.377h1v-.439a4 4 0 0 0-.539-.061zm.539.5v1h1v-1h-1zm1 0h.361L78 98.328v.172zm0 1v1h1v-1h-1zm1 0h.582a4 4 0 0 0-.582-.582v.582zm0 1v1h1v-1h-1zm1 0h.146l-.146-.338v.338zm0 1v1h.459l.002-.5a4 4 0 0 0-.057-.5H80zm0 1h-1v1h1v-1zm0 1v1h.453l.004-1H80zm0 1h-1v1h1v-1zm0 1v1h.447l.004-1H80zm0 1h-1v1h1v-1zm0 1v1h.4l.037-1H80zm0 1h-1v1h1v-1zm0 1v1h.324l.039-1H80zm0 1h-1v1h1v-1zm0 1v1h.17l.111-.834.006-.166H80zm0 1h-1v1h1v-1zm0 1v.078l.018-.078H80zm-1 0h-1v1h1v-1zm0 1v1h.502c-.001.005.007-.204.006-.197-.03.12.112-.197.281-.803H79zm0 1h-1v1h1v-1zm0 1v1h.445l.029-1H79zm0 1h-1v1h1v-1zm0 1v1h.389l.029-1H79zm0 1h-1v1h1v-1zm0 1v1h.334l.027-1H79zm0 1h-1v1h1v-1zm0 1v1h.279l.014-.568.012-.432H79zm0 1h-1v1h1v-1zm0 1v1h.232l.023-1H79zm0 1h-1v1h1v-1zm0 1v1h.186l.023-1H79zm0 1h-1v1h1v-1zm0 1v1h.139l.023-1H79zm0 1h-1v1h1v-1zm0 1v1h.092l.023-1H79zm0 1h-1v1h1v-1zm0 1v1h.045l.023-1H79zm0 1h-1v1h1v-1zm0 1v.885l.021-.885H79zm-1 0h-1v1h1v-1zm0 1v1h.975l.023-1H78zm-1 0h-1v1h1v-1zm-1 1h-1v1h1v-1zm0 1v1h1v-1h-1zm1 1v1h1v-1h-1zm1 0h.926l.025-1H78v1zm0 1v1h.879l.023-1H78zm-1 0h-1v1h1v-1zm-1 1h-1v1h1v-1zm0 1v1h1v-1h-1zm1 1v1h1v-1h-1zm1 0h.832l.023-1H78v1zm0 1v1h.785l.023-1H78zm-1 0h-1v1h1v-1zm-1 1h-1v1h1v-1zm0 1v1h1v-1h-1zm1 1v1h1v-1h-1zm1 0h.738l.023-1H78v1zm0 1v1h.691l.023-1H78zm-1 0h-1v1h1v-1zm-1 1h-1v1h1v-1zm0 1v1h1v-1h-1zm1 1v1h1v-1h-1zm1 0h.645l.023-1H78v1zm0 1v1h.637l-.008-1H78zm-1 0h-1v1h1v-1zm-1 1h-1v1h1v-1zm0 1v1h1v-1h-1zm1 1v1h1v-1h-1zm1 0h1v-1h-1v1zm1-1h1v-1h-1v1zm0-1v-.021l-.039.021H79zm1 0h1v-1h-.17c-.289.129-.552.298-.83.443v.557zm1-1h1v-.465l-1 .373v.092zm1 0v1h1v-1h-1zm1 0h1v-.971l-.275.039c-.248.047-.483.119-.725.18v.752zm1 0v1h1v-1h-1zm1 0h1v-1h-1v1zm0-1v-.107l-.781.107H85zm1 0h1v-.332l-1 .086v.246zm1 0v1h1v-1h-1zm1 0h1v-.451l-1 .053v.398zm1 0v1h1v-1h-1zm1 0h1v-.477l-1 .012v.465zm1 0v1h1v-1h-1zm1 0h1v-.5h-.039l-.961.012v.488zm1 0v1h1v-1h-1zm1 0h1v-.457l-1-.021v.479zm1 0v1h1v-1h-1zm1 0h1v-.178c-.362-.107-.68-.144-1-.189v.367zm1 0v1h1v-.775l-.508-.225H97zm1 1v1h1v-1h-1zm1 0h.172l-.172-.129v.129zm0 1v1h1v-1h-1zm1 0h.182c-.067-.095-.073-.132-.182-.254v.254zm0 1v1h1v-1h-1zm1 1v1h1v-1h-1zm1 0h.225c-.081-.096-.127-.173-.225-.273v.273zm0 1v1h1v-.951l-.045-.043c-.025-.025-.003-.006-.006-.006H102zm1 1v1h1v-.932l-.062-.068H103zm1 1v1h1v-.656l-.238-.344H104zm1 1v1h1v-.029c-.173-.353-.355-.661-.547-.971H105zm1 1v1h.434l-.42-1H106zm-1 0h-1v1h1v-1zm-1 1h-1v1h1v-1zm0 1v1h1v-1h-1zm1 1v1h1v-1h-1zm1 0h.941l-.215-1H106v1zm0 1v1h1v-1h-1zm1 0h.156c-.033-.249-.112-.48-.156-.725v.725zm0 1v1h.27l-.055-1H107zm0 1h-1v1h1v-1zm0 1v1h.207l.08-1H107zm0 1h-1v1h1v-1zm0 1v.969l.127-.969H107zm-1-1v-1h-1v1h1zm-1 0h-1v1h1v-1zm-1 1h-1v1h1v-1zm0 1v1h1v-1h-1zm1 1v1h1v-1h-1zm1 0h.797l.197-1H106v1zm0 1v1h.348l.16-.529c.04-.159.055-.312.092-.471h-.6zm-1 0h-1v1h1v-1zm-1 1h-1v1h1v-1zm0 1v1h1v-1h-1zm1 1v1h.371l.367-1H105zm0 1h-1v1h.969l.031-.076v-.924zm-1 1h-1v1h1v-1zm0 1v1h.082l.482-1H104zm0 1h-1v1h.6l.4-.83v-.17zm-1 1h-1v1h1v-1zm0 1v.121l.066-.121H103zm-1-1v-1h-1v1h1zm-1 0h-1v1h1v-1zm-1 1h-1v1h1v-1zm0 1v1h1v-1h-1zm1 1v1h.207c.266-.333.461-.664.674-1H101zm0 1h-1v1h.248a8.07 8.07 0 0 0 .752-.766v-.234zm-1 1h-1v.898l.588-.346c.154-.109.273-.231.412-.346v-.207zm-1 0v-1h-1v1h1zm-1-1v-1h-1v1h1zm-1 0h-1v1h1v-1zm-1 1h-1v1h1v-1zm0 1v.922l1-.205v-.717h-1zm-1 0h-1v1h1v-1zm0 1v.127c.21-.027.412-.093.621-.127H95zm-1 0h-1v.303l1-.084v-.219zm-1 0v-1h-1v1h1zm-1 0h-1v.361l1 .004v-.365zm-1 0v-1h-1v1h1zm-1 0h-1v.338l1 .021v-.359zm-1 0v-1h-1v1h1zm-1 0h-1v.111l1 .113v-.225zm-1 0v-1h-1v.998l1 .002zm0-1h1v-1h-1v1zm0-1v-1h-1v1h1zm-1-1v-1h-1v1h1zm-1 0h-1v1h1v-1zm-1 1h-1v1h1v-1zm0 1v.57l1 .229v-.799h-1zm-1 0h-.777c.089.033.159.078.25.109l.527.16v-.27zm0-1v-1h-1v1h1zm-1-1v-1h-1v1h1zm-1 0h-1v.945l.086.055H81v-1zm-1 0v-1h-1v1h1zm-1 0h-.449l.449.316v-.316zm0-1v-1h-1v1h1zm-1 0h-.645c.199.185.43.359.645.539v-.539zm1-1h1v-1h-1v1zm0-1v-1h-1v1h1zm-1-1v-1h-1v1h1zm-1 0h-1v1h1v-1zm-1 1h-1v1h.979l.021-.121v-.879zm-1 1h-1v1h1v-1zm0 1v1h.611l.184-1H75zm0 1h-1v1h1v-1zm0 1v1h.047a4 4 0 0 0 .295-.529c.031-.123.056-.336.086-.471H75zm0 1h-1v1h.492a4 4 0 0 0 .508-.914v-.086zm-1 1h-1v1h.137a4 4 0 0 0 .863-.518v-.482zm-1 1h-1v.355a4 4 0 0 0 1-.273v-.082zm-1 0v-1h-1v1h1zm-1 0h-1v.109a4 4 0 0 0 .49.271 4 4 0 0 0 .51-.008v-.373zm-1 0v-1h-1v.553a4 4 0 0 0 .805.447H70zm-1-1v-1h-1v.242a4 4 0 0 0 .455.758H69zm-1-1v-1h-.395a4 4 0 0 0 .25 1H68zm0-1h1v-1h-1v1zm0-1v-1h-.297l-.123.529a4 4 0 0 0 .008.471H68zm0-1h1v-1h-1v1zm0-1v-.268l-.062.268H68zm1 1v1h1v-1h-1zm1 0h1v-1h-1v1zm1-1h1v-1h-1v1zm0-1v-1h-1v1h1zm-1-1v-1h-1v1h1zm-1 0h-.742l-.145 1H69v-1zm0-1v-1h-.602l-.053 1H69zm1 0h1v-1h-1v1zm1-1h1v-1h-1v1zm0-1v-1h-1v1h1zm-1-1v-1h-1v1h1zm-1 0h-.494l-.053 1H69v-1zm0-1v-1h-.387l-.053 1H69zm1 0h1v-1h-1v1zm1-1h1v-1h-1v1zm0-1v-1h-1v1h1zm-1-1v-1h-1v1h1zm-1 0h-.176l-.123 1H69v-1zm0-1v-.443c-.024.135-.033.305-.055.443H69zm1 0h1v-1h-1v1zm1-1h1v-1h-1v1zm0-1v-1h-1v1h1zm-1-1v-.635c-.088.152-.178.293-.254.482-.02.05-.031.102-.051.152H70zm1 0h1v-1h-1v1zm0-1v-1h-.314c.007.035-.171.623-.133.525l-.338.475H71zm0-1h1v-1h-1v1zm0-1v-1h-.363l.025 1H71zm0-1h1v-1h-1v1zm0-1v-1h-.41l.023 1H71zm0-1h1v-1h-1v1zm0-1v-1h-.453l.02 1H71zm0-1h1v-1h-1v1zm0-1v-1h-.434l-.01 1H71zm0-1h1v-1h-1v1zm0-1v-1h-.414l-.01 1H71zm0-1h1v-1h-1v1zm0-1v-1h-.395l-.01 1H71zm0-1h1v-1h-1v1zm0-1v-1h-.375l-.01 1H71zm0-1h1v-1h-1v1zm0-1v-1h-.334l-.023 1H71zm0-1h1v-1h-1v1zm0-1v-1h-.287l-.023 1H71zm0-1h1v-1h-1v1zm0-1v-1h-.24l-.023 1H71zm0-1h1v-1h-1v1zm0-1v-1h-.193l-.023 1H71zm0-1h1v-1h-1v1zm0-1v-1h-.146l-.023 1H71zm0-1h1v-1h-1v1zm0-1v-1h-.1l-.023 1H71zm0-1h1v-1h-1v1zm0-1v-1h-.053l-.023 1H71zm0-1h1v-1h-1v1zm0-1v-1h-.004l-.025 1H71zm0-1h1v-1h-.98l-.02.793v.207zm1-1h1v-1h-1v1zm0-1v-1h-.934l-.023 1H72zm0-1h1v-1h-1v1zm0-1v-1h-.887l-.023 1H72zm0-1h1v-1h-1v1zm0-1v-1h-.84l-.023 1H72zm0-1h1v-1h-1v1zm0-1v-1h-.793l-.023 1H72zm0-1h1v-1h-1v1zm0-1v-1h-.746l-.023 1H72zm0-1h1v-1h-1v1zm0-1v-1h-.699l-.006.236-.018.764H72zm0-1h1v-1h-1v1zm0-1v-1h-.658l-.021 1H72zm0-1h1v-1h-1v1zm0-1v-1h-.615l-.021 1H72zm0-1h1v-1h-1v1zm0-1v-1h-.574l-.02 1H72zm0-1h1v-1h-1v1zm0-1v-1h-.461c-.032.272-.048.649-.066 1H72zm0-1h1v-1h-1v1zm0-1v-.924c-.069.172-.122.257-.254.787-.012.046-.015.091-.025.137H72zm1 1v1h1v-1h-1zm1 0h1v-1h-1v1zm1-1h1v-1h-1v1zm0-1v-1h-1v1h1zm-1-1v-1h-1v1h1zm-1 0h-.768c-.047.337-.126.802-.207 1H73v-1zm0-1v-1h-.641l-.033 1H73zm1 0h1v-1h-1v1zm1-1h1v-1h-1v1zm0-1v-1h-1v1h1zm-1-1v-1h-1v1h1zm-1 0h-.572l-.033 1H73v-1zm0-1v-1h-.557l-.004 1H73zm1 0h1v-1h-1v1zm1-1h1v-1h-1v1zm0-1v-1h-1v1h1zm-1-1v-1h-1v1h1zm-1 0h-.547l-.004 1H73v-1zm0-1v-1h-.406a4 4 0 0 0-.133.5l-.002.5H73zm1 0h1v-1h-1v1zm1-1h1v-1h-1v1zm0-1v-1h-1v1h1zm-1-1v-.504a4 4 0 0 0-.504.504H74zm1 0h1v-1h-1v1zm0-1v-.109a4 4 0 0 0-.408.109H75zm1 1v1h1v-1h-1zm0 2v1h1v-1h-1zm1 1v1h1v-1h-1zm1 0h1v-1h-1v1zm0 1v1h1v-1h-1zm-1 0h-1v1h1v-1zm-1 0v-1h-1v1h1zm0 2v1h1v-1h-1zm1 1v1h1v-1h-1zm1 0h1v-1h-1v1zm0 1v1h1v-1h-1zm-1 0h-1v1h1v-1zm-1 0v-1h-1v1h1zm0 2v1h1v-1h-1zm1 1v1h1v-1h-1zm1 0h1v-1h-1v1zm0 1v1h1v-1h-1zm-1 0h-1v1h1v-1zm-1 0v-1h-1v1h1zm0 2v1h1v-1h-1zm1 1v1h1v-1h-1zm0 1h-1v1h1v-1zm-1 1h-1v1h1v-1zm0 1v1h1v-1h-1zm1 1v1h1v-1h-1zm0 1h-1v1h1v-1zm-1 1h-1v1h1v-1zm0 1v1h1v-1h-1zm1 1v1h1v-1h-1zm0 1h-1v1h1v-1zm-1 1h-1v1h1v-1zm0 1v1h1v-1h-1zm1 1v1h1v-1h-1zm0 1h-1v1h1v-1zm-1 1h-1v1h1v-1zm0 1v1h1v-1h-1zm1 1v1h1v-1h-1zm0 1h-1v1h1v-1zm-1 1h-1v1h1v-1zm0 1v1h1v-1h-1zm0 1h-1v1h1v-1zm-1 1h-1v1h1v-1zm-1 0v-1h-1v1h1zm-1 0h-1v1h1v-1zm1-1h1v-1h-1v1zm1-2v-1h-1v1h1zm-1-1v-1h-1v1h1zm0-1h1v-1h-1v1zm1 0v1h1v-1h-1zm0-2v-1h-1v1h1zm-1-1v-1h-1v1h1zm0-1h1v-1h-1v1zm1 0v1h1v-1h-1zm0-2v-1h-1v1h1zm-1-1v-1h-1v1h1zm0-1h1v-1h-1v1zm1 0v1h1v-1h-1zm0-2v-1h-1v1h1zm-1-1v-1h-1v1h1zm0-1h1v-1h-1v1zm1 0v1h1v-1h-1zm0-2v-1h-1v1h1zm0-1h1v-1h-1v1zm-3 22v1h1v-1h-1zm1 1v1h1v-1h-1zm1 0h1v-1h-1v1zm1 0v1h1v-1h-1zm0 1h-1v1h1v-1zm-2 0h-1v1h1v-1zm-1 2v1h1v-1h-1zm1 1v1h1v-1h-1zm1 0h1v-1h-1v1zm1 0v1h1v-1h-1zm0 1h-1v1h1v-1zm-2 0h-1v1h1v-1zm-1 2v1h1v-1h-1zm1 1v1h1v-1h-1zm1 0h1v-1h-1v1zm1 0v1h1v-1h-1zm0 1h-1v1h1v-1zm-2 0h-1v1h1v-1zm-1 2v1h1v-1h-1zm1 1v1h1v-1h-1zm1 0h1v-1h-1v1zm1 0v1h1v-1h-1zm0 1h-1v1h1v-1zm-2 0h-1v1h1v-1zm-1 2v1h1v-1h-1zm1 1v1h1v-1h-1zm1 0h1v-1h-1v1zm1 0v1h1v-1h-1zm1 1v1h1v-1h-1zm0 1h-1v1h1v-1zm0 1v1h1v-1h-1zm1 1v1h1v-1h-1zm1 0h1v-1h-1v1zm1-1h1v-1h-1v1zm0-1v-1h-1v1h1zm0-1h1v-1h-1v1zm1-1h1v-1h-1v1zm1 0v1h1v-1h-1zm1 0h1v-1h-1v1zm1-1h1v-1h-1v1zm1 0v1h1v-1h-1zm1 1v1h1v-1h-1zm1 0h1v-1h-1v1zm1-1h1v-1h-1v1zm0-1v-1h-1v1h1zm1 0h1v-1h-1v1zm0 1v1h1v-1h-1zm1 1v1h1v-1h-1zm1 0h1v-1h-1v1zm1-1h1v-1h-1v1zm0-1v-1h-1v1h1zm1 0h1v-1h-1v1zm0 1v1h1v-1h-1zm1 1v1h1v-1h-1zm1 0h1v-1h-1v1zm1-1h1v-1h-1v1zm0-1v-1h-1v1h1zm1 0h1v-1h-1v1zm0 1v1h1v-1h-1zm1 1v1h1v-1h-1zm1 0h1v-1h-1v1zm1 0v1h1v-1h-1zm1 1v1h1v-1h-1zm0 1h-1v1h1v-1zm0 1v1h1v-1h-1zm1 1v1h1v-1h-1zm1 0h1v-1h-1v1zm1 0v1h1v-1h-1zm0 1h-1v1h1v-1zm-2 0h-1v1h1v-1zm-1 1h-1v1h1v-1zm0 1v1h1v-1h-1zm1 1v1h1v-1h-1zm1 0h1v-1h-1v1zm1 0v1h1v-1h-1zm1 1v1h1v-1h-1zm0 1h-1v1h1v-1zm0 1v1h1v-1h-1zm0 1h-1v1h1v-1zm-1 1h-1v1h1v-1zm-1 0v-1h-1v1h1zm-1 0h-1v1h1v-1zm-1 1h-.979l-.021.123v.877h1v-1zm0 1v1h1v-1h-1zm1 1v1h1v-1h-1zm1 0h1v-1h-1v1zm1 0v1h1v-1h-1zm0 1h-1v1h1v-1zm-2 0h-1v1h1v-1zm-1 1h-1v1h1v-1zm0 1v1h1v-1h-1zm1 1v1h1v-1h-1zm1 0h1v-1h-1v1zm1 0v1h1v-1h-1zm0 1h-1v1h1v-1zm-2 0h-1v1h1v-1zm-1 1h-1v1h1v-1zm0 1v1h1v-1h-1zm0 1h-1v1h1v-1zm-1 1h-1v1h1v-1zm-1 0v-1h-1v1h1zm-1 0h-1v1h1v-1zm-1 1h-1v1h1v-1zm0 1v1h1v-1h-1zm0 1h-1v1h1v-1zm-1 1h-1v1h1v-1zm-1 0v-1h-1v1h1zm-1 0h-1v1h1v-1zm-1 1h-1v1h1v-1zm-1 0v-1h-1v1h1zm-1-1v-1h-1v1h1zm-1 0h-1v1h1v-1zm-1 0v-1h-1v1h1zm-1-1v-1h-1v1h1zm0-1h1v-1h-1v1zm0-1v-1h-1v1h1zm-1-1v-1h-1v1h1zm-1 0h-1v1h1v-1zm-1 1h-1v1h1v-1zm0 1v1h1v-1h-1zm0 1h-1v1h1v-1zm-1 0v-1h-1v1h1zm0-2v-1h-1v1h1zm-1-1v-1h-1v1h1zm-1 0h-1v1h1v-1zm-1 0v-1h-1v1h1zm-1-1v-1h-1v1h1zm0-1h1v-1h-1v1zm0-1v-1h-1v1h1zm-1-1v-1h-1v1h1zm-1 0h-1v1h1v-1zm-1 1h-1v1h1v-1zm0 1v1h1v-1h-1zm0 1h-1v1h1v-1zm-1 1h-1v1h1v-1zm-1 0v-1h-1v1h1zm-1 0h-1v1h1v-1zm-1 0v-1h-1v1h1zm0-1h1v-1h-1v1zm2 0h1v-1h-1v1zm1-2v-1h-1v1h1zm-1-1v-1h-1v1h1zm-1 0h-1v1h1v-1zm-1 0v-1h-1v1h1zm0-1h1v-1h-1v1zm2 0h1v-1h-1v1zm1-1h1v-1h-1v1zm0-1v-1h-1v1h1zm-1-1v-1h-1v1h1zm-1 0h-1v1h1v-1zm-1 0v-1h-1v1h1zm0-1h1v-1h-1v1zm2 0h1v-1h-1v1zm1-1h1v-1h-1v1zm0-1v-1h-1v1h1zm-1-1v-1h-1v1h1zm-1 0h-1v1h1v-1zm0-1v-1h-1v1h1zm1 0h1v-1h-1v1zm1-1h1v-1h-1v1zm0-1v-1h-1v1h1zm-1-1v-1h-1v1h1zm-1 0h-1v1h1v-1zm0-1v-1h-1v1h1zm1 0h1v-1h-1v1zm1-1h1v-1h-1v1zm0-1v-1h-1v1h1zm-1-1v-1h-1v1h1zm-1 0h-1v1h1v-1zm0-1v-1h-1v1h1zm1 0h1v-1h-1v1zm1 0v1h1v-1h-1zm1 1v1h1v-1h-1zm0 2v1h1v-1h-1zm1 1v1h1v-1h-1zm1 0h1v-1h-1v1zm1-1h1v-1h-1v1zm0-1v-1h-1v1h1zm0-1h1v-1h-1v1zm1-1h1v-1h-1v1zm1 0v1h1v-1h-1zm1 0h1v-1h-1v1zm1-1h1v-1h-1v1zm0-1v-1h-1v1h1zm0-1h1v-1h-1v1zm1 0v1h1v-1h-1zm0 2v1h.898l.102-.023v-.977h-1zm0 1h-1v.639c.278-.173.594-.316 1-.434v-.205zm-2 1v.555l.529-.555H82zm-1 0h-1v1h1v-1zm-1 2v1h.34l.584-1H80zm0 1h-1v1h.83l.17-.367v-.633zm-1 1h-1v1h1v-1zm0 1v.789c.087-.224.249-.528.365-.789H79zm-2-1h-1v1h1v-1zm-1 0v-1h-1v1h1zm0 2v1h1v-1h-1zm1 1v1h1v-1h-1zm1 0h.76l-.004-.437c.044-.16.048-.301.131-.529.003-.009.012-.024.016-.033H78v1zm0 1v1h.908l-.139-.941c-.001-.009.001-.047 0-.059H78zm-1 0h-1v1h1v-1zm-1 0v-1h-1v1h1zm0 2v1h1v-1h-1zm1 1v1h1v-1h-1zm1 0h1v-1h-1v1zm1-1h.113l-.113-.418v.418zm0 1v1h.832l-.383-1H79zm0 1h-1v1h1v-1zm0 1v1h1v-1h-1zm1 0h.131l-.131-.48v.48zm0 1v1h.844c-.237-.414-.351-.696-.428-1H80zm0 1h-1v1h1v-1zm0 1v1h1v-1h-1zm1 0h.52c-.211-.261-.373-.503-.52-.734v.734zm-2-1v-1h-1v1h1zm-2-3h-1v1h1v-1zm-1 0v-1h-1v1h1zm0 2v1h1v-1h-1zm0 1h-1v1h1v-1zm4 3v1h1v-1h-1zm2 1h1v-1h-1v1zm1-1h.939a7.78 7.78 0 0 1-.939-.613v.613zm0 1v1h1v-1h-1zm1 0h1v-.496c-.364-.134-.684-.303-1-.475v.971zm2 0h1v-.008c-.374-.06-.671-.152-1-.23v.238zm1 0v1h1v-.889l-.965-.111H87zm1 1v1h1v-1h-1zm1 0h1v-.723l-1-.066v.789zm1 0v1h1v-1h-1zm1 0h1v-.682c-.312.005-.667-.015-1-.02v.701zm1 0v1h1v-1h-1zm1 0h1v-.809c-.022.003-.012.003-.035.006-.259.032-.641.04-.965.061v.742zm1 0v1h1v-1h-1zm1 0h1v-1h-1v1zm0-1v-.064c-.005.007-.039.059-.043.064H95zm1 0h1v-1h-1v1zm0-1v-.824l-.418.824H96zm-4 3h-1v1h1v-1zm0 1v1h1v-1h-1zm0 1h-1v1h1v-1zm-1 0v-1h-1v1h1zm-3-1v1h1v-1h-1zm6 1h1v-1h-1v1zm4-4h1v-1h-1v1zm1-2v-1h-1v1h1zm-1-1v-1h-.896l-.104.205v.795h1zm-1 0h-.402l-.508 1H97v-1zm1-1h1v-1h-1v1zm1 0v1h1v-1h-1zm0-2v-1h-.709l-.291.863v.137h1zm0-1h1v-1h-1v1zm0-1v-1h-.158l-.096.529c-.038.153-.103.315-.146.471h.4zm1-3v-1h-.791l-.062 1H100zm0-1h1v-1h-1v1zm0-1v-1h-.828c.029.291.032.653.041 1H100zm0-1h1v-1h-1v1zm0-1v-1h-1v1h1zm-1 0h-.002H99zm0-1v-1h-1v.35c.213.204.465.469.588.65H99zm3 4h1v-1h-1v1zm1-2v-1h-1v1h1zm-4-4v-1h-1v1h1zm-1-1v-1h-1v1h1zm-1 0h-1v.227c.258.187.345.197.178.008.121.193.395.498.602.766H97v-1zm-1 0v-1h-1v.34l.744.66H96zm-1-1v-1h-1v.516l.172.002.469.482H95zm0-1h1v-1h-1v1zm0-1v-1h-1v1h1zm0-1h1v-1h-1v1zm1 0v1h1v-1h-1zm0 2v1h1v-1h-1zm2 1h1v-1h-1v1zm1 0v1h1v-1h-1zm0-2v-1h-1v1h1zm-6-1h-1v1h1v-1zm-1 1h-1v1h1v-1zm0 1v.518l.961-.018H93v-.5h-1zm-1 0h-1v.557l1-.02v-.537zm0-1v-1h-1v1h1zm0-1h1v-1h-1v1zm-2 0h-1v1h1v-1zm-1 1h-1v1h1v-1zm0 1v.639l1-.062v-.576h-1zm-1 0h-1v.828l1-.125v-.703zm0-1v-1h-1v1h1zm0-1h1v-1h-1v1zm-6 0h-1v1h1v-1zm-6 1v-1h-1v1h1zm-2-1h-1v1h1v-1zm-1 26v1h1v-1h-1zm1 1v1h1v-1h-1zm0 1h-1v1h1v-1zm-1 1h-1v1h1v-1zm0 1v1h1v-1h-1zm-1 0h-1v1h1v-1zm0-1v-1h-1v1h1zm0-1h1v-1h-1v1zm9-2v1h1v-1h-1zm18 1h1v-1h-1v1zm1 0v1h1v-1h-1zm3-4h1v-1h-1v1zM197.461 99a4 4 0 0 0-.461.123v.377h1v-.439a4 4 0 0 0-.539-.061zm.539.5v1h1v-1h-1zm1 0h.361l-.361-.172v.172zm0 1v1h1v-1h-1zm1 0h.582a4 4 0 0 0-.582-.582v.582zm0 1v1h1v-1h-1zm1 1v1h.461v-.5a4 4 0 0 0-.057-.5H201zm0 1h-1v1h1v-1zm-1 1h-1v1h1v-1zm0 1v1h1v-1h-1zm1 1v1h.461v-1H201zm0 1h-1v1h1v-1zm-1 1h-1v1h1v-1zm0 1v1h1v-1h-1zm1 1v1h.461v-1H201zm0 1h-1v1h1v-1zm-1 1h-1v1h1v-1zm0 1v1h1v-1h-1zm1 1v1h.461v-1H201zm0 1h-1v1h1v-1zm-1 1h-1v1h1v-1zm0 1v1h1v-1h-1zm1 1v1h.461v-1H201zm0 1h-1v1h1v-1zm-1 1h-1v1h1v-1zm0 1v1h1v-1h-1zm1 1v1h.461v-1H201zm0 1h-1v1h1v-1zm-1 1h-1v1h1v-1zm0 1v1h1v-1h-1zm1 1v1h.461v-1H201zm0 1h-1v1h1v-1zm-1 1h-1v1h1v-1zm0 1v1h1v-1h-1zm1 1v1h.461v-1H201zm0 1h-1v1h1v-1zm-1 1h-1v1h1v-1zm0 1v1h1v-1h-1zm1 1v1h.461v-1H201zm0 1h-1v1h1v-1zm-1 1h-1v1h1v-1zm0 1v1h1v-1h-1zm1 1v1h.461v-1H201zm0 1h-1v1h1v-1zm-1 1h-1v1h1v-1zm0 1v1h1v-1h-1zm1 1v1h.461v-1H201zm0 1h-1v1h1v-1zm-1 1h-1v1h1v-1zm0 1v1h1v-1h-1zm1 1v1h.461v-1H201zm0 1h-1v1h1v-1zm-1 1h-1v1h1v-1zm0 1v1h1v-1h-1zm1 1v1h.461v-1H201zm0 1h-1v1h1v-1zm-1 1h-1v1h1v-1zm0 1v1h1v-1h-1zm1 1v1h.461v-1H201zm0 1h-1v1h1v-1zm-1 1h-1v1h1v-1zm0 1v1h1v-1h-1zm1 1v1h.461v-1H201zm0 1h-1v1h1v-1zm-1 1h-1v1h1v-1zm0 1v1h1v-1h-1zm1 1v1h.461v-1H201zm0 1h-1v1h1v-1zm-1 1h-1v1h1v-1zm0 1v1h1v-1h-1zm1 1v1h.461v-1H201zm0 1h-1v1h1v-1zm-1 1h-1v1h1v-1zm0 1v1h1v-1h-1zm1 1v1h1v-1h-1zm1 0h1v-1h-1v1zm1-1h1v-1h-1v1zm0-1v-1h-.428l-.572.379v.621h1zm0-1h1v-.945l-1 .662v.283zm1 0v1h1v-1h-1zm1 0h1v-1h-1v1zm0-1v-.648l-.92.648h.92zm1 0h1v-1h-1v1zm1-1h1v-1h-1v1zm0-1v-.062l-.088.063H207zm1 0h1v-1h-.672l-.328.23v.77zm1-1h1v-1h-.258l-.742.525v.475zm1-1h1v-.889l-1 .707v.182zm1 0v1h1v-1h-1zm1 0h1v-1h-1v1zm0-1v-.594l-.842.594H212zm1 1v1h1v-1h-1zm1 0h1v-1h-1v1zm1-1h1v-1h-1v1zm0-1v-1h-1v1h1zm-1-1v-.008.008zm1 0h1v-1h-.596l-.404.285v.715zm1-1h1v-1h-.18l-.82.58v.42zm1 0v1h1v-1h-1zm1 0h1v-1h-1v1zm1-1h1v-1h-1v1zm0-1v-.539l-.764.539H219zm1 0h1v-1h-1v1zm0-1v-.246l-.35.246h.35zm1 0h1v-1h-.934l-.066.047v.953zm1-1h1v-1h-.322a4 4 0 0 0-.541.244l-.137.096v.66zm1-1h1v-.41a4 4 0 0 0-1 .266v.145zm1 0v1h1v-1h-1zm1 1v1h1v-1h-1zm1 0h1v-.498a4 4 0 0 0-.703-.502H226v1zm1 0v1h1v-.314a4 4 0 0 0-.283-.51l-.187-.176H227zm1 1v1h.412a4 4 0 0 0-.248-1H228zm0 1h-1v1h1v-1zm0 1v1h.143a4 4 0 0 0 .266-1H228zm0 1h-1v1h.561a4 4 0 0 0 .439-.654v-.346zm-1 1h-1v1h.443l.342-.244.215-.193v-.562zm-1 0v-1h-1v1h1zm-1 0h-1v1h1v-1zm-1 1h-1v1h1v-1zm0 1v.74l1-.713v-.027h-1zm-1 0h-1v1h1v-1zm0 1v.453l.635-.453H223zm-1 0h-1v1h1v-1zm0 1v.166l.232-.166H222zm-1 0h-1v1h.828l.172-.121v-.879zm-1 1h-1v1h.426l.574-.41v-.59zm-1 1h-1v1h.021l.979-.697v-.303zm-1 1h-1v.729l1-.713v-.016zm-1 0v-1h-1v1h1zm-1 0h-1v1h1v-1zm0 1v.432l.617-.432H216zm-1 0h-1v1h1v-1zm0 1v.131l.186-.131H215zm-1-1v-1h-1v1h1zm-1 0h-1v1h1v-1zm-1 1h-1v1h1v-1zm0 1v1h.322l.678-.473v-.527h-1zm0 1h-1v.924l1-.697v-.227zm-1 0v-1h-1v1h1zm-1 0h-1v1h1v-1zm0 1v.623l.893-.623H210zm-1 0h-1v1h1v-1zm-1 1h-1v1h.994l.006-1zm-1 1h-1v1h.467l.533-.35v-.65zm-1 1h-1v.961l1-.654v-.307zm-1 0v-1h-1v1h1zm-1 0h-1v1h1v-1zm0 1v.615l.939-.615H204zm-1 0h-1v1h1v-1zm0 1v1h.945l-.873-.777.34-.223H203zm0 1h-1v1h1v-1zm0 1v1h1v-1h-1zm1 0h1v-.252c-.153-.083-.338-.143-.486-.242-.134-.09-.345-.305-.514-.457v.951zm1 0v1h1v-.752c-.189-.077-.327-.172-.496-.248H205zm1 1v1h1v-1h-1zm1 0h.82l-.82-.338v.338zm0 1v1h1v-1h-1zm1 0h1v-.459l-.748-.363-.252-.104v.926zm0 1v1h1v-1h-1zm1 1v1h1v-1h-1zm1 0h1v-1h-1v1zm1-1h1v-.004l-1-.484v.488zm1 0v1h1v-.66c-.14-.017-.273-.013-.469-.086-.088-.033-.408-.201-.523-.254H212zm1 1v1h1v-1h-1zm1 0h1v-.186c-.483-.151-.739-.2-1-.25v.436zm1 0v1h1v-.764a5.09 5.09 0 0 0-.502-.236H215zm1 1v1h1v-1h-1zm1 0h.604l-.604-.16v.16zm-1 1h-1v1h1v-1zm0 1v1h1v-1h-1zm1 1v1h1v-1h-1zm1 0h1v-1h-1v1zm1-1h1v-1h-1v1zm0-1v-.557l-1-.338v.895h1zm1 0h.557c-.008-.004-.011-.006-.02-.01-.192-.082-.347-.117-.537-.191v.201zm0 1v1h1v-1h-1zm1 1v1h1v-1h-1zm1 0h1v-.652a5 5 0 0 0-.504-.348H222v1zm1 0v1h1v-1h-1zm1 0h1v-.268l-1-.162v.43zm1 0v1h1v-.975l-.084-.025H225zm1 1v1h1v-1h-1zm1 0h1v-.195l-1-.467v.662zm1 0v1h1v-.592a4 4 0 0 0-.629-.408H228zm0 1h-1v1h1v-1zm0 1v1h1v-1h-1zm1 1v1h1v-1h-1zm1 0h.406a4 4 0 0 0-.256-1H230v1zm0 1v1h.145a4 4 0 0 0 .26-1H230zm-1 0h-1v1h1v-1zm-1 1h-1v1h1v-1zm0 1v1h.18a4 4 0 0 0 .82-.539v-.461h-1zm0 1h-1v.395a4 4 0 0 0 1-.334v-.061zm-1 0v-1h-1v1h1zm-1 0h-1v.145a4 4 0 0 0 1 .205v-.35zm-1 0v-1h-1v.795l.486.205H225zm-1-1v-1h-1v1h1zm-1 0h-1v.412l1 .133v-.545zm0-1v-1h-1v1h1zm-1-1v-1h-1v1h1zm-1 0h-1v1h1v-1zm-1 1h-1v.359c.268.142.614.297 1 .457v-.816zm-1 0v-1h-1v.748c.121.087.229.144.396.252H219zm-1-1v-1h-1v1h1zm-1 0h-.795l.795.232v-.232zm0-1v-1h-1v1h1zm-1 0h-1v.607l1 .33v-.937zm-1 0v-1h-1v1h1zm-1 0h-.607c.133.074.254.15.416.215.072.029.12.035.191.063v-.277zm1-1h1v-1h-1v1zm0-1v-1h-1v1h1zm-1-1v-1h-1v1h1zm-1 0h-1v1h1v-1zm-1 1h-1v1h1v-1zm0 1v.398l.598.088.402.285v-.771h-1zm-1 0h-.451l.451.139v-.139zm0-1v-1h-1v1h1zm-1-1v-1h-1v1h1zm-1 0h-1v.963l.084.037H209v-1zm-1 0v-1h-1v1h1zm-1 0h-.99l.99.504v-.504zm0-1v-1h-1v1h1zm-1 0h-1v.486c.282.125.669.336 1 .508v-.994zm-1 0v-1h-1v1h1zm-1 0h-.232l.232.092v-.092zm0-1v-1h-1v1h1zm-1 0h-1v.223l1 .449v-.672zm0-1v-1h-1v1h1zm-1-1v-1h-1v1h1zm-1 0h-1v1h1v-1zm-1 1h-1v1h1v-1zm0 1v1h1v-1h-1zm1 1v1h.461v-1H201zm0 1h-1v1h1v-1zm-1 1h-1v1h1v-1zm0 1v1h1v-1h-1zm1 1v1h.328a4 4 0 0 0 .133-.5v-.5H201zm0 1h-1v1h1v-1zm-1 1h-1v1h1v-1zm0 1v.426a4 4 0 0 0 .426-.426H200zm-1 0h-1v1h1v-1zm0 1v.088l.33-.088H199zm-1 0h-1v.377a4 4 0 0 0 .461.123 4 4 0 0 0 .539-.145v-.355zm-1 0v-1h-1v1h1zm-1 0h-.408a4 4 0 0 0 .408.109v-.109zm0-1v-1h-1v1h1zm-1 0h-.504a4 4 0 0 0 .504.504v-.504zm0-1v-1h-1v1h1zm-1-1v-1h-.539v.5a4 4 0 0 0 .133.5H194zm0-1h1v-1h-1v1zm1-1h1v-1h-1v1zm0-1v-1h-1v1h1zm-1-1v-1h-.539v1H194zm0-1h1v-1h-1v1zm1-1h1v-1h-1v1zm0-1v-1h-1v1h1zm-1-1v-1h-.539v1H194zm0-1h1v-1h-1v1zm1-1h1v-1h-1v1zm0-1v-1h-1v1h1zm-1-1v-1h-.539v1H194zm0-1h1v-1h-1v1zm1-1h1v-1h-1v1zm0-1v-1h-1v1h1zm-1-1v-1h-.555c-.124.318-.171.66-.24 1H194zm0-1h1v-1h-1v1zm1-1h1v-1h-1v1zm0-1v-1h-1v1h1zm-1-1v-1h-.539v1H194zm0-1h1v-1h-1v1zm1-1h1v-1h-1v1zm0-1v-1h-1v1h1zm-1-1v-1h-.539v1H194zm0-1h1v-1h-1v1zm1-1h1v-1h-1v1zm0-1v-1h-1v1h1zm-1-1v-1h-.539v1H194zm0-1h1v-1h-1v1zm1-1h1v-1h-1v1zm0-1v-1h-1v1h1zm-1-1v-1h-.539v1H194zm0-1h1v-1h-1v1zm1-1h1v-1h-1v1zm0-1v-1h-1v1h1zm-1-1v-1h-.539v1H194zm0-1h1v-1h-1v1zm1-1h1v-1h-1v1zm0-1v-1h-1v1h1zm-1-1v-1h-.539v1H194zm0-1h1v-1h-1v1zm1-1h1v-1h-1v1zm0-1v-1h-1v1h1zm-1-1v-1h-.539v1H194zm0-1h1v-1h-1v1zm1-1h1v-1h-1v1zm0-1v-1h-1v1h1zm-1-1v-1h-.539v1H194zm0-1h1v-1h-1v1zm1-1h1v-1h-1v1zm0-1v-1h-1v1h1zm-1-1v-1h-.539v1H194zm0-1h1v-1h-1v1zm1-1h1v-1h-1v1zm0-1v-1h-1v1h1zm-1-1v-1h-.539v1H194zm0-1h1v-1h-1v1zm1-1h1v-1h-1v1zm0-1v-1h-1v1h1zm-1-1v-1h-.539v1H194zm0-1h1v-1h-1v1zm1-1h1v-1h-1v1zm0-1v-1h-1v1h1zm-1-1v-1h-.539v1H194zm0-1h1v-1h-1v1zm1-1h1v-1h-1v1zm0-1v-1h-1v1h1zm-1-1v-1h-.539v1H194zm0-1h1v-1h-1v1zm1-1h1v-1h-1v1zm0-1v-1h-1v1h1zm-1-1v-1h-.539v1H194zm0-1h1v-1h-1v1zm1-1h1v-1h-1v1zm0-1v-1h-1v1h1zm-1-1v-1h-.539v1H194zm0-1h1v-1h-1v1zm1-1h1v-1h-1v1zm0-1v-1h-1v1h1zm-1-1v-1h-.539v1H194zm0-1h1v-1h-1v1zm1-1h1v-1h-1v1zm0-1v-1h-1v1h1zm-1-1v-1h-.539v1H194zm0-1h1v-1h-1v1zm1-1h1v-1h-1v1zm0-1v-1h-1v1h1zm-1-1v-1h-.406a4 4 0 0 0-.133.5v.5H194zm0-1h1v-1h-1v1zm1-1h1v-1h-1v1zm0-1v-.504a4 4 0 0 0-.504.504H195zm1 0h1v-1h-1v1zm0-1v-.109a4 4 0 0 0-.408.109H196zm0 2v1h1v-1h-1zm1 1v1h1v-1h-1zm1 0h1v-1h-1v1zm1 0v1h1v-1h-1zm0 1h-1v1h1v-1zm-2 0h-1v1h1v-1zm-1 0v-1h-1v1h1zm0 2v1h1v-1h-1zm1 1v1h1v-1h-1zm1 0h1v-1h-1v1zm1 0v1h1v-1h-1zm0 1h-1v1h1v-1zm-2 0h-1v1h1v-1zm-1 0v-1h-1v1h1zm0 2v1h1v-1h-1zm1 1v1h1v-1h-1zm1 0h1v-1h-1v1zm1 0v1h1v-1h-1zm0 1h-1v1h1v-1zm-2 0h-1v1h1v-1zm-1 0v-1h-1v1h1zm0 2v1h1v-1h-1zm1 1v1h1v-1h-1zm1 0h1v-1h-1v1zm1 0v1h1v-1h-1zm0 1h-1v1h1v-1zm-2 0h-1v1h1v-1zm-1 0v-1h-1v1h1zm0 2v1h1v-1h-1zm1 1v1h1v-1h-1zm1 0h1v-1h-1v1zm1 0v1h1v-1h-1zm0 1h-1v1h1v-1zm-2 0h-1v1h1v-1zm-1 0v-1h-1v1h1zm0 2v1h1v-1h-1zm1 1v1h1v-1h-1zm1 0h1v-1h-1v1zm1 0v1h1v-1h-1zm0 1h-1v1h1v-1zm-2 0h-1v1h1v-1zm-1 0v-1h-1v1h1zm0 2v1h1v-1h-1zm1 1v1h1v-1h-1zm1 0h1v-1h-1v1zm1 0v1h1v-1h-1zm0 1h-1v1h1v-1zm-2 0h-1v1h1v-1zm-1 0v-1h-1v1h1zm0 2v1h1v-1h-1zm1 1v1h1v-1h-1zm1 0h1v-1h-1v1zm1 0v1h1v-1h-1zm0 1h-1v1h1v-1zm-2 0h-1v1h1v-1zm-1 0v-1h-1v1h1zm0 2v1h1v-1h-1zm1 1v1h1v-1h-1zm1 0h1v-1h-1v1zm1 0v1h1v-1h-1zm0 1h-1v1h1v-1zm-2 0h-1v1h1v-1zm-1 0v-1h-1v1h1zm0 2v1h1v-1h-1zm1 1v1h1v-1h-1zm1 0h1v-1h-1v1zm1 0v1h1v-1h-1zm0 1h-1v1h1v-1zm-2 0h-1v1h1v-1zm-1 0v-1h-1v1h1zm0 2v1h1v-1h-1zm1 1v1h1v-1h-1zm1 0h1v-1h-1v1zm1 0v1h1v-1h-1zm0 1h-1v1h1v-1zm-2 0h-1v1h1v-1zm-1 0v-1h-1v1h1zm0 2v1h1v-1h-1zm1 1v1h1v-1h-1zm1 0h1v-1h-1v1zm1 0v1h1v-1h-1zm0 1h-1v1h1v-1zm-2 0h-1v1h1v-1zm-1 0v-1h-1v1h1zm0 2v1h1v-1h-1zm1 1v1h1v-1h-1zm1 0h1v-1h-1v1zm1 0v1h1v-1h-1zm0 1h-1v1h1v-1zm-2 0h-1v1h1v-1zm-1 0v-1h-1v1h1zm0 2v1h1v-1h-1zm1 1v1h1v-1h-1zm1 0h1v-1h-1v1zm1 0v1h1v-1h-1zm0 1h-1v1h1v-1zm-2 0h-1v1h1v-1zm-1 0v-1h-1v1h1zm0 2v1h1v-1h-1zm1 1v1h1v-1h-1zm1 0h1v-1h-1v1zm1 0v1h1v-1h-1zm0 1h-1v1h1v-1zm-2 0h-1v1h1v-1zm-1 0v-1h-1v1h1zm0 2v1h1v-1h-1zm1 1v1h1v-1h-1zm1 0h1v-1h-1v1zm1 0v1h1v-1h-1zm0 1h-1v1h1v-1zm-2 0h-1v1h1v-1zm-1 0v-1h-1v1h1zm0 2v1h1v-1h-1zm1 1v1h1v-1h-1zm1 0h1v-1h-1v1zm1 0v1h1v-1h-1zm0 1h-1v1h1v-1zm-2 0h-1v1h1v-1zm-1 0v-1h-1v1h1zm0 2v1h1v-1h-1zm1 1v1h1v-1h-1zm1 0h1v-1h-1v1zm1 0v1h1v-1h-1zm1 1v1h1v-1h-1zm0 1h-1v1h1v-1zm0 1v1h1v-1h-1zm1 1v1h1v-1h-1zm1 0h1v-1h-1v1zm1-1h1v-1h-1v1zm0-1v-1h-1v1h1zm0-1h1v-1h-1v1zm1-1h1v-1h-1v1zm1 0v1h1v-1h-1zm1 0h1v-1h-1v1zm1-1h1v-1h-1v1zm0-1v-1h-1v1h1zm0-1h1v-1h-1v1zm1-1h1v-1h-1v1zm1 0v1h1v-1h-1zm1 0h1v-1h-1v1zm1-1h1v-1h-1v1zm0-1v-1h-1v1h1zm1 0h1v-1h-1v1zm0 1v1h1v-1h-1zm0 1h-1v1h1v-1zm-1 1h-1v1h1v-1zm-2 0h-1v1h1v-1zm-1 2v1h1v-1h-1zm0 1h-1v1h1v-1zm-1 1h-1v1h1v-1zm-2 0h-1v1h1v-1zm-4 4h-1v1h1v-1zm-1 1h-1v1h1v-1zm0 1v1h1v-1h-1zm1 1v1h1v-1h-1zm1 1v1h1v-1h-1zm1 1v1h1v-1h-1zm1 0h1v-1h-1v1zm0 1v1h1v-1h-1zm1 1v1h1v-1h-1zm1 0h1v-1h-1v1zm1 0v1h1v-1h-1zm1 1v1h1v-1h-1zm0 1h-1v1h1v-1zm0 1v1h1v-1h-1zm-1-1v-1h-1v1h1zm-2-1h-1v1h1v-1zm-1 0v-1h-1v1h1zm-1-1v-1h-1v1h1zm-2-3h-1v1h1v-1zm-1 1h-1v1h1v-1zm0 1v1h1v-1h-1zm0 1h-1v1h1v-1zm-1 1h-1v1h1v-1zm-1 0v-1h-1v1h1zm-1 0h-1v1h1v-1zm-1 0v-1h-1v1h1zm0-1h1v-1h-1v1zm2 0h1v-1h-1v1zm1-2v-1h-1v1h1zm-1-1v-1h-1v1h1zm-1 0h-1v1h1v-1zm-1 0v-1h-1v1h1zm0-1h1v-1h-1v1zm2 0h1v-1h-1v1zm1 0v1h1v-1h-1zm0-2v-1h-1v1h1zm-1-1v-1h-1v1h1zm-1 0h-1v1h1v-1zm-1 0v-1h-1v1h1zm0-1h1v-1h-1v1zm2 0h1v-1h-1v1zm1 0v1h1v-1h-1zm0-2v-1h-1v1h1zm-2-1h-1v1h1v-1zm-1 0v-1h-1v1h1zm0 14v1h1v-1h-1zm1 1v1h1v-1h-1zm1 0h1v-1h-1v1zm1 0v1h1v-1h-1zm0 1h-1v1h1v-1zm-2 0h-1v1h1v-1zm-1 0v-1h-1v1h1zm0 2v1h1v-1h-1zm1 1v1h1v-1h-1zm1 0h1v-1h-1v1zm1 0v1h1v-1h-1zm0 1h-1v1h1v-1zm-2 0h-1v1h1v-1zm-1 0v-1h-1v1h1zm14-5h1v-1h-1v1zm1-1h1v-1h-1v1zm0-1v-1h-1v1h1zm0-1h1v-1h-1v1zm1 0v1h1v-1h-1zm0 2v1h1v-1h-1zm0 1h-1v1h1v-1zm2 0h1v-1h-1v1zm1 0v1h1v-1h-1zm1 1v1h1v-1h-1zm2 3h1v-1h-1v1zm1-1h1v-1h-1v1zm0-1v-1h-1v1h1zm0-1h1v-1h-1v1zm1 0v1h1v-1h-1zm0 2v1h1v-1h-1zm0 1h-1v1h1v-1zm2 0h1v-1h-1v1zm1-1h1v-1h-1v1zm0-1v-1h-1v1h1zm1 0h1v-1h-1v1zm0 1v1h1v-1h-1zm1 1v1h1v-1h-1zm1 0h1v-1h-1v1zm1 0v1h1v-1h-1zm0 1h-1v1h1v-1zm-2 0h-1v1h1v-1zm-1 0v-1h-1v1h1zm-9-7v-1h-1v1h1zm-1-18h1v-1h-1v1zm1-1h1v-1h-1v1zm0-1v-1h-1v1h1zm0-1h1v-1h-1v1zm1-1h1v-1h-1v1zm1 0v1h1v-1h-1zm1 0h1v-1h-1v1zm1-1h1v-1h-1v1zm0-1v-1h-1v1h1zm0-1h1v-1h-1v1zm1-1h1v-1h-1v1zm1 0v1h1v-1h-1zm1 0h1v-1h-1v1zm1-1h1v-1h-1v1zm0-1v-1h-1v1h1zm0-1h1v-1h-1v1zm1 0v1h1v-1h-1zm0 2v1h1v-1h-1zm0 1h-1v1h1v-1zm-1 1h-1v1h1v-1zm-2 0h-1v1h1v-1zm-1 2v1h1v-1h-1zm0 1h-1v1h1v-1zm-1 1h-1v1h1v-1zm-2 0h-1v1h1v-1zm9-5h1v-1h-1v1zm1-2v-1h-1v1h1zm-10 3h-1v1h1v-1zM73 99.996a4 4 0 0 0-.137.504H73v-.504zm169.049 28.025l-.049.016v.463h1v-.389a4 4 0 0 0-.951-.09zm.951.479v1h1v-1h-1zm1 0h.232l-.232-.123v.123zm0 1v1h1v-1h-1zm1 1v1h1v-1h-1zm1 0h.975l-.975-.785v.785zm0 1v1h1v-1h-1zm1 0h1v-.176l-1-.805v.98zm1 0v1h1v-.371l-.781-.629H248zm0 1h-1v1h1v-1zm0 1v1h1v-1h-1zm1 1v1h1v-1h-1zm1 0h1v-.762l-.295-.238H250v1zm1 0v1h1v-.957l-.053-.043H251zm1 1v1h1v-1h-1zm1 0h.219l-.219-.164v.164zm-1 1h-1v1h1v-1zm0 1v1h1v-1h-1zm1 1v1h1v-1h-1zm1 0h1v-1h-1v1zm1-1h.869l-.869-.654v.654zm0 1v1h1v-1h-1zm1 0h1v-.146l-1-.754v.9zm1 0v1h1v-.391l-.807-.609H257zm1 1v1h1v-.637l-.48-.363H258zm1 1v1h1v-.955l-.068-.045H259zm1 1v1h1v-1h-1zm1 1v1h1v-1h-1zm1 0h1v-.102l-1-.568v.67zm1 0v1h1v-.6l-.82-.4H263zm1 1v1h1v-1h-1zm1 0h.385l-.385-.166v.166zm-1 1h-1v1h1v-1zm0 1v1h1v-1h-1zm1 1v1h1v-1h-1zm1 0h1v-1h-1v1zm1-1h1v-.965l-.094-.035H267v1zm0-1v-.34l-.672-.252c-.096-.035-.23-.106-.328-.143v.734h1zm1 1v1h1v-1h-1zm1 1v1h1v-1h-1zm1 0h.975c-.091-.13-.178-.29-.271-.387-.263-.273-.48-.417-.703-.58v.967zm0 1v1h1v-1h-1zm1 0h.504c-.149-.372-.315-.69-.504-.965v.965zm0 1v1h.898c.003-.335-.03-.663-.1-1H271zm0 1h-1v1h1v-1zm0 1v1h.379a4.9 4.9 0 0 0 .396-1H271zm0 1h-1v1h.613c.123-.123.252-.27.387-.434v-.566zm-1 0v-1h-1v1h1zm-1 0h-1v1h1v-1zm-1 1h-1v1h1v-1zm0 1v1h.188l.813-.598v-.402h-1zm0 1h-1v1h.152l.475-.543c.126-.158.003-.036.166-.166l.207-.152v-.139zm-1 1h-1v.938l.18-.109c.325-.216.587-.465.82-.695v-.133zm-1 0v-1h-1v1h1zm-1 0h-1v1h1v-1zm-1 1h-1v1h1v-1zm0 1v.277c.105-.124.167-.214.191-.277H264zm-1 0h-1v1h1v-1zm0 1v.111l.143-.111H263zm-1 0h-1v1h.617l.383-.217v-.783zm-1 1h-1v.535c.267-.028.55-.094 1-.258v-.277zm-1 0v-1h-1v1h1zm-1 0h-1v1h.549l.451-.199v-.801zm-1 0v-1h-1v1h1zm-1 0h-1v1h1v-1zm-1 1h-1v1h1v-1zm0 1v.564l.777-.564H256zm-1 0h-1v1h1v-1zm0 1v.234l.371-.234H255zm-1 0h-1v1h.789l.211-.133v-.867zm-1 1h-1v1h.102l.678-.361L253 164v-.5zm-1 1h-1v.586l1-.531v-.055zm-1 0v-1h-1v1h1zm-1-1v-1h-1v1h1zm-1 0h-1v1h1v-1zm-1 1h-1v1h1v-1zm0 1v1h.348l.652-.348v-.652h-1zm0 1h-1v.688l1-.504v-.184zm-1 0v-1h-1v1h1zm-1 0h-1v1h1v-1zm0 1v.191l.379-.191H246zm-1 0h-1v1h.393l.607-.307v-.693zm-1 1h-1v.701l1-.504v-.197zm-1 0v-1h-1v1h1zm-1-1v-1h-1v1h1zm-1 0h-1v1h1v-1zm-1 1h-1v1h1v-1zm0 1v.42a4 4 0 0 0 1-.086v-.334h-1zm-1 0h-.258l.258.086v-.086zm0-1v-1h-1v1h1zm-1-1v-1h-1v1h1zm-1 0h-.176l.059.289.117.133v-.422zm0-1v-1h-.447a4 4 0 0 0 .066 1H237zm1 0h1v-1h-1v1zm1-1h1v-1h-1v1zm0-1v-1h-1v1h1zm-1-1v-.482a4 4 0 0 0-.545.482H238zm1 0h1v-1h-1v1zm0-1v-.244l-.328.166-.088.078H239zm1 0h1v-1h-.498l-.502.252v.748zm1 0v1h1v-1h-1zm1 0h1v-1h-1v1zm1-1h1v-1h-1v1zm0-1v-.26l-.514.26H243zm1 0h1v-1h-.531l-.469.236v.764zm1-1h1v-.812l-1 .531v.281zm1 0v1h1v-1h-1zm1 0h1v-1h-1v1zm0-1v-.344l-.648.344H247zm1 0h1v-1h-.766l-.234.125v.875zm1 0v1h1v-1h-1zm1 0h1v-1h-1v1zm1-1h1v-1h-1v1zm0-1v-.697c-.235.17-.69.435-1 .637v.061h1zm1 0h1v-1h-1v1zm0-1v-.414l-.578.414H252zm1 0h1v-1h-1v1zm0-1v-.074l-.129.074H253zm1 0h1v-1h-.412c-.202.102-.39.232-.588.342v.658zm1-1h1v-.602l-1 .418v.184zm1 0v1h1v-1h-1zm1 1v1h1v-1h-1zm1 0h1v-1h-1v1zm1-1h1v-1h-1v1zm0-1v-1h-.234l-.766.648v.352h1zm0-1h1v-.928c-.162.094-.293.16-.605.395-.187.14-.24.209-.395.334v.199zm1 0v1h1v-1h-1zm1 0h1v-1h-1v1zm0-1v-1h-1v.285l.791.412-.678.303H261zm-1-1v-1h-1v.764l.453.236H260zm-1-1v-1h-1v1h1zm-1-1v-1h-1v1h1zm-1 0h-.939l.939.598v-.598zm0-1v-1h-1v1h1zm-1 0h-1v.324l1 .637v-.961zm-1 0v-1h-1v.625l.516.375H255zm0-1h1v-1h-1v1zm0-1v-1h-1v1h1zm-1-1v-1h-1v1h1zm-1 0h-1v1h1v-1zm-1 1h-.229l.229.166v-.166zm0-1v-1h-1v1h1zm-1 0h-.541l.541.42v-.42zm0-1v-1h-1v1h1zm-1 0h-.83l.83.645v-.645zm1-1h1v-1h-1v1zm0-1v-1h-1v1h1zm-1-1v-1h-1v1h1zm-1 0h-1v1h1v-1zm-1 1h-1v.293l.881.707H248v-1zm0 1v.094l1 .775v-.869h-1zm-1-1v-1h-1v.488l.635.512H247zm-1-1v-1h-1v.682l.395.318H246zm-1-1v-1h-1v.877l.154.123H245zm-1-1v-1h-1v1h1zm-1 0h-.088l.088.07v-.07zm0-1v-1h-1v1h1zm-1-1v-1h-1v1h1zm-1 0h-.568l.568.459v-.459zm0-1v-1h-1v1h1zm-1 0h-.498a4 4 0 0 0 .438.604l.061.049v-.652zm0-1v-1h-1v1h1zm-1 0h-.221l.221.305v-.305zm0-1v-1h-.473a4 4 0 0 0 .104 1H239zm0-1h1v-1h-1v1zm0-1v-.221l-.1.221h.1zm1 0h1v-1h-1v1zm0-1v-.555a4 4 0 0 0-.643.533l-.01.021H240zm1 1v1h1v-1h-1zm1 0h1v-1h-1v1zm1 0v1h1v-1h-1zm1 1v1h1v-1h-1zm0 1h-1v1h1v-1zm0 1v1h1v-1h-1zm1 1v1h1v-1h-1zm1 0h1v-1h-1v1zm1 0v1h1v-1h-1zm1 1v1h1v-1h-1zm0 1h-1v1h1v-1zm0 1v1h1v-1h-1zm0 1h-1v1h1v-1zm-1 0v-1h-1v1h1zm0-2v-1h-1v1h1zm-2-1h-1v1h1v-1zm-1 0v-1h-1v1h1zm-1-1v-1h-1v1h1zm0-2v-1h-1v1h1zm-2-1h-1v1h1v-1zm9 7h1v-1h-1v1zm1 0v1h1v-1h-1zm1 1v1h1v-1h-1zm0 2v1h1v-1h-1zm2 1h1v-1h-1v1zm1-1h1v-1h-1v1zm0-1v-1h-1v1h1zm1 0h1v-1h-1v1zm0 1v1h1v-1h-1zm1 1v1h1v-1h-1zm1 0h1v-1h-1v1zm1 0v1h1v-1h-1zm1 1v1h1v-1h-1zm0 1h-1v1h1v-1zm0 1v1h1v-1h-1zm1 1v1h1v-1h-1zm1 0h1v-1h-1v1zm1 0v1h1v-1h-1zm1 1v1h1v-1h-1zm0 1h-1v1h1v-1zm0 1v1h1v-1h-1zm1 1v1h1v-1h-1zm1 0h1v-1h-1v1zm1-1h1v-1h-1v1zm0-1v-1h-1v1h1zm0-1h1v-1h-1v1zm1 0v1h1v-1h-1zm0 2v1h1v-1h-1zm0 1h-1v1h1v-1zm-1 1h-1v1h1v-1zm-2 0h-1v1h1v-1zm-1 1h-1v1h1v-1zm0 1v1h1v-1h-1zm0 1h-1v1h1v-1zm-1 1h-1v1h1v-1zm-1 0v-1h-1v1h1zm-1 0h-1v1h1v-1zm-1 1h-1v1h1v-1zm0 1v1h1v-1h-1zm-1 0h-1v1h1v-1zm0-1v-1h-1v1h1zm0-1h1v-1h-1v1zm1-1h1v-1h-1v1zm2 0h1v-1h-1v1zm1-2v-1h-1v1h1zm0-1h1v-1h-1v1zm0-1v-1h-1v1h1zm0-2v-1h-1v1h1zm-2-1h-1v1h1v-1zm-1 0v-1h-1v1h1zm-1-1v-1h-1v1h1zm0-2v-1h-1v1h1zm-2-1h-1v1h1v-1zm-1 0v-1h-1v1h1zm1 12h-1v1h1v-1zm-1 1h-1v1h1v-1zm0 1v1h1v-1h-1zm0 1h-1v1h1v-1zm-1 1h-1v1h1v-1zm-1 0v-1h-1v1h1zm-1 0h-1v1h1v-1zm-1 1h-1v1h1v-1zm0 1v1h1v-1h-1zm0 1h-1v1h1v-1zm-1 0v-1h-1v1h1zm0-2v-1h-1v1h1zm0-1h1v-1h-1v1zm1-1h1v-1h-1v1zm2 0h1v-1h-1v1zm1-2v-1h-1v1h1zm0-1h1v-1h-1v1zm-6 4h-1v1h1v-1zm-1 1h-1v1h1v-1zm0 1v1h1v-1h-1zm0 1h-1v1h1v-1zm-1 1h-1v1h1v-1zm-1 0v-1h-1v1h1zm-1 0h-1v1h1v-1zm-1 1h-1v1h1v-1zm0 1v1h1v-1h-1zm0 1h-1v1h1v-1zm-1 0v-1h-1v1h1zm0-2v-1h-1v1h1zm0-1h1v-1h-1v1zm1-1h1v-1h-1v1zm2 0h1v-1h-1v1zm-5 1h-1v1h1v-1zm-1 2v1h1v-1h-1zm0 1h-1v1h1v-1zm26-12h1v-1h-1v1zm-3-10v-1h-1v1h1zm-12-8v-1h-1v1h1zm-192-8.451a4 4 0 0 0-1 .373v.078h1v-.451zm0 .451v1h1v-1h-1zm1 0h1v-.111a4 4 0 0 0-.881-.334l-.119-.004v.449zm0 1v1h1v-1h-1zm1 1v1h1v-1h-1zm1 0h1v-.314a4 4 0 0 0-.283-.51l-.187-.176H62v1zm1 0v1h.412a4 4 0 0 0-.248-1H63zm0 1h-1v1h1v-1zm0 1v1h.143a4 4 0 0 0 .266-1H63zm0 1h-1v1h.561a4 4 0 0 0 .439-.654v-.346zm-1 1h-1v1h.455l.33-.244.215-.193v-.562zm-1 1h-1v1h.1l.9-.664v-.336zm-1 1h-1v.811l1-.738v-.072zm-1 0v-1h-1v1h1zm-1-1v-1h-1v1h1zm-1 0h-1v1h1v-1zm-1 1h-1v1h1v-1zm0 1v1h1v-1h-1zm1 1v.287l.389-.287H57zm-1 0h-1v1h1v-1zm0 1v.023l.033-.023H56zm-1 0h-1v1h.697l.234-.187.068-.051v-.762zm-1 0v-1h-1v1h1zm-1 0h-1v1h1v-1zm-1 1h-1v1h1v-1zm0 1v1h.207l.793-.637v-.363h-1zm0 1h-1v.955l1-.789v-.166zm-1 0v-1h-1v1h1zm-1 0h-1v1h1v-1zm0 1v.721l.941-.721H50zm-1 0h-1v1h1v-1zm-1 1h-1v1h1v-1zm0 1v.25l.326-.25H48zm-1 0h-1v1h1v-1zm0 1v.004-.004zm-1 0h-1v1h.563l.438-.303v-.697zm-1 1h-1v1h.117l.883-.611v-.389zm-1 1h-1v.773l1-.691v-.082zm-1 0v-1h-1v1h1zm-1-1v-1h-1v1h1zm-1 0h-1v1h1v-1zm-1 1h-1v1h1v-1zm0 1v1h1v-1h-1zm1 1v.168l.24-.168H41zm-1 0h-1v1h.813l.188-.131v-.869zm-1 1h-1v1h.385l.615-.43v-.57zm-1 0v-1h-1v1h1zm-1 0h-1v1h1v-1zm-1 1h-1v1h1v-1zm0 1v1h1v-1h-1zm1 1v1h1v-1h-1zm1 0h.816l-.4-.182c-.231-.116-.282-.179-.416-.26v.441zm0 1v1h1v-1h-1zm1 0h1v-.465l-1-.453v.918zm1 0v1h1v-1h-1zm1 0h.07l-.07-.027v.027zm-1 1h-1v1h1v-1zm0 1v1h1v-1h-1zm1 1v1h1v-1h-1zm1 0h1v-1h-1v1zm1-1h1v-.971l-.1-.029H43v1zm0-1v-.26c-.019-.007-.021-.005-.041-.012l-.959-.369v.641h1zm1 1v1h1v-1h-1zm1 1v1h1v-1h-1zm1 0h1v-1h-1v1zm1-1h.574c-.23-.073-.38-.097-.574-.148v.148zm0 1v1h1v-1h-1zm1 0h1v-.434l-1-.414v.848zm1 0v1h1v-1h-1zm1 0h.045l-.045-.02v.02zm0 1v1h1v-1h-1zm1 0h1v-.221l-.273-.074c-.302-.101-.48-.204-.727-.305v.6zm1 0v1h1v-.947l-.195-.053H52zm0 1h-1v1h1v-1zm0 1v1h1v-1h-1zm1 1v1h1v-1h-1zm1 0h1v-1h-1v1zm1-1h1v-1h-1v1zm0-1v-.398l-1-.273v.672h1zm1 0h.736l-.736-.17v.17zm0 1v1h1v-1h-1zm1 1v1h1v-1h-1zm1 0h1v-1h-1v1zm1-1h1v-.174a4 4 0 0 0-.672-.23L59 161.02v.48zm1 0v1h1v-.576a4 4 0 0 0-.643-.424H60zm1 1v1h1v-.342a4 4 0 0 0-.42-.658H61zm1 1v1h.404a4 4 0 0 0-.258-1H62zm-1 0h-1v1h1v-1zm-1 1h-1v1h1v-1zm0 1v1h1v-1h-1zm1 1v1h.514a4 4 0 0 0 .486-.932v-.068h-1zm1 0h.035a4 4 0 0 0 .33-.633l.039-.367H62v1zm-1 1h-1v1h.156a4 4 0 0 0 .844-.537v-.463zm-1 1h-1v.344a4 4 0 0 0 1-.244v-.1zm-1 0v-1h-1v1h1zm-1-1v-1h-1v1h1zm-1 0h-1v1h1v-1zm-1 1h-.184l.184.041v-.041zm0-1v-1h-1v1h1zm-1 0h-1v.588l1 .227v-.814zm-1 0v-1h-1v1h1zm-1 0h-1v.074l1 .277v-.352zm-1 0v-1h-1v.797l.734.203H52zm-1-1v-1h-1v1h1zm-1 0h-1v.219l.195.076c.241.08.551.145.805.223v-.518zm-1 0v-1h-1v.826l.443.174H49zm-1-1v-1h-1v1h1zm-1 0h-1v.01l1 .424v-.434zm0-1v-1h-1v1h1zm-1-1v-1h-1v1h1zm-1 0h-1v1h1v-1zm-1 1h-1v.084l1 .287v-.371zm-1 0v-1h-1v.783l.719.217H43zm-1-1v-1h-1v1h1zm-1 0h-1v.158l.297.113.703.211v-.482zm-1 0v-1h-1v.773l.59.227H40zm-1-1v-1h-1v1h1zm-1 0h-.902l.902.389v-.389zm1-1h1v-1h-1v1zm0-1v-1h-1v1h1zm-1-1v-1h-1v1h1zm-1 0h-1v1h1v-1zm-1 1h-1v1h1v-1zm0 1v.502l1 .453v-.955h-1zm-1 0h-.102l.102.047v-.047zm0-1v-1h-1v1h1zm-1-1v-1h-1v1h1zm-1 0h-1v.408c.32.212.669.373 1 .559v-.967zm-1 0v-1h-1v.654l.459.346H32zm-1-1v-1h-1v.686l.305.314H31zm0-1h1v-1h-1v1zm0-1v-1h-1v1h1zm-1-1v-1h-1v1h1zm-1 0h-.639c.112.35.247.682.41 1H29v-1zm0-1v-1h-.91l-.025.432c.006.192.046.379.072.568H29zm1 0h1v-1h-1v1zm1-1h1v-1h-1v1zm0-1v-1h-1v1h1zm-1-1v-1h-.975c-.009.016-.016.037-.025.053v.947h1zm-1 0h-.441c-.131.323-.257.635-.338 1H29v-1zm1-1h1v-1h-1v1zm1-1h1v-1h-1v1zm0-1v-.393c-.134.121-.262.263-.393.393H31zm1 0h1v-1h-1v1zm0-1v-.189l-.238.189H32zm1 0h1v-1h-.98l-.02.016v.984zm1-1h1v-1h-.564l-.436.307v.693zm1-1h1v-1h-.141l-.859.604v.396zm1-1h1v-.803l-1 .703v.1zm0 1v1h1v-1h-1zm1 1v1h1v-1h-1zm1 0h1v-1h-1v1zm1-1h1v-1h-1v1zm0-1v-1h-1v1h1zm-1-1v-.502l-.719.502H38zm1 0h1v-1h-1v1zm0-1v-.193l-.279.193H39zm1 0h1v-1h-.83l-.17.117v.883zm1 0v1h1v-1h-1zm1 0h1v-1h-1v1zm1-1h1v-1h-1v1zm0-1v-.994l-.547.418-.453.313v.264h1zm1 0h1v-1h-1v1zm0-1v-.762l-.994.762H44zm1 0h1v-1h-1v1zm0-1v-.527l-.687.527H45zm1 0h1v-1h-1v1zm1-1h1v-1h-1v1zm0-1v-.08l-.1.08h.1zm1 0h1v-1h-.854l-.146.117v.883zm1-1h1v-1h-.607l-.393.316v.684zm1-1h1v-1h-.32l-.68.514v.486zm1-1h1v-.998l-1 .756v.242zm1 0v1h1v-1h-1zm1 1v1h1v-1h-1zm1 0h1v-1h-1v1zm1-1h1v-1h-1v1zm0-1v-1h-1v1h1zm-1-1v-.496l-.676.496H54zm1 0h1v-1h-1v1zm0-1v-.217l-.301.217H55zm1 0h1v-1h-.912l-.088.063v.938zm1 0v1h1v-1h-1zm1 0h1v-1h-1v1zm1 0v1h1v-1h-1zm1 1v1h1v-1h-1zm0 1h-1v1h1v-1zm0 1v1h1v-1h-1zm0 1h-1v1h1v-1zm-1 0v-1h-1v1h1zm0-2v-1h-1v1h1zm-2-1h-1v1h1v-1zm-1 2v1h1v-1h-1zm0 1h-1v1h1v-1zm-1 1h-1v1h1v-1zm-2 0h-1v1h1v-1zm-1 1h-1v1h1v-1zm0 1v1h1v-1h-1zm0 1h-1v1h1v-1zm-1 1h-1v1h1v-1zm-1 0v-1h-1v1h1zm-1 0h-1v1h1v-1zm-1 1h-1v1h1v-1zm0 1v1h1v-1h-1zm0 1h-1v1h1v-1zm-1 1h-1v1h1v-1zm-1 0v-1h-1v1h1zm-1 0h-1v1h1v-1zm-1 1h-1v1h1v-1zm0 1v1h1v-1h-1zm0 1h-1v1h1v-1zm-1 0v-1h-1v1h1zm0-2v-1h-1v1h1zm0-1h1v-1h-1v1zm1-1h1v-1h-1v1zm2 0h1v-1h-1v1zm1-2v-1h-1v1h1zm0-1h1v-1h-1v1zm1-1h1v-1h-1v1zm2 0h1v-1h-1v1zm1-2v-1h-1v1h1zm0-1h1v-1h-1v1zm-10 8h-1v1h1v-1zm-1 2v1h1v-1h-1zm0 1h-1v1h1v-1zm-1 1h-1v1h1v-1zm-2 0h-1v1h1v-1zm-1 1h-1v1h1v-1zm0 1v1h1v-1h-1zm0 1h-1v1h1v-1zm-1 1h-1v1h1v-1zm-1 0v-1h-1v1h1zm-1 0h-1v1h1v-1zm-1 0v-1h-1v1h1zm0-1h1v-1h-1v1zm2 0h1v-1h-1v1zm1-2v-1h-1v1h1zm0-1h1v-1h-1v1zm-3 6v1h1v-1h-1zm1 1v1h1v-1h-1zm1 0h1v-1h-1v1zm1 0v1h1v-1h-1zm1 1v1h1v-1h-1zm0 1h-1v1h1v-1zm0 1v1h1v-1h-1zm0 1h-1v1h1v-1zm-1 0v-1h-1v1h1zm0-2v-1h-1v1h1zm-2-1h-1v1h1v-1zm-1 0v-1h-1v1h1zm0 2v1h1v-1h-1zm6 1h1v-1h-1v1zm1 0v1h1v-1h-1zm1 1v1h1v-1h-1zm0 2v1h1v-1h-1zm2 1h1v-1h-1v1zm1-1h1v-1h-1v1zm0-1v-1h-1v1h1zm0-1h1v-1h-1v1zm1 0v1h1v-1h-1zm0 2v1h1v-1h-1zm0 1h-1v1h1v-1zm2 0h1v-1h-1v1zm1-1h1v-1h-1v1zm0-1v-1h-1v1h1zm1 0h1v-1h-1v1zm0 1v1h1v-1h-1zm1 1v1h1v-1h-1zm1 0h1v-1h-1v1zm1 0v1h1v-1h-1zm1 1v1h1v-1h-1zm0 1h-1v1h1v-1zm0 1v1h1v-1h-1zm-1-1v-1h-1v1h1zm-2-1h-1v1h1v-1zm-1 0v-1h-1v1h1zm6 3h1v-1h-1v1zm1-1h1v-1h-1v1zm0-1v-1h-1v1h1zm0-1h1v-1h-1v1zm1 0v1h1v-1h-1zm0 2v1h1v-1h-1zm2 1h1v-1h-1v1zm1 0v1h1v-1h-1zm0-2v-1h-1v1h1zm0-1h1v-1h-1v1zm-21-13h1v-1h-1v1zm16-12h1v-1h-1v1zm187-10.154a4 4 0 0 0-.463.154H241v-.154zm-188 3.398l-.998.756H53v-.756zM142 134v.5h1v-.5h-1zm1 .5v1h1v-1h-1zm1 0h1v-.172a4 4 0 0 0-1-.268v.439zm1 0v1h1v-.582a4 4 0 0 0-.639-.418H145zm1 1v1h1v-.338a4 4 0 0 0-.418-.662H146zm1 1v1h.404a4 4 0 0 0-.258-1H147zm0 1h-1v1h1v-1zm0 1v1h.059a4 4 0 0 0 .27-1H147zm0 1h-1v1h.426a4 4 0 0 0 .574-.777v-.223zm-1 0v-1h-1v1h1zm-1 0h-1v1h1v-1zm-1 1h-1v1h1v-1zm0 1v.355a4 4 0 0 0 1-.268v-.088h-1zm-1 0h-1v.5h1v-.5zm0-1v-1h-1v1h1zm-1-1v-1h-1v1h1zm-1 0h-1v1h1v-1zm-1 1h-1v.504a4 4 0 0 0 .592.496H140v-1zm0 1v.109a4 4 0 0 0 1 .268v-.377h-1zm-1-1v-1h-1v.504a4 4 0 0 0 .496.496H139zm-1-1v-1h-.406a4 4 0 0 0 .27 1H138zm0-1h1v-1h-1v1zm1-1h1v-1h-1v1zm0-1v-1h-.504a4 4 0 0 0-.496.496v.504h1zm0-1h1v-1h-.408a4 4 0 0 0-.592.496v.504zm1-1h1v-.377a4 4 0 0 0-1 .268v.109zm1 0v1h1v-1h-1zm1 1v1h1v-1h-1zm1 1v1h1v-1h-1zm1 0h1v-1h-1v1zm0 1v1h1v-1h-1zm0 1h-1v1h1v-1zm-1 0v-1h-1v1h1zm-2-3h-1v1h1v-1zm-1 2v1h1v-1h-1zm0 1h-1v1h1v-1zm114-2.41v.41h.543l-.543-.41zM58 137.5v.549l.744-.549H58zm-16 12v.467l.672-.467H42zm101 1.561v.439h1v-.172a4 4 0 0 0-1-.268zm1 .439v1h1v-.582a4 4 0 0 0-.639-.418H144zm0 1h-1v1h1v-1zm0 1v1h1v-1h-1zm1 1v1h1v-1h-1zm1 0h.404a4 4 0 0 0-.258-1H146v1zm0 1v1h.459l.002-1H146zm-1 0h-1v1h1v-1zm-1 1h-1v1h1v-1zm0 1v1h1v-1h-1zm1 1v1h1v-1h-1zm1 0h.457v-1H146v1zm0 1v1h.453l.002-1H146zm-1 0h-1v1h1v-1zm-1 1h-1v1h1v-1zm0 1v1h1v-1h-1zm1 1v1h1v-1h-1zm1 0h.451l.002-1H146v1zm0 1v1h.449v-1H146zm-1 0h-1v1h1v-1zm-1 1h-1v1h1v-1zm0 1v1h1v-1h-1zm1 1v1h1v-1h-1zm1 0h.447v-1H146v1zm0 1v1h.443l.002-1H146zm-1 0h-1v1h1v-1zm-1 1h-1v1h1v-1zm0 1v1h1v-1h-1zm1 1v1h1v-1h-1zm1 0h.439l.004-1H146v1zm0 1v1h.414l.014-1H146zm-1 0h-1v1h1v-1zm-1 1h-1v1h1v-1zm0 1v1h1v-1h-1zm1 1v1h1v-1h-1zm1 0h.389l.012-1h-.4v1zm0 1v1h.363l.012-1H146zm-1 0h-1v1h1v-1zm-1 1h-1v1h1v-1zm0 1v1h1v-1h-1zm1 1v1h1v-1h-1zm1 0h.338l.012-1H146v1zm0 1v1h.313l.012-1H146zm-1 0h-1v1h1v-1zm-1 1h-1v1h1v-1zm0 1v1h1v-1h-1zm1 1v1h1v-1h-1zm1 0h.268l.025-.545.006-.455H146v1zm0 1v1h.176l.047-1H146zm-1 0h-1v1h1v-1zm-1 1h-1v1h1v-1zm0 1v1h1v-1h-1zm1 1v1h.885c.049-.278.077-.664.115-.984v-.016h-1zm1 0h.002l.117-1H146v1zm-1 1h-1v1h1v-1zm-1 1h-1v1h1v-1zm0 1v1h.572c.14-.165.259-.356.428-.609v-.391h-1zm0 1h-1v1h.125a4 4 0 0 0 .875-.506v-.494zm-1 1h-1v.363a4 4 0 0 0 1-.291v-.072zm-1 0v-1h-1v1h1zm-1 0h-1v.117a4 4 0 0 0 1 .246v-.363zm-1 0v-1h-1v.541a4 4 0 0 0 .797.459H140zm-1-1v-1h-1v.029a4 4 0 0 0 .473.971H139zm0-1h1v-1h-1v1zm0-1v-1h-1v1h1zm-1-1v-1h-.084a4 4 0 0 0-.211 1H138zm0-1h1v-1h-.941c-.009.076-.021.402-.029.459l-.029.139v.402zm1-1h1v-1h-1v1zm0-1v-1h-.816l-.062 1H139zm0-1h1v-1h-1v1zm0-1v-1h-.701l-.002.213-.049.787H139zm0-1h1v-1h-1v1zm0-1v-1h-.676l-.012 1H139zm0-1h1v-1h-1v1zm0-1v-1h-.65l-.012 1H139zm0-1h1v-1h-1v1zm0-1v-1h-.625l-.012 1H139zm0-1h1v-1h-1v1zm0-1v-1h-.6l-.014 1H139zm0-1h1v-1h-1v1zm0-1v-1h-.574l-.014 1H139zm0-1h1v-1h-1v1zm0-1v-1h-.559l-.004 1H139zm0-1h1v-1h-1v1zm0-1v-1h-.557l-.002 1H139zm0-1h1v-1h-1v1zm0-1v-1h-.555v1H139zm0-1h1v-1h-1v1zm0-1v-1h-.551l-.002 1H139zm0-1h1v-1h-1v1zm0-1v-1h-.549v1H139zm0-1h1v-1h-1v1zm0-1v-1h-.545l-.002 1H139zm0-1h1v-1h-1v1zm0-1v-1h-.543l-.002 1H139zm0-1h1v-1h-1v1zm0-1v-1h-.539l-.002 1H139zm0-1h1v-1h-1v1zm0-1v-1h-.137a4 4 0 0 0-.27 1H139zm0-1h1v-1h-.504a4 4 0 0 0-.496.496v.504zm1-1h1v-1h-.408a4 4 0 0 0-.592.496v.504zm1-1h1v-.377a4 4 0 0 0-1 .268v.109zm1 0v1h1v-1h-1zm-2 2v1h1v-1h-1zm1 1v1h1v-1h-1zm1 0h1v-1h-1v1zm1 0v1h1v-1h-1zm0 1h-1v1h1v-1zm-2 0h-1v1h1v-1zm-1 2v1h1v-1h-1zm1 1v1h1v-1h-1zm1 0h1v-1h-1v1zm1 0v1h1v-1h-1zm0 1h-1v1h1v-1zm-2 0h-1v1h1v-1zm-1 2v1h1v-1h-1zm1 1v1h1v-1h-1zm1 0h1v-1h-1v1zm1 0v1h1v-1h-1zm0 1h-1v1h1v-1zm-2 0h-1v1h1v-1zm-1 2v1h1v-1h-1zm1 1v1h1v-1h-1zm1 0h1v-1h-1v1zm1 0v1h1v-1h-1zm0 1h-1v1h1v-1zm-2 0h-1v1h1v-1zm-1 2v1h1v-1h-1zm1 1v1h1v-1h-1zm1 0h1v-1h-1v1zm1 0v1h1v-1h-1zm0 1h-1v1h1v-1zm-2 0h-1v1h1v-1zm-1 2v1h1v-1h-1zm1 1v1h1v-1h-1zm1 0h1v-1h-1v1zm1 0v1h1v-1h-1zm0 1h-1v1h1v-1zm-2 0h-1v1h1v-1zm-1 2v1h1v-1h-1zm1 1v1h1v-1h-1zm1 0h1v-1h-1v1zm1 0v1h1v-1h-1zm0 1h-1v1h1v-1zm-2 0h-1v1h1v-1zm-1 2v1h1v-1h-1zm1 1v1h1v-1h-1zm1 0h1v-1h-1v1zm1 0v1h1v-1h-1zm0 1h-1v1h1v-1zm-2 0h-1v1h1v-1zm-1 2v1h1v-1h-1zm1 1v1h1v-1h-1zm1 0h1v-1h-1v1zm1 0v1h1v-1h-1zm0 1h-1v1h1v-1zm-2 0h-1v1h1v-1zm-1 0v-1h-1v1h1zm0 2v1h1v-1h-1zm2 1h1v-1h-1v1zm28-38.695v.695h1v-.621c-.048-.006-.092-.021-.141-.025l-.859-.049zm1 .695v1h1v-1h-1zm1 0h1v-.078a7.53 7.53 0 0 0-1-.354v.432zm0 1v1h1v-1h-1zm1 1v1h1v-1h-1zm1 0h1v-.838l-.191-.162H174v1zm1 0v1h1v-.959l-.039-.041H175zm1 1v1h1v-1h-1zm1 0h.197c-.097-.085-.112-.086-.197-.15v.15zm-1 1h-1v1h1v-1zm0 1v1h1v-1h-1zm1 1v1h1v-1h-1zm1 0h1v-.266l-.295-.689c-.009-.018-.018-.027-.027-.045H178v1zm1 0v1h.426c-.066-.288-.172-.626-.312-1H179zm0 1h-1v1h1v-1zm0 1v1h1v-.029l-.447-.844c.002-.019-.015-.102-.014-.127H179zm1 1v1h.408l-.369-.955-.023-.045H180zm0 1h-1v1h1v-1zm0 1v1h.898c-.001-.008-.001-.02-.002-.027-.053-.355-.143-.651-.221-.973H180zm0 1h-1v1h1v-1zm0 1v1h1v-1h-1zm1 1v1h.17l-.061-1H181zm0 1h-1v1h1v-1zm-1 1h-1v1h1v-1zm0 1v1h1v-1h-1zm1 1v1h.314l-.016-1H181zm0 1h-1v1h1v-1zm-1 1h-1v1h1v-1zm0 1v1h1v-1h-1zm1 1v1h.371l-.016-1H181zm0 1h-1v1h1v-1zm-1 1h-1v1h1v-1zm0 1v1h1v-1h-1zm1 1v1h.428l-.016-1H181zm0 1h-1v1h1v-1zm-1 1h-1v1h1v-1zm0 1v1h1v-1h-1zm1 1v1h.445l-.002-1H181zm0 1h-1v1h1v-1zm-1 1h-1v1h1v-1zm0 1v1h1v-1h-1zm1 1v1h.451l-.002-1H181zm0 1h-1v1h1v-1zm-1 1h-1v1h1v-1zm0 1v1h1v-1h-1zm1 1v1h.457l-.002-1H181zm0 1h-1v1h1v-1zm-1 1h-1v1h1v-1zm0 1v1h1v-1h-1zm1 1v1h.059a4 4 0 0 0 .27-1H181zm0 1h-1v1h.426a4 4 0 0 0 .574-.777v-.223zm-1 1h-1v1h.33a4 4 0 0 0 .67-.574v-.426zm-1 1h-1v.355a4 4 0 0 0 1-.268v-.088zm0-1v-1h-1v1h1zm-1-1v-1h-1v1h1zm-1 0h-1v1h1v-1zm-1 1h-1v.504a4 4 0 0 0 .592.496H176v-1zm0 1v.109a4 4 0 0 0 1 .268v-.377h-1zm-1-1v-1h-1v.504a4 4 0 0 0 .496.496H175zm-1-1v-1h-.406a4 4 0 0 0 .27 1H174zm0-1h1v-1h-1v1zm1-1h1v-1h-1v1zm0-1v-1h-1v1h1zm-1-1v-1h-.545l.002 1H174zm0-1h1v-1h-1v1zm1-1h1v-1h-1v1zm0-1v-1h-1v1h1zm-1-1v-1h-.551l.002 1H174zm0-1h1v-1h-1v1zm1-1h1v-1h-1v1zm0-1v-1h-1v1h1zm-1-1v-1h-.557v1H174zm0-1h1v-1h-1v1zm1-1h1v-1h-1v1zm0-1v-1h-1v1h1zm-1-1v-1h-.588l.014 1H174zm0-1h1v-1h-1v1zm1-1h1v-1h-1v1zm0-1v-1h-1v1h1zm-1-1v-1h-.645l.014 1H174zm0-1h1v-1h-1v1zm1-1h1v-1h-1v1zm0-1v-1h-1v1h1zm-1-1v-1h-.701l.016 1H174zm0-1h1v-1h-1v1zm1-1h1v-1h-1v1zm0-1v-1h-1v1h1zm-1-1v-1h-.959l.068 1H174zm0-1h1v-1h-1v1zm1-1h1v-1h-1v1zm0-1v-1h-1v1h1zm-1-1v-1h-1v1h1zm-1 0h-.977c.167.442.316.746.467 1h.51v-1zm0-1v-1h-1v1h1zm-1 0h-.283l.029.137c.076.304.165.548.254.791v-.928zm0-1v-1h-1v.361l.594.592c-.05-.051-.079-.045-.08.047H172zm-1-1v-1h-1v.324c.003 0 .027-.006.029-.006.06.096.217.289.604.676l.006.006H171zm-1-1v-1h-1v1h1zm-1 0h-1v.691l1-.199v-.492zm-1 0v-1h-1v1h1zm-1 0h-1v1h.836l.164-.043v-.957zm-1 0v-1h-1v1h1zm-1 0h-1v1h1v-1zm-1 1h-1v1h1v-1zm0 1v1h1v-1h-1zm1 1v.277l.055-.277H165zm-1 0h-1v1h1v-1zm0 1v1h.666l.193-1H164zm0 1h-1v1h1v-1zm0 1v1h.264l.115-.523.092-.477H164zm0 1h-1v1h1v-1zm0 1v.207l.045-.207H164zm-1 0h-1v1h1v-1zm0 1v1h.607l.219-1H163zm0 1h-1v1h1v-1zm0 1v1h.17l.219-1H163zm0 1h-1v1h.949l.051-.229v-.771zm-1 0v-1h-1v1h1zm-1 0h-1v1h1v-1zm-1 1h-1v1h1v-1zm0 1v1h1v-1h-1zm1 1v1h1v-1h-1zm1 0h.512l.219-1H162v1zm0 1v1h.074l.219-1H162zm-1 0h-1v1h1v-1zm-1 1h-1v1h1v-1zm0 1v1h1v-1h-1zm1 1v1h.416l.221-1H161zm0 1h-1v1h1v-1zm-1 1h-1v1h1v-1zm0 1v1h.76l.219-1H160zm0 1h-1v1h1v-1zm0 1v1h.322l.219-1H160zm0 1h-1v1h1v-1zm0 1v.469l.104-.469H160zm-1 0h-1v1h1v-1zm0 1v1h.664l.219-1H159zm0 1h-1v1h1v-1zm0 1v1h.035a4 4 0 0 0 .33-.633l.08-.367H159zm0 1h-1v1h.514a4 4 0 0 0 .486-.932v-.068zm-1 1h-1v1h.156a4 4 0 0 0 .844-.537v-.463zm-1 1h-1v.344a4 4 0 0 0 1-.244v-.1zm-1 0v-1h-1v1h1zm-1 0h-1v.096a4 4 0 0 0 .594.309 4 4 0 0 0 .406-.018v-.387zm-1 0v-1h-1v.574a4 4 0 0 0 .818.426H154zm-1-1v-1h-1v.256a4 4 0 0 0 .473.744H153zm-1-1v-1h-.385a4 4 0 0 0 .221 1H152zm0-1h1v-1h-1v1zm0-1v-1h-.305l-.139.633.016.367H152zm0-1h1v-1h-1v1zm0-1v-.393l-.086.393H152zm1 1v1h1v-1h-1zm1 0h1v-1h-1v1zm1-1h1v-1h-1v1zm0-1v-1h-1v1h1zm-1-1v-1h-1v1h1zm-1 0h-.648l-.219 1H153v-1zm0-1v-1h-.211l-.219 1h.43zm1 0h1v-1h-1v1zm1-1h1v-1h-1v1zm0-1v-1h-1v1h1zm-1-1v-1h-.553l-.219 1H154zm0-1h1v-1h-1v1zm1-1h1v-1h-1v1zm0-1v-1h-.896l-.104.471v.529h1zm0-1h1v-1h-1v1zm0-1v-1h-.459l-.219 1H155zm0-1h1v-1h-1v1zm0-1v-1h-.021l-.219 1h.24zm0-1h1v-1h-.803l-.197.904v.096zm1-1h1v-1h-1v1zm0-1v-1h-.365l-.219 1H156zm0-1h1v-1h-1v1zm0-1v-.664l-.145.664H156zm1 0h1v-1h-1v1zm0-1v-1h-.707l-.219 1H157zm1 0h1v-1h-1v1zm1-1h1v-1h-1v1zm0-1v-1h-1v1h1zm-1-1v-1h-1v1h1zm-1 0h-.291l-.166.855-.031.145H157v-1zm0-1v-.49l-.096.49H157zm1 0h1v-1h-1v1zm1-1h1v-1h-1v1zm0-1v-1h-1v1h1zm-1-1v-1h-.301c-.093.333-.182.685-.225 1H158zm0-1h1v-1h-.922c-.008.016-.019.029-.027.045-.03.06-.024.081-.051.137v.818zm1-1h1v-1h-1v1zm0-1v-.191l-.191.191H159zm1 0h1v-1h-1v1zm0-1v-.029c-.005.006-.025.024-.029.029H160zm1 0h1v-1h-.893l-.107.08v.92zm1-1h1v-1h-.275l-.725.4v.6zm1-1h1v-.562l-.996.408-.004.154zm1 0v1h1v-1h-1zm1 1v1h1v-1h-1zm1 0h1v-1h-1v1zm1-1h1v-1h-1v1zm0-1v-.443l-1 .205v.238h1zm1 0h1v-.672l-1 .057v.615zm0 1v1h1v-1h-1zm1 1v1h1v-1h-1zm1 0h1v-1h-1v1zm1 0v1h1v-1h-1zm1 1v1h1v-1h-1zm0 1h-1v1h1v-1zm0 1v1h1v-1h-1zm1 1v1h1v-1h-1zm1 0h1v-1h-1v1zm1 0v1h1v-1h-1zm1 1v1h1v-1h-1zm0 1h-1v1h1v-1zm0 1v1h1v-1h-1zm1 1v1h1v-1h-1zm1 0h1v-1h-1v1zm0 1v1h1v-1h-1zm-1 0h-1v1h1v-1zm-1 0v-1h-1v1h1zm-1-1v-1h-1v1h1zm0-2v-1h-1v1h1zm-2-1h-1v1h1v-1zm-1 0v-1h-1v1h1zm-1-1v-1h-1v1h1zm0-2v-1h-1v1h1zm-2-1h-1v1h1v-1zm-1 1h-1v1h1v-1zm0 1v1h1v-1h-1zm-1 0h-1v1h1v-1zm0-1v-1h-1v1h1zm0-1h1v-1h-1v1zm-2 0h-1v1h1v-1zm-1 1h-1v1h1v-1zm0 1v1h1v-1h-1zm0 1h-1v1h1v-1zm-1 1h-1v1h1v-1zm-1 0v-1h-1v1h1zm-1 0h-1v1h1v-1zm-1 0v-1h-1v1h1zm0-1h1v-1h-1v1zm2 0h1v-1h-1v1zm1-2v-1h-1v1h1zm0-1h1v-1h-1v1zm-3 6v1h1v-1h-1zm1 1v1h1v-1h-1zm1 0h1v-1h-1v1zm0 1v1h1v-1h-1zm-1 0h-1v1h1v-1zm-1 0v-1h-1v1h1zm0 2v1h1v-1h-1zm1 1v1h1v-1h-1zm1 0h1v-1h-1v1zm-1 1h-1v1h1v-1zm-1 1h-1v1h1v-1zm0 1v1h1v-1h-1zm0 1h-1v1h1v-1zm-1 1h-1v1h1v-1zm-1 0v-1h-1v1h1zm-1 0h-1v1h1v-1zm1-1h1v-1h-1v1zm1-2v-1h-1v1h1zm0-1h1v-1h-1v1zm-3 6v1h1v-1h-1zm1 1v1h1v-1h-1zm1 0h1v-1h-1v1zm1 0v1h1v-1h-1zm0 1h-1v1h1v-1zm-2 0h-1v1h1v-1zm-1 2v1h1v-1h-1zm1 1v1h1v-1h-1zm1 0h1v-1h-1v1zm1 0v1h1v-1h-1zm0 1h-1v1h1v-1zm-2 0h-1v1h1v-1zm-1 0v-1h-1v1h1zm0 2v1h1v-1h-1zm1 1v1h1v-1h-1zm1 0h1v-1h-1v1zm0 1v1h1v-1h-1zm-1 0h-1v1h1v-1zm-1 0v-1h-1v1h1zm0 2v1h1v-1h-1zm1 1v1h1v-1h-1zm0 1h-1v1h1v-1zm-1 1h-1v1h1v-1zm0 1v1h1v-1h-1zm-1 0h-1v1h1v-1zm0-1v-1h-1v1h1zm0-1h1v-1h-1v1zm21-22v1h1v-1h-1zm1 1v1h1v-1h-1zm1 0h1v-1h-1v1zm1 0v1h1v-1h-1zm0 1h-1v1h1v-1zm-2 0h-1v1h1v-1zm-1 0v-1h-1v1h1zm0 2v1h1v-1h-1zm1 1v1h1v-1h-1zm1 0h1v-1h-1v1zm1 0v1h1v-1h-1zm0 1h-1v1h1v-1zm-2 0h-1v1h1v-1zm-1 0v-1h-1v1h1zm0 2v1h1v-1h-1zm1 1v1h1v-1h-1zm1 0h1v-1h-1v1zm1 0v1h1v-1h-1zm0 1h-1v1h1v-1zm-2 0h-1v1h1v-1zm-1 0v-1h-1v1h1zm0 2v1h1v-1h-1zm1 1v1h1v-1h-1zm1 0h1v-1h-1v1zm1 0v1h1v-1h-1zm0 1h-1v1h1v-1zm-2 0h-1v1h1v-1zm-1 0v-1h-1v1h1zm0 2v1h1v-1h-1zm1 1v1h1v-1h-1zm1 0h1v-1h-1v1zm1 0v1h1v-1h-1zm0 1h-1v1h1v-1zm-2 0h-1v1h1v-1zm-1 0v-1h-1v1h1zm0 2v1h1v-1h-1zm1 1v1h1v-1h-1zm1 0h1v-1h-1v1zm1 0v1h1v-1h-1zm0 1h-1v1h1v-1zm-2 0h-1v1h1v-1zm-1 0v-1h-1v1h1zm0 2v1h1v-1h-1zm1 1v1h1v-1h-1zm1 0h1v-1h-1v1zm1 0v1h1v-1h-1zm0 1h-1v1h1v-1zm-2 0h-1v1h1v-1zm-1 0v-1h-1v1h1zm0 2v1h1v-1h-1zm0 1h-1v1h1v-1zm2 0h1v-1h-1v1zm1 0v1h1v-1h-1zm-4-38v-1h-1v1h1zm82-4.008l-.021.008H257v-.008zm-79 3.914v.094h.059c-.019-.027-.039-.068-.059-.094zm35 3.793l-.426.301H213v-.301zm24 3.965l-.113.336H237v-.336zm-64.045 1.336c.01.073-.001-.05.029.152.005.035.01.194.016.232v-.385h-.045zm77.045 0v.119l.225-.119H250zm-8 4v.129l.25-.051.154-.078H242zm-136 4v.141l.043-.141H106zm-24 2.51v.49h.484c-.184-.163-.327-.325-.484-.49zm-5.625 5.49l.625.648v-.648h-.625zm25.625 0v.818l.416-.637.1-.182H102zm10.66 0c.053.057.079.103.139.162.08.08.135.099.201.146v-.309h-.34zm-14.66 4v.389c.28-.113.556-.242.826-.389H98zm122.506 8l.494.162v-.162h-.494z"/></svg>