<?xml version="1.0" encoding="UTF-8" standalone="no"?>
<!-- Created with Inkscape (http://www.inkscape.org/) -->

<svg
   width="300"
   height="300"
   viewBox="0 0 300 300"
   version="1.1"
   id="svg1"
   inkscape:version="1.3.2 (091e20e, 2023-11-25, custom)"
   sodipodi:docname="npm.svg"
   xmlns:inkscape="http://www.inkscape.org/namespaces/inkscape"
   xmlns:sodipodi="http://sodipodi.sourceforge.net/DTD/sodipodi-0.dtd"
   xmlns="http://www.w3.org/2000/svg"
   xmlns:svg="http://www.w3.org/2000/svg">
  <sodipodi:namedview
     id="namedview1"
     pagecolor="#ffffff"
     bordercolor="#000000"
     borderopacity="0.25"
     inkscape:showpageshadow="2"
     inkscape:pageopacity="0.0"
     inkscape:pagecheckerboard="0"
     inkscape:deskcolor="#d1d1d1"
     inkscape:document-units="px"
     inkscape:zoom="1"
     inkscape:cx="150"
     inkscape:cy="149.5"
     inkscape:window-width="1366"
     inkscape:window-height="705"
     inkscape:window-x="-8"
     inkscape:window-y="-8"
     inkscape:window-maximized="1"
     inkscape:current-layer="layer1" />
  <defs
     id="defs1">
    <inkscape:path-effect
       effect="bspline"
       id="path-effect53"
       is_visible="true"
       lpeversion="1.3"
       weight="33.333333"
       steps="2"
       helper_size="0"
       apply_no_weight="true"
       apply_with_weight="true"
       only_selected="false"
       uniform="false" />
    <inkscape:path-effect
       effect="bspline"
       id="path-effect52"
       is_visible="true"
       lpeversion="1.3"
       weight="33.333333"
       steps="2"
       helper_size="0"
       apply_no_weight="true"
       apply_with_weight="true"
       only_selected="false"
       uniform="false" />
    <inkscape:path-effect
       effect="bspline"
       id="path-effect51"
       is_visible="true"
       lpeversion="1.3"
       weight="33.333333"
       steps="2"
       helper_size="0"
       apply_no_weight="true"
       apply_with_weight="true"
       only_selected="false"
       uniform="false" />
    <inkscape:path-effect
       effect="bspline"
       id="path-effect50"
       is_visible="true"
       lpeversion="1.3"
       weight="33.333333"
       steps="2"
       helper_size="0"
       apply_no_weight="true"
       apply_with_weight="true"
       only_selected="false"
       uniform="false" />
    <inkscape:path-effect
       effect="bspline"
       id="path-effect49"
       is_visible="true"
       lpeversion="1.3"
       weight="33.333333"
       steps="2"
       helper_size="0"
       apply_no_weight="true"
       apply_with_weight="true"
       only_selected="false"
       uniform="false" />
    <inkscape:path-effect
       effect="bspline"
       id="path-effect48"
       is_visible="true"
       lpeversion="1.3"
       weight="33.333333"
       steps="2"
       helper_size="0"
       apply_no_weight="true"
       apply_with_weight="true"
       only_selected="false"
       uniform="false" />
    <inkscape:path-effect
       effect="bspline"
       id="path-effect47"
       is_visible="true"
       lpeversion="1.3"
       weight="33.333333"
       steps="2"
       helper_size="0"
       apply_no_weight="true"
       apply_with_weight="true"
       only_selected="false"
       uniform="false" />
    <inkscape:path-effect
       effect="bspline"
       id="path-effect46"
       is_visible="true"
       lpeversion="1.3"
       weight="33.333333"
       steps="2"
       helper_size="0"
       apply_no_weight="true"
       apply_with_weight="true"
       only_selected="false"
       uniform="false" />
    <inkscape:path-effect
       effect="bspline"
       id="path-effect38"
       is_visible="true"
       lpeversion="1.3"
       weight="33.333333"
       steps="2"
       helper_size="0"
       apply_no_weight="true"
       apply_with_weight="true"
       only_selected="false"
       uniform="false" />
    <inkscape:path-effect
       effect="bspline"
       id="path-effect45"
       is_visible="true"
       lpeversion="1.3"
       weight="33.333333"
       steps="2"
       helper_size="0"
       apply_no_weight="true"
       apply_with_weight="true"
       only_selected="false"
       uniform="false" />
    <inkscape:path-effect
       effect="bspline"
       id="path-effect44"
       is_visible="true"
       lpeversion="1.3"
       weight="33.333333"
       steps="2"
       helper_size="0"
       apply_no_weight="true"
       apply_with_weight="true"
       only_selected="false"
       uniform="false" />
    <inkscape:path-effect
       effect="bspline"
       id="path-effect43"
       is_visible="true"
       lpeversion="1.3"
       weight="33.333333"
       steps="2"
       helper_size="0"
       apply_no_weight="true"
       apply_with_weight="true"
       only_selected="false"
       uniform="false" />
    <inkscape:path-effect
       effect="bspline"
       id="path-effect42"
       is_visible="true"
       lpeversion="1.3"
       weight="33.333333"
       steps="2"
       helper_size="0"
       apply_no_weight="true"
       apply_with_weight="true"
       only_selected="false"
       uniform="false" />
    <inkscape:path-effect
       effect="bspline"
       id="path-effect41"
       is_visible="true"
       lpeversion="1.3"
       weight="33.333333"
       steps="2"
       helper_size="0"
       apply_no_weight="true"
       apply_with_weight="true"
       only_selected="false"
       uniform="false" />
    <inkscape:path-effect
       effect="bspline"
       id="path-effect40"
       is_visible="true"
       lpeversion="1.3"
       weight="33.333333"
       steps="2"
       helper_size="0"
       apply_no_weight="true"
       apply_with_weight="true"
       only_selected="false"
       uniform="false" />
    <inkscape:path-effect
       effect="bspline"
       id="path-effect39"
       is_visible="true"
       lpeversion="1.3"
       weight="33.333333"
       steps="2"
       helper_size="0"
       apply_no_weight="true"
       apply_with_weight="true"
       only_selected="false"
       uniform="false" />
    <inkscape:path-effect
       effect="bspline"
       id="path-effect37"
       is_visible="true"
       lpeversion="1.3"
       weight="33.333333"
       steps="2"
       helper_size="0"
       apply_no_weight="true"
       apply_with_weight="true"
       only_selected="false"
       uniform="false" />
    <inkscape:path-effect
       effect="bspline"
       id="path-effect36"
       is_visible="true"
       lpeversion="1.3"
       weight="33.333333"
       steps="2"
       helper_size="0"
       apply_no_weight="true"
       apply_with_weight="true"
       only_selected="false"
       uniform="false" />
    <inkscape:path-effect
       effect="bspline"
       id="path-effect35"
       is_visible="true"
       lpeversion="1.3"
       weight="33.333333"
       steps="2"
       helper_size="0"
       apply_no_weight="true"
       apply_with_weight="true"
       only_selected="false"
       uniform="false" />
    <inkscape:path-effect
       effect="bspline"
       id="path-effect34"
       is_visible="true"
       lpeversion="1.3"
       weight="33.333333"
       steps="2"
       helper_size="0"
       apply_no_weight="true"
       apply_with_weight="true"
       only_selected="false"
       uniform="false" />
    <inkscape:path-effect
       effect="bspline"
       id="path-effect33"
       is_visible="true"
       lpeversion="1.3"
       weight="33.333333"
       steps="2"
       helper_size="0"
       apply_no_weight="true"
       apply_with_weight="true"
       only_selected="false"
       uniform="false" />
    <inkscape:path-effect
       effect="bspline"
       id="path-effect32"
       is_visible="true"
       lpeversion="1.3"
       weight="33.333333"
       steps="2"
       helper_size="0"
       apply_no_weight="true"
       apply_with_weight="true"
       only_selected="false"
       uniform="false" />
    <inkscape:path-effect
       effect="bspline"
       id="path-effect31"
       is_visible="true"
       lpeversion="1.3"
       weight="33.333333"
       steps="2"
       helper_size="0"
       apply_no_weight="true"
       apply_with_weight="true"
       only_selected="false"
       uniform="false" />
    <inkscape:path-effect
       effect="bspline"
       id="path-effect30"
       is_visible="true"
       lpeversion="1.3"
       weight="33.333333"
       steps="2"
       helper_size="0"
       apply_no_weight="true"
       apply_with_weight="true"
       only_selected="false"
       uniform="false" />
    <inkscape:path-effect
       effect="bspline"
       id="path-effect29"
       is_visible="true"
       lpeversion="1.3"
       weight="33.333333"
       steps="2"
       helper_size="0"
       apply_no_weight="true"
       apply_with_weight="true"
       only_selected="false"
       uniform="false" />
    <inkscape:path-effect
       effect="bspline"
       id="path-effect28"
       is_visible="true"
       lpeversion="1.3"
       weight="33.333333"
       steps="2"
       helper_size="0"
       apply_no_weight="true"
       apply_with_weight="true"
       only_selected="false"
       uniform="false" />
    <inkscape:path-effect
       effect="bspline"
       id="path-effect27"
       is_visible="true"
       lpeversion="1.3"
       weight="33.333333"
       steps="2"
       helper_size="0"
       apply_no_weight="true"
       apply_with_weight="true"
       only_selected="false"
       uniform="false" />
    <inkscape:path-effect
       effect="bspline"
       id="path-effect26"
       is_visible="true"
       lpeversion="1.3"
       weight="33.333333"
       steps="2"
       helper_size="0"
       apply_no_weight="true"
       apply_with_weight="true"
       only_selected="false"
       uniform="false" />
    <inkscape:path-effect
       effect="bspline"
       id="path-effect25"
       is_visible="true"
       lpeversion="1.3"
       weight="33.333333"
       steps="2"
       helper_size="0"
       apply_no_weight="true"
       apply_with_weight="true"
       only_selected="false"
       uniform="false" />
    <inkscape:path-effect
       effect="bspline"
       id="path-effect24"
       is_visible="true"
       lpeversion="1.3"
       weight="33.333333"
       steps="2"
       helper_size="0"
       apply_no_weight="true"
       apply_with_weight="true"
       only_selected="false"
       uniform="false" />
    <inkscape:path-effect
       effect="bspline"
       id="path-effect23"
       is_visible="true"
       lpeversion="1.3"
       weight="33.333333"
       steps="2"
       helper_size="0"
       apply_no_weight="true"
       apply_with_weight="true"
       only_selected="false"
       uniform="false" />
    <inkscape:path-effect
       effect="bspline"
       id="path-effect22"
       is_visible="true"
       lpeversion="1.3"
       weight="33.333333"
       steps="2"
       helper_size="0"
       apply_no_weight="true"
       apply_with_weight="true"
       only_selected="false"
       uniform="false" />
    <inkscape:path-effect
       effect="bspline"
       id="path-effect21"
       is_visible="true"
       lpeversion="1.3"
       weight="33.333333"
       steps="2"
       helper_size="0"
       apply_no_weight="true"
       apply_with_weight="true"
       only_selected="false"
       uniform="false" />
    <inkscape:path-effect
       effect="bspline"
       id="path-effect20"
       is_visible="true"
       lpeversion="1.3"
       weight="33.333333"
       steps="2"
       helper_size="0"
       apply_no_weight="true"
       apply_with_weight="true"
       only_selected="false"
       uniform="false" />
    <inkscape:path-effect
       effect="bspline"
       id="path-effect19"
       is_visible="true"
       lpeversion="1.3"
       weight="33.333333"
       steps="2"
       helper_size="0"
       apply_no_weight="true"
       apply_with_weight="true"
       only_selected="false"
       uniform="false" />
    <inkscape:path-effect
       effect="bspline"
       id="path-effect18"
       is_visible="true"
       lpeversion="1.3"
       weight="33.333333"
       steps="2"
       helper_size="0"
       apply_no_weight="true"
       apply_with_weight="true"
       only_selected="false"
       uniform="false" />
    <inkscape:path-effect
       effect="bspline"
       id="path-effect17"
       is_visible="true"
       lpeversion="1.3"
       weight="33.333333"
       steps="2"
       helper_size="0"
       apply_no_weight="true"
       apply_with_weight="true"
       only_selected="false"
       uniform="false" />
    <inkscape:path-effect
       effect="bspline"
       id="path-effect16"
       is_visible="true"
       lpeversion="1.3"
       weight="33.333333"
       steps="2"
       helper_size="0"
       apply_no_weight="true"
       apply_with_weight="true"
       only_selected="false"
       uniform="false" />
    <inkscape:path-effect
       effect="bspline"
       id="path-effect15"
       is_visible="true"
       lpeversion="1.3"
       weight="33.333333"
       steps="2"
       helper_size="0"
       apply_no_weight="true"
       apply_with_weight="true"
       only_selected="false"
       uniform="false" />
    <inkscape:path-effect
       effect="bspline"
       id="path-effect14"
       is_visible="true"
       lpeversion="1.3"
       weight="33.333333"
       steps="2"
       helper_size="0"
       apply_no_weight="true"
       apply_with_weight="true"
       only_selected="false"
       uniform="false" />
    <inkscape:path-effect
       effect="bspline"
       id="path-effect13"
       is_visible="true"
       lpeversion="1.3"
       weight="33.333333"
       steps="2"
       helper_size="0"
       apply_no_weight="true"
       apply_with_weight="true"
       only_selected="false"
       uniform="false" />
    <inkscape:path-effect
       effect="bspline"
       id="path-effect12"
       is_visible="true"
       lpeversion="1.3"
       weight="33.333333"
       steps="2"
       helper_size="0"
       apply_no_weight="true"
       apply_with_weight="true"
       only_selected="false"
       uniform="false" />
    <inkscape:path-effect
       effect="bspline"
       id="path-effect11"
       is_visible="true"
       lpeversion="1.3"
       weight="33.333333"
       steps="2"
       helper_size="0"
       apply_no_weight="true"
       apply_with_weight="true"
       only_selected="false"
       uniform="false" />
    <inkscape:path-effect
       effect="bspline"
       id="path-effect10"
       is_visible="true"
       lpeversion="1.3"
       weight="33.333333"
       steps="2"
       helper_size="0"
       apply_no_weight="true"
       apply_with_weight="true"
       only_selected="false"
       uniform="false" />
    <inkscape:path-effect
       effect="bspline"
       id="path-effect9"
       is_visible="true"
       lpeversion="1.3"
       weight="33.333333"
       steps="2"
       helper_size="0"
       apply_no_weight="true"
       apply_with_weight="true"
       only_selected="false"
       uniform="false" />
    <inkscape:path-effect
       effect="bspline"
       id="path-effect8"
       is_visible="true"
       lpeversion="1.3"
       weight="33.333333"
       steps="2"
       helper_size="0"
       apply_no_weight="true"
       apply_with_weight="true"
       only_selected="false"
       uniform="false" />
    <inkscape:path-effect
       effect="bspline"
       id="path-effect7"
       is_visible="true"
       lpeversion="1.3"
       weight="33.333333"
       steps="2"
       helper_size="0"
       apply_no_weight="true"
       apply_with_weight="true"
       only_selected="false"
       uniform="false" />
    <inkscape:path-effect
       effect="bspline"
       id="path-effect6"
       is_visible="true"
       lpeversion="1.3"
       weight="33.333333"
       steps="2"
       helper_size="0"
       apply_no_weight="true"
       apply_with_weight="true"
       only_selected="false"
       uniform="false" />
    <inkscape:path-effect
       effect="bspline"
       id="path-effect5"
       is_visible="true"
       lpeversion="1.3"
       weight="33.333333"
       steps="2"
       helper_size="0"
       apply_no_weight="true"
       apply_with_weight="true"
       only_selected="false"
       uniform="false" />
    <inkscape:path-effect
       effect="bspline"
       id="path-effect4"
       is_visible="true"
       lpeversion="1.3"
       weight="33.333333"
       steps="2"
       helper_size="0"
       apply_no_weight="true"
       apply_with_weight="true"
       only_selected="false"
       uniform="false" />
    <inkscape:path-effect
       effect="bspline"
       id="path-effect3"
       is_visible="true"
       lpeversion="1.3"
       weight="33.333333"
       steps="2"
       helper_size="0"
       apply_no_weight="true"
       apply_with_weight="true"
       only_selected="false"
       uniform="false" />
    <inkscape:path-effect
       effect="bspline"
       id="path-effect2"
       is_visible="true"
       lpeversion="1.3"
       weight="33.333333"
       steps="2"
       helper_size="0"
       apply_no_weight="true"
       apply_with_weight="true"
       only_selected="false"
       uniform="false" />
    <inkscape:path-effect
       effect="bspline"
       id="path-effect1"
       is_visible="true"
       lpeversion="1.3"
       weight="33.333333"
       steps="2"
       helper_size="0"
       apply_no_weight="true"
       apply_with_weight="true"
       only_selected="false"
       uniform="false" />
  </defs>
  <g
     inkscape:label="Layer 1"
     inkscape:groupmode="layer"
     id="layer1">
    <path
       id="path7"
       style="color:#000000;fill:#000000;stroke-linecap:round;stroke-linejoin:round;-inkscape-stroke:none"
       d="m 41.134267,22.002281 a 4,4 0 0 0 -4.132813,3.863281 l -0.251953,7.408204 c -3.183857,1.568202 -5.661976,4.266416 -7.230469,7.751953 -0.875126,1.944726 -1.70215,4.308686 -2.046875,6.880859 -0.344723,2.572173 -0.287031,5.569935 1.59375,8.234375 1.880781,2.66444 4.457862,3.634547 6.63086,4.521484 0.04224,0.01724 0.08095,0.03364 0.123046,0.05078 l -0.314453,9.267578 c -1.770614,0.01077 -3.590781,0.01953 -5.505859,0.01953 a 4,4 0 0 0 -4,4 4,4 0 0 0 4,4 c 1.820649,0 3.532139,-0.005 5.234375,-0.01172 l -0.232422,6.876953 a 4,4 0 0 0 3.863281,4.132813 4,4 0 0 0 4.132813,-3.863281 l 0.25,-7.34961 c 1.147748,-0.09128 1.972402,-0.217166 2.8125,-0.513672 0.348954,-0.12316 0.658628,-0.269318 0.912109,-0.398437 0.390508,-0.08028 0.983925,-0.213882 1.679688,-0.492188 1.516347,-0.606538 2.613095,-1.375883 2.802734,-1.470703 0.04741,-0.0237 0.320693,-0.08716 0.97461,-0.558594 0.653917,-0.471427 1.585702,-1.701951 1.804687,-2.796874 0.437971,-2.189847 -0.187155,-2.908089 -0.667969,-4.158204 -0.961626,-2.500227 -3.09564,-7.536623 -7.980468,-10.867187 -0.527864,-0.359907 -1.058314,-0.673205 -1.585938,-0.962891 l 0.554688,-16.373047 c 2.07854,-0.445401 4.540761,-0.853777 7.052734,-1.240234 a 4,4 0 0 0 3.345703,-4.560547 4,4 0 0 0 -4.560547,-3.345703 c -1.854176,0.285258 -3.726421,0.562384 -5.55664,0.896484 l 0.162109,-4.808589 A 4,4 0 0 0 41.134267,22.002281 Z M 197.9995,38.000328 a 4,4 0 0 0 -4,4 4,4 0 0 0 4,4 h 3 a 4,4 0 0 0 4,-4 4,4 0 0 0 -4,-4 z m -161.662108,7.474609 -0.21875,6.445313 c -0.273005,-0.182578 -0.475857,-0.333473 -0.517579,-0.392578 -0.119213,-0.168888 -0.39616,-1.089108 -0.199218,-2.558594 0.145292,-1.084107 0.506134,-2.347568 0.935547,-3.494141 z m 79.658198,6.353516 c -0.65928,-0.01605 -1.40062,0.064 -2.20898,0.326172 -2.15565,0.699126 -3.59513,2.45887 -4.66016,4.482422 -2.13004,4.047096 -3.95515,10.521796 -4.99804,14.519531 -1.04289,3.997735 -1.12449,5.604248 -1.27539,7.113281 -0.15091,1.509034 -0.50622,3.762926 -0.85157,4.914063 -0.34534,1.151137 -1.02527,2.085462 -1.54882,4.179687 -0.52356,2.094225 -0.453129,3.970056 -0.453129,5.636719 a 4,4 0 0 0 3.999999,4 4,4 0 0 0 4,-4 c 0,-1.666663 0.0717,-3.124828 0.21484,-3.697266 0.14311,-0.572436 0.79456,-1.638123 1.44922,-3.820312 0.65466,-2.18219 0.96796,-4.593676 1.15039,-6.417969 0.10062,-1.006193 0.42373,-2.322295 0.58203,-3.248047 1.33335,0.754191 2.67832,1.209048 3.97657,1.421875 1.69783,0.278333 3.27447,0.31622 4.84179,0.03125 3.13467,-0.569938 5.29235,-3.723778 5.15235,-3.537109 -0.14,0.186657 1.78047,-1.960192 2.24414,-4.742188 0.46367,-2.782003 0.38867,-6.324222 0.38867,-8.324218 0,-0.999998 0.19396,-1.769302 -0.39258,-3.361328 -0.29327,-0.796013 -0.94097,-1.688081 -1.58203,-2.207032 -0.64106,-0.518949 -1.17761,-0.753017 -1.61719,-0.941406 -1.7583,-0.753556 -3.98256,-1.338817 -5.85547,-1.849609 -0.46822,-0.127699 -1.12088,-0.339585 -1.92578,-0.433594 -0.20122,-0.0235 -0.4111,-0.03957 -0.63086,-0.04492 z m -24.162105,0.505859 c -0.949999,0 -2.388612,0.450481 -3.03125,0.878907 -0.25915,0.172766 -0.305736,0.208163 -0.341796,0.236328 -0.09408,0.03199 -0.354694,0.131903 -0.726563,0.255859 -0.5,0.166667 -1.047062,0.311617 -1.857422,0.716797 -0.81036,0.405181 -1.654158,1.169736 -2.035156,1.677734 -0.118738,0.158318 -0.124747,0.164615 -0.162109,0.212891 -0.262872,0.259063 -0.720205,0.745346 -1.091797,1.302734 -0.617795,0.926691 -1.146526,2.076294 -1.716797,3.78711 -1.140544,3.42163 -2.432295,9.014985 -3.765625,14.68164 a 4,4 0 0 0 2.978515,4.810547 4,4 0 0 0 4.810547,-2.978515 c 1.333331,-5.666657 2.706954,-11.406018 3.566407,-13.984375 0.394284,-1.182854 0.673128,-1.695649 0.755859,-1.832032 0.05198,-0.04821 0.130377,-0.124518 0.277344,-0.271484 0.252812,-0.252813 0.167455,-0.197732 0.296875,-0.367187 0.150196,-0.05581 0.181802,-0.06841 0.474609,-0.166016 0.490526,-0.163509 1.036976,-0.315189 1.822266,-0.703125 0.03248,0.464326 0.04508,0.497378 0.08398,1.275391 0.167995,3.359894 0.500652,9.35548 0.833984,15.355468 a 4,4 0 0 0 4.216797,3.771485 4,4 0 0 0 3.771487,-4.216797 c -0.33334,-5.999992 -0.66669,-12.003787 -0.83203,-15.310547 -0.0827,-1.65338 -0.0785,-2.633749 -0.318363,-3.873047 -0.239864,-1.239298 -1.529933,-3.203898 -2.619141,-3.857422 -2.178414,-1.30705 -3.49063,-1.402343 -5.390625,-1.402344 z m 52.888675,3.44336 c -0.20368,0.0056 -0.40025,0.02039 -0.58789,0.04297 -0.75059,0.0903 -1.36534,0.296135 -1.78711,0.464844 -0.84356,0.337421 -1.81059,1.033244 -2.29493,1.578125 -0.2906,0.326929 -0.38297,0.443771 -0.40429,0.480469 -0.18938,0.108801 -1.54035,1.118134 -2.64258,2.771484 -1.23559,1.853384 -1.53072,3.39851 -1.84961,4.142578 -0.31889,0.744073 -1.17958,2.011246 -1.70313,4.105469 -0.52355,2.094224 -0.45312,3.970054 -0.45312,5.636717 a 4,4 0 0 0 4,4 4,4 0 0 0 4,-4 c 0,-1.666663 0.0717,-3.124828 0.21484,-3.697266 0.14311,-0.57244 0.61381,-1.305273 1.29493,-2.894531 0.6811,-1.58926 1.0546,-2.708856 1.15234,-2.855469 0.0314,-0.04707 0.42169,-0.401516 0.53516,-0.5 0.26444,0.926431 0.53874,1.798075 0.7832,3.142578 0.35719,1.964547 0.63275,3.93721 0.92969,5.421876 0.14846,0.742334 0.2696,1.311844 0.5625,2.037109 0.14644,0.362633 0.31113,0.780785 0.8125,1.375 0.50137,0.594214 1.69609,1.511722 3.21484,1.511719 1.51875,-4e-6 2.49892,-0.772272 2.9668,-1.234375 0.46788,-0.462105 0.65216,-0.785967 0.80664,-1.050782 0.30895,-0.529628 0.43625,-0.866891 0.57031,-1.179687 0.53622,-1.251184 1.20649,-2.852572 1.62891,-3.591797 0.41954,-0.734193 0.82438,-1.125685 1.75586,-2.242187 0.19894,1.303893 0.4375,2.305983 0.4375,3.257812 0,1.756404 0.0892,1.044274 -0.24414,1.710938 a 4,4 0 0 0 1.78906,5.367187 4,4 0 0 0 5.36718,-1.789063 c 0.33334,-0.666663 1.0879,-2.712144 1.0879,-5.289062 0,-2.576917 -0.027,-6.025703 -1.5254,-9.322266 -0.74921,-1.648286 -2.28168,-3.263295 -4.21289,-3.746093 -1.93119,-0.4828 -3.59283,0.102713 -4.74609,0.761718 -2.16866,1.239236 -3.19464,2.79259 -3.91406,3.699219 -0.27644,-1.19107 -0.60975,-2.367478 -1.10352,-3.496094 -0.88821,-2.030206 -2.50397,-3.738056 -4.42968,-4.339843 -0.72214,-0.225671 -1.4007,-0.29605 -2.01172,-0.279297 z m 53.27734,1.222656 a 4,4 0 0 0 -4,4 c 0,3.999992 -0.0236,7.892186 0.17969,10.332031 0.14887,1.78647 0.56669,3.013641 0.72656,3.332031 0.004,0.340222 0.0937,1.385518 0.0937,2.335938 a 4,4 0 0 0 4,4 4,4 0 0 0 4,-4 c 0,-1.333331 0.18586,-2.418647 -0.28516,-4.302734 -0.47102,-1.884123 -0.43249,-0.469164 -0.5625,-2.029297 -0.12996,-1.560147 -0.15229,-5.667977 -0.15229,-9.667969 a 4,4 0 0 0 -4,-4 z m -81.58789,3.017578 c 0.0224,0.0059 0.0114,0.0013 0.0352,0.0078 1.31806,0.359475 2.51517,0.752421 3.53515,1.089843 -0.009,2.069901 -0.0717,5.420609 -0.26172,6.560547 -0.064,0.384028 -0.0496,0.489444 -0.0352,0.515625 -0.0329,-0.02002 -0.18108,0.02529 -0.71875,0.742188 -0.34609,0.461452 -0.20187,0.386246 -0.19336,0.464844 -0.27265,0.04796 -1.2663,0.08288 -2.10547,-0.05469 -0.81395,-0.133434 -1.47438,-0.470156 -1.47266,-0.455078 -0.007,-0.03049 -0.0224,-0.08859 -0.0645,-0.298828 -0.0956,-0.478431 -0.1308,-1.423165 -0.1308,-2.589829 a 4,4 0 0 0 -0.3457,-1.59375 c 0.55358,-1.548393 1.13967,-3.258151 1.55273,-4.042969 0.12939,-0.245831 0.12705,-0.22121 0.20508,-0.345703 z m -72.759765,5.800781 c 0.744206,1.068146 1.344897,2.209689 1.802734,3.19336 -0.05811,0.01472 -0.06992,0.02336 -0.177734,0.04492 -0.245451,0.04909 -0.611704,-0.02716 -1.732422,0.533203 -0.01914,0.0096 -0.0036,0.0037 -0.01953,0.01172 z m 3.048828,11.123047 c -0.222676,0.09486 -0.168179,0.05128 0,0 z M 26.017079,107.00033 a 4,4 0 0 0 -2.001953,0.52734 4,4 0 0 0 -1.488281,5.45703 c 1.33333,2.33334 2.662372,4.7086 3.15039,5.80665 0.488023,1.09804 0.612743,2.1546 1.763672,3.99609 1.150935,1.8415 2.697996,3.62382 4.949219,6.83984 2.251224,3.21604 5.23171,7.85764 7.136719,11.19141 1.905008,3.33377 2.714388,5.33465 3.666015,7 0.321931,0.56338 0.6417,0.90681 0.958985,1.28906 0.0705,0.38362 0.150091,0.84856 0.333984,1.49219 0.443913,1.55369 1.132162,3.22005 1.798828,4.88672 a 4,4 0 0 0 5.201172,2.22851 4,4 0 0 0 2.228516,-5.20117 c -0.666667,-1.66667 -1.312402,-3.33364 -1.535156,-4.11328 -0.111377,-0.38982 -0.159361,-0.65565 -0.21875,-0.99219 -0.05939,-0.33654 0.0096,-0.74257 -0.550782,-1.86328 -0.560357,-1.12072 -1.166542,-1.49857 -1.144531,-1.47656 0.02201,0.022 0.0639,0.11524 -0.126953,-0.21875 -0.381703,-0.66798 -1.571032,-3.33378 -3.666016,-7 -2.094983,-3.66622 -5.113861,-8.35992 -7.529297,-11.81055 -2.415435,-3.45061 -4.20302,-5.66703 -4.71875,-6.49218 -0.515733,-0.82518 -0.391021,-1.10197 -1.236328,-3.00391 -0.84531,-1.90195 -2.182294,-4.19402 -3.515625,-6.52735 a 4,4 0 0 0 -2.419922,-1.875 4,4 0 0 0 -1.035156,-0.14062 z" />
  </g>
</svg>
