<?xml version="1.0" encoding="UTF-8" standalone="no"?>
<!-- Created with Inkscape (http://www.inkscape.org/) -->

<svg
   width="300"
   height="300"
   viewBox="0 0 300 300"
   version="1.1"
   id="svg1"
   inkscape:version="1.3.2 (091e20e, 2023-11-25, custom)"
   sodipodi:docname="nullPtr.svg"
   xmlns:inkscape="http://www.inkscape.org/namespaces/inkscape"
   xmlns:sodipodi="http://sodipodi.sourceforge.net/DTD/sodipodi-0.dtd"
   xmlns="http://www.w3.org/2000/svg"
   xmlns:svg="http://www.w3.org/2000/svg">
  <sodipodi:namedview
     id="namedview1"
     pagecolor="#ffffff"
     bordercolor="#000000"
     borderopacity="0.25"
     inkscape:showpageshadow="2"
     inkscape:pageopacity="0.0"
     inkscape:pagecheckerboard="0"
     inkscape:deskcolor="#d1d1d1"
     inkscape:document-units="px"
     inkscape:zoom="1"
     inkscape:cx="71"
     inkscape:cy="194.5"
     inkscape:window-width="1366"
     inkscape:window-height="705"
     inkscape:window-x="-8"
     inkscape:window-y="-8"
     inkscape:window-maximized="1"
     inkscape:current-layer="layer1" />
  <defs
     id="defs1">
    <inkscape:path-effect
       effect="bspline"
       id="path-effect58"
       is_visible="true"
       lpeversion="1.3"
       weight="33.333333"
       steps="2"
       helper_size="0"
       apply_no_weight="true"
       apply_with_weight="true"
       only_selected="false"
       uniform="false" />
    <inkscape:path-effect
       effect="bspline"
       id="path-effect57"
       is_visible="true"
       lpeversion="1.3"
       weight="33.333333"
       steps="2"
       helper_size="0"
       apply_no_weight="true"
       apply_with_weight="true"
       only_selected="false"
       uniform="false" />
    <inkscape:path-effect
       effect="bspline"
       id="path-effect56"
       is_visible="true"
       lpeversion="1.3"
       weight="33.333333"
       steps="2"
       helper_size="0"
       apply_no_weight="true"
       apply_with_weight="true"
       only_selected="false"
       uniform="false" />
    <inkscape:path-effect
       effect="bspline"
       id="path-effect55"
       is_visible="true"
       lpeversion="1.3"
       weight="33.333333"
       steps="2"
       helper_size="0"
       apply_no_weight="true"
       apply_with_weight="true"
       only_selected="false"
       uniform="false" />
    <inkscape:path-effect
       effect="bspline"
       id="path-effect54"
       is_visible="true"
       lpeversion="1.3"
       weight="33.333333"
       steps="2"
       helper_size="0"
       apply_no_weight="true"
       apply_with_weight="true"
       only_selected="false"
       uniform="false" />
    <inkscape:path-effect
       effect="bspline"
       id="path-effect53"
       is_visible="true"
       lpeversion="1.3"
       weight="33.333333"
       steps="2"
       helper_size="0"
       apply_no_weight="true"
       apply_with_weight="true"
       only_selected="false"
       uniform="false" />
    <inkscape:path-effect
       effect="bspline"
       id="path-effect52"
       is_visible="true"
       lpeversion="1.3"
       weight="33.333333"
       steps="2"
       helper_size="0"
       apply_no_weight="true"
       apply_with_weight="true"
       only_selected="false"
       uniform="false" />
    <inkscape:path-effect
       effect="bspline"
       id="path-effect51"
       is_visible="true"
       lpeversion="1.3"
       weight="33.333333"
       steps="2"
       helper_size="0"
       apply_no_weight="true"
       apply_with_weight="true"
       only_selected="false"
       uniform="false" />
    <inkscape:path-effect
       effect="bspline"
       id="path-effect50"
       is_visible="true"
       lpeversion="1.3"
       weight="33.333333"
       steps="2"
       helper_size="0"
       apply_no_weight="true"
       apply_with_weight="true"
       only_selected="false"
       uniform="false" />
    <inkscape:path-effect
       effect="bspline"
       id="path-effect49"
       is_visible="true"
       lpeversion="1.3"
       weight="33.333333"
       steps="2"
       helper_size="0"
       apply_no_weight="true"
       apply_with_weight="true"
       only_selected="false"
       uniform="false" />
    <inkscape:path-effect
       effect="bspline"
       id="path-effect48"
       is_visible="true"
       lpeversion="1.3"
       weight="33.333333"
       steps="2"
       helper_size="0"
       apply_no_weight="true"
       apply_with_weight="true"
       only_selected="false"
       uniform="false" />
    <inkscape:path-effect
       effect="bspline"
       id="path-effect47"
       is_visible="true"
       lpeversion="1.3"
       weight="33.333333"
       steps="2"
       helper_size="0"
       apply_no_weight="true"
       apply_with_weight="true"
       only_selected="false"
       uniform="false" />
    <inkscape:path-effect
       effect="bspline"
       id="path-effect46"
       is_visible="true"
       lpeversion="1.3"
       weight="33.333333"
       steps="2"
       helper_size="0"
       apply_no_weight="true"
       apply_with_weight="true"
       only_selected="false"
       uniform="false" />
    <inkscape:path-effect
       effect="bspline"
       id="path-effect38"
       is_visible="true"
       lpeversion="1.3"
       weight="33.333333"
       steps="2"
       helper_size="0"
       apply_no_weight="true"
       apply_with_weight="true"
       only_selected="false"
       uniform="false" />
    <inkscape:path-effect
       effect="bspline"
       id="path-effect45"
       is_visible="true"
       lpeversion="1.3"
       weight="33.333333"
       steps="2"
       helper_size="0"
       apply_no_weight="true"
       apply_with_weight="true"
       only_selected="false"
       uniform="false" />
    <inkscape:path-effect
       effect="bspline"
       id="path-effect44"
       is_visible="true"
       lpeversion="1.3"
       weight="33.333333"
       steps="2"
       helper_size="0"
       apply_no_weight="true"
       apply_with_weight="true"
       only_selected="false"
       uniform="false" />
    <inkscape:path-effect
       effect="bspline"
       id="path-effect43"
       is_visible="true"
       lpeversion="1.3"
       weight="33.333333"
       steps="2"
       helper_size="0"
       apply_no_weight="true"
       apply_with_weight="true"
       only_selected="false"
       uniform="false" />
    <inkscape:path-effect
       effect="bspline"
       id="path-effect42"
       is_visible="true"
       lpeversion="1.3"
       weight="33.333333"
       steps="2"
       helper_size="0"
       apply_no_weight="true"
       apply_with_weight="true"
       only_selected="false"
       uniform="false" />
    <inkscape:path-effect
       effect="bspline"
       id="path-effect41"
       is_visible="true"
       lpeversion="1.3"
       weight="33.333333"
       steps="2"
       helper_size="0"
       apply_no_weight="true"
       apply_with_weight="true"
       only_selected="false"
       uniform="false" />
    <inkscape:path-effect
       effect="bspline"
       id="path-effect40"
       is_visible="true"
       lpeversion="1.3"
       weight="33.333333"
       steps="2"
       helper_size="0"
       apply_no_weight="true"
       apply_with_weight="true"
       only_selected="false"
       uniform="false" />
    <inkscape:path-effect
       effect="bspline"
       id="path-effect39"
       is_visible="true"
       lpeversion="1.3"
       weight="33.333333"
       steps="2"
       helper_size="0"
       apply_no_weight="true"
       apply_with_weight="true"
       only_selected="false"
       uniform="false" />
    <inkscape:path-effect
       effect="bspline"
       id="path-effect37"
       is_visible="true"
       lpeversion="1.3"
       weight="33.333333"
       steps="2"
       helper_size="0"
       apply_no_weight="true"
       apply_with_weight="true"
       only_selected="false"
       uniform="false" />
    <inkscape:path-effect
       effect="bspline"
       id="path-effect36"
       is_visible="true"
       lpeversion="1.3"
       weight="33.333333"
       steps="2"
       helper_size="0"
       apply_no_weight="true"
       apply_with_weight="true"
       only_selected="false"
       uniform="false" />
    <inkscape:path-effect
       effect="bspline"
       id="path-effect35"
       is_visible="true"
       lpeversion="1.3"
       weight="33.333333"
       steps="2"
       helper_size="0"
       apply_no_weight="true"
       apply_with_weight="true"
       only_selected="false"
       uniform="false" />
    <inkscape:path-effect
       effect="bspline"
       id="path-effect34"
       is_visible="true"
       lpeversion="1.3"
       weight="33.333333"
       steps="2"
       helper_size="0"
       apply_no_weight="true"
       apply_with_weight="true"
       only_selected="false"
       uniform="false" />
    <inkscape:path-effect
       effect="bspline"
       id="path-effect33"
       is_visible="true"
       lpeversion="1.3"
       weight="33.333333"
       steps="2"
       helper_size="0"
       apply_no_weight="true"
       apply_with_weight="true"
       only_selected="false"
       uniform="false" />
    <inkscape:path-effect
       effect="bspline"
       id="path-effect32"
       is_visible="true"
       lpeversion="1.3"
       weight="33.333333"
       steps="2"
       helper_size="0"
       apply_no_weight="true"
       apply_with_weight="true"
       only_selected="false"
       uniform="false" />
    <inkscape:path-effect
       effect="bspline"
       id="path-effect31"
       is_visible="true"
       lpeversion="1.3"
       weight="33.333333"
       steps="2"
       helper_size="0"
       apply_no_weight="true"
       apply_with_weight="true"
       only_selected="false"
       uniform="false" />
    <inkscape:path-effect
       effect="bspline"
       id="path-effect30"
       is_visible="true"
       lpeversion="1.3"
       weight="33.333333"
       steps="2"
       helper_size="0"
       apply_no_weight="true"
       apply_with_weight="true"
       only_selected="false"
       uniform="false" />
    <inkscape:path-effect
       effect="bspline"
       id="path-effect29"
       is_visible="true"
       lpeversion="1.3"
       weight="33.333333"
       steps="2"
       helper_size="0"
       apply_no_weight="true"
       apply_with_weight="true"
       only_selected="false"
       uniform="false" />
    <inkscape:path-effect
       effect="bspline"
       id="path-effect28"
       is_visible="true"
       lpeversion="1.3"
       weight="33.333333"
       steps="2"
       helper_size="0"
       apply_no_weight="true"
       apply_with_weight="true"
       only_selected="false"
       uniform="false" />
    <inkscape:path-effect
       effect="bspline"
       id="path-effect27"
       is_visible="true"
       lpeversion="1.3"
       weight="33.333333"
       steps="2"
       helper_size="0"
       apply_no_weight="true"
       apply_with_weight="true"
       only_selected="false"
       uniform="false" />
    <inkscape:path-effect
       effect="bspline"
       id="path-effect26"
       is_visible="true"
       lpeversion="1.3"
       weight="33.333333"
       steps="2"
       helper_size="0"
       apply_no_weight="true"
       apply_with_weight="true"
       only_selected="false"
       uniform="false" />
    <inkscape:path-effect
       effect="bspline"
       id="path-effect25"
       is_visible="true"
       lpeversion="1.3"
       weight="33.333333"
       steps="2"
       helper_size="0"
       apply_no_weight="true"
       apply_with_weight="true"
       only_selected="false"
       uniform="false" />
    <inkscape:path-effect
       effect="bspline"
       id="path-effect24"
       is_visible="true"
       lpeversion="1.3"
       weight="33.333333"
       steps="2"
       helper_size="0"
       apply_no_weight="true"
       apply_with_weight="true"
       only_selected="false"
       uniform="false" />
    <inkscape:path-effect
       effect="bspline"
       id="path-effect23"
       is_visible="true"
       lpeversion="1.3"
       weight="33.333333"
       steps="2"
       helper_size="0"
       apply_no_weight="true"
       apply_with_weight="true"
       only_selected="false"
       uniform="false" />
    <inkscape:path-effect
       effect="bspline"
       id="path-effect22"
       is_visible="true"
       lpeversion="1.3"
       weight="33.333333"
       steps="2"
       helper_size="0"
       apply_no_weight="true"
       apply_with_weight="true"
       only_selected="false"
       uniform="false" />
    <inkscape:path-effect
       effect="bspline"
       id="path-effect21"
       is_visible="true"
       lpeversion="1.3"
       weight="33.333333"
       steps="2"
       helper_size="0"
       apply_no_weight="true"
       apply_with_weight="true"
       only_selected="false"
       uniform="false" />
    <inkscape:path-effect
       effect="bspline"
       id="path-effect20"
       is_visible="true"
       lpeversion="1.3"
       weight="33.333333"
       steps="2"
       helper_size="0"
       apply_no_weight="true"
       apply_with_weight="true"
       only_selected="false"
       uniform="false" />
    <inkscape:path-effect
       effect="bspline"
       id="path-effect19"
       is_visible="true"
       lpeversion="1.3"
       weight="33.333333"
       steps="2"
       helper_size="0"
       apply_no_weight="true"
       apply_with_weight="true"
       only_selected="false"
       uniform="false" />
    <inkscape:path-effect
       effect="bspline"
       id="path-effect18"
       is_visible="true"
       lpeversion="1.3"
       weight="33.333333"
       steps="2"
       helper_size="0"
       apply_no_weight="true"
       apply_with_weight="true"
       only_selected="false"
       uniform="false" />
    <inkscape:path-effect
       effect="bspline"
       id="path-effect17"
       is_visible="true"
       lpeversion="1.3"
       weight="33.333333"
       steps="2"
       helper_size="0"
       apply_no_weight="true"
       apply_with_weight="true"
       only_selected="false"
       uniform="false" />
    <inkscape:path-effect
       effect="bspline"
       id="path-effect16"
       is_visible="true"
       lpeversion="1.3"
       weight="33.333333"
       steps="2"
       helper_size="0"
       apply_no_weight="true"
       apply_with_weight="true"
       only_selected="false"
       uniform="false" />
    <inkscape:path-effect
       effect="bspline"
       id="path-effect15"
       is_visible="true"
       lpeversion="1.3"
       weight="33.333333"
       steps="2"
       helper_size="0"
       apply_no_weight="true"
       apply_with_weight="true"
       only_selected="false"
       uniform="false" />
    <inkscape:path-effect
       effect="bspline"
       id="path-effect14"
       is_visible="true"
       lpeversion="1.3"
       weight="33.333333"
       steps="2"
       helper_size="0"
       apply_no_weight="true"
       apply_with_weight="true"
       only_selected="false"
       uniform="false" />
    <inkscape:path-effect
       effect="bspline"
       id="path-effect13"
       is_visible="true"
       lpeversion="1.3"
       weight="33.333333"
       steps="2"
       helper_size="0"
       apply_no_weight="true"
       apply_with_weight="true"
       only_selected="false"
       uniform="false" />
    <inkscape:path-effect
       effect="bspline"
       id="path-effect12"
       is_visible="true"
       lpeversion="1.3"
       weight="33.333333"
       steps="2"
       helper_size="0"
       apply_no_weight="true"
       apply_with_weight="true"
       only_selected="false"
       uniform="false" />
    <inkscape:path-effect
       effect="bspline"
       id="path-effect11"
       is_visible="true"
       lpeversion="1.3"
       weight="33.333333"
       steps="2"
       helper_size="0"
       apply_no_weight="true"
       apply_with_weight="true"
       only_selected="false"
       uniform="false" />
    <inkscape:path-effect
       effect="bspline"
       id="path-effect10"
       is_visible="true"
       lpeversion="1.3"
       weight="33.333333"
       steps="2"
       helper_size="0"
       apply_no_weight="true"
       apply_with_weight="true"
       only_selected="false"
       uniform="false" />
    <inkscape:path-effect
       effect="bspline"
       id="path-effect9"
       is_visible="true"
       lpeversion="1.3"
       weight="33.333333"
       steps="2"
       helper_size="0"
       apply_no_weight="true"
       apply_with_weight="true"
       only_selected="false"
       uniform="false" />
    <inkscape:path-effect
       effect="bspline"
       id="path-effect8"
       is_visible="true"
       lpeversion="1.3"
       weight="33.333333"
       steps="2"
       helper_size="0"
       apply_no_weight="true"
       apply_with_weight="true"
       only_selected="false"
       uniform="false" />
    <inkscape:path-effect
       effect="bspline"
       id="path-effect7"
       is_visible="true"
       lpeversion="1.3"
       weight="33.333333"
       steps="2"
       helper_size="0"
       apply_no_weight="true"
       apply_with_weight="true"
       only_selected="false"
       uniform="false" />
    <inkscape:path-effect
       effect="bspline"
       id="path-effect6"
       is_visible="true"
       lpeversion="1.3"
       weight="33.333333"
       steps="2"
       helper_size="0"
       apply_no_weight="true"
       apply_with_weight="true"
       only_selected="false"
       uniform="false" />
    <inkscape:path-effect
       effect="bspline"
       id="path-effect5"
       is_visible="true"
       lpeversion="1.3"
       weight="33.333333"
       steps="2"
       helper_size="0"
       apply_no_weight="true"
       apply_with_weight="true"
       only_selected="false"
       uniform="false" />
    <inkscape:path-effect
       effect="bspline"
       id="path-effect4"
       is_visible="true"
       lpeversion="1.3"
       weight="33.333333"
       steps="2"
       helper_size="0"
       apply_no_weight="true"
       apply_with_weight="true"
       only_selected="false"
       uniform="false" />
    <inkscape:path-effect
       effect="bspline"
       id="path-effect3"
       is_visible="true"
       lpeversion="1.3"
       weight="33.333333"
       steps="2"
       helper_size="0"
       apply_no_weight="true"
       apply_with_weight="true"
       only_selected="false"
       uniform="false" />
    <inkscape:path-effect
       effect="bspline"
       id="path-effect2"
       is_visible="true"
       lpeversion="1.3"
       weight="33.333333"
       steps="2"
       helper_size="0"
       apply_no_weight="true"
       apply_with_weight="true"
       only_selected="false"
       uniform="false" />
    <inkscape:path-effect
       effect="bspline"
       id="path-effect1"
       is_visible="true"
       lpeversion="1.3"
       weight="33.333333"
       steps="2"
       helper_size="0"
       apply_no_weight="true"
       apply_with_weight="true"
       only_selected="false"
       uniform="false" />
  </defs>
  <g
     inkscape:label="Layer 1"
     inkscape:groupmode="layer"
     id="layer1">
    <path
       id="path53"
       style="color:#000000;fill:#000000;stroke-linecap:round;stroke-linejoin:round;-inkscape-stroke:none"
       d="m 255.5,23 c -8.16665,0 -19.93017,-0.0025 -31.94727,0.84375 -12.01708,0.846274 -24.0839,2.524452 -30.50976,3.539062 -3.21294,0.507307 -5.03325,0.847042 -6.34961,1.169922 -1.31637,0.322882 -2.22846,0.705612 -2.76953,0.9375 -1.08215,0.463779 -2.60582,1.076939 -5.52149,2.048828 -2.91566,0.97189 -7.45035,2.363389 -12.53906,4.644532 -5.0887,2.281142 -10.48289,5.325552 -15.29492,7.980468 -4.81204,2.654918 -9.08942,4.940855 -11.73047,6.638672 -2.64105,1.697819 -3.19416,2.554097 -5.10937,4.027344 -1.91523,1.473249 -5.93529,4.150187 -8.53321,6.191406 -2.5979,2.041219 -3.51796,3.278898 -4.49609,4.134766 -0.97814,0.855867 -3.08567,2.294818 -5.88867,4.572266 -2.80302,2.277447 -6.18815,5.324862 -8.97266,8.109375 -2.78451,2.784511 -4.84511,5.172389 -6.037109,6.761718 -1.191998,1.589331 -1.087004,1.770866 -2.257812,3.234375 -1.170809,1.463512 -3.901765,4.51794 -5.798828,7.173828 -1.897064,2.65589 -2.860735,4.790131 -3.072266,5.107418 -0.105763,0.15865 -0.196997,0.25289 -0.583984,0.66407 -0.386989,0.41117 -1.023671,1.13077 -1.560547,2.07031 -1.073752,1.87907 -1.600782,3.65254 -2.373047,5.06836 -0.772265,1.41582 -2.220206,3.26853 -3.732422,6.29297 -1.512216,3.02442 -2.844371,6.72715 -3.919922,9.18554 -1.075551,2.45841 -2.011282,4.01086 -3.246094,6.48047 -1.234811,2.46963 -2.723065,5.79633 -3.65625,9.90235 -0.933184,4.106 -1.253711,8.47929 -1.878906,12.23047 -0.625195,3.75116 -1.660725,7.55674 -2.197265,12.56445 -0.53654,5.0077 -0.524956,10.73197 -0.6875,15.2832 -0.01937,0.54223 -0.05645,0.98821 -0.08008,1.50781 -2.201097,-0.0698 -4.223971,-0.14777 -6.154297,-0.19726 C 52.059542,181.00022 47.999344,181 45.666016,181 H 42.5 c -0.02083,0 0.128463,-0.0384 -0.458984,0.0234 -0.07343,0.008 -0.165408,0.0174 -0.304688,0.043 -0.13928,0.0256 -0.632459,0.17174 -0.632812,0.17187 -1.77e-4,6e-5 -0.597531,0.27142 -0.597657,0.27149 -1.25e-4,7e-5 -0.919847,0.705 -0.919921,0.70507 -7.4e-5,8e-5 -0.972632,1.67179 -0.972657,1.67188 -2.4e-5,8e-5 -0.01174,2.18545 -0.01172,2.18555 2.6e-5,9e-5 0.658129,1.33583 0.658204,1.33593 7.4e-5,1e-4 0.572142,0.61318 0.572265,0.61328 2.35e-4,2.1e-4 0.4506,0.3345 0.621094,0.43946 -0.137117,-0.0348 0.20319,0.6143 1.480469,1.57226 1.182508,0.88689 1.651277,0.99307 1.826172,1.00782 0.1109,0.1274 -0.01853,0.0244 0.578125,0.62109 0.741287,0.74128 0.858089,0.65727 1.021484,0.69141 -0.106898,-0.0986 0.532361,0.86049 1.646484,1.9746 0.47629,0.47629 0.961995,0.7696 1.292969,0.96876 -0.387085,-0.3508 0.508657,0.84985 2.066406,2.21289 1.653011,1.44637 4.032043,3.14716 4.865235,3.86132 0.41659,0.35708 0.481277,0.44586 0.789062,0.7793 0.307787,0.33344 1.002914,0.99355 1.75586,1.44531 1.505867,0.90352 2.794983,1.36984 3.839843,2.06641 1.044858,0.69657 2.223312,1.83269 3.556641,3.16601 0.461077,0.31644 0.983382,0.53268 1.533203,0.63477 0.481348,0.37268 0.96175,0.76705 1.617188,0.91602 1.761788,0.4004 2.947646,-0.21021 3.699218,-0.63086 0.751573,-0.42066 1.28909,-0.85517 1.873047,-1.3418 2.33583,-1.94653 5.642115,-5.27497 7.296875,-6.7793 1.654762,-1.50433 1.832635,-1.32677 2.970703,-2.46484 1.138071,-1.13807 2.043795,-2.37778 2.5,-2.83399 0.456206,-0.45619 1.736793,-1.29866 2.810547,-3.17773 0.536877,-0.93953 0.971412,-1.96602 1.267578,-3.18359 0.296167,-1.21758 0.714967,-2.66577 -0.330078,-4.75586 -0.522521,-1.04505 -1.603311,-1.993 -2.53125,-2.42188 -0.927939,-0.42888 -1.699929,-0.55325 -2.478515,-0.65234 -1.557174,-0.19819 -3.287746,-0.21786 -5.941407,-0.30078 -1.706651,-0.0533 -4.440324,-0.1379 -6.707031,-0.21485 0.02383,-0.53033 0.05821,-0.9208 0.07813,-1.47851 0.170789,-4.78209 0.183026,-10.39118 0.646484,-14.7168 0.46346,-4.32561 1.426631,-7.85276 2.134766,-12.10156 0.708136,-4.24882 1.055583,-8.54418 1.789063,-11.77149 0.733478,-3.22729 1.911247,-5.90061 3.009765,-8.09765 1.098519,-2.19704 2.164096,-3.97665 3.421875,-6.85156 1.257781,-2.87493 2.591647,-6.50556 3.746094,-8.81446 1.154448,-2.30889 2.371878,-3.79018 3.599609,-6.04101 1.227733,-2.25085 2.035345,-4.47543 2.294922,-4.92969 0.129788,-0.22713 0.159776,-0.25948 0.439453,-0.55664 0.279679,-0.29716 0.855114,-0.86763 1.416016,-1.70899 1.1218,-1.68269 1.491471,-2.88376 2.927734,-4.894527 1.436264,-2.010768 4.039301,-4.956356 5.535161,-6.826172 1.49584,-1.869816 1.6002,-2.35431 2.4082,-3.43164 0.808,-1.077332 2.74611,-3.357441 5.29492,-5.90625 2.54881,-2.54881 5.83102,-5.500766 8.36133,-7.556641 2.53031,-2.055875 4.4228,-3.282302 6.11133,-4.759766 1.68853,-1.477461 2.10313,-2.239792 4.17187,-3.865234 2.06875,-1.625441 6.0487,-4.282501 8.4668,-6.142578 2.4181,-1.860078 2.53103,-2.336499 4.55664,-3.638672 2.02561,-1.302174 6.41493,-3.682926 11.26953,-6.361328 4.85461,-2.678403 10.12714,-5.635321 14.70508,-7.6875 4.57793,-2.05218 8.7106,-3.325408 11.79492,-4.353516 3.08432,-1.028107 4.89335,-1.748934 6.14453,-2.285156 0.6256,-0.268111 0.63148,-0.302702 1.52344,-0.521484 0.89196,-0.218784 2.57101,-0.544416 5.69141,-1.03711 6.24077,-0.985386 18.17469,-2.640548 29.82421,-3.460937 C 235.76477,31.003839 247.33335,31 255.5,31 c 8.16665,0 12.84072,0.0062 15.61133,0.160156 2.7706,0.153922 3.58464,0.387372 4.91797,0.720703 2.14338,0.536349 4.31566,-0.76667 4.85156,-2.910156 0.53635,-2.143377 -0.76667,-4.315659 -2.91016,-4.851562 -1.33333,-0.333333 -3.18663,-0.767856 -6.41601,-0.947266 C 268.3253,22.992465 263.66665,23 255.5,23 Z M 44.115234,181.37109 c 0.07857,0.0325 0.126303,0.0458 0.314454,0.15235 0.144175,0.0817 0.650637,0.4592 0.65039,0.45898 -1.5e-5,-1e-5 0.05385,0.0587 0.06836,0.0742 -0.37055,-0.25577 -0.763654,-0.57401 -1.033204,-0.68555 z M 81,225 c -2.209139,0 -4,1.79086 -4,4 0,9.99997 -0.04688,20.00198 -0.953125,25.89258 -0.906243,5.89057 -2.184183,7.53992 -4.527344,9.60742 -2.048057,1.80711 -4.811768,3.38657 -6.769531,4.36719 -0.122863,-0.36166 -0.195171,-0.78093 -0.257812,-1.78321 -0.129126,-2.06599 0.164679,-6.46414 0.335937,-10.06054 0.171258,-3.59642 0.166635,-6.08067 0.642578,-10.04688 0.475945,-3.96619 1.468753,-9.61458 2.46875,-15.28125 0.384208,-2.17574 -1.068333,-4.25092 -3.244141,-4.63476 -2.175744,-0.38421 -4.250928,1.06833 -4.634765,3.24414 -0.999998,5.66664 -2.007198,11.35163 -2.53125,15.71875 -0.524054,4.3671 -0.529333,7.21556 -0.691406,10.61914 -0.162075,3.40355 -0.534284,7.67214 -0.330079,10.93945 0.204207,3.26731 1.385186,5.58601 1.445313,5.73633 0.03007,0.0752 0.06409,0.20959 0.181641,0.65039 0.117546,0.4408 0.261637,1.41593 1.371093,2.52539 1.10947,1.10948 3.254155,1.48 4.408203,1.2793 1.154051,-0.20071 2.036659,-0.57521 3.261719,-1.14063 2.450121,-1.13082 6.313229,-3.20031 9.636719,-6.13281 3.323491,-2.9325 6.046874,-7.2832 7.140625,-14.39258 C 85.046876,248.99805 85,238.99997 85,229 c 0,-2.20914 -1.790861,-4 -4,-4 z m 16.222656,1.00586 c -2.205969,-0.12316 -4.094009,1.56549 -4.216797,3.77148 -0.666664,11.99997 -1.339843,23.96872 -1.339843,31.22266 0,3.62698 0.05133,6.16619 0.984375,8.6543 0.933038,2.48808 3.407871,4.45384 5.644531,5.16015 4.473338,1.41263 10.023628,1.1901 13.728518,1.01367 3.70487,-0.1764 5.61394,-0.61393 6.94726,-0.94726 2.14349,-0.5359 3.44651,-2.70818 2.91016,-4.85156 -0.5359,-2.14349 -2.70818,-3.44651 -4.85156,-2.91016 -1.33333,0.33333 -2.09164,0.56184 -5.38672,0.71875 -3.2951,0.15691 -9.07751,-0.065 -10.9375,-0.65234 -0.4266,-0.13472 -0.52449,-0.10701 -0.54102,-0.0898 0.0203,-0.0151 0.0429,-0.0732 -0.0234,-0.25 -0.191946,-0.51189 -0.474604,-2.47269 -0.474604,-5.8457 0,-6.74601 0.661454,-18.7774 1.328124,-30.77734 0.12316,-2.20597 -1.565491,-4.09401 -3.771484,-4.2168 z m -47.6875,1.02148 c -1.721139,0.2015 -3.116792,1.48834 -3.457031,3.1875 l -2.667969,13.33399 c -0.666664,3.33331 -0.912052,4.61965 -1.822265,7.04687 -0.264938,0.7065 -0.677057,1.71668 -1.044922,2.62305 -0.349993,-0.85486 -0.569365,-1.26353 -1.929688,-5.19336 -0.740779,-2.14003 -1.790163,-5.24903 -2.855469,-8.16797 -1.065303,-2.91894 -1.981684,-5.44866 -3.162109,-7.41601 -0.295107,-0.49185 -0.594826,-0.96623 -1.189453,-1.5293 -0.594627,-0.56307 -1.798832,-1.45724 -3.582031,-1.26953 -1.783199,0.1877 -2.887927,1.43219 -3.332031,2.16211 -0.444105,0.72991 -0.585467,1.26197 -0.71875,1.77734 -0.533139,2.06147 -0.59892,4.24896 -0.767579,7.36914 -0.337314,6.24036 -0.670573,15.57295 -1.003906,24.90625 -0.07908,2.20819 1.64726,4.06221 3.855469,4.14063 2.208184,0.0791 4.062202,-1.64726 4.140625,-3.85547 0.223554,-6.25952 0.445408,-11.32328 0.667969,-16.60547 0.113983,0.33125 0.282355,0.80397 0.386718,1.10547 1.518434,4.38657 1.967392,5.34718 2.232422,6.00976 0.265032,0.66258 0.518048,1.3986 0.810547,2.71485 0.292499,1.31624 0.640144,3.38658 1.173828,5.69922 0.266843,1.15632 0.565389,2.34071 0.914063,3.38671 0.174337,0.52302 0.311296,0.96642 0.703125,1.6543 0.195914,0.34394 0.339514,0.79633 1.332031,1.49805 0.49626,0.35086 1.361878,0.79158 2.5,0.75781 1.138122,-0.0338 2.22423,-0.65001 2.775391,-1.20117 1.102315,-1.10232 1.030119,-1.61902 1.136718,-2.00195 0.1066,-0.38294 0.151102,-0.64973 0.19336,-0.91797 0.08452,-0.53649 0.138314,-1.05312 0.208984,-1.63867 0.14134,-1.1711 0.333455,-2.57406 0.681641,-3.9668 0.69637,-2.78549 2.273498,-6.32635 3.363281,-9.23242 1.089782,-2.9061 1.51107,-4.9538 2.177734,-8.28711 l 2.666016,-13.33203 c 0.433457,-2.16596 -0.970824,-4.27326 -3.136719,-4.70704 -0.411424,-0.0824 -0.833249,-0.0995 -1.25,-0.0508 z m 84.132814,2.98633 c -2.20163,0.1833 -3.83775,2.11675 -3.6543,4.31836 0.33333,4 0.66287,7.97413 0.82422,11.20117 0.16135,3.22707 0.15608,5.97899 0.52344,9.10157 0.36736,3.12255 1.02906,6.09753 1.33008,8.80664 0.30101,2.70908 0.26869,5.41822 0.5,7.5 0.11565,1.04089 0.298,2.35651 1.43164,3.60351 1.13364,1.247 2.14472,1.4036 2.39062,1.50196 0.49182,0.19671 2.89856,1.23456 6.95703,1.60351 C 148.02919,278.01934 154.00003,278 160,278 c 2.20914,0 4,-1.79086 4,-4 0,-2.20914 -1.79086,-4 -4,-4 -5.99997,0 -12.02985,-0.0187 -15.30469,-0.31641 -2.1373,-0.1943 -2.95961,-0.40676 -3.62109,-0.64843 -0.0782,-1.31395 -0.11588,-3.63475 -0.43164,-6.47657 -0.36566,-3.29087 -1.03664,-6.31528 -1.33594,-8.85937 -0.2993,-2.54409 -0.30654,-5.12681 -0.47852,-8.56641 -0.17195,-3.43958 -0.50846,-7.46487 -0.84179,-11.46484 -0.1833,-2.20163 -2.11675,-3.83775 -4.31836,-3.6543 z"
       sodipodi:nodetypes="sssssssssssssssssssssssssssscssscsssssssscscscscsssssccsssssssssssscsssssssssssssssssssssssssssssccsssccsccsssscssscccssssssssssssccsssssccsscsscccccscssssssssccccssssssssssssssccsccsssssssssssscssscc" />
  </g>
</svg>
