<?xml version="1.0" encoding="UTF-8" standalone="no"?>
<!-- Created with Inkscape (http://www.inkscape.org/) -->

<svg
   width="300"
   height="300"
   viewBox="0 0 300 300"
   version="1.1"
   id="svg1"
   inkscape:version="1.3.2 (091e20e, 2023-11-25, custom)"
   sodipodi:docname="printerJam.svg"
   xml:space="preserve"
   xmlns:inkscape="http://www.inkscape.org/namespaces/inkscape"
   xmlns:sodipodi="http://sodipodi.sourceforge.net/DTD/sodipodi-0.dtd"
   xmlns="http://www.w3.org/2000/svg"
   xmlns:svg="http://www.w3.org/2000/svg"><sodipodi:namedview
     id="namedview1"
     pagecolor="#ffffff"
     bordercolor="#000000"
     borderopacity="0.25"
     inkscape:showpageshadow="2"
     inkscape:pageopacity="0.0"
     inkscape:pagecheckerboard="0"
     inkscape:deskcolor="#d1d1d1"
     inkscape:document-units="px"
     inkscape:zoom="1"
     inkscape:cx="150"
     inkscape:cy="151.5"
     inkscape:window-width="1366"
     inkscape:window-height="705"
     inkscape:window-x="-8"
     inkscape:window-y="-8"
     inkscape:window-maximized="1"
     inkscape:current-layer="layer1" /><defs
     id="defs1"><inkscape:path-effect
       effect="bspline"
       id="path-effect125"
       is_visible="true"
       lpeversion="1.3"
       weight="33.333333"
       steps="2"
       helper_size="0"
       apply_no_weight="true"
       apply_with_weight="true"
       only_selected="false"
       uniform="false" /><inkscape:path-effect
       effect="bspline"
       id="path-effect124"
       is_visible="true"
       lpeversion="1.3"
       weight="33.333333"
       steps="2"
       helper_size="0"
       apply_no_weight="true"
       apply_with_weight="true"
       only_selected="false"
       uniform="false" /><inkscape:path-effect
       effect="bspline"
       id="path-effect123"
       is_visible="true"
       lpeversion="1.3"
       weight="33.333333"
       steps="2"
       helper_size="0"
       apply_no_weight="true"
       apply_with_weight="true"
       only_selected="false"
       uniform="false" /><inkscape:path-effect
       effect="bspline"
       id="path-effect122"
       is_visible="true"
       lpeversion="1.3"
       weight="33.333333"
       steps="2"
       helper_size="0"
       apply_no_weight="true"
       apply_with_weight="true"
       only_selected="false"
       uniform="false" /><inkscape:path-effect
       effect="bspline"
       id="path-effect121"
       is_visible="true"
       lpeversion="1.3"
       weight="33.333333"
       steps="2"
       helper_size="0"
       apply_no_weight="true"
       apply_with_weight="true"
       only_selected="false"
       uniform="false" /><inkscape:path-effect
       effect="bspline"
       id="path-effect120"
       is_visible="true"
       lpeversion="1.3"
       weight="33.333333"
       steps="2"
       helper_size="0"
       apply_no_weight="true"
       apply_with_weight="true"
       only_selected="false"
       uniform="false" /><inkscape:path-effect
       effect="bspline"
       id="path-effect119"
       is_visible="true"
       lpeversion="1.3"
       weight="33.333333"
       steps="2"
       helper_size="0"
       apply_no_weight="true"
       apply_with_weight="true"
       only_selected="false"
       uniform="false" /><inkscape:path-effect
       effect="bspline"
       id="path-effect118"
       is_visible="true"
       lpeversion="1.3"
       weight="33.333333"
       steps="2"
       helper_size="0"
       apply_no_weight="true"
       apply_with_weight="true"
       only_selected="false"
       uniform="false" /><inkscape:path-effect
       effect="bspline"
       id="path-effect117"
       is_visible="true"
       lpeversion="1.3"
       weight="33.333333"
       steps="2"
       helper_size="0"
       apply_no_weight="true"
       apply_with_weight="true"
       only_selected="false"
       uniform="false" /><inkscape:path-effect
       effect="bspline"
       id="path-effect116"
       is_visible="true"
       lpeversion="1.3"
       weight="33.333333"
       steps="2"
       helper_size="0"
       apply_no_weight="true"
       apply_with_weight="true"
       only_selected="false"
       uniform="false" /><inkscape:path-effect
       effect="bspline"
       id="path-effect115"
       is_visible="true"
       lpeversion="1.3"
       weight="33.333333"
       steps="2"
       helper_size="0"
       apply_no_weight="true"
       apply_with_weight="true"
       only_selected="false"
       uniform="false" /><inkscape:path-effect
       effect="bspline"
       id="path-effect114"
       is_visible="true"
       lpeversion="1.3"
       weight="33.333333"
       steps="2"
       helper_size="0"
       apply_no_weight="true"
       apply_with_weight="true"
       only_selected="false"
       uniform="false" /><inkscape:path-effect
       effect="bspline"
       id="path-effect113"
       is_visible="true"
       lpeversion="1.3"
       weight="33.333333"
       steps="2"
       helper_size="0"
       apply_no_weight="true"
       apply_with_weight="true"
       only_selected="false"
       uniform="false" /><inkscape:path-effect
       effect="bspline"
       id="path-effect112"
       is_visible="true"
       lpeversion="1.3"
       weight="33.333333"
       steps="2"
       helper_size="0"
       apply_no_weight="true"
       apply_with_weight="true"
       only_selected="false"
       uniform="false" /><inkscape:path-effect
       effect="bspline"
       id="path-effect111"
       is_visible="true"
       lpeversion="1.3"
       weight="33.333333"
       steps="2"
       helper_size="0"
       apply_no_weight="true"
       apply_with_weight="true"
       only_selected="false"
       uniform="false" /><inkscape:path-effect
       effect="bspline"
       id="path-effect110"
       is_visible="true"
       lpeversion="1.3"
       weight="33.333333"
       steps="2"
       helper_size="0"
       apply_no_weight="true"
       apply_with_weight="true"
       only_selected="false"
       uniform="false" /><inkscape:path-effect
       effect="bspline"
       id="path-effect109"
       is_visible="true"
       lpeversion="1.3"
       weight="33.333333"
       steps="2"
       helper_size="0"
       apply_no_weight="true"
       apply_with_weight="true"
       only_selected="false"
       uniform="false" /><inkscape:path-effect
       effect="bspline"
       id="path-effect108"
       is_visible="true"
       lpeversion="1.3"
       weight="33.333333"
       steps="2"
       helper_size="0"
       apply_no_weight="true"
       apply_with_weight="true"
       only_selected="false"
       uniform="false" /><inkscape:path-effect
       effect="bspline"
       id="path-effect107"
       is_visible="true"
       lpeversion="1.3"
       weight="33.333333"
       steps="2"
       helper_size="0"
       apply_no_weight="true"
       apply_with_weight="true"
       only_selected="false"
       uniform="false" /><inkscape:path-effect
       effect="bspline"
       id="path-effect106"
       is_visible="true"
       lpeversion="1.3"
       weight="33.333333"
       steps="2"
       helper_size="0"
       apply_no_weight="true"
       apply_with_weight="true"
       only_selected="false"
       uniform="false" /><inkscape:path-effect
       effect="bspline"
       id="path-effect104"
       is_visible="true"
       lpeversion="1.3"
       weight="33.333333"
       steps="2"
       helper_size="0"
       apply_no_weight="true"
       apply_with_weight="true"
       only_selected="false"
       uniform="false" /><inkscape:path-effect
       effect="bspline"
       id="path-effect103"
       is_visible="true"
       lpeversion="1.3"
       weight="33.333333"
       steps="2"
       helper_size="0"
       apply_no_weight="true"
       apply_with_weight="true"
       only_selected="false"
       uniform="false" /><inkscape:path-effect
       effect="bspline"
       id="path-effect102"
       is_visible="true"
       lpeversion="1.3"
       weight="33.333333"
       steps="2"
       helper_size="0"
       apply_no_weight="true"
       apply_with_weight="true"
       only_selected="false"
       uniform="false" /><inkscape:path-effect
       effect="bspline"
       id="path-effect101"
       is_visible="true"
       lpeversion="1.3"
       weight="33.333333"
       steps="2"
       helper_size="0"
       apply_no_weight="true"
       apply_with_weight="true"
       only_selected="false"
       uniform="false" /><inkscape:path-effect
       effect="bspline"
       id="path-effect100"
       is_visible="true"
       lpeversion="1.3"
       weight="33.333333"
       steps="2"
       helper_size="0"
       apply_no_weight="true"
       apply_with_weight="true"
       only_selected="false"
       uniform="false" /><inkscape:path-effect
       effect="bspline"
       id="path-effect99"
       is_visible="true"
       lpeversion="1.3"
       weight="33.333333"
       steps="2"
       helper_size="0"
       apply_no_weight="true"
       apply_with_weight="true"
       only_selected="false"
       uniform="false" /><inkscape:path-effect
       effect="bspline"
       id="path-effect98"
       is_visible="true"
       lpeversion="1.3"
       weight="33.333333"
       steps="2"
       helper_size="0"
       apply_no_weight="true"
       apply_with_weight="true"
       only_selected="false"
       uniform="false" /><inkscape:path-effect
       effect="bspline"
       id="path-effect97"
       is_visible="true"
       lpeversion="1.3"
       weight="33.333333"
       steps="2"
       helper_size="0"
       apply_no_weight="true"
       apply_with_weight="true"
       only_selected="false"
       uniform="false" /><inkscape:path-effect
       effect="bspline"
       id="path-effect96"
       is_visible="true"
       lpeversion="1.3"
       weight="33.333333"
       steps="2"
       helper_size="0"
       apply_no_weight="true"
       apply_with_weight="true"
       only_selected="false"
       uniform="false" /><inkscape:path-effect
       effect="bspline"
       id="path-effect95"
       is_visible="true"
       lpeversion="1.3"
       weight="33.333333"
       steps="2"
       helper_size="0"
       apply_no_weight="true"
       apply_with_weight="true"
       only_selected="false"
       uniform="false" /><inkscape:path-effect
       effect="bspline"
       id="path-effect94"
       is_visible="true"
       lpeversion="1.3"
       weight="33.333333"
       steps="2"
       helper_size="0"
       apply_no_weight="true"
       apply_with_weight="true"
       only_selected="false"
       uniform="false" /><inkscape:path-effect
       effect="bspline"
       id="path-effect93"
       is_visible="true"
       lpeversion="1.3"
       weight="33.333333"
       steps="2"
       helper_size="0"
       apply_no_weight="true"
       apply_with_weight="true"
       only_selected="false"
       uniform="false" /><inkscape:path-effect
       effect="bspline"
       id="path-effect92"
       is_visible="true"
       lpeversion="1.3"
       weight="33.333333"
       steps="2"
       helper_size="0"
       apply_no_weight="true"
       apply_with_weight="true"
       only_selected="false"
       uniform="false" /><inkscape:path-effect
       effect="bspline"
       id="path-effect91"
       is_visible="true"
       lpeversion="1.3"
       weight="33.333333"
       steps="2"
       helper_size="0"
       apply_no_weight="true"
       apply_with_weight="true"
       only_selected="false"
       uniform="false" /><inkscape:path-effect
       effect="bspline"
       id="path-effect90"
       is_visible="true"
       lpeversion="1.3"
       weight="33.333333"
       steps="2"
       helper_size="0"
       apply_no_weight="true"
       apply_with_weight="true"
       only_selected="false"
       uniform="false" /><inkscape:path-effect
       effect="bspline"
       id="path-effect89"
       is_visible="true"
       lpeversion="1.3"
       weight="33.333333"
       steps="2"
       helper_size="0"
       apply_no_weight="true"
       apply_with_weight="true"
       only_selected="false"
       uniform="false" /><inkscape:path-effect
       effect="bspline"
       id="path-effect88"
       is_visible="true"
       lpeversion="1.3"
       weight="33.333333"
       steps="2"
       helper_size="0"
       apply_no_weight="true"
       apply_with_weight="true"
       only_selected="false"
       uniform="false" /><inkscape:path-effect
       effect="bspline"
       id="path-effect87"
       is_visible="true"
       lpeversion="1.3"
       weight="33.333333"
       steps="2"
       helper_size="0"
       apply_no_weight="true"
       apply_with_weight="true"
       only_selected="false"
       uniform="false" /><inkscape:path-effect
       effect="bspline"
       id="path-effect86"
       is_visible="true"
       lpeversion="1.3"
       weight="33.333333"
       steps="2"
       helper_size="0"
       apply_no_weight="true"
       apply_with_weight="true"
       only_selected="false"
       uniform="false" /><inkscape:path-effect
       effect="bspline"
       id="path-effect85"
       is_visible="true"
       lpeversion="1.3"
       weight="33.333333"
       steps="2"
       helper_size="0"
       apply_no_weight="true"
       apply_with_weight="true"
       only_selected="false"
       uniform="false" /><inkscape:path-effect
       effect="bspline"
       id="path-effect84"
       is_visible="true"
       lpeversion="1.3"
       weight="33.333333"
       steps="2"
       helper_size="0"
       apply_no_weight="true"
       apply_with_weight="true"
       only_selected="false"
       uniform="false" /><inkscape:path-effect
       effect="bspline"
       id="path-effect83"
       is_visible="true"
       lpeversion="1.3"
       weight="33.333333"
       steps="2"
       helper_size="0"
       apply_no_weight="true"
       apply_with_weight="true"
       only_selected="false"
       uniform="false" /><inkscape:path-effect
       effect="bspline"
       id="path-effect82"
       is_visible="true"
       lpeversion="1.3"
       weight="33.333333"
       steps="2"
       helper_size="0"
       apply_no_weight="true"
       apply_with_weight="true"
       only_selected="false"
       uniform="false" /><inkscape:path-effect
       effect="bspline"
       id="path-effect81"
       is_visible="true"
       lpeversion="1.3"
       weight="33.333333"
       steps="2"
       helper_size="0"
       apply_no_weight="true"
       apply_with_weight="true"
       only_selected="false"
       uniform="false" /><inkscape:path-effect
       effect="bspline"
       id="path-effect80"
       is_visible="true"
       lpeversion="1.3"
       weight="33.333333"
       steps="2"
       helper_size="0"
       apply_no_weight="true"
       apply_with_weight="true"
       only_selected="false"
       uniform="false" /><inkscape:path-effect
       effect="bspline"
       id="path-effect79"
       is_visible="true"
       lpeversion="1.3"
       weight="33.333333"
       steps="2"
       helper_size="0"
       apply_no_weight="true"
       apply_with_weight="true"
       only_selected="false"
       uniform="false" /><inkscape:path-effect
       effect="bspline"
       id="path-effect78"
       is_visible="true"
       lpeversion="1.3"
       weight="33.333333"
       steps="2"
       helper_size="0"
       apply_no_weight="true"
       apply_with_weight="true"
       only_selected="false"
       uniform="false" /><inkscape:path-effect
       effect="bspline"
       id="path-effect77"
       is_visible="true"
       lpeversion="1.3"
       weight="33.333333"
       steps="2"
       helper_size="0"
       apply_no_weight="true"
       apply_with_weight="true"
       only_selected="false"
       uniform="false" /><inkscape:path-effect
       effect="bspline"
       id="path-effect73"
       is_visible="true"
       lpeversion="1.3"
       weight="33.333333"
       steps="2"
       helper_size="0"
       apply_no_weight="true"
       apply_with_weight="true"
       only_selected="false"
       uniform="false" /><inkscape:path-effect
       effect="bspline"
       id="path-effect72"
       is_visible="true"
       lpeversion="1.3"
       weight="33.333333"
       steps="2"
       helper_size="0"
       apply_no_weight="true"
       apply_with_weight="true"
       only_selected="false"
       uniform="false" /><inkscape:path-effect
       effect="bspline"
       id="path-effect71"
       is_visible="true"
       lpeversion="1.3"
       weight="33.333333"
       steps="2"
       helper_size="0"
       apply_no_weight="true"
       apply_with_weight="true"
       only_selected="false"
       uniform="false" /><inkscape:path-effect
       effect="bspline"
       id="path-effect70"
       is_visible="true"
       lpeversion="1.3"
       weight="33.333333"
       steps="2"
       helper_size="0"
       apply_no_weight="true"
       apply_with_weight="true"
       only_selected="false"
       uniform="false" /><inkscape:path-effect
       effect="bspline"
       id="path-effect69"
       is_visible="true"
       lpeversion="1.3"
       weight="33.333333"
       steps="2"
       helper_size="0"
       apply_no_weight="true"
       apply_with_weight="true"
       only_selected="false"
       uniform="false" /><inkscape:path-effect
       effect="bspline"
       id="path-effect68"
       is_visible="true"
       lpeversion="1.3"
       weight="33.333333"
       steps="2"
       helper_size="0"
       apply_no_weight="true"
       apply_with_weight="true"
       only_selected="false"
       uniform="false" /><inkscape:path-effect
       effect="bspline"
       id="path-effect67"
       is_visible="true"
       lpeversion="1.3"
       weight="33.333333"
       steps="2"
       helper_size="0"
       apply_no_weight="true"
       apply_with_weight="true"
       only_selected="false"
       uniform="false" /><inkscape:path-effect
       effect="bspline"
       id="path-effect66"
       is_visible="true"
       lpeversion="1.3"
       weight="33.333333"
       steps="2"
       helper_size="0"
       apply_no_weight="true"
       apply_with_weight="true"
       only_selected="false"
       uniform="false" /><inkscape:path-effect
       effect="bspline"
       id="path-effect65"
       is_visible="true"
       lpeversion="1.3"
       weight="33.333333"
       steps="2"
       helper_size="0"
       apply_no_weight="true"
       apply_with_weight="true"
       only_selected="false"
       uniform="false" /><inkscape:path-effect
       effect="bspline"
       id="path-effect64"
       is_visible="true"
       lpeversion="1.3"
       weight="33.333333"
       steps="2"
       helper_size="0"
       apply_no_weight="true"
       apply_with_weight="true"
       only_selected="false"
       uniform="false" /><inkscape:path-effect
       effect="bspline"
       id="path-effect63"
       is_visible="true"
       lpeversion="1.3"
       weight="33.333333"
       steps="2"
       helper_size="0"
       apply_no_weight="true"
       apply_with_weight="true"
       only_selected="false"
       uniform="false" /><inkscape:path-effect
       effect="bspline"
       id="path-effect62"
       is_visible="true"
       lpeversion="1.3"
       weight="33.333333"
       steps="2"
       helper_size="0"
       apply_no_weight="true"
       apply_with_weight="true"
       only_selected="false"
       uniform="false" /><inkscape:path-effect
       effect="bspline"
       id="path-effect61"
       is_visible="true"
       lpeversion="1.3"
       weight="33.333333"
       steps="2"
       helper_size="0"
       apply_no_weight="true"
       apply_with_weight="true"
       only_selected="false"
       uniform="false" /><inkscape:path-effect
       effect="bspline"
       id="path-effect60"
       is_visible="true"
       lpeversion="1.3"
       weight="33.333333"
       steps="2"
       helper_size="0"
       apply_no_weight="true"
       apply_with_weight="true"
       only_selected="false"
       uniform="false" /><inkscape:path-effect
       effect="bspline"
       id="path-effect59"
       is_visible="true"
       lpeversion="1.3"
       weight="33.333333"
       steps="2"
       helper_size="0"
       apply_no_weight="true"
       apply_with_weight="true"
       only_selected="false"
       uniform="false" /><inkscape:path-effect
       effect="bspline"
       id="path-effect58"
       is_visible="true"
       lpeversion="1.3"
       weight="33.333333"
       steps="2"
       helper_size="0"
       apply_no_weight="true"
       apply_with_weight="true"
       only_selected="false"
       uniform="false" /><inkscape:path-effect
       effect="bspline"
       id="path-effect57"
       is_visible="true"
       lpeversion="1.3"
       weight="33.333333"
       steps="2"
       helper_size="0"
       apply_no_weight="true"
       apply_with_weight="true"
       only_selected="false"
       uniform="false" /><inkscape:path-effect
       effect="bspline"
       id="path-effect56"
       is_visible="true"
       lpeversion="1.3"
       weight="33.333333"
       steps="2"
       helper_size="0"
       apply_no_weight="true"
       apply_with_weight="true"
       only_selected="false"
       uniform="false" /><inkscape:path-effect
       effect="bspline"
       id="path-effect55"
       is_visible="true"
       lpeversion="1.3"
       weight="33.333333"
       steps="2"
       helper_size="0"
       apply_no_weight="true"
       apply_with_weight="true"
       only_selected="false"
       uniform="false" /><inkscape:path-effect
       effect="bspline"
       id="path-effect54"
       is_visible="true"
       lpeversion="1.3"
       weight="33.333333"
       steps="2"
       helper_size="0"
       apply_no_weight="true"
       apply_with_weight="true"
       only_selected="false"
       uniform="false" /><inkscape:path-effect
       effect="bspline"
       id="path-effect53"
       is_visible="true"
       lpeversion="1.3"
       weight="33.333333"
       steps="2"
       helper_size="0"
       apply_no_weight="true"
       apply_with_weight="true"
       only_selected="false"
       uniform="false" /><inkscape:path-effect
       effect="bspline"
       id="path-effect52"
       is_visible="true"
       lpeversion="1.3"
       weight="33.333333"
       steps="2"
       helper_size="0"
       apply_no_weight="true"
       apply_with_weight="true"
       only_selected="false"
       uniform="false" /><inkscape:path-effect
       effect="bspline"
       id="path-effect51"
       is_visible="true"
       lpeversion="1.3"
       weight="33.333333"
       steps="2"
       helper_size="0"
       apply_no_weight="true"
       apply_with_weight="true"
       only_selected="false"
       uniform="false" /><inkscape:path-effect
       effect="bspline"
       id="path-effect50"
       is_visible="true"
       lpeversion="1.3"
       weight="33.333333"
       steps="2"
       helper_size="0"
       apply_no_weight="true"
       apply_with_weight="true"
       only_selected="false"
       uniform="false" /><inkscape:path-effect
       effect="bspline"
       id="path-effect49"
       is_visible="true"
       lpeversion="1.3"
       weight="33.333333"
       steps="2"
       helper_size="0"
       apply_no_weight="true"
       apply_with_weight="true"
       only_selected="false"
       uniform="false" /><inkscape:path-effect
       effect="bspline"
       id="path-effect48"
       is_visible="true"
       lpeversion="1.3"
       weight="33.333333"
       steps="2"
       helper_size="0"
       apply_no_weight="true"
       apply_with_weight="true"
       only_selected="false"
       uniform="false" /><inkscape:path-effect
       effect="bspline"
       id="path-effect47"
       is_visible="true"
       lpeversion="1.3"
       weight="33.333333"
       steps="2"
       helper_size="0"
       apply_no_weight="true"
       apply_with_weight="true"
       only_selected="false"
       uniform="false" /><inkscape:path-effect
       effect="bspline"
       id="path-effect46"
       is_visible="true"
       lpeversion="1.3"
       weight="33.333333"
       steps="2"
       helper_size="0"
       apply_no_weight="true"
       apply_with_weight="true"
       only_selected="false"
       uniform="false" /><inkscape:path-effect
       effect="bspline"
       id="path-effect38"
       is_visible="true"
       lpeversion="1.3"
       weight="33.333333"
       steps="2"
       helper_size="0"
       apply_no_weight="true"
       apply_with_weight="true"
       only_selected="false"
       uniform="false" /><inkscape:path-effect
       effect="bspline"
       id="path-effect45"
       is_visible="true"
       lpeversion="1.3"
       weight="33.333333"
       steps="2"
       helper_size="0"
       apply_no_weight="true"
       apply_with_weight="true"
       only_selected="false"
       uniform="false" /><inkscape:path-effect
       effect="bspline"
       id="path-effect44"
       is_visible="true"
       lpeversion="1.3"
       weight="33.333333"
       steps="2"
       helper_size="0"
       apply_no_weight="true"
       apply_with_weight="true"
       only_selected="false"
       uniform="false" /><inkscape:path-effect
       effect="bspline"
       id="path-effect43"
       is_visible="true"
       lpeversion="1.3"
       weight="33.333333"
       steps="2"
       helper_size="0"
       apply_no_weight="true"
       apply_with_weight="true"
       only_selected="false"
       uniform="false" /><inkscape:path-effect
       effect="bspline"
       id="path-effect42"
       is_visible="true"
       lpeversion="1.3"
       weight="33.333333"
       steps="2"
       helper_size="0"
       apply_no_weight="true"
       apply_with_weight="true"
       only_selected="false"
       uniform="false" /><inkscape:path-effect
       effect="bspline"
       id="path-effect41"
       is_visible="true"
       lpeversion="1.3"
       weight="33.333333"
       steps="2"
       helper_size="0"
       apply_no_weight="true"
       apply_with_weight="true"
       only_selected="false"
       uniform="false" /><inkscape:path-effect
       effect="bspline"
       id="path-effect40"
       is_visible="true"
       lpeversion="1.3"
       weight="33.333333"
       steps="2"
       helper_size="0"
       apply_no_weight="true"
       apply_with_weight="true"
       only_selected="false"
       uniform="false" /><inkscape:path-effect
       effect="bspline"
       id="path-effect39"
       is_visible="true"
       lpeversion="1.3"
       weight="33.333333"
       steps="2"
       helper_size="0"
       apply_no_weight="true"
       apply_with_weight="true"
       only_selected="false"
       uniform="false" /><inkscape:path-effect
       effect="bspline"
       id="path-effect37"
       is_visible="true"
       lpeversion="1.3"
       weight="33.333333"
       steps="2"
       helper_size="0"
       apply_no_weight="true"
       apply_with_weight="true"
       only_selected="false"
       uniform="false" /><inkscape:path-effect
       effect="bspline"
       id="path-effect36"
       is_visible="true"
       lpeversion="1.3"
       weight="33.333333"
       steps="2"
       helper_size="0"
       apply_no_weight="true"
       apply_with_weight="true"
       only_selected="false"
       uniform="false" /><inkscape:path-effect
       effect="bspline"
       id="path-effect35"
       is_visible="true"
       lpeversion="1.3"
       weight="33.333333"
       steps="2"
       helper_size="0"
       apply_no_weight="true"
       apply_with_weight="true"
       only_selected="false"
       uniform="false" /><inkscape:path-effect
       effect="bspline"
       id="path-effect34"
       is_visible="true"
       lpeversion="1.3"
       weight="33.333333"
       steps="2"
       helper_size="0"
       apply_no_weight="true"
       apply_with_weight="true"
       only_selected="false"
       uniform="false" /><inkscape:path-effect
       effect="bspline"
       id="path-effect33"
       is_visible="true"
       lpeversion="1.3"
       weight="33.333333"
       steps="2"
       helper_size="0"
       apply_no_weight="true"
       apply_with_weight="true"
       only_selected="false"
       uniform="false" /><inkscape:path-effect
       effect="bspline"
       id="path-effect32"
       is_visible="true"
       lpeversion="1.3"
       weight="33.333333"
       steps="2"
       helper_size="0"
       apply_no_weight="true"
       apply_with_weight="true"
       only_selected="false"
       uniform="false" /><inkscape:path-effect
       effect="bspline"
       id="path-effect31"
       is_visible="true"
       lpeversion="1.3"
       weight="33.333333"
       steps="2"
       helper_size="0"
       apply_no_weight="true"
       apply_with_weight="true"
       only_selected="false"
       uniform="false" /><inkscape:path-effect
       effect="bspline"
       id="path-effect30"
       is_visible="true"
       lpeversion="1.3"
       weight="33.333333"
       steps="2"
       helper_size="0"
       apply_no_weight="true"
       apply_with_weight="true"
       only_selected="false"
       uniform="false" /><inkscape:path-effect
       effect="bspline"
       id="path-effect29"
       is_visible="true"
       lpeversion="1.3"
       weight="33.333333"
       steps="2"
       helper_size="0"
       apply_no_weight="true"
       apply_with_weight="true"
       only_selected="false"
       uniform="false" /><inkscape:path-effect
       effect="bspline"
       id="path-effect28"
       is_visible="true"
       lpeversion="1.3"
       weight="33.333333"
       steps="2"
       helper_size="0"
       apply_no_weight="true"
       apply_with_weight="true"
       only_selected="false"
       uniform="false" /><inkscape:path-effect
       effect="bspline"
       id="path-effect27"
       is_visible="true"
       lpeversion="1.3"
       weight="33.333333"
       steps="2"
       helper_size="0"
       apply_no_weight="true"
       apply_with_weight="true"
       only_selected="false"
       uniform="false" /><inkscape:path-effect
       effect="bspline"
       id="path-effect26"
       is_visible="true"
       lpeversion="1.3"
       weight="33.333333"
       steps="2"
       helper_size="0"
       apply_no_weight="true"
       apply_with_weight="true"
       only_selected="false"
       uniform="false" /><inkscape:path-effect
       effect="bspline"
       id="path-effect25"
       is_visible="true"
       lpeversion="1.3"
       weight="33.333333"
       steps="2"
       helper_size="0"
       apply_no_weight="true"
       apply_with_weight="true"
       only_selected="false"
       uniform="false" /><inkscape:path-effect
       effect="bspline"
       id="path-effect24"
       is_visible="true"
       lpeversion="1.3"
       weight="33.333333"
       steps="2"
       helper_size="0"
       apply_no_weight="true"
       apply_with_weight="true"
       only_selected="false"
       uniform="false" /><inkscape:path-effect
       effect="bspline"
       id="path-effect23"
       is_visible="true"
       lpeversion="1.3"
       weight="33.333333"
       steps="2"
       helper_size="0"
       apply_no_weight="true"
       apply_with_weight="true"
       only_selected="false"
       uniform="false" /><inkscape:path-effect
       effect="bspline"
       id="path-effect22"
       is_visible="true"
       lpeversion="1.3"
       weight="33.333333"
       steps="2"
       helper_size="0"
       apply_no_weight="true"
       apply_with_weight="true"
       only_selected="false"
       uniform="false" /><inkscape:path-effect
       effect="bspline"
       id="path-effect21"
       is_visible="true"
       lpeversion="1.3"
       weight="33.333333"
       steps="2"
       helper_size="0"
       apply_no_weight="true"
       apply_with_weight="true"
       only_selected="false"
       uniform="false" /><inkscape:path-effect
       effect="bspline"
       id="path-effect20"
       is_visible="true"
       lpeversion="1.3"
       weight="33.333333"
       steps="2"
       helper_size="0"
       apply_no_weight="true"
       apply_with_weight="true"
       only_selected="false"
       uniform="false" /><inkscape:path-effect
       effect="bspline"
       id="path-effect19"
       is_visible="true"
       lpeversion="1.3"
       weight="33.333333"
       steps="2"
       helper_size="0"
       apply_no_weight="true"
       apply_with_weight="true"
       only_selected="false"
       uniform="false" /><inkscape:path-effect
       effect="bspline"
       id="path-effect18"
       is_visible="true"
       lpeversion="1.3"
       weight="33.333333"
       steps="2"
       helper_size="0"
       apply_no_weight="true"
       apply_with_weight="true"
       only_selected="false"
       uniform="false" /><inkscape:path-effect
       effect="bspline"
       id="path-effect17"
       is_visible="true"
       lpeversion="1.3"
       weight="33.333333"
       steps="2"
       helper_size="0"
       apply_no_weight="true"
       apply_with_weight="true"
       only_selected="false"
       uniform="false" /><inkscape:path-effect
       effect="bspline"
       id="path-effect16"
       is_visible="true"
       lpeversion="1.3"
       weight="33.333333"
       steps="2"
       helper_size="0"
       apply_no_weight="true"
       apply_with_weight="true"
       only_selected="false"
       uniform="false" /><inkscape:path-effect
       effect="bspline"
       id="path-effect15"
       is_visible="true"
       lpeversion="1.3"
       weight="33.333333"
       steps="2"
       helper_size="0"
       apply_no_weight="true"
       apply_with_weight="true"
       only_selected="false"
       uniform="false" /><inkscape:path-effect
       effect="bspline"
       id="path-effect14"
       is_visible="true"
       lpeversion="1.3"
       weight="33.333333"
       steps="2"
       helper_size="0"
       apply_no_weight="true"
       apply_with_weight="true"
       only_selected="false"
       uniform="false" /><inkscape:path-effect
       effect="bspline"
       id="path-effect13"
       is_visible="true"
       lpeversion="1.3"
       weight="33.333333"
       steps="2"
       helper_size="0"
       apply_no_weight="true"
       apply_with_weight="true"
       only_selected="false"
       uniform="false" /><inkscape:path-effect
       effect="bspline"
       id="path-effect12"
       is_visible="true"
       lpeversion="1.3"
       weight="33.333333"
       steps="2"
       helper_size="0"
       apply_no_weight="true"
       apply_with_weight="true"
       only_selected="false"
       uniform="false" /><inkscape:path-effect
       effect="bspline"
       id="path-effect11"
       is_visible="true"
       lpeversion="1.3"
       weight="33.333333"
       steps="2"
       helper_size="0"
       apply_no_weight="true"
       apply_with_weight="true"
       only_selected="false"
       uniform="false" /><inkscape:path-effect
       effect="bspline"
       id="path-effect10"
       is_visible="true"
       lpeversion="1.3"
       weight="33.333333"
       steps="2"
       helper_size="0"
       apply_no_weight="true"
       apply_with_weight="true"
       only_selected="false"
       uniform="false" /><inkscape:path-effect
       effect="bspline"
       id="path-effect9"
       is_visible="true"
       lpeversion="1.3"
       weight="33.333333"
       steps="2"
       helper_size="0"
       apply_no_weight="true"
       apply_with_weight="true"
       only_selected="false"
       uniform="false" /><inkscape:path-effect
       effect="bspline"
       id="path-effect8"
       is_visible="true"
       lpeversion="1.3"
       weight="33.333333"
       steps="2"
       helper_size="0"
       apply_no_weight="true"
       apply_with_weight="true"
       only_selected="false"
       uniform="false" /><inkscape:path-effect
       effect="bspline"
       id="path-effect7"
       is_visible="true"
       lpeversion="1.3"
       weight="33.333333"
       steps="2"
       helper_size="0"
       apply_no_weight="true"
       apply_with_weight="true"
       only_selected="false"
       uniform="false" /><inkscape:path-effect
       effect="bspline"
       id="path-effect6"
       is_visible="true"
       lpeversion="1.3"
       weight="33.333333"
       steps="2"
       helper_size="0"
       apply_no_weight="true"
       apply_with_weight="true"
       only_selected="false"
       uniform="false" /><inkscape:path-effect
       effect="bspline"
       id="path-effect5"
       is_visible="true"
       lpeversion="1.3"
       weight="33.333333"
       steps="2"
       helper_size="0"
       apply_no_weight="true"
       apply_with_weight="true"
       only_selected="false"
       uniform="false" /><inkscape:path-effect
       effect="bspline"
       id="path-effect4"
       is_visible="true"
       lpeversion="1.3"
       weight="33.333333"
       steps="2"
       helper_size="0"
       apply_no_weight="true"
       apply_with_weight="true"
       only_selected="false"
       uniform="false" /><inkscape:path-effect
       effect="bspline"
       id="path-effect3"
       is_visible="true"
       lpeversion="1.3"
       weight="33.333333"
       steps="2"
       helper_size="0"
       apply_no_weight="true"
       apply_with_weight="true"
       only_selected="false"
       uniform="false" /><inkscape:path-effect
       effect="bspline"
       id="path-effect2"
       is_visible="true"
       lpeversion="1.3"
       weight="33.333333"
       steps="2"
       helper_size="0"
       apply_no_weight="true"
       apply_with_weight="true"
       only_selected="false"
       uniform="false" /><inkscape:path-effect
       effect="bspline"
       id="path-effect1"
       is_visible="true"
       lpeversion="1.3"
       weight="33.333333"
       steps="2"
       helper_size="0"
       apply_no_weight="true"
       apply_with_weight="true"
       only_selected="false"
       uniform="false" /></defs><g
     inkscape:label="Layer 1"
     inkscape:groupmode="layer"
     id="layer1"><path
       id="path107"
       style="color:#000000;fill:#000000;stroke-linecap:round;stroke-linejoin:round;-inkscape-stroke:none"
       d="m 106.67254,31.1853 c -4.85714,0 -10.573698,0.338789 -13.710936,0.503907 -3.137236,0.165117 -3.502704,-0.368764 -5.74414,0.751953 -0.935342,0.46767 -1.512699,1.224642 -1.802734,1.658203 0.391131,-0.425084 -0.497467,0.184967 -1.570313,1.257812 -1.138069,1.138069 -1.962523,2.294555 -1.833984,2.166016 0.03213,-0.03213 -0.158775,0.03468 -0.703125,0.773437 -0.544352,0.738762 -1.014479,2.682721 -0.689454,3.820313 0.373343,1.306699 0.796307,1.897441 1.261719,2.357422 a 4,4 0 0 0 -0.203125,0.566406 c 0.242344,5.089221 0.469317,10.086178 0.792969,13.986328 -3.088806,0.617101 -6.199513,1.238331 -7.957031,1.53125 -1.893359,0.31556 -2.799436,0.252256 -4.181641,0.94336 -1.382204,0.691102 -1.811013,1.238513 -2.333984,1.5 -0.522971,0.261484 -1.617795,0.474913 -3,1.166015 -1.113996,0.556998 -2.213098,1.851064 -1.97461,1.710938 -0.630341,0.681965 -1.015625,1.832711 -1.015625,2.638672 10e-7,1.666663 0.393848,2.729737 0.88086,3.947265 0.243506,0.608765 1.113849,1.963255 2.265625,2.511719 1.151775,0.548464 2.112711,0.609597 3.486328,0.701172 1.596086,0.106406 3.631742,0.180806 5.560547,0.267578 a 6,6 0 0 0 -0.511719,1.478516 c -0.666665,9.333314 -1.337395,18.666804 -1.980469,24.615238 -0.643073,5.94843 -1.250723,8.56757 -1.640625,11.29688 -0.3899,2.7293 -0.374467,4.18856 -0.791015,6.41015 -0.416549,2.2216 -1.438545,5.95549 -2.021485,9.45313 -0.582939,3.49762 -0.621641,6.335 -0.71289,7.15625 -0.09125,0.82125 -0.51683,2.25233 -0.697266,6.40234 -0.180436,4.15001 -0.171875,11.09377 -0.171875,22.09375 v 39.5 c 0,13.49998 -0.01418,25.40468 0.341797,31.99023 0.177988,3.29279 0.402322,5.18482 0.878906,6.89258 0.238293,0.85388 0.579622,1.73392 1.128906,2.57031 0.407666,0.62077 0.654271,0.82059 0.796875,0.95704 0.240801,0.41671 0.37785,0.76652 0.94336,1.33203 0.733389,0.73338 1.057843,0.88398 1.328125,1.04883 0.495165,0.63244 1.187129,1.38556 2.232422,1.9082 0.77249,0.38624 0.783679,0.26939 1.142578,0.34766 0.294233,0.22511 0.494791,0.47103 0.857422,0.65234 1.597738,0.79886 1.826499,0.62508 2.060547,0.68359 0.234048,0.0585 0.483346,0.12459 1.060546,0.35547 1.154401,0.46176 3.821075,1.79445 6,2.66602 2.178925,0.87157 2.959239,0.93734 3.365235,1.11132 0.405994,0.174 3.238169,1.69183 7.533201,2.66797 4.29504,0.97615 9.948848,1.60797 13.400388,1.95313 2.41143,0.24114 3.7538,0.3946 4.14258,0.41016 0.37202,0.16308 1.5517,0.55343 3.21289,0.85546 2.40004,0.43637 5.59361,0.76169 7.31641,1.13086 1.72279,0.36917 2.70429,0.95273 5.12304,1.49024 2.41876,0.5375 4.02486,0.49404 5.22852,0.71289 1.20366,0.21884 3.1264,0.86043 5.39648,1.31445 2.27011,0.45402 3.96106,0.47853 4.49415,0.55469 0.53309,0.0762 1.66151,0.43864 3.60546,0.68164 1.94396,0.24299 3.85367,0.21199 11.70508,0.0449 7.85141,-0.16705 21.85042,-0.49968 29.50196,-0.66601 3.82577,-0.0832 6.08088,-0.11452 7.99414,-0.26758 1.91325,-0.15306 3.72709,-0.56616 5.19531,-1.13086 2.93643,-1.1294 5.9297,-2.85466 8.03711,-4.08399 2.10741,-1.22932 3.23025,-1.85577 3.03906,-1.77929 -0.0956,0.0382 -0.16116,0.0424 0.0508,0 0.21192,-0.0424 0.63861,0.0938 2.23633,-0.70508 1.59778,-0.79888 2.20131,-1.75269 2.21484,-1.76758 0.0135,-0.0149 -0.0415,0.009 0.36914,-0.29883 0.82135,-0.616 3.6788,-2.39594 6.03321,-4.32226 2.3544,-1.92634 3.9838,-3.94083 3.94336,-3.90039 -0.0202,0.0202 -0.16867,0.18073 0.51367,-0.42578 0.68233,-0.60651 1.91886,-2.44889 2.23047,-3.69532 0.6232,-2.49281 0.33055,-2.93913 0.62695,-5.16211 0.2964,-2.22296 1.01317,-6.18825 1.37109,-11.19922 0.35793,-5.01095 0.34771,-10.69797 0.51368,-20.32421 0.16597,-9.62624 0.49918,-23.28569 0.83203,-35.10157 0.33284,-11.81587 0.6661,-21.82483 0.83398,-30.89062 0.16789,-9.06579 0.17375,-17.05907 -0.004,-21.67578 -0.17755,-4.61673 -0.53777,-5.62713 -0.67382,-7.66797 -0.13606,-2.04084 -0.14566,-6.44808 -0.33008,-9.76758 -0.18442,-3.3195 -0.5268,-5.085624 -0.66992,-7.232424 -0.14312,-2.1468 -0.11967,-5.32418 -0.34571,-7.81055 -0.11301,-1.24319 -0.34425,-2.295 -0.48828,-2.87109 -0.14402,-0.57609 -0.14921,-0.55388 -0.18945,-0.91602 -0.0701,-0.63069 -0.13327,-3.0047 -0.28125,-5.119139 0.30248,-0.104483 0.60476,-0.18612 0.9082,-0.326172 1.07316,-0.4953 2.25396,-1.62139 2.55274,-3.001953 0.29878,-1.380561 -0.13191,-2.408355 -0.48047,-3.105468 -0.42826,-0.856511 -0.61735,-1.016659 -0.91016,-1.408204 0.19122,-0.161895 0.13532,-0.118916 0.42188,-0.341796 0.78643,-0.611668 1.77113,-1.365384 2.65429,-2.40625 0.44158,-0.520433 0.90141,-1.107295 1.19141,-2.082032 0.29,-0.974737 0.13172,-2.614594 -0.7168,-3.632812 -0.84851,-1.018216 -1.67648,-1.290019 -2.44531,-1.552735 -0.76883,-0.262714 -1.54652,-0.427674 -2.37891,-0.568359 -1.62218,-0.274174 -3.44591,-0.437201 -5.23437,-0.599609 1.79231,-3.602783 1.58789,-7.625158 1.58789,-10.691407 0,-3.999992 0.15985,-7.520744 -0.61914,-10.636718 -0.3895,-1.557988 -1.15395,-2.917626 -2.05274,-3.816407 -0.72032,-0.720324 -1.32129,-1.066754 -1.46289,-1.128906 -0.0341,-0.03359 -9.2e-4,-9.25e-4 -0.0586,-0.05859 -0.4152,-0.415205 -1.56185,-1.17269 -2.50391,-1.408203 -0.94204,-0.235514 -1.4707,-0.229818 -1.9707,-0.271484 -0.47188,-0.03932 -0.83908,-0.105549 -0.65625,-0.05664 -0.45531,-0.247107 -1.01849,-0.571668 -1.72461,-0.71289 -1.83898,-0.367791 -3.28444,-0.244126 -8.95109,-0.244126 h -27.5 -37.66602 c -10.8333,0 -17.81886,-8.09e-4 -23.04296,-0.164062 -5.22412,-0.163253 -8.93388,-0.501954 -13.79102,-0.501954 z m 0,8 c 4.47619,0 8.09847,0.327968 13.54102,0.498047 5.44253,0.17008 12.45966,0.167969 23.29296,0.167969 h 37.66602 27.5 c 5.62618,0 7.47192,0.121852 7.33008,0.08984 0.20996,0.123515 0.45113,0.216148 0.8125,0.371094 -0.0492,0.07014 -0.0869,0.07963 -0.13672,0.154296 -0.13696,0.205439 -0.15294,0.30611 -0.25391,0.5 -0.42612,0.364382 -0.86579,0.837056 -1.16211,1.429688 -0.031,0.06197 -2e-4,0.02488 -0.0273,0.08203 -0.15495,0.06413 -0.17864,0.04245 -0.35156,0.128906 -1.13212,0.566055 -1.76963,1.045343 -1.97071,1.244141 v -0.002 c -0.15904,-0.05404 -0.89392,0.07512 -2.29296,1.007812 -0.77088,0.513917 -1.12536,0.845417 -1.39649,1.115235 -0.17509,0.04636 -0.21217,0.06509 -0.50195,0.123047 -1.23563,0.247123 -2.38537,0.652082 -3.78711,1.177734 -1.40174,0.525652 -2.25149,0.951526 -6.08008,1.257813 -3.82866,0.306344 -10.51503,0.320364 -21.18168,0.320364 -10.66665,0 -25.31952,2.82e-4 -39.62109,-0.166016 -14.30159,-0.166296 -28.27738,-0.576394 -36.51172,-2.40625 -7.047618,-1.566135 -9.911745,-3.820138 -11.728516,-5.513672 0.143799,-0.08138 0.476913,-0.336729 1.029297,-0.824218 0.537926,-0.07581 1.225223,-0.192364 2.542969,-0.261719 3.196092,-0.168215 8.81287,-0.494141 13.28906,-0.494141 z m 113.9375,9.554688 c 0.008,0.641769 0.0625,0.78061 0.0625,1.445312 0,3.999992 -0.35954,7.037278 -1.49414,8.171875 -1.1346,1.134596 -5.86727,2.548849 -8.92188,3.267579 -3.0546,0.718731 -3.44933,1.023454 -3.98242,1.099609 -0.5331,0.07616 -2.6841,0.114308 -4.66601,0.3125 -1.98193,0.198192 -3.75459,0.586276 -5.39063,1.404297 -1.63603,0.818015 -1.76137,1.090246 -2.18164,1.195312 -0.42026,0.105065 -2.29547,0.164702 -4.0957,0.421875 -0.90012,0.128588 -1.6582,0.373047 -2.0332,0.498047 -0.375,0.125001 -0.36627,0.129891 -0.63282,0.167969 -0.5331,0.07616 -2.78263,0.08309 -5.05273,0.537109 -2.2701,0.45402 -3.44178,1.072004 -4.87305,1.310547 -1.43127,0.238545 -3.93403,0.246578 -5.95117,0.470703 -2.01715,0.224126 -1.65242,0.482091 -7.33789,0.644532 -5.68548,0.162441 -17.08796,0.162441 -22.77344,0 -5.68547,-0.162441 -5.21393,-0.400767 -7.11719,-0.638672 -1.90324,-0.237906 -4.23659,-0.238559 -5,-0.333985 -0.76339,-0.09542 -0.57302,-0.291558 -2.21093,-0.61914 -1.63792,-0.327582 -2.574,-0.25798 -3.58399,-0.482422 -1.00999,-0.224444 -2.91476,-0.950532 -5.75,-1.517578 -2.83524,-0.567049 -6.31333,-0.90187 -10.27734,-1.074219 -3.96402,-0.172349 -8.406408,-0.184581 -10.388668,-0.326172 -1.98228,-0.14159 -1.36209,-0.272028 -3,-0.599609 -1.351259,-0.27025 -1.869835,-0.309414 -1.896488,-0.240235 -0.05984,-0.08706 -0.508128,-0.406207 -1.025391,-0.765625 0.04353,0.0502 -0.06007,-0.07091 -0.236328,-1.304687 -0.283036,-1.981249 -0.506864,-6.940876 -0.744141,-11.28125 2.555148,1.354367 5.652418,2.675362 9.749998,3.585937 9.765618,2.170138 23.789268,2.428669 38.154298,2.595703 14.36503,0.167036 29.04624,0.166016 39.71289,0.166016 10.66665,0 17.31361,0.01468 21.81836,-0.345703 4.50474,-0.36038 6.98703,-1.26784 8.25195,-1.742188 1.26493,-0.474346 2.11583,-0.736057 2.54688,-0.822265 0.43105,-0.08621 1.57016,0.147887 3.43554,-1.095703 0.82252,-0.548338 1.29961,-0.956082 1.55469,-1.222657 0.30628,-0.122969 0.59576,-0.234404 1.18164,-0.527343 1.40878,-0.704387 2.09346,-1.300066 2.06055,-1.34961 -0.0446,0.02187 -0.0932,0.03694 0.20703,-0.04883 0.31569,-0.0902 1.04162,-0.325933 1.88086,-0.957031 z m 3.29492,16.117187 a 3,3 0 0 0 2.4961,1.982422 c 1.35711,0.123375 2.51462,0.263257 3.64062,0.408203 -0.63681,0.472776 -1.30036,0.879372 -2.01172,1.841797 -0.30517,0.412886 -0.49791,1.01199 -0.625,1.648438 a 6,6 0 0 0 -4.6289,-0.578125 6,6 0 0 0 -3.93555,5.234375 c -1.85253,0.30947 -3.34367,0.873268 -4.28516,2.207031 -0.0241,0.03408 -0.0127,0.04774 -0.0352,0.08203 -0.83135,0.239592 -1.92274,0.699566 -2.79297,1.714844 -1.02063,1.190734 -1.40416,2.330821 -1.80664,3.359375 -0.19077,0.48751 -0.25272,0.6221 -0.4043,0.99805 -0.20295,-0.0524 -0.39524,0.0119 -1.01367,-0.40039 -1.15855,-0.772419 -3.78241,-3.503909 -7.83003,-3.503909 -4.04762,0 -6.67143,2.73148 -7.83008,3.50391 -0.253,0.16866 -0.33961,0.21692 -0.38867,0.24609 -0.042,-0.0181 -0.27721,-0.0688 -0.96094,-0.35352 -1.78152,-0.74228 -5.18641,-2.823377 -9.1875,-2.556636 -2.00054,0.13337 -3.40601,0.917717 -4.34375,1.314456 -0.93773,0.39673 -1.29021,0.50416 -1.93359,0.39062 -0.64338,-0.11354 -2.31255,-0.858158 -4.09375,-1.683592 -1.7812,-0.825433 -3.71885,-1.839607 -6.27149,-1.689453 -2.55262,0.150154 -4.27735,1.635813 -5.46093,2.726563 -1.18358,1.090752 -2.08189,1.885262 -2.37696,2.011722 -0.29506,0.12645 -0.96815,0.18215 -2.10156,-0.0547 -1.13341,-0.23683 -2.57635,-0.72798 -4.19726,-1.10938 -3.24185,-0.762758 -6.18752,-0.74608 -7.6875,-0.74608 -0.75,0 -1.31017,-0.02415 -2.07618,0.10352 -0.766,0.12766 -1.56482,0.48342 -2.13281,0.82421 -1.13597,0.68159 -1.02508,0.9179 -2.32812,0.63868 -1.30306,-0.27923 -4.71462,-2.130749 -6.95313,-3.250004 -1.11925,-0.559626 -2.10886,-1.102858 -3.66601,-1.042968 -1.55717,0.05989 -2.90672,1.10797 -3.6211,1.941406 -0.71438,0.833446 -1.20793,1.561646 -1.625,1.966796 -0.41707,0.40516 -0.39821,0.32574 -0.36719,0.32813 0.031,0.002 -1.06953,-0.38639 -2.10937,-1.10352 -1.03984,-0.717131 -2.08602,-1.605097 -2.94531,-2.273438 -0.42965,-0.334169 -0.80136,-0.639581 -1.44922,-0.945312 -0.64786,-0.305731 -1.88739,-0.530782 -2.8711,-0.183594 -1.96739,0.694379 -2.00429,1.502396 -2.59765,2.169922 -1.18672,1.335052 -3.44137,3.160152 -4.92383,3.160152 -0.74123,0 -2.15783,-0.44554 -3.68945,-1.13281 -1.531628,-0.68727 -3.075538,-1.580731 -5.054688,-1.976561 -1.979146,-0.395828 -3.813763,0.140671 -4.966798,0.703125 -1.153033,0.562456 -1.818881,0.981606 -1.984374,1.031246 -0.29577,0.0887 -1.608571,-0.13259 -3.113282,-0.54492 0.09741,-1.355523 0.195485,-2.621554 0.292969,-3.986326 a 6,6 0 0 0 -0.232422,-2.066406 c 0.146174,-0.335681 0.257812,-0.7411 0.257813,-1.226562 10e-7,-1.026039 -0.58784,-1.884826 -0.976563,-2.251954 -0.388722,-0.367126 -0.640575,-0.47849 -0.816406,-0.566406 -0.292467,-0.146233 -0.391001,-0.195381 -0.460938,-0.226562 -0.08132,-0.09018 -0.421349,-0.369742 -1.068359,-0.722656 -0.860933,-0.4696 -1.964638,-0.808827 -3.457031,-1.007813 -2.984787,-0.397972 -7.610524,-0.369347 -9.863281,-0.519531 -0.641454,-0.04276 -0.549038,-0.03797 -0.744141,-0.07422 -0.03366,-0.148757 -0.04651,-0.154983 -0.07617,-0.291016 0.392157,-0.115484 1.249227,-0.351175 2.460937,-0.957031 1.477025,-0.738512 2.382859,-1.524437 2.333985,-1.5 -0.04887,0.02444 0.377742,-0.04147 2.484375,-0.392578 1.86623,-0.311039 4.825007,-0.905392 7.761719,-1.492188 0.222967,0.943908 0.511833,1.75521 0.996093,2.550782 0.800377,1.314903 2.463957,2.266986 2.03125,1.978515 -0.865413,-0.576941 0.199075,0.839005 2.398438,1.71875 2.199365,0.879746 3.672417,0.703234 3.701172,0.708985 0.02874,0.0057 1.315626,0.540681 3.999996,0.732422 2.68438,0.191739 6.908706,0.17886 10.611326,0.339843 3.70263,0.160984 6.89189,0.494783 9.05664,0.927735 2.16476,0.432951 3.59204,1.040198 5.58203,1.482422 1.99001,0.442224 3.72126,0.511828 3.75,0.517578 0.0287,0.0057 0.88581,0.474985 2.78907,0.71289 1.90324,0.237906 4.23659,0.238559 5,0.333985 0.76339,0.09542 1.90164,0.524422 7.88281,0.695312 5.98116,0.17089 17.2454,0.17089 23.22656,0 5.98117,-0.17089 7.01129,-0.580248 7.99414,-0.689453 0.98286,-0.109206 3.8141,-0.10313 6.38281,-0.53125 2.56874,-0.42812 4.06373,-1.142824 5.12696,-1.355469 1.06323,-0.212644 2.815,-0.205717 4.61523,-0.46289 0.90012,-0.128588 1.65821,-0.373047 2.0332,-0.498047 0.37501,-0.125001 0.36627,-0.129891 0.63282,-0.167969 0.5331,-0.07616 2.6579,-0.01847 4.90429,-0.580078 2.24641,-0.5616 3.45635,-1.620752 3.82032,-1.802734 0.36395,-0.181979 1.25602,-0.462517 2.60742,-0.597657 1.3514,-0.135139 3.20172,-0.09634 5.00195,-0.353515 1.80024,-0.257176 2.07155,-0.617825 4.6836,-1.232422 2.42486,-0.570557 7.71163,-1.120264 11.8164,-4.554688 z m -4.32226,16.511719 c 0.0604,1.388972 0.0935,3.184012 0.29296,4.978512 0.12643,1.13787 0.37059,2.07609 0.47657,2.5 0.10598,0.42392 0.12408,0.45674 0.17773,1.04688 0.1073,1.18029 0.13205,4.67024 0.32227,7.52344 0.19021,2.853184 0.51319,4.419114 0.66211,7.099614 0.14891,2.68047 0.14061,6.94123 0.33789,9.90039 0.19727,2.95914 0.50243,3.28015 0.6582,7.33007 9.3e-4,0.0242 10e-4,0.079 0.002,0.10352 h -71.00586 -35.83398 c -6.99998,0 -10.94842,-0.0106 -13.85352,-0.31641 -2.905078,-0.3058 -5.053718,-0.93083 -7.320308,-1.30859 -2.266584,-0.37776 -3.843748,-0.36361 -6.666014,-0.83398 -1.644757,-0.27413 -3.849359,-0.74205 -6.220703,-1.26954 0.115068,-1.12437 0.193178,-2.10419 0.333985,-3.08984 0.276764,-1.93735 1.001148,-5.31825 1.691406,-11.70312 0.433204,-4.007154 0.856129,-9.297714 1.27539,-14.898444 1.446343,0.41596 3.226782,0.74564 5.289063,0.12695 1.50117,-0.45035 2.335329,-1.11389 2.890625,-1.38476 0.555294,-0.27088 0.637348,-0.31707 1.158198,-0.21289 0.52085,0.10416 2.05898,0.79339 3.77735,1.56445 1.71837,0.77106 3.719088,1.66015 6.144528,1.66015 4.57447,0 7.44773,-3.05677 9.01562,-4.80859 0.67009,0.54124 1.35459,1.12136 2.36524,1.81836 1.37682,0.94953 2.85896,1.97743 5.05664,2.14648 2.19769,0.16906 3.96655,-0.99435 5.00781,-2.00585 0.8796,-0.85447 1.34695,-1.55027 1.68946,-1.99805 0.14594,0.0491 -0.0615,-0.0122 0.35742,0.19726 1.76148,0.88074 5.01531,3.02923 8.3789,3.75 3.36361,0.72078 6.14119,-1.04291 6.67188,-1.36132 0.0795,-0.0477 0.0628,-0.0408 0.0742,-0.0508 0.0116,9.7e-4 0.32704,-0.0215 1.04883,-0.0215 1.49998,0 3.88963,0.0173 6.31445,0.58789 1.21241,0.28527 2.68549,0.79412 4.34375,1.14063 1.65825,0.3465 3.65315,0.56885 5.6914,-0.30469 2.03827,-0.87355 3.13867,-2.2457 4.08008,-3.11328 0.94142,-0.86758 1.46735,-1.13193 1.74805,-1.14844 0.2807,-0.0165 1.75907,0.38468 3.39453,1.14258 1.63546,0.75789 3.38427,1.76393 5.57422,2.15039 2.18995,0.38646 4.08552,-0.25546 5.31445,-0.77539 1.22893,-0.51993 1.9068,-0.82022 2.40625,-0.85352 0.99891,-0.0666 4.26199,1.18501 6.48047,2.10938 1.10924,0.46218 2.15879,0.88117 3.52735,0.83398 1.36854,-0.0472 2.53635,-0.65965 3.45703,-1.27344 1.84135,-1.22753 3.88291,-2.49609 4.50195,-2.49609 0.61904,0 2.6606,1.26853 4.50195,2.49609 1.84135,1.22757 3.5594,1.52755 3.76953,1.58008 0.10507,0.0263 0.79122,0.39817 2.10157,0.23438 1.31034,-0.1638 2.6243,-1.25807 3.23242,-2.32227 0.60812,-1.0642 0.88295,-2.00642 1.23047,-2.89453 0.33046,-0.8445 0.71342,-1.51024 0.73633,-1.56055 0.0908,-0.0168 0.2267,-0.0304 0.54492,-0.0879 0.34339,-0.062 1.03668,-0.023 2.0039,-0.99023 0.34076,-0.34076 0.44775,-0.613396 0.58594,-0.890627 0.0527,-0.01561 0.15632,-0.03373 0.20313,-0.04687 z M 80.613948,124.05054 c 2.294617,0.50866 4.458101,0.96404 6.232422,1.25976 3.177723,0.52963 4.932612,0.54509 6.666016,0.83399 1.733406,0.2889 4.251456,0.99655 7.679684,1.35742 3.42823,0.36087 7.48049,0.34961 14.48047,0.34961 h 35.83398 71.0879 c 0.0307,4.18595 0.0193,9.1014 -0.0879,14.88867 -0.16544,8.93417 -0.4982,18.92464 -0.83203,30.77539 -0.29571,10.49808 -0.55846,21.87636 -0.73828,31.21094 -5.15989,1.02261 -10.11522,1.98329 -13.53711,2.49023 -0.71808,0.10639 -1.29619,0.172 -1.90429,0.2461 a 5,5 0 0 0 3.17773,-4.61133 v -8.66602 c 0,-2.66665 -0.005,-5.54608 -0.77344,-9.19726 -0.76867,-3.65118 -2.02435,-7.578 -3.42187,-10.37305 -0.69876,-1.39752 -1.27796,-2.59145 -3.07227,-3.71289 -0.89715,-0.56072 -2.29291,-1.01661 -3.70703,-0.83984 -1.41412,0.17677 -2.55594,0.91337 -3.22851,1.58594 -0.83845,0.83845 -1.16212,1.52673 -1.35743,2.10156 -0.18802,0.26818 -0.52117,0.80995 -0.82812,1.30273 -0.2872,-1.69153 -0.63335,-2.83373 -0.63477,-2.76758 -0.009,-0.0407 -0.019,-0.0688 -0.0352,-0.17382 -0.0475,-0.30892 0.0429,-0.80291 -0.63672,-2.16211 -0.13461,-0.26923 -0.31961,-0.41166 -0.48438,-0.63672 -0.0465,-0.19288 -0.43407,-0.54828 -0.7207,-0.94727 -0.0158,-0.015 -0.0215,-0.0245 -0.0371,-0.0391 -0.35425,-0.48351 -0.60269,-0.95454 -1.43555,-1.50977 -1.2316,-0.82106 -2.83811,-1.00203 -3.86523,-0.86132 -1.02713,0.1407 -1.70056,0.44207 -2.33203,0.75781 -2.52591,1.26295 -4.92225,3.10484 -7.13281,5.80664 -2.21055,2.70179 -2.93286,6.0377 -3.11915,8.83203 -0.18628,2.79433 -0.17773,6.16733 -0.17773,9.83398 v 11.66606 a 5,5 0 0 0 5,5 5,5 0 0 0 5,-5 V 191.1853 c 0,-3.66665 0.009,-6.96231 0.15625,-9.16796 0.14168,-2.12523 0.12943,-2.21833 0.83203,-3.08399 0.0563,1.78371 0.0388,3.83427 0.41211,6.07422 0.24813,1.48875 0.66819,2.94139 1.78125,4.29297 1.11306,1.35157 2.89169,2.05593 3.60547,2.23437 0.71378,0.17845 2.77977,0.38054 4.41601,-0.39453 1.63626,-0.77507 2.55267,-1.88801 3.39258,-3.08789 0.58047,-0.82924 0.86156,-1.48149 1.39063,-2.40625 0.14303,0.53561 0.3556,0.92982 0.45508,1.40235 0.56466,2.68213 0.55859,4.47006 0.55859,7.13671 v 8.66602 a 5,5 0 0 0 4.21094,4.89648 c -1.64644,0.15149 -2.94996,0.24836 -4.24805,0.48438 -2.2741,0.41347 -3.05966,0.97494 -7.83008,1.29297 -4.77037,0.31803 -13.46612,0.32617 -23.63277,0.32617 -10.16665,0 -21.85791,-0.002 -27.75,-0.16602 -5.89208,-0.16366 -5.51635,-0.40217 -7.1582,-0.63671 -1.64184,-0.23455 -3.30546,-0.19656 -5.70508,-0.64649 -2.39962,-0.44993 -5.79443,-1.45973 -9.49219,-2.16406 -3.69775,-0.70433 -7.50098,-1.0568 -9.23437,-1.3457 -1.7334,-0.2889 -1.63549,-0.52906 -3.07227,-0.81641 -1.43676,-0.28735 -2.35659,-0.20111 -6.074218,-0.84766 -3.71762,-0.64654 -10.051417,-1.97664 -14.998045,-3.13086 -2.256481,-0.52651 -4.182422,-1.01243 -6.015625,-1.48632 v -33.75977 c 0,-10.99998 0.0073,-18.05562 0.160156,-21.57227 0.152899,-3.51664 0.394636,-3.41891 0.636719,-5.59765 0.242085,-2.17875 0.204034,-4.00741 0.621094,-6.50977 0.326774,-1.96064 0.967532,-4.57539 1.523437,-7.12109 z m 15.048824,5.16016 c -0.21083,0.006 -0.42161,0.0264 -0.63085,0.0645 -1.674,0.30436 -2.908862,1.28178 -4.070318,2.54883 -2.322906,2.53407 -4.639454,6.59024 -5.96875,10.57812 -1.329294,3.98784 -1.320312,7.44917 -1.320312,10.44917 a 3,3 0 0 0 3,3 3,3 0 0 0 3,-3 c 0,-2.24553 0.144857,-4.27769 0.568359,-6.39844 3.233959,-0.52053 6.346151,-1.03831 8.773441,-2.25195 1.477028,-0.73851 2.763128,-2.0436 3.230468,-3.53906 0.46733,-1.49547 0.23394,-2.74823 0.0371,-3.73243 -0.39368,-1.96836 -0.87947,-4.25642 -2.822268,-6.19921 -0.84998,-0.84999 -2.321,-1.55932 -3.79688,-1.51953 z m 116.837888,0.61523 c -0.73906,0.0294 -1.51247,0.20264 -2.4414,0.57422 -1.74173,0.69669 -2.7512,2.16951 -2.5625,2.04297 -0.20809,0.20595 -0.78982,0.83695 -1.07813,1.53711 -0.38915,0.94508 -0.4801,1.78942 -0.57226,3.17187 -0.18433,2.76489 -0.17383,7.69922 -0.17383,11.69922 v 10 a 3,3 0 0 0 3,3 3,3 0 0 0 3,-3 v -4.33203 c 0.0694,0.14865 0.15983,0.29312 0.24414,0.48047 0.2148,0.47733 0.6139,1.28577 1.30078,1.97265 1.37378,1.37378 2.77995,1.89584 4.11328,2.5625 a 3,3 0 0 0 4.02539,-1.34179 3,3 0 0 0 -1.34179,-4.02539 c -1.31948,-0.65974 -2.55243,-1.45036 -2.53907,-1.42774 -0.007,-0.0187 -0.0196,-0.0515 -0.0879,-0.20312 -0.1602,-0.356 -0.46814,-1.08418 -1.0039,-1.94141 -0.33901,-0.54242 -0.67115,-1.00363 -1.01172,-1.48828 0.54469,-0.24658 1.1351,-0.4097 1.49609,-0.82227 0.58872,-0.67282 0.63878,-0.94156 0.63477,-0.93554 -0.008,0.012 1.37272,-1.80473 1.79492,-4.33789 0.4222,-2.53319 0.46854,-5.66107 -0.0156,-8.08204 -0.24209,-1.21046 -0.73119,-2.32161 -1.58204,-3.10156 -0.65724,-0.60247 -1.34263,-0.88088 -1.375,-0.85351 -0.42038,-0.3305 -0.97602,-0.71325 -1.59179,-0.86719 -0.78987,-0.19747 -1.49335,-0.31064 -2.23243,-0.28125 z m -96.49414,1.52734 c -0.37788,0.004 -0.75541,0.0269 -1.13086,0.0703 -1.50177,0.17364 -2.97714,0.67096 -4.36718,1.59765 -1.39004,0.92669 -2.25761,2.47966 -2.58008,3.76953 -0.32247,1.28987 -0.33435,2.39765 -0.41406,3.51367 -0.15944,2.23207 -0.49089,5.21485 -0.82422,8.21485 l -1,9 a 3,3 0 0 0 2.65039,3.31445 3,3 0 0 0 3.31445,-2.65039 l 0.80274,-7.2168 c 0.60406,0.33567 1.24397,0.62471 1.99609,0.95899 3.28262,1.45894 8.26955,3.10482 13.26953,4.77148 a 3,3 0 0 0 3.79492,-1.89648 3,3 0 0 0 -1.89648,-3.79492 c -4.00434,-1.33478 -7.3602,-2.5499 -10.19531,-3.6543 0.34973,-0.0625 0.77901,-0.15816 1.07226,-0.20703 0.97334,-0.16222 1.56877,-0.11911 2.72266,-0.66211 0.57694,-0.2715 1.30166,-0.86732 1.68945,-1.52539 0.38779,-0.65807 0.48636,-1.20137 0.55469,-1.61133 0.2733,-1.63981 0.26988,-3.72408 -0.41992,-6.02344 -0.68981,-2.29935 -2.65538,-4.79958 -5.64453,-5.54687 -1.12094,-0.28024 -2.26088,-0.43499 -3.39454,-0.42188 z m 53.66602,1.49805 a 3,3 0 0 0 -3,3 3,3 0 0 0 3,3 h 2 v 16 a 3,3 0 0 0 3,3 3,3 0 0 0 3,-3 v -16 h 1 a 3,3 0 0 0 3,-3 3,3 0 0 0 -3,-3 z m 26.82031,0.006 a 3,3 0 0 0 -0.76953,0.14844 c -1,0.33333 -2.39373,0.76147 -3.77344,1.82031 -1.37969,1.05884 -2.56312,2.72648 -3.29101,4.91016 -0.61366,1.84096 -1.00475,3.9991 -1.24024,6.14843 a 3,3 0 0 0 -0.73047,1.66797 3,3 0 0 0 0.47461,1.91406 c -0.0616,1.63667 -0.0503,3.1589 0.0137,4.375 0.0944,1.79299 0.25621,2.93015 0.88867,4.08008 0.63246,1.14993 2.4805,2.05372 1.93164,1.7793 -1.09778,-0.54888 0.9074,0.7497 2.84375,0.96484 1.93633,0.21515 4.83203,0.18555 7.83203,0.18555 a 3,3 0 0 0 3,-3 3,3 0 0 0 -3,-3 c -3,0 -6.1043,-0.0302 -7.16797,-0.14844 -0.29242,-0.0325 -0.25593,-0.13543 -0.22656,-0.10156 -0.0153,-0.095 -0.0577,-0.0931 -0.10938,-1.07422 -0.032,-0.60801 -0.0303,-1.41838 -0.006,-2.3125 l 6.21094,0.6211 a 3,3 0 0 0 3.28321,-2.68555 3,3 0 0 0 -2.68555,-3.28321 l -6.3418,-0.63476 c 0.19052,-1.43846 0.43322,-2.73129 0.72266,-3.59961 0.43877,-1.31631 0.83804,-1.73072 1.25,-2.04687 0.41196,-0.31615 1.01953,-0.55534 2.01953,-0.88868 a 3,3 0 0 0 1.89648,-3.79492 3,3 0 0 0 -3.02539,-2.04492 z m -62.13476,0.01 a 3,3 0 0 0 -2.66993,3.29883 l 2,19 a 3,3 0 0 0 3.29883,2.66993 3,3 0 0 0 2.66993,-3.29883 l -2,-19 a 3,3 0 0 0 -3.29883,-2.66993 z m -38.845708,2.88672 c 0.27561,0.56882 0.67984,1.32888 0.88477,2.35352 0.11597,0.57984 0.0844,0.6832 0.10351,0.65039 -0.04319,0.0193 -0.02599,0.004 -0.16992,0.0762 -0.39686,0.19843 -2.36771,0.51336 -3.472653,0.78125 0.898553,-1.58812 1.838733,-2.98724 2.525393,-3.73633 0.11998,-0.13088 0.0314,-0.0358 0.1289,-0.125 z m 117.593748,0.18164 c 0.10108,0.0943 0.12663,0.1116 0.29102,0.22657 0.17825,0.95163 0.22465,4.41002 -0.0176,5.86328 -0.21998,1.31991 -0.26413,1.15781 -0.75,1.83008 -0.24073,0.0277 -0.43969,0.0587 -0.88867,0.16211 0.0187,-2.40263 0.007,-5.18778 0.0918,-6.4668 0.0556,-0.83388 0.1265,-1.10995 0.125,-1.13281 0.1516,-0.17012 0.31918,-0.35239 0.35351,-0.42188 0.14996,0.0127 0.64528,-0.0248 0.79492,-0.0606 z m -51.70507,0.92774 a 3,3 0 0 0 -2.7168,3.25976 c 0.33333,3.66667 0.62659,7.35464 0.49609,9.18164 -0.1305,1.82702 -0.42074,1.92003 -0.95898,3.26563 -0.0319,0.0797 -0.0193,0.0672 -0.0469,0.14063 -0.0413,-0.13642 -0.17241,-0.17651 -0.22656,-0.44727 -0.21265,-1.06324 -0.25118,-3.68832 -0.46094,-5.57617 -0.20976,-1.88787 -0.6591,-2.69395 -0.70507,-2.92383 -0.023,-0.11495 -0.0639,-0.84402 -0.38868,-1.81836 -0.32478,-0.97434 -1.23429,-2.38724 -2.70508,-3.01758 -1.47077,-0.63033 -2.59666,-0.54042 -3.67578,-0.49023 -1.07912,0.0502 -2.07675,0.19197 -2.71289,0.27148 -0.63613,0.0795 -1.01317,0.0918 -1.65625,0.24024 -0.64307,0.1484 -2.04717,1.0123 -2.48828,1.89453 -0.44109,0.88219 -0.39135,1.20457 -0.4375,1.41992 -0.0461,0.21535 -0.0747,0.27052 -0.0625,0.24609 0.0244,-0.0489 -1.18522,1.64848 -1.60742,4.18164 -0.42218,2.53319 -0.375,5.82683 -0.375,9.16016 a 3,3 0 0 0 3,3 3,3 0 0 0 3,-3 c 0,-3.33333 0.0485,-6.70702 0.29297,-8.17383 0.24447,-1.46682 0.36554,-1.10217 1.05664,-2.48437 0.113,-0.22601 0.10976,-0.34351 0.18359,-0.54688 0.66474,-0.0835 1.42418,-0.18406 2.08594,-0.21484 0.35559,-0.0165 0.30833,-0.0193 0.51563,0.004 0.0301,0.17969 0.0239,0.1741 0.0898,0.50391 0.28735,1.43678 0.50338,1.29802 0.62695,2.41016 0.12357,1.11214 0.085,3.81974 0.53906,6.08984 0.45403,2.27009 1.78731,3.92218 1.7793,3.91016 -0.004,-0.006 -0.0212,0.17508 0.59375,0.89257 0.615,0.71751 2.069,1.2754 2.90235,1.2754 1.66665,-1e-5 2.77612,-0.16559 4.46679,-1.4336 0.84533,-0.634 1.40395,-1.60519 1.63477,-2.2207 0.23082,-0.61551 0.28734,-0.90391 0.35156,-1.06445 0.12843,-0.32108 1.17021,-2.22676 1.37305,-5.06641 0.20283,-2.83966 -0.17058,-6.48569 -0.50391,-10.15234 a 3,3 0 0 0 -3.25976,-2.7168 z m -44.49414,0.66992 c 0.41527,-0.0159 0.7844,-6.8e-4 1.0371,0.0625 1.01083,0.25271 1.04528,0.4172 1.35547,1.45117 0.20515,0.68383 0.15865,1.43887 0.16407,2.18946 -1.02467,0.17109 -2.46363,0.4229 -3.89258,0.75781 -0.78228,0.18334 -1.52315,0.36531 -2.25977,0.61328 0.0528,-0.59089 0.14892,-1.33485 0.1875,-1.875 0.087,-1.2173 0.1558,-2.10954 0.25,-2.48633 0.0942,-0.37679 -0.0221,-0.15911 0.0879,-0.23242 0.16494,-0.10996 1.8245,-0.43281 3.07032,-0.48047 z m 11.76562,26.31798 a 5,5 0 0 0 -5,5 c 0,4 -0.002,7.93271 -0.16211,11.61523 -0.16011,3.68253 -0.48357,7.25709 -0.65625,9.50196 -0.0532,0.6912 -0.13681,0.97818 -0.2207,1.39648 -0.043,0.0636 -0.11948,0.14557 -0.1543,0.20313 0.0786,-0.16715 -0.16797,-0.0937 -1.17578,0.91406 -0.0707,0.0707 -0.0441,0.0635 -0.0957,0.11914 -0.73068,0.12276 -3.43603,0.1963 -5.42969,0.21875 -0.14821,-0.5038 -0.0802,-0.33474 -0.20313,-0.94922 a 5,5 0 0 0 -5.88281,-3.92187 5,5 0 0 0 -3.92187,5.88281 c 0.33333,1.66667 0.27243,3.24313 1.78125,5.75781 0.7544,1.25734 2.8262,2.7343 4.24609,3.04297 1.41989,0.30867 2.209,0.21875 3.20898,0.21875 2,0 5.17776,0.11008 8.06055,-0.41406 2.88279,-0.52415 5.59426,-3.16847 5.30859,-2.88282 -0.28565,0.28567 -0.0118,0.34385 1.5,-1.16796 0.28957,-0.28957 0.32262,-0.48417 0.5254,-0.78321 0.56843,-0.45382 1.17183,-1.04093 1.57617,-1.84961 1.35919,-2.71841 0.687,-2.93106 0.84765,-5.01953 0.16065,-2.08846 0.50257,-5.8479 0.67578,-9.83203 0.17323,-3.98412 0.17188,-8.05078 0.17188,-12.05078 a 5,5 0 0 0 -5,-5 z m 32.85156,0.64844 c -0.20359,-0.008 -0.40597,-0.005 -0.60351,0.006 -0.79018,0.0437 -1.51618,0.22482 -2.0586,0.46093 -1.08483,0.47223 -1.70573,1.03777 -2.20507,1.53711 -0.99869,0.9987 -1.53164,1.89522 -1.99219,2.70118 -0.63601,1.11299 -1.06486,1.94242 -1.18555,2.24218 -0.24419,0.15387 -1.05501,0.92921 -1.9668,2.29688 -1.23558,1.85338 -1.66562,3.18661 -2.55859,4.58984 -0.89297,1.40324 -2.49093,3.31745 -3.77539,5.24414 -1.28446,1.92669 -1.71972,3.18554 -2.97852,5.70313 -1.25878,2.51758 -3.59636,6.86589 -5.92968,11.19922 a 5,5 0 0 0 2.03125,6.77343 5,5 0 0 0 6.77343,-2.03125 c 1.00647,-1.86915 1.98667,-3.69302 2.91797,-5.4375 a 5,5 0 0 0 0.67969,0.0663 h 11.39844 c 0.32867,1.20379 0.67225,2.14059 0.95898,2.85742 a 5,5 0 0 0 6.5,2.78516 5,5 0 0 0 2.78516,-6.5 c -0.66667,-1.66667 -1.0185,-2.2448 -1.32227,-6.3457 -0.30377,-4.1009 -0.30616,-11.44838 -0.66601,-16.48633 -0.17993,-2.51899 -0.42916,-4.418 -0.89844,-6.10743 -0.46929,-1.68941 -0.875,-3.90311 -4.06641,-5.17968 -0.59838,-0.23936 -1.22712,-0.35213 -1.83789,-0.375 z m -3.81445,8.07812 c 0.0188,4.9e-4 0.0522,0.0471 0.082,0.1543 0.007,0.0238 0.0165,0.14887 0.0234,0.17578 -0.1284,-0.20195 -0.13687,-0.33089 -0.10547,-0.33008 z m 23.25781,0.61328 c 0.0399,-0.0231 0.18808,0.13775 0.40039,0.5625 0.004,0.007 0.01,0.0101 0.0137,0.0176 -0.0668,-0.0975 -0.32399,-0.28653 -0.35937,-0.35742 -0.0639,-0.12807 -0.0787,-0.20878 -0.0547,-0.22266 z m 21.57617,3.87305 c -4.8e-4,0.002 -0.027,0.20224 -0.17578,0.52344 0.005,-0.0842 0.17607,-0.52457 0.17578,-0.52344 z m -44,4.55469 c 0.0901,2.72018 0.16414,5.57404 0.28125,8.23242 h -5.76562 c 0.13514,-0.24455 0.27261,-0.4763 0.43945,-0.72656 0.71554,-1.07331 2.45221,-3.15844 3.89258,-5.42188 0.68022,-1.06891 0.73984,-1.29984 1.15234,-2.08398 z m -80.869135,23.17187 c 1.478699,0.37371 2.907095,0.74167 4.650391,1.14844 5.053351,1.17912 11.384966,2.51439 15.333986,3.20117 3.949008,0.68679 5.695888,0.77435 5.925778,0.82032 0.22988,0.046 0.99512,0.47184 3.26172,0.8496 2.26659,0.37777 5.79542,0.69327 9.09765,1.32227 3.30224,0.629 6.57606,1.6179 9.50977,2.16797 2.93371,0.55007 5.26945,0.58872 5.96094,0.6875 0.69147,0.0988 1.73391,0.52565 7.84179,0.69531 6.1079,0.16966 17.74937,0.16797 27.91602,0.16797 10.16665,0 18.80364,0.009 24.0332,-0.33984 5.22958,-0.34864 7.11135,-1.12181 8.50391,-1.375 1.39255,-0.2532 3.91965,-0.29568 8.56836,-0.98438 3.3484,-0.49606 7.84101,-1.35799 12.5293,-2.2832 -0.13012,8.19736 -0.172,13.61892 -0.45313,17.55469 -0.30874,4.32235 -0.92465,7.69173 -1.29492,10.46875 -0.25928,1.94455 -0.25179,2.25818 -0.26172,2.6875 -1.07857,1.12126 -1.57421,1.82651 -2.75781,2.79492 -1.31226,1.07366 -3.78944,2.62577 -5.63477,4.00976 -0.45784,0.34339 -0.671,0.59348 -1.01562,0.90625 -0.37852,0.1003 -0.63255,0.13076 -1.11133,0.32227 -1.85786,0.74314 -2.73632,1.45068 -4.62891,2.55469 -1.89258,1.10401 -4.89998,2.71273 -6.29687,3.25 -0.69845,0.26863 -0.63397,0.2722 -1.84571,0.36914 -1.21173,0.0969 -3.45599,0.14892 -7.29687,0.23242 -7.68176,0.16699 -21.68283,0.49973 -29.49805,0.66601 -7.81522,0.16629 -9.23823,0.13529 -9.96094,0.0449 -0.72268,-0.0903 -1.59625,-0.39517 -3.39648,-0.65235 -1.80023,-0.25717 -2.77466,-0.23071 -3.83789,-0.44336 -1.06323,-0.21264 -3.14051,-0.90569 -5.60352,-1.35351 -2.46299,-0.44782 -4.19024,-0.49193 -4.77148,-0.6211 -0.58123,-0.12916 -2.26708,-0.87698 -5.21094,-1.50781 -2.94385,-0.63083 -6.41697,-0.97283 -7.68359,-1.20312 -1.26661,-0.23029 -0.41681,-0.24288 -2.45313,-0.75196 -2.03626,-0.50906 -2.64231,-0.32692 -5.85742,-0.64843 -3.2151,-0.32152 -8.8953,-1.02433 -11.933588,-1.71485 -3.03829,-0.69052 -3.53946,-1.17204 -5.466799,-1.99804 -1.927334,-0.826 -2.480365,-0.7609 -3.634765,-1.22266 -1.154401,-0.46176 -3.821075,-1.79445 -6,-2.66602 -0.863331,-0.34533 -1.491768,-0.51634 -2.066407,-0.67578 -0.282472,-0.21237 -0.468669,-0.44723 -0.8125,-0.61914 -0.423632,-0.21181 -0.340232,-0.0869 -0.626953,-0.18945 -0.480931,-0.4483 -0.745413,-0.62976 -0.976562,-0.77344 -0.05447,-0.25394 -0.278062,-1.33359 -0.421875,-3.99414 -0.306925,-5.67973 -0.32191,-17.59749 -0.322266,-30.9043 z m -0.0918,33.81836 c -0.436886,-0.43688 0.148633,0.11997 0.46875,0.60742 0.07712,0.11743 0.04341,0.0937 0.0957,0.19141 -0.223962,-0.32436 -0.22557,-0.45995 -0.564453,-0.79883 z" /></g></svg>
