<?xml version="1.0" encoding="UTF-8" standalone="no"?>
<!-- Created with Inkscape (http://www.inkscape.org/) -->

<svg
   width="300"
   height="300"
   viewBox="0 0 300 300.00001"
   version="1.1"
   id="svg1"
   inkscape:version="1.3.2 (091e20e, 2023-11-25, custom)"
   sodipodi:docname="python.svg"
   xmlns:inkscape="http://www.inkscape.org/namespaces/inkscape"
   xmlns:sodipodi="http://sodipodi.sourceforge.net/DTD/sodipodi-0.dtd"
   xmlns="http://www.w3.org/2000/svg"
   xmlns:svg="http://www.w3.org/2000/svg">
  <sodipodi:namedview
     id="namedview1"
     pagecolor="#ffffff"
     bordercolor="#000000"
     borderopacity="0.25"
     inkscape:showpageshadow="2"
     inkscape:pageopacity="0.0"
     inkscape:pagecheckerboard="0"
     inkscape:deskcolor="#d1d1d1"
     inkscape:document-units="px"
     inkscape:zoom="1"
     inkscape:cx="78"
     inkscape:cy="112.5"
     inkscape:window-width="1366"
     inkscape:window-height="705"
     inkscape:window-x="-8"
     inkscape:window-y="-8"
     inkscape:window-maximized="1"
     inkscape:current-layer="layer1" />
  <defs
     id="defs1">
    <inkscape:path-effect
       effect="bspline"
       id="path-effect9"
       is_visible="true"
       lpeversion="1.3"
       weight="33.333333"
       steps="2"
       helper_size="0"
       apply_no_weight="true"
       apply_with_weight="true"
       only_selected="false"
       uniform="false" />
    <inkscape:path-effect
       effect="bspline"
       id="path-effect8"
       is_visible="true"
       lpeversion="1.3"
       weight="33.333333"
       steps="2"
       helper_size="0"
       apply_no_weight="true"
       apply_with_weight="true"
       only_selected="false"
       uniform="false" />
    <inkscape:path-effect
       effect="bspline"
       id="path-effect7"
       is_visible="true"
       lpeversion="1.3"
       weight="33.333333"
       steps="2"
       helper_size="0"
       apply_no_weight="true"
       apply_with_weight="true"
       only_selected="false"
       uniform="false" />
    <inkscape:path-effect
       effect="bspline"
       id="path-effect6"
       is_visible="true"
       lpeversion="1.3"
       weight="33.333333"
       steps="2"
       helper_size="0"
       apply_no_weight="true"
       apply_with_weight="true"
       only_selected="false"
       uniform="false" />
    <inkscape:path-effect
       effect="bspline"
       id="path-effect5"
       is_visible="true"
       lpeversion="1.3"
       weight="33.333333"
       steps="2"
       helper_size="0"
       apply_no_weight="true"
       apply_with_weight="true"
       only_selected="false"
       uniform="false" />
    <inkscape:path-effect
       effect="bspline"
       id="path-effect4"
       is_visible="true"
       lpeversion="1.3"
       weight="33.333333"
       steps="2"
       helper_size="0"
       apply_no_weight="true"
       apply_with_weight="true"
       only_selected="false"
       uniform="false" />
    <inkscape:path-effect
       effect="bspline"
       id="path-effect3"
       is_visible="true"
       lpeversion="1.3"
       weight="33.333333"
       steps="2"
       helper_size="0"
       apply_no_weight="true"
       apply_with_weight="true"
       only_selected="false"
       uniform="false" />
    <inkscape:path-effect
       effect="bspline"
       id="path-effect2"
       is_visible="true"
       lpeversion="1.3"
       weight="33.333333"
       steps="2"
       helper_size="0"
       apply_no_weight="true"
       apply_with_weight="true"
       only_selected="false"
       uniform="false" />
    <inkscape:path-effect
       effect="bspline"
       id="path-effect1"
       is_visible="true"
       lpeversion="1.3"
       weight="33.333333"
       steps="2"
       helper_size="0"
       apply_no_weight="true"
       apply_with_weight="true"
       only_selected="false"
       uniform="false" />
  </defs>
  <g
     inkscape:label="Layer 1"
     inkscape:groupmode="layer"
     id="layer1">
    <path
       id="path2"
       style="color:#000000;fill:#000000;stroke-linecap:round;stroke-linejoin:round;-inkscape-stroke:none"
       d="m 197.19527,79.587693 c -4.01279,0.04228 -8.26582,0.180459 -11.98828,0.466792 -7.44489,0.57268 -13.40207,2.12439 -18.04492,4.85547 -4.64288,2.7311 -7.7017,5.85516 -9.92383,8.63282 -1.72791,2.15988 -3.39128,4.93654 -3.22656,4.83984 -0.22845,0.38161 -0.47382,0.81678 -0.71289,1.29492 -1.01568,2.031345 -1.36789,3.614855 -1.72266,5.388665 -0.70952,3.54761 -1.41016,7.99104 -1.41015,12.78516 0,2.39705 0.27375,4.75479 1.10351,7.07812 0.4204,1.17711 0.54688,1.17816 1.01172,1.95313 -0.0166,-0.0204 0.0385,1.79829 3.04687,4.80664 0.27483,0.27483 0.24579,0.19282 0.47461,0.41016 0.23511,0.48015 1.14283,1.87329 3.35938,4.08984 1.48209,1.4821 3.66161,2.88985 5.14062,3.60938 1.47904,0.71951 2.5207,1.10966 4.01368,1.73828 2.98592,1.25724 8.3742,3.62093 11.16601,4.94336 2.79181,1.32242 4.31412,2.36045 7.5918,3.34375 3.27769,0.98329 4.80619,1.07369 7.33398,1.83203 2.52782,0.75835 6.69829,2.33868 9.38672,3.29883 0.0395,0.0141 0.0295,0.01 0.0684,0.0234 0.72353,0.75364 0.12598,0.27366 0.99805,1.04883 2.35909,2.09696 3.44988,2.89995 4.56445,4.49219 1.11457,1.59224 2.46088,4.63044 2.84375,7.59765 0.38287,2.96723 -0.10851,7.95733 -0.50195,9.82618 -0.0498,0.23656 -0.0127,0.2165 -0.0137,0.3125 -0.11344,0.10877 -0.21136,0.18977 -0.49414,0.59375 -1.55155,2.21647 -2.57011,3.71451 -3.62305,4.69726 -1.05294,0.98274 -3.88076,2.83328 -7.23633,5.07031 -3.2827,2.18847 -6.13629,4.16202 -6.41016,4.33008 -0.0495,-0.0188 -0.26145,0.005 -1.59179,0.38477 -2.00993,0.57427 -3.19602,1.04033 -3.60547,1.24219 -0.34766,0.004 -1.51049,0.0928 -4.76367,0.30273 -5.27008,0.34001 -13.89162,0.90785 -22.10352,0.1875 -8.2119,-0.72034 -17.35949,-2.87619 -22.72656,-4.29687 -1.91507,-0.50693 -2.46233,-0.71867 -3.1582,-0.95118 -0.0296,-0.11777 -0.10591,-0.21111 -0.29883,-1.80273 -0.50877,-4.19731 -0.9142,-14.39289 -1.07813,-21.93359 -0.16393,-7.54072 -0.13132,-12.85124 -0.54101,-17.76758 -0.4097,-4.91635 -1.27376,-8.57224 -1.45899,-9.6836 -0.18522,-1.11135 0.24877,-2.06817 -1.13867,-6.23047 -0.61911,-1.85731 -1.2701,-3.10734 -1.75,-3.93945 -0.10744,-0.30792 -0.1066,-0.29832 -0.25,-0.72851 -0.56671,-1.70015 -0.83792,-2.40776 -0.94336,-2.61329 0.0362,-0.33442 -0.0595,-1.8807 -0.78906,-4.79882 -0.68604,-2.74415 -1.47422,-4.48473 -1.6582,-4.66211 4.3e-4,-0.36172 -0.48333,-2.40516 -2.04102,-5.20899 -1.97871,-3.56167 -3.93317,-5.61286 -6.08789,-7.76758 -2.15473,-2.15471 -4.0944,-3.847975 -7.08203,-5.341785 -1.01496,-0.50748 -1.78422,-0.70464 -2.58789,-0.95508 -0.64102,-0.36897 -1.23538,-0.84082 -1.88282,-1.05664 -0.6464,-0.21547 -0.34533,-0.06231 -0.74609,-0.16602 -0.74161,-0.48862 -1.53374,-1.00372 -2.56445,-1.41601 -5.102228,-2.04089 -6.404518,-1.22097 -10.289072,-1.38281 -3.884557,-0.16182 -10.56187,-0.4948 -17.228516,-0.82813 a 12.5,12.5 0 0 0 -0.169922,0.01758 2.5,2.5 0 0 0 -2.455078,-2.0332 h -22 a 2.5,2.5 0 0 0 -2.5,2.5 2.5,2.5 0 0 0 2.488281,2.49804 c -0.08555,0.20206 -0.162912,0.42222 -0.230469,0.66992 -0.175152,0.64222 -0.182016,1.00622 -0.173828,0.98829 -0.0082,0.02205 -0.04043,0.12265 -0.09961,0.25585 -0.07891,0.17755 -0.229637,0.41898 -0.386719,0.96875 -0.157088,0.5498 -0.338315,1.19274 -0.04883,0.32422 0.01951,-0.0585 0.145515,-0.1256 0.179688,-0.19336 a 2.5,2.5 0 0 0 -0.441407,1.06446 2.5,2.5 0 0 0 2.5,2.499995 c 0.02671,0 0.40524,0.0688 1.0625,-0.21289 0.657261,-0.28168 1.271896,-1.063705 1.44336,-1.578125 0.163255,-0.48979 0.206339,-0.66843 0.203125,-0.70703 0.02083,-0.04932 0.02965,-0.07398 0.05664,-0.13477 0.134739,-0.30316 0.317325,-0.71943 0.433594,-1.30078 0.08419,-0.42094 0.105525,-0.61423 0.103516,-0.66211 0.01773,-0.03409 0.04912,-0.1059 0.06055,-0.12304 0.018,-0.027 0.0083,-0.02 0.355468,-0.36719 l 1.414063,-1.41602 a 2.5,2.5 0 0 0 0.07031,-0.07421 h 0.998047 c -0.121691,0.28452 -0.250354,0.58656 -0.34375,0.79882 -0.27757,0.63084 -0.431656,0.88872 -0.617187,1.44532 -0.185528,0.55659 -0.18239,0.79361 -0.22461,0.97656 -0.04222,0.18296 -0.199136,0.72368 -0.359375,1.25781 a 2.5,2.5 0 0 0 1.675782,3.113275 2.5,2.5 0 0 0 3.113281,-1.67578 c 0.160239,-0.534125 0.325343,-1.060855 0.443359,-1.572255 0.08668,-0.37564 0.110483,-0.5186 0.107422,-0.53907 0.03432,-0.0701 0.183568,-0.41507 0.4375,-0.99218 0.309964,-0.70446 0.736762,-1.71955 1.164063,-2.73438 a 2.5,2.5 0 0 0 0.0293,-0.07812 h 3.185547 a 12.5,12.5 0 0 0 -4.583984,8.874995 12.5,12.5 0 0 0 4.421875,10.11718 c -2.882956,-0.0208 -5.508638,-0.0896 -7.107422,-0.30273 -2.153717,-0.28716 -2.44336,-0.60286 -3.443359,-1.26953 a 2.5,2.5 0 0 0 -1.876953,-0.3711 2.5,2.5 0 0 0 -1.589844,1.06446 2.5,2.5 0 0 0 0.693359,3.46679 c 1,0.66667 2.710367,1.68496 5.556641,2.06446 2.846276,0.37951 6.830086,0.35547 10.830078,0.35547 a 2.5,2.5 0 0 0 2.490234,-2.41211 12.5,12.5 0 0 0 1.884766,0.39648 c 6.666646,0.33334 13.322074,0.66641 17.4375,0.83789 1.33598,0.0557 1.81583,0.15691 2.50195,0.25195 0.17857,0.0975 0.23283,0.17598 0.42774,0.27344 1.23092,0.61546 2.1802,0.92876 2.94726,1.12695 0.0242,0.0123 0.03029,0.0269 0.05469,0.0391 1.07674,0.53836 1.46758,0.63601 1.97461,0.80859 0.19191,0.15083 0.346776,0.25302 0.609376,0.51563 0.71898,0.71898 1.50489,1.80688 1.62696,1.89843 0.0336,0.18135 0.0742,0.38072 0.51953,1.7168 0.5174,1.55221 0.79547,2.26525 0.9668,2.63477 0.0574,0.67033 0.25606,2.00678 0.68945,3.95703 0.75869,3.41408 1.87145,5.65537 1.67773,5.07422 -0.1937,-0.58112 -0.48025,0.32266 1.34375,3.9707 0.32574,0.65148 0.26679,0.51646 0.45899,0.90234 0.10949,0.60829 0.22016,1.19406 0.39258,2.22852 0.48144,2.88864 0.9481,4.56676 1.20507,7.65039 0.25697,3.08363 0.29154,8.4418 0.46094,16.23437 0.16941,7.79259 0.42934,17.59578 1.25391,24.39844 0.41228,3.40133 0.97534,6.03956 1.93945,8.49805 0.96412,2.4585 2.60237,4.73169 2.40234,4.43164 -0.40005,-0.6001 0.6698,2.39475 4.39844,5.50195 3.72863,3.10719 7.17051,3.90314 13.13672,5.48242 5.96624,1.5793 16.15144,4.08884 26.93945,5.03516 10.78804,0.94633 20.83521,0.18018 25.89844,-0.14648 5.06325,-0.32666 6.98205,-0.26943 9.96289,-1.1211 2.98087,-0.85168 4.31355,-1.51899 3.66602,-1.33398 -0.64753,0.18501 3.03994,-0.46196 6.55078,-2.37696 3.51083,-1.91498 5.8048,-3.81128 8.44922,-5.57421 2.64442,-1.76295 6.48069,-3.91179 10.42773,-7.59571 3.94705,-3.6839 6.26315,-7.51987 7.04492,-8.63672 0.7818,-1.11686 3.5523,-5.62929 4.49219,-10.09375 0.93989,-4.46446 1.7825,-10.80774 0.83203,-18.17382 -0.95046,-7.3661 -3.6061,-13.65996 -7.1582,-18.73438 -3.5521,-5.07441 -7.79464,-8.2721 -8.43555,-8.8418 -0.64091,-0.5697 1.64675,1.44949 -1.63281,-1.83007 -1.63983,-1.63984 -4.62189,-3.06249 -5.45898,-3.35547 -0.83709,-0.29298 -1.18472,-0.39089 -2.17383,-0.74414 -1.97823,-0.70651 -6.47446,-2.45953 -10.61328,-3.70118 -4.13884,-1.24163 -7.27835,-1.81534 -7.33399,-1.83203 -0.0557,-0.0167 -0.5327,-0.31464 -4.07422,-1.99218 -3.54149,-1.67756 -8.81866,-3.97926 -12.16601,-5.38868 -1.02315,-0.4308 -1.22766,-0.51992 -1.69922,-0.7207 -0.0106,-0.0914 -0.0811,-0.2553 -0.98047,-1.38867 0.15386,-1.76286 0.45858,-4.60937 0.70508,-6.01953 0.007,-0.0927 0.48413,-0.91572 0.71875,-1.20899 0.44453,-0.55567 2.05239,-2.09895 3.07617,-2.70117 1.02378,-0.60223 1.73206,-1.0512 7.28711,-1.47851 5.55506,-0.42731 15.32716,-0.45154 19.79102,-0.30274 4.46382,0.14879 4.18617,0.43928 8.05664,0.6543 3.87042,0.21503 9.53843,0.21373 11.66796,0.33203 0.3973,0.0221 0.48266,0.006 0.58594,-0.008 0.11024,0.0678 0.37118,0.18166 0.98633,0.38672 2.55408,0.85134 5.08919,1.4349 7.75586,2.10156 a 12.5,12.5 0 0 0 15.1582,-9.095695 12.5,12.5 0 0 0 -9.0957,-15.15821 c -2.66667,-0.66667 -5.46619,-1.41581 -5.91211,-1.56445 -0.44588,-0.14862 -4.22133,-1.40803 -8.0918,-1.62305 -3.87042,-0.21503 -9.53842,-0.21373 -11.66796,-0.33203 -2.12952,-0.11831 -3.07325,-0.49515 -8.60938,-0.679687 -2.76807,-0.09227 -6.54187,-0.145799 -10.55469,-0.103515 z M 82.283155,93.697065 a 2.5,2.5 0 0 1 1.707031,0.86524 2.5,2.5 0 0 1 -0.271484,3.52539 c -0.373885,0.32047 -0.710098,0.65965 -1.355469,1.04687 -0.49909,0.29944 -0.952423,0.43444 -1.054687,0.45117 -0.09455,0.05167 -0.376371,0.18698 -0.742188,0.34375 -0.145555,0.06238 -0.152649,0.05849 -0.291015,0.113285 -0.01452,-0.0167 0.08992,0.16026 0.05078,0.10156 -0.177655,-0.266475 0.535402,0.82364 0.675781,1.61914 0.140375,0.79547 0.306179,1.55253 -0.04492,2.88672 -0.351099,1.33419 -1.885011,2.36188 -2.585937,2.53711 -0.700927,0.17524 -1.507941,0.27382 -2.501953,-0.16797 -0.759549,-0.33757 -1.167886,-0.78266 -1.273438,-0.92969 -0.04499,-0.0102 -0.228034,-0.15038 -0.566406,-0.60156 -0.480102,-0.64015 -0.554488,-1.14125 -0.673828,-1.64844 -0.11934,-0.5072 -0.287218,-1.29074 -0.410157,-2.08984 -0.06946,-0.45149 -0.156881,-1.01825 -0.113281,-1.67578 a 2.5,2.5 0 0 1 -0.05469,-0.07422 2.5,2.5 0 0 1 1.818359,-3.031247 c 0.01926,-0.005 0.146255,0.006 0.171875,-0.002 0.466323,-0.25229 0.827468,-0.31988 0.861328,-0.33398 0.06558,-0.02732 0.0589,-0.07783 0.613282,-0.32422 0.466812,-0.20749 0.829946,-0.32486 0.826171,-0.31055 0.120832,-0.07444 0.237496,-0.14942 0.402344,-0.22265 0.522918,-0.23239 0.911535,-0.34911 1.126953,-0.44141 0.215416,-0.09233 0.362496,-0.21895 0.960938,-0.44336 0.149609,-0.05611 0.246155,-0.09156 0.304687,-0.11133 0.124178,-0.09918 0.36414,-0.28477 0.601563,-0.48828 a 2.5,2.5 0 0 1 1.818359,-0.59375 z m -30.111328,2.38672 c 0.0853,-0.0015 0.125249,0.0098 0.115234,0.0098 a 2.5,2.5 0 0 0 -1.185547,0.49218 c 0.120836,-0.0893 0.149802,-0.24612 0.277344,-0.30078 0.381578,-0.16353 0.650795,-0.19875 0.792969,-0.20117 z m 56.474613,0.47266 c 0.29864,0.13538 -0.15432,-0.10254 0.27735,0.11328 0.12321,0.0616 0.15543,0.13101 0.27344,0.19531 -0.17923,-0.11813 -0.36577,-0.19626 -0.55079,-0.30859 z m 62.06055,15.412105 c 0.17634,0.0743 0.86732,0.61145 2.29883,2.04297 0.13644,0.13644 0.11083,0.17995 0.23437,0.31054 -0.60499,-0.55944 -1.13591,-1.2156 -1.74414,-1.62109 -0.62712,-0.41808 -0.9654,-0.8067 -0.78906,-0.73242 z m 4.55859,5.02734 c 0.11445,0.22504 0.19525,0.28369 0.25,0.43945 -0.0191,-0.008 -0.20067,-0.0841 -0.20898,-0.0879 -0.0142,-0.0339 -0.0508,-0.0943 -0.0664,-0.13086 0.003,-0.0439 0.0219,-0.17072 0.0254,-0.2207 z m 0.0586,0.38672 c 0.009,0.007 0.17202,0.133 0.21875,0.16406 0.0744,0.27625 0.18752,0.66411 0.14062,0.53906 -0.0317,-0.0845 -0.28493,-0.52466 -0.35937,-0.70312 z" />
  </g>
</svg>
