<?xml version="1.0" encoding="UTF-8" standalone="no"?>
<!-- Created with Inkscape (http://www.inkscape.org/) -->

<svg
   width="300"
   height="300"
   viewBox="0 0 300 300"
   version="1.1"
   id="svg1"
   inkscape:version="1.3.2 (091e20e, 2023-11-25, custom)"
   sodipodi:docname="stack.svg"
   xmlns:inkscape="http://www.inkscape.org/namespaces/inkscape"
   xmlns:sodipodi="http://sodipodi.sourceforge.net/DTD/sodipodi-0.dtd"
   xmlns="http://www.w3.org/2000/svg"
   xmlns:svg="http://www.w3.org/2000/svg">
  <sodipodi:namedview
     id="namedview1"
     pagecolor="#ffffff"
     bordercolor="#000000"
     borderopacity="0.25"
     inkscape:showpageshadow="2"
     inkscape:pageopacity="0.0"
     inkscape:pagecheckerboard="0"
     inkscape:deskcolor="#d1d1d1"
     inkscape:document-units="px"
     inkscape:zoom="1"
     inkscape:cx="150"
     inkscape:cy="150.5"
     inkscape:window-width="1366"
     inkscape:window-height="705"
     inkscape:window-x="-8"
     inkscape:window-y="-8"
     inkscape:window-maximized="1"
     inkscape:current-layer="layer1" />
  <defs
     id="defs1">
    <inkscape:path-effect
       effect="bspline"
       id="path-effect73"
       is_visible="true"
       lpeversion="1.3"
       weight="33.333333"
       steps="2"
       helper_size="0"
       apply_no_weight="true"
       apply_with_weight="true"
       only_selected="false"
       uniform="false" />
    <inkscape:path-effect
       effect="bspline"
       id="path-effect72"
       is_visible="true"
       lpeversion="1.3"
       weight="33.333333"
       steps="2"
       helper_size="0"
       apply_no_weight="true"
       apply_with_weight="true"
       only_selected="false"
       uniform="false" />
    <inkscape:path-effect
       effect="bspline"
       id="path-effect71"
       is_visible="true"
       lpeversion="1.3"
       weight="33.333333"
       steps="2"
       helper_size="0"
       apply_no_weight="true"
       apply_with_weight="true"
       only_selected="false"
       uniform="false" />
    <inkscape:path-effect
       effect="bspline"
       id="path-effect70"
       is_visible="true"
       lpeversion="1.3"
       weight="33.333333"
       steps="2"
       helper_size="0"
       apply_no_weight="true"
       apply_with_weight="true"
       only_selected="false"
       uniform="false" />
    <inkscape:path-effect
       effect="bspline"
       id="path-effect69"
       is_visible="true"
       lpeversion="1.3"
       weight="33.333333"
       steps="2"
       helper_size="0"
       apply_no_weight="true"
       apply_with_weight="true"
       only_selected="false"
       uniform="false" />
    <inkscape:path-effect
       effect="bspline"
       id="path-effect68"
       is_visible="true"
       lpeversion="1.3"
       weight="33.333333"
       steps="2"
       helper_size="0"
       apply_no_weight="true"
       apply_with_weight="true"
       only_selected="false"
       uniform="false" />
    <inkscape:path-effect
       effect="bspline"
       id="path-effect67"
       is_visible="true"
       lpeversion="1.3"
       weight="33.333333"
       steps="2"
       helper_size="0"
       apply_no_weight="true"
       apply_with_weight="true"
       only_selected="false"
       uniform="false" />
    <inkscape:path-effect
       effect="bspline"
       id="path-effect66"
       is_visible="true"
       lpeversion="1.3"
       weight="33.333333"
       steps="2"
       helper_size="0"
       apply_no_weight="true"
       apply_with_weight="true"
       only_selected="false"
       uniform="false" />
    <inkscape:path-effect
       effect="bspline"
       id="path-effect65"
       is_visible="true"
       lpeversion="1.3"
       weight="33.333333"
       steps="2"
       helper_size="0"
       apply_no_weight="true"
       apply_with_weight="true"
       only_selected="false"
       uniform="false" />
    <inkscape:path-effect
       effect="bspline"
       id="path-effect64"
       is_visible="true"
       lpeversion="1.3"
       weight="33.333333"
       steps="2"
       helper_size="0"
       apply_no_weight="true"
       apply_with_weight="true"
       only_selected="false"
       uniform="false" />
    <inkscape:path-effect
       effect="bspline"
       id="path-effect63"
       is_visible="true"
       lpeversion="1.3"
       weight="33.333333"
       steps="2"
       helper_size="0"
       apply_no_weight="true"
       apply_with_weight="true"
       only_selected="false"
       uniform="false" />
    <inkscape:path-effect
       effect="bspline"
       id="path-effect62"
       is_visible="true"
       lpeversion="1.3"
       weight="33.333333"
       steps="2"
       helper_size="0"
       apply_no_weight="true"
       apply_with_weight="true"
       only_selected="false"
       uniform="false" />
    <inkscape:path-effect
       effect="bspline"
       id="path-effect61"
       is_visible="true"
       lpeversion="1.3"
       weight="33.333333"
       steps="2"
       helper_size="0"
       apply_no_weight="true"
       apply_with_weight="true"
       only_selected="false"
       uniform="false" />
    <inkscape:path-effect
       effect="bspline"
       id="path-effect60"
       is_visible="true"
       lpeversion="1.3"
       weight="33.333333"
       steps="2"
       helper_size="0"
       apply_no_weight="true"
       apply_with_weight="true"
       only_selected="false"
       uniform="false" />
    <inkscape:path-effect
       effect="bspline"
       id="path-effect59"
       is_visible="true"
       lpeversion="1.3"
       weight="33.333333"
       steps="2"
       helper_size="0"
       apply_no_weight="true"
       apply_with_weight="true"
       only_selected="false"
       uniform="false" />
    <inkscape:path-effect
       effect="bspline"
       id="path-effect58"
       is_visible="true"
       lpeversion="1.3"
       weight="33.333333"
       steps="2"
       helper_size="0"
       apply_no_weight="true"
       apply_with_weight="true"
       only_selected="false"
       uniform="false" />
    <inkscape:path-effect
       effect="bspline"
       id="path-effect57"
       is_visible="true"
       lpeversion="1.3"
       weight="33.333333"
       steps="2"
       helper_size="0"
       apply_no_weight="true"
       apply_with_weight="true"
       only_selected="false"
       uniform="false" />
    <inkscape:path-effect
       effect="bspline"
       id="path-effect56"
       is_visible="true"
       lpeversion="1.3"
       weight="33.333333"
       steps="2"
       helper_size="0"
       apply_no_weight="true"
       apply_with_weight="true"
       only_selected="false"
       uniform="false" />
    <inkscape:path-effect
       effect="bspline"
       id="path-effect55"
       is_visible="true"
       lpeversion="1.3"
       weight="33.333333"
       steps="2"
       helper_size="0"
       apply_no_weight="true"
       apply_with_weight="true"
       only_selected="false"
       uniform="false" />
    <inkscape:path-effect
       effect="bspline"
       id="path-effect54"
       is_visible="true"
       lpeversion="1.3"
       weight="33.333333"
       steps="2"
       helper_size="0"
       apply_no_weight="true"
       apply_with_weight="true"
       only_selected="false"
       uniform="false" />
    <inkscape:path-effect
       effect="bspline"
       id="path-effect53"
       is_visible="true"
       lpeversion="1.3"
       weight="33.333333"
       steps="2"
       helper_size="0"
       apply_no_weight="true"
       apply_with_weight="true"
       only_selected="false"
       uniform="false" />
    <inkscape:path-effect
       effect="bspline"
       id="path-effect52"
       is_visible="true"
       lpeversion="1.3"
       weight="33.333333"
       steps="2"
       helper_size="0"
       apply_no_weight="true"
       apply_with_weight="true"
       only_selected="false"
       uniform="false" />
    <inkscape:path-effect
       effect="bspline"
       id="path-effect51"
       is_visible="true"
       lpeversion="1.3"
       weight="33.333333"
       steps="2"
       helper_size="0"
       apply_no_weight="true"
       apply_with_weight="true"
       only_selected="false"
       uniform="false" />
    <inkscape:path-effect
       effect="bspline"
       id="path-effect50"
       is_visible="true"
       lpeversion="1.3"
       weight="33.333333"
       steps="2"
       helper_size="0"
       apply_no_weight="true"
       apply_with_weight="true"
       only_selected="false"
       uniform="false" />
    <inkscape:path-effect
       effect="bspline"
       id="path-effect49"
       is_visible="true"
       lpeversion="1.3"
       weight="33.333333"
       steps="2"
       helper_size="0"
       apply_no_weight="true"
       apply_with_weight="true"
       only_selected="false"
       uniform="false" />
    <inkscape:path-effect
       effect="bspline"
       id="path-effect48"
       is_visible="true"
       lpeversion="1.3"
       weight="33.333333"
       steps="2"
       helper_size="0"
       apply_no_weight="true"
       apply_with_weight="true"
       only_selected="false"
       uniform="false" />
    <inkscape:path-effect
       effect="bspline"
       id="path-effect47"
       is_visible="true"
       lpeversion="1.3"
       weight="33.333333"
       steps="2"
       helper_size="0"
       apply_no_weight="true"
       apply_with_weight="true"
       only_selected="false"
       uniform="false" />
    <inkscape:path-effect
       effect="bspline"
       id="path-effect46"
       is_visible="true"
       lpeversion="1.3"
       weight="33.333333"
       steps="2"
       helper_size="0"
       apply_no_weight="true"
       apply_with_weight="true"
       only_selected="false"
       uniform="false" />
    <inkscape:path-effect
       effect="bspline"
       id="path-effect38"
       is_visible="true"
       lpeversion="1.3"
       weight="33.333333"
       steps="2"
       helper_size="0"
       apply_no_weight="true"
       apply_with_weight="true"
       only_selected="false"
       uniform="false" />
    <inkscape:path-effect
       effect="bspline"
       id="path-effect45"
       is_visible="true"
       lpeversion="1.3"
       weight="33.333333"
       steps="2"
       helper_size="0"
       apply_no_weight="true"
       apply_with_weight="true"
       only_selected="false"
       uniform="false" />
    <inkscape:path-effect
       effect="bspline"
       id="path-effect44"
       is_visible="true"
       lpeversion="1.3"
       weight="33.333333"
       steps="2"
       helper_size="0"
       apply_no_weight="true"
       apply_with_weight="true"
       only_selected="false"
       uniform="false" />
    <inkscape:path-effect
       effect="bspline"
       id="path-effect43"
       is_visible="true"
       lpeversion="1.3"
       weight="33.333333"
       steps="2"
       helper_size="0"
       apply_no_weight="true"
       apply_with_weight="true"
       only_selected="false"
       uniform="false" />
    <inkscape:path-effect
       effect="bspline"
       id="path-effect42"
       is_visible="true"
       lpeversion="1.3"
       weight="33.333333"
       steps="2"
       helper_size="0"
       apply_no_weight="true"
       apply_with_weight="true"
       only_selected="false"
       uniform="false" />
    <inkscape:path-effect
       effect="bspline"
       id="path-effect41"
       is_visible="true"
       lpeversion="1.3"
       weight="33.333333"
       steps="2"
       helper_size="0"
       apply_no_weight="true"
       apply_with_weight="true"
       only_selected="false"
       uniform="false" />
    <inkscape:path-effect
       effect="bspline"
       id="path-effect40"
       is_visible="true"
       lpeversion="1.3"
       weight="33.333333"
       steps="2"
       helper_size="0"
       apply_no_weight="true"
       apply_with_weight="true"
       only_selected="false"
       uniform="false" />
    <inkscape:path-effect
       effect="bspline"
       id="path-effect39"
       is_visible="true"
       lpeversion="1.3"
       weight="33.333333"
       steps="2"
       helper_size="0"
       apply_no_weight="true"
       apply_with_weight="true"
       only_selected="false"
       uniform="false" />
    <inkscape:path-effect
       effect="bspline"
       id="path-effect37"
       is_visible="true"
       lpeversion="1.3"
       weight="33.333333"
       steps="2"
       helper_size="0"
       apply_no_weight="true"
       apply_with_weight="true"
       only_selected="false"
       uniform="false" />
    <inkscape:path-effect
       effect="bspline"
       id="path-effect36"
       is_visible="true"
       lpeversion="1.3"
       weight="33.333333"
       steps="2"
       helper_size="0"
       apply_no_weight="true"
       apply_with_weight="true"
       only_selected="false"
       uniform="false" />
    <inkscape:path-effect
       effect="bspline"
       id="path-effect35"
       is_visible="true"
       lpeversion="1.3"
       weight="33.333333"
       steps="2"
       helper_size="0"
       apply_no_weight="true"
       apply_with_weight="true"
       only_selected="false"
       uniform="false" />
    <inkscape:path-effect
       effect="bspline"
       id="path-effect34"
       is_visible="true"
       lpeversion="1.3"
       weight="33.333333"
       steps="2"
       helper_size="0"
       apply_no_weight="true"
       apply_with_weight="true"
       only_selected="false"
       uniform="false" />
    <inkscape:path-effect
       effect="bspline"
       id="path-effect33"
       is_visible="true"
       lpeversion="1.3"
       weight="33.333333"
       steps="2"
       helper_size="0"
       apply_no_weight="true"
       apply_with_weight="true"
       only_selected="false"
       uniform="false" />
    <inkscape:path-effect
       effect="bspline"
       id="path-effect32"
       is_visible="true"
       lpeversion="1.3"
       weight="33.333333"
       steps="2"
       helper_size="0"
       apply_no_weight="true"
       apply_with_weight="true"
       only_selected="false"
       uniform="false" />
    <inkscape:path-effect
       effect="bspline"
       id="path-effect31"
       is_visible="true"
       lpeversion="1.3"
       weight="33.333333"
       steps="2"
       helper_size="0"
       apply_no_weight="true"
       apply_with_weight="true"
       only_selected="false"
       uniform="false" />
    <inkscape:path-effect
       effect="bspline"
       id="path-effect30"
       is_visible="true"
       lpeversion="1.3"
       weight="33.333333"
       steps="2"
       helper_size="0"
       apply_no_weight="true"
       apply_with_weight="true"
       only_selected="false"
       uniform="false" />
    <inkscape:path-effect
       effect="bspline"
       id="path-effect29"
       is_visible="true"
       lpeversion="1.3"
       weight="33.333333"
       steps="2"
       helper_size="0"
       apply_no_weight="true"
       apply_with_weight="true"
       only_selected="false"
       uniform="false" />
    <inkscape:path-effect
       effect="bspline"
       id="path-effect28"
       is_visible="true"
       lpeversion="1.3"
       weight="33.333333"
       steps="2"
       helper_size="0"
       apply_no_weight="true"
       apply_with_weight="true"
       only_selected="false"
       uniform="false" />
    <inkscape:path-effect
       effect="bspline"
       id="path-effect27"
       is_visible="true"
       lpeversion="1.3"
       weight="33.333333"
       steps="2"
       helper_size="0"
       apply_no_weight="true"
       apply_with_weight="true"
       only_selected="false"
       uniform="false" />
    <inkscape:path-effect
       effect="bspline"
       id="path-effect26"
       is_visible="true"
       lpeversion="1.3"
       weight="33.333333"
       steps="2"
       helper_size="0"
       apply_no_weight="true"
       apply_with_weight="true"
       only_selected="false"
       uniform="false" />
    <inkscape:path-effect
       effect="bspline"
       id="path-effect25"
       is_visible="true"
       lpeversion="1.3"
       weight="33.333333"
       steps="2"
       helper_size="0"
       apply_no_weight="true"
       apply_with_weight="true"
       only_selected="false"
       uniform="false" />
    <inkscape:path-effect
       effect="bspline"
       id="path-effect24"
       is_visible="true"
       lpeversion="1.3"
       weight="33.333333"
       steps="2"
       helper_size="0"
       apply_no_weight="true"
       apply_with_weight="true"
       only_selected="false"
       uniform="false" />
    <inkscape:path-effect
       effect="bspline"
       id="path-effect23"
       is_visible="true"
       lpeversion="1.3"
       weight="33.333333"
       steps="2"
       helper_size="0"
       apply_no_weight="true"
       apply_with_weight="true"
       only_selected="false"
       uniform="false" />
    <inkscape:path-effect
       effect="bspline"
       id="path-effect22"
       is_visible="true"
       lpeversion="1.3"
       weight="33.333333"
       steps="2"
       helper_size="0"
       apply_no_weight="true"
       apply_with_weight="true"
       only_selected="false"
       uniform="false" />
    <inkscape:path-effect
       effect="bspline"
       id="path-effect21"
       is_visible="true"
       lpeversion="1.3"
       weight="33.333333"
       steps="2"
       helper_size="0"
       apply_no_weight="true"
       apply_with_weight="true"
       only_selected="false"
       uniform="false" />
    <inkscape:path-effect
       effect="bspline"
       id="path-effect20"
       is_visible="true"
       lpeversion="1.3"
       weight="33.333333"
       steps="2"
       helper_size="0"
       apply_no_weight="true"
       apply_with_weight="true"
       only_selected="false"
       uniform="false" />
    <inkscape:path-effect
       effect="bspline"
       id="path-effect19"
       is_visible="true"
       lpeversion="1.3"
       weight="33.333333"
       steps="2"
       helper_size="0"
       apply_no_weight="true"
       apply_with_weight="true"
       only_selected="false"
       uniform="false" />
    <inkscape:path-effect
       effect="bspline"
       id="path-effect18"
       is_visible="true"
       lpeversion="1.3"
       weight="33.333333"
       steps="2"
       helper_size="0"
       apply_no_weight="true"
       apply_with_weight="true"
       only_selected="false"
       uniform="false" />
    <inkscape:path-effect
       effect="bspline"
       id="path-effect17"
       is_visible="true"
       lpeversion="1.3"
       weight="33.333333"
       steps="2"
       helper_size="0"
       apply_no_weight="true"
       apply_with_weight="true"
       only_selected="false"
       uniform="false" />
    <inkscape:path-effect
       effect="bspline"
       id="path-effect16"
       is_visible="true"
       lpeversion="1.3"
       weight="33.333333"
       steps="2"
       helper_size="0"
       apply_no_weight="true"
       apply_with_weight="true"
       only_selected="false"
       uniform="false" />
    <inkscape:path-effect
       effect="bspline"
       id="path-effect15"
       is_visible="true"
       lpeversion="1.3"
       weight="33.333333"
       steps="2"
       helper_size="0"
       apply_no_weight="true"
       apply_with_weight="true"
       only_selected="false"
       uniform="false" />
    <inkscape:path-effect
       effect="bspline"
       id="path-effect14"
       is_visible="true"
       lpeversion="1.3"
       weight="33.333333"
       steps="2"
       helper_size="0"
       apply_no_weight="true"
       apply_with_weight="true"
       only_selected="false"
       uniform="false" />
    <inkscape:path-effect
       effect="bspline"
       id="path-effect13"
       is_visible="true"
       lpeversion="1.3"
       weight="33.333333"
       steps="2"
       helper_size="0"
       apply_no_weight="true"
       apply_with_weight="true"
       only_selected="false"
       uniform="false" />
    <inkscape:path-effect
       effect="bspline"
       id="path-effect12"
       is_visible="true"
       lpeversion="1.3"
       weight="33.333333"
       steps="2"
       helper_size="0"
       apply_no_weight="true"
       apply_with_weight="true"
       only_selected="false"
       uniform="false" />
    <inkscape:path-effect
       effect="bspline"
       id="path-effect11"
       is_visible="true"
       lpeversion="1.3"
       weight="33.333333"
       steps="2"
       helper_size="0"
       apply_no_weight="true"
       apply_with_weight="true"
       only_selected="false"
       uniform="false" />
    <inkscape:path-effect
       effect="bspline"
       id="path-effect10"
       is_visible="true"
       lpeversion="1.3"
       weight="33.333333"
       steps="2"
       helper_size="0"
       apply_no_weight="true"
       apply_with_weight="true"
       only_selected="false"
       uniform="false" />
    <inkscape:path-effect
       effect="bspline"
       id="path-effect9"
       is_visible="true"
       lpeversion="1.3"
       weight="33.333333"
       steps="2"
       helper_size="0"
       apply_no_weight="true"
       apply_with_weight="true"
       only_selected="false"
       uniform="false" />
    <inkscape:path-effect
       effect="bspline"
       id="path-effect8"
       is_visible="true"
       lpeversion="1.3"
       weight="33.333333"
       steps="2"
       helper_size="0"
       apply_no_weight="true"
       apply_with_weight="true"
       only_selected="false"
       uniform="false" />
    <inkscape:path-effect
       effect="bspline"
       id="path-effect7"
       is_visible="true"
       lpeversion="1.3"
       weight="33.333333"
       steps="2"
       helper_size="0"
       apply_no_weight="true"
       apply_with_weight="true"
       only_selected="false"
       uniform="false" />
    <inkscape:path-effect
       effect="bspline"
       id="path-effect6"
       is_visible="true"
       lpeversion="1.3"
       weight="33.333333"
       steps="2"
       helper_size="0"
       apply_no_weight="true"
       apply_with_weight="true"
       only_selected="false"
       uniform="false" />
    <inkscape:path-effect
       effect="bspline"
       id="path-effect5"
       is_visible="true"
       lpeversion="1.3"
       weight="33.333333"
       steps="2"
       helper_size="0"
       apply_no_weight="true"
       apply_with_weight="true"
       only_selected="false"
       uniform="false" />
    <inkscape:path-effect
       effect="bspline"
       id="path-effect4"
       is_visible="true"
       lpeversion="1.3"
       weight="33.333333"
       steps="2"
       helper_size="0"
       apply_no_weight="true"
       apply_with_weight="true"
       only_selected="false"
       uniform="false" />
    <inkscape:path-effect
       effect="bspline"
       id="path-effect3"
       is_visible="true"
       lpeversion="1.3"
       weight="33.333333"
       steps="2"
       helper_size="0"
       apply_no_weight="true"
       apply_with_weight="true"
       only_selected="false"
       uniform="false" />
    <inkscape:path-effect
       effect="bspline"
       id="path-effect2"
       is_visible="true"
       lpeversion="1.3"
       weight="33.333333"
       steps="2"
       helper_size="0"
       apply_no_weight="true"
       apply_with_weight="true"
       only_selected="false"
       uniform="false" />
    <inkscape:path-effect
       effect="bspline"
       id="path-effect1"
       is_visible="true"
       lpeversion="1.3"
       weight="33.333333"
       steps="2"
       helper_size="0"
       apply_no_weight="true"
       apply_with_weight="true"
       only_selected="false"
       uniform="false" />
  </defs>
  <g
     inkscape:label="Layer 1"
     inkscape:groupmode="layer"
     id="layer1">
    <path
       id="rect58"
       style="color:#000000;fill:#000000;stroke-linecap:round;stroke-linejoin:round;-inkscape-stroke:none"
       d="M 26 22 A 4.0004 4.0004 0 0 0 22 26 L 22 57 L 22 88 L 22 119 L 22 150 L 22 181 L 22 212 L 22 243 L 22 274 A 4.0004 4.0004 0 0 0 26 278 L 274 278 A 4.0004 4.0004 0 0 0 278 274 L 278 243 L 278 212 L 278 181 L 278 150 L 278 119 L 278 88 L 278 57 L 278 26 A 4.0004 4.0004 0 0 0 274 22 L 26 22 z M 30 30 L 270 30 L 270 53 L 30 53 L 30 30 z M 135.59375 30.898438 C 135.40838 30.896955 135.21897 30.903519 135.02539 30.917969 C 134.25107 30.975769 133.41315 31.163209 132.52734 31.503906 C 130.75572 32.185302 128.94782 33.348776 127.16211 34.464844 A 2 2 0 0 0 126.52734 37.220703 A 2 2 0 0 0 129.2832 37.857422 C 131.06891 36.741354 132.83274 35.671001 133.96289 35.236328 C 135.09304 34.801656 135.74552 34.873996 136.04297 34.958984 C 136.34044 35.043974 136.3707 35.141013 137.04688 35.591797 C 137.10757 35.632237 137.05692 35.592753 137.10352 35.623047 C 137.17722 35.86376 137.38281 36.689278 137.38281 37.722656 C 137.38281 38.83972 137.11812 39.838919 136.74219 40.214844 C 136.36626 40.590771 134.93602 41.105537 133.76953 41.542969 C 132.73568 41.930664 132.27175 42.338612 132.61133 42.210938 C 132.56873 42.226117 132.53413 42.241679 132.44727 42.261719 C 132.19292 42.320419 131.75095 42.416691 131.24219 42.755859 C 130.45169 43.282854 130.13391 43.780842 130.14453 43.863281 C 130.03357 43.8898 129.91407 43.917971 129.59961 44.232422 C 129.267 44.565028 129.31376 44.540834 129.26367 44.607422 C 129.13595 44.647142 128.85619 44.765934 128.63086 44.822266 C 128.55726 44.840656 128.48677 44.857073 128.39844 44.876953 C 128.35424 44.886853 128.31204 44.894008 128.20703 44.923828 C 128.15453 44.938748 128.09601 44.950458 127.92578 45.025391 C 127.84068 45.062861 127.72899 45.103442 127.50781 45.273438 C 127.45251 45.315937 127.3186 45.437261 127.31836 45.4375 C 127.31812 45.437739 127.0861 45.714612 127.08594 45.714844 C 127.08578 45.715076 126.84384 46.179464 126.84375 46.179688 C 126.84367 46.179912 126.72461 46.86111 126.72461 46.861328 C 126.72461 46.861546 126.86125 47.585727 126.86133 47.585938 C 126.86141 47.586149 127.16975 48.118936 127.16992 48.119141 C 127.17025 48.11955 127.7298 48.597273 127.73047 48.597656 C 127.73114 48.598039 127.97996 48.720783 128.0625 48.75 C 128.145 48.77922 128.20684 48.796114 128.25781 48.808594 C 128.46167 48.858544 128.52487 48.856048 128.58594 48.861328 C 128.70809 48.871898 128.7606 48.871837 128.82812 48.873047 C 128.96317 48.875447 129.11468 48.875 129.33789 48.875 C 130.23075 48.875 132.23258 48.900421 133.25195 49.070312 C 134.27132 49.240208 134.72279 49.613315 135.99609 49.931641 C 137.26939 50.249965 138.51785 50.246464 138.83203 50.298828 C 138.84791 50.301475 138.85335 50.299704 138.86523 50.300781 A 2 2 0 0 0 141.69141 50.298828 A 2 2 0 0 0 141.69141 47.46875 C 141.4682 47.245537 140.51339 46.524364 139.48828 46.353516 C 138.46319 46.182667 137.47921 46.178884 136.9668 46.050781 C 136.62717 45.965871 135.7238 45.681946 134.93945 45.4375 C 134.96185 45.41764 135.01726 45.34657 135.17578 45.287109 C 135.79502 45.054899 137.9373 44.675965 139.57031 43.042969 C 141.20331 41.409968 141.38281 39.284161 141.38281 37.722656 C 141.38281 36.161152 141.18695 34.951726 140.79297 33.966797 C 140.59599 33.474342 140.21723 32.926983 139.81641 32.615234 C 139.41559 32.303487 139.26237 32.261498 139.26562 32.263672 C 139.27262 32.268072 138.40761 31.47472 137.14258 31.113281 C 136.66819 30.977741 136.14985 30.902884 135.59375 30.898438 z M 153.16406 32.121094 C 151.28976 32.095673 149.40108 32.19854 147.71094 33.427734 C 146.58417 34.2472 146.06793 35.470473 145.85547 36.494141 C 145.64301 37.517808 145.66016 38.448383 145.66016 39.173828 C 145.66016 39.899273 145.62066 40.660841 145.86914 41.580078 C 146.11759 42.499315 146.94156 43.608264 148.0332 44.044922 C 149.12484 44.481579 150.07377 44.465467 151.00391 44.480469 C 151.93405 44.495469 152.82884 44.476665 153.29688 44.515625 C 154.21734 44.592335 153.82594 44.532826 154.45508 44.958984 C 154.50658 45.180039 154.5544 45.4725 154.5332 45.654297 C 154.509 45.862657 154.5262 45.841628 154.4082 45.927734 C 154.2898 46.013844 153.53565 46.320113 152.50391 46.494141 C 151.47217 46.668167 150.17326 46.779018 148.83398 46.890625 A 2 2 0 0 0 147.00586 49.050781 A 2 2 0 0 0 149.16602 50.876953 C 150.50529 50.765346 151.88386 50.654097 153.16797 50.4375 C 154.45208 50.220903 155.65049 49.968858 156.75977 49.162109 C 157.86904 48.355361 158.39058 47.106649 158.50586 46.115234 C 158.62114 45.12382 158.44905 44.317766 158.28906 43.757812 C 158.12907 43.197868 157.87147 42.621468 157.43164 42.181641 C 156.99182 41.741812 156.6901 41.636497 156.69336 41.638672 C 156.70036 41.643072 155.37138 40.674505 153.62891 40.529297 C 152.75767 40.456687 151.86813 40.493369 151.06836 40.480469 C 150.37247 40.469249 149.89118 40.381309 149.7207 40.349609 C 149.6929 40.15873 149.66016 39.800391 149.66016 39.173828 C 149.66016 38.448383 149.67705 37.761764 149.77148 37.306641 C 149.86598 36.851516 149.96354 36.7355 150.06445 36.662109 C 150.26627 36.515327 152.57004 36.152344 155.02539 36.152344 A 2 2 0 0 0 157.02539 34.152344 A 2 2 0 0 0 155.02539 32.152344 C 154.41155 32.152344 153.78883 32.129567 153.16406 32.121094 z M 171.96094 34.169922 A 2 2 0 0 0 171.43945 34.1875 C 170.10017 34.410714 168.83623 34.583888 167.78711 34.933594 C 167.26256 35.108447 166.7534 35.411698 166.46289 35.669922 C 166.35125 35.769155 166.32231 35.795979 166.29297 35.824219 C 166.1422 35.864939 165.23165 36.295692 164.4375 37.089844 C 163.50235 38.025 163.00732 39.11598 162.70117 40.1875 C 162.39502 41.25902 162.40894 41.937101 162.22656 42.757812 C 162.04418 43.578525 161.60653 44.780772 161.42383 45.876953 C 161.37813 46.150999 161.33563 46.455168 161.39453 46.875 C 161.45343 47.294832 161.69227 47.831293 161.98633 48.162109 C 162.57445 48.823745 162.85897 48.818897 163.03711 48.925781 C 163.39339 49.139545 164.62601 50.053961 166.37109 50.490234 C 168.11618 50.92651 169.8578 50.976958 171.35938 50.601562 C 172.11015 50.413866 173.10284 49.797401 173.48242 48.943359 C 173.86199 48.089319 173.76758 47.544084 173.76758 47.097656 C 173.76758 46.204801 173.81158 44.96337 173.62891 43.867188 C 173.53751 43.319088 173.30121 42.696909 172.92383 42.265625 C 172.66254 41.967003 172.51475 41.849434 172.48438 41.841797 C 172.39284 41.732629 172.16738 41.494679 171.85156 41.257812 C 171.37234 40.898401 170.71205 40.606083 169.92773 40.449219 C 169.11347 40.286366 168.0329 40.336771 167.05859 40.3125 C 167.13549 40.191942 167.21344 39.970154 167.26562 39.917969 C 167.44653 39.737057 167.6766 39.728623 168.52344 39.164062 C 168.8 38.979692 168.97561 38.814936 169.06055 38.726562 C 169.36214 38.628324 170.76431 38.354712 172.0957 38.132812 A 2 2 0 0 0 173.74023 35.832031 A 2 2 0 0 0 171.96094 34.169922 z M 165.9668 44.248047 C 167.23173 44.273057 168.69825 44.282227 169.14258 44.371094 C 169.29997 44.402571 169.38157 44.426838 169.42383 44.443359 C 169.4182 44.44622 169.45784 44.492999 169.68359 44.71875 C 169.69359 44.72845 169.68045 44.715309 169.68945 44.724609 C 169.72065 45.044861 169.74431 45.914912 169.75391 46.697266 C 169.10294 46.737736 168.08079 46.794125 167.3418 46.609375 C 166.60894 46.426158 166.12614 46.075965 165.57812 45.734375 C 165.6921 45.322463 165.80403 44.882776 165.9668 44.248047 z M 30 61 L 270 61 L 270 84 L 30 84 L 30 61 z M 161.04492 63.625 A 2 2 0 0 0 160.04688 63.910156 C 158.93081 64.579797 157.423 65.519941 156.00391 67.455078 C 154.58481 69.390214 153.22542 71.961742 152.75977 74.134766 C 152.52695 75.221277 152.62192 76.290695 153.02344 77.09375 C 153.42497 77.896805 153.97666 78.318464 154.08203 78.423828 C 154.29276 78.634559 155.24187 79.746021 156.73633 80.078125 C 157.48357 80.244178 158.31548 80.304046 159.2168 80.230469 C 160.11813 80.156889 161.09431 79.998119 162.05273 79.279297 C 163.01116 78.560476 163.42502 77.538217 163.58398 76.720703 C 163.74294 75.903189 163.6988 75.219966 163.60742 74.671875 C 163.51602 74.123775 163.27972 73.499644 162.90234 73.068359 C 162.67426 72.807692 162.53858 72.691198 162.48438 72.658203 C 162.45921 72.624492 162.43959 72.600798 162.40625 72.550781 C 162.29464 72.383371 162.16761 72.148085 161.82031 71.800781 C 161.58487 71.565339 161.38258 71.481407 161.17773 71.371094 C 161.22553 71.393954 161.29212 71.415844 160.96875 71.138672 C 160.5138 70.748716 159.94458 70.552287 159.39648 70.460938 C 159.25444 70.437268 159.06674 70.460015 158.91992 70.443359 C 159.05095 70.238112 159.10328 69.9911 159.22852 69.820312 C 160.26476 68.407246 160.98941 68.009484 162.10547 67.339844 A 2 2 0 0 0 162.79102 64.595703 A 2 2 0 0 0 161.5625 63.685547 A 2 2 0 0 0 161.04492 63.625 z M 143.11914 64.654297 C 142.76804 64.668922 142.46865 64.764696 142.26953 64.853516 C 141.95094 64.995621 141.78208 65.130334 141.64062 65.242188 C 141.35771 65.465897 141.19303 65.634575 141.00977 65.794922 C 140.27676 66.43631 138.70898 67.569478 137.14648 68.685547 A 2 2 0 0 0 136.68164 71.474609 A 2 2 0 0 0 139.4707 71.939453 C 140.3361 71.321309 141.00391 70.783342 141.78125 70.203125 C 141.96061 72.530182 142.15002 75.838101 142.33789 79.783203 A 2 2 0 0 0 144.42969 81.685547 A 2 2 0 0 0 146.33398 79.591797 C 146.11076 74.904306 145.89511 70.270066 145.6543 67.982422 C 145.5941 67.41051 145.54359 66.986239 145.41797 66.523438 C 145.35517 66.292038 145.2816 66.042478 145.07617 65.712891 C 144.87074 65.383302 144.43229 64.915922 143.79688 64.734375 C 143.55859 64.666295 143.3298 64.645522 143.11914 64.654297 z M 156.97461 74.357422 C 157.62196 74.372742 158.42132 74.380324 158.60742 74.402344 C 158.8087 74.559003 158.90903 74.623338 159.00391 74.65625 C 159.01312 74.670482 159.03483 74.704544 159.07812 74.769531 C 159.18941 74.93646 159.31513 75.173863 159.66016 75.519531 C 159.66816 75.666833 159.6835 75.826981 159.6582 75.957031 C 159.64582 76.020826 159.63511 76.054953 159.62695 76.078125 C 159.53113 76.108988 159.24003 76.215618 158.89062 76.244141 C 158.42476 76.282171 157.86075 76.229045 157.60352 76.171875 C 157.08906 76.057551 157.59232 76.275875 156.91016 75.59375 C 156.74186 75.425447 156.65727 75.33705 156.61719 75.296875 C 156.62092 75.244523 156.6303 75.157569 156.66992 74.972656 C 156.69422 74.859044 156.92088 74.517839 156.97461 74.357422 z M 30 92 L 270 92 L 270 115 L 30 115 L 30 92 z M 144.7793 93.154297 C 144.27723 93.175809 143.96704 93.339357 143.67773 93.455078 C 142.13479 94.07226 140.04269 95.383371 137.81055 96.722656 A 2 2 0 0 0 137.125 99.466797 A 2 2 0 0 0 139.86914 100.15234 C 141.4153 99.224654 142.46032 98.66863 143.53516 98.085938 C 143.53519 98.098387 143.53516 98.091036 143.53516 98.103516 L 143.53516 111.16016 A 2 2 0 0 0 145.53516 113.16016 A 2 2 0 0 0 147.53516 111.16016 L 147.53516 98.103516 C 147.53516 96.708428 147.69452 96.023297 147.28711 94.841797 C 147.0834 94.251046 146.21708 93.31252 145.35156 93.1875 C 145.13518 93.156245 144.94665 93.147126 144.7793 93.154297 z M 159.59766 94.427734 C 158.70481 94.427734 157.39023 94.366575 156.03906 95.138672 C 154.68788 95.91077 153.93143 97.035367 153.7207 97.246094 C 153.61534 97.351452 153.6334 97.332314 153.50781 97.416016 C 153.38225 97.499716 152.85877 97.846895 152.56445 98.435547 C 152.30588 98.952699 152.32242 99.155075 152.30469 99.324219 C 152.13874 99.487617 152.02833 99.507774 151.89453 99.775391 C 151.62352 100.31742 151.64296 100.53855 151.62305 100.70703 A 2 2 0 0 0 150.23242 102.45508 A 2 2 0 0 0 151.05664 103.96875 C 151.00364 105.22356 150.93252 106.5947 151.1582 107.83594 C 151.30797 108.65967 151.5783 109.33684 151.9375 109.8457 C 152.17552 110.1829 152.43018 110.42946 152.54883 110.53125 C 152.57424 110.56601 152.62336 110.6257 152.75 110.77344 C 153.03787 111.10929 153.67557 111.5185 154.20312 111.65039 C 155.25827 111.91418 156.02678 111.82227 157.03125 111.82227 C 158.03571 111.82227 159.73854 111.95207 161.23438 110.66992 C 162.73021 109.38777 163.16016 107.80952 163.16016 106.25 C 163.16016 104.70091 162.1692 103.48255 162.16016 103.47266 C 162.15845 103.4677 162.16157 103.47443 162.1543 103.45508 C 162.1253 103.37768 162.09749 103.01939 161.57031 102.49219 C 161.19196 102.11382 161.08019 102.13479 160.95117 102.09766 C 160.99317 102.12696 160.75552 101.81811 160.29102 101.49023 C 159.78217 101.13104 159.10498 100.86071 158.28125 100.71094 C 157.67748 100.60116 156.78594 100.65369 156.06445 100.61719 C 156.07775 100.55559 156.11519 100.46946 156.12109 100.42188 C 156.27155 100.30602 156.37158 100.25147 156.54883 100.07422 C 157.23095 99.39209 157.81211 98.732084 158.02344 98.611328 C 158.23477 98.490567 158.70481 98.427734 159.59766 98.427734 A 2 2 0 0 0 161.59766 96.427734 A 2 2 0 0 0 159.59766 94.427734 z M 155.03711 104.55664 C 155.92348 104.58634 157.18333 104.57688 157.56641 104.64648 C 157.82971 104.69439 157.91641 104.72805 157.95312 104.74609 C 157.96778 104.76593 158.01817 104.82091 158.18359 104.98633 C 158.34461 105.14734 158.46225 105.17724 158.62305 105.2793 C 158.69205 105.42355 158.71735 105.51938 158.82812 105.68555 C 159.27891 106.36173 159.16016 106.02381 159.16016 106.25 C 159.16016 106.47619 158.69752 107.57567 158.63086 107.63281 C 158.56416 107.68991 158.03571 107.82227 157.03125 107.82227 C 156.18415 107.82227 155.61482 107.77354 155.46484 107.77734 C 155.43674 107.74784 155.46384 107.77038 155.43164 107.73828 C 155.26821 107.57486 155.21403 107.52386 155.19336 107.50781 C 155.17736 107.47582 155.14354 107.39306 155.09375 107.11914 C 155.00005 106.60385 155.03541 105.54047 155.03711 104.55664 z M 30 123 L 270 123 L 270 146 L 30 146 L 30 123 z M 146.2832 123.89648 A 2 2 0 0 0 145.77148 123.99609 A 2 2 0 0 0 144.61523 124.99805 L 143.72266 126.7832 A 2.0002 2.0002 0 0 0 143.69727 127.35742 C 143.55113 127.83809 143.13651 129.0296 142.9668 130.4043 C 142.79427 131.80172 142.81628 133.63267 144.11133 135.12695 C 145.26404 136.45702 146.80737 136.95682 148.44922 137.2793 C 147.9146 139.06117 147.52336 140.62532 147.14258 142.14844 A 2 2 0 0 0 148.59766 144.57422 A 2 2 0 0 0 151.02148 143.11914 C 151.45075 141.40208 151.86971 139.73131 152.47852 137.77734 C 153.31637 137.83799 154.16056 137.88707 154.99805 137.93359 A 2 2 0 0 0 157.10547 136.04883 A 2 2 0 0 0 155.2207 133.94141 C 154.74282 133.91486 154.26955 133.88839 153.80273 133.85938 C 154.18059 132.79467 154.57685 131.69834 154.97852 130.59375 A 2 2 0 0 0 153.7832 128.03125 A 2 2 0 0 0 151.2207 129.22656 C 150.70354 130.64878 150.19059 132.07064 149.71094 133.44531 C 148.22211 133.18182 147.28747 132.68625 147.13281 132.50781 C 146.97697 132.32799 146.831 131.75715 146.9375 130.89453 C 147.044 130.03191 147.34158 129.12833 147.53711 128.47656 C 147.60721 128.24295 147.64453 128.04063 147.68359 127.80469 L 148.19141 126.78711 A 2 2 0 0 0 147.29883 124.10352 A 2 2 0 0 0 146.2832 123.89648 z M 143.8125 127.86914 A 2.0002 2.0002 0 0 0 144.37109 128.6875 C 144.30639 128.623 144.17551 128.5927 144.12891 128.5293 C 143.92711 128.25485 143.85451 128.03521 143.8125 127.86914 z M 147.30078 128.5625 C 147.29974 128.56527 147.28397 128.58574 147.22852 128.65234 C 147.18132 128.70904 147.12195 128.79111 146.92383 128.94141 C 146.7257 129.09171 146.27588 129.50966 145.30078 129.29297 C 145.27078 129.28597 145.25832 129.25459 145.22852 129.24609 A 2.0002 2.0002 0 0 0 147.28516 128.57617 C 147.28816 128.57467 147.30182 128.55973 147.30078 128.5625 z M 30 154 L 270 154 L 270 177 L 30 177 L 30 154 z M 146.2793 155.36914 A 2 2 0 0 0 144.25977 156.73438 C 143.81335 158.07366 143.38516 159.35937 142.73828 160.97656 C 142.41484 161.78516 141.91763 162.81655 141.80664 164.14844 C 141.69565 165.48033 142.44355 167.35293 143.99414 168.17383 C 145.49552 168.96867 147.19319 169.13798 149.19922 169.26758 C 148.88726 170.67483 148.56638 172.1271 148.22266 173.67383 A 2 2 0 0 0 149.74219 176.05859 A 2 2 0 0 0 152.12891 174.54102 C 152.53034 172.73457 152.91897 170.98174 153.26953 169.39844 C 154.23865 169.40755 155.22131 169.41016 156.20312 169.41016 A 2 2 0 0 0 158.20312 167.41016 A 2 2 0 0 0 156.20312 165.41016 C 155.51011 165.41016 154.82453 165.40958 154.14648 165.40625 C 154.17142 165.29096 154.23104 165.02531 154.25195 164.92773 C 154.33705 164.53075 154.38802 164.28895 154.41992 164.12305 C 154.43592 164.04005 154.44604 163.99059 154.46094 163.88086 C 154.4611 163.87986 154.46074 163.87209 154.46094 163.87109 L 154.79492 162.53906 A 2 2 0 0 0 153.33984 160.11328 A 2 2 0 0 0 150.91406 161.56836 L 150.4668 163.35352 A 2.0002 2.0002 0 0 0 150.48633 163.38477 C 150.46513 163.49432 150.42023 163.71495 150.33984 164.08984 C 150.28771 164.33316 150.1505 164.95422 150.07227 165.3125 C 149.92974 165.30502 149.78471 165.29774 149.64648 165.28906 C 147.74952 165.16967 146.21197 164.82223 145.86523 164.63867 C 145.82258 164.61609 145.7899 164.602 145.76367 164.59375 C 145.77688 164.57034 145.78819 164.53794 145.79297 164.48047 C 145.82147 164.13825 146.10693 163.32645 146.45312 162.46094 C 147.14553 160.72991 147.60826 159.33734 148.05469 157.99805 A 2 2 0 0 0 146.79102 155.46875 A 2 2 0 0 0 146.2793 155.36914 z M 150.49609 163.40234 A 2.0002 2.0002 0 0 0 151.68555 165.36914 C 151.48029 165.27488 151.27146 165.17967 151.27148 165.17969 C 151.27154 165.17973 150.83394 164.72063 150.83398 164.7207 C 150.83403 164.72077 150.63863 164.36514 150.63867 164.36523 C 150.63875 164.36543 150.51361 163.94696 150.51367 163.94727 C 150.51373 163.94758 150.49013 163.78405 150.48633 163.73047 C 150.46063 163.37041 150.48551 163.41417 150.49609 163.40234 z M 154.33984 164.32617 C 154.33986 164.33123 154.32472 164.36426 154.26562 164.48242 C 154.23623 164.54122 154.08949 164.77196 154.08984 164.77148 C 154.09002 164.77125 153.80453 165.08412 153.80469 165.08398 C 153.80476 165.08392 153.48626 165.31449 153.48633 165.31445 C 153.48635 165.31444 153.37149 165.35877 153.26953 165.39844 C 153.2566 165.39831 153.24338 165.39857 153.23047 165.39844 A 2.0002 2.0002 0 0 0 154.32422 164.33789 C 154.32467 164.34404 154.33983 164.32112 154.33984 164.32617 z M 30 185 L 270 185 L 270 208 L 30 208 L 30 185 z M 151.02539 186.23242 C 150.14978 186.21832 149.27688 186.35266 148.42969 186.56445 C 146.73532 186.98805 145.43051 187.79325 144.31445 188.46289 A 2 2 0 0 0 143.62891 191.20703 A 2 2 0 0 0 146.37305 191.89453 C 147.48912 191.22489 148.41619 190.69136 149.40039 190.44531 C 150.38459 190.19926 151.70676 190.30961 152.00781 190.44336 C 152.30886 190.57716 152.41505 190.8138 153.00586 191.60156 C 153.1771 191.82988 153.21167 191.84322 153.31055 191.94336 C 153.30997 191.94636 153.31123 191.95113 153.31055 191.95312 C 153.29985 191.98742 153.33585 192.01482 153.08594 192.17383 C 152.83603 192.33286 151.99331 192.66239 151.15625 192.94141 C 150.73773 193.08091 150.31377 193.21919 149.89453 193.38867 C 149.4753 193.55815 149.06768 193.66865 148.50391 194.23242 C 147.94014 194.7962 147.67352 196.08956 147.95117 196.80469 C 148.22881 197.51982 148.60147 197.80913 148.89844 198.05859 C 149.49239 198.55751 150.05296 198.84845 150.25977 198.98633 C 150.46658 199.12421 150.36804 199.04343 150.41211 199.10352 C 150.45621 199.16362 150.63932 199.47161 150.9707 199.93555 C 151.30208 200.39948 151.71252 200.91664 152.07617 201.41016 C 152.2321 201.62178 152.25485 201.67902 152.37305 201.86133 C 152.36805 201.86233 152.37805 201.99986 152.09375 202.05664 C 151.43026 202.18934 149.2917 202.2219 148.57812 202.14258 C 148.51803 202.1359 148.49078 202.13722 148.45703 202.13672 C 148.38856 202.08798 148.26827 202.01695 148.02344 201.89453 C 147.43842 201.60202 147.28001 201.64145 147.20508 201.62109 L 147.20312 201.62109 C 147.20598 201.60246 146.76052 201.08414 146.33984 200.45312 A 2 2 0 0 0 143.56641 199.89844 A 2 2 0 0 0 143.01172 202.67188 C 143.45815 203.34152 143.85602 204.11711 144.81445 204.83594 C 145.29367 205.19535 145.79116 205.37644 146.10742 205.4668 C 146.16998 205.48468 146.18577 205.49156 146.23438 205.50781 C 146.58983 205.6932 147.36584 206.03153 148.13672 206.11719 C 149.43207 206.26111 151.31221 206.29224 152.88086 205.97852 C 154.44951 205.66479 155.55563 204.44828 155.57617 204.42773 C 155.58647 204.41743 155.9663 204.21571 156.37305 203.50391 C 156.77979 202.7921 156.76864 201.63655 156.44727 200.88672 C 156.12591 200.13688 155.71643 199.60386 155.29883 199.03711 C 154.88122 198.47036 154.45322 197.92669 154.22656 197.60938 C 153.99991 197.29207 153.90346 197.0967 153.64062 196.73828 C 153.55423 196.62048 153.378 196.50695 153.25977 196.38281 C 153.90399 196.16357 154.54924 195.98606 155.23633 195.54883 C 156.2141 194.92661 156.86256 194.00505 157.13086 193.14648 C 157.39916 192.28793 157.34633 191.54412 157.24023 191.01367 C 157.13414 190.48323 156.79193 189.83745 156.52148 189.5332 C 156.25104 189.22895 156.2484 189.25372 156.20898 189.20117 C 156.13018 189.09608 155.34263 187.54812 153.63477 186.78906 C 152.78083 186.40953 151.90296 186.24656 151.02734 186.23242 L 151.02539 186.23242 z M 30 216 L 270 216 L 270 239 L 30 239 L 30 216 z M 149.85352 217.08398 C 149.17243 217.08398 148.72034 217.2164 148.01562 217.39258 C 146.60622 217.74493 144.2845 218.40951 141.95117 219.07617 A 2 2 0 0 0 140.57617 221.54883 A 2 2 0 0 0 143.04883 222.92383 C 145.35147 222.26593 147.6375 221.61423 148.90625 221.29492 C 148.99425 221.52243 148.99625 221.68291 149.16992 221.94336 C 149.95839 223.12606 150.07668 222.79669 150.24414 223.38281 C 150.4116 223.96894 150.40456 225.79043 150.00586 226.6875 C 149.60716 227.58457 148.65432 228.34959 147.75195 229.25195 C 147.46822 229.53569 147.28177 229.74529 147.1875 229.85938 C 147.1794 229.86064 147.18114 229.85978 147.17188 229.86133 C 146.88516 229.90913 146.15003 229.95953 145.62305 230.00977 C 145.4913 230.02227 145.3775 230.03205 145.19727 230.06445 C 145.10717 230.08065 145.0177 230.08505 144.76562 230.18164 C 144.6396 230.22994 144.46477 230.27304 144.14258 230.55664 C 144.06198 230.62754 143.97389 230.71748 143.88086 230.83789 C 143.78786 230.9583 143.61166 231.29999 143.61133 231.30078 C 143.611 231.30158 143.46293 231.95623 143.46289 231.95703 C 143.46285 231.95784 143.54472 232.64176 143.54492 232.64258 C 143.54517 232.64339 143.69555 233.02243 143.78516 233.16016 C 143.87476 233.29789 143.96665 233.40199 144.04883 233.48438 C 144.21319 233.64917 144.34356 233.73312 144.44727 233.79492 C 144.65467 233.91852 144.76781 233.95369 144.85938 233.98438 C 145.04253 234.04577 145.13277 234.06103 145.22461 234.07812 C 145.40828 234.11252 145.56756 234.1307 145.7793 234.1543 C 147.47322 234.34251 152.36719 234.66276 157.36719 234.99609 A 2 2 0 0 0 159.49609 233.13281 A 2 2 0 0 0 157.63281 231.00391 C 155.20171 230.84183 154.11625 230.74729 152.08398 230.60352 C 152.63887 229.99952 153.23394 229.27148 153.66016 228.3125 C 154.59479 226.20958 154.58905 224.03041 154.08984 222.2832 C 153.65304 220.7544 152.66744 219.80271 152.50977 219.71094 C 152.49846 219.67846 152.48605 219.64521 152.46875 219.57031 C 152.42305 219.37247 152.44485 219.08314 152.12305 218.43945 C 151.96212 218.1176 151.60652 217.65697 151.13086 217.39453 C 150.6552 217.1321 150.19406 217.08398 149.85352 217.08398 z M 30 247 L 270 247 L 270 270 L 30 270 L 30 247 z M 151.90039 249.44727 C 151.33024 249.46633 150.80435 249.63982 150.33008 249.87695 C 149.24601 250.41899 148.33538 251.23419 147.24609 252.23633 C 146.15681 253.23847 144.97721 254.41927 143.81055 255.58594 A 2 2 0 0 0 143.81055 258.41406 A 2 2 0 0 0 146.63867 258.41406 C 147.80534 257.2474 148.95908 256.09421 149.95312 255.17969 C 150.76702 254.4309 151.33898 254.02715 151.72656 253.76758 C 151.77966 253.83768 151.72734 253.78239 151.79102 253.86719 C 152.611 254.96052 152.60088 254.25356 152.73242 255.83203 C 152.86396 257.4105 152.56576 261.15169 152.23242 264.81836 A 2 2 0 0 0 154.04297 266.99219 A 2 2 0 0 0 156.2168 265.18164 C 156.55013 261.51497 156.91859 257.92153 156.7168 255.5 C 156.515 253.07848 155.17219 251.7068 154.99219 251.4668 C 154.90219 251.3468 154.68952 250.76177 153.86914 250.10547 C 153.45895 249.77732 152.81275 249.47985 152.14648 249.44922 C 152.0632 249.44539 151.98184 249.44454 151.90039 249.44727 z " />
  </g>
</svg>
