<?xml version="1.0" encoding="UTF-8" standalone="no"?>
<!-- Created with Inkscape (http://www.inkscape.org/) -->

<svg
   width="300"
   height="300"
   viewBox="0 0 79.374992 79.374992"
   version="1.1"
   id="svg1"
   inkscape:version="1.3.2 (091e20e, 2023-11-25, custom)"
   sodipodi:docname="brainfuckererer.svg"
   xmlns:inkscape="http://www.inkscape.org/namespaces/inkscape"
   xmlns:sodipodi="http://sodipodi.sourceforge.net/DTD/sodipodi-0.dtd"
   xmlns="http://www.w3.org/2000/svg"
   xmlns:svg="http://www.w3.org/2000/svg">
  <sodipodi:namedview
     id="namedview1"
     pagecolor="#ffffff"
     bordercolor="#000000"
     borderopacity="0.25"
     inkscape:showpageshadow="2"
     inkscape:pageopacity="0.0"
     inkscape:pagecheckerboard="0"
     inkscape:deskcolor="#d1d1d1"
     inkscape:document-units="px"
     inkscape:zoom="1"
     inkscape:cx="102"
     inkscape:cy="120.5"
     inkscape:window-width="1366"
     inkscape:window-height="705"
     inkscape:window-x="-8"
     inkscape:window-y="-8"
     inkscape:window-maximized="1"
     inkscape:current-layer="layer1" />
  <defs
     id="defs1">
    <inkscape:path-effect
       effect="bspline"
       id="path-effect68"
       is_visible="true"
       lpeversion="1.3"
       weight="33.333333"
       steps="2"
       helper_size="0"
       apply_no_weight="true"
       apply_with_weight="true"
       only_selected="false"
       uniform="false" />
    <inkscape:path-effect
       effect="bspline"
       id="path-effect67"
       is_visible="true"
       lpeversion="1.3"
       weight="33.333333"
       steps="2"
       helper_size="0"
       apply_no_weight="true"
       apply_with_weight="true"
       only_selected="false"
       uniform="false" />
    <inkscape:path-effect
       effect="bspline"
       id="path-effect66"
       is_visible="true"
       lpeversion="1.3"
       weight="33.333333"
       steps="2"
       helper_size="0"
       apply_no_weight="true"
       apply_with_weight="true"
       only_selected="false"
       uniform="false" />
    <inkscape:path-effect
       effect="bspline"
       id="path-effect65"
       is_visible="true"
       lpeversion="1.3"
       weight="33.333333"
       steps="2"
       helper_size="0"
       apply_no_weight="true"
       apply_with_weight="true"
       only_selected="false"
       uniform="false" />
    <inkscape:path-effect
       effect="bspline"
       id="path-effect64"
       is_visible="true"
       lpeversion="1.3"
       weight="33.333333"
       steps="2"
       helper_size="0"
       apply_no_weight="true"
       apply_with_weight="true"
       only_selected="false"
       uniform="false" />
    <inkscape:path-effect
       effect="bspline"
       id="path-effect63"
       is_visible="true"
       lpeversion="1.3"
       weight="33.333333"
       steps="2"
       helper_size="0"
       apply_no_weight="true"
       apply_with_weight="true"
       only_selected="false"
       uniform="false" />
    <inkscape:path-effect
       effect="bspline"
       id="path-effect62"
       is_visible="true"
       lpeversion="1.3"
       weight="33.333333"
       steps="2"
       helper_size="0"
       apply_no_weight="true"
       apply_with_weight="true"
       only_selected="false"
       uniform="false" />
    <inkscape:path-effect
       effect="bspline"
       id="path-effect61"
       is_visible="true"
       lpeversion="1.3"
       weight="33.333333"
       steps="2"
       helper_size="0"
       apply_no_weight="true"
       apply_with_weight="true"
       only_selected="false"
       uniform="false" />
    <inkscape:path-effect
       effect="bspline"
       id="path-effect60"
       is_visible="true"
       lpeversion="1.3"
       weight="33.333333"
       steps="2"
       helper_size="0"
       apply_no_weight="true"
       apply_with_weight="true"
       only_selected="false"
       uniform="false" />
    <inkscape:path-effect
       effect="bspline"
       id="path-effect59"
       is_visible="true"
       lpeversion="1.3"
       weight="33.333333"
       steps="2"
       helper_size="0"
       apply_no_weight="true"
       apply_with_weight="true"
       only_selected="false"
       uniform="false" />
    <inkscape:path-effect
       effect="bspline"
       id="path-effect58"
       is_visible="true"
       lpeversion="1.3"
       weight="33.333333"
       steps="2"
       helper_size="0"
       apply_no_weight="true"
       apply_with_weight="true"
       only_selected="false"
       uniform="false" />
    <inkscape:path-effect
       effect="bspline"
       id="path-effect57"
       is_visible="true"
       lpeversion="1.3"
       weight="33.333333"
       steps="2"
       helper_size="0"
       apply_no_weight="true"
       apply_with_weight="true"
       only_selected="false"
       uniform="false" />
    <inkscape:path-effect
       effect="bspline"
       id="path-effect56"
       is_visible="true"
       lpeversion="1.3"
       weight="33.333333"
       steps="2"
       helper_size="0"
       apply_no_weight="true"
       apply_with_weight="true"
       only_selected="false"
       uniform="false" />
    <inkscape:path-effect
       effect="bspline"
       id="path-effect55"
       is_visible="true"
       lpeversion="1.3"
       weight="33.333333"
       steps="2"
       helper_size="0"
       apply_no_weight="true"
       apply_with_weight="true"
       only_selected="false"
       uniform="false" />
    <inkscape:path-effect
       effect="bspline"
       id="path-effect54"
       is_visible="true"
       lpeversion="1.3"
       weight="33.333333"
       steps="2"
       helper_size="0"
       apply_no_weight="true"
       apply_with_weight="true"
       only_selected="false"
       uniform="false" />
    <inkscape:path-effect
       effect="bspline"
       id="path-effect53"
       is_visible="true"
       lpeversion="1.3"
       weight="33.333333"
       steps="2"
       helper_size="0"
       apply_no_weight="true"
       apply_with_weight="true"
       only_selected="false"
       uniform="false" />
    <inkscape:path-effect
       effect="bspline"
       id="path-effect52"
       is_visible="true"
       lpeversion="1.3"
       weight="33.333333"
       steps="2"
       helper_size="0"
       apply_no_weight="true"
       apply_with_weight="true"
       only_selected="false"
       uniform="false" />
    <inkscape:path-effect
       effect="bspline"
       id="path-effect51"
       is_visible="true"
       lpeversion="1.3"
       weight="33.333333"
       steps="2"
       helper_size="0"
       apply_no_weight="true"
       apply_with_weight="true"
       only_selected="false"
       uniform="false" />
    <inkscape:path-effect
       effect="bspline"
       id="path-effect50"
       is_visible="true"
       lpeversion="1.3"
       weight="33.333333"
       steps="2"
       helper_size="0"
       apply_no_weight="true"
       apply_with_weight="true"
       only_selected="false"
       uniform="false" />
    <inkscape:path-effect
       effect="bspline"
       id="path-effect49"
       is_visible="true"
       lpeversion="1.3"
       weight="33.333333"
       steps="2"
       helper_size="0"
       apply_no_weight="true"
       apply_with_weight="true"
       only_selected="false"
       uniform="false" />
    <inkscape:path-effect
       effect="bspline"
       id="path-effect48"
       is_visible="true"
       lpeversion="1.3"
       weight="33.333333"
       steps="2"
       helper_size="0"
       apply_no_weight="true"
       apply_with_weight="true"
       only_selected="false"
       uniform="false" />
    <inkscape:path-effect
       effect="bspline"
       id="path-effect47"
       is_visible="true"
       lpeversion="1.3"
       weight="33.333333"
       steps="2"
       helper_size="0"
       apply_no_weight="true"
       apply_with_weight="true"
       only_selected="false"
       uniform="false" />
    <inkscape:path-effect
       effect="bspline"
       id="path-effect46"
       is_visible="true"
       lpeversion="1.3"
       weight="33.333333"
       steps="2"
       helper_size="0"
       apply_no_weight="true"
       apply_with_weight="true"
       only_selected="false"
       uniform="false" />
    <inkscape:path-effect
       effect="bspline"
       id="path-effect45"
       is_visible="true"
       lpeversion="1.3"
       weight="33.333333"
       steps="2"
       helper_size="0"
       apply_no_weight="true"
       apply_with_weight="true"
       only_selected="false"
       uniform="false" />
    <inkscape:path-effect
       effect="bspline"
       id="path-effect44"
       is_visible="true"
       lpeversion="1.3"
       weight="33.333333"
       steps="2"
       helper_size="0"
       apply_no_weight="true"
       apply_with_weight="true"
       only_selected="false"
       uniform="false" />
    <inkscape:path-effect
       effect="bspline"
       id="path-effect43"
       is_visible="true"
       lpeversion="1.3"
       weight="33.333333"
       steps="2"
       helper_size="0"
       apply_no_weight="true"
       apply_with_weight="true"
       only_selected="false"
       uniform="false" />
    <inkscape:path-effect
       effect="bspline"
       id="path-effect42"
       is_visible="true"
       lpeversion="1.3"
       weight="33.333333"
       steps="2"
       helper_size="0"
       apply_no_weight="true"
       apply_with_weight="true"
       only_selected="false"
       uniform="false" />
    <inkscape:path-effect
       effect="bspline"
       id="path-effect41"
       is_visible="true"
       lpeversion="1.3"
       weight="33.333333"
       steps="2"
       helper_size="0"
       apply_no_weight="true"
       apply_with_weight="true"
       only_selected="false"
       uniform="false" />
    <inkscape:path-effect
       effect="bspline"
       id="path-effect40"
       is_visible="true"
       lpeversion="1.3"
       weight="33.333333"
       steps="2"
       helper_size="0"
       apply_no_weight="true"
       apply_with_weight="true"
       only_selected="false"
       uniform="false" />
    <inkscape:path-effect
       effect="bspline"
       id="path-effect39"
       is_visible="true"
       lpeversion="1.3"
       weight="33.333333"
       steps="2"
       helper_size="0"
       apply_no_weight="true"
       apply_with_weight="true"
       only_selected="false"
       uniform="false" />
    <inkscape:path-effect
       effect="bspline"
       id="path-effect38"
       is_visible="true"
       lpeversion="1.3"
       weight="33.333333"
       steps="2"
       helper_size="0"
       apply_no_weight="true"
       apply_with_weight="true"
       only_selected="false"
       uniform="false" />
    <inkscape:path-effect
       effect="bspline"
       id="path-effect37"
       is_visible="true"
       lpeversion="1.3"
       weight="33.333333"
       steps="2"
       helper_size="0"
       apply_no_weight="true"
       apply_with_weight="true"
       only_selected="false"
       uniform="false" />
    <inkscape:path-effect
       effect="bspline"
       id="path-effect36"
       is_visible="true"
       lpeversion="1.3"
       weight="33.333333"
       steps="2"
       helper_size="0"
       apply_no_weight="true"
       apply_with_weight="true"
       only_selected="false"
       uniform="false" />
    <inkscape:path-effect
       effect="bspline"
       id="path-effect35"
       is_visible="true"
       lpeversion="1.3"
       weight="33.333333"
       steps="2"
       helper_size="0"
       apply_no_weight="true"
       apply_with_weight="true"
       only_selected="false"
       uniform="false" />
    <inkscape:path-effect
       effect="bspline"
       id="path-effect34"
       is_visible="true"
       lpeversion="1.3"
       weight="33.333333"
       steps="2"
       helper_size="0"
       apply_no_weight="true"
       apply_with_weight="true"
       only_selected="false"
       uniform="false" />
    <inkscape:path-effect
       effect="bspline"
       id="path-effect33"
       is_visible="true"
       lpeversion="1.3"
       weight="33.333333"
       steps="2"
       helper_size="0"
       apply_no_weight="true"
       apply_with_weight="true"
       only_selected="false"
       uniform="false" />
    <inkscape:path-effect
       effect="bspline"
       id="path-effect32"
       is_visible="true"
       lpeversion="1.3"
       weight="33.333333"
       steps="2"
       helper_size="0"
       apply_no_weight="true"
       apply_with_weight="true"
       only_selected="false"
       uniform="false" />
    <inkscape:path-effect
       effect="bspline"
       id="path-effect31"
       is_visible="true"
       lpeversion="1.3"
       weight="33.333333"
       steps="2"
       helper_size="0"
       apply_no_weight="true"
       apply_with_weight="true"
       only_selected="false"
       uniform="false" />
    <inkscape:path-effect
       effect="bspline"
       id="path-effect30"
       is_visible="true"
       lpeversion="1.3"
       weight="33.333333"
       steps="2"
       helper_size="0"
       apply_no_weight="true"
       apply_with_weight="true"
       only_selected="false"
       uniform="false" />
    <inkscape:path-effect
       effect="bspline"
       id="path-effect29"
       is_visible="true"
       lpeversion="1.3"
       weight="33.333333"
       steps="2"
       helper_size="0"
       apply_no_weight="true"
       apply_with_weight="true"
       only_selected="false"
       uniform="false" />
    <inkscape:path-effect
       effect="bspline"
       id="path-effect28"
       is_visible="true"
       lpeversion="1.3"
       weight="33.333333"
       steps="2"
       helper_size="0"
       apply_no_weight="true"
       apply_with_weight="true"
       only_selected="false"
       uniform="false" />
    <inkscape:path-effect
       effect="bspline"
       id="path-effect27"
       is_visible="true"
       lpeversion="1.3"
       weight="33.333333"
       steps="2"
       helper_size="0"
       apply_no_weight="true"
       apply_with_weight="true"
       only_selected="false"
       uniform="false" />
    <inkscape:path-effect
       effect="bspline"
       id="path-effect26"
       is_visible="true"
       lpeversion="1.3"
       weight="33.333333"
       steps="2"
       helper_size="0"
       apply_no_weight="true"
       apply_with_weight="true"
       only_selected="false"
       uniform="false" />
    <inkscape:path-effect
       effect="bspline"
       id="path-effect25"
       is_visible="true"
       lpeversion="1.3"
       weight="33.333333"
       steps="2"
       helper_size="0"
       apply_no_weight="true"
       apply_with_weight="true"
       only_selected="false"
       uniform="false" />
    <inkscape:path-effect
       effect="bspline"
       id="path-effect24"
       is_visible="true"
       lpeversion="1.3"
       weight="33.333333"
       steps="2"
       helper_size="0"
       apply_no_weight="true"
       apply_with_weight="true"
       only_selected="false"
       uniform="false" />
    <inkscape:path-effect
       effect="bspline"
       id="path-effect23"
       is_visible="true"
       lpeversion="1.3"
       weight="33.333333"
       steps="2"
       helper_size="0"
       apply_no_weight="true"
       apply_with_weight="true"
       only_selected="false"
       uniform="false" />
    <inkscape:path-effect
       effect="bspline"
       id="path-effect21"
       is_visible="true"
       lpeversion="1.3"
       weight="33.333333"
       steps="2"
       helper_size="0"
       apply_no_weight="true"
       apply_with_weight="true"
       only_selected="false"
       uniform="false" />
    <inkscape:path-effect
       effect="bspline"
       id="path-effect20"
       is_visible="true"
       lpeversion="1.3"
       weight="33.333333"
       steps="2"
       helper_size="0"
       apply_no_weight="true"
       apply_with_weight="true"
       only_selected="false"
       uniform="false" />
    <inkscape:path-effect
       effect="bspline"
       id="path-effect19"
       is_visible="true"
       lpeversion="1.3"
       weight="33.333333"
       steps="2"
       helper_size="0"
       apply_no_weight="true"
       apply_with_weight="true"
       only_selected="false"
       uniform="false" />
    <inkscape:path-effect
       effect="bspline"
       id="path-effect18"
       is_visible="true"
       lpeversion="1.3"
       weight="33.333333"
       steps="2"
       helper_size="0"
       apply_no_weight="true"
       apply_with_weight="true"
       only_selected="false"
       uniform="false" />
    <inkscape:path-effect
       effect="bspline"
       id="path-effect17"
       is_visible="true"
       lpeversion="1.3"
       weight="33.333333"
       steps="2"
       helper_size="0"
       apply_no_weight="true"
       apply_with_weight="true"
       only_selected="false"
       uniform="false" />
  </defs>
  <g
     inkscape:label="Layer 1"
     inkscape:groupmode="layer"
     id="layer1">
    <path
       id="rect1"
       style="color:#000000;fill:#000000;stroke-linecap:round;-inkscape-stroke:none"
       d="m 5.820316,5.820316 v 67.733843 h 67.73436 V 5.820316 Z M 7.9374992,7.9374992 H 22.224481 V 22.224481 H 7.9374992 Z m 16.4041648,0 H 38.629163 V 22.224481 H 24.341664 Z m 16.404682,0 H 55.033328 V 22.224481 H 40.746346 Z m 16.404165,0 H 71.437493 V 22.224481 H 57.150511 Z M 7.9374992,24.341664 H 22.224481 V 38.628646 H 7.9374992 Z m 16.4041648,0 H 38.629163 V 38.628646 H 24.341664 Z m 16.404682,0 H 55.033328 V 38.628646 H 40.746346 Z m 16.404165,0 H 71.437493 V 38.628646 H 57.150511 Z M 7.9374992,40.745829 H 22.224481 V 55.032811 H 7.9374992 Z m 16.4041648,0 H 38.629163 V 55.032811 H 24.341664 Z m 16.404682,0 H 55.033328 V 55.032811 H 40.746346 Z m 16.404165,0 H 71.437493 V 55.032811 H 57.150511 Z M 7.9374992,57.149994 H 22.224481 V 71.436976 H 7.9374992 Z m 16.4041648,0 H 38.629163 V 71.436976 H 24.341664 Z m 16.404682,0 H 55.033328 V 71.436976 H 40.746346 Z m 16.404165,0 H 71.437493 V 71.436976 H 57.150511 Z"
       sodipodi:nodetypes="ccccccccccccccccccccccccccccccccccccccccccccccccccccccccccccccccccccccccccccccccccccc" />
    <path
       style="color:#000000;fill:#000000;stroke-linecap:round;-inkscape-stroke:none"
       d="m 13.943359,10.394531 c -0.498478,0.124628 -1.167651,0.909864 -0.71289,0.455078 0.227422,-0.227435 0.196541,-0.154252 0.06641,-0.07617 -0.130135,0.07808 -0.305372,0.196641 -0.552734,0.394531 -0.494723,0.395778 -1.444404,1.208614 -1.955078,2.513672 -0.510675,1.305057 -0.470704,2.722613 -0.470704,3.86914 0,1.146527 -0.01392,2.100938 0.101563,2.851563 0.115481,0.750624 0.549804,1.354978 0.517578,1.30664 -0.01612,-0.02418 -0.02701,-0.02448 0.07617,0.140625 0.103186,0.165102 0.422492,0.452029 0.689453,0.541016 0.533901,0.177966 0.665761,0.100689 0.890625,0.132812 0.224864,0.03212 0.656938,0.133767 1.304688,0.183594 0.647749,0.04983 1.410139,0.05729 1.960937,-0.0039 0.275407,-0.0306 0.539823,-0.07967 0.810547,-0.251953 0.270724,-0.172283 0.387277,-0.352121 0.30664,-0.271485 -0.161263,0.161265 0.224676,-0.122735 0.548829,-0.511718 0.324151,-0.388982 0.621601,-0.894952 0.84375,-1.50586 0.222148,-0.610908 0.309888,-1.176561 0.482421,-1.996093 0.172534,-0.819533 0.446519,-1.93215 0.503907,-2.792969 0.02869,-0.430409 -0.0318,-0.927951 -0.251953,-1.324219 C 18.883367,13.65256 18.630382,13.42921 18.34375,13.142578 17.770487,12.569315 16.82179,11.599 16.015625,11.007813 15.20946,10.416624 14.441878,10.269894 13.943359,10.394531 Z m 0.570313,2.103516 c -0.0781,-0.0064 -0.168654,-0.09022 0.25,0.216797 0.51675,0.37895 1.508768,1.350564 2.082031,1.923828 0.286632,0.286632 0.407866,0.436894 0.408203,0.4375 3.37e-4,6.06e-4 0.0056,-0.07675 -0.0098,0.154297 -0.03081,0.462096 -0.2846,1.64384 -0.464844,2.5 -0.180244,0.856159 -0.269762,1.347802 -0.400391,1.707031 -0.130629,0.35923 -0.361696,0.734816 -0.478515,0.875 -0.09035,0.108415 -0.174582,0.154546 -0.326172,0.287109 -0.270645,0.0249 -1.031084,0.03322 -1.513672,-0.0039 -0.498778,-0.03837 -0.77352,-0.111898 -1.166016,-0.167969 -0.1867,-0.02667 -0.131419,-0.0053 -0.248047,-0.02148 -0.05649,-0.06447 -0.09109,-0.0423 -0.134765,-0.326172 -0.06091,-0.395902 -0.07617,-1.38277 -0.07617,-2.529297 0,-1.146527 0.04114,-2.374243 0.324219,-3.097656 0.283074,-0.723412 0.919419,-1.323036 1.30664,-1.632812 0.193609,-0.154888 0.283129,-0.211284 0.31836,-0.232422 0.01321,-0.0079 0.103277,-0.08135 0.128906,-0.08984 z"
       id="path17" />
    <path
       style="color:#000000;fill:#000000;stroke-linecap:round;-inkscape-stroke:none"
       d="m 28.240234,10.109375 c -0.793748,0.264583 -1.81397,0.525935 -2.533203,1.460938 -0.719233,0.935002 -0.77112,1.92747 -0.699219,2.646484 0.03595,0.359506 0.155949,0.745794 0.44336,1.033203 0.287411,0.287409 0.653637,0.397126 0.445312,0.292969 -0.20835,-0.10417 -0.251356,-0.177459 -0.113281,-0.05664 0.138075,0.120819 0.37277,0.256418 0.605469,0.333985 0.465387,0.155128 0.966311,0.219873 1.46289,0.269531 0.496581,0.04966 0.833542,0.09923 1.332032,-0.02539 0.24926,-0.06231 0.571779,-0.267006 0.71289,-0.43164 0.141112,-0.164635 0.125557,-0.148995 0.04492,-0.06836 -0.02001,0.02 0.05566,-0.06049 0.0625,-0.06445 -0.03653,0.932075 -0.06286,1.955125 -0.140625,2.525391 -0.05633,0.4131 -0.119429,0.572245 -0.123047,0.582031 -0.114263,0.126771 -0.180817,0.244527 -0.224609,0.333984 -0.06168,0.05732 -0.108014,0.08276 -0.162109,0.158203 0.113769,-0.109915 0.176441,-0.100751 0.02344,-0.0625 -0.314423,0.07861 -1.41823,0.193056 -2.476562,0.28125 a 1.0583349,1.0583349 0 0 0 -0.966797,1.142578 1.0583349,1.0583349 0 0 0 1.142578,0.966797 c 1.058332,-0.08819 2.070545,-0.14996 2.814453,-0.335937 0.371954,-0.09299 0.695441,-0.230597 0.958984,-0.494141 0.128646,-0.128646 0.09182,-0.115184 0.148438,-0.222656 0.06176,-0.03899 0.03316,0.0079 0.132812,-0.0918 0.226833,-0.226843 0.224685,-0.316208 0.230469,-0.355469 0.06491,-0.06854 0.186615,-0.176878 0.294922,-0.410156 0.143988,-0.310129 0.230613,-0.663824 0.304687,-1.207031 0.14815,-1.086418 0.230469,-2.907533 0.230469,-4.066406 0,-1.158874 -0.07465,-1.676654 -0.289062,-2.105469 -0.107208,-0.214417 -0.394682,-0.510639 -0.572266,-0.617188 -0.177583,-0.106548 -0.264252,-0.138342 -0.433594,-0.232421 -0.169345,-0.09408 -0.449382,-0.261376 -0.720703,-0.41211 -0.13566,-0.07537 -0.269413,-0.148009 -0.410156,-0.21289 -0.07769,-0.03582 -0.258308,-0.05798 -0.365234,-0.09375 a 1.0583349,1.0583349 0 0 0 -1.160157,-0.460938 z m 0.01172,2.328125 c 0.07466,0.155131 0.152999,0.310233 0.193359,0.441406 0.10371,0.337057 0.09632,0.979824 0.06641,1.125 -0.06649,-0.0027 -0.165116,0.0089 -0.449219,-0.01953 -0.347166,-0.03472 -0.766719,-0.120452 -0.90625,-0.154297 0.02069,-0.27259 0.09074,-0.791598 0.228516,-0.970703 0.0925,-0.120248 0.545763,-0.276245 0.867187,-0.421875 z m 1.570313,6.201172 c -0.05963,0.02981 -0.177915,0.183931 -0.28711,0.28125 0.01365,-0.03579 -0.02789,-0.0053 0.09961,-0.132813 0.227426,-0.227437 0.304714,-0.207042 0.1875,-0.148437 z"
       id="path18" />
    <path
       style="color:#000000;fill:#000000;stroke-linecap:round;-inkscape-stroke:none"
       d="m 35.630859,10.583984 c -0.352777,0 -0.736075,-0.03286 -1.222656,0.06445 -0.243299,0.04866 -0.598147,0.216795 -0.792969,0.439453 -0.194822,0.222658 -0.203619,0.299568 -0.1875,0.27539 0.03223,-0.04834 -0.398034,0.532739 -0.517578,1.25 -0.119543,0.717262 -0.101562,1.586068 -0.101562,2.115235 0,0.529166 -0.140267,0.674535 0.15625,1.267578 0.07348,0.146972 0.171026,0.181098 0.277343,0.27539 0.03168,0.08814 0.02153,0.14003 0.181641,0.302735 -0.113131,0.109862 -0.193236,0.204955 -0.128906,0.140625 0.08063,-0.08063 -0.07693,0.04439 -0.236328,0.226562 -0.159402,0.182174 -0.315116,0.43525 -0.439453,0.746094 -0.124338,0.310844 -0.238396,0.693469 -0.271485,1.148437 -0.03309,0.454969 -0.0044,1.052374 0.462891,1.578125 0.467335,0.525753 1.071083,0.661949 1.632812,0.642579 0.561729,-0.01937 1.160471,-0.218315 1.617188,-0.720704 0.456716,-0.502387 0.592634,-1.093923 0.630859,-1.636718 0.03822,-0.542795 -0.03216,-1.068145 -0.183594,-1.552735 -0.03393,-0.108593 -0.09994,-0.109556 -0.140625,-0.208984 0.0032,-0.126942 0.129228,-0.3299 0.121094,-0.400391 -0.008,-0.06938 -0.0096,-0.0044 -0.01172,-0.04297 0.06671,-0.06694 0.144816,-0.138232 0.275391,-0.294922 0.338961,-0.406753 0.60823,-0.988655 0.71875,-1.707031 0.11052,-0.718378 0.09961,-1.52665 0.09961,-2.011719 0,-0.242535 0.0091,-0.41838 -0.02734,-0.673828 -0.03649,-0.255449 -0.239078,-0.732303 -0.576172,-0.957032 -0.67419,-0.449458 -0.98316,-0.265625 -1.335938,-0.265625 z m -0.185547,2.121094 c -0.003,0.478252 -0.0093,1.093612 -0.06641,1.464844 -0.06587,0.42815 -0.149942,0.551415 -0.251953,0.673828 -0.03358,0.04029 -0.123863,0.13268 -0.201172,0.212891 -0.02414,-0.0374 -0.0149,-0.04307 -0.05078,-0.08594 0.05057,0.09775 0.05078,0.157609 0.05078,-0.242187 0,-0.529167 0.01542,-1.424555 0.07227,-1.765625 0.03316,-0.198983 0.08571,-0.216381 0.111328,-0.248047 0.105504,-0.0046 0.17615,-0.0051 0.335937,-0.0098 z m -2.175781,3.59375 c 0.08554,0.0719 0.172143,0.193081 0.226563,0.222656 -0.0012,9.33e-4 -0.0028,0.001 -0.0039,0.002 0.04008,0.03118 0.03223,0.06545 -0.154296,-0.121093 -0.07292,-0.07293 -0.03574,-0.05263 -0.06836,-0.103516 z m 1.304688,2.210938 c -5.81e-4,0.01314 0.0068,0.02826 0.0059,0.04102 -0.0169,0.23993 -0.101682,0.378647 -0.08594,0.361328 0.0022,-0.0025 -0.01682,0.0042 -0.01758,0.0039 0.01907,-0.134666 0.05573,-0.292653 0.09766,-0.40625 z"
       id="path19" />
    <path
       style="color:#000000;fill:#000000;stroke-linecap:round;-inkscape-stroke:none"
       d="m 44.166016,10.875 c -7.19e-4,3.2e-5 -0.298132,0.0564 -0.298829,0.05664 -6.96e-4,2.38e-4 -0.170945,0.07078 -0.236328,0.113281 -0.130766,0.085 -0.207353,0.172157 -0.261718,0.242187 -0.217463,0.280122 -0.187523,0.357513 -0.205079,0.427735 -0.02532,0.101268 -0.0085,0.05245 -0.01758,0.103515 -0.07063,0.06235 -0.110924,0.09335 -0.238281,0.220704 -0.415135,0.415137 -1.019358,1.110851 -1.636719,1.816406 a 1.0583349,1.0583349 0 0 0 0.09961,1.492187 1.0583349,1.0583349 0 0 0 1.49414,-0.09961 c 0.260817,-0.298076 0.411291,-0.453631 0.650391,-0.722656 0.0192,0.210932 0.04034,0.215748 0.05469,0.445312 0.08477,1.35631 0.08594,3.10916 0.08594,4.873047 a 1.0583349,1.0583349 0 0 0 1.058594,1.058594 1.0583349,1.0583349 0 0 0 1.058593,-1.058594 c 0,-1.763887 0.0018,-3.53995 -0.08984,-5.005859 -0.09162,-1.46591 -0.254354,-2.497885 -0.382813,-3.011719 -0.01606,-0.06423 -0.03234,-0.122526 -0.06055,-0.201172 -0.02821,-0.07865 -0.01041,-0.163717 -0.251953,-0.417969 -0.06038,-0.06356 -0.145008,-0.1416 -0.28125,-0.21289 -0.06812,-0.03565 -0.241445,-0.08966 -0.242187,-0.08984 -7.42e-4,-1.81e-4 -0.29811,-0.02933 -0.298828,-0.0293 z"
       id="path20" />
    <path
       style="color:#000000;fill:#000000;stroke-linecap:round;-inkscape-stroke:none"
       d="m 48.566406,11.107422 c -0.265705,0.08713 -0.370311,0.203502 -0.443359,0.277344 -0.146096,0.147683 -0.173,0.212556 -0.210938,0.27539 -0.07587,0.125668 -0.123224,0.219891 -0.1875,0.330078 -0.257103,0.44075 -0.878733,1.336808 -1.496093,2.21875 a 1.0583349,1.0583349 0 0 0 0.259765,1.47461 1.0583349,1.0583349 0 0 0 1.47461,-0.259766 c 0.02134,-0.03049 0.03336,-0.05158 0.05469,-0.08203 0.044,1.211281 0.0824,2.225084 0.136719,3.746094 A 1.0583349,1.0583349 0 0 0 49.25,20.107422 1.0583349,1.0583349 0 0 0 50.269531,19.011719 c -0.08819,-2.469442 -0.176445,-4.937199 -0.220703,-6.087891 -0.01106,-0.287673 -0.01878,-0.493389 -0.0332,-0.671875 -0.0072,-0.08924 -0.01243,-0.168755 -0.03711,-0.287109 -0.02468,-0.118355 0.06307,-0.327211 -0.427735,-0.695313 -0.2454,-0.184051 -0.71867,-0.249239 -0.984375,-0.162109 z"
       id="path21" />
    <path
       style="color:#000000;fill:#000000;stroke-linecap:round;-inkscape-stroke:none"
       d="m 51.224609,11.382813 a 1.0583349,1.0583349 0 0 0 -0.949218,1.158203 c 0.08819,0.881942 0.16645,1.732626 0.28125,2.30664 0.114803,0.57403 0.343687,0.970516 0.253906,0.701172 -0.04489,-0.134658 -0.01493,-0.05234 -0.0039,0.04687 0.01102,0.09922 0.0028,0.21548 0.0918,0.482422 0.08898,0.266966 0.350732,0.558282 0.482422,0.652344 0.131691,0.09406 0.07478,0.06111 -0.0059,-0.01953 -0.08063,-0.08063 0.0654,0.107645 0.289062,0.275391 0.223662,0.167747 0.52891,0.299142 0.869141,0.367188 0.680459,0.136091 1.442579,0.109375 2.236328,0.109375 a 1.0583349,1.0583349 0 0 0 1.056641,-1.058594 1.0583349,1.0583349 0 0 0 -1.056641,-1.058594 c -0.793749,0 -1.620781,-0.02806 -1.822265,-0.06836 -0.100741,-0.02015 -0.06094,-0.01983 -0.01367,0.01563 0.03618,0.02713 0.0107,-0.0016 -0.04687,-0.06055 -0.0067,-0.08638 -0.0031,-0.157786 -0.06836,-0.353516 -0.177975,-0.533927 -0.125918,-0.137398 -0.1875,-0.445312 -0.06158,-0.30793 -0.159852,-1.221573 -0.248047,-2.103516 a 1.0583349,1.0583349 0 0 0 -1.158203,-0.947265 z"
       id="path23" />
    <path
       style="color:#000000;fill:#000000;stroke-linecap:round;-inkscape-stroke:none"
       d="m 53.876953,12.978516 a 1.0583349,1.0583349 0 0 0 -1.210937,0.876953 l -1.058594,6.615234 a 1.0583349,1.0583349 0 0 0 0.876953,1.210938 1.0583349,1.0583349 0 0 0 1.212891,-0.876954 l 1.058593,-6.615234 a 1.0583349,1.0583349 0 0 0 -0.878906,-1.210937 z"
       id="path24" />
    <path
       style="color:#000000;fill:#000000;stroke-linecap:round;-inkscape-stroke:none"
       d="m 60.783203,9.84375 c -0.529166,0.176389 -1.064787,0.354169 -1.322266,0.427734 -0.128736,0.03678 -0.375929,0.04586 -0.71875,0.335938 -0.34282,0.290075 -0.447508,0.666131 -0.507812,0.9375 -0.120606,0.542728 -0.195666,1.303068 -0.242188,1.861328 -0.04652,0.558261 -0.0901,1.105699 0.234375,1.646484 0.324472,0.540786 0.72346,0.766428 0.689454,0.732422 -0.01701,-0.01701 -0.05067,-0.05909 0.0332,0.05274 0.08387,0.111828 0.37757,0.379763 0.644531,0.46875 0.533901,0.177966 0.863311,0.09418 1.357422,-0.01563 0.0276,-0.0061 0.05241,-0.02091 0.08008,-0.02734 -0.140913,0.316431 -0.187395,0.527134 -0.154297,0.460937 0.03802,-0.07604 -0.180051,0.184322 -0.396484,0.617188 -0.216435,0.432869 -0.293488,0.66195 -0.306641,0.677734 -0.01315,0.01578 -0.256428,0.177463 -0.611328,0.414063 -0.354899,0.236599 -0.602908,0.48572 -0.779297,0.662109 a 1.0583349,1.0583349 0 0 0 0,1.496094 1.0583349,1.0583349 0 0 0 1.496094,0 c 0.176389,-0.176389 0.282764,-0.280306 0.457031,-0.396485 0.174266,-0.116177 0.634682,-0.30693 1.0625,-0.820312 0.427818,-0.513382 0.528024,-0.989642 0.576172,-1.085938 0.04815,-0.0963 0.182077,-0.188373 0.396484,-0.617187 0.214409,-0.428816 0.213802,-0.605337 0.175782,-0.529297 -0.03802,0.07604 0.262612,-0.328631 0.488281,-0.949219 0.168286,-0.462785 0.265252,-1.177901 0.220703,-1.970703 0.0229,-0.07751 0.06981,-0.184525 0.08008,-0.232422 0.0059,-0.02775 -0.0155,0.03274 -0.0098,0.01758 0.108823,-0.17598 0.209069,-0.395035 0.244141,-0.605469 0.08172,-0.490297 0.105653,-0.950524 -0.07031,-1.566406 -0.175967,-0.615886 -0.784308,-1.104625 -0.623047,-0.94336 0.08062,0.08062 0.08765,0.09623 -0.01758,-0.03906 -0.105229,-0.135291 -0.294932,-0.308209 -0.494141,-0.427735 -0.199215,-0.119529 -0.383171,-0.259712 -0.855469,-0.300781 -0.07234,-0.0063 -0.213979,0.111256 -0.318359,0.123047 A 1.0583349,1.0583349 0 0 0 60.783203,9.84375 Z m 0.0059,2.222656 c 0.102583,0.248857 0.198856,0.506608 0.31836,0.75586 0.161315,0.336457 0.294865,0.6751 0.382812,0.96289 -0.0486,0.06517 -0.02895,0.02194 -0.105468,0.136719 -0.208623,0.312934 0.150975,-0.05596 0.05469,-0.0078 -0.09631,0.04815 -0.647627,0.24396 -0.947266,0.310546 -0.148286,0.03295 -0.05881,0.03644 -0.113281,0.03516 -0.244354,-0.243352 -0.392411,-0.387744 -0.33789,-0.296875 0.05989,0.09981 0.01887,0.119212 0.06055,-0.38086 0.03564,-0.427631 0.110838,-1.008454 0.167969,-1.349609 0.150179,-0.04576 0.339915,-0.107289 0.519531,-0.166016 z"
       id="path25" />
    <path
       style="color:#000000;fill:#000000;stroke-linecap:round;-inkscape-stroke:none"
       d="m 67.832031,11.693359 c -0.586281,0.04275 -1.218577,0.134462 -1.835937,0.222657 a 1.0583349,1.0583349 0 0 0 -0.898438,1.197265 1.0583349,1.0583349 0 0 0 1.197266,0.898438 c 0.61736,-0.08819 1.219356,-0.172611 1.691406,-0.207031 0.229282,-0.01672 0.224466,-0.0082 0.365234,0.002 -0.128571,0.428571 -0.163136,0.554362 -0.447265,1.082031 -0.28413,0.527669 -0.815508,1.410161 -1.173828,1.927734 -0.35832,0.517574 -0.612088,0.758638 -0.908203,1.232422 -0.296115,0.473784 -0.471254,0.920913 -0.646485,1.236328 -0.17523,0.315415 -0.405339,0.629645 -0.669922,0.982422 a 1.0583349,1.0583349 0 0 0 0.210938,1.480469 1.0583349,1.0583349 0 0 0 1.482422,-0.210938 c 0.264582,-0.352776 0.562383,-0.744321 0.828125,-1.222656 0.265741,-0.478334 0.444987,-0.91276 0.589843,-1.144531 0.144857,-0.231771 0.418087,-0.519484 0.853516,-1.148438 0.435429,-0.628953 0.963644,-1.510048 1.296875,-2.128906 0.333231,-0.618858 0.475317,-1.023191 0.611328,-1.476562 0.06801,-0.226686 0.192917,-0.565928 0.181641,-1.050782 -0.01128,-0.484853 -0.382931,-1.248584 -1.009766,-1.509765 -0.626834,-0.261181 -1.132469,-0.204859 -1.71875,-0.16211 z"
       id="path26" />
    <path
       style="color:#000000;fill:#000000;stroke-linecap:round;-inkscape-stroke:none"
       d="m 65.439453,15.349609 a 1.0583349,1.0583349 0 0 0 -1.142578,0.966797 1.0583349,1.0583349 0 0 0 0.966797,1.142578 c 1.058332,0.08819 2.144233,0.184523 2.560547,0.253907 0.208151,0.03469 0.230958,0.05124 0.234375,0.05273 0.0034,0.0015 0.139414,0.08808 0.388672,0.150391 0.498506,0.124627 0.785895,0.07617 1.138671,0.07617 A 1.0583349,1.0583349 0 0 0 70.644531,16.933594 1.0583349,1.0583349 0 0 0 69.585937,15.875 c -0.352776,0 -0.770729,-0.04815 -0.625,-0.01172 0.07287,0.01822 0.118284,0.03857 -0.05469,-0.03711 -0.172971,-0.07568 -0.413361,-0.147671 -0.734375,-0.201172 -0.642018,-0.107001 -1.674089,-0.187196 -2.732422,-0.275391 z"
       id="path27" />
    <path
       style="color:#000000;fill:#000000;stroke-linecap:round;-inkscape-stroke:none"
       d="m 9.4550781,27.130859 c -0.433497,0.1445 -0.6086435,0.315198 -0.8691406,0.513672 -0.2604971,0.198474 -0.5322917,0.425999 -0.796875,0.646485 a 1.0583349,1.0583349 0 0 0 -0.1347656,1.490234 1.0583349,1.0583349 0 0 0 1.3417969,0.123047 v 0.96289 5.115235 a 1.0583349,1.0583349 0 0 0 1.0585942,1.058594 1.0583349,1.0583349 0 0 0 1.058593,-1.058594 v -5.115235 -2.160156 c 0,-0.198437 0.04737,-0.377327 -0.08203,-0.787109 -0.0647,-0.204891 -0.241457,-0.549441 -0.615234,-0.736328 -0.373778,-0.186888 -0.7441889,-0.124984 -0.9609379,-0.05273 z"
       id="path28" />
    <path
       style="color:#000000;fill:#000000;stroke-linecap:round;-inkscape-stroke:none"
       d="m 15.595703,27.390625 c -0.583265,-0.06481 -0.923221,0.09178 -1.294922,0.236328 -0.3717,0.14455 -0.709292,0.315309 -0.998047,0.507813 -0.577505,0.385004 -0.862996,1.110616 -0.878906,1.15039 -0.01591,0.03977 -0.312182,0.590388 -0.419922,1.398438 -0.10774,0.80805 -0.12018,1.854179 0.05469,2.728515 0.174867,0.874336 0.673269,1.461704 0.785156,1.601563 0.111887,0.139858 0.239892,0.492016 0.794922,0.769531 0.555029,0.277515 0.899178,0.229188 0.833984,0.212891 -0.03261,-0.0082 0.02523,0.08593 0.470703,0.08594 0.222737,4e-6 0.527942,-0.09484 0.720704,-0.238281 0.192761,-0.143446 0.293358,-0.291666 0.36914,-0.417969 0.303117,-0.505195 0.405643,-0.959115 0.582031,-1.488281 0.176389,-0.529166 0.381522,-1.144614 0.484375,-1.916016 0.102854,-0.771401 0.105434,-1.574542 0.04883,-2.140625 -0.05661,-0.566096 -0.1728,-0.786804 -0.185546,-0.863281 -0.0064,-0.03824 -0.0049,-0.289265 -0.138672,-0.650391 -0.133751,-0.361125 -0.645253,-0.911754 -1.228516,-0.976562 z m -0.652344,2.271484 c 0.03607,0.11298 0.08088,0.242395 0.09961,0.429688 0.03158,0.315856 0.03252,1.098877 -0.04102,1.65039 -0.07353,0.551513 -0.220095,0.996225 -0.396484,1.525391 -0.06158,0.184731 -0.07054,0.201683 -0.134766,0.373047 -0.196484,-0.235278 -0.252735,-0.226567 -0.335937,-0.642578 -0.08972,-0.448579 -0.101852,-1.520291 -0.0332,-2.035156 0.06865,-0.514866 0.126628,-0.491377 0.287109,-0.892579 0.160479,-0.401198 -0.1264,-0.02967 0.08984,-0.173828 0.08524,-0.05682 0.283444,-0.153032 0.464843,-0.234375 z"
       id="path29" />
    <path
       style="color:#000000;fill:#000000;stroke-linecap:round;-inkscape-stroke:none"
       d="m 20.902344,27.78125 c -0.396874,0 -0.846983,-0.0099 -1.339844,0.08398 -0.492861,0.09388 -1.09055,0.333625 -1.492188,0.869141 -0.401637,0.535516 -0.490829,1.084388 -0.550781,1.583984 -0.05995,0.499596 -0.05664,0.9681 -0.05664,1.298828 0,0.330729 -0.01937,0.595585 0.06445,0.966797 0.08382,0.371213 0.425089,0.853399 0.777343,1.054688 0.352256,0.201289 0.634043,0.257826 0.896485,0.320312 0.262442,0.06249 0.507523,0.112362 0.572265,0.13086 0.129466,0.03699 -0.398211,-0.34157 -0.06055,-0.0039 0.33765,0.33765 0.08356,0.02587 0.08398,0.02734 3.66e-4,0.0013 -0.0075,0.339343 -0.01563,0.457031 -0.02416,0.0087 -0.0034,0.0052 -0.08203,0.01953 -0.307361,0.05588 -1.001476,0.07031 -1.707032,0.07031 a 1.0583349,1.0583349 0 0 0 -1.058593,1.058594 1.0583349,1.0583349 0 0 0 1.058593,1.058594 c 0.705556,0 1.42316,0.01504 2.085938,-0.105469 0.331389,-0.06025 0.668982,-0.161158 0.986328,-0.380859 0.317347,-0.219702 0.568081,-0.566967 0.695313,-0.90625 0.254463,-0.67857 0.248231,-1.237633 0.07227,-1.853516 -0.175967,-0.615889 -0.78431,-1.102669 -0.623047,-0.941406 0.161278,0.161277 -0.36562,-0.395761 -0.853515,-0.535157 -0.243938,-0.06969 -0.463484,-0.10654 -0.664063,-0.154296 -0.06297,-0.01499 -0.05278,-0.01469 -0.105469,-0.03125 -0.004,-0.08732 -0.0059,-0.0853 -0.0059,-0.251954 0,-0.330728 0.0017,-0.719649 0.04102,-1.046875 0.03927,-0.327225 0.147341,-0.572756 0.142578,-0.566406 -0.0048,0.0064 -0.0064,-0.02018 0.195312,-0.05859 0.20167,-0.03841 0.546486,-0.04687 0.94336,-0.04687 a 1.0583349,1.0583349 0 0 0 1.058593,-1.058593 1.0583349,1.0583349 0 0 0 -1.058593,-1.058594 z"
       id="path30" />
    <path
       style="color:#000000;fill:#000000;stroke-linecap:round;-inkscape-stroke:none"
       d="m 32.828125,27.275391 c -0.683175,-0.25619 -1.10272,-0.04131 -1.494141,0.105468 -0.39142,0.146783 -0.762457,0.33533 -1.115234,0.511719 a 1.0583349,1.0583349 0 0 0 -0.474609,1.419922 1.0583349,1.0583349 0 0 0 1.419921,0.474609 c 0.220105,-0.110052 0.386565,-0.181734 0.570313,-0.265625 0.0043,0.165959 0.01563,0.242825 0.01563,0.464844 0,0.970137 -0.0025,2.272967 -0.08594,3.357422 -0.08342,1.084456 -0.249392,2.008376 -0.425781,2.978516 a 1.0583349,1.0583349 0 0 0 0.851563,1.232421 1.0583349,1.0583349 0 0 0 1.230468,-0.853515 c 0.176389,-0.970139 0.36211,-1.984761 0.455079,-3.19336 0.09297,-1.208598 0.0918,-2.551347 0.0918,-3.521484 0,-0.485068 0.0086,-0.900017 -0.05664,-1.332031 -0.0326,-0.216007 -0.08087,-0.444819 -0.220703,-0.703125 -0.139835,-0.258307 -0.42013,-0.547686 -0.761719,-0.675781 z"
       id="path32" />
    <path
       style="color:#000000;fill:#000000;stroke-linecap:round;-inkscape-stroke:none"
       d="m 36.271484,28.640625 c -0.31312,0.09434 -0.542499,0.254851 -0.732422,0.425781 -0.759691,0.683721 -1.121206,1.584669 -1.380859,2.259766 -0.259653,0.675097 -0.320985,1.201912 -0.304687,1.136719 0.0163,-0.06522 -0.117912,0.16059 -0.19336,0.613281 -0.07545,0.452676 -0.05859,0.87934 -0.05859,1.320312 0,0.440973 -0.05717,0.881215 0.142579,1.480469 0.199751,0.599261 0.770629,1.016719 0.609375,0.855469 -0.08064,-0.08064 -0.01311,0.05831 0.277343,0.251953 0.29045,0.193639 0.612048,0.234375 0.867188,0.234375 0.510265,-10e-7 1.10445,-0.06877 1.753906,-0.357422 0.649454,-0.288646 1.05744,-0.825019 1.023438,-0.791016 -0.01701,0.01701 0.32656,-0.336721 0.427734,-0.683593 0.101174,-0.346873 0.101563,-0.626427 0.101562,-1.123047 0,-0.993235 -0.04983,-2.784928 -0.388671,-4.027344 -0.169421,-0.621207 -0.401148,-1.202723 -1.076172,-1.521484 -0.337512,-0.159381 -0.75524,-0.168556 -1.06836,-0.07422 z m 0.169922,2.902344 c 0.124924,0.875694 0.248047,2.047449 0.248047,2.720703 0,0.3284 -0.01472,0.374429 -0.01563,0.40625 -0.107283,0.116712 -0.178022,0.211065 -0.283203,0.257812 -0.104177,0.0463 -0.410186,0.08976 -0.644531,0.125 -0.0019,-0.08578 -0.02734,-0.299211 -0.02734,-0.65625 0,-0.440972 0.01655,-0.896166 0.0293,-0.972656 0.01275,-0.07648 0.05566,-0.02927 0.160156,-0.447266 0.104488,-0.417966 0.04329,-0.419195 0.224609,-0.890625 0.0681,-0.17706 0.184127,-0.315917 0.308594,-0.542968 z m -0.689453,3.660156 c 0.01694,0.0082 0.01148,0.0014 0.0293,0.01172 0.02163,0.03139 -0.03628,-0.02877 -0.0293,-0.0078 1.13e-4,3.37e-4 -1.09e-4,-0.0042 0,-0.0039 z"
       id="path33" />
    <path
       style="color:#000000;fill:#000000;stroke-linecap:round;-inkscape-stroke:none"
       d="m 43.335937,26.408203 c -0.384959,-0.06792 -0.803257,0.150908 -0.957031,0.304688 -0.307548,0.307558 -0.260984,0.391448 -0.292969,0.474609 -0.03198,0.08316 -0.05405,0.148038 -0.08203,0.222656 -0.11193,0.298478 -0.377995,0.923656 -0.642578,1.541016 a 1.0583349,1.0583349 0 0 0 0.554688,1.390625 1.0583349,1.0583349 0 0 0 0.818359,0.0039 c 0.122553,1.637427 0.128906,4.4251 0.128906,7.224609 a 1.0583349,1.0583349 0 0 0 1.056641,1.058594 1.0583349,1.0583349 0 0 0 1.058594,-1.058594 c 0,-2.82222 0.0043,-5.637243 -0.134766,-7.445312 -0.139082,-1.80807 -0.46431,-2.645416 -0.638672,-2.994141 -0.04359,-0.08718 -0.05177,-0.156848 -0.230469,-0.359375 -0.08935,-0.101263 -0.253712,-0.295358 -0.638672,-0.363281 z"
       id="path34" />
    <path
       style="color:#000000;fill:#000000;stroke-linecap:round;-inkscape-stroke:none"
       d="m 47.830078,27.970703 c -0.701818,-0.107972 -1.28994,0.22257 -1.671875,0.554688 -0.381935,0.332117 -0.651544,0.710778 -0.878906,1.064453 -0.454725,0.707349 -0.795514,1.507005 -0.949219,2.480468 -0.153705,0.973464 -0.151448,2.032196 -0.09766,2.677735 0.0269,0.322776 0.05532,0.546307 0.183594,0.824219 0.128271,0.277911 0.528208,0.637576 0.300781,0.410156 -0.227436,-0.227428 -0.150942,-0.170661 -0.0332,-0.01367 0.117738,0.156989 0.300779,0.317968 0.5,0.4375 0.398428,0.239056 0.865432,0.41254 1.439453,0.527344 0.57402,0.114804 1.172292,0.166673 1.816406,-0.109375 0.644114,-0.276049 0.940524,-0.747164 0.992188,-0.798828 0.05166,-0.05166 0.245179,-0.06308 0.574218,-0.556641 0.164518,-0.246777 0.206972,-0.45417 0.232422,-0.564453 0.02545,-0.110284 0.069,-0.155586 -0.03516,0.05273 -0.104169,0.20835 -0.268025,0.31808 -0.181641,0.246094 0.08638,-0.07199 0.327029,-0.338507 0.416016,-0.605469 0.177966,-0.5339 0.09766,-0.730295 0.09766,-1.347656 0,-0.617361 0.02143,-1.709961 -0.367187,-2.820313 -0.194312,-0.555176 -0.473211,-1.067971 -0.833985,-1.503906 -0.360773,-0.435934 -0.802088,-0.847106 -1.503906,-0.955078 z M 47.507812,30.0625 c -0.128555,-0.01978 0.02692,0.0094 0.195313,0.212891 0.168393,0.203475 0.352428,0.526748 0.466797,0.853515 0.228737,0.653536 0.248047,1.503733 0.248047,2.121094 0,0.562352 -0.04632,0.769206 0.0098,0.619141 -0.05446,0.06561 -0.06849,0.04518 -0.117187,0.142578 -0.109302,0.218615 -0.09519,0.253276 -0.09961,0.30664 0.07795,-0.131659 -0.0067,-0.0578 -0.27539,0.210938 -0.301113,0.301114 -0.356831,0.361075 -0.330078,0.349609 0.02675,-0.01147 -0.258482,0.0401 -0.566407,-0.02148 -0.281188,-0.05624 -0.604605,-0.198287 -0.699218,-0.244141 -0.0062,-0.03089 0.0082,0.03375 0.002,-0.04102 -0.0344,-0.412794 -0.0308,-1.469646 0.08008,-2.171875 0.110878,-0.702229 0.299648,-1.138645 0.638672,-1.666016 0.169512,-0.263685 0.361145,-0.502473 0.486328,-0.611328 0.125183,-0.108855 0.08949,-0.04077 -0.03906,-0.06055 z"
       id="path35"
       transform="translate(0.52916661)" />
    <path
       style="color:#000000;fill:#000000;stroke-linecap:round;-inkscape-stroke:none"
       d="m 53.316406,27.777344 c -0.277547,0.005 -0.459087,0.08501 -0.609375,0.160156 -0.601154,0.300576 -0.996224,0.705513 -1.52539,1.146484 a 1.0583349,1.0583349 0 0 0 -0.136719,1.492188 1.0583349,1.0583349 0 0 0 1.490234,0.134765 c 0.04341,-0.03617 0.04709,-0.03593 0.0918,-0.07227 0.0099,0.511366 0.02539,1.011704 0.02539,1.419922 0,0.263077 -0.0026,0.381387 -0.0059,0.478515 -0.0092,-0.03704 -0.01785,-0.102131 -0.257812,0.257813 -0.329035,0.493553 -0.261434,0.682882 -0.277344,0.722656 -0.01591,0.03977 -0.155832,0.279103 -0.365234,0.572266 -0.209402,0.293162 -0.497163,0.653412 -0.548828,0.705078 -0.02583,0.02583 8.62e-4,0.0026 -0.08008,0.05859 -0.08094,0.05603 -0.24416,0.177754 -0.404296,0.33789 -0.160133,0.160133 -0.365842,0.366813 -0.541016,0.742188 -0.08759,0.187687 -0.180042,0.435563 -0.148438,0.783203 0.0316,0.34764 0.268064,0.757322 0.558594,0.964844 0.581061,0.415042 0.959687,0.357149 1.419922,0.388671 0.460235,0.03152 0.95829,0.0293 1.443359,0.0293 a 1.0583349,1.0583349 0 0 0 1.058594,-1.058593 1.0583349,1.0583349 0 0 0 -1.058594,-1.058594 c -0.18528,0 -0.321254,-0.0082 -0.496093,-0.0098 0.179665,-0.217211 0.363937,-0.434512 0.519531,-0.652344 0.231569,-0.324197 0.446942,-0.614423 0.607422,-1.015625 0.160479,-0.401198 0.226864,-0.564906 0.07422,-0.335937 -0.152651,0.228976 0.02252,0.140047 0.351562,-0.353516 0.164517,-0.246776 0.234881,-0.569076 0.251953,-0.791015 0.01707,-0.22194 0.01563,-0.434896 0.01563,-0.765625 0,-0.661458 0.0035,-1.782038 -0.04883,-2.462891 -0.02619,-0.34043 -0.06082,-0.575881 -0.160156,-0.824219 -0.09934,-0.248338 -0.227216,-0.436865 -0.123047,-0.228515 0.104154,0.20832 0.123466,-0.02888 -0.271484,-0.423828 -0.197476,-0.197475 -0.572062,-0.346845 -0.84961,-0.341797 z"
       id="path36" />
    <path
       style="color:#000000;fill:#000000;stroke-linecap:round;-inkscape-stroke:none"
       d="m 60.880859,28.056641 c -0.644669,-0.214889 -1.089921,-0.03225 -1.490234,0.115234 -0.400313,0.147484 -0.774176,0.339236 -1.126953,0.515625 a 1.0583349,1.0583349 0 0 0 -0.472656,1.419922 1.0583349,1.0583349 0 0 0 1.419921,0.472656 c 0.296943,-0.148471 0.549786,-0.265387 0.767579,-0.355469 0.0295,0.178078 0.05799,0.317849 0.08594,0.611328 0.08609,0.903944 0.167029,2.128177 0.128906,2.890625 -0.03812,0.762449 -0.18458,1.161676 -0.292968,1.757813 -0.108389,0.596137 -0.109992,1.092821 -0.140625,1.337891 -0.03063,0.245068 -0.08563,0.413151 -0.173829,0.677734 a 1.0583349,1.0583349 0 0 0 0.669922,1.339844 1.0583349,1.0583349 0 0 0 1.337891,-0.669922 c 0.08819,-0.264583 0.208064,-0.625451 0.265625,-1.085938 0.05756,-0.460485 0.057,-0.8467 0.125,-1.220703 0.068,-0.374002 0.274147,-1.02981 0.324219,-2.03125 0.05007,-1.00144 -0.04642,-2.249127 -0.136719,-3.197265 -0.04515,-0.47407 -0.08202,-0.894755 -0.207031,-1.328125 -0.125011,-0.433371 -0.439313,-1.035111 -1.083985,-1.25 z"
       id="path37" />
    <path
       style="color:#000000;fill:#000000;stroke-linecap:round;-inkscape-stroke:none"
       d="m 65.087891,27.339844 c -0.793751,1e-6 -1.042631,0.355575 -1.375,0.634765 -0.332369,0.27919 -0.652258,0.601477 -0.960938,0.910157 a 1.0583349,1.0583349 0 0 0 0,1.496093 1.0583349,1.0583349 0 0 0 1.496094,0 c 0.14667,-0.14667 0.258124,-0.243167 0.392578,-0.373047 0.05553,0.216674 0.109429,0.329197 0.138672,0.914063 0.04093,0.818681 0.04297,2.416581 0.04297,3.386719 0,0.970137 -0.01028,1.298004 -0.0293,1.412109 -0.01902,0.114104 -0.03485,0.14197 -0.123047,0.318359 a 1.0583349,1.0583349 0 0 0 0.472656,1.419922 1.0583349,1.0583349 0 0 0 1.419922,-0.472656 c 0.08819,-0.176389 0.249183,-0.502908 0.318359,-0.917969 0.06918,-0.415059 0.05859,-0.789628 0.05859,-1.759765 0,-0.970138 0.0023,-2.548935 -0.04492,-3.494141 -0.04726,-0.945206 -0.173953,-1.315017 -0.24414,-1.630859 -0.03509,-0.157922 -0.07629,-0.450095 -0.208985,-0.800782 -0.06635,-0.175343 -0.153189,-0.378752 -0.357422,-0.599609 -0.204232,-0.220856 -0.599217,-0.44336 -0.996093,-0.443359 z"
       id="path38" />
    <path
       style="color:#000000;fill:#000000;stroke-linecap:round;-inkscape-stroke:none"
       d="m 67.732422,27.251953 a 1.0583349,1.0583349 0 0 0 -1.056641,1.058594 1.0583349,1.0583349 0 0 0 1.056641,1.058594 c 0.862728,0 1.48699,0.07089 1.826172,0.113281 -0.05634,0.194319 -0.07155,0.310347 -0.279297,0.78125 C 68.648772,31.692861 67.322916,34.262675 66,36.820312 a 1.0583349,1.0583349 0 0 0 0.453125,1.425782 1.0583349,1.0583349 0 0 0 1.425781,-0.453125 c 1.322916,-2.557638 2.643547,-5.104409 3.335938,-6.673828 0.346195,-0.78471 0.569565,-1.30431 0.601562,-1.933594 0.016,-0.314642 -0.04732,-0.702997 -0.261719,-1.023438 -0.214395,-0.320441 -0.519674,-0.504128 -0.767578,-0.607422 -0.991615,-0.413174 -1.996354,-0.302734 -3.054687,-0.302734 z"
       id="path39" />
    <path
       style="color:#000000;fill:#000000;stroke-linecap:round;-inkscape-stroke:none"
       d="m 68.257812,30.302734 a 1.0583349,1.0583349 0 0 0 -1.443359,0.392578 1.0583349,1.0583349 0 0 0 0.394531,1.445313 c 0.61736,0.352777 1.253061,0.724286 1.453125,0.867187 0.100026,0.07145 0.09628,0.07529 0.109375,0.08984 0.0131,0.01456 0.133145,0.199388 0.429688,0.347656 0.115067,0.05753 0.09304,0.03304 0.152344,0.05078 0.08566,0.13173 0.137582,0.255041 0.302734,0.378906 0.537639,0.403232 0.858783,0.404977 0.955078,0.453125 0.0963,0.04815 0.165407,0.11072 0.341797,0.287109 a 1.0583349,1.0583349 0 0 0 1.498047,0 1.0583349,1.0583349 0 0 0 0,-1.496093 c -0.17639,-0.17639 -0.459713,-0.467161 -0.892578,-0.683594 -0.396721,-0.198361 -0.665743,-0.313213 -0.580078,-0.232422 -0.02818,-0.07991 -0.01072,-0.127909 -0.203125,-0.320313 -0.229963,-0.229962 -0.387325,-0.246072 -0.523438,-0.28125 -0.09117,-0.0923 -0.193038,-0.197595 -0.359375,-0.316406 -0.417296,-0.298065 -1.017406,-0.629645 -1.634766,-0.982422 z"
       id="path40" />
    <path
       style="color:#000000;fill:#000000;stroke-linecap:round;-inkscape-stroke:none"
       d="m 10.583984,42.597656 c -0.08819,0 -0.197816,-0.008 -0.390625,0.02344 -0.192809,0.03139 -0.5058907,0.146518 -0.7226559,0.363281 -0.4335302,0.433526 -0.4137616,0.781096 -0.4648437,1.138672 -0.1021634,0.715145 -0.1970586,1.877898 -0.1386719,2.695312 0.029193,0.408708 0.097594,0.79154 0.3828125,1.142578 0.2852185,0.351039 0.6337219,0.452604 0.5957031,0.433594 -0.076036,-0.03802 0.1004828,0.139109 0.5292969,0.353516 0.214407,0.107204 0.746172,0.234774 1.177734,0.04297 0.121823,-0.05414 0.142365,-0.155883 0.232422,-0.22461 0.01372,0.617835 0.0671,1.327899 0.0039,1.707031 -0.105123,0.630733 -0.288531,0.882636 -0.357422,0.96875 -0.03444,0.04305 -0.0015,0.01071 -0.02539,0.0293 -0.0239,0.01859 -0.254076,0.170259 -0.402344,0.466797 -0.06163,0.12327 -0.04037,0.127604 -0.05859,0.197266 -0.04128,0.0293 -0.05319,0.03083 -0.09766,0.06641 -0.327987,0.26239 -0.658941,0.608161 -1.0117185,0.960938 a 1.0583349,1.0583349 0 0 0 0,1.496093 1.0583349,1.0583349 0 0 0 1.4960935,0 c 0.352778,-0.352777 0.724907,-0.7143 0.837891,-0.804687 0.05649,-0.04519 0.05404,-0.04024 0.126953,-0.08398 0.07292,-0.04375 0.363455,-0.236658 0.511719,-0.533203 0.08685,-0.173712 0.06999,-0.20407 0.08203,-0.279297 0.0693,-0.06594 0.12251,-0.102354 0.195313,-0.193359 0.283882,-0.354858 0.631554,-0.986594 0.791015,-1.943359 0.159461,-0.956767 0.148339,-2.157136 0.0078,-3.421875 -0.140527,-1.264739 -0.403393,-2.484664 -0.511719,-2.917969 -0.01354,-0.05416 -0.01891,-0.08916 -0.05273,-0.185547 -0.01554,-0.04428 -0.02302,-0.106769 -0.154297,-0.287109 a 1.0583349,1.0583349 0 0 0 0.0625,-0.152344 1.0583349,1.0583349 0 0 0 -1.058594,-1.058594 z m 0.501954,2.117188 h 0.138671 c -0.0074,0.152797 -0.01346,0.310743 -0.05078,0.509765 -0.02221,0.118466 -0.09536,0.233274 -0.138672,0.376953 0.01913,-0.349475 0.02163,-0.611809 0.05078,-0.886718 z"
       id="path41" />
    <path
       style="color:#000000;fill:#000000;stroke-linecap:round;-inkscape-stroke:none"
       d="m 17.992187,43.392578 a 1.0583349,1.0583349 0 0 0 -0.748046,0.308594 c -0.440972,0.440972 -0.885475,0.860367 -1.216797,1.324219 -0.165661,0.231925 -0.273455,0.461311 -0.333985,0.632812 -0.06053,0.171502 -0.119779,0.290351 -0.01563,0.08203 0.208339,-0.4167 -0.213656,0.258083 -0.279296,0.783203 -0.06564,0.525113 -0.08527,1.160239 0.06055,1.816407 0.07291,0.328087 0.21633,0.625882 0.382813,0.833984 0.166483,0.208102 0.336488,0.338439 0.255859,0.257813 -0.08064,-0.08064 0.181786,0.252292 0.574219,0.373046 0.392433,0.120755 0.631921,0.06302 0.935547,0.0078 0.311305,-0.0566 0.767269,-0.148953 1.248047,-0.355469 -0.143497,0.578709 -0.2758,1.194211 -0.384766,1.59375 -0.118878,0.435887 -0.193258,0.654968 -0.232422,0.75586 -0.03358,0.007 -0.203381,0.08078 -0.550781,0.279296 -0.402926,0.230244 -0.778702,0.496773 -0.875,0.544922 -0.04815,0.02407 -0.06535,0.02903 -0.113281,0.04102 -0.04793,0.01198 -0.119495,-0.01154 -0.416016,0.136719 -0.09721,0.0486 -0.09185,0.08487 -0.162109,0.146484 -0.07118,0.0104 -0.13172,0.01396 -0.271485,0.06055 -0.400056,0.133348 -0.634462,0.388368 -0.722656,0.476562 a 1.0583349,1.0583349 0 0 0 0,1.496094 1.0583349,1.0583349 0 0 0 1.496094,0 c 0.08819,-0.08819 0.03001,-0.01 -0.105469,0.03516 -0.06772,0.02257 -0.03675,0.01031 0.04297,-0.002 0.07972,-0.01226 0.197618,0.0037 0.49414,-0.144531 0.103349,-0.05167 0.09908,-0.09076 0.171875,-0.15625 0.128825,-0.03275 0.322287,-0.08985 0.533204,-0.195312 0.432868,-0.216435 0.762128,-0.479029 0.976562,-0.601563 0.214435,-0.122534 0.45916,-0.167122 0.861328,-0.46875 0.20108,-0.150811 0.450255,-0.476772 0.570313,-0.759766 0.120057,-0.282993 0.207888,-0.58973 0.34375,-1.08789 0.271724,-0.996321 0.712229,-2.750601 0.943359,-3.90625 0.23113,-1.155649 0.272666,-1.78688 0.111328,-2.351563 -0.161337,-0.564682 -0.522461,-0.962402 -0.490234,-0.914062 0.01612,0.02418 -0.05241,-0.152635 -0.292969,-0.369141 -0.240557,-0.216505 -0.514562,-0.314677 -0.771484,-0.378906 -0.256914,-0.06423 -0.538038,-0.10918 -0.820313,-0.136719 -0.141137,-0.01377 -0.272786,-0.02327 -0.433594,-0.01758 -0.0804,0.0028 -0.165724,0.0045 -0.308593,0.03906 -0.0015,3.58e-4 -0.0063,0.0055 -0.0078,0.0059 a 1.0583349,1.0583349 0 0 0 -0.449219,-0.185547 z m 0.269532,2.316406 c 0.0078,0.0063 0.01952,0.01504 0.02734,0.02148 0.135757,0.111799 0.243656,0.229499 0.298829,0.339843 0.110345,0.220691 0.09175,0.884296 -0.06055,1.078125 -0.118343,0.150618 -0.623012,0.325785 -1.009766,0.451172 -0.01685,-0.285544 -0.0363,-0.680329 -0.01953,-0.814453 0.02255,-0.180435 -0.224263,0.495434 0.07227,-0.09766 0.148249,-0.296515 0.113526,-0.310261 0.119141,-0.326172 0.0056,-0.01591 0.0057,-0.02871 0.06055,-0.105469 0.05671,-0.07939 0.324117,-0.347794 0.511719,-0.546875 z"
       id="path42" />
    <path
       style="color:#000000;fill:#000000;stroke-linecap:round;-inkscape-stroke:none"
       d="m 26.388672,44.416016 c -0.5339,0.177967 -0.674677,0.38916 -0.9375,0.626953 -0.262824,0.237793 -0.534245,0.510807 -0.798828,0.77539 a 1.0583349,1.0583349 0 0 0 0,1.496094 1.0583349,1.0583349 0 0 0 1.263672,0 c -0.0035,0.667391 -0.0023,1.400226 -0.0293,1.832031 -0.0393,0.628834 -0.09489,0.624002 -0.164063,1.039063 -0.06918,0.415061 -0.06367,0.752294 -0.0918,0.949219 -0.02813,0.196923 -0.08759,0.389714 -0.175781,0.654296 a 1.0583349,1.0583349 0 0 0 0.667969,1.337891 1.0583349,1.0583349 0 0 0 1.339844,-0.669922 c 0.08819,-0.264582 0.20361,-0.601049 0.263671,-1.021484 0.06006,-0.420434 0.06497,-0.788239 0.08398,-0.902344 0.01902,-0.114105 0.140561,-0.471631 0.189453,-1.253906 0.04889,-0.782275 0.04492,-2.007032 0.04492,-2.800781 0,-0.396875 0.02056,-0.674183 -0.05078,-1.054688 -0.03567,-0.190252 -0.07332,-0.472721 -0.416016,-0.777344 -0.3427,-0.304622 -0.922502,-0.319452 -1.189453,-0.230468 z"
       id="path43" />
    <path
       style="color:#000000;fill:#000000;stroke-linecap:round;-inkscape-stroke:none"
       d="m 30.644531,45.044922 c -0.431477,0.03923 -0.762903,0.233313 -0.941406,0.367187 -0.178513,0.133883 -0.362742,0.351752 -0.449219,0.5 -0.08648,0.148249 -0.09675,0.185332 -0.130859,0.242188 -0.06823,0.113718 -0.373786,0.519056 -0.613281,0.998047 -0.239496,0.478991 -0.352442,0.953614 -0.488282,1.632812 -0.135839,0.679198 -0.313493,1.649054 -0.408203,2.359375 -0.09471,0.710322 -0.146101,1.0894 -0.02148,1.587891 0.124625,0.498525 0.90993,1.167722 0.455078,0.71289 -0.227434,-0.227424 -0.159689,-0.196567 -0.06641,-0.05664 0.09328,0.139927 0.240533,0.301411 0.417968,0.443359 0.354863,0.28389 0.832013,0.571674 1.458985,0.759766 0.626971,0.188091 1.267995,0.235033 1.912109,-0.04102 0.644115,-0.276049 0.925505,-0.745761 1.101563,-0.957031 0.176058,-0.211269 0.623277,-0.71875 0.935547,-1.603516 0.312269,-0.884765 0.64479,-2.245056 0.292968,-3.652343 -0.351821,-1.407289 -1.231096,-2.400626 -2.103515,-2.9375 -0.43621,-0.268438 -0.920085,-0.394694 -1.351563,-0.355469 z m 0.283203,2.214844 c 0.292541,0.202353 0.947949,0.907027 1.119141,1.591796 0.177344,0.709378 -0.01943,1.819055 -0.236328,2.433594 -0.216896,0.614539 -0.299539,0.635229 -0.564453,0.953125 -0.264914,0.317897 -0.337301,0.378654 -0.310547,0.367188 0.02675,-0.01147 -0.213777,0.03548 -0.46875,-0.04102 -0.254973,-0.07649 -0.659984,-0.317831 -0.746094,-0.386719 -0.04305,-0.03444 -0.0057,-0.0055 0.02148,0.03516 0.01162,0.01743 -0.07806,-0.09027 -0.08594,-0.113282 0.0127,0.0067 -0.01277,-0.153261 0.05664,-0.673828 0.08168,-0.612593 0.256022,-1.582844 0.384765,-2.226562 0.128744,-0.643718 0.19336,-0.875001 0.306641,-1.101563 0.111207,-0.222414 0.329714,-0.517589 0.523437,-0.83789 z"
       id="path44" />
    <path
       style="color:#000000;fill:#000000;stroke-linecap:round;-inkscape-stroke:none"
       d="m 36.929687,43.306641 c -0.254007,0.08813 -0.348141,0.195794 -0.416015,0.263671 -0.271468,0.271481 -0.116748,0.138232 -0.142578,0.164063 -0.02583,0.02583 -0.10491,0.09783 -0.294922,0.21875 -0.380025,0.241833 -1.272354,0.6977 -2.154297,1.138672 a 1.0583349,1.0583349 0 0 0 -0.472656,1.419922 1.0583349,1.0583349 0 0 0 1.419922,0.472656 c 0.460866,-0.230433 0.808032,-0.432717 1.224609,-0.650391 -0.09188,0.804607 -0.20904,1.772991 -0.28125,2.458985 -0.09062,0.860914 -0.121767,1.198007 -0.105469,1.132812 0.01631,-0.06522 -0.02095,-0.08169 -0.154297,0.31836 -0.05191,0.155731 -0.05665,0.231499 -0.06641,0.302734 -0.01893,0.0298 0.0238,-0.05503 -0.02539,0.0293 -0.119636,0.205086 -0.192597,0.435642 -0.25,0.722656 -0.114803,0.57402 -0.193055,1.424698 -0.28125,2.306641 a 1.0583349,1.0583349 0 0 0 0.949219,1.158203 1.0583349,1.0583349 0 0 0 1.158203,-0.947266 c 0.08819,-0.881943 0.186463,-1.795594 0.248047,-2.103515 0.03079,-0.153957 0.04637,-0.143108 0.0039,-0.07031 -0.04246,0.07279 -0.02327,0.103188 0.125,-0.193359 0.148249,-0.296515 0.132268,-0.414424 0.144532,-0.494141 0.01226,-0.07972 0.02453,-0.108737 0.002,-0.04102 -0.04516,0.135469 0.09472,-0.05662 0.199219,-0.474609 0.104488,-0.417967 0.07244,-0.611004 0.158203,-1.425781 0.08577,-0.814777 0.262893,-2.225023 0.353515,-3.085938 0.09062,-0.860914 0.09375,-1.212284 0.09375,-1.388672 0,-0.08819 0.01188,-0.137536 -0.01758,-0.34375 -0.01473,-0.103106 0.110137,-0.317974 -0.410156,-0.722656 -0.260146,-0.202341 -0.753805,-0.254145 -1.007813,-0.166015 z"
       id="path45" />
    <path
       style="color:#000000;fill:#000000;stroke-linecap:round;-inkscape-stroke:none"
       d="m 34.466797,48.421875 a 1.0583349,1.0583349 0 0 0 -1.126953,0.984375 1.0583349,1.0583349 0 0 0 0.986328,1.126953 l 3.96875,0.263672 a 1.0583349,1.0583349 0 0 0 1.125,-0.984375 1.0583349,1.0583349 0 0 0 -0.984375,-1.126953 z"
       id="path46" />
    <path
       style="color:#000000;fill:#000000;stroke-linecap:round;-inkscape-stroke:none"
       d="m 44.53125,42.564453 c -0.356709,0.09116 -0.493663,0.225008 -0.654297,0.353516 -0.642537,0.51403 -1.444228,1.438065 -2.326172,2.408203 a 1.0583349,1.0583349 0 0 0 0.07031,1.49414 1.0583349,1.0583349 0 0 0 1.496093,-0.07031 c 0.339922,-0.373914 0.485068,-0.501974 0.802735,-0.839844 v 0.921875 c 0,1.146526 -9.86e-4,2.554883 -0.04297,3.478516 -0.04198,0.923633 -0.118837,1.373178 -0.207031,1.902344 a 1.0583349,1.0583349 0 0 0 0.871094,1.21875 1.0583349,1.0583349 0 0 0 1.216796,-0.871094 c 0.08819,-0.529165 0.188164,-1.137655 0.234375,-2.154297 0.04621,-1.016641 0.04492,-2.427693 0.04492,-3.574219 v -2.601562 c 0,-0.143316 0.0013,-0.281523 -0.0098,-0.441407 -0.01103,-0.159883 0.01088,-0.341657 -0.191407,-0.685546 -0.101144,-0.171945 -0.308031,-0.391736 -0.582031,-0.498047 -0.273999,-0.106312 -0.544302,-0.0866 -0.722656,-0.04102 z"
       id="path47" />
    <path
       style="color:#000000;fill:#000000;stroke-linecap:round;-inkscape-stroke:none"
       d="m 48.042969,43.53125 c -0.287,0.131541 -0.43768,0.296109 -0.560547,0.439453 -0.245734,0.286689 -0.382737,0.556177 -0.521485,0.810547 -0.277494,0.508741 -0.635796,1.269655 -0.783203,2.498047 -0.147407,1.228392 -0.140625,2.903734 -0.140625,3.917969 0,1.014234 -0.04844,1.300338 0.07617,1.798828 0.06231,0.249262 0.352519,0.667514 0.574219,0.808593 0.2217,0.14108 0.286736,0.146298 0.376953,0.191407 0.09022,0.04511 0.318488,0.180303 0.642578,0.285156 0.324091,0.104853 0.837853,0.197284 1.361328,-0.06445 0.523479,-0.261738 0.718129,-0.614224 0.890625,-0.894531 0.172497,-0.280308 0.299113,-0.542489 0.34961,-0.63086 0.100985,-0.176726 0.390444,-0.649644 0.486328,-1.560547 0.09588,-0.910896 0.186891,-2.54601 0.136719,-3.599609 -0.02509,-0.526799 -0.08861,-0.898566 -0.195313,-1.208984 -0.106706,-0.310419 -0.307127,-0.586667 -0.291016,-0.5625 0.01612,0.02418 0.05419,0.11519 0.03711,0.06055 -0.01708,-0.05464 -0.05923,-0.205031 -0.132813,-0.425781 -0.07358,-0.220748 -0.181337,-0.526243 -0.330078,-0.83789 -0.148741,-0.311648 -0.184064,-0.670158 -0.863281,-1.009766 -0.339608,-0.169804 -0.826281,-0.147166 -1.113281,-0.01563 z m 0.509765,3.119141 c 0.04125,0.09833 0.07129,0.190923 0.132813,0.283203 0.104306,0.156456 0.03427,0.03381 0.04883,0.07617 0.01456,0.04236 0.06302,0.221851 0.08203,0.621093 0.03802,0.798482 -0.04645,2.514502 -0.126953,3.279297 -0.0805,0.76479 0.03304,0.291789 -0.21875,0.732422 -0.118628,0.207602 -0.209675,0.390589 -0.296875,0.537109 -0.0036,-0.0017 -0.0061,-0.0041 -0.0098,-0.0059 0.0023,-0.09732 -0.0098,-0.207031 -0.0098,-0.976562 0,-1.014235 0.0078,-2.68955 0.125,-3.666016 0.05944,-0.495367 0.182804,-0.62477 0.273437,-0.880859 z"
       id="path48" />
    <path
       style="color:#000000;fill:#000000;stroke-linecap:round;-inkscape-stroke:none"
       d="m 54.142578,41.703125 c -0.334095,-0.08353 -0.655284,0.01376 -0.835937,0.113281 -0.180654,0.09952 -0.275844,0.197665 -0.351563,0.28125 -0.151437,0.167171 -0.226193,0.300688 -0.302734,0.435547 -0.153084,0.269718 -0.275426,0.543038 -0.373047,0.738281 -0.195243,0.390487 -0.335029,0.578264 -0.486328,0.88086 -0.04697,0.09395 -0.05117,0.113284 -0.06836,0.15625 -0.01842,0.0086 -0.213407,0.158548 -0.453125,0.318359 a 1.0583349,1.0583349 0 0 0 -0.292968,1.46875 1.0583349,1.0583349 0 0 0 1.466796,0.292969 c 0.22367,-0.149113 0.452204,-0.306075 0.695313,-0.521485 0.03467,1.797946 0.04102,4.350043 0.04102,7.048829 a 1.0583349,1.0583349 0 0 0 1.058593,1.058593 1.0583349,1.0583349 0 0 0 1.058594,-1.058593 c 0,-2.910413 -1.49e-4,-5.818636 -0.04492,-7.654297 -0.02239,-0.917831 -0.05475,-1.559763 -0.113281,-2.041016 -0.02927,-0.240626 -0.05886,-0.437906 -0.134766,-0.664062 -0.03795,-0.113078 -0.08436,-0.236966 -0.197265,-0.394532 -0.112905,-0.157565 -0.331923,-0.375459 -0.666016,-0.458984 z"
       id="path49" />
    <path
       style="color:#000000;fill:#000000;stroke-linecap:round;-inkscape-stroke:none"
       d="m 62.242187,43.300781 c -0.492863,-0.04107 -0.578272,0.07621 -0.585937,0.07813 -0.0077,0.0019 -0.05535,0.01042 -0.146484,0.02344 -0.09114,0.01302 -0.2152,-0.0037 -0.511719,0.144531 -0.123172,0.06159 -0.143652,0.145208 -0.230469,0.234375 -0.0792,0.03342 -0.164748,0.06426 -0.279297,0.140625 -0.312913,0.208613 -0.234741,0.200643 -0.453125,0.273437 -0.21838,0.07279 -0.829907,0.177431 -1.447265,0.265625 a 1.0583349,1.0583349 0 0 0 -0.898438,1.197266 1.0583349,1.0583349 0 0 0 1.197266,0.898438 c 0.617359,-0.08819 1.241037,-0.161726 1.816406,-0.353516 0.08667,-0.02889 0.06556,-0.04349 0.144531,-0.07813 -0.105644,0.525199 -0.184563,1.005352 -0.375,1.544922 -0.228456,0.647293 -0.687126,1.565098 -0.988281,2.61914 -0.301155,1.054042 -0.390321,2.090408 -0.478516,3.060547 A 1.0583349,1.0583349 0 0 0 59.964844,54.5 a 1.0583349,1.0583349 0 0 0 1.15039,-0.958984 c 0.08819,-0.970139 0.176286,-1.871883 0.404297,-2.669922 0.228011,-0.798039 0.648509,-1.644084 0.949219,-2.496094 0.30071,-0.852011 0.401242,-1.54499 0.523437,-2.115234 0.0611,-0.285123 0.134946,-0.586723 0.199219,-0.867188 0.06427,-0.280465 0.132813,-0.486037 0.132813,-0.853516 0,-0.183739 -0.01217,-0.439563 -0.214844,-0.736328 -0.20267,-0.296764 -0.620756,-0.481417 -0.867188,-0.501953 z m -1.537109,0.542969 c -0.08643,0.100881 -0.235954,0.210189 -0.263672,0.265625 -0.05861,0.117215 -0.07704,0.03992 0.150391,-0.1875 0.09256,-0.09256 0.06286,-0.04933 0.113281,-0.07813 z"
       id="path50" />
    <path
       style="color:#000000;fill:#000000;stroke-linecap:round;-inkscape-stroke:none"
       d="m 65.53125,42.822266 c -0.472559,-0.09453 -0.748333,0.110297 -0.873047,0.205078 -0.124714,0.09478 -0.17405,0.158257 -0.21875,0.21289 -0.0894,0.109266 -0.139452,0.191873 -0.205078,0.296875 -0.262499,0.420002 -0.689887,1.192579 -1.130859,1.986328 a 1.0583349,1.0583349 0 0 0 0.412109,1.439454 1.0583349,1.0583349 0 0 0 0.777344,0.08789 v 1.058594 6.130859 a 1.0583349,1.0583349 0 0 0 1.058593,1.058594 1.0583349,1.0583349 0 0 0 1.058594,-1.058594 v -6.130859 -2.910156 -1.146485 c 0,-0.05512 0.0057,-0.110055 -0.0078,-0.242187 -0.0067,-0.06607 -0.0086,-0.149666 -0.07813,-0.324219 -0.06951,-0.174553 -0.32041,-0.569534 -0.792969,-0.664062 z"
       id="path51" />
    <path
       style="color:#000000;fill:#000000;stroke-linecap:round;-inkscape-stroke:none"
       d="m 68.148437,43.138672 a 1.0583349,1.0583349 0 0 0 -1.197265,0.896484 c -0.08819,0.617359 -0.192832,1.228886 -0.265625,1.447266 -0.07279,0.218383 -0.178378,0.24282 -0.375,0.734375 -0.196624,0.491558 -0.194032,0.864022 -0.177735,0.798828 0.0082,-0.03261 -0.02664,-0.01067 -0.08008,0.283203 -0.05344,0.293869 0.126917,0.886684 0.359375,1.119141 0.232448,0.232446 0.376559,0.292729 0.541016,0.392578 0.164457,0.09985 0.333622,0.200279 0.501953,0.3125 0.336663,0.224442 0.825942,0.615711 1.496094,0.976562 0.670151,0.360851 1.409678,0.633854 2.115234,0.898438 a 1.0583349,1.0583349 0 0 0 1.361328,-0.621094 1.0583349,1.0583349 0 0 0 -0.61914,-1.361328 c -0.705557,-0.264584 -1.377139,-0.522786 -1.853516,-0.779297 -0.476376,-0.25651 -0.869086,-0.570276 -1.326172,-0.875 -0.148122,-0.09875 -0.256724,-0.160769 -0.375,-0.232422 -0.001,-0.01227 0.0263,-0.137044 0.02148,-0.125 -0.02023,0.05058 0.226179,-0.276197 0.417968,-0.851562 0.19179,-0.575369 0.263369,-1.199048 0.351563,-1.816407 a 1.0583349,1.0583349 0 0 0 -0.896485,-1.197265 z"
       id="path52" />
    <path
       style="color:#000000;fill:#000000;stroke-linecap:round;-inkscape-stroke:none"
       d="m 70.6875,46.083984 a 1.0583349,1.0583349 0 0 0 -1.320313,0.703125 l -1.853515,6.085938 a 1.0583349,1.0583349 0 0 0 0.705078,1.320312 1.0583349,1.0583349 0 0 0 1.320312,-0.703125 l 1.853516,-6.085937 A 1.0583349,1.0583349 0 0 0 70.6875,46.083984 Z"
       id="path53" />
    <path
       style="color:#000000;fill:#000000;stroke-linecap:round;-inkscape-stroke:none"
       d="m 16.136719,59.414062 c -0.678396,-0.113066 -1.161973,0.0555 -1.705078,0.296875 -0.543106,0.241381 -1.076113,0.617874 -1.439453,1.199219 -0.356109,0.569774 -0.467973,1.13988 -0.470704,1.158203 -0.05366,0.04679 -0.09663,0.05458 -0.195312,0.251953 -0.296516,0.593039 -0.15625,0.739454 -0.15625,1.533204 0,0.793749 -0.01805,2.207957 0.195312,3.328125 0.213366,1.120167 0.730915,1.82337 0.892579,2.082031 0.161662,0.25866 0.40801,0.798049 1.015625,1.203125 0.303806,0.202538 0.697427,0.405743 1.226562,0.466797 0.529135,0.06105 1.253897,-0.115048 1.728516,-0.632813 0.474618,-0.517765 0.660018,-1.113791 0.818359,-1.785156 0.158341,-0.671365 0.248253,-1.425381 0.294922,-2.21875 0.09334,-1.586739 0.01481,-3.268459 -0.19336,-4.361328 -0.104082,-0.546434 -0.247661,-0.951805 -0.441406,-1.271485 -0.193745,-0.319679 -0.440965,-0.532761 -0.466797,-0.558593 -0.02583,-0.02583 -0.08627,-0.114291 -0.259765,-0.275391 -0.173492,-0.1611 -0.504552,-0.359482 -0.84375,-0.416016 z m -0.455078,2.119141 c 0.03112,0.0333 0.01601,0.02187 0.0625,0.06836 0.150556,0.150557 0.125603,0.116035 0.152343,0.160157 0.02674,0.04412 0.101522,0.188753 0.173828,0.568359 0.144612,0.759212 0.243208,2.429929 0.160157,3.841797 -0.04153,0.705934 -0.126874,1.362164 -0.244141,1.859375 -0.10879,0.46127 -0.262354,0.72659 -0.294922,0.779297 -0.06451,-0.01849 -0.167054,-0.05408 -0.24414,-0.105469 -0.186136,-0.12409 -0.115223,-0.115606 -0.394532,-0.5625 -0.279308,-0.446893 -0.468009,-0.625508 -0.607421,-1.357422 -0.139412,-0.731912 -0.158204,-2.137891 -0.158204,-2.93164 0,-0.785913 0.133083,-0.980406 -0.06641,-0.580079 0.09166,-0.11862 0.192756,-0.236769 0.25586,-0.394531 0.178543,-0.44637 0.234868,-0.721493 0.3125,-0.845703 0.07763,-0.124209 0.25131,-0.277275 0.501953,-0.388672 0.196517,-0.08734 0.347929,-0.0933 0.390625,-0.111328 z"
       id="path54" />
    <path
       style="color:#000000;fill:#000000;stroke-linecap:round;-inkscape-stroke:none"
       d="m 47.115234,59.767578 c -0.440194,0.110049 -0.76031,0.308306 -1.003906,0.470703 -0.487191,0.324794 -0.864154,0.687835 -1.130859,1.087891 -0.266706,0.400058 -0.445949,0.798809 -0.353516,0.660156 0.04622,-0.06934 -0.15404,0.180876 -0.25,0.46875 -0.09596,0.287874 -0.122268,0.550435 -0.146484,0.986328 -0.04843,0.871783 -0.04778,2.426075 0,3.333985 0.02389,0.453959 0.0587,0.734839 0.117187,0.978515 0.0552,0.229979 0.179153,0.466932 0.160156,0.427735 0.01858,0.07639 0.04067,0.26527 0.296875,0.521484 0.07576,0.07576 0.04726,0.02932 0.101563,0.06836 0.01318,0.0893 -0.0044,0.204616 0.294922,0.503907 0.425841,0.425842 0.776705,0.560036 0.835937,0.607421 0.05923,0.04739 0.118798,0.283031 0.673828,0.560547 0.277516,0.138759 0.686671,0.206751 1.060547,0.113282 0.373877,-0.09347 0.685145,-0.306239 0.955078,-0.576172 0.539866,-0.539866 0.943572,-1.244855 1.238282,-1.785157 0.29471,-0.540302 0.477293,-1.125701 0.52539,-1.943359 0.0481,-0.817657 0.05674,-2.101079 -0.197265,-3.320312 -0.254007,-1.219234 -0.604944,-2.28287 -1.615235,-2.925782 -0.505145,-0.321456 -1.122305,-0.34833 -1.5625,-0.238281 z m 0.453125,2.083984 c 0.0027,0.02877 0.47263,0.649091 0.652344,1.511719 0.186965,0.897432 0.196347,2.082025 0.15625,2.763672 -0.0401,0.681647 -0.03508,0.624853 -0.269531,1.054688 -0.193319,0.354417 -0.51187,0.801917 -0.72461,1.074218 -0.0268,-0.02172 0.0067,-0.0013 -0.02344,-0.02539 -0.381739,-0.305391 -0.735174,-0.524237 -0.662109,-0.451172 0.07306,0.07306 0.275036,0.427029 -0.02148,-0.166016 -0.05615,-0.112302 -0.132094,-0.128612 -0.21289,-0.210937 -0.01778,-0.05287 -0.01365,-0.06441 -0.05273,-0.142578 -0.08516,-0.170318 0.0018,0.03193 -0.0059,0 -0.0077,-0.03193 -0.04034,-0.211818 -0.06055,-0.595704 -0.04041,-0.767778 -0.03976,-2.389752 0,-3.105468 0.01988,-0.357856 0.0598,-0.491911 0.04102,-0.435547 -0.01879,0.05636 -0.130512,0.23874 0.0039,0.03711 0.268818,-0.403235 0.267444,-0.53105 0.353515,-0.660156 0.08607,-0.129108 0.236411,-0.295628 0.542969,-0.5 0.126354,-0.08424 0.2198,-0.123878 0.283203,-0.148438 z m -1.455078,5.205079 c -0.117214,-0.05861 -0.03993,-0.079 0.1875,0.148437 0.05952,0.05952 0.02607,0.04838 0.05859,0.0957 -0.09252,-0.07635 -0.194749,-0.218469 -0.246094,-0.24414 z"
       id="path55" />
    <path
       style="color:#000000;fill:#000000;stroke-linecap:round;-inkscape-stroke:none"
       d="m 35.039062,59.277344 a 1.0583349,1.0583349 0 0 0 -0.695312,0.412109 c -0.529166,0.705555 -1.07693,1.41854 -1.453125,2.117188 -0.376195,0.698647 -0.50195,1.300768 -0.580078,1.613281 -0.03906,0.156256 -0.199784,0.558825 0.002,1.103515 0.201737,0.544691 0.661517,0.843491 1.130859,1.048829 0.938683,0.410673 2.385462,0.721441 3.884766,1.074218 A 1.0583349,1.0583349 0 0 0 38.601562,65.859375 1.0583349,1.0583349 0 0 0 37.8125,64.585937 c -1.430382,-0.33656 -2.81637,-0.696987 -3.359375,-0.910156 0.06855,-0.27449 0.11499,-0.520193 0.300781,-0.865234 0.241166,-0.44788 0.754037,-1.144055 1.283203,-1.84961 a 1.0583349,1.0583349 0 0 0 -0.21289,-1.482421 1.0583349,1.0583349 0 0 0 -0.785157,-0.201172 z"
       id="path56" />
    <path
       style="color:#000000;fill:#000000;stroke-linecap:round;-inkscape-stroke:none"
       d="m 36.421875,62.720703 a 1.0583349,1.0583349 0 0 0 -1.21875,0.869141 c -0.176388,1.058332 -0.355789,2.138283 -0.449219,3.166015 -0.09343,1.027733 -0.09375,1.948135 -0.09375,2.830078 a 1.0583349,1.0583349 0 0 0 1.058594,1.058594 1.0583349,1.0583349 0 0 0 1.058594,-1.058594 c 0,-0.881943 0.001,-1.726129 0.08398,-2.638671 0.08296,-0.912543 0.253299,-1.949481 0.429688,-3.007813 a 1.0583349,1.0583349 0 0 0 -0.869141,-1.21875 z"
       id="path57" />
    <path
       style="color:#000000;fill:#000000;stroke-linecap:round;-inkscape-stroke:none"
       d="m 67.519531,59.003906 a 1.0583349,1.0583349 0 0 0 -1.107422,1.00586 c -0.08819,1.852082 -0.177732,3.688407 -0.177734,4.68164 -10e-7,0.49662 0.0063,0.767775 0.08984,1.087891 0.08351,0.320116 0.47712,0.754464 0.396484,0.673828 -0.08063,-0.08063 0.148621,0.188162 0.427734,0.347656 0.279114,0.159494 0.601337,0.251142 1.017579,0.306641 0.832482,0.110998 2.036762,0.09766 3.271484,0.09766 A 1.0583349,1.0583349 0 0 0 72.496094,66.146484 1.0583349,1.0583349 0 0 0 71.4375,65.087891 c -1.234722,0 -2.4998,-0.01469 -2.990234,-0.08008 -0.08432,-0.01124 -0.04365,-0.0056 -0.08594,-0.01563 -0.0075,-0.08948 -0.0098,-0.06713 -0.0098,-0.300781 3e-6,-0.858848 0.08563,-2.727996 0.173829,-4.580078 a 1.0583349,1.0583349 0 0 0 -1.00586,-1.107422 z m 0.697266,5.953125 c -0.0059,-0.0059 0.01063,0.01433 0.0059,0.0098 0.0027,0.0014 -0.0302,-0.0067 -0.02539,-0.0039 0.0476,0.0272 0.188355,0.162964 0.01953,-0.0059 z"
       id="path58" />
    <path
       style="color:#000000;fill:#000000;stroke-linecap:round;-inkscape-stroke:none"
       d="m 69.529297,62.197266 a 1.0583349,1.0583349 0 0 0 -1.246094,0.830078 c -0.08819,0.440971 -0.172848,0.844715 -0.275391,1.152343 -0.102542,0.307628 -0.334665,0.822021 -0.482421,1.757813 -0.147757,0.935792 -0.230165,2.255209 -0.31836,3.578125 a 1.0583349,1.0583349 0 0 0 0.984375,1.125 1.0583349,1.0583349 0 0 0 1.126953,-0.984375 c 0.08819,-1.322916 0.182002,-2.648772 0.298828,-3.388672 0.116827,-0.7399 0.236398,-0.931847 0.398438,-1.417969 0.16204,-0.486121 0.255556,-0.965278 0.34375,-1.40625 a 1.0583349,1.0583349 0 0 0 -0.830078,-1.246093 z"
       id="path59" />
    <path
       style="color:#000000;fill:#000000;stroke-linecap:round;-inkscape-stroke:none"
       d="m 64.523437,60.830078 c -0.457646,-0.166416 -0.866247,-0.07382 -1.166015,0.03906 -0.299769,0.112883 -0.543036,0.263884 -0.78125,0.43164 -0.476428,0.335513 -0.930123,0.751563 -1.371094,1.148438 a 1.0583349,1.0583349 0 0 0 -0.08008,1.49414 1.0583349,1.0583349 0 0 0 1.496094,0.07813 c 0.377279,-0.339551 0.713835,-0.625529 1.003906,-0.847656 0.0565,0.378558 0.10505,0.850723 0.142578,1.451172 0.08768,1.402888 0.175478,3.076262 0.263672,4.751953 a 1.0583349,1.0583349 0 0 0 1.111328,1 1.0583349,1.0583349 0 0 0 1.001953,-1.111328 c -0.08819,-1.675691 -0.176917,-3.354109 -0.265625,-4.773438 -0.04435,-0.709664 -0.08439,-1.370425 -0.199219,-1.964843 -0.05742,-0.29721 -0.127875,-0.580663 -0.277343,-0.876953 -0.149468,-0.296291 -0.42126,-0.653896 -0.878907,-0.820313 z"
       id="path60" />
    <path
       style="color:#000000;fill:#000000;stroke-linecap:round;-inkscape-stroke:none"
       d="m 59.78125,60.388672 c -0.443848,-0.1387 -0.860064,0.0635 -1.017578,0.18164 -0.274549,0.205913 -0.261486,0.242172 -0.214844,0.208985 -0.08222,0.04522 -0.172248,0.08631 -0.294922,0.208984 -0.168817,0.168822 -0.221529,0.271747 -0.265625,0.337891 -0.0441,0.06614 -0.08063,0.0943 0,0.01367 0.08064,-0.08064 0.09623,-0.08765 -0.03906,0.01758 -0.135295,0.105227 -0.308204,0.296873 -0.427735,0.496094 -0.239049,0.398421 -0.384157,0.812933 -0.560547,1.253906 a 1.0583349,1.0583349 0 0 0 0.589844,1.375 1.0583349,1.0583349 0 0 0 1.351563,-0.580078 c 0.01391,0.182712 0.04398,0.105438 0.05664,0.472656 0.04254,1.233596 0.04297,3.62266 0.04297,6.003906 a 1.0583349,1.0583349 0 0 0 1.058594,1.058594 1.0583349,1.0583349 0 0 0 1.058594,-1.058594 c 0,-2.381246 7.34e-4,-4.754084 -0.04492,-6.078125 -0.04566,-1.324041 -0.183892,-1.755096 -0.251953,-2.027344 -0.03403,-0.136124 -0.0773,-0.353715 -0.125,-0.568359 -0.0477,-0.214643 -0.04844,-0.366408 -0.21875,-0.707031 -0.08516,-0.170312 -0.253418,-0.470675 -0.697266,-0.609375 z"
       id="path61" />
    <path
       style="color:#000000;fill:#000000;stroke-linecap:round;-inkscape-stroke:none"
       d="m 27.314453,58.835937 c -0.266961,0.08899 -0.470163,0.270727 -0.519531,0.3125 -0.04937,0.04177 -0.08768,0.07604 -0.263672,0.181641 -0.352003,0.2112 -1.250869,0.66645 -2.132813,1.107422 a 1.0583349,1.0583349 0 0 0 -0.474609,1.419922 1.0583349,1.0583349 0 0 0 1.419922,0.472656 c 0.714203,-0.357101 1.320913,-0.672727 1.84375,-0.960937 0.01809,0.359403 0.04716,0.492088 0.02148,1.210937 -0.04352,1.218552 -0.132791,2.898205 -0.216797,3.822266 -0.08401,0.92406 -0.184229,1.015605 -0.0918,0.876953 0.04623,-0.06934 0.161738,-0.164913 0.138671,-0.148438 -0.02307,0.01648 -0.277511,0.185881 -0.425781,0.482422 -0.145123,0.290249 -0.127038,0.398094 -0.136719,0.464844 -0.07931,0.128112 -0.172039,0.22917 -0.207031,0.369141 -0.124623,0.4985 -0.08645,0.760896 -0.105469,0.875 -0.01902,0.114103 -0.03485,0.14197 -0.123046,0.318359 a 1.0583349,1.0583349 0 0 0 0.472656,1.419922 1.0583349,1.0583349 0 0 0 1.419922,-0.472656 c 0.08819,-0.176389 0.249183,-0.500955 0.318359,-0.916016 0.06043,-0.362557 0.07648,-0.627149 0.06055,-0.621094 0.05184,-0.06312 0.05235,-0.02853 0.107422,-0.138672 0.09422,-0.188448 0.07976,-0.227447 0.08984,-0.302734 0.0604,-0.06128 0.100031,-0.07778 0.152343,-0.15625 0.268817,-0.403235 0.345118,-0.843162 0.4375,-1.859375 0.09238,-1.016213 0.179935,-2.686612 0.22461,-3.9375 0.04467,-1.250888 0.123583,-2.000344 -0.142578,-2.798828 C 29.04856,59.45818 28.742077,59.0618 28.34375,58.884766 27.945423,58.707731 27.581402,58.746955 27.314453,58.835937 Z m -0.677734,8.953125 c -0.04935,0.04935 -0.09612,0.183381 -0.15625,0.279297 -0.01334,0.03958 -0.04287,0.07208 0.04492,-0.103515 0.104171,-0.208354 0.227552,-0.292002 0.111328,-0.175782 z"
       id="path62" />
    <path
       style="color:#000000;fill:#000000;stroke-linecap:round;-inkscape-stroke:none"
       d="m 31.970703,59.884766 c -0.429949,0 -0.645202,0.143665 -0.835937,0.259765 -0.190736,0.1161 -0.349509,0.243496 -0.509766,0.38086 -0.320514,0.274726 -0.636633,0.595617 -0.945313,0.904296 a 1.0583349,1.0583349 0 0 0 0,1.496094 1.0583349,1.0583349 0 0 0 1.496094,0 c 0.01672,-0.01672 0.02827,-0.02634 0.04492,-0.04297 0,1.322916 -2e-4,3.353455 -0.04297,4.59375 -0.04277,1.240296 -0.118837,1.670053 -0.207031,2.199219 a 1.0583349,1.0583349 0 0 0 0.869141,1.21875 1.0583349,1.0583349 0 0 0 1.21875,-0.871094 c 0.08819,-0.529166 0.188949,-1.157268 0.234375,-2.474609 0.04543,-1.317341 0.04492,-3.3431 0.04492,-4.666016 0,-0.661457 0.007,-1.147619 -0.04687,-1.59375 -0.02692,-0.223065 -0.04977,-0.44349 -0.214844,-0.742187 -0.165069,-0.298697 -0.675519,-0.662109 -1.105469,-0.662109 z"
       id="path63" />
    <path
       style="color:#000000;fill:#000000;stroke-linecap:round;-inkscape-stroke:none"
       d="m 53.433594,58.976562 c -0.646498,-0.18473 -0.875921,0.104344 -1.00586,0.199219 -0.129938,0.09488 -0.207745,0.174542 -0.302734,0.269531 -0.379948,0.379951 -0.974436,1.063977 -1.591797,1.769532 a 1.0583349,1.0583349 0 0 0 0.09961,1.49414 1.0583349,1.0583349 0 0 0 1.490235,-0.09961 v 1.287109 5.423828 a 1.0583349,1.0583349 0 0 0 1.058594,1.058594 1.0583349,1.0583349 0 0 0 1.058593,-1.058594 v -5.423828 -2.601562 -1.101563 c 0,-0.05512 0.0075,-0.118271 -0.01563,-0.283203 -0.01154,-0.08247 -0.02429,-0.197178 -0.11914,-0.380859 -0.09485,-0.183682 -0.348627,-0.460369 -0.671875,-0.552735 z"
       id="path64" />
    <path
       style="color:#000000;fill:#000000;stroke-linecap:round;-inkscape-stroke:none"
       d="m 41.919922,59.460937 c -0.298373,0.154216 -0.414855,0.314956 -0.501953,0.423829 -0.348389,0.435487 -0.404013,0.844991 -0.419922,0.884765 -0.01591,0.03977 -0.163455,0.292057 -0.339844,0.556641 a 1.0583349,1.0583349 0 0 0 0.294922,1.466797 1.0583349,1.0583349 0 0 0 1.042969,-0.0078 c 0.151365,1.617478 0.260893,4.165876 0.33789,7.091797 a 1.0583349,1.0583349 0 0 0 1.085938,1.03125 1.0583349,1.0583349 0 0 0 1.029297,-1.085937 c -0.08819,-3.351387 -0.161019,-6.650567 -0.40625,-8.367188 -0.06131,-0.429155 -0.132694,-0.759994 -0.236328,-1.052734 -0.103635,-0.29274 -0.218835,-0.58475 -0.583985,-0.847657 -0.365149,-0.262906 -1.004361,-0.247965 -1.302734,-0.09375 z"
       id="path65" />
    <path
       style="color:#000000;fill:#000000;stroke-linecap:round;-inkscape-stroke:none"
       d="m 10.652344,59.082031 c -0.370999,0.05046 -0.513657,0.201853 -0.609375,0.289063 -0.1914365,0.17442 -0.2363708,0.270771 -0.3125002,0.392578 -0.3045193,0.48723 -0.7164415,1.325005 -0.9882813,1.791015 -0.2718402,0.466012 -0.3304489,0.472242 -0.5390625,0.785157 -0.039038,0.05855 -0.044291,0.08797 -0.072266,0.142578 -0.092091,0.06837 -0.1787856,0.124098 -0.2792969,0.224609 -0.3202663,0.320267 -0.6530817,0.748481 -1.0058594,1.189453 A 1.0583349,1.0583349 0 0 0 7.0117187,65.384766 1.0583349,1.0583349 0 0 0 8.5,65.21875 c 0.3527777,-0.440972 0.7269506,-0.892966 0.8476563,-1.013672 0.060352,-0.06035 0.05512,-0.05065 0.039063,-0.04102 -0.016057,0.0096 0.040996,0.04689 0.3125,-0.224609 0.2715213,-0.271518 0.2832204,-0.450566 0.2929687,-0.476562 0.00975,-0.026 -0.011224,0.0266 -0.027344,0.05078 -0.00369,0.0055 0.065862,-0.09693 0.070312,-0.101563 0.0066,0.322867 0.01953,0.407389 0.01953,1.101563 v 5.335937 a 1.0583349,1.0583349 0 0 0 1.058593,1.058594 1.0583349,1.0583349 0 0 0 1.056641,-1.058594 v -5.335937 c 0,-1.278819 0.0095,-1.808989 -0.05078,-2.291016 -0.06025,-0.482027 -0.155547,-0.688433 -0.179688,-0.857422 -0.02414,-0.168989 -0.0332,-0.599522 -0.0332,-0.908203 0,-0.07717 0.0011,-0.156957 -0.0059,-0.267578 -0.007,-0.11062 0.09983,-0.216093 -0.21875,-0.662109 -0.159293,-0.223008 -0.658298,-0.495771 -1.029297,-0.445313 z"
       id="path66" />
    <path
       style="color:#000000;fill:#000000;stroke-linecap:round;-inkscape-stroke:none"
       d="m 20.210937,59.115234 c 0,0 -0.06055,0.05664 -0.06055,0.05664 -4.9e-5,6.2e-5 -0.208928,0.298706 -0.208985,0.298828 -5.7e-5,1.22e-4 -0.03509,0.08771 -0.03516,0.08789 -1.32e-4,3.64e-4 -0.01961,0.05691 -0.02344,0.07031 -0.03064,0.107227 -0.01157,0.04146 -0.0098,0.03516 0.0036,-0.01262 0.0067,-0.01336 -0.0059,0.01172 -0.02509,0.05018 -0.255027,0.378362 -0.410156,0.84375 -0.155128,0.465387 -0.220266,0.768659 -0.11914,0.566406 0.101129,-0.202261 0.04193,-0.210359 -0.28711,0.283204 -0.329035,0.493554 -0.266253,0.794155 -0.289062,0.908203 -0.02281,0.114045 -0.09931,0.358464 -0.1875,0.623047 a 1.0583349,1.0583349 0 0 0 0.669922,1.339843 1.0583349,1.0583349 0 0 0 0.599609,-0.04297 v 6.447265 a 1.0583349,1.0583349 0 0 0 1.058594,1.056641 1.0583349,1.0583349 0 0 0 1.058593,-1.056641 v -7.541015 -2.601563 -0.574219 c 0,-0.0055 -0.0076,-0.131348 -0.0078,-0.132812 -2.2e-5,-1.83e-4 -0.0195,-0.109254 -0.01953,-0.109375 -2.8e-5,-1.21e-4 -0.109342,-0.28705 -0.109375,-0.28711 0,0 -0.06445,-0.09961 -0.06445,-0.09961 0,0 -0.101563,-0.123047 -0.101563,-0.123047 0,0 -0.755859,0.740235 -0.755859,0.740235 z"
       id="path67" />
    <path
       style="color:#000000;fill:#000000;stroke-linecap:round;-inkscape-stroke:none"
       d="m 27.933594,27.136719 c -0.03191,0 -0.03023,-0.01548 -0.248047,0.01563 -0.216945,0.03099 -0.848832,0.361911 -0.353516,0.113281 0.250229,-0.125605 0.249617,-0.0878 0.203125,-0.07617 -0.04649,0.01163 -0.146377,0.04095 -0.240234,0.08789 -0.187265,0.09365 -0.154788,0.09111 -0.142578,0.08398 0.01221,-0.0071 -0.03833,0.01876 -0.01367,0.0078 -0.01083,0.0041 -0.0044,-0.0011 -0.0293,0.0098 -0.03119,0.01357 -0.13423,0.07193 -0.134766,0.07227 -5.36e-4,3.32e-4 -0.192959,0.151943 -0.193359,0.152344 -5.9e-5,5.8e-5 -0.01737,0.02064 -0.02148,0.02539 0.01203,-0.01386 0.09007,-0.09398 -0.01758,0.01367 -0.175632,0.175651 -0.04925,0.04772 0.0098,-0.0039 0.05899,-0.05161 -0.03923,0.02821 -0.138672,0.117187 -0.09944,0.08898 -0.18273,0.172242 -0.201172,0.189453 -0.0411,0.02728 -0.05718,0.03422 -0.101562,0.07227 -0.08526,0.0731 -0.04356,0.03949 -0.04297,0.03906 5.84e-4,-4.22e-4 -0.08102,0.05141 -0.173828,0.113281 -0.0928,0.06187 -0.169765,0.116019 -0.134766,0.09375 0.03493,-0.02223 0.06925,-0.04302 -0.0293,0.01172 -0.0986,0.05477 -0.136732,0.08139 -0.0957,0.05859 0.04097,-0.02276 0.01572,-0.02482 -0.138672,0.07813 -0.154387,0.102942 -0.134378,0.09083 -0.03906,0.03125 0.0955,-0.05969 0.0048,-0.0083 -0.103516,0.05664 -0.10827,0.06497 -0.202731,0.129127 -0.240234,0.152344 -0.03751,0.02322 -0.02862,0.01178 -0.134766,0.07813 -0.10626,0.06641 -0.0727,0.03005 0.08398,-0.03711 0.156466,-0.06706 0.154949,-0.04936 0.123047,-0.04297 a 1.0583349,1.0583349 0 0 0 -0.830079,1.246093 1.0583349,1.0583349 0 0 0 1.246094,0.830078 c 0.0319,-0.0064 0.0938,-0.0017 0.294922,-0.08789 0.201347,-0.0863 0.260296,-0.147791 0.205078,-0.113281 -0.05511,0.03444 0.03046,-0.01449 0.126953,-0.07422 0.09649,-0.05973 0.193558,-0.123165 0.212891,-0.134766 0.01931,-0.01158 -0.0079,0.01348 0.138672,-0.07813 0.146367,-0.09149 0.20594,-0.141864 0.08984,-0.06445 -0.116097,0.07741 -0.104259,0.06444 -0.0059,0.0098 0.09846,-0.05471 0.136868,-0.07951 0.0957,-0.05664 -0.04112,0.02284 0.03159,-0.01123 0.136719,-0.07813 0.07396,-0.04706 0.09272,-0.06152 0.121094,-0.08203 0.0065,0.107127 0.01139,0.19491 0.01953,0.302734 0.01449,0.192007 0.02788,0.299368 0.03125,0.351563 0.0034,0.0522 0.0043,0.15519 0.01367,0.300781 0.0094,0.145593 0.01911,0.219603 0.02344,0.310547 0.0043,0.09095 0.0061,0.241044 0,0.484375 -0.0061,0.243331 -0.01873,0.57983 -0.02539,0.816406 -0.0067,0.236577 -0.0093,0.379113 -0.0098,0.388672 -4.55e-4,0.0095 -0.0091,0.05926 -0.01367,0.197266 -0.0046,0.138041 -0.0041,0.309899 -0.0059,0.363281 -0.0018,0.05347 -0.0035,0.0044 -0.01172,0.126953 -0.0068,0.101752 -0.0047,0.137047 -0.0039,0.142578 -0.01013,0.04733 -0.02117,0.09187 -0.03125,0.152344 -0.01432,0.08595 -0.0419,0.255926 -0.05469,0.464844 -0.01279,0.208918 -0.01177,0.419694 -0.01367,0.480468 -0.0019,0.06076 0.0015,-0.03771 -0.0098,0.09766 -0.01129,0.135354 -0.0079,0.132066 -0.0059,0.117187 0.002,-0.01487 -0.03044,0.145886 -0.04492,0.353516 -0.01449,0.207637 -0.01367,0.409622 -0.01367,0.607422 a 1.0583349,1.0583349 0 0 0 1.058594,1.058593 1.0583349,1.0583349 0 0 0 1.058593,-1.058593 c 0,-0.1978 0.0032,-0.392255 0.0078,-0.458985 0.0047,-0.06674 0.01008,-0.0596 0.03125,-0.214844 0.02117,-0.15526 0.02248,-0.287298 0.01758,-0.228515 -0.0049,0.05879 0.01114,-0.06362 0.01563,-0.207031 0.0045,-0.143401 0.0054,-0.314238 0.01172,-0.417969 0.0064,-0.103732 0.0181,-0.178903 0.0293,-0.246094 0.0112,-0.06719 0.01153,-0.06563 0.0078,-0.05078 -0.0037,0.01477 0.03674,-0.154807 0.04492,-0.277344 0.0082,-0.122731 0.0096,-0.200798 0.0078,-0.173828 -0.0018,0.02687 0.0091,-0.0593 0.01367,-0.197266 0.0046,-0.138055 0.0041,-0.309891 0.0059,-0.363281 0.0018,-0.05343 0.0077,-0.04353 0.01367,-0.167969 0.0059,-0.124428 0.0037,-0.211286 0.0098,-0.427734 0.0061,-0.216448 0.01871,-0.5571 0.02539,-0.824219 0.0067,-0.267118 0.0084,-0.461633 0,-0.638672 -0.0084,-0.17704 -0.02398,-0.293496 -0.02734,-0.345703 -0.0034,-0.05221 -0.0043,-0.153224 -0.01367,-0.298828 -0.0094,-0.145603 -0.02022,-0.230787 -0.03125,-0.376953 -0.01103,-0.146166 -0.02335,-0.379727 -0.03516,-0.537109 -0.01181,-0.157383 -0.03357,-0.298186 -0.02344,-0.207032 0.01013,0.09114 0.0033,-8.36e-4 -0.0039,-0.130859 -0.0072,-0.13002 -0.02006,-0.313264 -0.0293,-0.460938 -0.0092,-0.147673 -0.0096,-0.245115 -0.03516,-0.423828 -0.02557,-0.178933 -0.196048,-0.595663 -0.09375,-0.339843 0.101987,0.25504 -0.0014,-0.06211 -0.117187,-0.244141 -0.115968,-0.182283 -0.138847,-0.216547 -0.332032,-0.371094 -0.193068,-0.154454 -0.712229,-0.257812 -0.74414,-0.257812 z m 0.564453,1.640625 c 0.01015,-0.02361 0.01009,-0.01846 -0.01563,0.03516 -0.01286,0.02681 -0.0343,0.06559 -0.06641,0.115234 -0.02807,0.0434 -0.100358,0.126436 -0.121094,0.150391 0.103953,-0.118832 0.185072,-0.258764 0.203125,-0.300781 z"
       id="path68" />
  </g>
</svg>
