<?xml version="1.0" encoding="UTF-8" standalone="no"?>
<!-- Created with Inkscape (http://www.inkscape.org/) -->

<svg
   width="300"
   height="300"
   viewBox="0 0 300 300"
   version="1.1"
   id="svg1"
   inkscape:version="1.3.2 (091e20e, 2023-11-25, custom)"
   sodipodi:docname="hicn0.5.svg"
   xmlns:inkscape="http://www.inkscape.org/namespaces/inkscape"
   xmlns:sodipodi="http://sodipodi.sourceforge.net/DTD/sodipodi-0.dtd"
   xmlns="http://www.w3.org/2000/svg"
   xmlns:svg="http://www.w3.org/2000/svg">
  <sodipodi:namedview
     id="namedview1"
     pagecolor="#ffffff"
     bordercolor="#000000"
     borderopacity="0.25"
     inkscape:showpageshadow="2"
     inkscape:pageopacity="0.0"
     inkscape:pagecheckerboard="0"
     inkscape:deskcolor="#d1d1d1"
     inkscape:document-units="px"
     inkscape:zoom="2"
     inkscape:cx="177.5"
     inkscape:cy="150.25"
     inkscape:window-width="1366"
     inkscape:window-height="705"
     inkscape:window-x="-8"
     inkscape:window-y="-8"
     inkscape:window-maximized="1"
     inkscape:current-layer="layer1" />
  <defs
     id="defs1">
    <inkscape:path-effect
       effect="bspline"
       id="path-effect24"
       is_visible="true"
       lpeversion="1.3"
       weight="33.333333"
       steps="2"
       helper_size="0"
       apply_no_weight="true"
       apply_with_weight="true"
       only_selected="false"
       uniform="false" />
    <inkscape:path-effect
       effect="bspline"
       id="path-effect23"
       is_visible="true"
       lpeversion="1.3"
       weight="33.333333"
       steps="2"
       helper_size="0"
       apply_no_weight="true"
       apply_with_weight="true"
       only_selected="false"
       uniform="false" />
    <inkscape:path-effect
       effect="bspline"
       id="path-effect22"
       is_visible="true"
       lpeversion="1.3"
       weight="33.333333"
       steps="2"
       helper_size="0"
       apply_no_weight="true"
       apply_with_weight="true"
       only_selected="false"
       uniform="false" />
    <inkscape:path-effect
       effect="bspline"
       id="path-effect21"
       is_visible="true"
       lpeversion="1.3"
       weight="33.333333"
       steps="2"
       helper_size="0"
       apply_no_weight="true"
       apply_with_weight="true"
       only_selected="false"
       uniform="false" />
    <inkscape:path-effect
       effect="bspline"
       id="path-effect20"
       is_visible="true"
       lpeversion="1.3"
       weight="33.333333"
       steps="2"
       helper_size="0"
       apply_no_weight="true"
       apply_with_weight="true"
       only_selected="false"
       uniform="false" />
    <inkscape:path-effect
       effect="bspline"
       id="path-effect19"
       is_visible="true"
       lpeversion="1.3"
       weight="33.333333"
       steps="2"
       helper_size="0"
       apply_no_weight="true"
       apply_with_weight="true"
       only_selected="false"
       uniform="false" />
    <inkscape:path-effect
       effect="bspline"
       id="path-effect18"
       is_visible="true"
       lpeversion="1.3"
       weight="33.333333"
       steps="2"
       helper_size="0"
       apply_no_weight="true"
       apply_with_weight="true"
       only_selected="false"
       uniform="false" />
    <inkscape:path-effect
       effect="bspline"
       id="path-effect17"
       is_visible="true"
       lpeversion="1.3"
       weight="33.333333"
       steps="2"
       helper_size="0"
       apply_no_weight="true"
       apply_with_weight="true"
       only_selected="false"
       uniform="false" />
    <inkscape:path-effect
       effect="bspline"
       id="path-effect16"
       is_visible="true"
       lpeversion="1.3"
       weight="33.333333"
       steps="2"
       helper_size="0"
       apply_no_weight="true"
       apply_with_weight="true"
       only_selected="false"
       uniform="false" />
    <inkscape:path-effect
       effect="bspline"
       id="path-effect15"
       is_visible="true"
       lpeversion="1.3"
       weight="33.333333"
       steps="2"
       helper_size="0"
       apply_no_weight="true"
       apply_with_weight="true"
       only_selected="false"
       uniform="false" />
    <inkscape:path-effect
       effect="bspline"
       id="path-effect14"
       is_visible="true"
       lpeversion="1.3"
       weight="33.333333"
       steps="2"
       helper_size="0"
       apply_no_weight="true"
       apply_with_weight="true"
       only_selected="false"
       uniform="false" />
    <inkscape:path-effect
       effect="bspline"
       id="path-effect13"
       is_visible="true"
       lpeversion="1.3"
       weight="33.333333"
       steps="2"
       helper_size="0"
       apply_no_weight="true"
       apply_with_weight="true"
       only_selected="false"
       uniform="false" />
  </defs>
  <g
     inkscape:label="Layer 1"
     inkscape:groupmode="layer"
     id="layer1">
    <path
       id="path5"
       style="color:#000000;fill:#000000;stroke-linecap:round;stroke-linejoin:round;-inkscape-stroke:none"
       d="M 97.605469 128.00195 C 78.60446 127.85582 59.669694 134.90563 45.138672 148.81641 C 19.305742 173.54667 14.533337 213.12921 33.748047 243.29102 C 52.962756 273.45282 90.85342 285.85626 124.18359 272.89453 C 157.51377 259.93281 177.07126 225.18989 170.86133 189.9707 A 3.000295 3.000295 0 0 0 167.38477 187.53711 L 103.61328 198.78125 L 140.75586 145.73438 A 3.000295 3.000295 0 0 0 140.01953 141.55664 C 127.2033 132.5824 112.38403 128.11561 97.605469 128.00195 z M 97.195312 133.98633 C 109.94693 134.03234 122.73143 137.64622 134.04297 144.85938 L 94.542969 201.27344 A 3.000295 3.000295 0 0 0 97.521484 205.94727 L 165.34375 193.98828 C 169.49046 225.38219 151.76371 255.73102 122.00781 267.30273 C 91.311125 279.24032 56.503218 267.84711 38.806641 240.06836 C 21.110062 212.2896 25.495243 175.92672 49.287109 153.15039 C 61.183042 141.76223 76.260295 135.3696 91.736328 134.18555 C 93.552237 134.04661 95.373653 133.97976 97.195312 133.98633 z M 85.962891 149.00195 A 3 3 0 0 0 83.214844 150.88672 L 72.794922 176.93555 L 46.714844 189.28906 A 3 3 0 0 0 45.289062 193.28516 A 3 3 0 0 0 49.285156 194.71094 L 69.519531 185.12695 L 59.214844 210.88672 A 3 3 0 0 0 60.886719 214.78516 A 3 3 0 0 0 64.785156 213.11328 L 77.490234 181.35156 L 106.28516 167.71094 A 3 3 0 0 0 107.71094 163.71484 A 3 3 0 0 0 103.71484 162.28906 L 80.767578 173.16016 L 88.785156 153.11328 A 3 3 0 0 0 87.113281 149.21484 A 3 3 0 0 0 85.962891 149.00195 z " />
    <path
       id="path10"
       style="color:#000000;fill:#000000;stroke-linecap:round;stroke-linejoin:round;-inkscape-stroke:none"
       d="M 188.30078 22.779297 C 187.86861 22.741877 187.42464 22.762952 186.97852 22.857422 C 185.19401 23.23519 183.91951 24.684786 183.32617 25.980469 C 182.73283 27.276149 182.50947 28.597384 182.37109 30.019531 C 182.09434 32.863832 182.25811 36.154359 182.41016 39.421875 C 182.56217 42.68939 182.71028 45.925654 182.53711 48.240234 C 182.45781 49.299807 182.29163 50.07282 182.13672 50.5625 C 181.66913 50.349136 180.98256 49.953802 180.14258 49.302734 C 178.3071 47.880082 175.99727 45.603226 173.67188 43.300781 C 171.34646 40.998338 169.01513 38.673506 166.7168 36.972656 C 165.56761 36.122234 164.43629 35.400928 163.07617 34.972656 C 161.71603 34.54439 159.78509 34.519602 158.30859 35.589844 C 156.83213 36.660086 156.2548 38.503016 156.24023 39.927734 C 156.22573 41.352454 156.5611 42.648535 157.01367 44.003906 C 157.91879 46.714655 159.40977 49.653055 160.87891 52.576172 C 162.34803 55.499287 163.79795 58.397262 164.58203 60.582031 C 164.94082 61.581814 165.10418 62.354903 165.16211 62.865234 C 164.64821 62.860534 163.85944 62.779003 162.82617 62.525391 C 160.57012 61.971649 157.53644 60.830219 154.47461 59.671875 C 151.41279 58.513531 148.33318 57.336566 145.54102 56.716797 C 144.14492 56.406911 142.81929 56.207667 141.40234 56.369141 C 139.98543 56.53061 138.21004 57.29343 137.29688 58.871094 C 136.38368 60.448754 136.60712 62.366415 137.17383 63.673828 C 137.74054 64.981241 138.57577 66.027791 139.54102 67.082031 C 141.47148 69.190511 144.02832 71.270464 146.56055 73.34375 C 149.09275 75.417035 151.59541 77.477109 153.20117 79.154297 C 153.93644 79.922268 154.40551 80.55934 154.66602 81.001953 C 154.19483 81.206555 153.43869 81.452273 152.39062 81.640625 C 150.10412 82.051545 146.86644 82.243641 143.59766 82.429688 C 140.32884 82.615736 137.03565 82.788939 134.23242 83.357422 C 132.83081 83.641659 131.54126 84.001315 130.3125 84.724609 C 129.08374 85.447906 127.77207 86.865446 127.58008 88.677734 C 127.38809 90.490024 128.37382 92.151195 129.42383 93.115234 C 130.47384 94.079276 131.66163 94.694808 132.97266 95.265625 C 135.59469 96.407263 138.77614 97.267847 141.93359 98.132812 C 145.09106 98.997781 148.21934 99.860635 150.36914 100.74023 C 151.3529 101.14274 152.03866 101.53946 152.45703 101.83789 C 152.10947 102.21628 151.51834 102.74658 150.63867 103.34375 C 148.71703 104.64828 145.83832 106.13845 142.92773 107.63672 C 140.01716 109.13499 137.08151 110.63455 134.75195 112.29297 C 133.58718 113.12218 132.55077 113.97276 131.72266 115.13281 C 130.89454 116.29287 130.27353 118.11996 130.83594 119.85352 C 131.39835 121.58705 132.9764 122.70227 134.32812 123.15625 C 135.67986 123.61023 137.01714 123.69295 138.44727 123.68164 C 141.30749 123.65904 144.56402 123.15111 147.80078 122.6582 C 151.03754 122.16528 154.24428 121.68335 156.56641 121.61328 C 157.62922 121.58118 158.41821 121.66498 158.92188 121.76758 C 158.75834 122.2545 158.43735 122.97809 157.87695 123.88086 C 156.65245 125.85344 154.62529 128.38607 152.57617 130.9375 C 150.52706 133.48893 148.45503 136.0501 147.00195 138.51172 C 146.2754 139.74253 145.67686 140.93971 145.39258 142.33594 C 145.1083 143.73217 145.28435 145.65469 146.50391 147.00977 C 147.44481 148.05521 148.78374 148.51153 150 148.60742 L 150 172.8125 A 3.0003 3.0003 0 0 0 154.5 175.41211 L 171.81641 165.41406 C 171.83746 165.42385 171.85176 165.44169 171.87305 165.45117 C 173.53889 166.19346 175.4257 165.77019 176.66797 165.07031 C 177.91026 164.37044 178.86582 163.43265 179.81445 162.36328 C 180.58132 161.49882 181.33015 160.51667 182.07227 159.49219 L 184.65039 158.00391 A 3.0003 3.0003 0 0 0 185.80078 154.00586 C 187.43115 151.5348 189.03807 149.13218 190.40234 147.52344 C 191.08991 146.71267 191.68034 146.18606 192.09375 145.88086 C 192.34647 146.32814 192.66842 147.05048 192.96484 148.07031 C 193.61267 150.29922 194.13947 153.49618 194.66602 156.72461 C 195.19259 159.95305 195.71167 163.20583 196.57031 165.93164 C 196.99962 167.29455 197.48956 168.54032 198.33789 169.68555 C 199.18621 170.83078 200.73453 171.98518 202.55859 171.98633 C 204.38268 171.98733 205.9332 170.83556 206.7832 169.69141 C 207.6332 168.54726 208.12338 167.30181 208.55469 165.93945 C 209.41729 163.21475 209.94333 159.96211 210.47461 156.73438 C 211.00589 153.50661 211.53641 150.31011 212.1875 148.08203 C 212.48562 147.06182 212.80907 146.33932 213.0625 145.89258 C 213.47548 146.19849 214.06405 146.72793 214.75 147.53906 C 216.24927 149.31193 218.03467 152.01869 219.83008 154.75391 C 221.62548 157.4891 223.42226 160.24951 225.31641 162.39062 C 226.26348 163.46118 227.21775 164.40207 228.45898 165.10352 C 229.70022 165.80493 231.58503 166.22846 233.25195 165.48828 C 234.91888 164.7481 235.867 163.06638 236.17773 161.67578 C 236.48848 160.28519 236.43214 158.94713 236.27148 157.52734 C 235.95028 154.68778 235.10212 151.50431 234.27344 148.33984 C 233.44474 145.17539 232.63061 142.04017 232.31836 139.74023 C 232.17534 138.68702 232.17687 137.89387 232.22656 137.38281 C 232.72828 137.49426 233.47992 137.7406 234.4375 138.20312 C 236.52896 139.21339 239.25989 140.96141 242.01367 142.73047 C 244.76747 144.49953 247.53652 146.28838 250.13867 147.47461 C 251.43974 148.06773 252.69372 148.53941 254.11328 148.67578 C 255.53283 148.81216 257.42689 148.43362 258.64844 147.08008 C 259.86998 145.72655 260.05176 143.80479 259.76953 142.4082 C 259.48729 141.01161 258.8888 139.81181 258.16406 138.58008 C 256.71458 136.11663 254.64694 133.55204 252.60156 130.99805 C 250.55617 128.44403 248.53409 125.90964 247.3125 123.93555 C 246.75392 123.03289 246.43262 122.31146 246.26953 121.82422 C 246.77347 121.72229 247.5608 121.63849 248.62305 121.67188 C 250.94504 121.74485 254.15268 122.2315 257.38867 122.72852 C 260.62471 123.22553 263.88199 123.73745 266.74219 123.76367 C 268.17231 123.77677 269.50893 123.69637 270.86133 123.24414 C 272.21374 122.79187 273.79054 121.6762 274.35547 119.94336 C 274.92041 118.21051 274.30296 116.38181 273.47656 115.2207 C 272.65014 114.0596 271.61668 113.20568 270.45312 112.375 C 268.12604 110.71363 265.19354 109.21484 262.28516 107.71289 C 259.37676 106.21094 256.49785 104.71516 254.57812 103.4082 C 253.69982 102.81024 253.11084 102.28117 252.76367 101.90234 C 253.18254 101.60445 253.86935 101.20783 254.85352 100.80664 C 257.00457 99.92976 260.13034 99.071908 263.28906 98.210938 C 266.44779 97.349965 269.63411 96.493788 272.25781 95.355469 C 273.56968 94.786307 274.75717 94.169743 275.80859 93.207031 C 276.86 92.24432 277.84755 90.584016 277.6582 88.771484 C 277.4689 86.958953 276.1613 85.537348 274.93359 84.8125 C 273.70589 84.087652 272.41486 83.733274 271.01367 83.447266 C 268.21128 82.87525 264.91695 82.694087 261.64844 82.503906 C 258.3799 82.313725 255.14335 82.118892 252.85742 81.705078 C 251.81148 81.515732 251.0573 81.2714 250.58594 81.066406 C 250.84714 80.624113 251.31259 79.981741 252.04883 79.214844 C 253.65705 77.539686 256.16591 75.486096 258.70117 73.416016 C 261.23643 71.345934 263.79493 69.268145 265.72852 67.162109 C 266.69526 66.109092 267.53098 65.060601 268.09961 63.753906 C 268.66823 62.447213 268.89721 60.531939 267.98633 58.953125 C 267.07544 57.374312 265.30145 56.608577 263.88477 56.445312 C 262.46806 56.28205 261.14068 56.480955 259.74414 56.789062 C 256.95103 57.4053 253.87211 58.577953 250.80859 59.732422 C 247.74511 60.886892 244.70608 62.025284 242.44922 62.576172 C 241.41615 62.82834 240.62924 62.911821 240.11523 62.916016 C 240.17383 62.405847 240.33683 61.630704 240.69727 60.630859 C 241.48451 58.447085 242.94065 55.548208 244.41406 52.626953 C 245.88748 49.705698 247.38194 46.770145 248.29102 44.060547 C 248.74556 42.705747 249.08085 41.411066 249.06836 39.986328 C 249.05586 38.56159 248.48274 36.718594 247.00781 35.646484 C 245.53288 34.574376 243.60098 34.596888 242.24023 35.023438 C 240.8795 35.449986 239.75002 36.168611 238.59961 37.017578 C 236.29875 38.715515 233.9616 41.038389 231.63281 43.337891 C 229.30404 45.637389 226.99186 47.911702 225.1543 49.332031 C 224.31291 49.98238 223.62606 50.377221 223.1582 50.589844 C 223.00405 50.099914 222.83945 49.325069 222.76172 48.265625 C 222.59194 45.950821 222.74162 42.714582 222.89844 39.447266 C 223.05524 36.179945 223.2257 32.889569 222.95312 30.044922 C 222.8169 28.622593 222.59535 27.300337 222.00391 26.003906 C 221.41247 24.707476 220.13744 23.256979 218.35352 22.876953 C 216.56958 22.49693 214.81559 23.303487 213.74609 24.246094 C 212.67657 25.188702 211.93586 26.305803 211.23047 27.548828 C 209.8197 30.034879 208.63082 33.105416 207.43945 36.152344 C 206.24806 39.199272 205.06341 42.217534 203.96289 44.261719 C 203.45946 45.196816 202.99318 45.834118 202.65234 46.21875 C 202.31204 45.833932 201.84428 45.196283 201.3418 44.259766 C 200.24427 42.214191 199.06388 39.194916 197.87695 36.146484 C 196.69004 33.09805 195.50476 30.024943 194.09766 27.537109 C 193.39408 26.293196 192.65407 25.176383 191.58594 24.232422 C 190.78484 23.524454 189.59731 22.891549 188.30078 22.779297 z " />
    <path
       id="path14"
       style="color:#000000;fill:#ff0000;stroke-linecap:round;stroke-linejoin:round;-inkscape-stroke:none"
       d="M 166.85156 78.53125 A 2 2 0 0 0 164.53125 80.148438 C 163.69792 84.815095 162.86377 89.483864 162.28906 92.357422 C 161.71435 95.23098 161.38965 96.32618 161.19336 97.503906 C 160.99707 98.681632 161.02048 99.378565 160.5332 102.05859 C 160.04592 104.73863 159.04492 109.41341 158.04492 114.08008 A 2 2 0 0 0 159.58008 116.45508 A 2 2 0 0 0 161.95508 114.91992 C 162.95508 110.25327 163.95408 105.59535 164.4668 102.77539 C 164.75484 101.19117 164.88302 100.2186 164.96875 99.5 L 178.78125 99.5 C 178.59083 100.1398 178.3771 100.79521 178.16406 101.51953 C 177.72104 103.02582 177.38459 104.54853 177.06836 105.73438 C 176.75213 106.92021 176.4217 107.88063 176.24414 108.29492 C 176.06658 108.70923 175.81104 109.07469 175.43555 110.20117 C 175.06005 111.32766 174.57031 113.14128 174.07031 114.97461 A 2 2 0 0 0 175.47461 117.42969 A 2 2 0 0 0 177.92969 116.02539 C 178.42969 114.19206 178.9393 112.33835 179.23047 111.46484 C 179.52164 110.59133 179.59944 110.62346 179.92188 109.87109 C 180.24432 109.11872 180.5812 108.07976 180.93164 106.76562 C 181.28208 105.45148 181.61165 103.97548 182.00195 102.64844 C 182.39226 101.3214 182.93752 99.880757 183.22461 98.0625 C 183.5117 96.244243 183.5161 94.401438 183.72266 93.162109 C 183.92921 91.922781 184.36492 90.929535 184.67969 89.775391 C 184.99445 88.621246 185.00037 87.96034 185.16602 87.408203 C 185.33166 86.856068 185.84873 85.82289 186.17969 84.609375 C 186.51065 83.39586 186.5 82.333331 186.5 81.5 A 2 2 0 0 0 184.5 79.5 A 2 2 0 0 0 182.5 81.5 C 182.5 82.333331 182.4894 82.936825 182.32031 83.556641 C 182.15127 84.176455 181.66834 85.143285 181.33398 86.257812 C 180.99963 87.37234 181.00555 88.045424 180.82031 88.724609 C 180.63508 89.403795 180.07079 90.743242 179.77734 92.503906 C 179.60809 93.519472 179.53673 94.545569 179.4668 95.5 L 165.71484 95.5 C 165.85725 94.852642 166.01624 94.116051 166.21094 93.142578 C 166.80289 90.182815 167.63542 85.51822 168.46875 80.851562 A 2 2 0 0 0 166.85156 78.53125 z M 249 79 A 2 2 0 0 0 247 81 C 247 83.333329 246.99802 85.66419 246.91992 87.144531 C 246.84202 88.624874 246.67575 89.439978 246.58594 90.966797 C 246.49614 92.493615 246.48884 94.483864 246.34766 95.683594 C 246.20651 96.883323 245.93596 97.487419 245.71484 98.482422 C 245.49373 99.477422 245.48316 100.15331 245.39258 100.51562 C 245.30198 100.87793 244.89749 101.79181 244.61328 103.40234 C 244.32907 105.01288 244.17253 107.17905 244.00586 109.3457 A 2 2 0 0 0 245.8457 111.49414 A 2 2 0 0 0 247.99414 109.6543 C 248.16081 107.48763 248.33695 105.32045 248.55273 104.09766 C 248.76852 102.87486 249.03068 102.45539 249.27344 101.48438 C 249.51619 100.51335 249.50692 99.854606 249.61914 99.349609 C 249.73136 98.844617 250.12812 97.783988 250.32031 96.150391 C 250.5125 94.516794 250.50322 92.507682 250.58008 91.201172 C 250.65688 89.894662 250.82531 89.041787 250.91406 87.355469 C 251.00284 85.66915 251 83.333329 251 81 A 2 2 0 0 0 249 79 z M 197.5 88 A 2 2 0 0 0 196.08594 88.585938 L 195.58594 89.085938 A 2 2 0 0 0 195.58594 91.914062 A 2 2 0 0 0 198.41406 91.914062 L 198.91406 91.414062 A 2 2 0 0 0 198.91406 88.585938 A 2 2 0 0 0 197.5 88 z M 194.41406 99.501953 A 2 2 0 0 0 192.54688 101.06641 C 191.88022 104.06639 191.21338 107.06114 190.86328 109.07422 C 190.51318 111.0873 190.48953 112.12282 190.43164 112.58594 C 190.37374 113.04906 190.27018 113.36719 190.10352 113.86719 A 2 2 0 0 0 191.36719 116.39648 A 2 2 0 0 0 193.89648 115.13281 C 194.06315 114.63281 194.29161 113.95224 194.40039 113.08203 C 194.50917 112.21182 194.48809 111.58001 194.80469 109.75977 C 195.12125 107.93951 195.78647 104.93359 196.45312 101.93359 A 2 2 0 0 0 194.93359 99.546875 A 2 2 0 0 0 194.41406 99.501953 z M 212.01172 101 C 211.03778 101.00064 210.11972 101.01163 209.36328 101.0957 C 208.58234 101.18248 207.9178 101.43945 207.77344 101.51172 C 207.74983 101.51631 207.742 101.51803 207.70703 101.52344 C 207.55638 101.54664 207.33186 101.51444 206.77148 101.79492 C 206.35531 102.00301 206.15116 102.36551 205.95508 102.66992 C 205.79035 102.70232 205.29385 102.78481 204.58789 103.28906 C 203.71132 103.91518 202.91345 104.75053 202.44922 105.14844 C 202.2171 105.34739 201.89348 105.55449 201.49805 106.04297 C 201.10261 106.53145 200.82071 107.22435 200.69922 107.89258 C 200.45623 109.22902 200.45623 110.77098 200.69922 112.10742 C 200.94221 113.44388 201.88641 114.46053 201.81641 114.36719 C 201.74641 114.27389 201.94722 114.94331 202.75195 115.74805 C 203.29094 116.28703 203.69626 116.55222 203.80078 116.5625 C 203.84162 116.71506 203.91294 116.90903 204.25195 117.24805 C 204.8067 117.8028 205.27649 117.86834 205.4707 117.92383 C 205.54969 117.9464 205.58202 117.95702 205.60742 117.96484 C 205.72712 118.05794 206.6022 118.59671 207.72461 118.80078 C 209.01905 119.0361 210.5 119 212 119 A 2 2 0 0 0 214 117 A 2 2 0 0 0 212 115 C 210.5 115 208.98027 114.9632 208.44141 114.86523 C 207.90256 114.76723 208.2049 114.78213 207.39453 114.37695 C 207.21221 114.28575 207.15909 114.28795 207.02344 114.24219 C 206.91374 114.03971 206.8923 113.89816 206.66406 113.66992 C 206.07039 113.07624 205.727 112.88396 205.60547 112.86133 C 205.54388 112.72386 205.36118 112.42533 205.01758 111.9668 C 204.75027 111.61038 204.67222 111.57237 204.65234 111.58008 C 204.65608 111.55993 204.65618 111.51039 204.63477 111.39258 C 204.54437 110.89569 204.54437 109.10431 204.63477 108.60742 C 204.64655 108.54267 204.64197 108.55648 204.64453 108.53711 C 204.7039 108.487 204.83003 108.37477 205.05078 108.18555 C 205.75321 107.58346 206.62202 106.75213 206.91211 106.54492 C 207.20219 106.33772 206.79285 106.56642 207.54883 106.31445 C 208.02832 106.15462 208.28308 105.75388 208.59961 105.41406 C 208.73069 105.39296 208.81756 105.39155 209.04883 105.31445 C 209.80476 105.06247 209.31325 105.12492 209.80469 105.07031 C 210.29616 105.01573 211.66667 105 213 105 A 2 2 0 0 0 215 103 A 2 2 0 0 0 213 101 C 212.66667 101 212.33637 100.99979 212.01172 101 z M 224.09375 101.5293 C 223.93448 101.52426 223.77411 101.52586 223.61133 101.5332 C 222.96021 101.5626 222.28084 101.69333 221.56641 101.95312 C 220.13755 102.4727 219.15366 103.49705 218.50195 104.47461 C 217.85024 105.45218 217.37188 106.71601 217.17969 108.34961 C 216.9875 109.98321 216.99298 111.97992 217.08789 113.30859 C 217.18279 114.63728 217.40742 115.28046 217.44336 115.49609 C 217.47926 115.71173 217.5 116.33333 217.5 117 A 2 2 0 0 0 219.5 119 A 2 2 0 0 0 221.5 117 C 221.5 116.33333 221.5194 115.62225 221.38867 114.83789 C 221.25794 114.05352 221.14988 114.02808 221.07812 113.02344 C 221.00633 112.0188 221.01124 110.01614 221.15234 108.81641 C 221.29349 107.61668 221.48179 107.21579 221.83008 106.69336 C 222.17837 106.17093 222.52912 105.85997 222.93359 105.71289 C 223.32764 105.56961 224.31493 105.57419 224.49023 105.60547 C 224.47813 105.70602 224.53081 106.21152 224.58594 107.42383 C 224.67004 109.27364 224.83529 112.4388 225.00195 115.60547 A 2 2 0 0 0 227.10547 117.49805 A 2 2 0 0 0 228.99805 115.39453 C 228.83138 112.22786 228.66462 109.05904 228.58203 107.24219 C 228.49943 105.42533 228.65073 105.12614 228.31445 104.11719 C 228.1463 103.61273 227.6512 103.06057 227.40234 102.88281 C 227.34692 102.84322 227.36135 102.85335 227.33789 102.83594 C 227.05509 102.56397 226.31465 101.93414 225.48438 101.72656 C 225.03465 101.61413 224.57157 101.54441 224.09375 101.5293 z M 237.76172 103.51367 A 2 2 0 0 0 236.80078 103.90039 C 235.46745 104.90039 234.23419 105.77167 233.41992 106.58594 C 233.21635 106.78951 233.01257 106.9805 232.79883 107.42383 C 232.58508 107.86716 232.50716 108.89153 232.89844 109.51758 C 233.1818 109.97094 233.44933 110.15368 233.62695 110.24805 C 233.65418 110.31781 233.97502 110.63517 234.41992 111.08008 C 235.07706 111.73721 235.72471 112.35447 235.83594 112.55469 C 235.94716 112.75489 235.96875 113.14063 236.11133 113.99609 C 236.17485 114.37717 236.22804 114.55222 236.23633 114.56641 C 236.23293 114.57706 236.23106 114.57743 236.21484 114.65039 C 236.12797 115.04133 235.58461 116.3158 235.42773 116.58398 C 235.37257 116.58382 235.29856 116.59022 235.17188 116.61133 C 234.45861 116.73021 233.86719 116.93685 233.36719 117.10352 A 2 2 0 0 0 232.10352 119.63281 A 2 2 0 0 0 234.63281 120.89648 C 235.13281 120.72982 235.54141 120.60443 235.82812 120.55664 C 236.11485 120.50884 237.71561 120.21187 238.59961 119.0332 C 239.48361 117.85454 239.87761 116.60447 240.11914 115.51758 C 240.2399 114.97415 240.26172 114.40159 240.19336 113.96875 C 240.12506 113.53591 240.06869 113.41017 240.05664 113.33789 C 240.03254 113.19336 240.05464 111.91112 239.33203 110.61133 C 238.67817 109.43437 237.86364 108.85078 237.44531 108.47461 C 238.02549 108.01442 238.40692 107.69383 239.19922 107.09961 A 2 2 0 0 0 239.59961 104.30078 A 2 2 0 0 0 238.2832 103.51953 A 2 2 0 0 0 237.76172 103.51367 z M 224.51562 105.60742 C 224.53792 105.61342 224.54134 105.64866 224.52734 105.63086 C 224.52192 105.61884 224.51983 105.61486 224.51562 105.60742 z M 244 115 A 2 2 0 0 0 242 117 L 242 119 A 2 2 0 0 0 244 121 A 2 2 0 0 0 246 119 L 246 117 A 2 2 0 0 0 244 115 z "
       transform="translate(-3,-3.5)" />
  </g>
</svg>
