<?xml version="1.0" encoding="UTF-8" standalone="no"?>
<!-- Created with Inkscape (http://www.inkscape.org/) -->

<svg
   width="300"
   height="300"
   viewBox="0 0 300 300"
   version="1.1"
   id="svg1"
   inkscape:version="1.3.2 (091e20e, 2023-11-25, custom)"
   sodipodi:docname="grad.svg"
   xmlns:inkscape="http://www.inkscape.org/namespaces/inkscape"
   xmlns:sodipodi="http://sodipodi.sourceforge.net/DTD/sodipodi-0.dtd"
   xmlns="http://www.w3.org/2000/svg"
   xmlns:svg="http://www.w3.org/2000/svg">
  <sodipodi:namedview
     id="namedview1"
     pagecolor="#ffffff"
     bordercolor="#000000"
     borderopacity="0.25"
     inkscape:showpageshadow="2"
     inkscape:pageopacity="0.0"
     inkscape:pagecheckerboard="0"
     inkscape:deskcolor="#d1d1d1"
     inkscape:document-units="px"
     inkscape:zoom="1"
     inkscape:cx="150"
     inkscape:cy="150.5"
     inkscape:window-width="1366"
     inkscape:window-height="705"
     inkscape:window-x="-8"
     inkscape:window-y="-8"
     inkscape:window-maximized="1"
     inkscape:current-layer="layer1" />
  <defs
     id="defs1">
    <inkscape:path-effect
       effect="bspline"
       id="path-effect8"
       is_visible="true"
       lpeversion="1.3"
       weight="33.333333"
       steps="2"
       helper_size="0"
       apply_no_weight="true"
       apply_with_weight="true"
       only_selected="false"
       uniform="false" />
    <inkscape:path-effect
       effect="bspline"
       id="path-effect7"
       is_visible="true"
       lpeversion="1.3"
       weight="33.333333"
       steps="2"
       helper_size="0"
       apply_no_weight="true"
       apply_with_weight="true"
       only_selected="false"
       uniform="false" />
    <inkscape:path-effect
       effect="bspline"
       id="path-effect6"
       is_visible="true"
       lpeversion="1.3"
       weight="33.333333"
       steps="2"
       helper_size="0"
       apply_no_weight="true"
       apply_with_weight="true"
       only_selected="false"
       uniform="false" />
    <inkscape:path-effect
       effect="bspline"
       id="path-effect5"
       is_visible="true"
       lpeversion="1.3"
       weight="33.333333"
       steps="2"
       helper_size="0"
       apply_no_weight="true"
       apply_with_weight="true"
       only_selected="false"
       uniform="false" />
    <inkscape:path-effect
       effect="bspline"
       id="path-effect4"
       is_visible="true"
       lpeversion="1.3"
       weight="33.333333"
       steps="2"
       helper_size="0"
       apply_no_weight="true"
       apply_with_weight="true"
       only_selected="false"
       uniform="false" />
    <inkscape:path-effect
       effect="bspline"
       id="path-effect3"
       is_visible="true"
       lpeversion="1.3"
       weight="33.333333"
       steps="2"
       helper_size="0"
       apply_no_weight="true"
       apply_with_weight="true"
       only_selected="false"
       uniform="false" />
    <inkscape:path-effect
       effect="bspline"
       id="path-effect2"
       is_visible="true"
       lpeversion="1.3"
       weight="33.333333"
       steps="2"
       helper_size="0"
       apply_no_weight="true"
       apply_with_weight="true"
       only_selected="false"
       uniform="false" />
    <inkscape:path-effect
       effect="bspline"
       id="path-effect1"
       is_visible="true"
       lpeversion="1.3"
       weight="33.333333"
       steps="2"
       helper_size="0"
       apply_no_weight="true"
       apply_with_weight="true"
       only_selected="false"
       uniform="false" />
  </defs>
  <g
     inkscape:label="Layer 1"
     inkscape:groupmode="layer"
     id="layer1">
    <path
       id="path6"
       style="color:#000000;fill:#000000;stroke-linecap:round;-inkscape-stroke:none"
       d="M 169 68 A 11 11 0 0 0 158 79 A 11 11 0 0 0 169 90 L 173 90 A 11 11 0 0 0 184 79 A 11 11 0 0 0 173 68 L 169 68 z M 51.216797 102.33398 C 46.463724 102.0949 40.797806 102.80324 35.080078 105.66211 C 27.456441 109.47393 22.222646 115.22266 17.222656 120.22266 A 11 11 0 0 0 17.222656 135.77734 A 11 11 0 0 0 32.777344 135.77734 C 37.777334 130.77736 42.543579 126.52606 44.919922 125.33789 C 47.296263 124.14972 49.764168 124.13645 51.699219 124.48828 C 52.216127 124.58228 52.409075 124.69648 52.748047 124.81445 C 52.750447 124.83795 52.772584 124.85537 52.777344 124.88867 C 52.880736 125.61242 52.939562 129.3495 52.871094 130.32422 C 52.790119 130.46011 52.671243 130.70275 52.453125 131.24805 C 51.504718 133.61906 50.119786 138.21882 49.382812 145.95703 C 48.64584 153.69525 48.333985 164.56799 48.333984 170.66602 C 48.333984 173.71502 48.395405 175.49506 48.601562 177.18555 C 48.807721 178.87604 49.778909 181.78595 49.398438 180.64453 C 49.017982 179.50315 49.072395 179.29772 49.126953 179.65234 C 49.181513 180.00697 48.932998 180.79567 50.328125 183.58594 C 50.374325 183.67834 50.445535 183.71471 50.494141 183.80469 C 51.164308 185.17407 52.371667 187.26035 53.888672 188.77734 C 55.376628 190.26531 56.340932 190.98161 57 191.4082 C 57.07608 191.635 57.738591 192.26778 60.064453 193.81836 C 64.31933 196.65495 65.037054 196.15036 63.080078 195.17188 C 62.101599 194.68264 64.174011 195.89482 66.271484 196.51172 C 68.368958 197.12862 70.500008 197.33398 73 197.33398 C 77.999994 197.33399 84.108018 196.73035 88.824219 195.78711 C 91.154637 195.32102 93.158278 194.95984 95.910156 193.01953 C 97.698099 193.82583 99.909734 194.62997 102.45117 195.03125 C 107.8888 195.88982 112.45208 195.47536 117.00195 194.33789 C 121.25486 193.27466 125.0653 190.42519 124.98633 190.48047 C 125.72326 190.0385 128.34475 188.24023 129.67188 185.58594 C 130.74225 183.44516 130.80653 182.67509 130.8125 182.24414 C 130.7247 182.6092 130.55732 183.14902 130.00586 184.25195 C 127.54885 189.16605 131.35748 182.15581 131.74805 179.03125 C 132.1386 175.90676 132.00634 173.89655 132.14453 171.68555 C 132.28272 169.47454 132.66696 166.87367 132.73828 166.55273 C 132.80958 166.23184 133.00995 166.70418 133.61914 163.6582 C 134.01198 161.69399 134.13361 160.54901 134.10938 160.27734 C 134.3318 159.37118 134.66843 157.69077 134.80469 155.7832 C 134.96341 153.56106 134.98205 151.74127 135.02734 149.87305 C 137.97013 149.98395 140.72016 150 142.66602 150 C 144.33267 150 145.52871 150.0482 147.35938 149.85547 C 147.60758 149.82937 147.97998 149.696 148.26562 149.64453 C 148.11268 154.96701 148 160.7844 148 165.16602 C 148 168.08267 147.9477 170.44814 148.25586 173.1875 C 148.56404 175.92686 149.37993 179.93463 152.72266 183.27734 C 156.06537 186.62007 159.9287 187.43111 162.66602 187.71289 C 165.40332 187.99467 167.62372 187.81313 169.78711 187.625 C 173.68926 187.28568 177.77943 186.72603 181.43359 185.9082 C 181.38739 186.08941 181.30146 186.26845 181.26172 186.44727 C 180.74123 188.78946 180.46701 190.83502 180.11523 192.35938 C 179.76346 193.88374 179.23177 195.5215 178.39844 198.02148 C 177.5651 200.52148 176.469 203.64662 175.74414 207.0293 C 175.09657 210.05127 174.9916 212.06369 175.06445 211.93945 C 174.89922 212.316 174.80188 212.47522 174.56445 213.1875 C 173.76733 215.57888 173.54622 217.17513 173.21289 218.8418 A 11 11 0 0 0 181.8418 231.78711 A 11 11 0 0 0 194.78711 223.1582 C 195.12044 221.49154 195.56601 219.75314 195.43555 220.14453 C 195.37035 220.34025 195.25661 220.59398 195.55664 219.9082 C 195.85667 219.22243 196.43734 217.62011 196.68359 216.14258 C 197.17609 213.18759 196.98072 212.92266 197.25586 211.63867 C 197.531 210.35469 198.4362 207.4785 199.26953 204.97852 C 200.10286 202.47852 200.90256 200.1156 201.55078 197.30664 C 202.199 194.49768 202.59211 191.87654 202.73828 191.21875 C 202.74558 191.18588 202.73576 191.20719 202.74023 191.18359 C 203.35895 190.08083 204.34028 188.20249 204.68359 186.14258 C 205.17609 183.18759 204.93278 183.28841 205.33789 181.66797 C 205.743 180.04753 207.04808 176.35337 208.05273 172.9375 C 209.0574 169.52162 209.62295 166.69173 209.57617 166.85547 C 209.52937 167.01925 209.63837 167.20393 210.43555 164.8125 C 210.46144 164.73481 210.46367 164.70802 210.48828 164.63281 A 11 11 0 0 0 216.13867 161.39844 C 219.472 157.73177 222.50319 154.46703 225.29883 152.17969 C 226.78862 150.96077 228.43942 149.83971 230.04688 148.83594 C 230.02538 150.78052 230.03217 152.89543 229.89648 154.16211 C 229.48909 157.96445 229.09006 157.72087 228.35547 161.63867 C 227.62088 165.55649 227.33398 169.96761 227.33398 174.16602 C 227.33398 178.36441 227.23848 181.18603 228.86719 185.5293 C 229.68155 187.7009 232.20048 191.36709 235.61523 192.88477 C 239.03 194.40243 240.91667 194 241.5 194 L 246.33398 194 C 248.33398 194 250.46463 194.11062 253.36523 193.74805 C 254.81556 193.56676 257.04855 192.94057 258.46094 192.23438 C 259.87332 191.52819 260.34381 191.15465 260.99219 190.76562 C 262.28896 189.98757 265.58684 188.19384 268.72656 185.95117 C 271.86629 183.70851 274.14658 181.45612 274.6582 181.01758 C 275.16983 180.57904 274.51929 181.70336 277.44531 178.77734 C 278.63079 177.59188 279.16705 176.65997 279.37109 176.2832 C 279.51603 176.12205 281.15292 174.40178 282.77734 172.77734 A 11 11 0 0 0 282.77734 157.22266 A 11 11 0 0 0 267.22266 157.22266 C 265.55599 158.88931 263.98576 160.36749 262.38281 162.29102 C 262.17032 162.546 262.09525 162.7148 261.90039 162.97656 C 261.41741 163.39162 260.95806 163.78623 260.3418 164.31445 C 258.52009 165.87592 257.46639 166.95816 255.93945 168.04883 C 254.41252 169.13949 251.71039 170.67846 249.67383 171.90039 C 249.61683 171.93459 249.66883 171.9054 249.61523 171.9375 C 249.59213 171.9381 249.52963 171.93845 249.50391 171.93945 C 249.62583 169.52933 249.78286 166.73687 249.97852 165.69336 C 250.24393 164.27784 251.17888 162.03683 251.77148 156.50586 C 252.36409 150.97487 253.26947 143.54204 251.36328 135.59961 C 250.41019 131.62838 247.67541 126.91485 243.29492 124.72461 C 241.10468 123.62949 239.08269 123.24924 237.39844 123.17773 C 235.71418 123.10623 234.36752 123.34207 233.52539 123.48242 C 230.15689 124.04384 226.90619 125.40731 223.6875 127.11133 C 222.53578 127.72106 221.1736 128.49456 219.74023 129.34766 C 220.02495 127.16721 220 125.45646 220 124.66602 C 220 124.41602 220.00309 124.21359 219.99609 123.86133 C 219.99309 123.6852 220.02523 123.6659 219.92773 122.75586 C 219.90333 122.52835 219.88293 122.2524 219.74414 121.60547 C 219.67474 121.282 219.58758 120.87049 219.32422 120.14648 C 219.19254 119.78448 218.69751 118.73873 218.69727 118.73828 C 218.69703 118.73783 216.99244 116.36159 216.99219 116.36133 C 216.99206 116.3612 215.11341 114.76962 215.11328 114.76953 C 215.11315 114.76945 212.06654 113.34379 212.06641 113.34375 C 212.06628 113.34371 208.15248 112.93554 208.15234 112.93555 C 208.15221 112.93556 204.61537 113.80854 204.61523 113.80859 C 204.61497 113.80871 200.79325 116.56219 200.79297 116.5625 C 200.79269 116.56281 199.69491 117.9833 199.41797 118.4707 C 198.31019 120.4203 198.41257 120.82433 198.30664 121.24805 C 197.88292 122.94291 198.04498 122.6805 198.02148 122.90234 C 197.99798 123.12419 197.9823 123.28723 197.9668 123.47266 C 197.9359 123.84351 197.9043 124.28091 197.86133 124.88281 C 197.80903 125.61509 197.66888 126.80659 197.58594 127.86914 C 197.36961 128.55775 197.05236 129.43313 196.49414 131.66602 C 195.78489 134.50299 195.61715 136.09472 194.64258 139.29688 C 193.66801 142.49904 191.67272 147.76972 190.40234 150.4375 C 189.13198 153.10528 189.23125 152.88008 186.88867 155.22266 C 184.5461 157.56522 180.57387 161.21811 178.18164 163.43945 C 177.66191 163.92206 177.47597 164.15528 177.36133 164.33008 C 177.33793 164.33508 177.35833 164.32113 177.33203 164.32812 C 176.23813 164.6016 172.88689 165.05037 170.00586 165.39844 C 170.00568 165.27962 170 165.28789 170 165.16602 C 170 159.33269 170.0214 150.63553 170.3125 145.83203 C 170.60362 141.02854 170.75039 140.88177 172.13281 137.19531 C 173.51524 133.50886 175.77141 128.03926 176.76758 125.44922 C 177.01662 124.80171 177.15364 124.54728 177.4707 123.40234 C 177.55 123.11611 177.6515 122.7824 177.76758 122.01758 C 177.88366 121.25276 179.06774 120.58079 176.92773 115.81445 C 176.66023 115.21866 176.2987 114.55265 175.79102 113.85352 C 175.28333 113.15438 173.80339 111.7603 173.80273 111.75977 C 173.80173 111.75877 167.93532 109.36345 167.93359 109.36328 C 167.93273 109.3632 166.09279 109.31568 165.3418 109.42188 C 164.5908 109.52806 163.95922 109.69397 163.42383 109.87109 C 162.35305 110.22535 161.65288 110.61259 161.11719 110.94141 C 158.97443 112.25668 158.82089 112.80043 158.48242 113.19531 C 158.12004 113.6181 158.3349 113.40946 158.16992 113.62305 C 157.76146 114.02914 158.28373 113.49361 157.38867 114.38867 C 157.17616 114.60118 157.20129 114.67246 157.02148 114.86914 C 156.54768 115.2931 156.13613 115.64121 155.38867 116.38867 C 154.64121 117.13613 154.2931 117.54768 153.86914 118.02148 C 153.67246 118.20129 153.60118 118.17616 153.38867 118.38867 C 151.91893 119.85841 151.38424 120.70391 151.17383 121.19922 C 150.87777 121.49582 150.6618 121.69708 150.69141 121.68164 C 150.16737 122.00653 149.02253 122.75481 148.05469 123.72266 C 147.3641 124.41324 147.23127 124.56373 146.9375 124.86914 C 146.40834 125.1653 145.37287 125.86897 143.95703 127.04883 C 143.41962 127.49667 143.26962 127.64965 142.86328 127.99805 C 142.73552 127.99864 142.80358 128 142.66602 128 C 139.33268 128 133.57713 127.87625 131.72266 127.61133 C 130.79542 127.47887 130.46219 127.34895 129.04297 126.99414 C 128.33336 126.81674 127.36043 126.37078 124.69922 126.53711 C 122.03801 126.70343 117.13445 129.28372 115.40039 132.17383 C 111.93231 137.95399 113.533 138.89147 113.56445 140.30664 C 113.59185 141.54138 113.63834 142.27931 113.65234 142.36523 C 113.50178 143.0967 113.29843 144.03254 113.19922 145.32227 C 112.94653 148.60717 112.95904 152.84885 112.86133 154.2168 C 112.76363 155.58471 112.99005 153.29582 112.38086 156.3418 C 112.09641 157.76403 111.96696 158.71931 111.91406 159.29297 C 111.75448 159.78322 111.53183 160.56572 111.26172 161.78125 C 110.66637 164.46031 110.38265 167.19214 110.1875 170.31445 C 110.0974 171.75648 110.1132 171.94445 110.0625 173.08008 C 108.52821 173.21907 106.53015 173.40299 105.88281 173.30078 C 105.60361 173.25668 105.30335 172.99793 105.13867 172.94922 C 105.03583 171.28769 105.00207 166.48344 104.82617 161.91016 C 104.64785 157.27375 104.30689 153.19393 104.11133 151.23828 C 104.06243 150.74937 104.04123 150.46447 103.93945 149.80859 C 103.88855 149.48065 104.43139 149.9901 103.14258 147 C 102.98148 146.62624 102.76901 146.15853 102.33984 145.47852 C 102.12526 145.13851 101.85431 144.74384 101.46289 144.27734 C 101.07147 143.81085 99.8071 142.67809 99.806641 142.67773 C 99.806182 142.67738 96.684041 140.96891 96.683594 140.96875 C 96.683147 140.96859 91.961373 140.39644 91.960938 140.39648 C 91.960503 140.39653 87.594174 141.78296 87.59375 141.7832 C 87.593326 141.78344 85.021896 143.80425 85.021484 143.80469 C 85.021072 143.80512 84.034138 144.99081 83.736328 145.46094 C 83.438518 145.93106 83.236465 146.3224 83.078125 146.6582 C 82.761444 147.32981 82.61338 147.78802 82.501953 148.1543 C 82.2791 148.88685 82.220101 149.26534 82.169922 149.56641 C 81.768492 151.97495 82.007801 151.35447 82.003906 151.68945 C 82.000006 152.02444 82 152.33268 82 152.66602 L 82 158.33398 C 82 160.66732 81.93974 163.39553 81.888672 163.90625 C 81.837602 164.41698 81.425631 165.65837 81.195312 168.88281 C 81.044518 170.99394 81.023451 172.71614 80.976562 174.55664 C 78.044364 174.90163 74.617063 175.33398 73 175.33398 C 72.703821 175.33398 72.658647 175.34332 72.638672 175.35156 C 72.520981 175.29189 72.489409 175.27468 72.345703 175.20117 C 71.964 174.89569 71.839387 174.78479 71.371094 174.41016 C 70.914944 174.04524 70.78248 173.95081 70.416016 173.6582 C 70.386816 173.2183 70.333984 172.6965 70.333984 170.66602 C 70.333985 165.43073 70.686846 154.30472 71.283203 148.04297 C 71.879561 141.78122 72.495938 140.38027 72.880859 139.41797 C 73.265777 138.45567 74.535856 135.3549 74.794922 132.24609 C 75.053986 129.13731 75.118131 125.70779 74.556641 121.77734 C 73.995148 117.84691 72.12889 114.03707 72.546875 115.08203 C 72.964849 116.12697 70.992952 110.88654 67.992188 108.31445 C 64.991393 105.74235 61.033034 103.82525 55.634766 102.84375 C 54.285199 102.59837 52.801154 102.41368 51.216797 102.33398 z M 135.77148 139.50195 C 135.93581 139.40715 135.72338 140.02995 135.58789 140.58008 C 135.57629 140.39936 135.56325 139.94135 135.56055 139.81836 C 135.55755 139.7034 135.6614 139.56548 135.77148 139.50195 z M 82.201172 153.18164 C 82.146272 152.82784 82.186263 153.08334 82.220703 153.42773 C 82.226103 153.48193 82.240104 153.73295 82.246094 153.79492 C 82.148214 153.35753 82.217222 153.28509 82.201172 153.18164 z M 241.80664 171.94727 C 241.83844 171.95027 241.94538 171.9958 241.98047 172 L 241.5 172 C 241.20833 172 241.3041 171.89993 241.80664 171.94727 z " />
  </g>
</svg>
